<?xml version="1.0" encoding="utf-8"?>
<!-- Generator: Adobe Illustrator 17.1.0, SVG Export Plug-In . SVG Version: 6.00 Build 0)  -->
<!DOCTYPE svg PUBLIC "-//W3C//DTD SVG 1.1//EN" "http://www.w3.org/Graphics/SVG/1.1/DTD/svg11.dtd">
<svg version="1.1" id="Layer_1" xmlns="http://www.w3.org/2000/svg" xmlns:xlink="http://www.w3.org/1999/xlink" x="0px" y="0px"
	 viewBox="0 0 772.2 513.1" enable-background="new 0 0 772.2 513.1" xml:space="preserve">
<path d="M363.9,473.3c0.3,0,0.6,0,0.9-0.1c1.3-0.4,2-1.8,1.5-3c-17-43.6,3.6-79.9,13.5-97.3c2.7-4.7,4.5-7.9,4.8-10
	c5.9-35.7,2.1-36.4,0.1-36.7c-1.8-0.3-5.7-2-7.7-3c-1.2-0.6-2.8-0.2-3.4,1c-0.6,1.2-0.2,2.6,1.1,3.2c0.5,0.3,4.8,2.3,8,3.2
	c0.7,3.8-0.9,19.2-3,31.7c-0.2,1.3-2.1,4.6-4.3,8.5c-10.2,18-31.6,55.5-13.8,101.1C361.9,472.7,362.9,473.3,363.9,473.3L363.9,473.3
	z"/>
<path d="M366.5,371.4c1.2,0,2.3-0.8,2.5-2c0-0.1,2.3-15.1,3.7-20.8c1.4-5.8,7.5-39.4,7.7-40.8l0.2-1.2l-0.9-0.9
	c-4.3-4.2-14.2,1.2-17.6,4.1c-1,0.9-1.1,2.4-0.1,3.3c1,1,2.6,1,3.6,0.1c2.8-2.4,7.3-4.2,9.4-4.4c-1.3,7.4-6.2,33.7-7.3,38.7
	c-1.4,5.9-3.7,20.5-3.8,21.1c-0.2,1.3,0.8,2.5,2.2,2.7C366.3,371.4,366.4,371.4,366.5,371.4L366.5,371.4z"/>
<path d="M352,371.4c1,0,1.9-0.5,2.3-1.3c0.3-0.6,7.2-14.3,8-25.4c0.7-10.7,4.2-45.3,4.2-45.7l0.1-1.5l-1.3-0.8
	c-0.4-0.2-4.1-2.2-8.2-1.1c-2.7,0.8-4.9,2.7-6.3,5.8c-1.5,3.2-1.9,7.5-2.4,12.4c-0.8,8.3-1.7,18.7-8.3,28.1
	c-0.8,1.1-0.4,2.5,0.8,3.3c1.2,0.7,2.8,0.4,3.5-0.7c7.3-10.4,8.3-21.4,9.1-30.3c0.4-4.6,0.8-8.5,1.9-10.9c0.8-1.8,1.9-2.8,3.2-3.2
	c0.9-0.3,1.9-0.1,2.7,0.1c-0.7,7.1-3.4,34.8-4.1,44.1c-0.7,10.2-7.4,23.5-7.5,23.7c-0.6,1.2-0.1,2.6,1.2,3.1
	C351.3,371.4,351.6,371.4,352,371.4L352,371.4z"/>
<path d="M318.3,476.5c0,0,0.1,0,0.1,0c1.4,0,2.5-1.1,2.4-2.4c-2-44.8-18.3-56.3-28-63.2c-3.9-2.7-5.7-4.1-5.7-6.1
	c0-7.5-2.9-16-5.5-23.5c-2.6-7.6-5.5-16.1-3-18.4c1.5-1.3,2.8-2,3.6-1.8c2.8,0.7,5.1,9.2,6.9,15.5c2.5,9.2,4.7,17.1,10.2,18.7
	c6.4,1.8,11.9-6.6,16.4-13.3c1-1.5,1.9-2.8,2.6-3.8c3.7-4.9,13.1-30.5,13.1-34.7c0-6.2,1.4-33.5,4.2-38.1c0.5-0.9,1.1-1,1.4-1.1
	c1.3-0.2,3.3,0.9,4.6,1.8c-0.4,5.4-2,27.2-2,37.4c0,10.9-4.7,23.9-4.8,24c-0.5,1.2,0.3,2.6,1.6,3c1.3,0.4,2.8-0.2,3.2-1.5
	c0.2-0.6,5.1-13.8,5.1-25.5c0-11.3,2.1-38,2.1-38.3l0.1-1.1l-0.9-0.8c-0.5-0.4-5.1-4.3-9.7-3.7c-1.5,0.2-3.6,1-5.1,3.4
	c-4.2,6.8-4.9,40.2-4.9,40.5c0,3-8.8,27.7-12.2,32c-0.8,1-1.7,2.4-2.8,4.1c-2.2,3.3-7.9,12-10.5,11.3c-2.7-0.8-5.1-9.2-6.8-15.4
	c-2.6-9.3-4.8-17.4-10.4-18.8c-2.7-0.7-5.5,0.3-8.5,3c-4.8,4.3-1.8,13.1,1.7,23.2c2.5,7.2,5.3,15.3,5.3,22c0,4.4,3.6,7,7.7,9.9
	c9,6.4,24.1,17,26,59.6C315.8,475.5,317,476.5,318.3,476.5L318.3,476.5z"/>
<path d="M181.4,416.1c0.4,0,0.7-0.1,1-0.2c10.7-4.5,26-27.8,28.1-43.1c9.2-64.6,37.3-83.4,59.2-87.8c27.2-5.4,55.9,9.2,62.5,19
	c0.7,1.1,2.3,1.4,3.5,0.8c1.2-0.7,1.6-2.1,0.8-3.2c-7-10.4-37.3-27.3-67.9-21.1c-23.6,4.7-53.6,24.5-63.2,91.7
	c-2.1,14.5-16.8,35.9-25.2,39.4c-1.3,0.5-1.8,1.9-1.3,3.1C179.5,415.6,180.4,416.1,181.4,416.1L181.4,416.1z"/>
<path d="M277.8,470.3c1.3,0,2.4-0.1,3.3-0.4c6.7-1.9,14.2-9.5,20.2-15.6c2.8-2.9,5.5-5.6,7.3-6.8c1.1-0.8,1.4-2.2,0.5-3.3
	c-0.8-1-2.4-1.3-3.6-0.5c-2.1,1.5-4.8,4.2-8,7.4c-5.3,5.4-12.6,12.8-17.9,14.3c-3.4,1-13.5-1.3-23-7.8c-7.8-5.4-21-17.9-20.7-40.6
	c0-1.3-1.1-2.4-2.5-2.4h0c-1.4,0-2.5,1-2.5,2.3c-0.3,24.7,14.1,38.4,22.7,44.4C262.3,467.4,271.8,470.3,277.8,470.3L277.8,470.3z"/>
<path d="M235.6,391.4c3.3,0,4.9-1.4,5.5-2.4c0.8-1.1,0.5-2.5-0.7-3.3c-1.2-0.7-2.7-0.4-3.5,0.7c0,0.1-0.6,0.3-1.8,0.2
	c-4-0.3-11.2-3.9-14.4-10.2c-2.8-5.5-1.8-11.8,3.1-18.2c4-5.2,7.8-7.7,11.3-7.3c6.2,0.8,11.3,10.2,12.7,13.8c0.5,1.2,2,1.8,3.3,1.4
	c1.3-0.4,2-1.8,1.5-3c-0.2-0.6-6.3-15.5-16.8-16.8c-5.6-0.7-11,2.4-16.1,9.2c-7.5,9.9-6.1,17.9-3.5,22.9
	c3.8,7.5,12.5,12.4,18.6,12.8C235,391.4,235.3,391.4,235.6,391.4L235.6,391.4z"/>
<path d="M227,470.3c0.6,0,1.2-0.2,1.7-0.6c1-0.9,1.1-2.4,0.2-3.3c-1-2.1,4.9-12.6,12.7-22.5c0.8-1,0.6-2.5-0.6-3.3
	c-1.1-0.8-2.7-0.5-3.5,0.5c-6.7,8.5-17.2,23.5-12.3,28.5C225.7,470.1,226.4,470.3,227,470.3L227,470.3z"/>
<path d="M386,297.7c0.8,0,1.5-0.3,2-1c0.1-0.1,9.5-11.9,16.2-17c1.1-0.8,1.2-2.3,0.3-3.3c-0.9-1-2.5-1.1-3.6-0.3
	c-7.2,5.5-16.7,17.4-17.1,17.9c-0.8,1-0.6,2.5,0.5,3.3C385,297.6,385.5,297.7,386,297.7L386,297.7z"/>
<path d="M359.7,283c1.3,0,2.5-1,2.5-2.2c0.2-3.5,1.5-13.3,4.7-16.9c0.9-1,0.7-2.5-0.3-3.3c-1.1-0.8-2.7-0.7-3.6,0.3
	c-4.8,5.4-5.7,18.1-5.8,19.6c-0.1,1.3,1,2.4,2.4,2.5C359.6,283,359.7,283,359.7,283L359.7,283z"/>
<path d="M334.5,283c0.1,0,0.3,0,0.4,0c1.4-0.2,2.3-1.4,2.1-2.7c-0.1-0.5-2.4-13.3-6.7-22.1c-0.6-1.2-2.1-1.7-3.4-1.2
	c-1.3,0.5-1.8,1.9-1.3,3.1c4,8.3,6.3,20.8,6.3,20.9C332.2,282.2,333.2,283,334.5,283L334.5,283z"/>
<path d="M398.3,316.3c0.5,0,1-0.1,1.4-0.4c0.1-0.1,13.4-8.2,21.4-10.4c1.4-0.4,2.1-1.7,1.7-2.9c-0.4-1.2-1.8-2-3.1-1.6
	c-8.7,2.3-22.2,10.6-22.8,11c-1.2,0.7-1.5,2.2-0.7,3.3C396.7,315.9,397.5,316.3,398.3,316.3L398.3,316.3z"/>
<path d="M402.7,337.8c0.3,0,0.5,0,0.8-0.1c0.1,0,7.9-2.3,16.8-1.9c1.4,0,2.6-0.9,2.7-2.2c0.1-1.3-1-2.4-2.4-2.5
	c-10-0.4-18.2,2-18.6,2.1c-1.3,0.4-2.1,1.7-1.6,3C400.6,337.1,401.6,337.8,402.7,337.8L402.7,337.8z"/>
<path d="M418.3,364.2c1.2,0,2.2-0.7,2.5-1.8c0.3-1.3-0.6-2.5-1.9-2.8c-9.7-2-18.3-0.9-18.7-0.8c-1.4,0.2-2.4,1.4-2.2,2.7
	s1.4,2.2,2.9,2c0.1,0,8.1-1,16.9,0.8C417.9,364.2,418.1,364.2,418.3,364.2L418.3,364.2z"/>
<ellipse fill="#EFEFEF" stroke="#8E8E8E" stroke-miterlimit="10" cx="436.2" cy="242.2" rx="8" ry="9"/>
<ellipse fill="#EFEFEF" stroke="#8E8E8E" stroke-miterlimit="10" cx="465.2" cy="202.2" rx="7" ry="9"/>
<ellipse fill="#EFEFEF" stroke="#8E8E8E" stroke-miterlimit="10" cx="499.7" cy="159.2" rx="9.5" ry="11"/>
<ellipse fill="#EFEFEF" stroke="#8B8B8B" stroke-width="1.1638" stroke-miterlimit="10" cx="553" cy="77.7" rx="73.2" ry="53.5"/>
<path fill="#BC810C" d="M554.7,59.3c-0.8,0-1.3-0.6-1.3-1.3v-6.6c0-0.8,0.6-1.3,1.3-1.3s1.3,0.6,1.3,1.3V58
	C556,58.7,555.4,59.3,554.7,59.3z"/>
<path fill="#BC810C" d="M569.7,93.4c-0.3,0-0.7-0.1-1-0.4l-2.3-2.3c-0.6-0.6-0.6-1.3,0-1.9c0.6-0.6,1.3-0.6,1.9,0l2.3,2.3
	c0.6,0.6,0.6,1.3,0,1.9C570.3,93.3,570,93.4,569.7,93.4L569.7,93.4z"/>
<path fill="#BC810C" d="M554.7,104.7c-0.8,0-1.3-0.6-1.3-1.3v-6.6c0-0.8,0.6-1.3,1.3-1.3s1.3,0.6,1.3,1.3v6.6
	C556,104.1,555.4,104.7,554.7,104.7z"/>
<path fill="#BC810C" d="M580.9,78.5h-6.6c-0.8,0-1.3-0.6-1.3-1.3c0-0.8,0.6-1.3,1.3-1.3h6.6c0.8,0,1.3,0.6,1.3,1.3
	C582.2,78,581.6,78.5,580.9,78.5z"/>
<path fill="#BC810C" d="M537.7,78.5h-6.6c-0.8,0-1.3-0.6-1.3-1.3c0-0.8,0.6-1.3,1.3-1.3h6.6c0.8,0,1.3,0.6,1.3,1.3
	C539,78,538.4,78.5,537.7,78.5z"/>
<path fill="#BC810C" d="M554.7,78.5c-0.3,0-0.7-0.1-1-0.4c-0.6-0.6-0.6-1.3,0-1.9l14.7-14.6c0.6-0.6,1.3-0.6,1.9,0
	c0.6,0.6,0.6,1.3,0,1.9l-14.6,14.7C555.3,78.4,555,78.5,554.7,78.5L554.7,78.5z"/>
<path fill="#BC810C" d="M573.9,58c-3,1.3-7,2.7-10.1,2.9l4.9,2.3l2.3,4.9C571.2,65.1,572.4,61,573.9,58L573.9,58z"/>
<path fill="#BC810C" d="M554.7,114.7c-5.6,0-11-1.2-16.1-3.7c-1-0.4-1.4-1.7-1-2.7s1.7-1.4,2.7-1c7.1,3.3,15.2,4.1,22.8,2.1
	c8.7-2.2,15.9-7.8,20.3-15.4c4.4-7.7,5.7-16.7,3.4-25.3c-2.2-8.7-7.8-15.9-15.4-20.3c-7.7-4.4-16.7-5.7-25.3-3.4
	c-14.1,3.8-24.1,16.2-24.7,30.9c0,1.1-1,2-2.1,1.9c-1.1,0-2-1-1.9-2.1c0.7-16.4,11.9-30.3,27.8-34.6c9.7-2.6,19.8-1.2,28.3,3.9
	c8.7,5,14.8,13.1,17.3,22.8c2.6,9.7,1.2,19.8-3.9,28.3c-5.1,8.6-13,14.9-22.7,17.4C561,114.2,557.9,114.7,554.7,114.7L554.7,114.7z"
	/>
<path fill="#BC810C" d="M519.2,78.5c-0.6,0-1.2-0.2-1.6-0.8l-8.9-11.2c-0.7-0.9-0.6-2.1,0.3-2.9c0.9-0.7,2.1-0.6,2.9,0.3l8.9,11.2
	c0.7,0.9,0.6,2.1-0.3,2.9C520.1,78.4,519.7,78.5,519.2,78.5z"/>
<path fill="#BC810C" d="M519.2,78.5c-0.6,0-1.1-0.2-1.6-0.8c-0.7-0.9-0.6-2.1,0.2-2.9l11.9-9.9c0.9-0.7,2.1-0.6,2.9,0.2
	c0.7,0.9,0.6,2.1-0.2,2.9L520.6,78C520.2,78.4,519.7,78.5,519.2,78.5L519.2,78.5z"/>
<path fill="#BC810C" d="M544.7,66.3c-0.3,0-0.7-0.1-1-0.4l-2.3-2.3c-0.6-0.6-0.6-1.3,0-1.9c0.6-0.6,1.3-0.6,1.9,0l2.3,2.3
	c0.6,0.6,0.6,1.3,0,1.9C545.3,66.2,545,66.3,544.7,66.3L544.7,66.3z"/>
<path fill="#BC810C" d="M537.7,78.9h-6.6c-0.8,0-1.3-0.6-1.3-1.3c0-0.8,0.6-1.3,1.3-1.3h6.6c0.8,0,1.3,0.6,1.3,1.3
	C539,78.3,538.4,78.9,537.7,78.9z"/>
<path fill="#BC810C" d="M540.2,93.4c-0.3,0-0.7-0.1-1-0.4c-0.6-0.6-0.6-1.3,0-1.9l2.3-2.3c0.6-0.6,1.3-0.6,1.9,0
	c0.6,0.6,0.6,1.3,0,1.9l-2.3,2.3C540.9,93.3,540.6,93.4,540.2,93.4L540.2,93.4z"/>
</svg>
