<?xml version="1.0" encoding="utf-8"?>
<!-- Generator: Adobe Illustrator 17.1.0, SVG Export Plug-In . SVG Version: 6.00 Build 0)  -->
<!DOCTYPE svg PUBLIC "-//W3C//DTD SVG 1.1//EN" "http://www.w3.org/Graphics/SVG/1.1/DTD/svg11.dtd">
<svg version="1.1" id="Layer_1" xmlns="http://www.w3.org/2000/svg" xmlns:xlink="http://www.w3.org/1999/xlink" x="0px" y="0px"
	 viewBox="0 0 752.1 488.3" enable-background="new 0 0 752.1 488.3" xml:space="preserve">
<path fill="none" stroke="#000000" stroke-miterlimit="10" d="M151.3,163.8c2.8,12.1-4.7,24.3-16.9,27.1
	c-12.1,2.8-24.3-4.7-27.1-16.9c-2.8-12.1,4.7-24.3,16.9-27.1C136.3,144.1,148.4,151.7,151.3,163.8"/>
<path d="M213.3,243.7c0.2-3.2-1.5-6.1-4.1-7.6v14C211.4,248.9,213.1,246.5,213.3,243.7z"/>
<path d="M188.9,337c0.9,0,1.9-0.7,2.4-1.4l1.1-1.8c0.5-0.7,1.5-1,2.2-0.6l1.8,1c0.8,0.4,2,0.4,2.8,0l1.8-1c0.8-0.4,1.8-0.1,2.2,0.6
	l1.1,1.8c0.5,0.7,1.5,1.4,2.4,1.4l2.1,0.1c0.8,0,1.6,0.8,1.6,1.7l0.1,2.2c0,0.9,0.7,2,1.4,2.5l1.8,1.2c0.7,0.5,1,1.5,0.6,2.3l-1,1.9
	c-0.4,0.8-0.4,2.1,0,2.9l1,1.9c0.4,0.8,0.1,1.8-0.6,2.3l-1.8,1.2c-0.7,0.5-1.3,1.6-1.4,2.5l-0.1,2.2c0,0.9-0.8,1.7-1.6,1.7l-2.1,0.1
	c-0.9,0-1.9,0.7-2.4,1.4l-1.1,1.8c-0.5,0.7-1.5,1-2.2,0.6l-1.8-1c-0.8-0.4-2-0.4-2.8,0l-1.8,1c-0.8,0.4-1.8,0.1-2.2-0.6l-1.1-1.8
	c-0.5-0.7-1.5-1.4-2.4-1.4l-2.1-0.1c-0.9,0-1.6-0.8-1.6-1.7l-0.1-2.2c0-0.9-0.7-2-1.4-2.5l-1.7-1.2c-0.7-0.5-1-1.5-0.6-2.3l0.9-1.9
	c0.4-0.8,0.4-2.1,0-2.9l-0.9-1.9c-0.4-0.8-0.1-1.8,0.6-2.3l1.7-1.2c0.7-0.5,1.3-1.6,1.4-2.5l0.1-2.2c0-0.9,0.8-1.7,1.6-1.7
	L188.9,337z M181.4,331.1L181.4,331.1c-5,4.7-8.2,11.5-8.2,19.2c0,14.2,11,25.7,24.7,25.7s24.7-11.5,24.7-25.7
	c0-7.6-3.2-14.5-8.3-19.2c-0.8-0.9-7.1-8.5-7.1-23.5v-56.7v-15.6V222c0,0-1.1-17,4-25.7c10.2-5.7,16.2-17.2,14.1-28.9
	c-1.8-9.7-8.6-17.1-17.4-20.2c1.5,8.3,3.6,19.9,3.8,21.2c0.4,1.9-5.3,8.9-12.8,10.4c-7.5,1.5-15.3-3.3-15.6-4.8
	c-0.2-1-2.3-12.8-3.8-21.2c-7.1,6.2-10.9,15.7-9.1,25.4c1.5,8.6,7.1,15.3,14.4,19c4.6,9.9,3.7,24.8,3.7,24.8v9.5v16.9v59.3
	C188.5,323.5,181.4,331.1,181.4,331.1L181.4,331.1z"/>
<path fill="none" stroke="#000000" stroke-miterlimit="10" d="M71.5,288.6c1.2,0.6,2.5,1,3.9,1h0.1c1.4,0,2.7-0.4,3.8-1l2.8,10.1
	H68.7L71.5,288.6z M58.5,336.2h33.9v-9h3.5l-3.2-28.6H86l-3.6-13c0.7-1.2,1.1-2.6,1.1-4.2c0-0.5,0-0.9,0-1.4
	c0-32,7.8-48.4,14.6-56.7c1.4-1.7,2.8-3.1,4.1-4.3v144.8c0,6.9,5.5,12.4,12.4,12.4c6.8,0,12.4-5.5,12.4-12.4v-81.5h4.8v81.5
	c0,6.9,5.5,12.4,12.4,12.4c6.8,0,12.4-5.5,12.4-12.4V255.5c0-0.6-0.1-1.2-0.1-1.8v-24c7,6.8,16.9,13.8,30.1,17.9v-17
	c-8.2-3.3-14.4-8-19.1-12.6c-3.9-3.8-6.8-7.6-8.5-10.4c-0.9-1.4-1.5-2.5-1.9-3.2c-0.2-0.4-0.3-0.6-0.4-0.8c0-0.1-0.1-0.1-0.1-0.1
	c0,0,0,0,0,0c-0.4-0.9-1-1.7-1.7-2.4c-1.4-1.8-3.6-3-6.1-3l-38.8,0c-0.6,0-1.3,0.1-1.9,0.2c-0.5,0-1,0.1-1.5,0.2
	c-1.2,0.2-11.4,2.8-21,14.6C76,225,67.4,245.5,67.4,280.1c0,0.5,0,1,0,1.6c0,1.5,0.4,2.8,1.1,4l-3.6,13l-6.7,0L55,327.2h3.5
	L58.5,336.2z"/>
<path fill="none" stroke="#000000" stroke-miterlimit="10" d="M363,164.1c2.8,12.1-4.7,24.3-16.9,27.1c-12.1,2.8-24.3-4.7-27.1-16.9
	c-2.8-12.1,4.7-24.3,16.9-27.1C348,144.4,360.2,152,363,164.1"/>
<path d="M421,244c0.2-3.2-1.5-6.1-4.1-7.6v14C419.2,249.2,420.8,246.9,421,244z"/>
<path fill="none" stroke="#000000" stroke-miterlimit="10" d="M283.2,288.9c1.2,0.6,2.5,1,3.9,1h0.1c1.4,0,2.7-0.4,3.8-1l2.8,10.1
	h-13.5L283.2,288.9z M270.2,336.5h33.9v-9h3.5l-3.2-28.6h-6.7l-3.6-13c0.7-1.2,1.1-2.6,1.1-4.2c0-0.5,0-0.9,0-1.4
	c0-32,7.8-48.4,14.6-56.7c1.4-1.7,2.8-3.1,4.1-4.3v144.8c0,6.9,5.5,12.4,12.4,12.4c6.8,0,12.4-5.5,12.4-12.4v-81.5h4.8v81.5
	c0,6.9,5.5,12.4,12.4,12.4c6.8,0,12.4-5.5,12.4-12.4V255.9c0-0.6-0.1-1.2-0.1-1.8v-24c7,6.8,16.9,13.8,30.1,17.9v-17
	c-8.2-3.3-14.4-8-19.1-12.6c-3.9-3.8-6.8-7.6-8.5-10.4c-0.9-1.4-1.5-2.5-1.9-3.2c-0.2-0.4-0.3-0.6-0.4-0.8c0-0.1-0.1-0.1-0.1-0.1
	c0,0,0,0,0,0c-0.4-0.9-1-1.7-1.7-2.4c-1.4-1.8-3.6-3-6.1-3l-38.8,0c-0.6,0-1.3,0.1-1.9,0.2c-0.5,0-1,0.1-1.5,0.2
	c-1.2,0.2-11.4,2.8-21,14.6c-9.6,11.8-18.2,32.3-18.2,66.9c0,0.5,0,1,0,1.6c0,1.5,0.4,2.8,1.1,4l-3.6,13l-6.7,0l-3.2,28.6h3.5
	L270.2,336.5z"/>
<path d="M396.3,288.7l5.6-0.2l1.1,47.6l-5.6,0.1L396.3,288.7z M407.5,288.4l5.6-0.2l1.1,47.6l-5.6,0.2L407.5,288.4z M395.8,355.1
	c5.9,5.6,15.3,5.4,21-0.6c2.8-3,4.2-6.8,4.1-10.6l-1.6-70.5l-29.7,0.8l1.6,70.5C391.3,348.6,392.8,352.3,395.8,355.1L395.8,355.1z"
	/>
<polygon points="410.8,201.1 417.6,191.7 410.1,161.2 395.1,162.3 395.1,162.6 394.8,162.4 388.4,194 395.8,202.6 397.2,276.4 
	412.2,275.2 "/>
<path d="M625.6,171.3c14.9-7.3,36.6,0,36.6,0c4,7,11.3,5.6,15.3,4.1c2.3,5.5,0.1,10.6-1.3,13.1c-6.1-3.5-12.2-0.5-12.2-0.5
	c-4.8,1.9-8.1,8.7-8.1,8.7l-0.1,1.5c-2.2-0.3-4.7-0.5-7.3-0.8c-3.7-0.4-7.1-0.6-10-0.8c0.2-1,0.4-1.5,0.5-1.6l-1.8-13.8
	c-16.6-9.4-33.3,10.4-33.3,10.4C613.7,177.1,625.6,171.3,625.6,171.3L625.6,171.3z M648.2,199.7c2.6,0.3,5.1,0.5,7.3,0.6
	c-8.1,82.8-3.1,118.4-4.3,118.8c-4.4,5-14.2,8-24.1-0.4c0,0,7.7-100.4,10.9-120.2C641,198.9,644.5,199.3,648.2,199.7L648.2,199.7z
	 M686.1,173.8c0,0,2.4,12.8-1.7,17.3c0,0-2.1,0.7-6.8-0.7c0,0,6.3-8,1.6-16.3C679.2,174.1,684.1,173.1,686.1,173.8L686.1,173.8z"/>
<path fill="none" stroke="#000000" stroke-miterlimit="10" d="M596.1,164.1c2.8,12.1-4.7,24.3-16.9,27.1
	c-12.1,2.8-24.3-4.7-27.1-16.9c-2.8-12.1,4.7-24.3,16.9-27.1C581.1,144.4,593.3,152,596.1,164.1"/>
<path fill="none" stroke="#000000" stroke-miterlimit="10" d="M516.4,288.9c1.2,0.6,2.5,1,3.9,1h0.1c1.4,0,2.7-0.4,3.8-1L527,299
	h-13.5L516.4,288.9z M503.3,336.5h33.9v-9h3.5l-3.2-28.6h-6.7l-3.6-13c0.7-1.2,1.1-2.6,1.1-4.2c0-0.5,0-0.9,0-1.4
	c0-32,7.8-48.4,14.6-56.7c1.4-1.7,2.8-3.1,4.1-4.3v144.8c0,6.9,5.5,12.4,12.4,12.4c6.8,0,12.4-5.5,12.4-12.4v-81.5h4.8v81.5
	c0,6.9,5.5,12.4,12.4,12.4c6.8,0,12.4-5.5,12.4-12.4V255.9c0-0.6-0.1-1.2-0.1-1.8v-24c7,6.8,16.9,13.8,30.1,17.9v-17
	c-8.2-3.3-14.4-8-19.1-12.6c-3.9-3.8-6.8-7.6-8.5-10.4c-0.9-1.4-1.5-2.5-1.9-3.2c-0.2-0.4-0.3-0.6-0.4-0.8c0-0.1-0.1-0.1-0.1-0.1
	c0,0,0,0,0,0c-0.4-0.9-1-1.7-1.7-2.4c-1.4-1.8-3.6-3-6.1-3l-38.8,0c-0.6,0-1.3,0.1-1.9,0.2c-0.5,0-1,0.1-1.5,0.2
	c-1.2,0.2-11.4,2.8-21,14.6c-9.6,11.8-18.2,32.3-18.2,66.9c0,0.5,0,1,0,1.6c0,1.5,0.4,2.8,1.1,4l-3.6,13l-6.7,0l-3.2,28.6h3.5
	L503.3,336.5z"/>
</svg>
