<?xml version="1.0" encoding="utf-8"?>
<!-- Generator: Adobe Illustrator 17.1.0, SVG Export Plug-In . SVG Version: 6.00 Build 0)  -->
<!DOCTYPE svg PUBLIC "-//W3C//DTD SVG 1.1//EN" "http://www.w3.org/Graphics/SVG/1.1/DTD/svg11.dtd">
<svg version="1.1" id="Layer_1" xmlns="http://www.w3.org/2000/svg" xmlns:xlink="http://www.w3.org/1999/xlink" x="0px" y="0px"
	 viewBox="0 0 850 550" enable-background="new 0 0 850 550" xml:space="preserve">
<rect x="16" fill="#E9F4D4" width="850" height="566"/>
<rect x="142" y="238" fill="#F9F9F9" width="149" height="96"/>
<rect x="-14" fill="#DCE5E5" width="393" height="575"/>
<path d="M813,218.4h-42.6v-14.2H813V218.4z M813,239.9h-42.6v-14.2H813V239.9z M791.7,284.2c-3.7,0-6.8-3-6.8-6.8
	c0-3.7,3-6.8,6.8-6.8s6.8,3,6.8,6.8C798.5,281.2,795.4,284.2,791.7,284.2z M762,193.3v120.6h59.3V193.3H762z"/>
<path d="M723.8,284.2c-3.7,0-6.8-3-6.8-6.8c0-3.7,3-6.8,6.8-6.8c3.7,0,6.8,3,6.8,6.8C730.5,281.2,727.5,284.2,723.8,284.2z
	 M702.5,204.3h42.6v14.2H712l0,7.3H745v14.2H712v52.9h-17.9v21.1h59.3V193.3h-59.3v13.1h8.4L702.5,204.3z"/>
<path d="M559.2,322.4c-0.3,0-3.1,0.3-7,0.3c-3.5,0-8.7-0.2-14.4-1.6c-1.8-0.5-3.9-1.1-6-1.9h-4.9v11.6h304.3v-11.6l-264.7,0
	C564.3,321,561.9,322.1,559.2,322.4L559.2,322.4z"/>
<polygon points="451.9,330.6 451.9,319.3 413.2,319.3 413.2,330.9 451.9,330.9 "/>
<path d="M470.6,374.5c-3,0-5.9-0.7-8.4-2v69.4c0,2.9,2.3,5.2,5.2,5.2l69.2,0c2.9,0,5.2-2.3,5.2-5.2v-67.4L470.6,374.5z"/>
<path d="M522.9,217.8c0-16-13-29-29-29c-16,0-29,13-29,29c0,8.9,4,16.9,10.3,22.2h37.4C518.9,234.6,522.9,226.7,522.9,217.8
	L522.9,217.8z"/>
<path d="M73.8,216.7c0-6.5,1.3-11.3,3.1-15.1c1.4-3.1,3.3-5.6,5.3-7.7v55.7C75.9,235.5,73.8,224.7,73.8,216.7L73.8,216.7z
	 M128.4,348h0.2V223.4h23.9l0-33.1c1.4,0.8,2.8,1.7,4.3,2.9c4.9,3.8,10.7,10,16.6,20.5c1.6,2.9,3.2,6.1,4.8,9.7
	c0.4,0.9,0.8,1.8,1.2,2.8c1,2.3,1.9,4.8,2.9,7.4c0.5,1.4,1,2.8,1.5,4.3c0,0,0,0,0,0c0.3,1,0.8,1.9,1.4,2.8c2,2.9,5.1,4.6,8.4,4.6
	c1.1,0,2.3-0.2,3.4-0.6c2.1-0.8,3.8-2.2,5-4c0.6-0.9,1-1.8,1.4-2.8c0.5-1.4,0.7-2.8,0.6-4.3c0-1-0.2-2.1-0.6-3.1
	c-0.5-1.5-1-2.9-1.5-4.3c-0.3-0.9-0.7-1.9-1-2.8c-1.3-3.4-2.6-6.7-3.9-9.7c-8.9-20-19.3-32.2-29-39.3c-9.9-7.4-18.6-9.2-22.8-9.5
	c-0.9-0.3-1.8-0.4-2.8-0.4l-50.2,0c-0.8,0-1.7,0.1-2.4,0.3c-0.9,0-1.8,0.2-2.7,0.4c-0.8,0.3-8.8,2.8-17.2,10.5
	c-4.2,3.9-8.4,9.1-11.6,16c-3.2,6.8-5.3,15.3-5.3,25c0,17.5,6.4,38.8,22.5,65.5c1.6,2.6,4,4.2,6.6,4.8v106.6
	c0,9.5,7.2,17.2,16.1,17.2c8.9,0,16.1-7.7,16.1-17.2V280.8h6.2v112.5l7.5-43L128.4,348z"/>
<path d="M145.8,116.8c3.7,16.8-6.1,33.6-21.9,37.5c-15.7,3.9-31.5-6.5-35.1-23.3c-3.7-16.8,6.1-33.6,21.9-37.5
	C126.4,89.5,142.1,100,145.8,116.8"/>
<path d="M152.7,383.2H138l3.8-25.1h149.8l3.8,25.1H152.7z M201.7,402.1l0.4-13.3h29.2l0.4,13.3H201.7z M152.7,350.8h-22.1l-8.7,49.7
	l-1.3,7.5h192.3l-10-57.2L152.7,350.8z"/>
<rect x="156" y="270.7" width="7.8" height="30.5"/>
<rect x="212.8" y="270.7" width="7.8" height="30.5"/>
<rect x="269.5" y="270.7" width="7.8" height="30.5"/>
<path d="M188.3,275.7c5.8,0,10.4,5,10.4,11.1c0,6.1-4.7,11.1-10.4,11.1c-5.7,0-10.4-5-10.4-11.1
	C177.9,280.6,182.6,275.7,188.3,275.7z M172.7,286.8c0,9.2,7,16.7,15.6,16.7c8.6,0,15.6-7.5,15.6-16.7c0-9.2-7-16.7-15.6-16.7
	C179.7,270.1,172.7,277.6,172.7,286.8z"/>
<path d="M234.6,286.8c0-6.1,4.7-11.1,10.4-11.1s10.4,5,10.4,11.1s-4.7,11.1-10.4,11.1S234.6,292.9,234.6,286.8z M260.6,286.8
	c0-9.2-7-16.7-15.6-16.7c-8.6,0-15.6,7.5-15.6,16.7c0,9.2,7,16.7,15.6,16.7C253.7,303.4,260.6,296,260.6,286.8z"/>
<path fill="#FFA636" d="M576.3,212.8h125.8v70.4H591.7v-28.1h-15.4L576.3,212.8z M586.2,260.7v44.2h-26.6c1.1,1.7,1.8,3.7,2.1,5.9
	c0.2,1.6,0.1,3.2-0.3,4.7h34.6V309h-4.1v-17.5h26.8v14.7h-14.3v9.2h70.1v-9.2H660v-12l0-2.8h50.5v-87H568v50.6h-44.3
	c0.4,1.9,0.6,3.7,0.7,5.5L586.2,260.7z"/>
<path d="M451.9,292.2c-2.5-2-3.6-3.6-4.1-5c-0.3-0.7-0.4-1.4-0.4-2.1c0-0.2,0-0.4,0-0.6c0-1.8,0.6-4.1,2-6.7
	c1.2-2.4,3.1-4.9,5.3-7.1v85.3c0,8.9,7.2,16.1,16.1,16.1h79.3v56.1c0,8.9,7.2,16.1,16.1,16.1s16.1-7.2,16.1-16.1v-72.2
	c0-4.2-1.7-8.4-4.7-11.4c-3-3-7.1-4.7-11.4-4.7h-41.9v-28.4c4.4,4.3,9.5,6.2,14.1,7.3c5.2,1.2,10.1,1.5,13.8,1.5
	c3.8,0,6.5-0.3,6.7-0.3c5.7-0.6,9.8-5.7,9.1-11.4c-0.6-5.7-5.7-9.8-11.4-9.1c-0.2,0-2,0.2-4.5,0.2c-2.7,0-6.2-0.2-9-0.9
	c-2.8-0.6-4.4-1.8-4.5-2c-1.8-2.2-3.2-5.7-4-10.2c-1.2-6.7-0.9-15-1.2-22.6c-0.2-3.8-0.4-7.5-2.1-11.8c-0.9-2.1-2.4-4.6-4.9-6.6
	c-2.5-2-6-3-9-3c-0.5,0-1,0-1.5,0.1c-0.6-0.1-1.1-0.2-1.7-0.2l-49.8,0c-0.8,0-1.5,0.1-2.3,0.3c-4,0.5-7.2,2.1-10.5,3.9
	c-5.9,3.4-11.6,8.4-16.4,14.7c-4.7,6.3-8.6,14-8.6,23.1c0,0.5,0,1,0.1,1.5c0.1,2.7,0.7,5.5,1.7,8.3c0,0.1,0.1,0.3,0.1,0.4
	c2.6,6.7,7.9,12.5,15.1,16.8c2.5,1.5,5.3,2.9,8.3,4.1L451.9,292.2z"/>
<polygon fill="#FFFFFF" points="576,213 698,213 698,284 591,284 591,256 576,256 "/>
<path fill="#FFFFFF" d="M534.8,261.2l48.9-0.5l1,44.2l-18.8-1.5c0,0,2.3-9.9-5.7-6.8s-6.6-1.2-6.6-1.2s-13.8,4-16.9-7.7
	C533.7,275.9,534.8,261.2,534.8,261.2z"/>
<polygon fill="#999999" points="666.7,247.1 651.5,247.1 651.5,258.2 657.1,252.6 659.4,255 650,264.4 640.7,255.1 643,252.8 
	648.2,257.9 648.2,247.1 632,247.1 632,265.4 628.6,265.4 628.6,247.1 611.7,247.1 611.7,275.4 668.4,275.4 668.4,247.1 "/>
<polygon fill="#666666" points="632,229.5 637.1,234.7 639.4,232.3 630.2,223 620.7,232.5 623,234.9 628.6,229.3 628.6,247.1 
	632,247.1 "/>
<rect x="648.2" y="222" fill="#666666" width="3.3" height="25"/>
<polygon fill="#999999" points="571.5,277.9 563.7,277.9 563.7,283.6 566.6,280.8 567.8,282 562.9,286.8 558.2,282.1 559.4,280.9 
	562,283.5 562,277.9 553.7,277.9 553.7,287.3 552,287.3 552,277.9 543.3,277.9 543.3,292.5 572.4,292.5 572.4,277.9 "/>
<polygon fill="#666666" points="553.7,268.9 556.3,271.6 557.5,270.4 552.8,265.6 547.9,270.4 549.1,271.7 552,268.8 552,277.9 
	553.7,277.9 "/>
<rect x="562" y="265.1" fill="#666666" width="1.7" height="12.8"/>
<text transform="matrix(1 0 0 1 426.6038 75.9143)"><tspan x="0" y="0" font-family="'ArialMT'" font-size="30">Engineers want hands-on </tspan><tspan x="0" y="36" font-family="'ArialMT'" font-size="30">interactive experiences</tspan></text>
<text transform="matrix(1 0 0 1 46.0969 473.0454)"><tspan x="0" y="0" font-family="'ArialMT'" font-size="30">Engineers don’t like </tspan><tspan x="0" y="36" font-family="'ArialMT'" font-size="30">static presentations</tspan></text>
<path d="M206.5,233.5c0.1,1.5-0.1,2.9-0.5,4.3h84.9v96.1l-138.3,0h-10.2v-96.1h38.5c-0.5-1.5-1-2.9-1.5-4.3c-0.9-2.6-1.9-5-2.9-7.4
	h-45.3v119.5h170.4V226.1h-97c0.4,1.1,0.8,2.2,1.2,3.4C206.2,230.8,206.4,232.2,206.5,233.5L206.5,233.5z"/>
<polygon fill="#E6E8E2" points="141.7,358 138,383 292,383 292,358.1 "/>
</svg>
