<?xml version="1.0" encoding="utf-8"?>
<!-- Generator: Adobe Illustrator 17.1.0, SVG Export Plug-In . SVG Version: 6.00 Build 0)  -->
<!DOCTYPE svg PUBLIC "-//W3C//DTD SVG 1.1//EN" "http://www.w3.org/Graphics/SVG/1.1/DTD/svg11.dtd">
<svg version="1.1" id="Layer_1" xmlns="http://www.w3.org/2000/svg" xmlns:xlink="http://www.w3.org/1999/xlink" x="0px" y="0px"
	 viewBox="0 0 242.7 35.3" enable-background="new 0 0 242.7 35.3" xml:space="preserve">
<text transform="matrix(1 0 0 1 37.0274 29.7098)" font-family="'SourceSansPro-Bold'" font-size="25">Documenting APIs</text>
<path fill="#FF970A" d="M27.2,8.4c-0.5,0-0.9-0.4-0.9-0.9s0.4-0.9,0.9-0.9c0.5,0,0.9,0.4,0.9,0.9S27.7,8.4,27.2,8.4z M23.8,8.4
	c-0.5,0-0.9-0.4-0.9-0.9s0.4-0.9,0.9-0.9c0.5,0,0.9,0.4,0.9,0.9S24.3,8.4,23.8,8.4z M20.4,8.4c-0.5,0-0.9-0.4-0.9-0.9
	s0.4-0.9,0.9-0.9c0.5,0,0.9,0.4,0.9,0.9S21,8.4,20.4,8.4z M12.8,8.5H7.4c-0.4,0-0.7-0.3-0.7-0.7c0-0.4,0.3-0.7,0.7-0.7h5.4
	c0.4,0,0.7,0.3,0.7,0.7C13.5,8.2,13.2,8.5,12.8,8.5z M27.7,4.5H7.8c-1.5,0-2.7,1-2.7,2.5v2.9h25.3V7C30.4,5.5,29.2,4.5,27.7,4.5z"/>
<path fill="#FF970A" d="M22.1,23.7h-1.4c-0.3,0-0.6-0.3-0.6-0.7c0-0.3,0.3-0.7,0.6-0.7h1.4c1.1,0,2-0.9,2-2s-0.9-2-2-2h-0.3
	c-0.3,0-0.5-0.1-0.6-0.4c-0.2-0.6-0.8-0.9-1.4-0.9c-0.3,0-0.5,0.1-0.8,0.2c-0.1,0.1-0.3,0.1-0.5,0.1c-0.2,0-0.3-0.2-0.4-0.3
	c-0.5-0.9-1.3-1.4-2.3-1.4c-1.4,0-2.5,1-2.6,2.4c0,0.2-0.2,0.4-0.4,0.5c-0.8,0.3-1.3,1-1.3,1.9c0,1.1,0.9,2,2,2H15
	c0.3,0,0.6,0.3,0.6,0.7s-0.3,0.7-0.6,0.7h-1.4c-1.8,0-3.3-1.5-3.3-3.3c0-1.2,0.7-2.4,1.8-2.9c0.3-1.8,1.9-3.2,3.8-3.2
	c1.2,0,2.4,0.6,3.1,1.6c0.3-0.1,0.6-0.1,0.9-0.1c1,0,1.9,0.5,2.4,1.3c1.7,0.1,3.1,1.5,3.1,3.3C25.4,22.2,23.9,23.7,22.1,23.7
	L22.1,23.7z M20.5,25.2l-2.1,2c-0.1,0.1-0.3,0.2-0.4,0.2h0c-0.2,0-0.3,0-0.4-0.1l0,0c0,0,0,0,0,0v0c0,0,0,0,0,0l-2.1-2.1
	c-0.2-0.2-0.2-0.6,0-0.9c0.2-0.2,0.6-0.2,0.8,0l0.9,1v-3.8c0-0.3,0.3-0.6,0.7-0.6c0.3,0,0.7,0.3,0.7,0.6v3.8l1-1
	c0.2-0.2,0.6-0.2,0.9,0C20.7,24.6,20.7,25,20.5,25.2L20.5,25.2z M5.1,11.2v15.7c0,1.5,1.2,2.9,2.7,2.9h19.9c1.5,0,2.7-1.4,2.7-2.9
	V11.2H5.1z"/>
</svg>
