<?xml version="1.0" encoding="utf-8"?>
<!-- Generator: Adobe Illustrator 17.1.0, SVG Export Plug-In . SVG Version: 6.00 Build 0)  -->
<!DOCTYPE svg PUBLIC "-//W3C//DTD SVG 1.1//EN" "http://www.w3.org/Graphics/SVG/1.1/DTD/svg11.dtd">
<svg version="1.1" xmlns="http://www.w3.org/2000/svg" xmlns:xlink="http://www.w3.org/1999/xlink" x="0px" y="0px"
	 viewBox="0 0 600 400" enable-background="new 0 0 600 400" xml:space="preserve">
<g id="www_1_">
</g>
<g id="restapi">
	<g>
		<path d="M55.6,39.6V25.3h1.9v5.9h7.4v-5.9h1.9v14.3h-1.9v-6.7h-7.4v6.7H55.6z"/>
		<path d="M69.9,39.6V25.3h2.9l3.4,10.1c0.3,0.9,0.5,1.7,0.7,2.1c0.2-0.5,0.4-1.3,0.8-2.3l3.4-10h2.5v14.3h-1.8v-12l-4.2,12h-1.7
			l-4.1-12.2v12.2H69.9z"/>
		<path d="M85.1,39.6l5.5-14.3h2l5.9,14.3h-2.2l-1.7-4.3h-6l-1.6,4.3H85.1z M89.2,33.7h4.9l-1.5-4c-0.5-1.2-0.8-2.2-1-3
			c-0.2,0.9-0.4,1.8-0.8,2.7L89.2,33.7z"/>
		<path d="M110.2,34.6l1.9,0.5c-0.4,1.6-1.1,2.7-2.1,3.6c-1,0.8-2.3,1.2-3.8,1.2c-1.5,0-2.8-0.3-3.8-0.9c-1-0.6-1.7-1.5-2.2-2.7
			s-0.8-2.5-0.8-3.8c0-1.5,0.3-2.8,0.9-3.9c0.6-1.1,1.4-2,2.4-2.5s2.2-0.9,3.5-0.9c1.4,0,2.6,0.4,3.6,1.1c1,0.7,1.7,1.8,2,3.1
			l-1.9,0.4c-0.3-1-0.8-1.8-1.4-2.3c-0.6-0.5-1.4-0.7-2.4-0.7c-1.1,0-2,0.3-2.8,0.8s-1.3,1.2-1.6,2.1s-0.4,1.8-0.4,2.7
			c0,1.2,0.2,2.3,0.5,3.2s0.9,1.6,1.7,2s1.6,0.7,2.4,0.7c1.1,0,2-0.3,2.7-0.9C109.5,36.7,110,35.8,110.2,34.6z"/>
		<path d="M126.6,39.6v-1.5c-0.8,1.2-1.9,1.8-3.3,1.8c-0.6,0-1.2-0.1-1.7-0.4s-0.9-0.5-1.2-0.9c-0.3-0.4-0.4-0.8-0.5-1.3
			c-0.1-0.3-0.1-0.9-0.1-1.6v-6.4h1.8V35c0,0.9,0,1.5,0.1,1.9c0.1,0.5,0.3,0.8,0.7,1.1s0.8,0.4,1.3,0.4s1-0.1,1.5-0.4
			c0.5-0.3,0.8-0.6,1-1.1c0.2-0.5,0.3-1.1,0.3-2v-5.6h1.8v10.4H126.6z"/>
		<path d="M130.2,36.5l1.7-0.3c0.1,0.7,0.4,1.2,0.8,1.6s1.1,0.6,1.9,0.6c0.8,0,1.4-0.2,1.8-0.5c0.4-0.3,0.6-0.7,0.6-1.2
			c0-0.4-0.2-0.7-0.5-0.9c-0.2-0.2-0.8-0.4-1.8-0.6c-1.3-0.3-2.2-0.6-2.7-0.8c-0.5-0.2-0.9-0.6-1.1-1s-0.4-0.9-0.4-1.4
			c0-0.5,0.1-0.9,0.3-1.3c0.2-0.4,0.5-0.7,0.9-1c0.3-0.2,0.6-0.4,1.1-0.5c0.5-0.1,1-0.2,1.5-0.2c0.8,0,1.5,0.1,2.1,0.4
			s1.1,0.6,1.4,1s0.5,0.9,0.6,1.6l-1.7,0.2c-0.1-0.5-0.3-1-0.7-1.2c-0.4-0.3-0.9-0.4-1.6-0.4c-0.8,0-1.4,0.1-1.7,0.4
			c-0.3,0.3-0.5,0.6-0.5,0.9c0,0.2,0.1,0.4,0.2,0.6c0.1,0.2,0.4,0.3,0.7,0.5c0.2,0.1,0.7,0.2,1.6,0.4c1.2,0.3,2.1,0.6,2.6,0.8
			c0.5,0.2,0.9,0.5,1.2,0.9c0.3,0.4,0.4,0.9,0.4,1.5c0,0.6-0.2,1.1-0.5,1.7s-0.8,0.9-1.5,1.2s-1.4,0.4-2.2,0.4
			c-1.3,0-2.4-0.3-3.1-0.8C130.8,38.5,130.4,37.6,130.2,36.5z"/>
		<path d="M148,36.3l1.8,0.2c-0.3,1.1-0.8,1.9-1.6,2.5s-1.8,0.9-3,0.9c-1.5,0-2.7-0.5-3.6-1.4c-0.9-0.9-1.3-2.2-1.3-3.9
			c0-1.7,0.4-3.1,1.3-4.1c0.9-1,2.1-1.4,3.5-1.4c1.4,0,2.5,0.5,3.4,1.4c0.9,0.9,1.3,2.3,1.3,4c0,0.1,0,0.3,0,0.5h-7.7
			c0.1,1.1,0.4,2,1,2.6s1.3,0.9,2.2,0.9c0.6,0,1.2-0.2,1.7-0.5C147.4,37.6,147.7,37,148,36.3z M142.2,33.4h5.8
			c-0.1-0.9-0.3-1.5-0.7-2c-0.6-0.7-1.3-1-2.2-1c-0.8,0-1.5,0.3-2,0.8C142.6,31.8,142.3,32.5,142.2,33.4z"/>
		<path d="M151.3,36.5l1.7-0.3c0.1,0.7,0.4,1.2,0.8,1.6s1.1,0.6,1.9,0.6c0.8,0,1.4-0.2,1.8-0.5c0.4-0.3,0.6-0.7,0.6-1.2
			c0-0.4-0.2-0.7-0.5-0.9c-0.2-0.2-0.8-0.4-1.8-0.6c-1.3-0.3-2.2-0.6-2.7-0.8c-0.5-0.2-0.9-0.6-1.1-1s-0.4-0.9-0.4-1.4
			c0-0.5,0.1-0.9,0.3-1.3c0.2-0.4,0.5-0.7,0.9-1c0.3-0.2,0.6-0.4,1.1-0.5c0.5-0.1,1-0.2,1.5-0.2c0.8,0,1.5,0.1,2.1,0.4
			s1.1,0.6,1.4,1s0.5,0.9,0.6,1.6l-1.7,0.2c-0.1-0.5-0.3-1-0.7-1.2c-0.4-0.3-0.9-0.4-1.6-0.4c-0.8,0-1.4,0.1-1.7,0.4
			c-0.3,0.3-0.5,0.6-0.5,0.9c0,0.2,0.1,0.4,0.2,0.6c0.1,0.2,0.4,0.3,0.7,0.5c0.2,0.1,0.7,0.2,1.6,0.4c1.2,0.3,2.1,0.6,2.6,0.8
			c0.5,0.2,0.9,0.5,1.2,0.9c0.3,0.4,0.4,0.9,0.4,1.5c0,0.6-0.2,1.1-0.5,1.7s-0.8,0.9-1.5,1.2s-1.4,0.4-2.2,0.4
			c-1.3,0-2.4-0.3-3.1-0.8C152,38.5,151.5,37.6,151.3,36.5z"/>
		<path d="M174.3,38.3c-0.7,0.6-1.3,0.9-1.9,1.2c-0.6,0.2-1.2,0.3-1.9,0.3c-1.1,0-2-0.3-2.6-0.8s-0.9-1.3-0.9-2.1
			c0-0.5,0.1-1,0.3-1.4s0.5-0.8,0.9-1s0.8-0.4,1.3-0.6c0.3-0.1,0.9-0.2,1.6-0.3c1.4-0.2,2.5-0.4,3.1-0.6c0-0.2,0-0.4,0-0.5
			c0-0.7-0.2-1.2-0.5-1.5c-0.4-0.4-1.1-0.6-2-0.6c-0.8,0-1.4,0.1-1.8,0.4c-0.4,0.3-0.7,0.8-0.9,1.5l-1.7-0.2
			c0.2-0.7,0.4-1.3,0.8-1.8c0.4-0.5,0.9-0.8,1.6-1s1.5-0.4,2.4-0.4c0.9,0,1.6,0.1,2.2,0.3c0.6,0.2,1,0.5,1.2,0.8
			c0.3,0.3,0.4,0.7,0.5,1.2c0.1,0.3,0.1,0.8,0.1,1.6v2.3c0,1.6,0,2.7,0.1,3.1c0.1,0.4,0.2,0.8,0.4,1.2h-1.8
			C174.5,39.3,174.4,38.8,174.3,38.3z M174.2,34.4c-0.6,0.3-1.6,0.5-2.9,0.7c-0.7,0.1-1.2,0.2-1.5,0.4c-0.3,0.1-0.5,0.3-0.7,0.6
			c-0.2,0.3-0.2,0.5-0.2,0.8c0,0.5,0.2,0.9,0.5,1.2s0.9,0.5,1.6,0.5c0.7,0,1.3-0.1,1.8-0.4c0.5-0.3,0.9-0.7,1.2-1.2
			c0.2-0.4,0.3-1,0.3-1.8V34.4z"/>
		<path d="M183.6,36.5l1.7-0.3c0.1,0.7,0.4,1.2,0.8,1.6s1.1,0.6,1.9,0.6c0.8,0,1.4-0.2,1.8-0.5c0.4-0.3,0.6-0.7,0.6-1.2
			c0-0.4-0.2-0.7-0.5-0.9c-0.2-0.2-0.8-0.4-1.8-0.6c-1.3-0.3-2.2-0.6-2.7-0.8c-0.5-0.2-0.9-0.6-1.1-1s-0.4-0.9-0.4-1.4
			c0-0.5,0.1-0.9,0.3-1.3c0.2-0.4,0.5-0.7,0.9-1c0.3-0.2,0.6-0.4,1.1-0.5c0.5-0.1,1-0.2,1.5-0.2c0.8,0,1.5,0.1,2.1,0.4
			s1.1,0.6,1.4,1s0.5,0.9,0.6,1.6l-1.7,0.2c-0.1-0.5-0.3-1-0.7-1.2c-0.4-0.3-0.9-0.4-1.6-0.4c-0.8,0-1.4,0.1-1.7,0.4
			c-0.3,0.3-0.5,0.6-0.5,0.9c0,0.2,0.1,0.4,0.2,0.6c0.1,0.2,0.4,0.3,0.7,0.5c0.2,0.1,0.7,0.2,1.6,0.4c1.2,0.3,2.1,0.6,2.6,0.8
			c0.5,0.2,0.9,0.5,1.2,0.9c0.3,0.4,0.4,0.9,0.4,1.5c0,0.6-0.2,1.1-0.5,1.7s-0.8,0.9-1.5,1.2s-1.4,0.4-2.2,0.4
			c-1.3,0-2.4-0.3-3.1-0.8C184.2,38.5,183.7,37.6,183.6,36.5z"/>
		<path d="M201.4,36.3l1.8,0.2c-0.3,1.1-0.8,1.9-1.6,2.5s-1.8,0.9-3,0.9c-1.5,0-2.7-0.5-3.6-1.4c-0.9-0.9-1.3-2.2-1.3-3.9
			c0-1.7,0.4-3.1,1.3-4.1c0.9-1,2.1-1.4,3.5-1.4c1.4,0,2.5,0.5,3.4,1.4c0.9,0.9,1.3,2.3,1.3,4c0,0.1,0,0.3,0,0.5h-7.7
			c0.1,1.1,0.4,2,1,2.6s1.3,0.9,2.2,0.9c0.6,0,1.2-0.2,1.7-0.5C200.7,37.6,201.1,37,201.4,36.3z M195.6,33.4h5.8
			c-0.1-0.9-0.3-1.5-0.7-2c-0.6-0.7-1.3-1-2.2-1c-0.8,0-1.5,0.3-2,0.8C195.9,31.8,195.6,32.5,195.6,33.4z"/>
		<path d="M212.1,35.8l1.7,0.2c-0.2,1.2-0.7,2.1-1.5,2.8s-1.7,1-2.9,1c-1.4,0-2.6-0.5-3.4-1.4s-1.3-2.3-1.3-4c0-1.1,0.2-2.1,0.6-2.9
			s0.9-1.5,1.7-1.9s1.6-0.6,2.5-0.6c1.1,0,2,0.3,2.8,0.9c0.7,0.6,1.2,1.4,1.4,2.4l-1.7,0.3c-0.2-0.7-0.5-1.2-0.9-1.6
			s-0.9-0.5-1.5-0.5c-0.9,0-1.6,0.3-2.2,1s-0.8,1.6-0.8,3c0,1.4,0.3,2.4,0.8,3c0.5,0.6,1.2,0.9,2.1,0.9c0.7,0,1.3-0.2,1.7-0.6
			C211.7,37.4,212,36.7,212.1,35.8z"/>
		<path d="M215.4,39.6V29.2h1.6v1.6c0.4-0.7,0.8-1.2,1.1-1.5s0.7-0.4,1.1-0.4c0.6,0,1.2,0.2,1.8,0.6l-0.6,1.6
			c-0.4-0.3-0.9-0.4-1.3-0.4c-0.4,0-0.7,0.1-1,0.3c-0.3,0.2-0.5,0.6-0.7,1c-0.2,0.6-0.3,1.3-0.3,2.1v5.4H215.4z"/>
		<path d="M229.1,36.3l1.8,0.2c-0.3,1.1-0.8,1.9-1.6,2.5s-1.8,0.9-3,0.9c-1.5,0-2.7-0.5-3.6-1.4c-0.9-0.9-1.3-2.2-1.3-3.9
			c0-1.7,0.4-3.1,1.3-4.1c0.9-1,2.1-1.4,3.5-1.4c1.4,0,2.5,0.5,3.4,1.4c0.9,0.9,1.3,2.3,1.3,4c0,0.1,0,0.3,0,0.5h-7.7
			c0.1,1.1,0.4,2,1,2.6s1.3,0.9,2.2,0.9c0.6,0,1.2-0.2,1.7-0.5C228.5,37.6,228.9,37,229.1,36.3z M223.4,33.4h5.8
			c-0.1-0.9-0.3-1.5-0.7-2c-0.6-0.7-1.3-1-2.2-1c-0.8,0-1.5,0.3-2,0.8C223.7,31.8,223.4,32.5,223.4,33.4z"/>
		<path d="M237,38l0.3,1.6c-0.5,0.1-0.9,0.2-1.3,0.2c-0.6,0-1.1-0.1-1.5-0.3c-0.4-0.2-0.6-0.5-0.7-0.8c-0.1-0.3-0.2-1-0.2-2.1v-6
			h-1.3v-1.4h1.3v-2.6l1.7-1.1v3.6h1.8v1.4h-1.8v6.1c0,0.5,0,0.8,0.1,1c0.1,0.1,0.2,0.3,0.3,0.3c0.1,0.1,0.3,0.1,0.6,0.1
			C236.4,38.1,236.7,38.1,237,38z"/>
		<path d="M244.3,39.6V25.3h1.8v8.2l4.2-4.2h2.3l-4,3.8l4.4,6.5h-2.2l-3.4-5.3l-1.2,1.2v4.1H244.3z"/>
		<path d="M261.4,36.3l1.8,0.2c-0.3,1.1-0.8,1.9-1.6,2.5s-1.8,0.9-3,0.9c-1.5,0-2.7-0.5-3.6-1.4c-0.9-0.9-1.3-2.2-1.3-3.9
			c0-1.7,0.4-3.1,1.3-4.1c0.9-1,2.1-1.4,3.5-1.4c1.4,0,2.5,0.5,3.4,1.4c0.9,0.9,1.3,2.3,1.3,4c0,0.1,0,0.3,0,0.5h-7.7
			c0.1,1.1,0.4,2,1,2.6s1.3,0.9,2.2,0.9c0.6,0,1.2-0.2,1.7-0.5C260.7,37.6,261.1,37,261.4,36.3z M255.6,33.4h5.8
			c-0.1-0.9-0.3-1.5-0.7-2c-0.6-0.7-1.3-1-2.2-1c-0.8,0-1.5,0.3-2,0.8C256,31.8,255.7,32.5,255.6,33.4z"/>
		<path d="M265.3,43.6l-0.2-1.7c0.4,0.1,0.7,0.2,1,0.2c0.4,0,0.7-0.1,0.9-0.2c0.2-0.1,0.4-0.3,0.6-0.5c0.1-0.2,0.3-0.6,0.5-1.3
			c0-0.1,0.1-0.2,0.2-0.4l-3.9-10.4h1.9l2.2,6c0.3,0.8,0.5,1.6,0.8,2.4c0.2-0.8,0.4-1.6,0.7-2.4l2.2-6h1.8L270,39.8
			c-0.4,1.1-0.8,1.9-1,2.4c-0.3,0.6-0.7,1-1.1,1.3c-0.4,0.3-0.9,0.4-1.4,0.4C266.1,43.8,265.7,43.8,265.3,43.6z"/>
		<path d="M281,39.6V25.3h1.8v8.2l4.2-4.2h2.3l-4,3.8l4.4,6.5h-2.2l-3.4-5.3l-1.2,1.2v4.1H281z"/>
		<path d="M291,39.6V29.2h1.6v1.5c0.8-1.1,1.9-1.7,3.3-1.7c0.6,0,1.2,0.1,1.7,0.3s0.9,0.5,1.2,0.9c0.3,0.4,0.4,0.8,0.5,1.3
			c0.1,0.3,0.1,0.9,0.1,1.7v6.4h-1.8v-6.3c0-0.7-0.1-1.3-0.2-1.6c-0.1-0.4-0.4-0.6-0.7-0.8c-0.3-0.2-0.8-0.3-1.2-0.3
			c-0.7,0-1.4,0.2-1.9,0.7c-0.5,0.5-0.8,1.4-0.8,2.7v5.7H291z"/>
		<path d="M301.4,34.4c0-1.9,0.5-3.3,1.6-4.3c0.9-0.8,2-1.2,3.3-1.2c1.4,0,2.6,0.5,3.5,1.4c0.9,0.9,1.4,2.2,1.4,3.9
			c0,1.3-0.2,2.4-0.6,3.1c-0.4,0.8-1,1.4-1.7,1.8c-0.8,0.4-1.6,0.6-2.5,0.6c-1.5,0-2.6-0.5-3.5-1.4
			C301.9,37.5,301.4,36.2,301.4,34.4z M303.2,34.4c0,1.3,0.3,2.3,0.9,3c0.6,0.7,1.3,1,2.2,1c0.9,0,1.6-0.3,2.2-1s0.9-1.7,0.9-3
			c0-1.3-0.3-2.3-0.9-2.9c-0.6-0.7-1.3-1-2.2-1c-0.9,0-1.6,0.3-2.2,1C303.5,32.1,303.2,33.1,303.2,34.4z"/>
		<path d="M315.1,39.6l-3.2-10.4h1.8l1.7,6l0.6,2.2c0-0.1,0.2-0.8,0.5-2.1l1.7-6.1h1.8l1.6,6l0.5,2l0.6-2l1.8-6h1.7l-3.2,10.4h-1.8
			l-1.7-6.2l-0.4-1.8l-2.1,8H315.1z"/>
		<path d="M327.6,39.6V29.2h1.6v1.5c0.8-1.1,1.9-1.7,3.3-1.7c0.6,0,1.2,0.1,1.7,0.3s0.9,0.5,1.2,0.9c0.3,0.4,0.4,0.8,0.5,1.3
			c0.1,0.3,0.1,0.9,0.1,1.7v6.4h-1.8v-6.3c0-0.7-0.1-1.3-0.2-1.6c-0.1-0.4-0.4-0.6-0.7-0.8c-0.3-0.2-0.8-0.3-1.2-0.3
			c-0.7,0-1.4,0.2-1.9,0.7c-0.5,0.5-0.8,1.4-0.8,2.7v5.7H327.6z"/>
		<path d="M343.7,34.4c0-1.9,0.5-3.3,1.6-4.3c0.9-0.8,2-1.2,3.3-1.2c1.4,0,2.6,0.5,3.5,1.4c0.9,0.9,1.4,2.2,1.4,3.9
			c0,1.3-0.2,2.4-0.6,3.1c-0.4,0.8-1,1.4-1.7,1.8c-0.8,0.4-1.6,0.6-2.5,0.6c-1.5,0-2.6-0.5-3.5-1.4
			C344.1,37.5,343.7,36.2,343.7,34.4z M345.5,34.4c0,1.3,0.3,2.3,0.9,3c0.6,0.7,1.3,1,2.2,1c0.9,0,1.6-0.3,2.2-1s0.9-1.7,0.9-3
			c0-1.3-0.3-2.3-0.9-2.9c-0.6-0.7-1.3-1-2.2-1c-0.9,0-1.6,0.3-2.2,1C345.8,32.1,345.5,33.1,345.5,34.4z"/>
		<path d="M355.4,39.6V29.2h1.6v1.5c0.8-1.1,1.9-1.7,3.3-1.7c0.6,0,1.2,0.1,1.7,0.3s0.9,0.5,1.2,0.9c0.3,0.4,0.4,0.8,0.5,1.3
			c0.1,0.3,0.1,0.9,0.1,1.7v6.4h-1.8v-6.3c0-0.7-0.1-1.3-0.2-1.6c-0.1-0.4-0.4-0.6-0.7-0.8c-0.3-0.2-0.8-0.3-1.2-0.3
			c-0.7,0-1.4,0.2-1.9,0.7c-0.5,0.5-0.8,1.4-0.8,2.7v5.7H355.4z"/>
		<path d="M366.5,39.6V25.3h1.8v14.3H366.5z"/>
		<path d="M370.9,43.6l-0.2-1.7c0.4,0.1,0.7,0.2,1,0.2c0.4,0,0.7-0.1,0.9-0.2c0.2-0.1,0.4-0.3,0.6-0.5c0.1-0.2,0.3-0.6,0.5-1.3
			c0-0.1,0.1-0.2,0.2-0.4L370,29.2h1.9l2.2,6c0.3,0.8,0.5,1.6,0.8,2.4c0.2-0.8,0.4-1.6,0.7-2.4l2.2-6h1.8l-3.9,10.5
			c-0.4,1.1-0.8,1.9-1,2.4c-0.3,0.6-0.7,1-1.1,1.3c-0.4,0.3-0.9,0.4-1.4,0.4C371.7,43.8,371.4,43.8,370.9,43.6z"/>
		<path d="M390.4,38l0.3,1.6c-0.5,0.1-0.9,0.2-1.3,0.2c-0.6,0-1.1-0.1-1.5-0.3c-0.4-0.2-0.6-0.5-0.7-0.8c-0.1-0.3-0.2-1-0.2-2.1v-6
			h-1.3v-1.4h1.3v-2.6l1.7-1.1v3.6h1.8v1.4h-1.8v6.1c0,0.5,0,0.8,0.1,1c0.1,0.1,0.2,0.3,0.3,0.3c0.1,0.1,0.3,0.1,0.6,0.1
			C389.8,38.1,390.1,38.1,390.4,38z"/>
		<path d="M391.5,34.4c0-1.9,0.5-3.3,1.6-4.3c0.9-0.8,2-1.2,3.3-1.2c1.4,0,2.6,0.5,3.5,1.4c0.9,0.9,1.4,2.2,1.4,3.9
			c0,1.3-0.2,2.4-0.6,3.1c-0.4,0.8-1,1.4-1.7,1.8c-0.8,0.4-1.6,0.6-2.5,0.6c-1.5,0-2.6-0.5-3.5-1.4
			C391.9,37.5,391.5,36.2,391.5,34.4z M393.3,34.4c0,1.3,0.3,2.3,0.9,3c0.6,0.7,1.3,1,2.2,1c0.9,0,1.6-0.3,2.2-1s0.9-1.7,0.9-3
			c0-1.3-0.3-2.3-0.9-2.9c-0.6-0.7-1.3-1-2.2-1c-0.9,0-1.6,0.3-2.2,1C393.6,32.1,393.3,33.1,393.3,34.4z"/>
		<path d="M412.6,38l0.3,1.6c-0.5,0.1-0.9,0.2-1.3,0.2c-0.6,0-1.1-0.1-1.5-0.3c-0.4-0.2-0.6-0.5-0.7-0.8c-0.1-0.3-0.2-1-0.2-2.1v-6
			h-1.3v-1.4h1.3v-2.6l1.7-1.1v3.6h1.8v1.4h-1.8v6.1c0,0.5,0,0.8,0.1,1c0.1,0.1,0.2,0.3,0.3,0.3c0.1,0.1,0.3,0.1,0.6,0.1
			C412.1,38.1,412.3,38.1,412.6,38z"/>
		<path d="M414.4,39.6V25.3h1.8v5.1c0.8-1,1.9-1.4,3.1-1.4c0.8,0,1.4,0.2,2,0.5s1,0.7,1.2,1.3c0.2,0.5,0.4,1.3,0.4,2.3v6.6h-1.8V33
			c0-0.9-0.2-1.5-0.6-1.9s-0.9-0.6-1.6-0.6c-0.5,0-1,0.1-1.5,0.4c-0.5,0.3-0.8,0.6-1,1.1c-0.2,0.5-0.3,1.1-0.3,1.9v5.7H414.4z"/>
		<path d="M432.6,36.3l1.8,0.2c-0.3,1.1-0.8,1.9-1.6,2.5s-1.8,0.9-3,0.9c-1.5,0-2.7-0.5-3.6-1.4c-0.9-0.9-1.3-2.2-1.3-3.9
			c0-1.7,0.4-3.1,1.3-4.1c0.9-1,2.1-1.4,3.5-1.4c1.4,0,2.5,0.5,3.4,1.4c0.9,0.9,1.3,2.3,1.3,4c0,0.1,0,0.3,0,0.5h-7.7
			c0.1,1.1,0.4,2,1,2.6s1.3,0.9,2.2,0.9c0.6,0,1.2-0.2,1.7-0.5C432,37.6,432.3,37,432.6,36.3z M426.8,33.4h5.8
			c-0.1-0.9-0.3-1.5-0.7-2c-0.6-0.7-1.3-1-2.2-1c-0.8,0-1.5,0.3-2,0.8C427.2,31.8,426.9,32.5,426.8,33.4z"/>
		<path d="M448.9,35.8l1.7,0.2c-0.2,1.2-0.7,2.1-1.5,2.8s-1.7,1-2.9,1c-1.4,0-2.6-0.5-3.4-1.4s-1.3-2.3-1.3-4c0-1.1,0.2-2.1,0.6-2.9
			s0.9-1.5,1.7-1.9s1.6-0.6,2.5-0.6c1.1,0,2,0.3,2.8,0.9c0.7,0.6,1.2,1.4,1.4,2.4l-1.7,0.3c-0.2-0.7-0.5-1.2-0.9-1.6
			s-0.9-0.5-1.5-0.5c-0.9,0-1.6,0.3-2.2,1s-0.8,1.6-0.8,3c0,1.4,0.3,2.4,0.8,3c0.5,0.6,1.2,0.9,2.1,0.9c0.7,0,1.3-0.2,1.7-0.6
			C448.5,37.4,448.8,36.7,448.9,35.8z"/>
		<path d="M452.1,39.6V25.3h1.8v14.3H452.1z"/>
		<path d="M456.6,27.3v-2h1.8v2H456.6z M456.6,39.6V29.2h1.8v10.4H456.6z"/>
		<path d="M468.2,36.3l1.8,0.2c-0.3,1.1-0.8,1.9-1.6,2.5s-1.8,0.9-3,0.9c-1.5,0-2.7-0.5-3.6-1.4c-0.9-0.9-1.3-2.2-1.3-3.9
			c0-1.7,0.4-3.1,1.3-4.1c0.9-1,2.1-1.4,3.5-1.4c1.4,0,2.5,0.5,3.4,1.4c0.9,0.9,1.3,2.3,1.3,4c0,0.1,0,0.3,0,0.5h-7.7
			c0.1,1.1,0.4,2,1,2.6s1.3,0.9,2.2,0.9c0.6,0,1.2-0.2,1.7-0.5C467.5,37.6,467.9,37,468.2,36.3z M462.4,33.4h5.8
			c-0.1-0.9-0.3-1.5-0.7-2c-0.6-0.7-1.3-1-2.2-1c-0.8,0-1.5,0.3-2,0.8C462.7,31.8,462.4,32.5,462.4,33.4z"/>
		<path d="M472.2,39.6V29.2h1.6v1.5c0.8-1.1,1.9-1.7,3.3-1.7c0.6,0,1.2,0.1,1.7,0.3s0.9,0.5,1.2,0.9c0.3,0.4,0.4,0.8,0.5,1.3
			c0.1,0.3,0.1,0.9,0.1,1.7v6.4h-1.8v-6.3c0-0.7-0.1-1.3-0.2-1.6c-0.1-0.4-0.4-0.6-0.7-0.8c-0.3-0.2-0.8-0.3-1.2-0.3
			c-0.7,0-1.4,0.2-1.9,0.7c-0.5,0.5-0.8,1.4-0.8,2.7v5.7H472.2z"/>
		<path d="M487.1,38l0.3,1.6c-0.5,0.1-0.9,0.2-1.3,0.2c-0.6,0-1.1-0.1-1.5-0.3c-0.4-0.2-0.6-0.5-0.7-0.8c-0.1-0.3-0.2-1-0.2-2.1v-6
			h-1.3v-1.4h1.3v-2.6l1.7-1.1v3.6h1.8v1.4h-1.8v6.1c0,0.5,0,0.8,0.1,1c0.1,0.1,0.2,0.3,0.3,0.3c0.1,0.1,0.3,0.1,0.6,0.1
			C486.6,38.1,486.8,38.1,487.1,38z"/>
		<path d="M501.2,38.3c-0.7,0.6-1.3,0.9-1.9,1.2c-0.6,0.2-1.2,0.3-1.9,0.3c-1.1,0-2-0.3-2.6-0.8s-0.9-1.3-0.9-2.1
			c0-0.5,0.1-1,0.3-1.4s0.5-0.8,0.9-1s0.8-0.4,1.3-0.6c0.3-0.1,0.9-0.2,1.6-0.3c1.4-0.2,2.5-0.4,3.1-0.6c0-0.2,0-0.4,0-0.5
			c0-0.7-0.2-1.2-0.5-1.5c-0.4-0.4-1.1-0.6-2-0.6c-0.8,0-1.4,0.1-1.8,0.4c-0.4,0.3-0.7,0.8-0.9,1.5l-1.7-0.2
			c0.2-0.7,0.4-1.3,0.8-1.8c0.4-0.5,0.9-0.8,1.6-1s1.5-0.4,2.4-0.4c0.9,0,1.6,0.1,2.2,0.3c0.6,0.2,1,0.5,1.2,0.8
			c0.3,0.3,0.4,0.7,0.5,1.2c0.1,0.3,0.1,0.8,0.1,1.6v2.3c0,1.6,0,2.7,0.1,3.1c0.1,0.4,0.2,0.8,0.4,1.2h-1.8
			C501.3,39.3,501.2,38.8,501.2,38.3z M501,34.4c-0.6,0.3-1.6,0.5-2.9,0.7c-0.7,0.1-1.2,0.2-1.5,0.4c-0.3,0.1-0.5,0.3-0.7,0.6
			c-0.2,0.3-0.2,0.5-0.2,0.8c0,0.5,0.2,0.9,0.5,1.2s0.9,0.5,1.6,0.5c0.7,0,1.3-0.1,1.8-0.4c0.5-0.3,0.9-0.7,1.2-1.2
			c0.2-0.4,0.3-1,0.3-1.8V34.4z"/>
		<path d="M505.5,39.6V29.2h1.6v1.5c0.8-1.1,1.9-1.7,3.3-1.7c0.6,0,1.2,0.1,1.7,0.3s0.9,0.5,1.2,0.9c0.3,0.4,0.4,0.8,0.5,1.3
			c0.1,0.3,0.1,0.9,0.1,1.7v6.4h-1.8v-6.3c0-0.7-0.1-1.3-0.2-1.6c-0.1-0.4-0.4-0.6-0.7-0.8c-0.3-0.2-0.8-0.3-1.2-0.3
			c-0.7,0-1.4,0.2-1.9,0.7c-0.5,0.5-0.8,1.4-0.8,2.7v5.7H505.5z"/>
		<path d="M523.4,39.6v-1.3c-0.7,1-1.6,1.5-2.9,1.5c-0.8,0-1.6-0.2-2.3-0.7c-0.7-0.5-1.2-1.1-1.6-1.9c-0.4-0.8-0.6-1.8-0.6-2.8
			c0-1,0.2-2,0.5-2.8c0.3-0.8,0.9-1.5,1.6-1.9s1.5-0.7,2.3-0.7c0.6,0,1.2,0.1,1.7,0.4s0.9,0.6,1.2,1v-5.1h1.7v14.3H523.4z
			 M517.8,34.4c0,1.3,0.3,2.3,0.8,3c0.6,0.7,1.2,1,2,1c0.8,0,1.4-0.3,2-0.9c0.5-0.6,0.8-1.6,0.8-2.9c0-1.4-0.3-2.5-0.8-3.1
			s-1.2-1-2-1c-0.8,0-1.4,0.3-2,1C518.1,32.1,517.8,33.1,517.8,34.4z"/>
		<path d="M54.6,60.5l1.7-0.3c0.1,0.7,0.4,1.2,0.8,1.6s1.1,0.6,1.9,0.6c0.8,0,1.4-0.2,1.8-0.5c0.4-0.3,0.6-0.7,0.6-1.2
			c0-0.4-0.2-0.7-0.5-0.9c-0.2-0.2-0.8-0.4-1.8-0.6c-1.3-0.3-2.2-0.6-2.7-0.8c-0.5-0.2-0.9-0.6-1.1-1s-0.4-0.9-0.4-1.4
			c0-0.5,0.1-0.9,0.3-1.3c0.2-0.4,0.5-0.7,0.9-1c0.3-0.2,0.6-0.4,1.1-0.5c0.5-0.1,1-0.2,1.5-0.2c0.8,0,1.5,0.1,2.1,0.4
			s1.1,0.6,1.4,1s0.5,0.9,0.6,1.6l-1.7,0.2c-0.1-0.5-0.3-1-0.7-1.2c-0.4-0.3-0.9-0.4-1.6-0.4c-0.8,0-1.4,0.1-1.7,0.4
			c-0.3,0.3-0.5,0.6-0.5,0.9c0,0.2,0.1,0.4,0.2,0.6c0.1,0.2,0.4,0.3,0.7,0.5c0.2,0.1,0.7,0.2,1.6,0.4c1.2,0.3,2.1,0.6,2.6,0.8
			c0.5,0.2,0.9,0.5,1.2,0.9c0.3,0.4,0.4,0.9,0.4,1.5c0,0.6-0.2,1.1-0.5,1.7s-0.8,0.9-1.5,1.2s-1.4,0.4-2.2,0.4
			c-1.3,0-2.4-0.3-3.1-0.8C55.3,62.5,54.8,61.6,54.6,60.5z"/>
		<path d="M72.4,60.3l1.8,0.2c-0.3,1.1-0.8,1.9-1.6,2.5s-1.8,0.9-3,0.9c-1.5,0-2.7-0.5-3.6-1.4c-0.9-0.9-1.3-2.2-1.3-3.9
			c0-1.7,0.4-3.1,1.3-4.1c0.9-1,2.1-1.4,3.5-1.4c1.4,0,2.5,0.5,3.4,1.4c0.9,0.9,1.3,2.3,1.3,4c0,0.1,0,0.3,0,0.5h-7.7
			c0.1,1.1,0.4,2,1,2.6s1.3,0.9,2.2,0.9c0.6,0,1.2-0.2,1.7-0.5C71.8,61.6,72.2,61,72.4,60.3z M66.7,57.4h5.8c-0.1-0.9-0.3-1.5-0.7-2
			c-0.6-0.7-1.3-1-2.2-1c-0.8,0-1.5,0.3-2,0.8C67,55.8,66.7,56.5,66.7,57.4z"/>
		<path d="M76.4,63.6V53.2H78v1.6c0.4-0.7,0.8-1.2,1.1-1.5s0.7-0.4,1.1-0.4c0.6,0,1.2,0.2,1.8,0.6l-0.6,1.6
			c-0.4-0.3-0.9-0.4-1.3-0.4c-0.4,0-0.7,0.1-1,0.3c-0.3,0.2-0.5,0.6-0.7,1c-0.2,0.6-0.3,1.3-0.3,2.1v5.4H76.4z"/>
		<path d="M86,63.6L82,53.2h1.9l2.2,6.2c0.2,0.7,0.5,1.4,0.7,2.1c0.2-0.5,0.4-1.2,0.7-2l2.3-6.3h1.8l-3.9,10.4H86z"/>
		<path d="M100.2,60.3l1.8,0.2c-0.3,1.1-0.8,1.9-1.6,2.5s-1.8,0.9-3,0.9c-1.5,0-2.7-0.5-3.6-1.4c-0.9-0.9-1.3-2.2-1.3-3.9
			c0-1.7,0.4-3.1,1.3-4.1c0.9-1,2.1-1.4,3.5-1.4c1.4,0,2.5,0.5,3.4,1.4c0.9,0.9,1.3,2.3,1.3,4c0,0.1,0,0.3,0,0.5h-7.7
			c0.1,1.1,0.4,2,1,2.6s1.3,0.9,2.2,0.9c0.6,0,1.2-0.2,1.7-0.5C99.6,61.6,99.9,61,100.2,60.3z M94.4,57.4h5.8
			c-0.1-0.9-0.3-1.5-0.7-2c-0.6-0.7-1.3-1-2.2-1c-0.8,0-1.5,0.3-2,0.8C94.8,55.8,94.5,56.5,94.4,57.4z"/>
		<path d="M104.2,63.6V53.2h1.6v1.6c0.4-0.7,0.8-1.2,1.1-1.5s0.7-0.4,1.1-0.4c0.6,0,1.2,0.2,1.8,0.6l-0.6,1.6
			c-0.4-0.3-0.9-0.4-1.3-0.4c-0.4,0-0.7,0.1-1,0.3c-0.3,0.2-0.5,0.6-0.7,1c-0.2,0.6-0.3,1.3-0.3,2.1v5.4H104.2z"/>
		<path d="M120.3,62l0.3,1.6c-0.5,0.1-0.9,0.2-1.3,0.2c-0.6,0-1.1-0.1-1.5-0.3c-0.4-0.2-0.6-0.5-0.7-0.8c-0.1-0.3-0.2-1-0.2-2.1v-6
			h-1.3v-1.4h1.3v-2.6l1.7-1.1v3.6h1.8v1.4h-1.8v6.1c0,0.5,0,0.8,0.1,1c0.1,0.1,0.2,0.3,0.3,0.3c0.1,0.1,0.3,0.1,0.6,0.1
			C119.7,62.1,120,62.1,120.3,62z"/>
		<path d="M121.4,58.4c0-1.9,0.5-3.3,1.6-4.3c0.9-0.8,2-1.2,3.3-1.2c1.4,0,2.6,0.5,3.5,1.4c0.9,0.9,1.4,2.2,1.4,3.9
			c0,1.3-0.2,2.4-0.6,3.1c-0.4,0.8-1,1.4-1.7,1.8c-0.8,0.4-1.6,0.6-2.5,0.6c-1.5,0-2.6-0.5-3.5-1.4
			C121.8,61.5,121.4,60.2,121.4,58.4z M123.2,58.4c0,1.3,0.3,2.3,0.9,3c0.6,0.7,1.3,1,2.2,1c0.9,0,1.6-0.3,2.2-1s0.9-1.7,0.9-3
			c0-1.3-0.3-2.3-0.9-2.9c-0.6-0.7-1.3-1-2.2-1c-0.9,0-1.6,0.3-2.2,1C123.5,56.1,123.2,57.1,123.2,58.4z"/>
		<path d="M145.5,59.8l1.7,0.2c-0.2,1.2-0.7,2.1-1.5,2.8s-1.7,1-2.9,1c-1.4,0-2.6-0.5-3.4-1.4s-1.3-2.3-1.3-4c0-1.1,0.2-2.1,0.6-2.9
			s0.9-1.5,1.7-1.9s1.6-0.6,2.5-0.6c1.1,0,2,0.3,2.8,0.9c0.7,0.6,1.2,1.4,1.4,2.4l-1.7,0.3c-0.2-0.7-0.5-1.2-0.9-1.6
			s-0.9-0.5-1.5-0.5c-0.9,0-1.6,0.3-2.2,1s-0.8,1.6-0.8,3c0,1.4,0.3,2.4,0.8,3c0.5,0.6,1.2,0.9,2.1,0.9c0.7,0,1.3-0.2,1.7-0.6
			C145,61.4,145.3,60.7,145.5,59.8z"/>
		<path d="M148,58.4c0-1.9,0.5-3.3,1.6-4.3c0.9-0.8,2-1.2,3.3-1.2c1.4,0,2.6,0.5,3.5,1.4c0.9,0.9,1.4,2.2,1.4,3.9
			c0,1.3-0.2,2.4-0.6,3.1c-0.4,0.8-1,1.4-1.7,1.8c-0.8,0.4-1.6,0.6-2.5,0.6c-1.5,0-2.6-0.5-3.5-1.4C148.5,61.5,148,60.2,148,58.4z
			 M149.8,58.4c0,1.3,0.3,2.3,0.9,3c0.6,0.7,1.3,1,2.2,1c0.9,0,1.6-0.3,2.2-1s0.9-1.7,0.9-3c0-1.3-0.3-2.3-0.9-2.9
			c-0.6-0.7-1.3-1-2.2-1c-0.9,0-1.6,0.3-2.2,1C150.1,56.1,149.8,57.1,149.8,58.4z"/>
		<path d="M159.8,63.6V53.2h1.6v1.5c0.8-1.1,1.9-1.7,3.3-1.7c0.6,0,1.2,0.1,1.7,0.3s0.9,0.5,1.2,0.9c0.3,0.4,0.4,0.8,0.5,1.3
			c0.1,0.3,0.1,0.9,0.1,1.7v6.4h-1.8v-6.3c0-0.7-0.1-1.3-0.2-1.6c-0.1-0.4-0.4-0.6-0.7-0.8c-0.3-0.2-0.8-0.3-1.2-0.3
			c-0.7,0-1.4,0.2-1.9,0.7c-0.5,0.5-0.8,1.4-0.8,2.7v5.7H159.8z"/>
		<path d="M170.2,60.5l1.7-0.3c0.1,0.7,0.4,1.2,0.8,1.6s1.1,0.6,1.9,0.6c0.8,0,1.4-0.2,1.8-0.5c0.4-0.3,0.6-0.7,0.6-1.2
			c0-0.4-0.2-0.7-0.5-0.9c-0.2-0.2-0.8-0.4-1.8-0.6c-1.3-0.3-2.2-0.6-2.7-0.8c-0.5-0.2-0.9-0.6-1.1-1s-0.4-0.9-0.4-1.4
			c0-0.5,0.1-0.9,0.3-1.3c0.2-0.4,0.5-0.7,0.9-1c0.3-0.2,0.6-0.4,1.1-0.5c0.5-0.1,1-0.2,1.5-0.2c0.8,0,1.5,0.1,2.1,0.4
			s1.1,0.6,1.4,1s0.5,0.9,0.6,1.6l-1.7,0.2c-0.1-0.5-0.3-1-0.7-1.2c-0.4-0.3-0.9-0.4-1.6-0.4c-0.8,0-1.4,0.1-1.7,0.4
			c-0.3,0.3-0.5,0.6-0.5,0.9c0,0.2,0.1,0.4,0.2,0.6c0.1,0.2,0.4,0.3,0.7,0.5c0.2,0.1,0.7,0.2,1.6,0.4c1.2,0.3,2.1,0.6,2.6,0.8
			c0.5,0.2,0.9,0.5,1.2,0.9c0.3,0.4,0.4,0.9,0.4,1.5c0,0.6-0.2,1.1-0.5,1.7s-0.8,0.9-1.5,1.2s-1.4,0.4-2.2,0.4
			c-1.3,0-2.4-0.3-3.1-0.8C170.9,62.5,170.4,61.6,170.2,60.5z"/>
		<path d="M184.8,62l0.3,1.6c-0.5,0.1-0.9,0.2-1.3,0.2c-0.6,0-1.1-0.1-1.5-0.3c-0.4-0.2-0.6-0.5-0.7-0.8c-0.1-0.3-0.2-1-0.2-2.1v-6
			H180v-1.4h1.3v-2.6l1.7-1.1v3.6h1.8v1.4H183v6.1c0,0.5,0,0.8,0.1,1c0.1,0.1,0.2,0.3,0.3,0.3c0.1,0.1,0.3,0.1,0.6,0.1
			C184.2,62.1,184.5,62.1,184.8,62z"/>
		<path d="M186.5,63.6V53.2h1.6v1.6c0.4-0.7,0.8-1.2,1.1-1.5s0.7-0.4,1.1-0.4c0.6,0,1.2,0.2,1.8,0.6l-0.6,1.6
			c-0.4-0.3-0.9-0.4-1.3-0.4c-0.4,0-0.7,0.1-1,0.3c-0.3,0.2-0.5,0.6-0.7,1c-0.2,0.6-0.3,1.3-0.3,2.1v5.4H186.5z"/>
		<path d="M199.9,63.6v-1.5c-0.8,1.2-1.9,1.8-3.3,1.8c-0.6,0-1.2-0.1-1.7-0.4s-0.9-0.5-1.2-0.9c-0.3-0.4-0.4-0.8-0.5-1.3
			c-0.1-0.3-0.1-0.9-0.1-1.6v-6.4h1.8V59c0,0.9,0,1.5,0.1,1.9c0.1,0.5,0.3,0.8,0.7,1.1s0.8,0.4,1.3,0.4s1-0.1,1.5-0.4
			c0.5-0.3,0.8-0.6,1-1.1c0.2-0.5,0.3-1.1,0.3-2v-5.6h1.8v10.4H199.9z"/>
		<path d="M211,59.8l1.7,0.2c-0.2,1.2-0.7,2.1-1.5,2.8s-1.7,1-2.9,1c-1.4,0-2.6-0.5-3.4-1.4s-1.3-2.3-1.3-4c0-1.1,0.2-2.1,0.6-2.9
			s0.9-1.5,1.7-1.9s1.6-0.6,2.5-0.6c1.1,0,2,0.3,2.8,0.9c0.7,0.6,1.2,1.4,1.4,2.4l-1.7,0.3c-0.2-0.7-0.5-1.2-0.9-1.6
			s-0.9-0.5-1.5-0.5c-0.9,0-1.6,0.3-2.2,1s-0.8,1.6-0.8,3c0,1.4,0.3,2.4,0.8,3c0.5,0.6,1.2,0.9,2.1,0.9c0.7,0,1.3-0.2,1.7-0.6
			C210.6,61.4,210.9,60.7,211,59.8z"/>
		<path d="M218.1,62l0.3,1.6c-0.5,0.1-0.9,0.2-1.3,0.2c-0.6,0-1.1-0.1-1.5-0.3c-0.4-0.2-0.6-0.5-0.7-0.8c-0.1-0.3-0.2-1-0.2-2.1v-6
			h-1.3v-1.4h1.3v-2.6l1.7-1.1v3.6h1.8v1.4h-1.8v6.1c0,0.5,0,0.8,0.1,1c0.1,0.1,0.2,0.3,0.3,0.3c0.1,0.1,0.3,0.1,0.6,0.1
			C217.5,62.1,217.8,62.1,218.1,62z"/>
		<path d="M232.2,62.3c-0.7,0.6-1.3,0.9-1.9,1.2c-0.6,0.2-1.2,0.3-1.9,0.3c-1.1,0-2-0.3-2.6-0.8s-0.9-1.3-0.9-2.1
			c0-0.5,0.1-1,0.3-1.4s0.5-0.8,0.9-1s0.8-0.4,1.3-0.6c0.3-0.1,0.9-0.2,1.6-0.3c1.4-0.2,2.5-0.4,3.1-0.6c0-0.2,0-0.4,0-0.5
			c0-0.7-0.2-1.2-0.5-1.5c-0.4-0.4-1.1-0.6-2-0.6c-0.8,0-1.4,0.1-1.8,0.4c-0.4,0.3-0.7,0.8-0.9,1.5l-1.7-0.2
			c0.2-0.7,0.4-1.3,0.8-1.8c0.4-0.5,0.9-0.8,1.6-1s1.5-0.4,2.4-0.4c0.9,0,1.6,0.1,2.2,0.3c0.6,0.2,1,0.5,1.2,0.8
			c0.3,0.3,0.4,0.7,0.5,1.2c0.1,0.3,0.1,0.8,0.1,1.6v2.3c0,1.6,0,2.7,0.1,3.1c0.1,0.4,0.2,0.8,0.4,1.2h-1.8
			C232.3,63.3,232.2,62.8,232.2,62.3z M232,58.4c-0.6,0.3-1.6,0.5-2.9,0.7c-0.7,0.1-1.2,0.2-1.5,0.4c-0.3,0.1-0.5,0.3-0.7,0.6
			c-0.2,0.3-0.2,0.5-0.2,0.8c0,0.5,0.2,0.9,0.5,1.2s0.9,0.5,1.6,0.5c0.7,0,1.3-0.1,1.8-0.4c0.5-0.3,0.9-0.7,1.2-1.2
			c0.2-0.4,0.3-1,0.3-1.8V58.4z"/>
		<path d="M242.1,63.6V53.2h1.6v1.5c0.3-0.5,0.8-0.9,1.3-1.2c0.5-0.3,1.2-0.5,1.8-0.5c0.8,0,1.4,0.2,1.9,0.5c0.5,0.3,0.8,0.8,1,1.3
			c0.8-1.2,1.9-1.8,3.2-1.8c1,0,1.8,0.3,2.4,0.9c0.6,0.6,0.8,1.4,0.8,2.6v7.1h-1.7v-6.5c0-0.7-0.1-1.2-0.2-1.5
			c-0.1-0.3-0.3-0.6-0.6-0.7c-0.3-0.2-0.7-0.3-1.1-0.3c-0.7,0-1.3,0.2-1.8,0.7c-0.5,0.5-0.7,1.3-0.7,2.3v6h-1.8v-6.7
			c0-0.8-0.1-1.4-0.4-1.8s-0.8-0.6-1.4-0.6c-0.5,0-1,0.1-1.4,0.4c-0.4,0.3-0.7,0.6-0.9,1.1c-0.2,0.5-0.3,1.2-0.3,2.2v5.4H242.1z"/>
		<path d="M265.5,62.3c-0.7,0.6-1.3,0.9-1.9,1.2c-0.6,0.2-1.2,0.3-1.9,0.3c-1.1,0-2-0.3-2.6-0.8s-0.9-1.3-0.9-2.1
			c0-0.5,0.1-1,0.3-1.4s0.5-0.8,0.9-1s0.8-0.4,1.3-0.6c0.3-0.1,0.9-0.2,1.6-0.3c1.4-0.2,2.5-0.4,3.1-0.6c0-0.2,0-0.4,0-0.5
			c0-0.7-0.2-1.2-0.5-1.5c-0.4-0.4-1.1-0.6-2-0.6c-0.8,0-1.4,0.1-1.8,0.4c-0.4,0.3-0.7,0.8-0.9,1.5l-1.7-0.2
			c0.2-0.7,0.4-1.3,0.8-1.8c0.4-0.5,0.9-0.8,1.6-1s1.5-0.4,2.4-0.4c0.9,0,1.6,0.1,2.2,0.3c0.6,0.2,1,0.5,1.2,0.8
			c0.3,0.3,0.4,0.7,0.5,1.2c0.1,0.3,0.1,0.8,0.1,1.6v2.3c0,1.6,0,2.7,0.1,3.1c0.1,0.4,0.2,0.8,0.4,1.2h-1.8
			C265.7,63.3,265.5,62.8,265.5,62.3z M265.3,58.4c-0.6,0.3-1.6,0.5-2.9,0.7c-0.7,0.1-1.2,0.2-1.5,0.4c-0.3,0.1-0.5,0.3-0.7,0.6
			c-0.2,0.3-0.2,0.5-0.2,0.8c0,0.5,0.2,0.9,0.5,1.2s0.9,0.5,1.6,0.5c0.7,0,1.3-0.1,1.8-0.4c0.5-0.3,0.9-0.7,1.2-1.2
			c0.2-0.4,0.3-1,0.3-1.8V58.4z"/>
		<path d="M273.7,62l0.3,1.6c-0.5,0.1-0.9,0.2-1.3,0.2c-0.6,0-1.1-0.1-1.5-0.3c-0.4-0.2-0.6-0.5-0.7-0.8c-0.1-0.3-0.2-1-0.2-2.1v-6
			h-1.3v-1.4h1.3v-2.6l1.7-1.1v3.6h1.8v1.4h-1.8v6.1c0,0.5,0,0.8,0.1,1c0.1,0.1,0.2,0.3,0.3,0.3c0.1,0.1,0.3,0.1,0.6,0.1
			C273.1,62.1,273.4,62.1,273.7,62z"/>
		<path d="M282.2,59.8l1.7,0.2c-0.2,1.2-0.7,2.1-1.5,2.8s-1.7,1-2.9,1c-1.4,0-2.6-0.5-3.4-1.4s-1.3-2.3-1.3-4c0-1.1,0.2-2.1,0.6-2.9
			s0.9-1.5,1.7-1.9s1.6-0.6,2.5-0.6c1.1,0,2,0.3,2.8,0.9c0.7,0.6,1.2,1.4,1.4,2.4l-1.7,0.3c-0.2-0.7-0.5-1.2-0.9-1.6
			s-0.9-0.5-1.5-0.5c-0.9,0-1.6,0.3-2.2,1s-0.8,1.6-0.8,3c0,1.4,0.3,2.4,0.8,3c0.5,0.6,1.2,0.9,2.1,0.9c0.7,0,1.3-0.2,1.7-0.6
			C281.8,61.4,282.1,60.7,282.2,59.8z"/>
		<path d="M285.4,63.6V49.3h1.8v5.1c0.8-1,1.9-1.4,3.1-1.4c0.8,0,1.4,0.2,2,0.5s1,0.7,1.2,1.3c0.2,0.5,0.4,1.3,0.4,2.3v6.6h-1.8V57
			c0-0.9-0.2-1.5-0.6-1.9s-0.9-0.6-1.6-0.6c-0.5,0-1,0.1-1.5,0.4c-0.5,0.3-0.8,0.6-1,1.1c-0.2,0.5-0.3,1.1-0.3,1.9v5.7H285.4z"/>
		<path d="M296.5,51.3v-2h1.8v2H296.5z M296.5,63.6V53.2h1.8v10.4H296.5z"/>
		<path d="M301,63.6V53.2h1.6v1.5c0.8-1.1,1.9-1.7,3.3-1.7c0.6,0,1.2,0.1,1.7,0.3s0.9,0.5,1.2,0.9c0.3,0.4,0.4,0.8,0.5,1.3
			c0.1,0.3,0.1,0.9,0.1,1.7v6.4h-1.8v-6.3c0-0.7-0.1-1.3-0.2-1.6c-0.1-0.4-0.4-0.6-0.7-0.8c-0.3-0.2-0.8-0.3-1.2-0.3
			c-0.7,0-1.4,0.2-1.9,0.7c-0.5,0.5-0.8,1.4-0.8,2.7v5.7H301z"/>
		<path d="M311.8,64.5l1.7,0.3c0.1,0.5,0.3,0.9,0.6,1.2c0.4,0.3,1,0.5,1.8,0.5c0.8,0,1.4-0.2,1.9-0.5c0.4-0.3,0.7-0.8,0.9-1.4
			c0.1-0.4,0.1-1.1,0.1-2.3c-0.8,0.9-1.7,1.4-2.9,1.4c-1.4,0-2.5-0.5-3.3-1.5c-0.8-1-1.2-2.3-1.2-3.7c0-1,0.2-1.9,0.5-2.7
			c0.4-0.8,0.9-1.5,1.6-1.9c0.7-0.5,1.5-0.7,2.4-0.7c1.2,0,2.2,0.5,3,1.5v-1.2h1.6v9c0,1.6-0.2,2.8-0.5,3.4s-0.8,1.2-1.6,1.6
			s-1.6,0.6-2.6,0.6c-1.2,0-2.2-0.3-3-0.8S311.7,65.6,311.8,64.5z M313.2,58.2c0,1.4,0.3,2.4,0.8,3s1.2,0.9,2,0.9
			c0.8,0,1.5-0.3,2-0.9c0.5-0.6,0.8-1.6,0.8-2.9c0-1.3-0.3-2.2-0.8-2.9s-1.2-1-2-1c-0.8,0-1.4,0.3-2,1S313.2,57,313.2,58.2z"/>
		<path d="M328.1,60.5l1.7-0.3c0.1,0.7,0.4,1.2,0.8,1.6s1.1,0.6,1.9,0.6c0.8,0,1.4-0.2,1.8-0.5c0.4-0.3,0.6-0.7,0.6-1.2
			c0-0.4-0.2-0.7-0.5-0.9c-0.2-0.2-0.8-0.4-1.8-0.6c-1.3-0.3-2.2-0.6-2.7-0.8c-0.5-0.2-0.9-0.6-1.1-1s-0.4-0.9-0.4-1.4
			c0-0.5,0.1-0.9,0.3-1.3c0.2-0.4,0.5-0.7,0.9-1c0.3-0.2,0.6-0.4,1.1-0.5c0.5-0.1,1-0.2,1.5-0.2c0.8,0,1.5,0.1,2.1,0.4
			s1.1,0.6,1.4,1s0.5,0.9,0.6,1.6l-1.7,0.2c-0.1-0.5-0.3-1-0.7-1.2c-0.4-0.3-0.9-0.4-1.6-0.4c-0.8,0-1.4,0.1-1.7,0.4
			c-0.3,0.3-0.5,0.6-0.5,0.9c0,0.2,0.1,0.4,0.2,0.6c0.1,0.2,0.4,0.3,0.7,0.5c0.2,0.1,0.7,0.2,1.6,0.4c1.2,0.3,2.1,0.6,2.6,0.8
			c0.5,0.2,0.9,0.5,1.2,0.9c0.3,0.4,0.4,0.9,0.4,1.5c0,0.6-0.2,1.1-0.5,1.7s-0.8,0.9-1.5,1.2s-1.4,0.4-2.2,0.4
			c-1.3,0-2.4-0.3-3.1-0.8C328.7,62.5,328.3,61.6,328.1,60.5z"/>
		<path d="M338.8,51.3v-2h1.8v2H338.8z M338.8,63.6V53.2h1.8v10.4H338.8z"/>
		<path d="M342.9,64.5l1.7,0.3c0.1,0.5,0.3,0.9,0.6,1.2c0.4,0.3,1,0.5,1.8,0.5c0.8,0,1.4-0.2,1.9-0.5c0.4-0.3,0.7-0.8,0.9-1.4
			c0.1-0.4,0.1-1.1,0.1-2.3c-0.8,0.9-1.7,1.4-2.9,1.4c-1.4,0-2.5-0.5-3.3-1.5c-0.8-1-1.2-2.3-1.2-3.7c0-1,0.2-1.9,0.5-2.7
			c0.4-0.8,0.9-1.5,1.6-1.9c0.7-0.5,1.5-0.7,2.4-0.7c1.2,0,2.2,0.5,3,1.5v-1.2h1.6v9c0,1.6-0.2,2.8-0.5,3.4s-0.8,1.2-1.6,1.6
			s-1.6,0.6-2.6,0.6c-1.2,0-2.2-0.3-3-0.8S342.9,65.6,342.9,64.5z M344.4,58.2c0,1.4,0.3,2.4,0.8,3s1.2,0.9,2,0.9
			c0.8,0,1.5-0.3,2-0.9c0.5-0.6,0.8-1.6,0.8-2.9c0-1.3-0.3-2.2-0.8-2.9s-1.2-1-2-1c-0.8,0-1.4,0.3-2,1S344.4,57,344.4,58.2z"/>
		<path d="M354.3,63.6V53.2h1.6v1.5c0.8-1.1,1.9-1.7,3.3-1.7c0.6,0,1.2,0.1,1.7,0.3s0.9,0.5,1.2,0.9c0.3,0.4,0.4,0.8,0.5,1.3
			c0.1,0.3,0.1,0.9,0.1,1.7v6.4H361v-6.3c0-0.7-0.1-1.3-0.2-1.6c-0.1-0.4-0.4-0.6-0.7-0.8c-0.3-0.2-0.8-0.3-1.2-0.3
			c-0.7,0-1.4,0.2-1.9,0.7c-0.5,0.5-0.8,1.4-0.8,2.7v5.7H354.3z"/>
		<path d="M372.2,62.3c-0.7,0.6-1.3,0.9-1.9,1.2c-0.6,0.2-1.2,0.3-1.9,0.3c-1.1,0-2-0.3-2.6-0.8s-0.9-1.3-0.9-2.1
			c0-0.5,0.1-1,0.3-1.4s0.5-0.8,0.9-1s0.8-0.4,1.3-0.6c0.3-0.1,0.9-0.2,1.6-0.3c1.4-0.2,2.5-0.4,3.1-0.6c0-0.2,0-0.4,0-0.5
			c0-0.7-0.2-1.2-0.5-1.5c-0.4-0.4-1.1-0.6-2-0.6c-0.8,0-1.4,0.1-1.8,0.4c-0.4,0.3-0.7,0.8-0.9,1.5l-1.7-0.2
			c0.2-0.7,0.4-1.3,0.8-1.8c0.4-0.5,0.9-0.8,1.6-1s1.5-0.4,2.4-0.4c0.9,0,1.6,0.1,2.2,0.3c0.6,0.2,1,0.5,1.2,0.8
			c0.3,0.3,0.4,0.7,0.5,1.2c0.1,0.3,0.1,0.8,0.1,1.6v2.3c0,1.6,0,2.7,0.1,3.1c0.1,0.4,0.2,0.8,0.4,1.2h-1.8
			C372.4,63.3,372.3,62.8,372.2,62.3z M372.1,58.4c-0.6,0.3-1.6,0.5-2.9,0.7c-0.7,0.1-1.2,0.2-1.5,0.4c-0.3,0.1-0.5,0.3-0.7,0.6
			c-0.2,0.3-0.2,0.5-0.2,0.8c0,0.5,0.2,0.9,0.5,1.2s0.9,0.5,1.6,0.5c0.7,0,1.3-0.1,1.8-0.4c0.5-0.3,0.9-0.7,1.2-1.2
			c0.2-0.4,0.3-1,0.3-1.8V58.4z"/>
		<path d="M380.4,62l0.3,1.6c-0.5,0.1-0.9,0.2-1.3,0.2c-0.6,0-1.1-0.1-1.5-0.3c-0.4-0.2-0.6-0.5-0.7-0.8c-0.1-0.3-0.2-1-0.2-2.1v-6
			h-1.3v-1.4h1.3v-2.6l1.7-1.1v3.6h1.8v1.4h-1.8v6.1c0,0.5,0,0.8,0.1,1c0.1,0.1,0.2,0.3,0.3,0.3c0.1,0.1,0.3,0.1,0.6,0.1
			C379.9,62.1,380.1,62.1,380.4,62z"/>
		<path d="M388.9,63.6v-1.5c-0.8,1.2-1.9,1.8-3.3,1.8c-0.6,0-1.2-0.1-1.7-0.4s-0.9-0.5-1.2-0.9c-0.3-0.4-0.4-0.8-0.5-1.3
			c-0.1-0.3-0.1-0.9-0.1-1.6v-6.4h1.8V59c0,0.9,0,1.5,0.1,1.9c0.1,0.5,0.3,0.8,0.7,1.1s0.8,0.4,1.3,0.4s1-0.1,1.5-0.4
			c0.5-0.3,0.8-0.6,1-1.1c0.2-0.5,0.3-1.1,0.3-2v-5.6h1.8v10.4H388.9z"/>
		<path d="M393.2,63.6V53.2h1.6v1.6c0.4-0.7,0.8-1.2,1.1-1.5s0.7-0.4,1.1-0.4c0.6,0,1.2,0.2,1.8,0.6l-0.6,1.6
			c-0.4-0.3-0.9-0.4-1.3-0.4c-0.4,0-0.7,0.1-1,0.3c-0.3,0.2-0.5,0.6-0.7,1c-0.2,0.6-0.3,1.3-0.3,2.1v5.4H393.2z"/>
		<path d="M407,60.3l1.8,0.2c-0.3,1.1-0.8,1.9-1.6,2.5s-1.8,0.9-3,0.9c-1.5,0-2.7-0.5-3.6-1.4c-0.9-0.9-1.3-2.2-1.3-3.9
			c0-1.7,0.4-3.1,1.3-4.1c0.9-1,2.1-1.4,3.5-1.4c1.4,0,2.5,0.5,3.4,1.4c0.9,0.9,1.3,2.3,1.3,4c0,0.1,0,0.3,0,0.5h-7.7
			c0.1,1.1,0.4,2,1,2.6s1.3,0.9,2.2,0.9c0.6,0,1.2-0.2,1.7-0.5C406.4,61.6,406.8,61,407,60.3z M401.3,57.4h5.8
			c-0.1-0.9-0.3-1.5-0.7-2c-0.6-0.7-1.3-1-2.2-1c-0.8,0-1.5,0.3-2,0.8C401.6,55.8,401.3,56.5,401.3,57.4z"/>
	</g>
	<g>
		<path d="M449.2,170.8v-11.5h5.1c1,0,1.8,0.1,2.3,0.3c0.5,0.2,1,0.6,1.3,1.1c0.3,0.5,0.5,1.1,0.5,1.7c0,0.8-0.3,1.5-0.8,2.1
			c-0.5,0.6-1.3,0.9-2.4,1.1c0.4,0.2,0.7,0.4,0.9,0.6c0.4,0.4,0.9,0.9,1.3,1.5l2,3.1h-1.9l-1.5-2.4c-0.4-0.7-0.8-1.2-1.1-1.6
			c-0.3-0.4-0.5-0.6-0.8-0.8c-0.2-0.1-0.5-0.2-0.7-0.3c-0.2,0-0.5-0.1-0.8-0.1h-1.8v5.1H449.2z M450.7,164.4h3.3
			c0.7,0,1.2-0.1,1.6-0.2c0.4-0.1,0.7-0.4,0.9-0.7c0.2-0.3,0.3-0.7,0.3-1c0-0.5-0.2-1-0.6-1.3c-0.4-0.3-1-0.5-1.9-0.5h-3.6V164.4z"
			/>
		<path d="M466.2,168.1l1.5,0.2c-0.2,0.8-0.7,1.5-1.3,2c-0.6,0.5-1.4,0.7-2.4,0.7c-1.2,0-2.2-0.4-2.9-1.1c-0.7-0.7-1.1-1.8-1.1-3.1
			c0-1.4,0.4-2.5,1.1-3.2c0.7-0.8,1.7-1.2,2.8-1.2c1.1,0,2,0.4,2.7,1.1c0.7,0.8,1.1,1.8,1.1,3.2c0,0.1,0,0.2,0,0.4h-6.2
			c0.1,0.9,0.3,1.6,0.8,2.1c0.5,0.5,1,0.7,1.7,0.7c0.5,0,1-0.1,1.3-0.4C465.7,169.2,466,168.7,466.2,168.1z M461.6,165.9h4.6
			c-0.1-0.7-0.2-1.2-0.5-1.6c-0.4-0.5-1-0.8-1.7-0.8c-0.6,0-1.2,0.2-1.6,0.6C461.9,164.6,461.7,165.1,461.6,165.9z"/>
		<path d="M468.9,168.3l1.4-0.2c0.1,0.6,0.3,1,0.7,1.3c0.4,0.3,0.9,0.4,1.5,0.4c0.6,0,1.1-0.1,1.4-0.4c0.3-0.3,0.5-0.6,0.5-0.9
			c0-0.3-0.1-0.6-0.4-0.8c-0.2-0.1-0.7-0.3-1.4-0.5c-1-0.3-1.7-0.5-2.1-0.7c-0.4-0.2-0.7-0.5-0.9-0.8c-0.2-0.3-0.3-0.7-0.3-1.1
			c0-0.4,0.1-0.7,0.3-1c0.2-0.3,0.4-0.6,0.7-0.8c0.2-0.2,0.5-0.3,0.9-0.4c0.4-0.1,0.8-0.2,1.2-0.2c0.7,0,1.2,0.1,1.7,0.3
			s0.9,0.4,1.1,0.8s0.4,0.7,0.5,1.3l-1.4,0.2c-0.1-0.4-0.2-0.8-0.5-1c-0.3-0.2-0.7-0.4-1.3-0.4c-0.6,0-1.1,0.1-1.4,0.3
			c-0.3,0.2-0.4,0.5-0.4,0.8c0,0.2,0.1,0.3,0.2,0.5c0.1,0.2,0.3,0.3,0.5,0.4c0.1,0.1,0.6,0.2,1.2,0.4c1,0.3,1.7,0.5,2.1,0.7
			c0.4,0.2,0.7,0.4,0.9,0.7c0.2,0.3,0.3,0.7,0.3,1.2c0,0.5-0.1,0.9-0.4,1.3s-0.7,0.7-1.2,1s-1.1,0.3-1.8,0.3c-1.1,0-1.9-0.2-2.5-0.7
			C469.4,169.9,469,169.2,468.9,168.3z"/>
		<path d="M476.9,166.7c0-1.5,0.4-2.7,1.3-3.4c0.7-0.6,1.6-0.9,2.6-0.9c1.1,0,2.1,0.4,2.8,1.1c0.7,0.7,1.1,1.8,1.1,3.1
			c0,1.1-0.2,1.9-0.5,2.5c-0.3,0.6-0.8,1.1-1.4,1.4c-0.6,0.3-1.3,0.5-2,0.5c-1.2,0-2.1-0.4-2.8-1.1
			C477.3,169.1,476.9,168.1,476.9,166.7z M478.4,166.7c0,1.1,0.2,1.9,0.7,2.4c0.5,0.5,1,0.8,1.8,0.8c0.7,0,1.3-0.3,1.7-0.8
			c0.5-0.5,0.7-1.3,0.7-2.4c0-1-0.2-1.8-0.7-2.3c-0.5-0.5-1-0.8-1.7-0.8c-0.7,0-1.3,0.3-1.8,0.8
			C478.6,164.8,478.4,165.6,478.4,166.7z"/>
		<path d="M491.8,170.8v-1.2c-0.6,0.9-1.5,1.4-2.6,1.4c-0.5,0-0.9-0.1-1.4-0.3c-0.4-0.2-0.7-0.4-0.9-0.7c-0.2-0.3-0.4-0.6-0.4-1
			c-0.1-0.3-0.1-0.7-0.1-1.3v-5.1h1.4v4.6c0,0.7,0,1.2,0.1,1.5c0.1,0.4,0.3,0.7,0.6,0.9c0.3,0.2,0.6,0.3,1.1,0.3s0.8-0.1,1.2-0.3
			c0.4-0.2,0.6-0.5,0.8-0.9c0.2-0.4,0.2-0.9,0.2-1.6v-4.4h1.4v8.3H491.8z"/>
		<path d="M495.2,170.8v-8.3h1.3v1.3c0.3-0.6,0.6-1,0.9-1.2s0.6-0.3,0.9-0.3c0.5,0,1,0.2,1.4,0.5l-0.5,1.3c-0.3-0.2-0.7-0.3-1-0.3
			c-0.3,0-0.6,0.1-0.8,0.3c-0.2,0.2-0.4,0.4-0.5,0.8c-0.2,0.5-0.2,1-0.2,1.6v4.3H495.2z"/>
		<path d="M506,167.8l1.4,0.2c-0.2,1-0.5,1.7-1.2,2.2c-0.6,0.5-1.4,0.8-2.3,0.8c-1.1,0-2-0.4-2.7-1.1c-0.7-0.7-1-1.8-1-3.2
			c0-0.9,0.1-1.7,0.4-2.4s0.7-1.2,1.4-1.5c0.6-0.3,1.3-0.5,2-0.5c0.9,0,1.6,0.2,2.2,0.7c0.6,0.5,0.9,1.1,1.1,1.9l-1.4,0.2
			c-0.1-0.6-0.4-1-0.7-1.3c-0.3-0.3-0.7-0.4-1.2-0.4c-0.7,0-1.3,0.3-1.7,0.8c-0.4,0.5-0.7,1.3-0.7,2.4c0,1.1,0.2,1.9,0.6,2.4
			c0.4,0.5,1,0.8,1.7,0.8c0.6,0,1-0.2,1.4-0.5C505.7,169,505.9,168.5,506,167.8z"/>
		<path d="M514.3,168.1l1.5,0.2c-0.2,0.8-0.7,1.5-1.3,2c-0.6,0.5-1.4,0.7-2.4,0.7c-1.2,0-2.2-0.4-2.9-1.1c-0.7-0.7-1.1-1.8-1.1-3.1
			c0-1.4,0.4-2.5,1.1-3.2c0.7-0.8,1.7-1.2,2.8-1.2c1.1,0,2,0.4,2.7,1.1c0.7,0.8,1.1,1.8,1.1,3.2c0,0.1,0,0.2,0,0.4h-6.2
			c0.1,0.9,0.3,1.6,0.8,2.1c0.5,0.5,1,0.7,1.7,0.7c0.5,0,1-0.1,1.3-0.4C513.7,169.2,514,168.7,514.3,168.1z M509.6,165.9h4.6
			c-0.1-0.7-0.2-1.2-0.5-1.6c-0.4-0.5-1-0.8-1.7-0.8c-0.6,0-1.2,0.2-1.6,0.6C509.9,164.6,509.7,165.1,509.6,165.9z"/>
		<path d="M448.4,187.5l1.4-0.2c0.1,0.6,0.3,1,0.7,1.3c0.4,0.3,0.9,0.4,1.5,0.4c0.6,0,1.1-0.1,1.4-0.4c0.3-0.3,0.5-0.6,0.5-0.9
			c0-0.3-0.1-0.6-0.4-0.8c-0.2-0.1-0.7-0.3-1.4-0.5c-1-0.3-1.7-0.5-2.1-0.7c-0.4-0.2-0.7-0.5-0.9-0.8c-0.2-0.3-0.3-0.7-0.3-1.1
			c0-0.4,0.1-0.7,0.3-1c0.2-0.3,0.4-0.6,0.7-0.8c0.2-0.2,0.5-0.3,0.9-0.4c0.4-0.1,0.8-0.2,1.2-0.2c0.7,0,1.2,0.1,1.7,0.3
			s0.9,0.4,1.1,0.8s0.4,0.7,0.5,1.3l-1.4,0.2c-0.1-0.4-0.2-0.8-0.5-1c-0.3-0.2-0.7-0.4-1.3-0.4c-0.6,0-1.1,0.1-1.4,0.3
			c-0.3,0.2-0.4,0.5-0.4,0.8c0,0.2,0.1,0.3,0.2,0.5c0.1,0.2,0.3,0.3,0.5,0.4c0.1,0.1,0.6,0.2,1.2,0.4c1,0.3,1.7,0.5,2.1,0.7
			c0.4,0.2,0.7,0.4,0.9,0.7c0.2,0.3,0.3,0.7,0.3,1.2c0,0.5-0.1,0.9-0.4,1.3s-0.7,0.7-1.2,1s-1.1,0.3-1.8,0.3c-1.1,0-1.9-0.2-2.5-0.7
			C448.9,189.1,448.6,188.4,448.4,187.5z"/>
		<path d="M462.7,187.3l1.5,0.2c-0.2,0.8-0.7,1.5-1.3,2c-0.6,0.5-1.4,0.7-2.4,0.7c-1.2,0-2.2-0.4-2.9-1.1c-0.7-0.7-1.1-1.8-1.1-3.1
			c0-1.4,0.4-2.5,1.1-3.2c0.7-0.8,1.7-1.2,2.8-1.2c1.1,0,2,0.4,2.7,1.1c0.7,0.8,1.1,1.8,1.1,3.2c0,0.1,0,0.2,0,0.4H458
			c0.1,0.9,0.3,1.6,0.8,2.1c0.5,0.5,1,0.7,1.7,0.7c0.5,0,1-0.1,1.3-0.4C462.2,188.4,462.5,187.9,462.7,187.3z M458.1,185.1h4.6
			c-0.1-0.7-0.2-1.2-0.5-1.6c-0.4-0.5-1-0.8-1.7-0.8c-0.6,0-1.2,0.2-1.6,0.6C458.3,183.8,458.1,184.3,458.1,185.1z"/>
		<path d="M465.9,190v-8.3h1.3v1.3c0.3-0.6,0.6-1,0.9-1.2s0.6-0.3,0.9-0.3c0.5,0,1,0.2,1.4,0.5l-0.5,1.3c-0.3-0.2-0.7-0.3-1-0.3
			c-0.3,0-0.6,0.1-0.8,0.3c-0.2,0.2-0.4,0.4-0.5,0.8c-0.2,0.5-0.2,1-0.2,1.6v4.3H465.9z"/>
		<path d="M473.5,190l-3.2-8.3h1.5l1.8,5c0.2,0.5,0.4,1.1,0.5,1.7c0.1-0.4,0.3-1,0.5-1.6l1.8-5.1h1.4l-3.1,8.3H473.5z"/>
		<path d="M484.9,187.3l1.5,0.2c-0.2,0.8-0.7,1.5-1.3,2c-0.6,0.5-1.4,0.7-2.4,0.7c-1.2,0-2.2-0.4-2.9-1.1c-0.7-0.7-1.1-1.8-1.1-3.1
			c0-1.4,0.4-2.5,1.1-3.2c0.7-0.8,1.7-1.2,2.8-1.2c1.1,0,2,0.4,2.7,1.1c0.7,0.8,1.1,1.8,1.1,3.2c0,0.1,0,0.2,0,0.4h-6.2
			c0.1,0.9,0.3,1.6,0.8,2.1c0.5,0.5,1,0.7,1.7,0.7c0.5,0,1-0.1,1.3-0.4C484.4,188.4,484.7,187.9,484.9,187.3z M480.3,185.1h4.6
			c-0.1-0.7-0.2-1.2-0.5-1.6c-0.4-0.5-1-0.8-1.7-0.8c-0.6,0-1.2,0.2-1.6,0.6C480.6,183.8,480.3,184.3,480.3,185.1z"/>
		<path d="M488.1,190v-8.3h1.3v1.3c0.3-0.6,0.6-1,0.9-1.2s0.6-0.3,0.9-0.3c0.5,0,1,0.2,1.4,0.5l-0.5,1.3c-0.3-0.2-0.7-0.3-1-0.3
			c-0.3,0-0.6,0.1-0.8,0.3c-0.2,0.2-0.4,0.4-0.5,0.8c-0.2,0.5-0.2,1-0.2,1.6v4.3H488.1z"/>
		<path d="M500.6,193.4c-0.8-1-1.4-2.1-2-3.4c-0.5-1.3-0.8-2.7-0.8-4.1c0-1.2,0.2-2.4,0.6-3.6c0.5-1.3,1.2-2.6,2.2-3.9h1
			c-0.6,1.1-1,1.9-1.2,2.3c-0.3,0.7-0.6,1.5-0.8,2.2c-0.2,1-0.3,2-0.3,2.9c0,2.5,0.8,5,2.3,7.5H500.6z"/>
		<path d="M502.1,190l4.4-11.5h1.6l4.7,11.5h-1.7l-1.3-3.5H505l-1.3,3.5H502.1z M505.4,185.3h3.9l-1.2-3.2c-0.4-1-0.6-1.8-0.8-2.4
			c-0.1,0.7-0.4,1.5-0.6,2.2L505.4,185.3z"/>
		<path d="M514.1,190v-11.5h4.3c0.8,0,1.3,0,1.7,0.1c0.6,0.1,1,0.3,1.4,0.5c0.4,0.3,0.7,0.6,0.9,1.1c0.2,0.5,0.3,1,0.3,1.6
			c0,1-0.3,1.8-0.9,2.5c-0.6,0.7-1.7,1-3.4,1h-2.9v4.7H514.1z M515.6,184h3c1,0,1.7-0.2,2.1-0.5c0.4-0.4,0.6-0.9,0.6-1.5
			c0-0.5-0.1-0.9-0.4-1.2c-0.2-0.3-0.6-0.6-1-0.7c-0.3-0.1-0.7-0.1-1.4-0.1h-2.9V184z"/>
		<path d="M525,190v-11.5h1.5V190H525z"/>
		<path d="M529.9,193.4h-1c1.6-2.5,2.3-5,2.3-7.5c0-1-0.1-2-0.3-2.9c-0.2-0.8-0.4-1.5-0.7-2.2c-0.2-0.5-0.6-1.2-1.3-2.3h1
			c1,1.3,1.7,2.6,2.2,3.9c0.4,1.1,0.6,2.3,0.6,3.6c0,1.4-0.3,2.8-0.8,4.1S530.7,192.4,529.9,193.4z"/>
	</g>
	<path d="M507.4,105.1c-1.4,0-2.5-1.1-2.5-2.5c0-1.4,1.1-2.5,2.5-2.5c1.4,0,2.5,1.1,2.5,2.5C509.9,104,508.8,105.1,507.4,105.1z
		 M495.1,105.3H461V100h34.2V105.3z M511.9,93.9h-54.2c-1.5,0-2.7,1.2-2.7,2.7v11.9c0,1.5,1.2,2.7,2.7,2.7h54.2
		c1.5,0,2.7-1.2,2.7-2.7V96.7C514.6,95.2,513.4,93.9,511.9,93.9z M507.4,145.3c-1.4,0-2.5-1.1-2.5-2.5c0-1.4,1.1-2.5,2.5-2.5
		c1.4,0,2.5,1.1,2.5,2.5C509.9,144.2,508.8,145.3,507.4,145.3z M495.1,145.5H461v-5.3h34.2V145.5z M511.9,134.1h-54.2
		c-1.5,0-2.7,1.2-2.7,2.7v11.9c0,1.5,1.2,2.7,2.7,2.7h54.2c1.5,0,2.7-1.2,2.7-2.7v-11.9C514.6,135.4,513.4,134.1,511.9,134.1z
		 M507.4,125.4c-1.4,0-2.5-1.1-2.5-2.5c0-1.4,1.1-2.5,2.5-2.5c1.4,0,2.5,1.1,2.5,2.5C509.9,124.3,508.8,125.4,507.4,125.4z
		 M495.1,125.6H461v-5.3h34.2V125.6z M511.9,114.2h-54.2c-1.5,0-2.7,1.2-2.7,2.7v11.9c0,1.5,1.2,2.7,2.7,2.7h54.2
		c1.5,0,2.7-1.2,2.7-2.7V117C514.6,115.5,513.4,114.2,511.9,114.2z"/>
	<g>
		<path d="M89.3,262c-1.3,0.6-2.9-0.1-3.4-1.4c-0.6-1.3,0.1-2.9,1.4-3.4c1.3-0.6,2.9,0.1,3.4,1.4C91.2,259.9,90.6,261.4,89.3,262z
			 M93.3,256l-0.9,0.4c-0.3-0.4-0.7-0.7-1-1l0.4-0.9c0.1-0.3,0-0.6-0.3-0.7l-1.5-0.6c-0.3-0.1-0.6,0-0.7,0.3l-0.4,0.9
			c-0.5-0.1-1-0.1-1.5,0l-0.4-0.9c-0.1-0.3-0.4-0.4-0.7-0.3l-1.5,0.6c-0.3,0.1-0.4,0.4-0.3,0.7l0.4,0.9c-0.4,0.3-0.7,0.7-1,1
			l-0.9-0.4c-0.3-0.1-0.6,0-0.7,0.3l-0.6,1.5c-0.1,0.3,0,0.6,0.3,0.7l0.9,0.4c-0.1,0.5-0.1,1,0,1.5l-0.9,0.4
			c-0.3,0.1-0.4,0.4-0.3,0.7l0.6,1.5c0.1,0.3,0.4,0.4,0.7,0.3l0.9-0.4c0.3,0.4,0.7,0.7,1,1l-0.4,0.9c-0.1,0.3,0,0.6,0.3,0.7l1.5,0.6
			c0.3,0.1,0.6,0,0.7-0.3l0.4-0.9c0.5,0.1,1,0.1,1.5,0l0.4,0.9c0.1,0.3,0.4,0.4,0.7,0.3l1.5-0.6c0.3-0.1,0.4-0.4,0.3-0.7l-0.4-0.9
			c0.4-0.3,0.7-0.7,1-1l0.9,0.4c0.3,0.1,0.6,0,0.7-0.3l0.6-1.5c0.1-0.3,0-0.6-0.3-0.7l-0.9-0.4c0.1-0.5,0.1-1,0-1.5l0.9-0.4
			c0.3-0.1,0.4-0.4,0.3-0.7l-0.6-1.5C93.9,256,93.6,255.9,93.3,256z"/>
		<path d="M77.1,284c-1,0-1.8-0.8-1.8-1.8c0-1,0.8-1.8,1.8-1.8c1,0,1.8,0.8,1.8,1.8C78.9,283.2,78.1,284,77.1,284z M75.5,246.1H79
			c0.2,0,0.4,0.2,0.4,0.4c0,0.2-0.2,0.4-0.4,0.4h-3.5c-0.2,0-0.4-0.2-0.4-0.4C75.1,246.3,75.3,246.1,75.5,246.1z M86.9,267.4V279
			H67.6v-29.4h19.3v2.1h2.2v-6.1c0-1.9-1.6-3.5-3.5-3.5H68.9c-1.9,0-3.5,1.6-3.5,3.5v36.9c0,1.9,1.6,3.5,3.5,3.5h16.7
			c1.9,0,3.5-1.6,3.5-3.5v-15.2H86.9z"/>
		<rect x="52.7" y="253.3" width="10.5" height="2.2"/>
		<rect x="55.3" y="257.7" width="7.9" height="2.2"/>
		<rect x="60.6" y="262.1" width="2.6" height="2.2"/>
	</g>
	<g>
		<path d="M60.6,310.1l4.4-11.5h1.6l4.7,11.5h-1.7l-1.3-3.5h-4.8l-1.3,3.5H60.6z M63.9,305.4h3.9l-1.2-3.2c-0.4-1-0.6-1.8-0.8-2.4
			c-0.1,0.7-0.4,1.5-0.6,2.2L63.9,305.4z"/>
		<path d="M72.3,313.3v-11.5h1.3v1.1c0.3-0.4,0.6-0.7,1-0.9c0.4-0.2,0.8-0.3,1.4-0.3c0.7,0,1.3,0.2,1.9,0.5c0.5,0.4,1,0.9,1.2,1.5
			c0.3,0.7,0.4,1.4,0.4,2.2c0,0.8-0.2,1.6-0.5,2.3s-0.7,1.2-1.3,1.6c-0.6,0.4-1.2,0.5-1.8,0.5c-0.5,0-0.9-0.1-1.3-0.3
			c-0.4-0.2-0.7-0.4-0.9-0.8v4H72.3z M73.6,306c0,1.1,0.2,1.9,0.6,2.4c0.4,0.5,1,0.8,1.6,0.8c0.6,0,1.2-0.3,1.6-0.8
			c0.4-0.5,0.7-1.3,0.7-2.5c0-1.1-0.2-1.8-0.7-2.4c-0.4-0.5-1-0.8-1.6-0.8c-0.6,0-1.1,0.3-1.6,0.8C73.8,304.1,73.6,304.9,73.6,306z"
			/>
		<path d="M81.2,313.3v-11.5h1.3v1.1c0.3-0.4,0.6-0.7,1-0.9c0.4-0.2,0.8-0.3,1.4-0.3c0.7,0,1.3,0.2,1.9,0.5c0.5,0.4,1,0.9,1.2,1.5
			c0.3,0.7,0.4,1.4,0.4,2.2c0,0.8-0.2,1.6-0.5,2.3s-0.7,1.2-1.3,1.6c-0.6,0.4-1.2,0.5-1.8,0.5c-0.5,0-0.9-0.1-1.3-0.3
			c-0.4-0.2-0.7-0.4-0.9-0.8v4H81.2z M82.5,306c0,1.1,0.2,1.9,0.6,2.4c0.4,0.5,1,0.8,1.6,0.8c0.6,0,1.2-0.3,1.6-0.8
			c0.4-0.5,0.7-1.3,0.7-2.5c0-1.1-0.2-1.8-0.7-2.4c-0.4-0.5-1-0.8-1.6-0.8c-0.6,0-1.1,0.3-1.6,0.8C82.7,304.1,82.5,304.9,82.5,306z"
			/>
	</g>
	
		<polyline fill="none" stroke="#A43ABA" stroke-width="3.75" stroke-linecap="round" stroke-linejoin="round" stroke-miterlimit="10" points="
		228.9,154.8 234.1,148.4 238.6,154.8 242.4,148.4 246.3,154.8 250.2,148.4 254.4,154.8 258.7,148.4 262.4,154.8 266.6,148.4 
		270.7,154.8 274.2,148.4 278.6,154.8 282.9,145.4 287.7,154.8 	"/>
	<g>
		<g>
			
				<line fill="none" stroke="#999999" stroke-miterlimit="10" stroke-dasharray="4,4" x1="114.1" y1="283.1" x2="427.6" y2="122.1"/>
			<g>
				<path fill="#999999" d="M432.9,119.4c-2,2.2-4.4,5.4-5.4,8.1l-0.6-5l-3.7-3.4C426,119.7,429.9,119.7,432.9,119.4z"/>
			</g>
		</g>
	</g>
	<g>
		<path d="M246.7,182.1l2.8-8.6l2.8,8.6H246.7z M250.7,169.3c-0.2-0.5-0.6-0.8-1.1-0.8s-1,0.3-1.1,0.8l-6.7,20.7
			c-0.2,0.6,0.1,1.3,0.8,1.5c0.1,0,0.2,0.1,0.4,0.1c0.5,0,1-0.3,1.1-0.8l2-6.3h7.1l2,6.3c0.2,0.6,0.9,1,1.5,0.8
			c0.6-0.2,1-0.9,0.8-1.5L250.7,169.3z"/>
		<path d="M265.8,189.1h-4.9v-17.7h4.3c2,0,3.6,1.6,3.6,3.5c0,2-1.6,3.5-3.6,3.5H263c-0.7,0-1.2,0.5-1.2,1.2c0,0.7,0.5,1.2,1.2,1.2
			h2.9c2.3,0,4.2,1.9,4.2,4.1C270,187.3,268.1,189.1,265.8,189.1z M269.1,179.4c1.2-1.1,2-2.7,2-4.4c0-3.3-2.7-5.9-5.9-5.9h-5.5
			c-0.7,0-1.2,0.5-1.2,1.2v20.1c0,0.7,0.5,1.2,1.2,1.2h6.1c3.6,0,6.5-2.9,6.5-6.5C272.3,182.6,271,180.5,269.1,179.4z"/>
	</g>
	<path fill="#010101" d="M429.4,213.8c0.7,0,1.3,0.3,1.8,0.8c0.5,0.5,0.7,1.1,0.7,1.8c0,1.4-1.1,2.5-2.5,2.5l0,0
		c-1.4,0-2.5-1.2-2.5-2.5C426.9,214.9,428,213.8,429.4,213.8L429.4,213.8z M464.3,213.2h-21.8c-1.3-3.6-4.7-6.1-8.6-6.1h-0.1
		c-5,0-9.1,4.1-9.2,9.1c-0.1,5.1,4,9.2,9.1,9.3h0.1c3.8,0,7.2-2.4,8.6-5.9l0.7,0c0.3,0.4,0.8,1.2,1.3,1.5c0.2,0.1,0.4,0.1,0.7,0.1
		c0.2,0,0.3,0,0.3,0l0.4,0l0-1.6l1.2,0l1.4,1.7l1.8-1.6l1.3,0l1.2-1l1.3,1.1l1.4-0.8l1.4,0.7l1.3,1.6l1.4-1.6l1.3-0.6l1.8,1.6l1.3-1
		l2.7-3.9L464.3,213.2z"/>
	
		<polyline fill="none" stroke="#A43ABA" stroke-width="3.75" stroke-linecap="round" stroke-linejoin="round" stroke-miterlimit="10" points="
		525.2,218.4 530.4,212.1 534.9,218.4 538.7,212.1 542.6,218.4 546.5,212.1 550.7,218.4 555,212.1 558.7,218.4 562.9,212.1 
		567,218.4 570.5,212.1 574.9,218.4 579.2,209.1 584,218.4 	"/>
	<g>
		<path d="M367.4,221.1l2.8-8.6l2.8,8.6H367.4z M371.4,208.3c-0.2-0.5-0.6-0.8-1.1-0.8c-0.5,0-1,0.3-1.1,0.8l-6.7,20.7
			c-0.2,0.6,0.1,1.3,0.8,1.5c0.1,0,0.2,0.1,0.4,0.1c0.5,0,1-0.3,1.1-0.8l2-6.3h7.1l2,6.3c0.2,0.6,0.9,1,1.5,0.8
			c0.6-0.2,1-0.9,0.8-1.5L371.4,208.3z"/>
		<path d="M386.5,228.2h-4.9v-17.7h4.3c2,0,3.6,1.6,3.6,3.5c0,2-1.6,3.5-3.6,3.5h-2.3c-0.7,0-1.2,0.5-1.2,1.2c0,0.7,0.5,1.2,1.2,1.2
			h2.9c2.3,0,4.2,1.9,4.2,4.1C390.7,226.3,388.8,228.2,386.5,228.2z M389.8,218.5c1.2-1.1,2-2.7,2-4.4c0-3.3-2.7-5.9-5.9-5.9h-5.5
			c-0.7,0-1.2,0.5-1.2,1.2v20.1c0,0.7,0.5,1.2,1.2,1.2h6.1c3.6,0,6.5-2.9,6.5-6.5C393,221.7,391.7,219.6,389.8,218.5z"/>
	</g>
	<g>
		<path d="M405.7,224.4v-5.9h-5.8v-2.5h5.8v-5.8h2.5v5.8h5.8v2.5h-5.8v5.9H405.7z"/>
	</g>
	<g>
		<path d="M495.2,215.3h-14.2v-2.5h14.2V215.3z M495.2,221.8h-14.2v-2.5h14.2V221.8z"/>
		<path d="M512.8,215.3h-14.2v-2.5h14.2V215.3z M512.8,221.8h-14.2v-2.5h14.2V221.8z"/>
	</g>
	<g>
		<path d="M434,246.7v-8.6h1.1v4.9l2.5-2.5h1.4l-2.4,2.3l2.6,3.9h-1.3l-2.1-3.2l-0.7,0.7v2.5H434z"/>
		<path d="M444.3,244.7l1.1,0.1c-0.2,0.6-0.5,1.1-1,1.5s-1.1,0.5-1.8,0.5c-0.9,0-1.6-0.3-2.2-0.8s-0.8-1.3-0.8-2.4
			c0-1,0.3-1.9,0.8-2.4s1.2-0.9,2.1-0.9c0.8,0,1.5,0.3,2,0.8s0.8,1.4,0.8,2.4c0,0.1,0,0.2,0,0.3h-4.6c0,0.7,0.2,1.2,0.6,1.6
			s0.8,0.5,1.3,0.5c0.4,0,0.7-0.1,1-0.3S444.1,245.2,444.3,244.7z M440.8,243h3.5c0-0.5-0.2-0.9-0.4-1.2c-0.3-0.4-0.8-0.6-1.3-0.6
			c-0.5,0-0.9,0.2-1.2,0.5S440.8,242.5,440.8,243z"/>
		<path d="M446.6,249.1l-0.1-1c0.2,0.1,0.4,0.1,0.6,0.1c0.2,0,0.4,0,0.6-0.1s0.3-0.2,0.3-0.3c0.1-0.1,0.2-0.4,0.3-0.8
			c0-0.1,0.1-0.1,0.1-0.3l-2.4-6.2h1.1l1.3,3.6c0.2,0.5,0.3,0.9,0.5,1.4c0.1-0.5,0.3-1,0.4-1.4l1.3-3.6h1.1l-2.4,6.3
			c-0.3,0.7-0.5,1.2-0.6,1.4c-0.2,0.3-0.4,0.6-0.6,0.8s-0.5,0.2-0.9,0.2C447.1,249.3,446.9,249.2,446.6,249.1z"/>
	</g>
	<g>
		<path d="M530.1,244.9l1-0.2c0.1,0.4,0.2,0.7,0.5,1s0.6,0.3,1.1,0.3c0.5,0,0.8-0.1,1.1-0.3s0.4-0.4,0.4-0.7c0-0.2-0.1-0.4-0.3-0.6
			c-0.1-0.1-0.5-0.2-1.1-0.4c-0.8-0.2-1.3-0.4-1.6-0.5s-0.5-0.3-0.7-0.6s-0.2-0.5-0.2-0.8c0-0.3,0.1-0.5,0.2-0.8s0.3-0.4,0.5-0.6
			c0.2-0.1,0.4-0.2,0.7-0.3s0.6-0.1,0.9-0.1c0.5,0,0.9,0.1,1.3,0.2s0.6,0.3,0.8,0.6s0.3,0.6,0.4,1l-1,0.1c0-0.3-0.2-0.6-0.4-0.8
			s-0.5-0.3-1-0.3c-0.5,0-0.8,0.1-1,0.2s-0.3,0.3-0.3,0.6c0,0.1,0,0.3,0.1,0.4c0.1,0.1,0.2,0.2,0.4,0.3c0.1,0,0.4,0.1,0.9,0.3
			c0.7,0.2,1.3,0.4,1.6,0.5s0.5,0.3,0.7,0.6s0.3,0.5,0.3,0.9c0,0.4-0.1,0.7-0.3,1s-0.5,0.6-0.9,0.7s-0.8,0.3-1.3,0.3
			c-0.8,0-1.4-0.2-1.8-0.5S530.2,245.5,530.1,244.9z"/>
		<path d="M536.5,239.4v-1.2h1.1v1.2H536.5z M536.5,246.7v-6.2h1.1v6.2H536.5z"/>
		<path d="M539,247.2l1,0.2c0,0.3,0.2,0.5,0.4,0.7c0.3,0.2,0.6,0.3,1.1,0.3c0.5,0,0.9-0.1,1.1-0.3s0.4-0.5,0.5-0.8
			c0.1-0.2,0.1-0.7,0.1-1.4c-0.5,0.5-1,0.8-1.7,0.8c-0.9,0-1.5-0.3-2-0.9s-0.7-1.4-0.7-2.2c0-0.6,0.1-1.1,0.3-1.6s0.5-0.9,0.9-1.2
			s0.9-0.4,1.4-0.4c0.7,0,1.3,0.3,1.8,0.9v-0.8h1v5.4c0,1-0.1,1.7-0.3,2.1s-0.5,0.7-0.9,1s-1,0.4-1.6,0.4c-0.7,0-1.3-0.2-1.8-0.5
			S539,247.9,539,247.2z M539.9,243.5c0,0.8,0.2,1.4,0.5,1.8s0.7,0.6,1.2,0.6c0.5,0,0.9-0.2,1.2-0.6s0.5-1,0.5-1.8
			c0-0.8-0.2-1.3-0.5-1.7s-0.7-0.6-1.2-0.6c-0.5,0-0.9,0.2-1.2,0.6S539.9,242.8,539.9,243.5z"/>
		<path d="M545.9,246.7v-6.2h0.9v0.9c0.5-0.7,1.1-1,2-1c0.4,0,0.7,0.1,1,0.2s0.5,0.3,0.7,0.5s0.3,0.5,0.3,0.8c0,0.2,0.1,0.5,0.1,1
			v3.8h-1.1v-3.8c0-0.4,0-0.8-0.1-1s-0.2-0.4-0.4-0.5s-0.5-0.2-0.7-0.2c-0.4,0-0.8,0.1-1.2,0.4s-0.5,0.8-0.5,1.6v3.4H545.9z"/>
		<path d="M556.6,246c-0.4,0.3-0.8,0.6-1.1,0.7s-0.7,0.2-1.2,0.2c-0.7,0-1.2-0.2-1.6-0.5s-0.6-0.8-0.6-1.3c0-0.3,0.1-0.6,0.2-0.8
			s0.3-0.5,0.5-0.6s0.5-0.3,0.8-0.3c0.2-0.1,0.5-0.1,0.9-0.2c0.9-0.1,1.5-0.2,1.9-0.4c0-0.1,0-0.2,0-0.3c0-0.4-0.1-0.7-0.3-0.9
			c-0.3-0.2-0.7-0.4-1.2-0.4c-0.5,0-0.9,0.1-1.1,0.3s-0.4,0.5-0.5,0.9l-1-0.1c0.1-0.4,0.2-0.8,0.5-1.1s0.5-0.5,0.9-0.6
			s0.9-0.2,1.4-0.2c0.5,0,1,0.1,1.3,0.2s0.6,0.3,0.7,0.5s0.3,0.4,0.3,0.7c0,0.2,0.1,0.5,0.1,1v1.4c0,1,0,1.6,0.1,1.9
			s0.1,0.5,0.3,0.7h-1.1C556.7,246.5,556.6,246.3,556.6,246z M556.5,243.6c-0.4,0.2-1,0.3-1.7,0.4c-0.4,0.1-0.7,0.1-0.9,0.2
			s-0.3,0.2-0.4,0.3s-0.1,0.3-0.1,0.5c0,0.3,0.1,0.5,0.3,0.7s0.5,0.3,0.9,0.3c0.4,0,0.8-0.1,1.1-0.3s0.5-0.4,0.7-0.7
			c0.1-0.2,0.2-0.6,0.2-1.1V243.6z"/>
		<path d="M561.5,245.8l0.2,0.9c-0.3,0.1-0.6,0.1-0.8,0.1c-0.4,0-0.7-0.1-0.9-0.2s-0.4-0.3-0.4-0.5s-0.1-0.6-0.1-1.2v-3.6h-0.8v-0.8
			h0.8V239l1-0.6v2.2h1.1v0.8h-1.1v3.6c0,0.3,0,0.5,0.1,0.6s0.1,0.2,0.2,0.2s0.2,0.1,0.4,0.1C561.2,245.8,561.3,245.8,561.5,245.8z"
			/>
		<path d="M566.6,246.7v-0.9c-0.5,0.7-1.1,1.1-2,1.1c-0.4,0-0.7-0.1-1-0.2s-0.6-0.3-0.7-0.5s-0.3-0.5-0.3-0.8c0-0.2-0.1-0.5-0.1-1
			v-3.9h1.1v3.5c0,0.6,0,0.9,0.1,1.1c0.1,0.3,0.2,0.5,0.4,0.7s0.5,0.2,0.8,0.2s0.6-0.1,0.9-0.2s0.5-0.4,0.6-0.7s0.2-0.7,0.2-1.2
			v-3.3h1.1v6.2H566.6z"/>
		<path d="M569.2,246.7v-6.2h0.9v0.9c0.2-0.4,0.5-0.7,0.7-0.9s0.4-0.2,0.7-0.2c0.4,0,0.7,0.1,1.1,0.3l-0.4,1
			c-0.3-0.2-0.5-0.2-0.8-0.2c-0.2,0-0.4,0.1-0.6,0.2s-0.3,0.3-0.4,0.6c-0.1,0.4-0.2,0.8-0.2,1.2v3.3H569.2z"/>
		<path d="M577.5,244.7l1.1,0.1c-0.2,0.6-0.5,1.1-1,1.5s-1.1,0.5-1.8,0.5c-0.9,0-1.6-0.3-2.2-0.8s-0.8-1.3-0.8-2.4
			c0-1,0.3-1.9,0.8-2.4s1.2-0.9,2.1-0.9c0.8,0,1.5,0.3,2,0.8s0.8,1.4,0.8,2.4c0,0.1,0,0.2,0,0.3h-4.6c0,0.7,0.2,1.2,0.6,1.6
			s0.8,0.5,1.3,0.5c0.4,0,0.7-0.1,1-0.3S577.3,245.2,577.5,244.7z M574,243h3.5c0-0.5-0.2-0.9-0.4-1.2c-0.3-0.4-0.8-0.6-1.3-0.6
			c-0.5,0-0.9,0.2-1.2,0.5S574,242.5,574,243z"/>
	</g>
	<g>
		<path d="M360,246.7v-6.2h0.9v0.9c0.2-0.3,0.5-0.5,0.8-0.7s0.7-0.3,1.1-0.3c0.5,0,0.8,0.1,1.1,0.3s0.5,0.5,0.6,0.8
			c0.5-0.7,1.1-1.1,1.9-1.1c0.6,0,1.1,0.2,1.4,0.5s0.5,0.9,0.5,1.6v4.3h-1v-3.9c0-0.4,0-0.7-0.1-0.9s-0.2-0.3-0.4-0.4
			s-0.4-0.2-0.6-0.2c-0.4,0-0.8,0.1-1.1,0.4s-0.4,0.8-0.4,1.4v3.6h-1.1v-4c0-0.5-0.1-0.8-0.3-1.1s-0.5-0.4-0.8-0.4
			c-0.3,0-0.6,0.1-0.8,0.2s-0.4,0.4-0.5,0.7s-0.2,0.7-0.2,1.3v3.2H360z"/>
		<path d="M374.3,244.7l1.1,0.1c-0.2,0.6-0.5,1.1-1,1.5s-1.1,0.5-1.8,0.5c-0.9,0-1.6-0.3-2.2-0.8s-0.8-1.3-0.8-2.4
			c0-1,0.3-1.9,0.8-2.4s1.2-0.9,2.1-0.9c0.8,0,1.5,0.3,2,0.8s0.8,1.4,0.8,2.4c0,0.1,0,0.2,0,0.3h-4.6c0,0.7,0.2,1.2,0.6,1.6
			s0.8,0.5,1.3,0.5c0.4,0,0.7-0.1,1-0.3S374.1,245.2,374.3,244.7z M370.8,243h3.5c0-0.5-0.2-0.9-0.4-1.2c-0.3-0.4-0.8-0.6-1.3-0.6
			c-0.5,0-0.9,0.2-1.2,0.5S370.8,242.5,370.8,243z"/>
		<path d="M376.3,244.9l1-0.2c0.1,0.4,0.2,0.7,0.5,1s0.6,0.3,1.1,0.3c0.5,0,0.8-0.1,1.1-0.3s0.4-0.4,0.4-0.7c0-0.2-0.1-0.4-0.3-0.6
			c-0.1-0.1-0.5-0.2-1.1-0.4c-0.8-0.2-1.3-0.4-1.6-0.5s-0.5-0.3-0.7-0.6s-0.2-0.5-0.2-0.8c0-0.3,0.1-0.5,0.2-0.8s0.3-0.4,0.5-0.6
			c0.2-0.1,0.4-0.2,0.7-0.3s0.6-0.1,0.9-0.1c0.5,0,0.9,0.1,1.3,0.2s0.6,0.3,0.8,0.6s0.3,0.6,0.4,1l-1,0.1c0-0.3-0.2-0.6-0.4-0.8
			s-0.5-0.3-1-0.3c-0.5,0-0.8,0.1-1,0.2s-0.3,0.3-0.3,0.6c0,0.1,0,0.3,0.1,0.4c0.1,0.1,0.2,0.2,0.4,0.3c0.1,0,0.4,0.1,0.9,0.3
			c0.7,0.2,1.3,0.4,1.6,0.5s0.5,0.3,0.7,0.6s0.3,0.5,0.3,0.9c0,0.4-0.1,0.7-0.3,1s-0.5,0.6-0.9,0.7s-0.8,0.3-1.3,0.3
			c-0.8,0-1.4-0.2-1.8-0.5S376.4,245.5,376.3,244.9z"/>
		<path d="M382.3,244.9l1-0.2c0.1,0.4,0.2,0.7,0.5,1s0.6,0.3,1.1,0.3c0.5,0,0.8-0.1,1.1-0.3s0.4-0.4,0.4-0.7c0-0.2-0.1-0.4-0.3-0.6
			c-0.1-0.1-0.5-0.2-1.1-0.4c-0.8-0.2-1.3-0.4-1.6-0.5s-0.5-0.3-0.7-0.6s-0.2-0.5-0.2-0.8c0-0.3,0.1-0.5,0.2-0.8s0.3-0.4,0.5-0.6
			c0.2-0.1,0.4-0.2,0.7-0.3s0.6-0.1,0.9-0.1c0.5,0,0.9,0.1,1.3,0.2s0.6,0.3,0.8,0.6s0.3,0.6,0.4,1l-1,0.1c0-0.3-0.2-0.6-0.4-0.8
			s-0.5-0.3-1-0.3c-0.5,0-0.8,0.1-1,0.2s-0.3,0.3-0.3,0.6c0,0.1,0,0.3,0.1,0.4c0.1,0.1,0.2,0.2,0.4,0.3c0.1,0,0.4,0.1,0.9,0.3
			c0.7,0.2,1.3,0.4,1.6,0.5s0.5,0.3,0.7,0.6s0.3,0.5,0.3,0.9c0,0.4-0.1,0.7-0.3,1s-0.5,0.6-0.9,0.7s-0.8,0.3-1.3,0.3
			c-0.8,0-1.4-0.2-1.8-0.5S382.4,245.5,382.3,244.9z"/>
		<path d="M392.7,246c-0.4,0.3-0.8,0.6-1.1,0.7s-0.7,0.2-1.2,0.2c-0.7,0-1.2-0.2-1.6-0.5s-0.6-0.8-0.6-1.3c0-0.3,0.1-0.6,0.2-0.8
			s0.3-0.5,0.5-0.6s0.5-0.3,0.8-0.3c0.2-0.1,0.5-0.1,0.9-0.2c0.9-0.1,1.5-0.2,1.9-0.4c0-0.1,0-0.2,0-0.3c0-0.4-0.1-0.7-0.3-0.9
			c-0.3-0.2-0.7-0.4-1.2-0.4c-0.5,0-0.9,0.1-1.1,0.3s-0.4,0.5-0.5,0.9l-1-0.1c0.1-0.4,0.2-0.8,0.5-1.1s0.5-0.5,0.9-0.6
			s0.9-0.2,1.4-0.2c0.5,0,1,0.1,1.3,0.2s0.6,0.3,0.7,0.5s0.3,0.4,0.3,0.7c0,0.2,0.1,0.5,0.1,1v1.4c0,1,0,1.6,0.1,1.9
			s0.1,0.5,0.3,0.7H393C392.8,246.5,392.8,246.3,392.7,246z M392.7,243.6c-0.4,0.2-1,0.3-1.7,0.4c-0.4,0.1-0.7,0.1-0.9,0.2
			s-0.3,0.2-0.4,0.3s-0.1,0.3-0.1,0.5c0,0.3,0.1,0.5,0.3,0.7s0.5,0.3,0.9,0.3c0.4,0,0.8-0.1,1.1-0.3s0.5-0.4,0.7-0.7
			c0.1-0.2,0.2-0.6,0.2-1.1V243.6z"/>
		<path d="M395.2,247.2l1,0.2c0,0.3,0.2,0.5,0.4,0.7c0.3,0.2,0.6,0.3,1.1,0.3c0.5,0,0.9-0.1,1.1-0.3s0.4-0.5,0.5-0.8
			c0.1-0.2,0.1-0.7,0.1-1.4c-0.5,0.5-1,0.8-1.7,0.8c-0.9,0-1.5-0.3-2-0.9s-0.7-1.4-0.7-2.2c0-0.6,0.1-1.1,0.3-1.6s0.5-0.9,0.9-1.2
			s0.9-0.4,1.4-0.4c0.7,0,1.3,0.3,1.8,0.9v-0.8h1v5.4c0,1-0.1,1.7-0.3,2.1s-0.5,0.7-0.9,1s-1,0.4-1.6,0.4c-0.7,0-1.3-0.2-1.8-0.5
			S395.1,247.9,395.2,247.2z M396,243.5c0,0.8,0.2,1.4,0.5,1.8s0.7,0.6,1.2,0.6c0.5,0,0.9-0.2,1.2-0.6s0.5-1,0.5-1.8
			c0-0.8-0.2-1.3-0.5-1.7s-0.7-0.6-1.2-0.6c-0.5,0-0.9,0.2-1.2,0.6S396,242.8,396,243.5z"/>
		<path d="M406.3,244.7l1.1,0.1c-0.2,0.6-0.5,1.1-1,1.5s-1.1,0.5-1.8,0.5c-0.9,0-1.6-0.3-2.2-0.8s-0.8-1.3-0.8-2.4
			c0-1,0.3-1.9,0.8-2.4s1.2-0.9,2.1-0.9c0.8,0,1.5,0.3,2,0.8s0.8,1.4,0.8,2.4c0,0.1,0,0.2,0,0.3h-4.6c0,0.7,0.2,1.2,0.6,1.6
			s0.8,0.5,1.3,0.5c0.4,0,0.7-0.1,1-0.3S406.1,245.2,406.3,244.7z M402.8,243h3.5c0-0.5-0.2-0.9-0.4-1.2c-0.3-0.4-0.8-0.6-1.3-0.6
			c-0.5,0-0.9,0.2-1.2,0.5S402.9,242.5,402.8,243z"/>
	</g>
	<path fill="#010101" d="M83.2,329.2c0.7,0,1.3,0.3,1.8,0.8c0.5,0.5,0.7,1.1,0.7,1.8c0,1.4-1.1,2.5-2.5,2.5l0,0
		c-1.4,0-2.5-1.2-2.5-2.5C80.7,330.3,81.8,329.2,83.2,329.2L83.2,329.2z M118,328.7H96.3c-1.3-3.6-4.7-6.1-8.6-6.1h-0.1
		c-5,0-9.1,4.1-9.2,9.1c-0.1,5.1,4,9.2,9.1,9.3h0.1c3.8,0,7.2-2.4,8.6-5.9l0.7,0c0.3,0.4,0.8,1.2,1.3,1.5c0.2,0.1,0.4,0.1,0.7,0.1
		c0.2,0,0.3,0,0.3,0l0.4,0l0-1.6l1.2,0l1.4,1.7l1.8-1.6l1.3,0l1.2-1l1.3,1.1l1.4-0.8l1.4,0.7l1.3,1.6l1.4-1.6l1.3-0.6l1.8,1.6l1.3-1
		l2.7-3.9L118,328.7z"/>
	
		<polyline fill="none" stroke="#A43ABA" stroke-width="3.75" stroke-linecap="round" stroke-linejoin="round" stroke-miterlimit="10" points="
		178.9,333.8 184.2,327.5 188.7,333.8 192.4,327.5 196.4,333.8 200.3,327.5 204.4,333.8 208.7,327.5 212.5,333.8 216.6,327.5 
		220.7,333.8 224.3,327.5 228.6,333.8 232.9,324.5 237.8,333.8 	"/>
	<g>
		<path d="M21.2,336.5L24,328l2.8,8.6H21.2z M25.1,323.8c-0.2-0.5-0.6-0.8-1.1-0.8s-1,0.3-1.1,0.8l-6.7,20.7
			c-0.2,0.6,0.1,1.3,0.8,1.5c0.1,0,0.2,0.1,0.4,0.1c0.5,0,1-0.3,1.1-0.8l2-6.3h7.1l2,6.3c0.2,0.6,0.9,1,1.5,0.8
			c0.6-0.2,1-0.9,0.8-1.5L25.1,323.8z"/>
		<path d="M40.3,343.6h-4.9v-17.7h4.3c2,0,3.6,1.6,3.6,3.5c0,2-1.6,3.5-3.6,3.5h-2.3c-0.7,0-1.2,0.5-1.2,1.2c0,0.7,0.5,1.2,1.2,1.2
			h2.9c2.3,0,4.2,1.9,4.2,4.1C44.4,341.8,42.6,343.6,40.3,343.6z M43.6,333.9c1.2-1.1,2-2.7,2-4.4c0-3.3-2.7-5.9-5.9-5.9h-5.5
			c-0.7,0-1.2,0.5-1.2,1.2v20.1c0,0.7,0.5,1.2,1.2,1.2h6.1c3.6,0,6.5-2.9,6.5-6.5C46.8,337.1,45.5,335,43.6,333.9z"/>
	</g>
	<g>
		<path d="M59.5,339.8v-5.9h-5.8v-2.5h5.8v-5.8H62v5.8h5.8v2.5H62v5.9H59.5z"/>
	</g>
	<g>
		<path d="M149,330.7h-14.2v-2.5H149V330.7z M149,337.2h-14.2v-2.5H149V337.2z"/>
		<path d="M166.5,330.7h-14.2v-2.5h14.2V330.7z M166.5,337.2h-14.2v-2.5h14.2V337.2z"/>
	</g>
	<g>
		<path d="M87.8,362.2v-8.6h1.1v4.9l2.5-2.5h1.4l-2.4,2.3l2.6,3.9h-1.3l-2.1-3.2l-0.7,0.7v2.5H87.8z"/>
		<path d="M98,360.1l1.1,0.1c-0.2,0.6-0.5,1.1-1,1.5s-1.1,0.5-1.8,0.5c-0.9,0-1.6-0.3-2.2-0.8s-0.8-1.3-0.8-2.4c0-1,0.3-1.9,0.8-2.4
			s1.2-0.9,2.1-0.9c0.8,0,1.5,0.3,2,0.8s0.8,1.4,0.8,2.4c0,0.1,0,0.2,0,0.3h-4.6c0,0.7,0.2,1.2,0.6,1.6s0.8,0.5,1.3,0.5
			c0.4,0,0.7-0.1,1-0.3S97.9,360.6,98,360.1z M94.6,358.4H98c0-0.5-0.2-0.9-0.4-1.2c-0.3-0.4-0.8-0.6-1.3-0.6
			c-0.5,0-0.9,0.2-1.2,0.5S94.6,357.9,94.6,358.4z"/>
		<path d="M100.4,364.5l-0.1-1c0.2,0.1,0.4,0.1,0.6,0.1c0.2,0,0.4,0,0.6-0.1s0.3-0.2,0.3-0.3c0.1-0.1,0.2-0.4,0.3-0.8
			c0-0.1,0.1-0.1,0.1-0.3l-2.4-6.2h1.1l1.3,3.6c0.2,0.5,0.3,0.9,0.5,1.4c0.1-0.5,0.3-1,0.4-1.4l1.3-3.6h1.1l-2.4,6.3
			c-0.3,0.7-0.5,1.2-0.6,1.4c-0.2,0.3-0.4,0.6-0.6,0.8s-0.5,0.2-0.9,0.2C100.9,364.7,100.7,364.6,100.4,364.5z"/>
	</g>
	<g>
		<path d="M183.9,360.3l1-0.2c0.1,0.4,0.2,0.7,0.5,1s0.6,0.3,1.1,0.3c0.5,0,0.8-0.1,1.1-0.3s0.4-0.4,0.4-0.7c0-0.2-0.1-0.4-0.3-0.6
			c-0.1-0.1-0.5-0.2-1.1-0.4c-0.8-0.2-1.3-0.4-1.6-0.5s-0.5-0.3-0.7-0.6s-0.2-0.5-0.2-0.8c0-0.3,0.1-0.5,0.2-0.8s0.3-0.4,0.5-0.6
			c0.2-0.1,0.4-0.2,0.7-0.3s0.6-0.1,0.9-0.1c0.5,0,0.9,0.1,1.3,0.2s0.6,0.3,0.8,0.6s0.3,0.6,0.4,1l-1,0.1c0-0.3-0.2-0.6-0.4-0.8
			s-0.5-0.3-1-0.3c-0.5,0-0.8,0.1-1,0.2s-0.3,0.3-0.3,0.6c0,0.1,0,0.3,0.1,0.4c0.1,0.1,0.2,0.2,0.4,0.3c0.1,0,0.4,0.1,0.9,0.3
			c0.7,0.2,1.3,0.4,1.6,0.5s0.5,0.3,0.7,0.6s0.3,0.5,0.3,0.9c0,0.4-0.1,0.7-0.3,1s-0.5,0.6-0.9,0.7s-0.8,0.3-1.3,0.3
			c-0.8,0-1.4-0.2-1.8-0.5S184,361,183.9,360.3z"/>
		<path d="M190.3,354.8v-1.2h1.1v1.2H190.3z M190.3,362.2v-6.2h1.1v6.2H190.3z"/>
		<path d="M192.7,362.7l1,0.2c0,0.3,0.2,0.5,0.4,0.7c0.3,0.2,0.6,0.3,1.1,0.3c0.5,0,0.9-0.1,1.1-0.3s0.4-0.5,0.5-0.8
			c0.1-0.2,0.1-0.7,0.1-1.4c-0.5,0.5-1,0.8-1.7,0.8c-0.9,0-1.5-0.3-2-0.9s-0.7-1.4-0.7-2.2c0-0.6,0.1-1.1,0.3-1.6s0.5-0.9,0.9-1.2
			s0.9-0.4,1.4-0.4c0.7,0,1.3,0.3,1.8,0.9v-0.8h1v5.4c0,1-0.1,1.7-0.3,2.1s-0.5,0.7-0.9,1s-1,0.4-1.6,0.4c-0.7,0-1.3-0.2-1.8-0.5
			S192.7,363.3,192.7,362.7z M193.6,358.9c0,0.8,0.2,1.4,0.5,1.8s0.7,0.6,1.2,0.6c0.5,0,0.9-0.2,1.2-0.6s0.5-1,0.5-1.8
			c0-0.8-0.2-1.3-0.5-1.7s-0.7-0.6-1.2-0.6c-0.5,0-0.9,0.2-1.2,0.6S193.6,358.2,193.6,358.9z"/>
		<path d="M199.6,362.2v-6.2h0.9v0.9c0.5-0.7,1.1-1,2-1c0.4,0,0.7,0.1,1,0.2s0.5,0.3,0.7,0.5s0.3,0.5,0.3,0.8c0,0.2,0.1,0.5,0.1,1
			v3.8h-1.1v-3.8c0-0.4,0-0.8-0.1-1s-0.2-0.4-0.4-0.5s-0.5-0.2-0.7-0.2c-0.4,0-0.8,0.1-1.2,0.4s-0.5,0.8-0.5,1.6v3.4H199.6z"/>
		<path d="M210.3,361.4c-0.4,0.3-0.8,0.6-1.1,0.7s-0.7,0.2-1.2,0.2c-0.7,0-1.2-0.2-1.6-0.5s-0.6-0.8-0.6-1.3c0-0.3,0.1-0.6,0.2-0.8
			s0.3-0.5,0.5-0.6s0.5-0.3,0.8-0.3c0.2-0.1,0.5-0.1,0.9-0.2c0.9-0.1,1.5-0.2,1.9-0.4c0-0.1,0-0.2,0-0.3c0-0.4-0.1-0.7-0.3-0.9
			c-0.3-0.2-0.7-0.4-1.2-0.4c-0.5,0-0.9,0.1-1.1,0.3s-0.4,0.5-0.5,0.9l-1-0.1c0.1-0.4,0.2-0.8,0.5-1.1s0.5-0.5,0.9-0.6
			s0.9-0.2,1.4-0.2c0.5,0,1,0.1,1.3,0.2s0.6,0.3,0.7,0.5s0.3,0.4,0.3,0.7c0,0.2,0.1,0.5,0.1,1v1.4c0,1,0,1.6,0.1,1.9
			s0.1,0.5,0.3,0.7h-1.1C210.5,361.9,210.4,361.7,210.3,361.4z M210.3,359c-0.4,0.2-1,0.3-1.7,0.4c-0.4,0.1-0.7,0.1-0.9,0.2
			s-0.3,0.2-0.4,0.3s-0.1,0.3-0.1,0.5c0,0.3,0.1,0.5,0.3,0.7s0.5,0.3,0.9,0.3c0.4,0,0.8-0.1,1.1-0.3s0.5-0.4,0.7-0.7
			c0.1-0.2,0.2-0.6,0.2-1.1V359z"/>
		<path d="M215.3,361.2l0.2,0.9c-0.3,0.1-0.6,0.1-0.8,0.1c-0.4,0-0.7-0.1-0.9-0.2s-0.4-0.3-0.4-0.5s-0.1-0.6-0.1-1.2v-3.6h-0.8v-0.8
			h0.8v-1.5l1-0.6v2.2h1.1v0.8h-1.1v3.6c0,0.3,0,0.5,0.1,0.6s0.1,0.2,0.2,0.2s0.2,0.1,0.4,0.1C214.9,361.2,215.1,361.2,215.3,361.2z
			"/>
		<path d="M220.4,362.2v-0.9c-0.5,0.7-1.1,1.1-2,1.1c-0.4,0-0.7-0.1-1-0.2s-0.6-0.3-0.7-0.5s-0.3-0.5-0.3-0.8c0-0.2-0.1-0.5-0.1-1
			v-3.9h1.1v3.5c0,0.6,0,0.9,0.1,1.1c0.1,0.3,0.2,0.5,0.4,0.7s0.5,0.2,0.8,0.2s0.6-0.1,0.9-0.2s0.5-0.4,0.6-0.7s0.2-0.7,0.2-1.2
			v-3.3h1.1v6.2H220.4z"/>
		<path d="M223,362.2v-6.2h0.9v0.9c0.2-0.4,0.5-0.7,0.7-0.9s0.4-0.2,0.7-0.2c0.4,0,0.7,0.1,1.1,0.3l-0.4,1c-0.3-0.2-0.5-0.2-0.8-0.2
			c-0.2,0-0.4,0.1-0.6,0.2s-0.3,0.3-0.4,0.6c-0.1,0.4-0.2,0.8-0.2,1.2v3.3H223z"/>
		<path d="M231.2,360.1l1.1,0.1c-0.2,0.6-0.5,1.1-1,1.5s-1.1,0.5-1.8,0.5c-0.9,0-1.6-0.3-2.2-0.8s-0.8-1.3-0.8-2.4
			c0-1,0.3-1.9,0.8-2.4s1.2-0.9,2.1-0.9c0.8,0,1.5,0.3,2,0.8s0.8,1.4,0.8,2.4c0,0.1,0,0.2,0,0.3h-4.6c0,0.7,0.2,1.2,0.6,1.6
			s0.8,0.5,1.3,0.5c0.4,0,0.7-0.1,1-0.3S231.1,360.6,231.2,360.1z M227.8,358.4h3.5c0-0.5-0.2-0.9-0.4-1.2c-0.3-0.4-0.8-0.6-1.3-0.6
			c-0.5,0-0.9,0.2-1.2,0.5S227.8,357.9,227.8,358.4z"/>
	</g>
	<g>
		<path d="M13.8,362.2v-6.2h0.9v0.9c0.2-0.3,0.5-0.5,0.8-0.7s0.7-0.3,1.1-0.3c0.5,0,0.8,0.1,1.1,0.3s0.5,0.5,0.6,0.8
			c0.5-0.7,1.1-1.1,1.9-1.1c0.6,0,1.1,0.2,1.4,0.5s0.5,0.9,0.5,1.6v4.3h-1v-3.9c0-0.4,0-0.7-0.1-0.9s-0.2-0.3-0.4-0.4
			s-0.4-0.2-0.6-0.2c-0.4,0-0.8,0.1-1.1,0.4s-0.4,0.8-0.4,1.4v3.6h-1.1v-4c0-0.5-0.1-0.8-0.3-1.1s-0.5-0.4-0.8-0.4
			c-0.3,0-0.6,0.1-0.8,0.2s-0.4,0.4-0.5,0.7s-0.2,0.7-0.2,1.3v3.2H13.8z"/>
		<path d="M28,360.1l1.1,0.1c-0.2,0.6-0.5,1.1-1,1.5s-1.1,0.5-1.8,0.5c-0.9,0-1.6-0.3-2.2-0.8s-0.8-1.3-0.8-2.4c0-1,0.3-1.9,0.8-2.4
			s1.2-0.9,2.1-0.9c0.8,0,1.5,0.3,2,0.8s0.8,1.4,0.8,2.4c0,0.1,0,0.2,0,0.3h-4.6c0,0.7,0.2,1.2,0.6,1.6s0.8,0.5,1.3,0.5
			c0.4,0,0.7-0.1,1-0.3S27.9,360.6,28,360.1z M24.6,358.4H28c0-0.5-0.2-0.9-0.4-1.2c-0.3-0.4-0.8-0.6-1.3-0.6
			c-0.5,0-0.9,0.2-1.2,0.5S24.6,357.9,24.6,358.4z"/>
		<path d="M30,360.3l1-0.2c0.1,0.4,0.2,0.7,0.5,1s0.6,0.3,1.1,0.3c0.5,0,0.8-0.1,1.1-0.3s0.4-0.4,0.4-0.7c0-0.2-0.1-0.4-0.3-0.6
			c-0.1-0.1-0.5-0.2-1.1-0.4c-0.8-0.2-1.3-0.4-1.6-0.5s-0.5-0.3-0.7-0.6s-0.2-0.5-0.2-0.8c0-0.3,0.1-0.5,0.2-0.8s0.3-0.4,0.5-0.6
			c0.2-0.1,0.4-0.2,0.7-0.3s0.6-0.1,0.9-0.1c0.5,0,0.9,0.1,1.3,0.2s0.6,0.3,0.8,0.6s0.3,0.6,0.4,1l-1,0.1c0-0.3-0.2-0.6-0.4-0.8
			s-0.5-0.3-1-0.3c-0.5,0-0.8,0.1-1,0.2s-0.3,0.3-0.3,0.6c0,0.1,0,0.3,0.1,0.4c0.1,0.1,0.2,0.2,0.4,0.3c0.1,0,0.4,0.1,0.9,0.3
			c0.7,0.2,1.3,0.4,1.6,0.5s0.5,0.3,0.7,0.6s0.3,0.5,0.3,0.9c0,0.4-0.1,0.7-0.3,1s-0.5,0.6-0.9,0.7s-0.8,0.3-1.3,0.3
			c-0.8,0-1.4-0.2-1.8-0.5S30.1,361,30,360.3z"/>
		<path d="M36,360.3l1-0.2c0.1,0.4,0.2,0.7,0.5,1s0.6,0.3,1.1,0.3c0.5,0,0.8-0.1,1.1-0.3s0.4-0.4,0.4-0.7c0-0.2-0.1-0.4-0.3-0.6
			c-0.1-0.1-0.5-0.2-1.1-0.4c-0.8-0.2-1.3-0.4-1.6-0.5s-0.5-0.3-0.7-0.6s-0.2-0.5-0.2-0.8c0-0.3,0.1-0.5,0.2-0.8s0.3-0.4,0.5-0.6
			c0.2-0.1,0.4-0.2,0.7-0.3s0.6-0.1,0.9-0.1c0.5,0,0.9,0.1,1.3,0.2s0.6,0.3,0.8,0.6s0.3,0.6,0.4,1l-1,0.1c0-0.3-0.2-0.6-0.4-0.8
			s-0.5-0.3-1-0.3c-0.5,0-0.8,0.1-1,0.2s-0.3,0.3-0.3,0.6c0,0.1,0,0.3,0.1,0.4c0.1,0.1,0.2,0.2,0.4,0.3c0.1,0,0.4,0.1,0.9,0.3
			c0.7,0.2,1.3,0.4,1.6,0.5s0.5,0.3,0.7,0.6s0.3,0.5,0.3,0.9c0,0.4-0.1,0.7-0.3,1s-0.5,0.6-0.9,0.7s-0.8,0.3-1.3,0.3
			c-0.8,0-1.4-0.2-1.8-0.5S36.1,361,36,360.3z"/>
		<path d="M46.5,361.4c-0.4,0.3-0.8,0.6-1.1,0.7s-0.7,0.2-1.2,0.2c-0.7,0-1.2-0.2-1.6-0.5s-0.6-0.8-0.6-1.3c0-0.3,0.1-0.6,0.2-0.8
			s0.3-0.5,0.5-0.6s0.5-0.3,0.8-0.3c0.2-0.1,0.5-0.1,0.9-0.2c0.9-0.1,1.5-0.2,1.9-0.4c0-0.1,0-0.2,0-0.3c0-0.4-0.1-0.7-0.3-0.9
			c-0.3-0.2-0.7-0.4-1.2-0.4c-0.5,0-0.9,0.1-1.1,0.3s-0.4,0.5-0.5,0.9l-1-0.1c0.1-0.4,0.2-0.8,0.5-1.1s0.5-0.5,0.9-0.6
			s0.9-0.2,1.4-0.2c0.5,0,1,0.1,1.3,0.2s0.6,0.3,0.7,0.5s0.3,0.4,0.3,0.7c0,0.2,0.1,0.5,0.1,1v1.4c0,1,0,1.6,0.1,1.9
			s0.1,0.5,0.3,0.7h-1.1C46.6,361.9,46.5,361.7,46.5,361.4z M46.4,359c-0.4,0.2-1,0.3-1.7,0.4c-0.4,0.1-0.7,0.1-0.9,0.2
			s-0.3,0.2-0.4,0.3s-0.1,0.3-0.1,0.5c0,0.3,0.1,0.5,0.3,0.7s0.5,0.3,0.9,0.3c0.4,0,0.8-0.1,1.1-0.3s0.5-0.4,0.7-0.7
			c0.1-0.2,0.2-0.6,0.2-1.1V359z"/>
		<path d="M48.9,362.7l1,0.2c0,0.3,0.2,0.5,0.4,0.7c0.3,0.2,0.6,0.3,1.1,0.3c0.5,0,0.9-0.1,1.1-0.3s0.4-0.5,0.5-0.8
			c0.1-0.2,0.1-0.7,0.1-1.4c-0.5,0.5-1,0.8-1.7,0.8c-0.9,0-1.5-0.3-2-0.9s-0.7-1.4-0.7-2.2c0-0.6,0.1-1.1,0.3-1.6s0.5-0.9,0.9-1.2
			s0.9-0.4,1.4-0.4c0.7,0,1.3,0.3,1.8,0.9v-0.8h1v5.4c0,1-0.1,1.7-0.3,2.1s-0.5,0.7-0.9,1s-1,0.4-1.6,0.4c-0.7,0-1.3-0.2-1.8-0.5
			S48.9,363.3,48.9,362.7z M49.8,358.9c0,0.8,0.2,1.4,0.5,1.8s0.7,0.6,1.2,0.6c0.5,0,0.9-0.2,1.2-0.6s0.5-1,0.5-1.8
			c0-0.8-0.2-1.3-0.5-1.7s-0.7-0.6-1.2-0.6c-0.5,0-0.9,0.2-1.2,0.6S49.8,358.2,49.8,358.9z"/>
		<path d="M60.1,360.1l1.1,0.1c-0.2,0.6-0.5,1.1-1,1.5s-1.1,0.5-1.8,0.5c-0.9,0-1.6-0.3-2.2-0.8s-0.8-1.3-0.8-2.4
			c0-1,0.3-1.9,0.8-2.4s1.2-0.9,2.1-0.9c0.8,0,1.5,0.3,2,0.8s0.8,1.4,0.8,2.4c0,0.1,0,0.2,0,0.3h-4.6c0,0.7,0.2,1.2,0.6,1.6
			s0.8,0.5,1.3,0.5c0.4,0,0.7-0.1,1-0.3S59.9,360.6,60.1,360.1z M56.6,358.4h3.5c0-0.5-0.2-0.9-0.4-1.2c-0.3-0.4-0.8-0.6-1.3-0.6
			c-0.5,0-0.9,0.2-1.2,0.5S56.6,357.9,56.6,358.4z"/>
	</g>
</g>
</svg>
