<?xml version="1.0" encoding="utf-8"?>
<!-- Generator: Adobe Illustrator 17.1.0, SVG Export Plug-In . SVG Version: 6.00 Build 0)  -->
<!DOCTYPE svg PUBLIC "-//W3C//DTD SVG 1.1//EN" "http://www.w3.org/Graphics/SVG/1.1/DTD/svg11.dtd">
<svg version="1.1" xmlns="http://www.w3.org/2000/svg" xmlns:xlink="http://www.w3.org/1999/xlink" x="0px" y="0px"
	 viewBox="0 0 244.5 39.4" enable-background="new 0 0 244.5 39.4" xml:space="preserve">
<g id="www_1_">
</g>
<g id="restapi">
	<g>
		<path d="M43.1,11.7H48v17.4h8.5v4.1H43.1V11.7z"/>
		<path d="M66.1,16.5c4.7,0,7,3.4,7,7.9c0,0.9-0.1,1.6-0.2,2H63c0.4,2.5,2.1,3.6,4.3,3.6c1.2,0,2.3-0.4,3.5-1.1l1.6,2.9
			c-1.7,1.2-3.9,1.8-5.8,1.8c-4.7,0-8.3-3.2-8.3-8.6C58.4,19.7,62.2,16.5,66.1,16.5z M68.9,23.4c0-1.9-0.8-3.2-2.7-3.2
			c-1.5,0-2.8,1-3.2,3.2H68.9z"/>
		<path d="M84.7,22.7c-0.1-1.5-0.8-2.4-2.6-2.4c-1.4,0-2.8,0.6-4.4,1.5L76,18.6c2.1-1.3,4.4-2.1,7-2.1c4.2,0,6.5,2.4,6.5,7.4v9.4h-4
			l-0.4-1.7h-0.1c-1.4,1.2-2.9,2.1-4.8,2.1c-3,0-4.9-2.2-4.9-5C75.5,25.2,78.2,23.4,84.7,22.7z M82,29.9c1.1,0,1.8-0.5,2.7-1.4v-2.9
			c-3.5,0.5-4.6,1.5-4.6,2.7C80.1,29.4,80.8,29.9,82,29.9z"/>
		<path d="M93.7,16.9h4l0.3,2.9h0.1c1.2-2.2,3-3.3,4.7-3.3c0.9,0,1.5,0.1,1.9,0.3l-0.8,4.2c-0.6-0.2-1.1-0.3-1.8-0.3
			c-1.2,0-2.7,0.8-3.6,3v9.5h-4.9V16.9z"/>
		<path d="M106.8,16.9h4l0.3,2.1h0.1c1.4-1.3,3-2.5,5.2-2.5c3.6,0,5.1,2.5,5.1,6.6v10.2h-4.9v-9.5c0-2.4-0.6-3.1-2-3.1
			c-1.2,0-2,0.6-3,1.6v11.1h-4.9V16.9z"/>
		<path d="M143,28.1h-6.6l-1.3,5.1h-5l6.8-21.5h5.8l6.8,21.5h-5.1L143,28.1z M142,24.3l-0.5-2c-0.6-2.1-1.2-4.7-1.8-6.9h-0.1
			c-0.5,2.3-1.1,4.8-1.7,6.9l-0.5,2H142z"/>
		<path d="M151.8,11.7h7.9c4.7,0,8.4,1.7,8.4,6.9c0,5-3.9,7.3-8.4,7.3h-3v7.3h-4.9V11.7z M159.3,22.1c2.7,0,4-1.2,4-3.4
			c0-2.2-1.4-3.1-4-3.1h-2.7v6.5H159.3z"/>
		<path d="M171.7,11.7h4.9v21.5h-4.9V11.7z"/>
		<path d="M188.5,11.7h6.1c6.6,0,10.8,3.3,10.8,10.7s-4.2,10.9-10.5,10.9h-6.4V11.7z M194.3,29.3c3.6,0,6.1-1.8,6.1-6.9
			c0-5.1-2.5-6.7-6.1-6.7h-0.9v13.7H194.3z"/>
		<path d="M216.1,16.5c4.1,0,8,3.1,8,8.6s-3.8,8.6-8,8.6c-4.2,0-8-3.1-8-8.6S211.9,16.5,216.1,16.5z M216.1,29.7c2,0,3-1.8,3-4.7
			s-1-4.7-3-4.7c-2,0-3,1.8-3,4.7S214.1,29.7,216.1,29.7z"/>
		<path d="M234.9,16.5c2,0,3.7,0.8,4.8,1.9l-2.2,3c-0.8-0.7-1.5-1-2.3-1c-2.3,0-3.8,1.8-3.8,4.7s1.6,4.7,3.7,4.7
			c1.2,0,2.1-0.6,2.9-1.2l1.9,3.1c-1.6,1.4-3.7,2-5.4,2c-4.6,0-8.1-3.1-8.1-8.6S230.4,16.5,234.9,16.5z"/>
	</g>
	<path fill="#FF970A" d="M27.9,9.5c-0.6,0-1-0.5-1-1s0.5-1,1-1c0.6,0,1,0.5,1,1S28.5,9.5,27.9,9.5z M24.1,9.5c-0.6,0-1-0.5-1-1
		s0.5-1,1-1c0.6,0,1,0.5,1,1S24.7,9.5,24.1,9.5z M20.4,9.5c-0.6,0-1-0.5-1-1s0.5-1,1-1c0.6,0,1,0.5,1,1S21,9.5,20.4,9.5z M11.9,9.7
		h-6c-0.4,0-0.7-0.3-0.7-0.7c0-0.4,0.3-0.7,0.7-0.7h6c0.4,0,0.7,0.3,0.7,0.7C12.7,9.3,12.3,9.7,11.9,9.7z M28.4,5.2H6.3
		c-1.7,0-3,1.2-3,2.8v3.2h28.1V8C31.4,6.3,30.1,5.2,28.4,5.2z"/>
	<path fill="#FF970A" d="M22.3,26.5h-1.5c-0.4,0-0.7-0.4-0.7-0.7s0.3-0.7,0.7-0.7h1.5c1.2,0,2.2-1,2.2-2.2s-1-2.2-2.2-2.2H22
		c-0.3,0-0.5-0.2-0.6-0.4c-0.3-0.6-0.9-1-1.6-1c-0.3,0-0.6,0.1-0.9,0.2c-0.2,0.1-0.4,0.1-0.5,0.1C18.2,19.3,18,19.2,18,19
		c-0.5-1-1.5-1.6-2.6-1.6c-1.5,0-2.8,1.1-2.9,2.6c0,0.3-0.2,0.5-0.4,0.6c-0.9,0.3-1.5,1.2-1.5,2.1c0,1.2,1,2.2,2.2,2.2h1.5
		c0.4,0,0.7,0.4,0.7,0.7s-0.3,0.7-0.7,0.7h-1.5c-2,0-3.6-1.7-3.6-3.7c0-1.4,0.8-2.6,2-3.2c0.4-2,2.1-3.5,4.2-3.5
		c1.4,0,2.7,0.7,3.5,1.8c0.3-0.1,0.6-0.2,0.9-0.2c1.1,0,2.1,0.6,2.6,1.5c1.9,0.1,3.5,1.7,3.5,3.7C25.9,24.9,24.3,26.5,22.3,26.5
		L22.3,26.5z M20.4,28.2l-2.3,2.3c-0.1,0.1-0.3,0.2-0.5,0.2h0c-0.2,0-0.4,0-0.5-0.2l0,0c0,0,0,0,0,0v0c0,0,0,0,0,0l-2.3-2.3
		c-0.3-0.3-0.3-0.7,0-1c0.3-0.3,0.6-0.3,0.9,0l1,1.1v-4.2c0-0.4,0.4-0.7,0.7-0.7c0.4,0,0.7,0.3,0.7,0.7v4.2l1.1-1.1
		c0.3-0.3,0.7-0.3,1,0C20.7,27.5,20.7,28,20.4,28.2L20.4,28.2z M3.3,12.7v17.4c0,1.7,1.3,3.2,3,3.2h22.1c1.7,0,3-1.5,3-3.2V12.7H3.3
		z"/>
</g>
</svg>
