<?xml version="1.0" encoding="utf-8"?>
<!-- Generator: Adobe Illustrator 17.1.0, SVG Export Plug-In . SVG Version: 6.00 Build 0)  -->
<!DOCTYPE svg PUBLIC "-//W3C//DTD SVG 1.1//EN" "http://www.w3.org/Graphics/SVG/1.1/DTD/svg11.dtd">
<svg version="1.1" id="Layer_1" xmlns="http://www.w3.org/2000/svg" xmlns:xlink="http://www.w3.org/1999/xlink" x="0px" y="0px"
	 viewBox="0 0 800 459" enable-background="new 0 0 800 459" xml:space="preserve">
<path d="M389.3,379.1c-3.1,3.1-5.5,6.9-6.9,11.1l-2.1,5.8h0c-0.9,2.1-0.8,4.5,0.1,6.5c0.9,2.1,2.7,3.7,4.8,4.4
	c2.2,0.8,4.5,0.6,6.5-0.4c2-1,3.5-2.9,4.2-5l2.1-5.8h0c0.7-1.9,1.7-3.6,3.1-5c7.5-7.7,20.2-23.9,20.2-46.1v-56.5
	c0-14.1-11-25.8-25.1-26.6c-2.8-0.1-5.6,0.3-8.3,1.1c-5.3-11.7-18.5-17.7-30.8-14c-3.4-7.6-10.2-13.1-18.3-14.7
	c-4.5-0.8-9.1-0.5-13.5,1l-1.5-51c-0.3-12.4-9.5-22.8-21.8-24.7c-7-0.9-14.2,1.2-19.6,5.8c-5.4,4.6-8.6,11.3-8.9,18.4l-3.5,122.3
	c-0.6-0.5-1.1-1.1-1.6-1.7l-9.6-16.4l0,0c-8.2-13.7-23.6-21.2-39.4-19.1c-5.7,0.8-10.7,4.3-13.3,9.5c-2.6,5.1-2.6,11.3,0.1,16.4
	l36.9,71.3c3.4,6.5,8.6,11.8,14.9,15.5l1,0.5l18.5,7.7l0.6,0.2c3,1,5.4,3.3,6.4,6.3l1.9,5.6c1.5,4.3,6.2,6.6,10.5,5.1
	c4.3-1.5,6.6-6.1,5.2-10.5l-2.1-5.6c-2.7-7.8-8.8-13.9-16.6-16.6l-17.7-7.4c-3.4-2.1-6.2-5-8-8.5l-37-71.3c-0.2-0.3-0.2-0.7,0-1.1
	c0.2-0.3,0.5-0.6,0.9-0.6c9.2-1.2,18.2,3.1,22.9,11.1l10,16.9c0.2,0.3,0.3,0.6,0.5,0.8c6.6,8.7,18.2,14.3,27.8,8h0
	c2.2-1.5,3.6-4,3.7-6.6l3.8-131.1v0c0.1-2.4,1.2-4.7,3-6.3c1.9-1.6,4.3-2.3,6.7-1.9c4.1,0.8,7.1,4.3,7.2,8.5l1.8,68.8
	c0.1,3.9,3,7.3,6.9,7.9c3.9,0.7,7.7-1.5,9.2-5.2c1.6-4.1,6-6.5,10.4-5.7c4.4,1.1,7.5,5.1,7.4,9.7v1.9c0,3.5,2.1,6.6,5.4,7.8
	c3.2,1.2,6.9,0.3,9.2-2.3c2.1-2.4,5.3-3.6,8.4-3.2c4.7,0.9,8.1,5.2,7.9,10v1.8c0,3.5,2.2,6.6,5.4,7.8c3.3,1.2,6.9,0.3,9.2-2.3
	c1.8-2.1,4.5-3.4,7.3-3.3c5.1,0.4,9.1,4.8,8.9,10v56.5C404.8,361.5,394,374.3,389.3,379.1L389.3,379.1z"/>
<path fill="#A3BFD9" d="M510.5,91.3c-5.4-5.5-13-8.3-20.7-7.7c-33,2.5-66.1,1.7-98.9-2.3c-4.6-0.6-8.8,2.7-9.3,7.3
	c-0.6,4.6,2.7,8.8,7.3,9.4c33.9,4.1,68.1,4.8,102.1,2.2c2.9-0.2,5.6,0.8,7.7,2.8c2,2,3.1,4.8,3,7.6c-2.3,30.6-2,61.3,1,91.8
	c-9.4-0.9-19.1-1.6-29-2v0c-1.1,0-2.3,0.1-3.3,0.5c-5.4,2-8.9,7.2-9,12.9v1.2c0,3.1,1,6,2.9,8.4c2.2,2.9,3.3,6.4,3.3,10
	c0,5.1-2.3,9.9-6.3,13.1c-4.1,3.2-9.5,4.4-14.6,3c-5.8-1.5-10.4-6.1-11.8-12c-1.3-4.9-0.3-10.1,2.8-14.1c1.9-2.4,2.9-5.4,2.9-8.4
	v-1.2c-0.1-5.7-3.6-10.8-8.9-12.8c-1.1-0.4-2.2-0.6-3.3-0.5c-13.6,0.6-26.8,1.7-39.4,3.2h0c-4.6,0.5-7.9,4.7-7.3,9.3
	c0.5,4.6,4.7,7.9,9.3,7.3c10-1.2,20.3-2.1,30.9-2.7c-4.9,9-5.4,19.8-1.3,29.2c4.1,9.4,12.3,16.4,22.3,19c2.7,0.6,5.4,1,8.1,1
	c8.8,0,17.3-3.5,23.5-9.7s9.7-14.7,9.7-23.5c0-5.6-1.4-11-4.2-15.9c10.7,0.6,21,1.5,30.9,2.7c2.5,0.3,5.1-0.6,6.9-2.4
	c1.8-1.8,2.7-4.3,2.4-6.9c-3.9-32.8-4.6-66-2.1-98.9C518.7,104.4,515.9,96.8,510.5,91.3L510.5,91.3z"/>
<path fill="#809778" d="M363.5,83.8c-1.8-1.8-4.3-2.7-6.9-2.4c-32.8,3.9-66,4.6-98.9,2.1c-7.7-0.6-15.3,2.3-20.7,7.7
	c-5.5,5.5-8.3,13-7.7,20.7c2.6,33,1.9,66.1-2,98.9c-0.3,2.2,0.4,4.4,1.7,6.1c1.4,1.7,3.4,2.8,5.6,3.1h1c4.2,0,7.7-3.1,8.2-7.3
	c4-33.9,4.7-68.1,2.1-102.1c-0.2-2.8,0.9-5.6,2.9-7.6c2-2,4.8-3.1,7.6-2.9c30.6,2.3,61.3,2,91.8-1c-0.9,9.4-1.6,19.1-2,29
	c-0.1,1.1,0.1,2.3,0.5,3.3c2,5.4,7.1,8.9,12.9,9h1.2c3.1,0,6-1,8.4-2.9c2.9-2.2,6.4-3.3,10-3.3c5.2,0,10.1,2.4,13.2,6.5
	c3.2,4.1,4.2,9.4,2.9,14.4c-1.4,5.8-6,10.4-11.8,11.8c-4.9,1.3-10.1,0.3-14.1-2.8c-2.5-1.9-5.5-3-8.6-3h-1.2c-5.7,0-10.9,3.6-12.9,9
	c-0.4,1.1-0.6,2.2-0.5,3.3c0.3,6.6,0.7,13.3,1.2,19.9c0.4,4.6,4.4,8,9,7.6c4.6-0.4,8-4.4,7.6-9c-0.3-4-0.6-8.1-0.8-12.2
	c9,4.9,19.8,5.4,29.2,1.3c9.4-4.1,16.4-12.3,19-22.3c2.6-10,0.4-20.6-6-28.8c-6.3-8-16-12.7-26.2-12.7c-5.6,0-11,1.4-15.9,4.2
	c0.6-10.7,1.5-21,2.7-30.9C366.3,88.1,365.4,85.5,363.5,83.8L363.5,83.8z"/>
<line fill="none" stroke="#000000" stroke-width="3" stroke-miterlimit="10" x1="144" y1="120.4" x2="229" y2="120.4"/>
<line fill="none" stroke="#000000" stroke-width="3" stroke-miterlimit="10" x1="520" y1="114.4" x2="605" y2="114.4"/>
<text transform="matrix(1 0 0 1 50.651 106.4946)"><tspan x="0" y="0" font-family="'MyriadPro-Regular'" font-size="25">Reference </tspan><tspan x="0" y="30" font-family="'MyriadPro-Regular'" font-size="25">docs </tspan><tspan x="0" y="60" font-family="'MyriadPro-Regular'" font-size="25">rendered by</tspan><tspan x="0" y="90" font-family="'MyriadPro-Regular'" font-size="25">OpenAPI</tspan><tspan x="0" y="120" font-family="'MyriadPro-Regular'" font-size="25">spec</tspan></text>
<text transform="matrix(1 0 0 1 618.6368 106.4946)"><tspan x="0" y="0" font-family="'MyriadPro-Regular'" font-size="25">Non-reference</tspan><tspan x="0" y="30" font-family="'MyriadPro-Regular'" font-size="25">docs authored</tspan><tspan x="0" y="60" font-family="'MyriadPro-Regular'" font-size="25">manually</tspan></text>
</svg>
