<?xml version="1.0" encoding="utf-8"?>
<!-- Generator: Adobe Illustrator 17.1.0, SVG Export Plug-In . SVG Version: 6.00 Build 0)  -->
<!DOCTYPE svg PUBLIC "-//W3C//DTD SVG 1.1//EN" "http://www.w3.org/Graphics/SVG/1.1/DTD/svg11.dtd">
<svg version="1.1" id="Layer_1" xmlns="http://www.w3.org/2000/svg" xmlns:xlink="http://www.w3.org/1999/xlink" x="0px" y="0px"
	 viewBox="0 0 510.2 414.3" enable-background="new 0 0 510.2 414.3" xml:space="preserve">
<path d="M48,137.8c3.8-0.2,7.9,1.4,11.4,4.9l55.7,152.4h59.5c-9.2,0-18.5-13.9-18.5-27.7c0-13.9,9.2-27.7,18.5-27.7H341v-46.2
	c0-27.7,37-50.8,64.7-50.8c27.7,0,64.7,23.1,64.7,50.8v184.7H341v-70.7c16.9-9.2,33-23.2,45.2-35.4c14.8-14.8,28.7-31,36.1-40.8
	c2-2.7,2.5-6.5,1.2-9.5c-1.4-3-4.6-5.1-7.9-5.3c-3.1-0.2-6.3,1.2-8.1,3.8c-6.5,8.6-20.3,24.7-34.4,38.8
	c-13,16.1-27.5,27.5-47.2,36.1h-63.4c13.9,0,18.5,0,18.5,9.2s-4.6,18.5-18.5,18.5h37c13.9,0,18.5,9.2,18.5,18.5
	c0,9.2-4.6,18.5-18.5,18.5H59.1v-36.9h37L36.3,151.9C36.3,143.3,41.7,138.1,48,137.8L48,137.8z M345.7,27.2
	c33.2,0,60.1,26.9,60.1,60s-26.9,60-60.1,60c-33.2,0-60.1-26.9-60.1-60S312.5,27.2,345.7,27.2z"/>
</svg>
