<?xml version="1.0" encoding="utf-8"?>
<!-- Generator: Adobe Illustrator 23.0.1, SVG Export Plug-In . SVG Version: 6.00 Build 0)  -->
<svg version="1.1" id="Layer_1" xmlns="http://www.w3.org/2000/svg" xmlns:xlink="http://www.w3.org/1999/xlink" x="0px" y="0px"
	 viewBox="0 0 292.7 54.7" style="enable-background:new 0 0 292.7 54.7;" xml:space="preserve">
<style type="text/css">
	.st0{enable-background:new    ;}
	.st1{fill:#FF970A;}
	.st2{fill:#444444;}
</style>
<g class="st0">
	<path d="M41.9,10.2c1.5-0.2,3.2-0.4,5.2-0.4c3.5,0,6,0.8,7.6,2.4c1.7,1.5,2.7,3.7,2.7,6.8c0,3.1-1,5.6-2.7,7.3
		C52.9,28,50,29,46.3,29c-1.7,0-3.2-0.1-4.4-0.2V10.2z M44.3,26.9c0.6,0.1,1.5,0.1,2.5,0.1c5.2,0,8-2.9,8-8c0-4.5-2.5-7.3-7.6-7.3
		c-1.3,0-2.2,0.1-2.9,0.3V26.9z"/>
	<path d="M72.8,21.9c0,5-3.5,7.2-6.7,7.2c-3.7,0-6.5-2.7-6.5-7c0-4.5,3-7.2,6.7-7.2C70.2,15,72.8,17.8,72.8,21.9z M62.1,22.1
		c0,3,1.7,5.2,4.1,5.2c2.4,0,4.1-2.2,4.1-5.3c0-2.3-1.1-5.2-4.1-5.2S62.1,19.5,62.1,22.1z"/>
	<path d="M85.6,28.3c-0.6,0.3-2.1,0.8-3.9,0.8c-4.1,0-6.7-2.8-6.7-6.9c0-4.2,2.9-7.2,7.3-7.2c1.5,0,2.7,0.4,3.4,0.7l-0.6,1.9
		c-0.6-0.3-1.5-0.6-2.9-0.6c-3.1,0-4.8,2.3-4.8,5.1c0,3.1,2,5.1,4.7,5.1c1.4,0,2.3-0.4,3-0.7L85.6,28.3z"/>
	<path d="M99.8,25.1c0,1.4,0,2.6,0.1,3.7h-2.2l-0.1-2.2h-0.1c-0.6,1.1-2.1,2.5-4.5,2.5c-2.1,0-4.7-1.2-4.7-5.9v-7.9h2.5v7.5
		c0,2.6,0.8,4.3,3,4.3c1.7,0,2.8-1.1,3.2-2.2c0.1-0.4,0.2-0.8,0.2-1.3v-8.3h2.5V25.1z"/>
	<path d="M103.9,18.9c0-1.4,0-2.5-0.1-3.7h2.2l0.1,2.2h0.1c0.8-1.3,2-2.5,4.3-2.5c1.8,0,3.2,1.1,3.8,2.7h0.1c0.4-0.8,1-1.3,1.5-1.8
		c0.8-0.6,1.7-1,3-1c1.8,0,4.5,1.2,4.5,5.9v8h-2.4v-7.7c0-2.6-1-4.2-2.9-4.2c-1.4,0-2.5,1-2.9,2.2c-0.1,0.3-0.2,0.8-0.2,1.2v8.4
		h-2.4v-8.1c0-2.2-1-3.7-2.8-3.7c-1.5,0-2.7,1.2-3.1,2.5c-0.1,0.4-0.2,0.8-0.2,1.2v8.2h-2.4V18.9z"/>
	<path d="M128.6,22.5c0.1,3.3,2.2,4.7,4.6,4.7c1.8,0,2.8-0.3,3.8-0.7l0.4,1.8c-0.9,0.4-2.4,0.8-4.5,0.8c-4.2,0-6.7-2.7-6.7-6.8
		s2.4-7.3,6.4-7.3c4.4,0,5.6,3.9,5.6,6.4c0,0.5-0.1,0.9-0.1,1.1H128.6z M135.9,20.7c0-1.6-0.6-4-3.4-4c-2.5,0-3.6,2.3-3.8,4H135.9z"
		/>
	<path d="M141.3,18.9c0-1.4,0-2.5-0.1-3.7h2.2l0.1,2.2h0.1c0.7-1.3,2.2-2.5,4.5-2.5c1.9,0,4.8,1.1,4.8,5.8v8.1h-2.5V21
		c0-2.2-0.8-4-3.1-4c-1.6,0-2.9,1.1-3.3,2.5c-0.1,0.3-0.2,0.7-0.2,1.1v8.1h-2.5V18.9z"/>
	<path d="M159.7,11.4v3.9h3.5v1.9h-3.5v7.3c0,1.7,0.5,2.6,1.8,2.6c0.6,0,1.1-0.1,1.4-0.2l0.1,1.8c-0.5,0.2-1.2,0.3-2.2,0.3
		c-1.1,0-2.1-0.4-2.7-1c-0.7-0.7-1-1.9-1-3.5v-7.4h-2.1v-1.9h2.1V12L159.7,11.4z"/>
	<path d="M168.7,11.5c0,0.8-0.6,1.5-1.6,1.5c-0.9,0-1.5-0.7-1.5-1.5c0-0.9,0.6-1.5,1.5-1.5C168.1,9.9,168.7,10.6,168.7,11.5z
		 M166,28.8V15.3h2.5v13.6H166z"/>
	<path d="M172.5,18.9c0-1.4,0-2.5-0.1-3.7h2.2l0.1,2.2h0.1c0.7-1.3,2.2-2.5,4.5-2.5c1.9,0,4.8,1.1,4.8,5.8v8.1h-2.5V21
		c0-2.2-0.8-4-3.1-4c-1.6,0-2.9,1.1-3.3,2.5c-0.1,0.3-0.2,0.7-0.2,1.1v8.1h-2.5V18.9z"/>
	<path d="M199.8,15.3c-0.1,1-0.1,2.1-0.1,3.7v7.9c0,3.1-0.6,5-1.9,6.2c-1.3,1.2-3.2,1.6-4.9,1.6c-1.6,0-3.4-0.4-4.5-1.1l0.6-1.9
		c0.9,0.6,2.3,1.1,4,1.1c2.5,0,4.4-1.3,4.4-4.7v-1.5h-0.1c-0.8,1.3-2.2,2.3-4.3,2.3c-3.4,0-5.8-2.9-5.8-6.6c0-4.6,3-7.2,6.1-7.2
		c2.4,0,3.6,1.2,4.2,2.4h0.1l0.1-2H199.8z M197.2,20.6c0-0.4,0-0.8-0.1-1.1c-0.4-1.4-1.7-2.6-3.4-2.6c-2.4,0-4,2-4,5.1
		c0,2.7,1.3,4.9,4,4.9c1.5,0,2.9-1,3.4-2.5c0.1-0.4,0.2-0.9,0.2-1.3V20.6z"/>
	<path d="M212.8,22.9l-2,5.9h-2.5l6.4-18.9h2.9l6.4,18.9h-2.6l-2-5.9H212.8z M219,21l-1.8-5.4c-0.4-1.2-0.7-2.4-1-3.4h-0.1
		c-0.3,1.1-0.6,2.3-1,3.4l-1.8,5.5H219z"/>
	<path d="M226.9,10.2c1.2-0.2,2.7-0.4,4.7-0.4c2.4,0,4.2,0.6,5.3,1.6c1,0.9,1.7,2.3,1.7,3.9c0,1.7-0.5,3.1-1.5,4
		c-1.3,1.4-3.4,2.1-5.8,2.1c-0.7,0-1.4,0-2-0.2v7.6h-2.4V10.2z M229.3,19.3c0.5,0.1,1.2,0.2,2,0.2c2.9,0,4.7-1.4,4.7-4
		c0-2.5-1.8-3.7-4.5-3.7c-1.1,0-1.9,0.1-2.3,0.2V19.3z"/>
	<path d="M244.2,9.9v18.9h-2.4V9.9H244.2z"/>
	<path d="M248.1,26.3c0.7,0.5,2,1,3.2,1c1.8,0,2.6-0.9,2.6-2c0-1.2-0.7-1.8-2.5-2.5c-2.4-0.9-3.6-2.2-3.6-3.8c0-2.2,1.8-4,4.7-4
		c1.4,0,2.6,0.4,3.3,0.8l-0.6,1.8c-0.5-0.3-1.5-0.8-2.8-0.8c-1.5,0-2.3,0.8-2.3,1.8c0,1.1,0.8,1.6,2.6,2.3c2.4,0.9,3.6,2.1,3.6,4.1
		c0,2.4-1.8,4.1-5.1,4.1c-1.5,0-2.9-0.4-3.8-0.9L248.1,26.3z"/>
</g>
<path class="st1" d="M31.1,12.4c-0.6,0-1-0.5-1-1c0-0.6,0.5-1,1-1c0.6,0,1,0.5,1,1S31.6,12.4,31.1,12.4z M27.4,12.4
	c-0.6,0-1-0.5-1-1c0-0.6,0.5-1,1-1c0.6,0,1,0.5,1,1S28,12.4,27.4,12.4z M23.8,12.4c-0.6,0-1-0.5-1-1c0-0.6,0.5-1,1-1
	c0.6,0,1,0.5,1,1S24.3,12.4,23.8,12.4z M15.5,12.5H9.6c-0.4,0-0.7-0.3-0.7-0.7S9.2,11,9.6,11h5.9c0.4,0,0.7,0.3,0.7,0.7
	S15.9,12.5,15.5,12.5z M31.6,8.1H10c-1.6,0-2.9,1.1-2.9,2.7V14h27.5v-3.1C34.5,9.2,33.2,8.1,31.6,8.1z"/>
<path class="st1" d="M25.6,29h-1.5c-0.4,0-0.7-0.4-0.7-0.7s0.3-0.7,0.7-0.7h1.5c1.2,0,2.2-1,2.2-2.2s-1-2.2-2.2-2.2h-0.3
	c-0.3,0-0.5-0.2-0.6-0.4c-0.3-0.6-0.9-1-1.5-1c-0.3,0-0.6,0.1-0.8,0.2c-0.2,0-0.4,0.1-0.6,0s-0.3-0.2-0.4-0.3
	c-0.5-0.9-1.5-1.5-2.5-1.5c-1.5,0-2.7,1.1-2.8,2.6c0,0.3-0.2,0.5-0.4,0.6c-0.9,0.3-1.4,1.1-1.4,2c0,1.2,1,2.2,2.2,2.2H18
	c0.4,0,0.7,0.4,0.7,0.7c0,0.4-0.3,0.7-0.7,0.7h-1.5c-2,0-3.5-1.6-3.5-3.6c0-1.3,0.8-2.6,1.9-3.2c0.4-2,2.1-3.4,4.1-3.4
	c1.4,0,2.6,0.6,3.4,1.7c0.3-0.1,0.6-0.2,0.9-0.2c1.1,0,2,0.6,2.6,1.4c1.9,0.1,3.4,1.7,3.4,3.6C29.1,27.3,27.6,29,25.6,29L25.6,29z
	 M23.8,30.6l-2.2,2.2C21.4,33,21.2,33,21.1,33l0,0c-0.2,0-0.3,0-0.5-0.2l0,0l0,0l0,0l0,0l-2.2-2.2c-0.3-0.3-0.3-0.7,0-1
	s0.6-0.3,0.9,0l1,1.1v-4.1c0-0.4,0.4-0.7,0.7-0.7c0.4,0,0.7,0.3,0.7,0.7v4.1l1.1-1.1c0.3-0.3,0.7-0.3,1,0C24,29.9,24,30.4,23.8,30.6
	L23.8,30.6z M7.1,15.4v17c0,1.6,1.3,3.1,2.9,3.1h21.6c1.6,0,2.9-1.5,2.9-3.1v-17C34.5,15.4,7.1,15.4,7.1,15.4z"/>
<g class="st0">
	<path class="st2" d="M46.9,47l-0.1-0.8h0c-0.4,0.5-1,0.9-1.9,0.9c-1.3,0-1.9-0.9-1.9-1.8c0-1.5,1.4-2.4,3.8-2.3v-0.1
		c0-0.5-0.1-1.5-1.4-1.5c-0.6,0-1.2,0.2-1.6,0.5l-0.3-0.8c0.5-0.3,1.3-0.6,2.1-0.6c1.9,0,2.4,1.3,2.4,2.6v2.4c0,0.5,0,1.1,0.1,1.5
		H46.9z M46.8,43.8c-1.3,0-2.7,0.2-2.7,1.4c0,0.7,0.5,1.1,1.1,1.1c0.8,0,1.3-0.5,1.5-1.1c0-0.1,0.1-0.2,0.1-0.4V43.8z"/>
	<path class="st2" d="M57.9,40.7c0,0.5-0.1,1-0.1,1.7v3.7c0,1.4-0.3,2.3-0.9,2.9c-0.6,0.6-1.5,0.8-2.3,0.8c-0.8,0-1.6-0.2-2.1-0.5
		l0.3-0.9c0.4,0.3,1.1,0.5,1.9,0.5c1.2,0,2-0.6,2-2.2v-0.7h0c-0.4,0.6-1,1.1-2,1.1c-1.6,0-2.7-1.3-2.7-3.1c0-2.1,1.4-3.3,2.8-3.3
		c1.1,0,1.7,0.6,2,1.1h0l0.1-1H57.9z M56.7,43.2c0-0.2,0-0.4-0.1-0.5c-0.2-0.7-0.8-1.2-1.6-1.2c-1.1,0-1.9,0.9-1.9,2.4
		c0,1.2,0.6,2.3,1.9,2.3c0.7,0,1.3-0.4,1.6-1.2c0.1-0.2,0.1-0.4,0.1-0.6V43.2z"/>
	<path class="st2" d="M65,45.3c0,0.7,0,1.2,0.1,1.7h-1L64,46h0c-0.3,0.5-1,1.2-2.1,1.2c-1,0-2.2-0.5-2.2-2.8v-3.7h1.1v3.5
		c0,1.2,0.4,2,1.4,2c0.8,0,1.3-0.5,1.5-1c0.1-0.2,0.1-0.4,0.1-0.6v-3.9H65V45.3z"/>
	<path class="st2" d="M68.2,38.9c0,0.4-0.3,0.7-0.7,0.7c-0.4,0-0.7-0.3-0.7-0.7c0-0.4,0.3-0.7,0.7-0.7C68,38.2,68.2,38.5,68.2,38.9z
		 M66.9,47v-6.3h1.1V47H66.9z"/>
	<path class="st2" d="M75.4,37.7v7.6c0,0.6,0,1.2,0.1,1.6h-1l-0.1-1.1h0c-0.4,0.7-1.1,1.2-2.2,1.2c-1.5,0-2.7-1.3-2.7-3.2
		c0-2.1,1.3-3.4,2.8-3.4c1,0,1.6,0.5,1.9,1h0v-3.8H75.4z M74.3,43.3c0-0.1,0-0.3-0.1-0.5c-0.2-0.7-0.8-1.3-1.7-1.3
		c-1.2,0-1.9,1-1.9,2.4c0,1.3,0.6,2.3,1.9,2.3c0.8,0,1.5-0.5,1.7-1.4c0-0.2,0.1-0.3,0.1-0.5V43.3z"/>
	<path class="st2" d="M78,44.1c0,1.6,1,2.2,2.2,2.2c0.8,0,1.3-0.1,1.7-0.3l0.2,0.8c-0.4,0.2-1.1,0.4-2.1,0.4c-1.9,0-3.1-1.3-3.1-3.2
		c0-1.9,1.1-3.4,3-3.4c2.1,0,2.6,1.8,2.6,3c0,0.2,0,0.4,0,0.5H78z M81.3,43.2c0-0.7-0.3-1.9-1.6-1.9c-1.2,0-1.7,1.1-1.8,1.9H81.3z"
		/>
	<path class="st2" d="M86.8,47v-5.4h-0.9v-0.9h0.9v-0.3c0-0.9,0.2-1.7,0.7-2.2c0.4-0.4,1-0.6,1.5-0.6c0.4,0,0.8,0.1,1,0.2l-0.2,0.9
		c-0.2-0.1-0.4-0.1-0.7-0.1c-1,0-1.2,0.9-1.2,1.8v0.3h1.5v0.9h-1.5V47H86.8z"/>
	<path class="st2" d="M96,43.8c0,2.3-1.6,3.3-3.1,3.3c-1.7,0-3-1.3-3-3.2c0-2.1,1.4-3.3,3.1-3.3C94.8,40.5,96,41.9,96,43.8z
		 M91,43.9c0,1.4,0.8,2.4,1.9,2.4c1.1,0,1.9-1,1.9-2.5c0-1.1-0.5-2.4-1.9-2.4C91.6,41.4,91,42.7,91,43.9z"/>
	<path class="st2" d="M97.4,42.7c0-0.7,0-1.4-0.1-2h1l0,1.2h0.1c0.3-0.8,1-1.4,1.7-1.4c0.1,0,0.2,0,0.3,0v1.1c-0.1,0-0.2,0-0.4,0
		c-0.8,0-1.4,0.6-1.5,1.5c0,0.2-0.1,0.3-0.1,0.5V47h-1.1V42.7z"/>
	<path class="st2" d="M105.8,38.9v1.8h1.6v0.9h-1.6V45c0,0.8,0.2,1.2,0.9,1.2c0.3,0,0.5,0,0.7-0.1l0.1,0.9c-0.2,0.1-0.6,0.2-1,0.2
		c-0.5,0-1-0.2-1.2-0.5c-0.3-0.3-0.4-0.9-0.4-1.6v-3.4h-1v-0.9h1v-1.5L105.8,38.9z"/>
	<path class="st2" d="M109.3,44.1c0,1.6,1,2.2,2.2,2.2c0.8,0,1.3-0.1,1.7-0.3l0.2,0.8c-0.4,0.2-1.1,0.4-2.1,0.4
		c-1.9,0-3.1-1.3-3.1-3.2c0-1.9,1.1-3.4,3-3.4c2.1,0,2.6,1.8,2.6,3c0,0.2,0,0.4,0,0.5H109.3z M112.7,43.2c0-0.7-0.3-1.9-1.6-1.9
		c-1.2,0-1.7,1.1-1.8,1.9H112.7z"/>
	<path class="st2" d="M119.7,46.8c-0.3,0.2-1,0.4-1.8,0.4c-1.9,0-3.1-1.3-3.1-3.2c0-1.9,1.3-3.3,3.4-3.3c0.7,0,1.3,0.2,1.6,0.3
		l-0.3,0.9c-0.3-0.2-0.7-0.3-1.3-0.3c-1.4,0-2.2,1.1-2.2,2.4c0,1.5,0.9,2.4,2.2,2.4c0.7,0,1.1-0.2,1.4-0.3L119.7,46.8z"/>
	<path class="st2" d="M121,37.7h1.1v3.9h0c0.2-0.3,0.5-0.6,0.8-0.8c0.3-0.2,0.7-0.3,1.2-0.3c0.8,0,2.2,0.5,2.2,2.7V47h-1.1v-3.6
		c0-1-0.4-1.9-1.5-1.9c-0.7,0-1.3,0.5-1.5,1.1c-0.1,0.2-0.1,0.3-0.1,0.5V47H121V37.7z"/>
	<path class="st2" d="M128.3,42.4c0-0.7,0-1.2-0.1-1.7h1l0.1,1h0c0.3-0.6,1-1.2,2.1-1.2c0.9,0,2.2,0.5,2.2,2.7V47h-1.1v-3.6
		c0-1-0.4-1.9-1.5-1.9c-0.8,0-1.3,0.5-1.5,1.2c-0.1,0.1-0.1,0.3-0.1,0.5V47h-1.1V42.4z"/>
	<path class="st2" d="M136.8,38.9c0,0.4-0.3,0.7-0.7,0.7c-0.4,0-0.7-0.3-0.7-0.7c0-0.4,0.3-0.7,0.7-0.7
		C136.5,38.2,136.8,38.5,136.8,38.9z M135.5,47v-6.3h1.1V47H135.5z"/>
	<path class="st2" d="M143,46.8c-0.3,0.2-1,0.4-1.8,0.4c-1.9,0-3.1-1.3-3.1-3.2c0-1.9,1.3-3.3,3.4-3.3c0.7,0,1.3,0.2,1.6,0.3
		l-0.3,0.9c-0.3-0.2-0.7-0.3-1.3-0.3c-1.4,0-2.2,1.1-2.2,2.4c0,1.5,0.9,2.4,2.2,2.4c0.7,0,1.1-0.2,1.4-0.3L143,46.8z"/>
	<path class="st2" d="M147.9,47l-0.1-0.8h0c-0.4,0.5-1,0.9-1.9,0.9c-1.3,0-1.9-0.9-1.9-1.8c0-1.5,1.4-2.4,3.8-2.3v-0.1
		c0-0.5-0.1-1.5-1.4-1.5c-0.6,0-1.2,0.2-1.6,0.5l-0.3-0.8c0.5-0.3,1.3-0.6,2.1-0.6c1.9,0,2.4,1.3,2.4,2.6v2.4c0,0.5,0,1.1,0.1,1.5
		H147.9z M147.7,43.8c-1.3,0-2.7,0.2-2.7,1.4c0,0.7,0.5,1.1,1.1,1.1c0.8,0,1.3-0.5,1.5-1.1c0-0.1,0.1-0.2,0.1-0.4V43.8z"/>
	<path class="st2" d="M150.7,37.7h1.1V47h-1.1V37.7z"/>
	<path class="st2" d="M157,40.7l0.8,3.2c0.2,0.7,0.4,1.4,0.5,2h0c0.1-0.6,0.4-1.3,0.6-2l1-3.2h1l1,3.2c0.2,0.8,0.4,1.4,0.6,2.1h0
		c0.1-0.6,0.3-1.3,0.5-2l0.9-3.2h1.1l-2,6.3h-1l-1-3c-0.2-0.7-0.4-1.3-0.6-2.1h0c-0.2,0.8-0.4,1.4-0.6,2.1l-1,3h-1l-1.9-6.3H157z"/>
	<path class="st2" d="M166.1,42.7c0-0.7,0-1.4-0.1-2h1l0,1.2h0.1c0.3-0.8,1-1.4,1.7-1.4c0.1,0,0.2,0,0.3,0v1.1c-0.1,0-0.2,0-0.4,0
		c-0.8,0-1.4,0.6-1.5,1.5c0,0.2-0.1,0.3-0.1,0.5V47h-1.1V42.7z"/>
	<path class="st2" d="M171.7,38.9c0,0.4-0.3,0.7-0.7,0.7c-0.4,0-0.7-0.3-0.7-0.7c0-0.4,0.3-0.7,0.7-0.7
		C171.4,38.2,171.7,38.5,171.7,38.9z M170.4,47v-6.3h1.1V47H170.4z"/>
	<path class="st2" d="M174.8,38.9v1.8h1.6v0.9h-1.6V45c0,0.8,0.2,1.2,0.9,1.2c0.3,0,0.5,0,0.7-0.1l0.1,0.9c-0.2,0.1-0.6,0.2-1,0.2
		c-0.5,0-1-0.2-1.2-0.5c-0.3-0.3-0.4-0.9-0.4-1.6v-3.4h-1v-0.9h1v-1.5L174.8,38.9z"/>
	<path class="st2" d="M178.3,44.1c0,1.6,1,2.2,2.2,2.2c0.8,0,1.3-0.1,1.7-0.3l0.2,0.8c-0.4,0.2-1.1,0.4-2.1,0.4
		c-1.9,0-3.1-1.3-3.1-3.2c0-1.9,1.1-3.4,3-3.4c2.1,0,2.6,1.8,2.6,3c0,0.2,0,0.4,0,0.5H178.3z M181.7,43.2c0-0.7-0.3-1.9-1.6-1.9
		c-1.2,0-1.7,1.1-1.8,1.9H181.7z"/>
	<path class="st2" d="M184.2,42.7c0-0.7,0-1.4-0.1-2h1l0,1.2h0.1c0.3-0.8,1-1.4,1.7-1.4c0.1,0,0.2,0,0.3,0v1.1c-0.1,0-0.2,0-0.4,0
		c-0.8,0-1.4,0.6-1.5,1.5c0,0.2-0.1,0.3-0.1,0.5V47h-1.1V42.7z"/>
	<path class="st2" d="M188.3,45.8c0.3,0.2,0.9,0.5,1.5,0.5c0.8,0,1.2-0.4,1.2-0.9c0-0.5-0.3-0.8-1.2-1.2c-1.1-0.4-1.7-1-1.7-1.8
		c0-1,0.8-1.9,2.2-1.9c0.6,0,1.2,0.2,1.6,0.4l-0.3,0.8c-0.2-0.2-0.7-0.4-1.3-0.4c-0.7,0-1.1,0.4-1.1,0.9c0,0.5,0.4,0.8,1.2,1.1
		c1.1,0.4,1.7,1,1.7,1.9c0,1.1-0.9,1.9-2.4,1.9c-0.7,0-1.3-0.2-1.8-0.4L188.3,45.8z"/>
</g>
</svg>
