<?xml version="1.0" encoding="utf-8"?>
<!-- Generator: Adobe Illustrator 23.0.2, SVG Export Plug-In . SVG Version: 6.00 Build 0)  -->
<svg version="1.1" id="Layer_1" xmlns="http://www.w3.org/2000/svg" xmlns:xlink="http://www.w3.org/1999/xlink" x="0px" y="0px"
	 viewBox="0 0 303.8 54.7" style="enable-background:new 0 0 303.8 54.7;" xml:space="preserve">
<style type="text/css">
	.st0{fill:#EDF0F8;}
	.st1{enable-background:new    ;}
	.st2{fill:#FF970A;}
	.st3{fill:#444444;}
	.st4{fill:#827F7F;}
</style>
<g>
	<path class="st0" d="M295,48.7c0,3.3-2.7,6-6,6H7.6c-3.3,0-6-2.7-6-6V6c0-3.3,2.7-6,6-6H289c3.3,0,6,2.7,6,6V48.7z"/>
</g>
<g class="st1">
	<path d="M44.1-50.5c1.5-0.2,3.2-0.4,5.2-0.4c3.5,0,6,0.8,7.6,2.4c1.7,1.5,2.7,3.7,2.7,6.8c0,3.1-1,5.6-2.7,7.3
		c-1.8,1.7-4.7,2.7-8.4,2.7c-1.7,0-3.2-0.1-4.4-0.2C44.1-31.9,44.1-50.5,44.1-50.5z M46.5-33.8c0.6,0.1,1.5,0.1,2.5,0.1
		c5.2,0,8-2.9,8-8c0-4.5-2.5-7.3-7.6-7.3c-1.3,0-2.2,0.1-2.9,0.3V-33.8z"/>
	<path d="M75-38.8c0,5-3.5,7.2-6.7,7.2c-3.7,0-6.5-2.7-6.5-7c0-4.5,3-7.2,6.7-7.2C72.4-45.7,75-42.9,75-38.8z M64.3-38.6
		c0,3,1.7,5.2,4.1,5.2s4.1-2.2,4.1-5.3c0-2.3-1.1-5.2-4.1-5.2S64.3-41.2,64.3-38.6z"/>
	<path d="M87.8-32.4c-0.6,0.3-2.1,0.8-3.9,0.8c-4.1,0-6.7-2.8-6.7-6.9c0-4.2,2.9-7.2,7.3-7.2c1.5,0,2.7,0.4,3.4,0.7l-0.6,1.9
		c-0.6-0.3-1.5-0.6-2.9-0.6c-3.1,0-4.8,2.3-4.8,5.1c0,3.1,2,5.1,4.7,5.1c1.4,0,2.3-0.4,3-0.7L87.8-32.4z"/>
	<path d="M102-35.6c0,1.4,0,2.6,0.1,3.7h-2.2l-0.1-2.2h-0.1c-0.6,1.1-2.1,2.5-4.5,2.5c-2.1,0-4.7-1.2-4.7-5.9v-7.9H93v7.5
		c0,2.6,0.8,4.3,3,4.3c1.7,0,2.8-1.1,3.2-2.2c0.1-0.4,0.2-0.8,0.2-1.3v-8.3h2.5L102-35.6L102-35.6z"/>
	<path d="M106.1-41.8c0-1.4,0-2.5-0.1-3.7h2.2l0.1,2.2h0.1c0.8-1.3,2-2.5,4.3-2.5c1.8,0,3.2,1.1,3.8,2.7h0.1c0.4-0.8,1-1.3,1.5-1.8
		c0.8-0.6,1.7-1,3-1c1.8,0,4.5,1.2,4.5,5.9v8h-2.4v-7.7c0-2.6-1-4.2-2.9-4.2c-1.4,0-2.5,1-2.9,2.2c-0.1,0.3-0.2,0.8-0.2,1.2v8.4
		h-2.4v-8.1c0-2.2-1-3.7-2.8-3.7c-1.5,0-2.7,1.2-3.1,2.5c-0.1,0.4-0.2,0.8-0.2,1.2v8.2h-2.4v-9.8H106.1z"/>
	<path d="M130.8-38.2c0.1,3.3,2.2,4.7,4.6,4.7c1.8,0,2.8-0.3,3.8-0.7l0.4,1.8c-0.9,0.4-2.4,0.8-4.5,0.8c-4.2,0-6.7-2.7-6.7-6.8
		s2.4-7.3,6.4-7.3c4.4,0,5.6,3.9,5.6,6.4c0,0.5-0.1,0.9-0.1,1.1H130.8z M138.1-40c0-1.6-0.6-4-3.4-4c-2.5,0-3.6,2.3-3.8,4H138.1z"/>
	<path d="M143.5-41.8c0-1.4,0-2.5-0.1-3.7h2.2l0.1,2.2h0.1c0.7-1.3,2.2-2.5,4.5-2.5c1.9,0,4.8,1.1,4.8,5.8v8.1h-2.5v-7.8
		c0-2.2-0.8-4-3.1-4c-1.6,0-2.9,1.1-3.3,2.5c-0.1,0.3-0.2,0.7-0.2,1.1v8.1h-2.5V-41.8z"/>
	<path d="M161.9-49.3v3.9h3.5v1.9h-3.5v7.3c0,1.7,0.5,2.6,1.8,2.6c0.6,0,1.1-0.1,1.4-0.2l0.1,1.8c-0.5,0.2-1.2,0.3-2.2,0.3
		c-1.1,0-2.1-0.4-2.7-1c-0.7-0.7-1-1.9-1-3.5v-7.4h-2.1v-1.9h2.1v-3.2L161.9-49.3z"/>
	<path d="M170.9-49.2c0,0.8-0.6,1.5-1.6,1.5c-0.9,0-1.5-0.7-1.5-1.5c0-0.9,0.6-1.5,1.5-1.5C170.3-50.8,170.9-50.1,170.9-49.2z
		 M168.2-31.9v-13.5h2.5v13.6h-2.5V-31.9z"/>
	<path d="M174.7-41.8c0-1.4,0-2.5-0.1-3.7h2.2l0.1,2.2h0.1c0.7-1.3,2.2-2.5,4.5-2.5c1.9,0,4.8,1.1,4.8,5.8v8.1h-2.5v-7.8
		c0-2.2-0.8-4-3.1-4c-1.6,0-2.9,1.1-3.3,2.5c-0.1,0.3-0.2,0.7-0.2,1.1v8.1h-2.5V-41.8z"/>
	<path d="M202-45.4c-0.1,1-0.1,2.1-0.1,3.7v7.9c0,3.1-0.6,5-1.9,6.2c-1.3,1.2-3.2,1.6-4.9,1.6c-1.6,0-3.4-0.4-4.5-1.1l0.6-1.9
		c0.9,0.6,2.3,1.1,4,1.1c2.5,0,4.4-1.3,4.4-4.7v-1.5h-0.1c-0.8,1.3-2.2,2.3-4.3,2.3c-3.4,0-5.8-2.9-5.8-6.6c0-4.6,3-7.2,6.1-7.2
		c2.4,0,3.6,1.2,4.2,2.4h0.1l0.1-2h2.1V-45.4z M199.4-40.1c0-0.4,0-0.8-0.1-1.1c-0.4-1.4-1.7-2.6-3.4-2.6c-2.4,0-4,2-4,5.1
		c0,2.7,1.3,4.9,4,4.9c1.5,0,2.9-1,3.4-2.5c0.1-0.4,0.2-0.9,0.2-1.3L199.4-40.1L199.4-40.1z"/>
	<path d="M215-37.8l-2,5.9h-2.5l6.4-18.9h2.9l6.4,18.9h-2.6l-2-5.9H215z M221.2-39.7l-1.8-5.4c-0.4-1.2-0.7-2.4-1-3.4h-0.1
		c-0.3,1.1-0.6,2.3-1,3.4l-1.8,5.5h5.7V-39.7z"/>
	<path d="M229.1-50.5c1.2-0.2,2.7-0.4,4.7-0.4c2.4,0,4.2,0.6,5.3,1.6c1,0.9,1.7,2.3,1.7,3.9c0,1.7-0.5,3.1-1.5,4
		c-1.3,1.4-3.4,2.1-5.8,2.1c-0.7,0-1.4,0-2-0.2v7.6h-2.4V-50.5z M231.5-41.4c0.5,0.1,1.2,0.2,2,0.2c2.9,0,4.7-1.4,4.7-4
		c0-2.5-1.8-3.7-4.5-3.7c-1.1,0-1.9,0.1-2.3,0.2v7.3H231.5z"/>
	<path d="M246.4-50.8v18.9H244v-18.9H246.4z"/>
	<path d="M250.3-34.4c0.7,0.5,2,1,3.2,1c1.8,0,2.6-0.9,2.6-2c0-1.2-0.7-1.8-2.5-2.5c-2.4-0.9-3.6-2.2-3.6-3.8c0-2.2,1.8-4,4.7-4
		c1.4,0,2.6,0.4,3.3,0.8l-0.6,1.8c-0.5-0.3-1.5-0.8-2.8-0.8c-1.5,0-2.3,0.8-2.3,1.8c0,1.1,0.8,1.6,2.6,2.3c2.4,0.9,3.6,2.1,3.6,4.1
		c0,2.4-1.8,4.1-5.1,4.1c-1.5,0-2.9-0.4-3.8-0.9L250.3-34.4z"/>
</g>
<path class="st2" d="M39.7,13.8c-0.7,0-1.2-0.7-1.2-1.4c0-0.9,0.6-1.4,1.2-1.4c0.7,0,1.2,0.7,1.2,1.4S40.3,13.8,39.7,13.8z
	 M35.1,13.8c-0.7,0-1.2-0.7-1.2-1.4c0-0.9,0.6-1.4,1.2-1.4c0.7,0,1.2,0.7,1.2,1.4S35.8,13.8,35.1,13.8z M30.6,13.8
	c-0.7,0-1.2-0.7-1.2-1.4c0-0.9,0.6-1.4,1.2-1.4c0.7,0,1.2,0.7,1.2,1.4S31.2,13.8,30.6,13.8z M20.2,14h-7.3c-0.5,0-0.9-0.4-0.9-1
	s0.4-1.2,0.9-1.2h7.3c0.5,0,0.9,0.4,0.9,1C21.1,13.4,20.7,14,20.2,14z M40.3,7.6H13.4c-2,0-3.6,1.6-3.6,3.9v4.6H44v-4.5
	C43.9,9.2,42.3,7.6,40.3,7.6z"/>
<path class="st2" d="M32.8,37.7h-1.9c-0.5,0-0.9-0.6-0.9-1s0.4-1,0.9-1h1.9c1.5,0,2.7-1.4,2.7-3.2c0-1.7-1.2-3.2-2.7-3.2h-0.4
	c-0.4,0-0.6-0.3-0.7-0.6c-0.4-0.9-1.1-1.4-1.9-1.4c-0.4,0-0.7,0.1-1,0.3c-0.2,0-0.5,0.1-0.7,0c-0.2-0.1-0.4-0.3-0.5-0.4
	C27,25.9,25.7,25,24.5,25c-1.9,0-3.4,1.6-3.5,3.7c0,0.4-0.2,0.7-0.5,0.9c-1.1,0.4-1.7,1.6-1.7,2.9c0,1.7,1.2,3.2,2.7,3.2h1.9
	c0.5,0,0.9,0.6,0.9,1c0,0.6-0.4,1-0.9,1h-1.9c-2.5,0-4.4-2.3-4.4-5.2c0-1.9,1-3.7,2.4-4.6C20,25,22.1,23,24.6,23
	c1.7,0,3.2,0.9,4.2,2.4c0.4-0.1,0.7-0.3,1.1-0.3c1.4,0,2.5,0.9,3.2,2c2.4,0.1,4.2,2.4,4.2,5.2C37.2,35.3,35.3,37.7,32.8,37.7
	L32.8,37.7z M30.6,40l-2.7,3.2c-0.2,0.3-0.5,0.3-0.6,0.3l0,0c-0.2,0-0.4,0-0.6-0.3l0,0l0,0l0,0l0,0L23.8,40c-0.4-0.4-0.4-1,0-1.4
	c0.4-0.4,0.7-0.4,1.1,0l1.2,1.6v-5.9c0-0.6,0.5-1,0.9-1c0.5,0,0.9,0.4,0.9,1v5.9l1.4-1.6c0.4-0.4,0.9-0.4,1.2,0
	C30.8,39,30.8,39.7,30.6,40L30.6,40z M9.8,18.1v24.5c0,2.3,1.6,4.5,3.6,4.5h26.9c2,0,3.6-2.2,3.6-4.5V18.1
	C43.9,18.1,9.8,18.1,9.8,18.1z"/>
<g class="st1">
	<path class="st3" d="M44.2,83.9l-0.1-0.8l0,0c-0.4,0.5-1,0.9-1.9,0.9c-1.3,0-1.9-0.9-1.9-1.8c0-1.5,1.4-2.4,3.8-2.3v-0.1
		c0-0.5-0.1-1.5-1.4-1.5c-0.6,0-1.2,0.2-1.6,0.5L40.8,78c0.5-0.3,1.3-0.6,2.1-0.6c1.9,0,2.4,1.3,2.4,2.6v2.4c0,0.5,0,1.1,0.1,1.5
		C45.3,83.9,44.2,83.9,44.2,83.9z M44,80.7c-1.3,0-2.7,0.2-2.7,1.4c0,0.7,0.5,1.1,1.1,1.1c0.8,0,1.3-0.5,1.5-1.1
		c0-0.1,0.1-0.2,0.1-0.4C44,81.7,44,80.7,44,80.7z"/>
	<path class="st3" d="M55.2,77.6c0,0.5-0.1,1-0.1,1.7V83c0,1.4-0.3,2.3-0.9,2.9c-0.6,0.6-1.5,0.8-2.3,0.8s-1.6-0.2-2.1-0.5l0.3-0.9
		c0.4,0.3,1.1,0.5,1.9,0.5c1.2,0,2-0.6,2-2.2v-0.7l0,0c-0.4,0.6-1,1.1-2,1.1c-1.6,0-2.7-1.3-2.7-3.1c0-2.1,1.4-3.3,2.8-3.3
		c1.1,0,1.7,0.6,2,1.1l0,0l0.1-1L55.2,77.6L55.2,77.6z M54,80.1c0-0.2,0-0.4-0.1-0.5c-0.2-0.7-0.8-1.2-1.6-1.2
		c-1.1,0-1.9,0.9-1.9,2.4c0,1.2,0.6,2.3,1.9,2.3c0.7,0,1.3-0.4,1.6-1.2c0.1-0.2,0.1-0.4,0.1-0.6V80.1z"/>
	<path class="st3" d="M62.2,82.2c0,0.7,0,1.2,0.1,1.7h-1l-0.1-1l0,0c-0.3,0.5-1,1.2-2.1,1.2c-1,0-2.2-0.5-2.2-2.8v-3.7H58v3.5
		c0,1.2,0.4,2,1.4,2c0.8,0,1.3-0.5,1.5-1c0.1-0.2,0.1-0.4,0.1-0.6v-3.9h1.2V82.2z"/>
	<path class="st3" d="M65.4,75.8c0,0.4-0.3,0.7-0.7,0.7c-0.4,0-0.7-0.3-0.7-0.7s0.3-0.7,0.7-0.7C65.2,75.1,65.4,75.4,65.4,75.8z
		 M64.2,83.9v-6.3h1.1v6.3H64.2z"/>
	<path class="st3" d="M72.7,74.6v7.6c0,0.6,0,1.2,0.1,1.6h-1l-0.1-1.1l0,0c-0.4,0.7-1.1,1.2-2.2,1.2c-1.5,0-2.7-1.3-2.7-3.2
		c0-2.1,1.3-3.4,2.8-3.4c1,0,1.6,0.5,1.9,1l0,0v-3.8L72.7,74.6L72.7,74.6z M71.6,80.2c0-0.1,0-0.3-0.1-0.5c-0.2-0.7-0.8-1.3-1.7-1.3
		c-1.2,0-1.9,1-1.9,2.4c0,1.3,0.6,2.3,1.9,2.3c0.8,0,1.5-0.5,1.7-1.4c0-0.2,0.1-0.3,0.1-0.5V80.2z"/>
	<path class="st3" d="M75.2,81c0,1.6,1,2.2,2.2,2.2c0.8,0,1.3-0.1,1.7-0.3l0.2,0.8c-0.4,0.2-1.1,0.4-2.1,0.4c-1.9,0-3.1-1.3-3.1-3.2
		s1.1-3.4,3-3.4c2.1,0,2.6,1.8,2.6,3c0,0.2,0,0.4,0,0.5H75.2z M78.6,80.1c0-0.7-0.3-1.9-1.6-1.9c-1.2,0-1.7,1.1-1.8,1.9H78.6z"/>
	<path class="st3" d="M84.1,83.9v-5.4h-0.9v-0.9h0.9v-0.3c0-0.9,0.2-1.7,0.7-2.2c0.4-0.4,1-0.6,1.5-0.6c0.4,0,0.8,0.1,1,0.2
		l-0.2,0.9c-0.2-0.1-0.4-0.1-0.7-0.1c-1,0-1.2,0.9-1.2,1.8v0.3h1.5v0.9h-1.5v5.4H84.1z"/>
	<path class="st3" d="M93.2,80.7c0,2.3-1.6,3.3-3.1,3.3c-1.7,0-3-1.3-3-3.2c0-2.1,1.4-3.3,3.1-3.3C92.1,77.4,93.2,78.8,93.2,80.7z
		 M88.2,80.8c0,1.4,0.8,2.4,1.9,2.4s1.9-1,1.9-2.5c0-1.1-0.5-2.4-1.9-2.4C88.8,78.3,88.2,79.6,88.2,80.8z"/>
	<path class="st3" d="M94.7,79.6c0-0.7,0-1.4-0.1-2h1v1.2h0.1c0.3-0.8,1-1.4,1.7-1.4c0.1,0,0.2,0,0.3,0v1.1c-0.1,0-0.2,0-0.4,0
		c-0.8,0-1.4,0.6-1.5,1.5c0,0.2-0.1,0.3-0.1,0.5v3.4h-1.1L94.7,79.6L94.7,79.6z"/>
	<path class="st3" d="M103.1,75.8v1.8h1.6v0.9h-1.6v3.4c0,0.8,0.2,1.2,0.9,1.2c0.3,0,0.5,0,0.7-0.1l0.1,0.9c-0.2,0.1-0.6,0.2-1,0.2
		c-0.5,0-1-0.2-1.2-0.5c-0.3-0.3-0.4-0.9-0.4-1.6v-3.4h-1v-0.9h1v-1.5L103.1,75.8z"/>
	<path class="st3" d="M106.6,81c0,1.6,1,2.2,2.2,2.2c0.8,0,1.3-0.1,1.7-0.3l0.2,0.8c-0.4,0.2-1.1,0.4-2.1,0.4
		c-1.9,0-3.1-1.3-3.1-3.2s1.1-3.4,3-3.4c2.1,0,2.6,1.8,2.6,3c0,0.2,0,0.4,0,0.5H106.6z M109.9,80.1c0-0.7-0.3-1.9-1.6-1.9
		c-1.2,0-1.7,1.1-1.8,1.9H109.9z"/>
	<path class="st3" d="M116.9,83.7c-0.3,0.2-1,0.4-1.8,0.4c-1.9,0-3.1-1.3-3.1-3.2s1.3-3.3,3.4-3.3c0.7,0,1.3,0.2,1.6,0.3l-0.3,0.9
		c-0.3-0.2-0.7-0.3-1.3-0.3c-1.4,0-2.2,1.1-2.2,2.4c0,1.5,0.9,2.4,2.2,2.4c0.7,0,1.1-0.2,1.4-0.3L116.9,83.7z"/>
	<path class="st3" d="M118.2,74.6h1.1v3.9l0,0c0.2-0.3,0.5-0.6,0.8-0.8c0.3-0.2,0.7-0.3,1.2-0.3c0.8,0,2.2,0.5,2.2,2.7v3.8h-1.1
		v-3.6c0-1-0.4-1.9-1.5-1.9c-0.7,0-1.3,0.5-1.5,1.1c-0.1,0.2-0.1,0.3-0.1,0.5v3.9h-1.1V74.6z"/>
	<path class="st3" d="M125.6,79.3c0-0.7,0-1.2-0.1-1.7h1l0.1,1l0,0c0.3-0.6,1-1.2,2.1-1.2c0.9,0,2.2,0.5,2.2,2.7v3.8h-1.1v-3.6
		c0-1-0.4-1.9-1.5-1.9c-0.8,0-1.3,0.5-1.5,1.2c-0.1,0.1-0.1,0.3-0.1,0.5v3.8h-1.1L125.6,79.3L125.6,79.3z"/>
	<path class="st3" d="M134.1,75.8c0,0.4-0.3,0.7-0.7,0.7s-0.7-0.3-0.7-0.7s0.3-0.7,0.7-0.7S134.1,75.4,134.1,75.8z M132.8,83.9v-6.3
		h1.1v6.3H132.8z"/>
	<path class="st3" d="M140.2,83.7c-0.3,0.2-1,0.4-1.8,0.4c-1.9,0-3.1-1.3-3.1-3.2s1.3-3.3,3.4-3.3c0.7,0,1.3,0.2,1.6,0.3l-0.3,0.9
		c-0.3-0.2-0.7-0.3-1.3-0.3c-1.4,0-2.2,1.1-2.2,2.4c0,1.5,0.9,2.4,2.2,2.4c0.7,0,1.1-0.2,1.4-0.3L140.2,83.7z"/>
	<path class="st3" d="M145.1,83.9l-0.1-0.8l0,0c-0.4,0.5-1,0.9-1.9,0.9c-1.3,0-1.9-0.9-1.9-1.8c0-1.5,1.4-2.4,3.8-2.3v-0.1
		c0-0.5-0.1-1.5-1.4-1.5c-0.6,0-1.2,0.2-1.6,0.5l-0.3-0.8c0.5-0.3,1.3-0.6,2.1-0.6c1.9,0,2.4,1.3,2.4,2.6v2.4c0,0.5,0,1.1,0.1,1.5
		C146.4,83.9,145.1,83.9,145.1,83.9z M144.9,80.7c-1.3,0-2.7,0.2-2.7,1.4c0,0.7,0.5,1.1,1.1,1.1c0.8,0,1.3-0.5,1.5-1.1
		c0-0.1,0.1-0.2,0.1-0.4L144.9,80.7L144.9,80.7z"/>
	<path class="st3" d="M147.9,74.6h1.1v9.3h-1.1V74.6z"/>
	<path class="st3" d="M154.2,77.6l0.8,3.2c0.2,0.7,0.4,1.4,0.5,2l0,0c0.1-0.6,0.4-1.3,0.6-2l1-3.2h1l1,3.2c0.2,0.8,0.4,1.4,0.6,2.1
		l0,0c0.1-0.6,0.3-1.3,0.5-2l0.9-3.2h1.1l-2,6.3h-1l-1-3c-0.2-0.7-0.4-1.3-0.6-2.1l0,0c-0.2,0.8-0.4,1.4-0.6,2.1l-1,3h-1l-1.9-6.3
		L154.2,77.6L154.2,77.6z"/>
	<path class="st3" d="M163.4,79.6c0-0.7,0-1.4-0.1-2h1v1.2h0.1c0.3-0.8,1-1.4,1.7-1.4c0.1,0,0.2,0,0.3,0v1.1c-0.1,0-0.2,0-0.4,0
		c-0.8,0-1.4,0.6-1.5,1.5c0,0.2-0.1,0.3-0.1,0.5v3.4h-1.1v-4.3H163.4z"/>
	<path class="st3" d="M168.9,75.8c0,0.4-0.3,0.7-0.7,0.7s-0.7-0.3-0.7-0.7s0.3-0.7,0.7-0.7S168.9,75.4,168.9,75.8z M167.6,83.9v-6.3
		h1.1v6.3H167.6z"/>
	<path class="st3" d="M172.1,75.8v1.8h1.6v0.9h-1.6v3.4c0,0.8,0.2,1.2,0.9,1.2c0.3,0,0.5,0,0.7-0.1l0.1,0.9c-0.2,0.1-0.6,0.2-1,0.2
		c-0.5,0-1-0.2-1.2-0.5c-0.3-0.3-0.4-0.9-0.4-1.6v-3.4h-1v-0.9h1v-1.5L172.1,75.8z"/>
	<path class="st3" d="M175.6,81c0,1.6,1,2.2,2.2,2.2c0.8,0,1.3-0.1,1.7-0.3l0.2,0.8c-0.4,0.2-1.1,0.4-2.1,0.4
		c-1.9,0-3.1-1.3-3.1-3.2s1.1-3.4,3-3.4c2.1,0,2.6,1.8,2.6,3c0,0.2,0,0.4,0,0.5H175.6z M178.9,80.1c0-0.7-0.3-1.9-1.6-1.9
		c-1.2,0-1.7,1.1-1.8,1.9H178.9z"/>
	<path class="st3" d="M181.4,79.6c0-0.7,0-1.4-0.1-2h1v1.2h0.1c0.3-0.8,1-1.4,1.7-1.4c0.1,0,0.2,0,0.3,0v1.1c-0.1,0-0.2,0-0.4,0
		c-0.8,0-1.4,0.6-1.5,1.5c0,0.2-0.1,0.3-0.1,0.5v3.4h-1.1v-4.3H181.4z"/>
	<path class="st3" d="M185.6,82.7c0.3,0.2,0.9,0.5,1.5,0.5c0.8,0,1.2-0.4,1.2-0.9s-0.3-0.8-1.2-1.2c-1.1-0.4-1.7-1-1.7-1.8
		c0-1,0.8-1.9,2.2-1.9c0.6,0,1.2,0.2,1.6,0.4l-0.3,0.8c-0.2-0.2-0.7-0.4-1.3-0.4c-0.7,0-1.1,0.4-1.1,0.9s0.4,0.8,1.2,1.1
		c1.1,0.4,1.7,1,1.7,1.9c0,1.1-0.9,1.9-2.4,1.9c-0.7,0-1.3-0.2-1.8-0.4L185.6,82.7z"/>
</g>
<g>
	<g>
		<path d="M54.1,12.5H58c4.4,0,7.1,2.5,7.1,7.4c0,5-2.7,7.6-7,7.6h-4.1V12.5z M57.8,25.4c2.9,0,4.5-1.7,4.5-5.4
			c0-3.7-1.6-5.3-4.5-5.3h-1.1v10.7H57.8z"/>
		<path d="M67.3,21.9c0-3.8,2.7-5.9,5.7-5.9s5.7,2.2,5.7,5.9c0,3.7-2.7,5.9-5.7,5.9S67.3,25.6,67.3,21.9z M75.9,21.9
			c0-2.3-1.1-3.8-2.9-3.8S70,19.6,70,21.9c0,2.3,1.1,3.7,2.9,3.7S75.9,24.2,75.9,21.9z"/>
		<path d="M81.5,21.9c0-3.8,3-5.9,6.4-5.9c1.8,0,3.2,0.7,4.2,1.6l-1.3,1.7c-0.9-0.7-1.8-1.1-2.8-1.1c-2.3,0-3.8,1.5-3.8,3.8
			c0,2.3,1.5,3.7,3.7,3.7c1.3,0,2.4-0.6,3.2-1.2l1.1,1.7c-1.3,1.1-3,1.7-4.6,1.7C84.2,27.8,81.5,25.6,81.5,21.9z"/>
		<path d="M95.2,23.2v-7h2.7v6.6c0,1.8,0.6,2.6,2.1,2.6c1.1,0,1.8-0.4,2.8-1.7v-7.6h2.7v11.3h-2.2l-0.2-1.8H103
			c-1.1,1.2-2.3,2.1-4,2.1C96.4,27.8,95.2,26.1,95.2,23.2z"/>
		<path d="M108.5,16.2h2l0.2,1.4h0.1c0.5-1,1.2-1.7,2.5-1.7c1,0,1.8,0.6,2,1.9c0.5-1.1,1.3-1.9,2.6-1.9c1.6,0,2.5,1.3,2.5,3.6v8
			h-2.6v-7.8c0-1-0.3-1.5-0.9-1.5c-0.6,0-1,0.5-1.4,1.4v7.9h-2.2v-7.8c0-1-0.3-1.5-0.9-1.5c-0.6,0-1,0.5-1.4,1.4v7.9h-2.6V16.2z"/>
		<path d="M122.7,21.9c0-3.7,2.8-5.9,5.8-5.9c3.4,0,5.2,2.2,5.2,5.4c0,0.5-0.1,1-0.1,1.3h-9v-1.9h7.3l-0.5,0.6c0-2.2-1-3.4-2.8-3.4
			c-1.9,0-3.3,1.3-3.3,3.9c0,2.6,1.6,3.9,3.9,3.9c1.2,0,2.2-0.3,3.2-0.9l0.9,1.6c-1.2,0.8-2.8,1.3-4.4,1.3
			C125.4,27.8,122.7,25.6,122.7,21.9z"/>
		<path d="M136.9,16.2h2.2l0.2,1.7h0.1c1.1-1.1,2.4-2,4.1-2c2.6,0,3.8,1.7,3.8,4.6v7h-2.7v-6.6c0-1.8-0.6-2.6-2.1-2.6
			c-1.1,0-1.9,0.5-2.9,1.6v7.7h-2.7V16.2z"/>
		<path d="M153.2,23v-4.6h-3v-2l3.1-0.1l0.3-3.5h2.2v3.5h5.1v2.1h-5.1V23c0,1.9,0.7,2.7,2.6,2.7c0.9,0,1.7-0.2,2.5-0.5l0.5,1.9
			c-1,0.3-2.2,0.6-3.6,0.6C154.4,27.8,153.2,25.9,153.2,23z"/>
		<path d="M169.5,18.3h-4.9v-2.1h7.5v11.3h-2.7V18.3z M168.7,12.4c0-1.1,0.8-1.8,1.9-1.8c1.1,0,1.9,0.7,1.9,1.8
			c0,1.1-0.8,1.8-1.9,1.8C169.5,14.2,168.7,13.5,168.7,12.4z"/>
		<path d="M178.3,16.2h2.2l0.2,1.7h0.1c1.1-1.1,2.4-2,4.1-2c2.6,0,3.8,1.7,3.8,4.6v7H186v-6.6c0-1.8-0.6-2.6-2.1-2.6
			c-1.1,0-1.9,0.5-2.9,1.6v7.7h-2.7V16.2z"/>
		<path d="M191.7,29.5c0-0.9,0.6-1.7,1.8-2.4V27c-0.6-0.4-1.2-0.9-1.2-1.9c0-0.7,0.5-1.6,1.4-2.1v-0.1c-0.8-0.6-1.4-1.6-1.4-2.9
			c0-2.6,2.2-4.1,4.6-4.1c0.7,0,1.2,0.1,1.8,0.3h4.6v2h-2.6c0.4,0.4,0.7,1.1,0.7,1.9c0,2.5-2,3.8-4.5,3.8c-0.5,0-1.1-0.1-1.7-0.3
			c-0.5,0.3-0.7,0.6-0.7,1.1c0,0.7,0.7,1.1,2.1,1.1h2.3c2.9,0,4.4,0.8,4.4,2.8c0,2.2-2.5,4-6.5,4C193.7,32.5,191.7,31.5,191.7,29.5z
			 M200.8,29c0-0.9-0.8-1.1-2.3-1.1h-1.8c-0.7,0-1.3,0-1.7-0.2c-0.8,0.5-1.1,1-1.1,1.5c0,1,1.2,1.6,3.3,1.6
			C199.4,30.8,200.8,29.9,200.8,29z M199,20c0-1.4-1-2.2-2.1-2.2c-1.2,0-2.1,0.9-2.1,2.2c0,1.4,1,2.3,2.1,2.3
			C198.1,22.3,199,21.4,199,20z"/>
		<path d="M223.2,12.5h3.2l4.9,15h-2.8l-2.3-8c-0.5-1.6-0.9-3.3-1.3-5h-0.1c-0.4,1.7-0.9,3.4-1.3,5l-2.3,8h-2.7L223.2,12.5z
			 M221.2,21.4h7v2.1h-7V21.4z"/>
		<path d="M233.7,12.5h4.9c3.3,0,5.7,1.2,5.7,4.6c0,3.4-2.5,4.9-5.7,4.9h-2.3v5.5h-2.7V12.5z M238.4,19.9c2.2,0,3.3-0.9,3.3-2.7
			c0-1.9-1.1-2.5-3.3-2.5h-2.1v5.2H238.4z"/>
		<path d="M247.4,25.3h3.6V14.7h-3.6v-2.2h9.9v2.2h-3.6v10.5h3.6v2.2h-9.9V25.3z"/>
		<path d="M260.7,26.1l1.2-1.7c1.3,0.9,2.9,1.4,4.7,1.4c1.6,0,2.3-0.6,2.3-1.3c0-0.7-0.5-1.2-3.1-1.7c-3-0.6-4.4-1.7-4.4-3.4
			c0-2,1.8-3.4,4.9-3.4c1.9,0,3.6,0.7,4.7,1.5l-1.2,1.6c-1.1-0.7-2.4-1.1-3.7-1.1c-1.5,0-2.1,0.6-2.1,1.3c0,0.8,0.8,1.1,2.9,1.5
			c3.6,0.8,4.5,1.8,4.5,3.6c0,1.9-1.9,3.5-5.3,3.5C264.1,27.8,262.1,27,260.7,26.1z"/>
	</g>
</g>
<g>
	<g>
		<path class="st4" d="M54.1,43.1c0-1.2,1.1-1.8,3.7-2c0-0.6-0.4-1.1-1.3-1.1c-0.6,0-1.2,0.3-1.8,0.6l-0.5-0.8
			c0.7-0.4,1.5-0.8,2.5-0.8c1.5,0,2.3,0.8,2.3,2.3v3.2h-1L58,43.8h0c-0.6,0.4-1.3,0.8-2,0.8C54.9,44.6,54.1,44,54.1,43.1z M57.9,43
			v-1.1c-1.9,0.1-2.5,0.5-2.5,1.1c0,0.5,0.4,0.7,1,0.7C56.9,43.6,57.4,43.4,57.9,43z"/>
		<path class="st4" d="M67.2,45.5c0-0.4,0.3-0.8,0.9-1.1v0c-0.3-0.2-0.5-0.4-0.5-0.9c0-0.4,0.2-0.7,0.6-1v0
			c-0.4-0.3-0.7-0.8-0.7-1.4c0-1.2,1-1.9,2.2-1.9c0.3,0,0.6,0,0.8,0.1h2.2v1h-1.2c0.2,0.2,0.3,0.5,0.3,0.9c0,1.2-0.9,1.8-2.2,1.8
			c-0.2,0-0.5-0.1-0.8-0.2c-0.2,0.1-0.3,0.3-0.3,0.5c0,0.4,0.3,0.5,1,0.5h1.1c1.4,0,2.1,0.4,2.1,1.3c0,1.1-1.2,1.9-3.1,1.9
			C68.2,46.9,67.2,46.4,67.2,45.5z M71.6,45.2c0-0.4-0.4-0.5-1.1-0.5h-0.9c-0.4,0-0.6,0-0.8-0.1c-0.4,0.2-0.5,0.5-0.5,0.7
			c0,0.5,0.6,0.8,1.6,0.8C70.9,46.1,71.6,45.7,71.6,45.2z M70.7,40.9c0-0.7-0.5-1.1-1-1.1c-0.6,0-1,0.4-1,1.1c0,0.7,0.5,1.1,1,1.1
			C70.3,42,70.7,41.6,70.7,40.9z"/>
		<path class="st4" d="M73.9,42.5v-3.3h1.3v3.2c0,0.9,0.3,1.3,1,1.3c0.5,0,0.9-0.2,1.4-0.8v-3.6h1.3v5.4h-1l-0.1-0.9h0
			c-0.5,0.6-1.1,1-1.9,1C74.5,44.6,73.9,43.8,73.9,42.5z"/>
		<path class="st4" d="M83,40.1h-2.3v-1h3.6v5.4H83V40.1z M82.7,37.3c0-0.5,0.4-0.9,0.9-0.9s0.9,0.4,0.9,0.9c0,0.5-0.4,0.8-0.9,0.8
			S82.7,37.8,82.7,37.3z"/>
		<path class="st4" d="M86.9,41.8c0-1.8,1.2-2.8,2.4-2.8c0.6,0,1.1,0.2,1.5,0.6h0l-0.1-0.9v-2H92v7.8h-1l-0.1-0.6h0
			c-0.4,0.4-1,0.8-1.6,0.8C87.9,44.6,86.9,43.6,86.9,41.8z M90.8,42.9v-2.4C90.4,40.2,90,40,89.6,40c-0.8,0-1.4,0.6-1.4,1.8
			c0,1.2,0.5,1.8,1.3,1.8C90,43.6,90.4,43.4,90.8,42.9z"/>
		<path class="st4" d="M93.6,41.8c0-1.8,1.3-2.8,2.8-2.8c1.6,0,2.5,1.1,2.5,2.6c0,0.3,0,0.5-0.1,0.6h-4.3v-0.9H98l-0.2,0.3
			c0-1.1-0.5-1.6-1.3-1.6c-0.9,0-1.6,0.6-1.6,1.8c0,1.3,0.8,1.9,1.9,1.9c0.6,0,1-0.2,1.5-0.4l0.4,0.8c-0.6,0.4-1.3,0.6-2.1,0.6
			C94.9,44.6,93.6,43.6,93.6,41.8z"/>
		<path class="st4" d="M107.2,39.2l1.5-0.1h3.3v1h-4.8V39.2z M108.7,38.8c0-1.3,0.7-2.2,2.3-2.2c0.6,0,1.1,0.1,1.6,0.3l-0.3,0.9
			c-0.4-0.2-0.8-0.2-1.2-0.2c-0.8,0-1.2,0.4-1.2,1.2v5.7h-1.3V38.8z"/>
		<path class="st4" d="M113.3,41.8c0-1.8,1.3-2.8,2.7-2.8s2.7,1,2.7,2.8c0,1.8-1.3,2.8-2.7,2.8S113.3,43.6,113.3,41.8z M117.5,41.8
			c0-1.1-0.5-1.8-1.4-1.8s-1.4,0.7-1.4,1.8c0,1.1,0.5,1.8,1.4,1.8S117.5,42.9,117.5,41.8z"/>
		<path class="st4" d="M120.8,39.1h1l0.1,1.2h0c0.5-0.9,1.4-1.4,2.3-1.4c0.4,0,0.7,0.1,1.1,0.2l-0.3,1.1c-0.4-0.1-0.6-0.2-1-0.2
			c-0.7,0-1.5,0.4-2,1.4v3h-1.3V39.1z"/>
		<path class="st4" d="M134.6,42.3v-2.2h-1.4v-0.9l1.5-0.1l0.2-1.7h1.1v1.7h2.5v1h-2.5v2.2c0,0.9,0.3,1.3,1.2,1.3
			c0.5,0,0.8-0.1,1.2-0.2l0.2,0.9c-0.5,0.2-1,0.3-1.7,0.3C135.2,44.6,134.6,43.7,134.6,42.3z"/>
		<path class="st4" d="M139.8,41.8c0-1.8,1.3-2.8,2.8-2.8c1.6,0,2.5,1.1,2.5,2.6c0,0.3,0,0.5-0.1,0.6h-4.3v-0.9h3.5l-0.2,0.3
			c0-1.1-0.5-1.6-1.3-1.6c-0.9,0-1.6,0.6-1.6,1.8c0,1.3,0.8,1.9,1.9,1.9c0.6,0,1-0.2,1.5-0.4l0.4,0.8c-0.6,0.4-1.3,0.6-2.1,0.6
			C141.1,44.6,139.8,43.6,139.8,41.8z"/>
		<path class="st4" d="M146.6,41.8c0-1.8,1.4-2.8,3.1-2.8c0.9,0,1.5,0.3,2,0.8l-0.6,0.8c-0.4-0.3-0.8-0.5-1.3-0.5
			c-1.1,0-1.8,0.7-1.8,1.8c0,1.1,0.7,1.8,1.8,1.8c0.6,0,1.1-0.3,1.5-0.6l0.5,0.8c-0.6,0.5-1.4,0.8-2.2,0.8
			C147.8,44.6,146.6,43.6,146.6,41.8z"/>
		<path class="st4" d="M153.3,36.7h1.3v2l-0.1,1.2h0c0.5-0.5,1.1-0.9,1.9-0.9c1.2,0,1.8,0.8,1.8,2.2v3.3h-1.3v-3.2
			c0-0.9-0.3-1.3-1-1.3c-0.5,0-0.9,0.3-1.4,0.8v3.7h-1.3V36.7z"/>
		<path class="st4" d="M159.9,39.1h1l0.1,0.8h0c0.5-0.5,1.1-0.9,1.9-0.9c1.2,0,1.8,0.8,1.8,2.2v3.3h-1.3v-3.2c0-0.9-0.3-1.3-1-1.3
			c-0.5,0-0.9,0.3-1.4,0.8v3.7h-1.3V39.1z"/>
		<path class="st4" d="M168.8,40.1h-2.3v-1h3.6v5.4h-1.3V40.1z M168.5,37.3c0-0.5,0.4-0.9,0.9-0.9c0.5,0,0.9,0.4,0.9,0.9
			c0,0.5-0.4,0.8-0.9,0.8C168.8,38.1,168.5,37.8,168.5,37.3z"/>
		<path class="st4" d="M173,41.8c0-1.8,1.4-2.8,3.1-2.8c0.9,0,1.5,0.3,2,0.8l-0.6,0.8c-0.4-0.3-0.9-0.5-1.3-0.5
			c-1.1,0-1.8,0.7-1.8,1.8c0,1.1,0.7,1.8,1.8,1.8c0.6,0,1.1-0.3,1.5-0.6l0.5,0.8c-0.6,0.5-1.4,0.8-2.2,0.8
			C174.2,44.6,173,43.6,173,41.8z"/>
		<path class="st4" d="M179.5,43.1c0-1.2,1.1-1.8,3.7-2c0-0.6-0.4-1.1-1.3-1.1c-0.6,0-1.2,0.3-1.8,0.6l-0.5-0.8
			c0.7-0.4,1.5-0.8,2.5-0.8c1.5,0,2.3,0.8,2.3,2.3v3.2h-1l-0.1-0.7h0c-0.6,0.4-1.3,0.8-2,0.8C180.3,44.6,179.5,44,179.5,43.1z
			 M183.3,43v-1.1c-1.9,0.1-2.5,0.5-2.5,1.1c0,0.5,0.4,0.7,1,0.7C182.3,43.6,182.8,43.4,183.3,43z"/>
		<path class="st4" d="M187.8,42.5v-4.8H186v-1h3.1v5.9c0,0.7,0.4,1,1,1c0.3,0,0.6-0.1,0.9-0.2l0.3,0.9c-0.5,0.2-0.9,0.3-1.5,0.3
			C188.5,44.6,187.8,43.9,187.8,42.5z"/>
		<path class="st4" d="M198.6,39.1h1.2l0.5,2.8c0.1,0.5,0.1,1,0.2,1.5h0c0.1-0.5,0.2-1,0.3-1.5l0.5-2.3h1l0.5,2.3
			c0.1,0.5,0.2,1,0.3,1.5h0c0.1-0.5,0.1-1,0.2-1.5l0.5-2.8h1.2l-1,5.4h-1.5l-0.5-2.2c-0.1-0.4-0.2-0.9-0.2-1.6h0
			c-0.1,0.6-0.1,1.1-0.2,1.6l-0.4,2.2h-1.5L198.6,39.1z"/>
		<path class="st4" d="M206.6,39.1h1l0.1,1.2h0c0.5-0.9,1.4-1.4,2.3-1.4c0.4,0,0.7,0.1,1.1,0.2l-0.3,1.1c-0.4-0.1-0.6-0.2-1-0.2
			c-0.7,0-1.5,0.4-2,1.4v3h-1.3V39.1z"/>
		<path class="st4" d="M215,40.1h-2.3v-1h3.6v5.4H215V40.1z M214.7,37.3c0-0.5,0.4-0.9,0.9-0.9c0.5,0,0.9,0.4,0.9,0.9
			c0,0.5-0.4,0.8-0.9,0.8C215,38.1,214.7,37.8,214.7,37.3z"/>
		<path class="st4" d="M220.4,42.3v-2.2H219v-0.9l1.5-0.1l0.2-1.7h1.1v1.7h2.5v1h-2.5v2.2c0,0.9,0.3,1.3,1.2,1.3
			c0.5,0,0.8-0.1,1.2-0.2l0.2,0.9c-0.5,0.2-1,0.3-1.7,0.3C221,44.6,220.4,43.7,220.4,42.3z"/>
		<path class="st4" d="M225.6,41.8c0-1.8,1.3-2.8,2.8-2.8c1.6,0,2.5,1.1,2.5,2.6c0,0.3,0,0.5-0.1,0.6h-4.3v-0.9h3.5l-0.2,0.3
			c0-1.1-0.5-1.6-1.3-1.6c-0.9,0-1.6,0.6-1.6,1.8c0,1.3,0.8,1.9,1.9,1.9c0.6,0,1-0.2,1.5-0.4l0.4,0.8c-0.6,0.4-1.3,0.6-2.1,0.6
			C226.9,44.6,225.6,43.6,225.6,41.8z"/>
		<path class="st4" d="M233,39.1h1l0.1,1.2h0c0.5-0.9,1.4-1.4,2.3-1.4c0.4,0,0.7,0.1,1.1,0.2l-0.3,1.1c-0.4-0.1-0.6-0.2-1-0.2
			c-0.7,0-1.5,0.4-2,1.4v3H233V39.1z"/>
		<path class="st4" d="M238.8,43.8l0.6-0.8c0.6,0.4,1.4,0.7,2.3,0.7c0.7,0,1.1-0.3,1.1-0.6c0-0.4-0.2-0.6-1.5-0.8
			c-1.4-0.3-2.1-0.8-2.1-1.6c0-0.9,0.9-1.6,2.4-1.6c0.9,0,1.7,0.4,2.3,0.7l-0.6,0.8c-0.5-0.3-1.1-0.5-1.8-0.5c-0.7,0-1,0.3-1,0.6
			c0,0.4,0.4,0.5,1.4,0.7c1.7,0.4,2.2,0.8,2.2,1.7c0,0.9-0.9,1.7-2.5,1.7C240.5,44.6,239.5,44.3,238.8,43.8z"/>
	</g>
</g>
</svg>
