<?xml version="1.0" encoding="utf-8"?>
<!-- Generator: Adobe Illustrator 17.1.0, SVG Export Plug-In . SVG Version: 6.00 Build 0)  -->
<!DOCTYPE svg PUBLIC "-//W3C//DTD SVG 1.1//EN" "http://www.w3.org/Graphics/SVG/1.1/DTD/svg11.dtd">
<svg version="1.1" id="Layer_1" xmlns="http://www.w3.org/2000/svg" xmlns:xlink="http://www.w3.org/1999/xlink" x="0px" y="0px"
	 viewBox="0 0 292.7 54.7" enable-background="new 0 0 292.7 54.7" xml:space="preserve">
<text transform="matrix(1 0 0 1 39.764 28.821)" font-family="'SourceSansPro-Bold'" font-size="30">Documenting APIs</text>
<path fill="#FF970A" d="M31.1,12.4c-0.6,0-1-0.5-1-1c0-0.6,0.5-1,1-1c0.6,0,1,0.5,1,1C32.1,11.9,31.6,12.4,31.1,12.4z M27.4,12.4
	c-0.6,0-1-0.5-1-1c0-0.6,0.5-1,1-1c0.6,0,1,0.5,1,1C28.4,11.9,28,12.4,27.4,12.4z M23.8,12.4c-0.6,0-1-0.5-1-1c0-0.6,0.5-1,1-1
	c0.6,0,1,0.5,1,1C24.8,11.9,24.3,12.4,23.8,12.4z M15.5,12.5H9.6c-0.4,0-0.7-0.3-0.7-0.7S9.2,11,9.6,11h5.9c0.4,0,0.7,0.3,0.7,0.7
	S15.9,12.5,15.5,12.5z M31.6,8.1H10c-1.6,0-2.9,1.1-2.9,2.7V14h27.5v-3.1C34.5,9.2,33.2,8.1,31.6,8.1z"/>
<path fill="#FF970A" d="M25.6,29h-1.5c-0.4,0-0.7-0.4-0.7-0.7s0.3-0.7,0.7-0.7h1.5c1.2,0,2.2-1,2.2-2.2c0-1.2-1-2.2-2.2-2.2h-0.3
	c-0.3,0-0.5-0.2-0.6-0.4c-0.3-0.6-0.9-1-1.5-1c-0.3,0-0.6,0.1-0.8,0.2C22.2,22,22,22.1,21.8,22c-0.2-0.1-0.3-0.2-0.4-0.3
	c-0.5-0.9-1.5-1.5-2.5-1.5c-1.5,0-2.7,1.1-2.8,2.6c0,0.3-0.2,0.5-0.4,0.6c-0.9,0.3-1.4,1.1-1.4,2c0,1.2,1,2.2,2.2,2.2h1.5
	c0.4,0,0.7,0.4,0.7,0.7c0,0.4-0.3,0.7-0.7,0.7h-1.5c-2,0-3.5-1.6-3.5-3.6c0-1.3,0.8-2.6,1.9-3.2c0.4-2,2.1-3.4,4.1-3.4
	c1.4,0,2.6,0.6,3.4,1.7c0.3-0.1,0.6-0.2,0.9-0.2c1.1,0,2,0.6,2.6,1.4c1.9,0.1,3.4,1.7,3.4,3.6C29.1,27.3,27.6,29,25.6,29L25.6,29z
	 M23.8,30.6l-2.2,2.2C21.4,33,21.2,33,21.1,33h0c-0.2,0-0.3,0-0.5-0.2l0,0c0,0,0,0,0,0v0c0,0,0,0,0,0l-2.2-2.2c-0.3-0.3-0.3-0.7,0-1
	c0.3-0.3,0.6-0.3,0.9,0l1,1.1v-4.1c0-0.4,0.4-0.7,0.7-0.7c0.4,0,0.7,0.3,0.7,0.7v4.1l1.1-1.1c0.3-0.3,0.7-0.3,1,0
	C24,29.9,24,30.4,23.8,30.6L23.8,30.6z M7.1,15.4v17c0,1.6,1.3,3.1,2.9,3.1h21.6c1.6,0,2.9-1.5,2.9-3.1v-17H7.1z"/>
<text transform="matrix(1 0 0 1 42.4962 46.9998)" fill="#444444" font-family="'MyriadPro-Regular'" font-size="13.0277">a guide for technical writers</text>
</svg>
