<?xml version="1.0" encoding="utf-8"?>
<!-- Generator: Adobe Illustrator 17.1.0, SVG Export Plug-In . SVG Version: 6.00 Build 0)  -->
<!DOCTYPE svg PUBLIC "-//W3C//DTD SVG 1.1//EN" "http://www.w3.org/Graphics/SVG/1.1/DTD/svg11.dtd">
<svg version="1.1" id="Layer_1" xmlns="http://www.w3.org/2000/svg" xmlns:xlink="http://www.w3.org/1999/xlink" x="0px" y="0px"
	 viewBox="0 0 250 38.7" enable-background="new 0 0 250 38.7" xml:space="preserve">
<text transform="matrix(1 0 0 1 37.0274 33.0431)" font-family="'SourceSansPro-Bold'" font-size="25">Documenting APIs</text>
<path fill="#FF970A" d="M27.2,11.7c-0.5,0-0.9-0.4-0.9-0.9c0-0.5,0.4-0.9,0.9-0.9c0.5,0,0.9,0.4,0.9,0.9
	C28.1,11.3,27.7,11.7,27.2,11.7z M23.8,11.7c-0.5,0-0.9-0.4-0.9-0.9c0-0.5,0.4-0.9,0.9-0.9c0.5,0,0.9,0.4,0.9,0.9
	C24.8,11.3,24.3,11.7,23.8,11.7z M20.4,11.7c-0.5,0-0.9-0.4-0.9-0.9c0-0.5,0.4-0.9,0.9-0.9c0.5,0,0.9,0.4,0.9,0.9
	C21.4,11.3,21,11.7,20.4,11.7z M12.8,11.9H7.4c-0.4,0-0.7-0.3-0.7-0.7s0.3-0.7,0.7-0.7h5.4c0.4,0,0.7,0.3,0.7,0.7
	S13.2,11.9,12.8,11.9z M27.7,7.8H7.8c-1.5,0-2.7,1-2.7,2.5v2.9h25.3v-2.9C30.4,8.8,29.2,7.8,27.7,7.8z"/>
<path fill="#FF970A" d="M22.1,27h-1.4c-0.3,0-0.6-0.3-0.6-0.7c0-0.3,0.3-0.7,0.6-0.7h1.4c1.1,0,2-0.9,2-2c0-1.1-0.9-2-2-2h-0.3
	c-0.3,0-0.5-0.1-0.6-0.4c-0.2-0.6-0.8-0.9-1.4-0.9c-0.3,0-0.5,0.1-0.8,0.2c-0.1,0.1-0.3,0.1-0.5,0.1c-0.2,0-0.3-0.2-0.4-0.3
	c-0.5-0.9-1.3-1.4-2.3-1.4c-1.4,0-2.5,1-2.6,2.4c0,0.2-0.2,0.4-0.4,0.5c-0.8,0.3-1.3,1-1.3,1.9c0,1.1,0.9,2,2,2H15
	c0.3,0,0.6,0.3,0.6,0.7c0,0.3-0.3,0.7-0.6,0.7h-1.4c-1.8,0-3.3-1.5-3.3-3.3c0-1.2,0.7-2.4,1.8-2.9c0.3-1.8,1.9-3.2,3.8-3.2
	c1.2,0,2.4,0.6,3.1,1.6c0.3-0.1,0.6-0.1,0.9-0.1c1,0,1.9,0.5,2.4,1.3c1.7,0.1,3.1,1.5,3.1,3.3C25.4,25.5,23.9,27,22.1,27L22.1,27z
	 M20.5,28.6l-2.1,2c-0.1,0.1-0.3,0.2-0.4,0.2h0c-0.2,0-0.3,0-0.4-0.1l0,0c0,0,0,0,0,0v0c0,0,0,0,0,0l-2.1-2.1
	c-0.2-0.2-0.2-0.6,0-0.9c0.2-0.2,0.6-0.2,0.8,0l0.9,1v-3.8c0-0.3,0.3-0.6,0.7-0.6c0.3,0,0.7,0.3,0.7,0.6v3.8l1-1
	c0.2-0.2,0.6-0.2,0.9,0C20.7,27.9,20.7,28.3,20.5,28.6L20.5,28.6z M5.1,14.6v15.7c0,1.5,1.2,2.9,2.7,2.9h19.9c1.5,0,2.7-1.4,2.7-2.9
	V14.6H5.1z"/>
</svg>
