<?xml version="1.0" encoding="utf-8"?>
<!-- Generator: Adobe Illustrator 17.1.0, SVG Export Plug-In . SVG Version: 6.00 Build 0)  -->
<!DOCTYPE svg PUBLIC "-//W3C//DTD SVG 1.1//EN" "http://www.w3.org/Graphics/SVG/1.1/DTD/svg11.dtd">
<svg version="1.1" id="Layer_1" xmlns="http://www.w3.org/2000/svg" xmlns:xlink="http://www.w3.org/1999/xlink" x="0px" y="0px"
	 viewBox="0 0 556.2 349.6" enable-background="new 0 0 556.2 349.6" xml:space="preserve">
<rect fill="#FFFFFF" width="556" height="350"/>
<path d="M177,288.3h-25.1c-2,0-3.7-1.6-3.7-3.7s1.6-3.7,3.7-3.7h19.7c-1.3-1.5-3.4-3-6.1-4c-1.4-0.5-2.4-1.9-2.4-3.4l0-6.5
	c0-2,1.6-3.7,3.7-3.7h40.1c1.1,0,1.7-2.1,1.7-3.6v-7.4H125c-2,0-3.7-1.6-3.7-3.7c0-2,1.6-3.7,3.7-3.7h83.6v-58.4
	c0-1.5-0.1-1.7-1.7-1.7h-75.4c-2,0-3.7-1.6-3.7-3.7s1.6-3.7,3.7-3.7h75.4c5.6,0,9,3.5,9,9v73.2c0,6.3-3.8,11-9,11l-36.4,0v0.4
	c6.2,3.1,10.2,8.3,10.2,13.5C180.6,286.7,179,288.3,177,288.3L177,288.3z M70.7,237.5c1.9,3.3,4.6,3.6,6,3.6
	c1.8-1.4,5.5-3.5,12.4-4.1c3.5-0.3,6.3,0.8,8.6,1.8c3.1,1.2,3.8,1.5,5.1-0.4c0.2-0.5,0.6-1.1,1.1-1.7c3.6-5.6,9.8-20.1,12.2-27.2
	c2.3-7,1.5-19.9-4.6-30.1c-5.6-9.3-15.1-15-21.2-12.7c-0.4,0.2-1.1,1.2-1.6,1.9c-1.3,1.7-3,4.1-6,4.5c-2,0.3-4.1-0.4-6.2-2
	c-0.5-0.4-1.5-0.4-2.8-0.1c-4.2,1.1-10.4,5.9-13.5,12.7c-4.1,9-2.3,25.4-1.6,29c1.6,8.6,9.1,20.5,11.9,24.4c0,0.1,0.1,0.1,0.1,0.2
	C70.6,237.4,70.7,237.4,70.7,237.5L70.7,237.5z M70.3,246.9l-0.4,5.9c7.1,0,22.2-0.1,34.2-0.1l-0.8-6.1c-3.2,1-6.3-0.2-8.5-1.1
	c-1.8-0.7-3.5-1.4-5.3-1.3c-6.4,0.6-8.6,2.7-8.6,2.7c-0.5,0.6-1.1,1-1.9,1.2C77.2,248.6,73.7,248.6,70.3,246.9L70.3,246.9z
	 M38.1,295.2h98.5c-1.3-7.9-4.3-23-5.8-25.9c-5.7-4.8-18.1-8.3-22.9-9.3c-15.2,0-38.5,0.1-41.5,0.1c-4.9,0.9-17.7,4.1-23.2,9.1
	C41.8,272.1,39.1,287.7,38.1,295.2L38.1,295.2z M140.8,302.5H34.1c-2,0-3.7-1.6-3.7-3.7c0-1.2,3.5-30.9,7.4-34.7
	c6.3-6.2,19-9.5,24.7-10.8l0.9-13.5c-4-5.9-10.5-17.1-12.1-25.9c0-0.2-3.5-20.8,2.2-33.3c3.7-8.1,11.2-15,18.3-16.8
	c4.5-1.1,7.4,0.1,9,1.3c0.3,0.2,0.5,0.4,0.7,0.5c0.3-0.3,0.8-1,1.2-1.5c1.1-1.5,2.5-3.5,4.9-4.4c10.8-4.1,23.6,5,30.1,15.8
	c7.7,12.7,8.1,27.7,5.3,36.2c-2.2,6.8-8.5,22-12.9,28.8l1.6,12.9c5.3,1.3,17.6,4.9,24.2,10.6c4.2,3.7,8.6,34.1,8.7,34.4
	c0.1,1-0.2,2.1-0.9,2.9C142.9,302.1,141.9,302.5,140.8,302.5L140.8,302.5z"/>
<path fill="#FF931E" d="M177.1,197v8.3l13.3,10.4l-13.3,10.4v8.3l0.9-0.7l19.8-15.4l1.3-1v-3.2l-1.3-1L178,197.7L177.1,197z
	 M150.7,197l-0.9,0.7l-19.8,15.4l-1.3,1v3.2l1.3,1l19.8,15.4l0.9,0.7v-8.3l-13.3-10.4l13.3-10.4V197z M166.3,190.4l-0.1,0.3
	l-11,48.4l-0.4,1.9h6.8l0.1-0.3l11-48.4l0.4-1.9H166.3z"/>
<path d="M479.5,284.3h-25.1c-2,0-3.7-1.6-3.7-3.7s1.6-3.7,3.7-3.7h19.7c-1.3-1.5-3.4-3-6.1-4c-1.4-0.5-2.4-1.9-2.4-3.4l0-6.5
	c0-2,1.6-3.7,3.7-3.7h40.1c1.1,0,1.7-2.1,1.7-3.6v-7.4h-83.6c-2,0-3.7-1.6-3.7-3.7c0-2,1.6-3.7,3.7-3.7h83.6v-58.4
	c0-1.5-0.1-1.7-1.7-1.7H434c-2,0-3.7-1.6-3.7-3.7s1.6-3.7,3.7-3.7h75.4c5.6,0,9,3.5,9,9v73.2c0,6.3-3.8,11-9,11l-36.4,0v0.4
	c6.2,3.1,10.2,8.3,10.2,13.5C483.2,282.7,481.5,284.3,479.5,284.3L479.5,284.3z M373.2,233.5c1.9,3.3,4.6,3.6,6,3.6
	c1.8-1.4,5.5-3.5,12.4-4.1c3.5-0.3,6.3,0.8,8.6,1.8c3.1,1.2,3.8,1.5,5.1-0.4c0.2-0.5,0.6-1.1,1.1-1.7c3.6-5.6,9.8-20.1,12.2-27.2
	c2.3-7,1.5-19.9-4.6-30.1c-5.6-9.3-15.1-15-21.2-12.7c-0.4,0.2-1.1,1.2-1.6,1.9c-1.3,1.7-3,4.1-6,4.5c-2,0.3-4.1-0.4-6.2-2
	c-0.5-0.4-1.5-0.4-2.8-0.1c-4.2,1.1-10.4,5.9-13.5,12.7c-4.1,9-2.3,25.4-1.6,29c1.6,8.6,9.1,20.5,11.9,24.4c0,0.1,0.1,0.1,0.1,0.2
	C373.1,233.4,373.2,233.4,373.2,233.5L373.2,233.5z M372.9,242.9l-0.4,5.9c7.1,0,22.2-0.1,34.2-0.1l-0.8-6.1c-3.2,1-6.3-0.2-8.5-1.1
	c-1.8-0.7-3.5-1.4-5.3-1.3c-6.4,0.6-8.6,2.7-8.6,2.7c-0.5,0.6-1.1,1-1.9,1.2C379.7,244.6,376.2,244.6,372.9,242.9L372.9,242.9z
	 M340.6,291.2h98.5c-1.3-7.9-4.3-23-5.8-25.9c-5.7-4.8-18.1-8.3-22.9-9.3c-15.2,0-38.5,0.1-41.5,0.1c-4.9,0.9-17.7,4.1-23.2,9.1
	C344.3,268.1,341.6,283.7,340.6,291.2L340.6,291.2z M443.3,298.5H336.6c-2,0-3.7-1.6-3.7-3.7c0-1.2,3.5-30.9,7.4-34.7
	c6.3-6.2,19-9.5,24.7-10.8l0.9-13.5c-4-5.9-10.5-17.1-12.1-25.9c0-0.2-3.5-20.8,2.2-33.3c3.7-8.1,11.2-15,18.3-16.8
	c4.5-1.1,7.4,0.1,9,1.3c0.3,0.2,0.5,0.4,0.7,0.5c0.3-0.3,0.8-1,1.2-1.5c1.1-1.5,2.5-3.5,4.9-4.4c10.8-4.1,23.6,5,30.1,15.8
	c7.7,12.7,8.1,27.7,5.3,36.2c-2.2,6.8-8.5,22-12.9,28.8l1.6,12.9c5.3,1.3,17.6,4.9,24.2,10.6c4.2,3.7,8.6,34.1,8.7,34.4
	c0.1,1-0.2,2.1-0.9,2.9C445.4,298.1,444.4,298.5,443.3,298.5L443.3,298.5z"/>
<rect x="438.6" y="189.9" fill="#FF931E" width="68.1" height="7"/>
<rect x="438.6" y="202.1" fill="#FF931E" width="56.7" height="7"/>
<rect x="438.6" y="213.4" fill="#FF931E" width="48.9" height="7"/>
<rect x="438.6" y="225.6" fill="#FF931E" width="68.1" height="7"/>
<path d="M329.5,129.7v3.1h3.1v-3.1H329.5z M323.2,129.7v3.1h3.1v-3.1H323.2z M317,129.7v3.1h3.1v-3.1H317z M279.5,129.7v3.1h34.4
	v-3.1H279.5z M245.1,123.5v3.1h3.1v-3.1H245.1z M245.1,117.2v3.1h3.1v-3.1H245.1z M329.5,114.1v3.1c0,3.5-2.8,6.2-6.2,6.2h-51
	l3.7-3.9l-2.3-2.2l-6.2,6.6c-0.6,0.6-0.6,1.6,0,2.2l6.2,6.6l2.3-2.2l-3.7-3.9h51c5.2,0,9.4-4.2,9.4-9.4v-3.1L329.5,114.1z
	 M245.1,111v3.1h3.1V111H245.1z M292,79.7c3.5,0,6.2,2.8,6.2,6.2c0,3.5-2.8,6.2-6.2,6.2c-3.5,0-6.2-2.8-6.2-6.2
	C285.7,82.5,288.5,79.7,292,79.7z M292,76.6c-5.2,0-9.4,4.2-9.4,9.4c0,5.2,4.2,9.4,9.4,9.4s9.4-4.2,9.4-9.4
	C301.4,80.8,297.2,76.6,292,76.6z M245.1,73.5v34.4h3.1V73.5H245.1z M335.7,64.1v34.4h3.1V64.1H335.7z M252.9,61
	c-0.4,0-0.7,0.2-1,0.4l-6.6,6.2l2.2,2.3l3.9-3.7v51c0,5.2,4.2,9.4,9.4,9.4h3.1v-3.1h-3.1c-3.5,0-6.2-2.8-6.2-6.2v-51l3.9,3.7
	l2.2-2.3l-6.6-6.2C253.7,61.1,253.3,61,252.9,61z M288.9,61h6.2v8.5c0,0.7,0.5,1.3,1.1,1.5c1.2,0.3,2.3,0.8,3.4,1.4
	c0.6,0.3,1.4,0.2,1.9-0.3l5.9-5.9l4.4,4.4l-5.9,5.9c-0.5,0.5-0.6,1.3-0.3,1.9c0.6,1.1,1.1,2.2,1.4,3.4c0.2,0.7,0.8,1.1,1.5,1.1h8.4
	v6.2h-8.4c-0.7,0-1.3,0.5-1.5,1.1c-0.3,1.2-0.8,2.3-1.4,3.4c-0.3,0.6-0.2,1.4,0.3,1.9l6,6l-4.4,4.4l-6-6c-0.5-0.5-1.2-0.6-1.9-0.3
	c-1,0.6-2.1,1-3.3,1.3c-0.7,0.2-1.1,0.8-1.1,1.5v8.5h-6.2v-8.5c0-0.7-0.5-1.3-1.1-1.5c-1.2-0.3-2.3-0.8-3.3-1.4
	c-0.6-0.3-1.4-0.2-1.9,0.3l-6.1,6.1l-4.4-4.4l6.1-6.1c0.5-0.5,0.6-1.3,0.3-1.9c-0.6-1.1-1.1-2.2-1.4-3.3c-0.2-0.7-0.8-1.1-1.5-1.1
	h-8.6v-6.2h8.6c0.7,0,1.3-0.5,1.5-1.1c0.3-1.1,0.8-2.2,1.3-3.3c0.3-0.6,0.2-1.4-0.3-1.9l-6-6l4.4-4.4l6,6c0.5,0.5,1.3,0.6,1.9,0.3
	c1.1-0.6,2.2-1.1,3.4-1.4c0.7-0.2,1.1-0.8,1.1-1.5L288.9,61z M335.7,57.9V61h3.1v-3.1H335.7z M287.3,57.9c-0.9,0-1.6,0.7-1.6,1.6v9
	c-0.6,0.2-1.2,0.5-1.8,0.8l-6.3-6.3c-0.6-0.6-1.6-0.6-2.2,0l-6.6,6.6c-0.6,0.6-0.6,1.6,0,2.2l6.4,6.4c-0.3,0.5-0.5,1.1-0.7,1.7h-9.1
	c-0.9,0-1.6,0.7-1.6,1.6v9.4c0,0.9,0.7,1.6,1.6,1.6h9.1c0.2,0.6,0.5,1.2,0.7,1.7l-6.4,6.4c-0.6,0.6-0.6,1.6,0,2.2l6.6,6.6
	c0.6,0.6,1.6,0.6,2.2,0l6.4-6.4c0.6,0.3,1.1,0.5,1.7,0.7v9c0,0.9,0.7,1.6,1.6,1.6h9.4c0.9,0,1.6-0.7,1.6-1.6v-9
	c0.6-0.2,1.1-0.4,1.6-0.7l6.4,6.4c0.6,0.6,1.6,0.6,2.2,0l6.6-6.6c0.6-0.6,0.6-1.6,0-2.2l-6.4-6.4c0.3-0.6,0.5-1.2,0.8-1.8h8.9
	c0.9,0,1.6-0.7,1.6-1.6v-9.4c0-0.9-0.7-1.6-1.6-1.6h-8.9c-0.2-0.6-0.5-1.2-0.7-1.8l6.3-6.3c0.6-0.6,0.6-1.6,0-2.2l-6.6-6.6
	c-0.6-0.6-1.6-0.6-2.2,0l-6.3,6.3c-0.6-0.3-1.2-0.5-1.7-0.7v-9c0-0.9-0.7-1.6-1.6-1.6L287.3,57.9z M335.7,51.6v3.1h3.1v-3.1H335.7z
	 M335.7,45.4v3.1h3.1v-3.1H335.7z M320.1,45.4v3.1h3.1c3.5,0,6.2,2.8,6.2,6.2v51l-3.9-3.7l-2.2,2.3l6.6,6.2c0.6,0.6,1.6,0.6,2.2,0
	l6.6-6.2l-2.2-2.3l-3.9,3.7v-51c0-5.2-4.2-9.4-9.4-9.4H320.1z M310.3,39.3l-2.3,2.2l3.7,3.9h-51c-5.2,0-9.4,4.2-9.4,9.4v3.1h3.1
	v-3.1c0-3.5,2.8-6.2,6.2-6.2h51l-3.7,3.9l2.3,2.2l6.2-6.6c0.6-0.6,0.6-1.6,0-2.2L310.3,39.3z M270.1,39.1v3.1h34.4v-3.1H270.1z
	 M263.9,39.1v3.1h3.1v-3.1H263.9z M257.6,39.1v3.1h3.1v-3.1H257.6z M251.4,39.1v3.1h3.1v-3.1H251.4z"/>
<g>
	<path d="M275.1,19.1c0.8-0.1,1.9-0.2,3-0.2c2,0,3.4,0.5,4.4,1.3c1,0.9,1.5,2.1,1.5,3.9c0,1.8-0.5,3.2-1.6,4.2c-1,1-2.7,1.6-4.8,1.6
		c-1,0-1.8,0-2.5-0.1V19.1z M276.5,28.6c0.4,0.1,0.9,0.1,1.4,0.1c3,0,4.6-1.7,4.6-4.6c0-2.5-1.4-4.2-4.4-4.2c-0.7,0-1.3,0.1-1.6,0.1
		V28.6z"/>
	<path d="M292.7,25.8c0,2.9-2,4.1-3.9,4.1c-2.1,0-3.7-1.5-3.7-4c0-2.6,1.7-4.1,3.8-4.1C291.2,21.8,292.7,23.4,292.7,25.8z
		 M286.6,25.9c0,1.7,1,3,2.4,3c1.3,0,2.4-1.3,2.4-3c0-1.3-0.7-3-2.3-3C287.3,22.9,286.6,24.4,286.6,25.9z"/>
	<path d="M300,29.5c-0.4,0.2-1.2,0.4-2.2,0.4c-2.3,0-3.9-1.6-3.9-4c0-2.4,1.6-4.1,4.2-4.1c0.8,0,1.6,0.2,2,0.4l-0.3,1.1
		c-0.3-0.2-0.9-0.4-1.6-0.4c-1.8,0-2.7,1.3-2.7,2.9c0,1.8,1.2,2.9,2.7,2.9c0.8,0,1.3-0.2,1.7-0.4L300,29.5z"/>
	<path d="M301.5,28.3c0.4,0.3,1.2,0.6,1.9,0.6c1,0,1.5-0.5,1.5-1.2c0-0.7-0.4-1-1.4-1.4c-1.4-0.5-2-1.3-2-2.2c0-1.2,1-2.3,2.7-2.3
		c0.8,0,1.5,0.2,1.9,0.5l-0.4,1c-0.3-0.2-0.9-0.4-1.6-0.4c-0.8,0-1.3,0.5-1.3,1.1c0,0.6,0.5,0.9,1.5,1.3c1.3,0.5,2,1.2,2,2.3
		c0,1.4-1.1,2.3-2.9,2.3c-0.8,0-1.6-0.2-2.2-0.5L301.5,28.3z"/>
</g>
<g>
	<path d="M348.8,71.5c-0.3-0.5-0.5-1.5-0.5-2.8c0-3,1.9-5.3,5.5-5.3c3.4,0,5.7,2.3,5.7,5.6c0,1.3-0.3,2.2-0.5,2.6l-1.1-0.3
		c0.3-0.5,0.4-1.3,0.4-2.2c0-2.5-1.6-4.2-4.4-4.2c-2.6,0-4.3,1.5-4.3,4.1c0,0.8,0.2,1.7,0.4,2.3L348.8,71.5z"/>
	<path d="M352.4,80c-2.9,0-4.1-2-4.1-3.9c0-2.1,1.5-3.7,4-3.7c2.6,0,4.1,1.7,4.1,3.8C356.4,78.5,354.8,80,352.4,80z M352.3,73.9
		c-1.7,0-3,1-3,2.4c0,1.3,1.3,2.4,3,2.4c1.3,0,3-0.7,3-2.3C355.4,74.6,353.8,73.9,352.3,73.9z"/>
	<path d="M359.9,88.5h-9.4c-0.7,0-1.5,0-2,0.1v-1.3l1.3-0.1v0c-0.9-0.4-1.5-1.4-1.5-2.6c0-1.9,1.6-3.3,3.9-3.3
		c2.6,0,4.2,1.6,4.2,3.5c0,1.2-0.6,2-1.2,2.3v0h4.6V88.5z M353.1,87.1c0.2,0,0.4,0,0.6-0.1c0.9-0.2,1.6-1,1.6-2c0-1.5-1.3-2.3-3-2.3
		c-1.6,0-2.9,0.8-2.9,2.3c0,0.9,0.6,1.8,1.7,2.1c0.2,0,0.4,0.1,0.6,0.1H353.1z"/>
	<path d="M352.1,91.6c-1.9,0-2.7,1.2-2.7,2.7c0,1,0.2,1.6,0.4,2.1l-1,0.2c-0.2-0.5-0.5-1.3-0.5-2.6c0-2.4,1.6-3.8,3.9-3.8
		s4.2,1.4,4.2,3.6c0,2.5-2.2,3.2-3.6,3.2c-0.3,0-0.5,0-0.7,0V91.6z M353.1,95.7c0.9,0,2.3-0.4,2.3-2c0-1.4-1.3-2-2.3-2.2V95.7z"/>
</g>
<g>
	<path d="M239.5,92.5c0.3,0.5,0.5,1.5,0.5,2.8c0,3-1.9,5.3-5.5,5.3c-3.4,0-5.7-2.3-5.7-5.6c0-1.3,0.3-2.2,0.5-2.6l1.1,0.3
		c-0.3,0.5-0.4,1.3-0.4,2.2c0,2.5,1.6,4.2,4.4,4.2c2.6,0,4.3-1.5,4.3-4.1c0-0.8-0.2-1.7-0.4-2.3L239.5,92.5z"/>
	<path d="M236,84c2.9,0,4.1,2,4.1,3.9c0,2.1-1.5,3.7-4,3.7c-2.6,0-4.1-1.7-4.1-3.8C232,85.5,233.6,84,236,84z M236,90.1
		c1.7,0,3-1,3-2.4c0-1.3-1.3-2.4-3-2.4c-1.3,0-3,0.7-3,2.3C233,89.4,234.6,90.1,236,90.1z"/>
	<path d="M228.5,75.5h9.4c0.7,0,1.5,0,2-0.1v1.3l-1.3,0.1v0c0.9,0.4,1.5,1.4,1.5,2.6c0,1.9-1.6,3.3-3.9,3.3c-2.6,0-4.2-1.6-4.2-3.5
		c0-1.2,0.6-2,1.2-2.3v0h-4.6V75.5z M235.3,76.9c-0.2,0-0.4,0-0.6,0.1c-0.9,0.2-1.6,1-1.6,2c0,1.5,1.3,2.3,3,2.3
		c1.6,0,2.9-0.8,2.9-2.3c0-0.9-0.6-1.8-1.7-2.1c-0.2,0-0.4-0.1-0.6-0.1H235.3z"/>
	<path d="M236.3,72.4c1.9,0,2.7-1.2,2.7-2.7c0-1-0.2-1.6-0.4-2.1l1-0.2c0.2,0.5,0.5,1.3,0.5,2.6c0,2.4-1.6,3.8-3.9,3.8
		s-4.2-1.4-4.2-3.6c0-2.5,2.2-3.2,3.6-3.2c0.3,0,0.5,0,0.7,0V72.4z M235.3,68.3c-0.9,0-2.3,0.4-2.3,2c0,1.4,1.3,2,2.3,2.2V68.3z"/>
</g>
<g>
	<path d="M276.1,139c0.8-0.1,1.9-0.2,3-0.2c2,0,3.4,0.5,4.4,1.3c1,0.9,1.5,2.1,1.5,3.9c0,1.8-0.5,3.2-1.6,4.2c-1,1-2.7,1.6-4.8,1.6
		c-1,0-1.8,0-2.5-0.1V139z M277.5,148.5c0.4,0.1,0.9,0.1,1.4,0.1c3,0,4.6-1.7,4.6-4.6c0-2.5-1.4-4.2-4.4-4.2c-0.7,0-1.3,0.1-1.6,0.1
		V148.5z"/>
	<path d="M293.7,145.7c0,2.9-2,4.1-3.9,4.1c-2.1,0-3.7-1.5-3.7-4c0-2.6,1.7-4.1,3.8-4.1C292.2,141.7,293.7,143.3,293.7,145.7z
		 M287.6,145.7c0,1.7,1,3,2.4,3c1.3,0,2.4-1.3,2.4-3c0-1.3-0.7-3-2.3-3C288.3,142.7,287.6,144.3,287.6,145.7z"/>
	<path d="M301,149.3c-0.4,0.2-1.2,0.4-2.2,0.4c-2.3,0-3.9-1.6-3.9-4c0-2.4,1.6-4.1,4.2-4.1c0.8,0,1.6,0.2,2,0.4l-0.3,1.1
		c-0.3-0.2-0.9-0.4-1.6-0.4c-1.8,0-2.7,1.3-2.7,2.9c0,1.8,1.2,2.9,2.7,2.9c0.8,0,1.3-0.2,1.7-0.4L301,149.3z"/>
	<path d="M302.5,148.2c0.4,0.3,1.2,0.6,1.9,0.6c1,0,1.5-0.5,1.5-1.2c0-0.7-0.4-1-1.4-1.4c-1.4-0.5-2-1.3-2-2.2c0-1.2,1-2.3,2.7-2.3
		c0.8,0,1.5,0.2,1.9,0.5l-0.4,1c-0.3-0.2-0.9-0.4-1.6-0.4c-0.8,0-1.3,0.5-1.3,1.1c0,0.6,0.5,0.9,1.5,1.3c1.3,0.5,2,1.2,2,2.3
		c0,1.4-1.1,2.3-2.9,2.3c-0.8,0-1.6-0.2-2.2-0.5L302.5,148.2z"/>
</g>
<g>
	<g>
		
			<line fill="none" stroke="#000000" stroke-width="3" stroke-miterlimit="10" stroke-dasharray="6,6" x1="456.8" y1="154.8" x2="381.5" y2="115.4"/>
		<g>
			<polygon points="388.9,111.9 383.4,116.4 382.8,123.5 372.1,110.5 			"/>
		</g>
	</g>
</g>
<g>
	<g>
		
			<line fill="none" stroke="#000000" stroke-width="3" stroke-miterlimit="10" stroke-dasharray="6,6" x1="139.2" y1="162.4" x2="210.8" y2="116.5"/>
		<g>
			<polygon points="210.2,124.7 209,117.7 203.1,113.7 219.7,110.8 			"/>
		</g>
	</g>
</g>
<g>
	<path d="M86.5,326.3c-0.6,0.3-1.8,0.6-3.5,0.6c-4.7,0-7.1-2.9-7.1-6.7c0-4.6,3.3-7.2,7.4-7.2c1.6,0,2.8,0.3,3.3,0.6L86,316
		c-0.6-0.3-1.5-0.5-2.6-0.5c-2.4,0-4.3,1.5-4.3,4.5c0,2.7,1.6,4.4,4.3,4.4c0.9,0,1.9-0.2,2.5-0.4L86.5,326.3z"/>
	<path d="M97.7,321.7c0,3.6-2.5,5.2-5.2,5.2c-2.9,0-5.1-1.9-5.1-5c0-3.2,2.1-5.2,5.2-5.2C95.7,316.7,97.7,318.8,97.7,321.7z
		 M90.6,321.8c0,1.7,0.7,2.9,2,2.9c1.2,0,1.9-1.2,1.9-2.9c0-1.5-0.6-2.9-1.9-2.9C91.1,318.9,90.6,320.4,90.6,321.8z"/>
	<path d="M109.1,312.5v11.3c0,1.1,0,2.3,0.1,2.9h-2.7l-0.1-1.4h0c-0.6,1.1-1.8,1.7-3.1,1.7c-2.3,0-4.2-2-4.2-5c0-3.3,2-5.2,4.4-5.2
		c1.2,0,2.1,0.4,2.6,1.1h0v-5.3H109.1z M106,321.1c0-0.2,0-0.4,0-0.5c-0.2-0.8-0.8-1.5-1.8-1.5c-1.4,0-2.1,1.2-2.1,2.8
		c0,1.7,0.8,2.7,2.1,2.7c0.9,0,1.6-0.6,1.8-1.5c0.1-0.2,0.1-0.4,0.1-0.7V321.1z"/>
	<path d="M113.9,322.8c0.1,1.3,1.3,1.9,2.8,1.9c1,0,1.9-0.1,2.7-0.4l0.4,2.1c-1,0.4-2.2,0.6-3.5,0.6c-3.3,0-5.2-1.9-5.2-5
		c0-2.5,1.5-5.2,4.9-5.2c3.2,0,4.4,2.5,4.4,4.9c0,0.5-0.1,1-0.1,1.2H113.9z M117.4,320.7c0-0.7-0.3-2-1.7-2c-1.3,0-1.8,1.2-1.9,2
		H117.4z"/>
</g>
<g>
	<path d="M384,309c1.1-0.2,2.6-0.3,4.1-0.3c2.6,0,4.2,0.5,5.5,1.4c1.4,1,2.3,2.7,2.3,5.1c0,2.6-0.9,4.4-2.2,5.5
		c-1.4,1.2-3.6,1.7-6.2,1.7c-1.6,0-2.7-0.1-3.5-0.2V309z M387,320c0.3,0.1,0.7,0.1,1.1,0.1c2.8,0,4.6-1.5,4.6-4.7
		c0-2.8-1.6-4.3-4.2-4.3c-0.7,0-1.1,0.1-1.4,0.1V320z"/>
	<path d="M407.5,317.3c0,3.6-2.5,5.2-5.2,5.2c-2.9,0-5.1-1.9-5.1-5c0-3.2,2.1-5.2,5.2-5.2C405.5,312.3,407.5,314.4,407.5,317.3z
		 M400.4,317.4c0,1.7,0.7,2.9,2,2.9c1.2,0,1.9-1.2,1.9-2.9c0-1.5-0.6-2.9-1.9-2.9C400.9,314.5,400.4,316,400.4,317.4z"/>
	<path d="M416.7,322.1c-0.5,0.2-1.6,0.4-2.7,0.4c-3.2,0-5.2-1.9-5.2-5c0-2.9,2-5.2,5.6-5.2c0.8,0,1.7,0.1,2.3,0.4l-0.5,2.3
		c-0.4-0.2-0.9-0.3-1.7-0.3c-1.6,0-2.6,1.1-2.6,2.7c0,1.8,1.2,2.7,2.7,2.7c0.7,0,1.3-0.1,1.7-0.3L416.7,322.1z"/>
	<path d="M418.4,319.6c0.6,0.3,1.7,0.7,2.6,0.7c0.9,0,1.3-0.3,1.3-0.8s-0.3-0.7-1.4-1.1c-2-0.7-2.8-1.8-2.8-2.9c0-1.8,1.6-3.2,4-3.2
		c1.1,0,2.2,0.3,2.8,0.6l-0.5,2.1c-0.4-0.2-1.3-0.6-2.1-0.6c-0.7,0-1.2,0.3-1.2,0.8c0,0.5,0.4,0.7,1.6,1.1c1.9,0.6,2.6,1.6,2.7,3
		c0,1.8-1.4,3.2-4.2,3.2c-1.3,0-2.4-0.3-3.2-0.7L418.4,319.6z"/>
</g>
</svg>
