<?xml version="1.0" encoding="utf-8"?>
<!-- Generator: Adobe Illustrator 17.1.0, SVG Export Plug-In . SVG Version: 6.00 Build 0)  -->
<!DOCTYPE svg PUBLIC "-//W3C//DTD SVG 1.1//EN" "http://www.w3.org/Graphics/SVG/1.1/DTD/svg11.dtd">
<svg version="1.1" id="Layer_1" xmlns="http://www.w3.org/2000/svg" xmlns:xlink="http://www.w3.org/1999/xlink" x="0px" y="0px"
	 viewBox="0 0 850 566" enable-background="new 0 0 850 566" xml:space="preserve">
<rect x="425" y="-2" fill="#DCF4F4" width="425" height="566"/>
<rect fill="#C6A687" width="425" height="566"/>
<path d="M626.2,375.4c-1.3,1.3-3.1,3.9-4.8,5.7l-3.9,4.8c-0.9,0.9-1.7,1.3-2.6,1.3h-0.4c-0.9,0-1.7-0.4-2.2-1.3l-8.7-10.9
	c-1.3-1.7-1.3-3.5-1.3-4.4c0.4-5.2,4.8-33.1,5.7-41.4c0-1.3,1.3-1.7,2.2-1.7h9.2c1.3,0,2.2,0.9,2.2,1.7c1.3,8.3,5.2,36.6,5.7,41.4
	C627.5,372.8,627.1,374.6,626.2,375.4L626.2,375.4z M709.5,363.7c-8.3-18.3-27.5-25.7-47.5-31.4c-5.7-1.7-11.8-3.9-16.1-8.3
	c-3.1-3.1-4.8-7.4-4.8-11.8c0-5.2,3.5-9.6,6.1-14c1.7-2.6,3.1-5.2,3.9-8.3c0.4-0.9,0.9-2.2,0.9-3.1c0.4-2.2,0.9-3.5,1.7-4.8l2.6-2.6
	l0.9-0.4c0.4-0.4,0.9-0.4,1.3-0.9l2.2-2.6c1.3-2.2,2.2-4.4,2.6-7.8l0.4-2.2v-0.4c0-1.3,0.4-3.1,0.4-4.4v-3.5c0-3.1-1.3-6.5-3.9-7.8
	l-3.1-1.3l0.4-4.4c0-1.7,0.4-3.1,0.9-4.8c0.9-3.9,1.7-8.3,1.7-12.2c0-6.5-1.3-12.2-3.9-17c-3.1-5.2-7.8-9.6-14-12.2
	c-1.7-0.9-3.1-1.3-3.9-1.7c-7.4-2.6-15.3-4.4-23.5-4.4h-5.2c-5.2,0.4-11.8,0.9-17,3.5c-0.4,0.4-0.9,0.4-1.3,0.9
	c-2.2,1.3-3.5,3.1-5.2,4.8l-0.9,1.7c-0.9,0.9-1.3,1.7-2.2,2.6c-1.3,0.9-3.1,2.2-4.8,3.1c-2.2,0.9-3.5,2.2-4.4,3.9
	c-1.7,3.1-2.6,6.5-2.6,11.3c0,3.9,0,8.3,0.4,13.5c0,1.7,0.4,3.1,0.9,5.2c0,0.9,0.4,1.7,0.4,2.6l0.9,3.9l-3.9,1.3
	c-3.1,0.9-4.4,4.4-4.4,7.4v-0.4v3.9c0,1.3,0.4,2.6,0.4,3.9l0.4,1.7c0,0.4,0,0.9,0.4,1.7c0.4,2.6,1.3,5.2,2.6,7.8
	c0.4,0.9,1.3,2.2,2.2,2.6c0.9,1.3,2.2,2.2,3.5,2.6l1.7,0.9l0.4,2.2c1.3,6.1,3.9,11.3,7,15.7l0.9,1.7l0.9,0.9
	c0.9,0.9,1.3,1.7,1.7,2.2l0.4,0.4c0.9,1.3,1.3,2.6,1.3,3.5c0.9,5.2,3.1,17.9-20.5,24.4c-17.4,4.8-39.7,14.4-47.5,31.4
	c-2.2,4.8-2.6,10.5-2.6,14v12.6c0,3.5,2.6,6.1,6.1,6.1h181.8c3.5,0,6.1-2.6,6.1-6.1v-12.2C712.1,373.7,711.6,368.5,709.5,363.7
	L709.5,363.7z"/>
<path d="M719.5,263.8c0,15.7-23.5,15.7-23.5,0C695.9,248.1,719.5,248.1,719.5,263.8"/>
<path d="M777.9,241.2H770v-5.7h7.8V241.2z M777.9,256.4h-42.3v-5.7h42.3V256.4z M777.9,272.1h-24v-5.7h24V272.1z M748.7,272.1h-13.1
	v-5.7h13.1V272.1z M735.6,216.7h13.1v5.2h-13.1V216.7z M727.8,215.9c-2.6,2.6-5.2,5.2-7.8,7.4c-3.1,2.6-5.7,5.2-7.8,7.4
	c-0.4,0.4-0.9,0.9-1.7,0.9h-0.9c-0.4,0-0.4-0.4-0.9-0.4l-7-7c-0.4-0.9-0.4-1.7-0.4-2.6c0.4-0.9,0.9-1.3,1.7-1.3c0.4,0,1.3,0,1.7,0.9
	l5.7,5.7l0.9-0.9c2.2-1.7,4.4-4.4,6.5-6.1c2.2-2.2,4.8-4.4,6.5-6.5c0.4-0.4,0.9-0.9,1.7-0.9s1.3,0.4,1.7,0.9
	C728.6,214.1,728.6,215.4,727.8,215.9L727.8,215.9z M707.7,239.9c-8.3,0-15.3-7-15.3-15.3c0-8.3,7-15.3,15.3-15.3
	c4.4,0,8.7,2.2,11.3,5.2l-2.6,2.6c-2.2-2.6-5.2-3.9-8.7-3.9c-6.5,0-11.8,5.2-11.8,11.8c0,6.5,5.2,11.8,11.8,11.8
	c5.7,0,10-3.9,11.3-9.2c0.9-0.9,1.7-1.3,2.2-2.2l1.3-1.3v0.9C723.4,233.3,716.4,239.9,707.7,239.9L707.7,239.9z M707.7,279.1
	c-8.3,0-15.3-7-15.3-15.3c0-8.3,7-15.3,15.3-15.3c8.3,0,15.3,7,15.3,15.3C723.4,272.5,716.4,279.1,707.7,279.1z M707.7,170.1
	c8.3,0,15.3,7,15.3,15.3c0,8.3-7,15.3-15.3,15.3c-8.3,0-15.3-7-15.3-15.3C692.4,177.1,699.4,170.1,707.7,170.1z M735.6,181h29.2v5.7
	h-29.2V181z M735.6,204.5v-5.7h42.3v5.7H735.6z M764.8,235.5v5.7h-29.2v-5.7H764.8z M753.9,222v-5.7h24v5.7H753.9z M770,181h7.8v5.7
	H770V181z M682.4,160.9v126.9h106.4V160.9H682.4z"/>
<path d="M719.5,185.4c0,15.7-23.5,15.7-23.5,0S719.5,169.7,719.5,185.4"/>
<path d="M328.8,168.1v78.4c0,3.3-2.7,6-6,6c-3.3,0-6-2.7-6-6l0-66.5h-66.3c-3.3,0-6-2.7-6-6c0-3.3,2.7-6,6-6L328.8,168.1z"/>
<path d="M181,174.1c0,3.3-2.7,6-6,6h-66v66.5c0,3.3-2.7,6-6,6c-3.3,0-6-2.7-6-6l0-78.4H175C178.4,168.1,181,170.8,181,174.1
	L181,174.1z"/>
<path d="M224,420.1c-1.6,1.6-3.7,4.7-5.8,6.8l-4.7,5.8c-1.1,1.1-2.1,1.6-3.2,1.6h-0.5c-1.1,0-2.1-0.5-2.6-1.6l-10.5-13.2
	c-1.6-2.1-1.6-4.2-1.6-5.3c0.5-6.3,5.8-40,6.8-50c0-1.6,1.6-2.1,2.6-2.1h11.1c1.6,0,2.6,1.1,2.6,2.1c1.6,10,6.3,44.2,6.8,50
	C225.6,417,225.1,419.1,224,420.1L224,420.1z M324.7,405.9c-10-22.1-33.2-31.1-57.4-37.9c-6.8-2.1-14.2-4.7-19.5-10
	c-3.7-3.7-5.8-9-5.8-14.2c0-6.3,4.2-11.6,7.4-16.9c2.1-3.2,3.7-6.3,4.7-10c0.5-1.1,1.1-2.6,1.1-3.7c0.5-2.6,1.1-4.2,2.1-5.8l3.2-3.2
	l1.1-0.5c0.5-0.5,1.1-0.5,1.6-1.1l2.6-3.2c1.6-2.6,2.6-5.3,3.2-9.5l0.5-2.6v-0.5c0-1.6,0.5-3.7,0.5-5.3v-4.2c0-3.7-1.6-7.9-4.7-9.5
	l-3.7-1.6l0.5-5.3c0-2.1,0.5-3.7,1.1-5.8c1.1-4.7,2.1-10,2.1-14.7c0-7.9-1.6-14.7-4.7-20.5c-3.7-6.3-9.5-11.6-16.9-14.7
	c-2.1-1.1-3.7-1.6-4.7-2.1c-9-3.2-18.4-5.3-28.4-5.3H204c-6.3,0.5-14.2,1.1-20.5,4.2c-0.5,0.5-1.1,0.5-1.6,1.1
	c-2.6,1.6-4.2,3.7-6.3,5.8l-1.1,2.1c-1.1,1.1-1.6,2.1-2.6,3.2c-1.6,1.1-3.7,2.6-5.8,3.7c-2.6,1.1-4.2,2.6-5.3,4.7
	c-2.1,3.7-3.2,7.9-3.2,13.7c0,4.7,0,10,0.5,16.3c0,2.1,0.5,3.7,1.1,6.3c0,1.1,0.5,2.1,0.5,3.2l1.1,4.7l-4.7,1.6
	c-3.7,1.1-5.3,5.3-5.3,9v-0.5v4.7c0,1.6,0.5,3.2,0.5,4.7l0.5,2.1c0,0.5,0,1.1,0.5,2.1c0.5,3.2,1.6,6.3,3.2,9.5
	c0.5,1.1,1.6,2.6,2.6,3.2c1.1,1.6,2.6,2.6,4.2,3.2l2.1,1.1l0.5,2.6c1.6,7.4,4.7,13.7,8.4,19l1.1,2.1l1.1,1.1
	c1.1,1.1,1.6,2.1,2.1,2.6l0.5,0.5c1.1,1.6,1.6,3.2,1.6,4.2c1.1,6.3,3.7,21.6-24.8,29.5c-21.1,5.8-47.9,17.4-57.4,37.9
	c-2.6,5.8-3.2,12.6-3.2,16.9v15.3c0,4.2,3.2,7.4,7.4,7.4h219.7c4.2,0,7.4-3.2,7.4-7.4v-14.7C327.8,418,327.3,411.7,324.7,405.9
	L324.7,405.9z"/>
<rect x="80" y="362" fill="#C6A687" width="274" height="99"/>
<path d="M328.8,321.1v78.7h-78.2c-3.3,0-6-2.7-6-6c0-3.3,2.7-6,6-6h66.3l0-66.7c0-3.3,2.7-6,6-6
	C326.2,315.2,328.8,317.9,328.8,321.1L328.8,321.1z"/>
<path d="M181,393.9c0,3.3-2.7,6-6,6H97.1v-78.3c0-3.3,2.7-6,6-6c3.3,0,6,2.7,6,6v66.4h66C178.4,387.9,181,390.6,181,393.9L181,393.9
	z"/>
<line fill="#353535" stroke="#CCCCCC" stroke-width="6" stroke-miterlimit="10" x1="94" y1="286" x2="329" y2="286"/>
<g>
	<g>
		<line fill="none" stroke="#9B9A9A" stroke-miterlimit="10" x1="120.5" y1="278" x2="120.5" y2="277"/>
		<line fill="none" stroke="#9B9A9A" stroke-miterlimit="10" stroke-dasharray="3,3" x1="120.5" y1="274" x2="120.5" y2="259"/>
		<line fill="none" stroke="#9B9A9A" stroke-miterlimit="10" x1="120.5" y1="258" x2="120.5" y2="257"/>
		<g>
			<polygon fill="#9B9A9A" points="123,257 120.5,252.7 118,257 			"/>
		</g>
	</g>
</g>
<g>
	<g>
		<line fill="none" stroke="#9B9A9A" stroke-miterlimit="10" x1="120.5" y1="303" x2="120.5" y2="305"/>
		<line fill="none" stroke="#9B9A9A" stroke-miterlimit="10" stroke-dasharray="3,3" x1="120.5" y1="307" x2="120.5" y2="322"/>
		<line fill="none" stroke="#9B9A9A" stroke-miterlimit="10" x1="120.5" y1="323" x2="120.5" y2="324"/>
		<g>
			<polygon fill="#9B9A9A" points="118,324 120.5,328.3 123,324 			"/>
		</g>
	</g>
</g>
<text transform="matrix(1 0 0 1 121.1548 481.0801)" font-family="'ArialMT'" font-size="30">Authentication</text>
<text transform="matrix(1 0 0 1 534.9162 481.0802)" font-family="'ArialMT'" font-size="30">Authorization</text>
<text transform="matrix(1 0 0 1 695.7734 307.9998)" font-family="'ArialMT'" font-size="18">Privileges</text>
<text transform="matrix(1 0 0 1 80 523.0781)" font-family="'ArialMT'" font-size="22">are you who you say you are?</text>
<text transform="matrix(1 0 0 1 483.5013 523.0781)" font-family="'ArialMT'" font-size="22">are you allowed to do this action?</text>
<text transform="matrix(1 0 0 1 276.452 275.5985)" font-family="'ArialMT'" font-size="18">Identity</text>
</svg>
