<?xml version="1.0" encoding="utf-8"?>
<!-- Generator: Adobe Illustrator 17.1.0, SVG Export Plug-In . SVG Version: 6.00 Build 0)  -->
<!DOCTYPE svg PUBLIC "-//W3C//DTD SVG 1.1//EN" "http://www.w3.org/Graphics/SVG/1.1/DTD/svg11.dtd">
<svg version="1.1" id="Layer_1" xmlns="http://www.w3.org/2000/svg" xmlns:xlink="http://www.w3.org/1999/xlink" x="0px" y="0px"
	 viewBox="0 0 850 566" enable-background="new 0 0 850 566" xml:space="preserve">
<rect x="108" y="69" width="101" height="22"/>
<rect x="108" y="140" width="101" height="22"/>
<rect x="108" y="214" width="101" height="22"/>
<rect x="108" y="285" width="101" height="22"/>
<text transform="matrix(1 0 0 1 118.0003 85.373)" fill="#F7F7F7" font-family="'Arial-BoldMT'" font-size="16">Term 1</text>
<text transform="matrix(1 0 0 1 117.9996 156.8161)" fill="#F7F7F7" font-family="'Arial-BoldMT'" font-size="16">Term 2</text>
<text transform="matrix(1 0 0 1 117.9998 230.9165)" fill="#F7F7F7" font-family="'Arial-BoldMT'" font-size="16">Term 3</text>
<text transform="matrix(1 0 0 1 118.0001 301.7437)" fill="#F7F7F7" font-family="'Arial-BoldMT'" font-size="16">Term 4</text>
<rect x="108" y="365" width="101" height="22"/>
<text transform="matrix(1 0 0 1 118.0001 381.7437)" fill="#F7F7F7" font-family="'Arial-BoldMT'" font-size="16">Term 5</text>
<rect x="185" y="105" fill="#C4C0C0" width="528" height="16"/>
<rect x="185" y="179" fill="#C4C0C0" width="528" height="16"/>
<rect x="185" y="254" fill="#C4C0C0" width="528" height="16"/>
<rect x="185" y="328" fill="#C4C0C0" width="528" height="16"/>
<rect x="185" y="402" fill="#C4C0C0" width="528" height="16"/>
<rect x="108" y="435" width="101" height="22"/>
<text transform="matrix(1 0 0 1 118.0001 451.7437)" fill="#F7F7F7" font-family="'Arial-BoldMT'" font-size="16">Term 6</text>
<rect x="191" y="472" fill="#C4C0C0" width="528" height="16"/>
</svg>
