<?xml version="1.0" encoding="utf-8"?>
<!-- Generator: Adobe Illustrator 17.1.0, SVG Export Plug-In . SVG Version: 6.00 Build 0)  -->
<!DOCTYPE svg PUBLIC "-//W3C//DTD SVG 1.1//EN" "http://www.w3.org/Graphics/SVG/1.1/DTD/svg11.dtd">
<svg version="1.1" id="Layer_1" xmlns="http://www.w3.org/2000/svg" xmlns:xlink="http://www.w3.org/1999/xlink" x="0px" y="0px"
	 viewBox="0 0 850 566" enable-background="new 0 0 850 566" xml:space="preserve">
<rect x="607" y="87" fill="#339933" width="24" height="388"/>
<rect x="209" y="101" fill="#339933" width="407" height="24"/>
<rect x="212" y="434" fill="#339933" width="407" height="24"/>
<rect x="196" y="91" fill="#339933" width="24" height="388"/>
<rect x="237" y="141" fill="#DFF4EB" width="355" height="280"/>
<path d="M339.3,350.8c13.9,29.5-19.8,45.5-33.8,15.9C291.6,337.2,325.4,321.3,339.3,350.8"/>
<path d="M599.8,436.9H396.4c-4.5,0-8.2-3.7-8.2-8.2c0-4.5,3.7-8.2,8.2-8.2h195.2V141.2H237.2v279.3h29c4.5,0,8.2,3.7,8.2,8.2
	c0,4.5-3.7,8.2-8.2,8.2H229c-4.5,0-8.2-3.7-8.2-8.2V133c0-4.5,3.7-8.2,8.2-8.2h370.9c4.5,0,8.2,3.7,8.2,8.2v295.7
	C608.1,433.2,604.4,436.9,599.8,436.9L599.8,436.9z"/>
<path d="M196.8,486.9c-6.2,0-11.9-1.8-16.7-6.6c-10.4-10.6-4.6-26.5,1-41.9c3.9-10.9,8.4-23.2,7.6-33.5c-0.6-7.3-2-14.5-3.3-21.4
	c-3.1-16.3-6.4-33.3-0.7-53c7.1-24.4,6.3-49.4,6.2-49.6v-0.6c0-0.2,0.8-24-6.2-48.3c-5.7-19.7-2.5-36.6,0.7-53
	c1.3-7,2.7-14.2,3.3-21.4c0.9-10.4-3.4-22.1-7.5-33.5c-5.6-15.3-11.3-31.2-1.1-41.8c11.7-12.2,29.8-6.2,48.9,0.2
	c13.4,4.5,27.3,9.1,39.7,8.2c8.8-0.6,17.4-2,25.7-3.4c19-3.1,38.7-6.2,61.4-0.7c29.3,7.2,57.7,6.3,58,6.3c0.8,0,30.9,0.8,60.1-6.3
	c22.7-5.6,42.4-2.4,61.4,0.7c8.3,1.3,16.9,2.7,25.7,3.4c12.4,0.9,26.3-3.7,39.7-8.2C619.9,76,638,70,649.6,82.2
	c10.2,10.7,4.5,26.5-1.1,41.8c-4.1,11.4-8.4,23.1-7.5,33.5c0.6,7.3,2,14.5,3.3,21.5c3.1,16.3,6.4,33.2,0.6,52.9
	c-7.1,24.4-6.3,49.4-6.3,49.6v0.6c0,0.2-0.8,24,6.3,48.3c5.7,19.7,2.5,36.6-0.6,53c-1.3,7-2.7,14.2-3.3,21.5
	c-0.9,10.3,2.9,21.9,6.6,33.1c5,15.4,10.3,31.3-0.3,41.6c-11.7,11.4-28.8,5.4-46.9-0.9c-12.6-4.4-26.8-9.4-39.5-8.5
	c-8.8,0.6-17.4,2-25.7,3.4c-19,3.1-38.7,6.2-61.4,0.7c-29.4-7.2-70.2-6.4-70.6-6.3c-0.5,0-2.8-0.1-6.8,0c-4.4,0.1-8.3-3.5-8.3-8.1
	c-0.1-4.5,3.5-8.3,8.1-8.3c4.5-0.1,7.1,0,7.1,0c1.3-0.1,43-0.9,74.5,6.8c19.5,4.7,36.7,2,54.9-1c8.7-1.4,17.6-2.8,27.1-3.5
	c16-1.2,31.9,4.4,46.1,9.3c12.6,4.4,25.6,8.9,30,4.6c3.2-3.1-0.5-14.6-3.9-24.7c-4-12.2-8.5-25.9-7.4-39.6
	c0.7-8.1,2.2-15.8,3.6-23.2c2.9-15.1,5.6-29.4,1-45.3c-7.4-25.7-7-50-6.9-53.1c-0.1-3.2-0.5-28.7,6.9-54.5c4.6-15.9,1.9-30.2-1-45.3
	c-1.4-7.4-2.9-15-3.6-23.2c-1.2-13.9,3.9-28.1,8.4-40.5c3.7-10.1,7.8-21.6,4.7-24.8c-4.5-4.7-18.4-0.1-31.9,4.4
	c-14.3,4.7-30.4,10.1-46.1,9c-9.5-0.7-18.5-2.1-27.1-3.5c-18.2-2.9-35.4-5.7-54.9-1c-31.5,7.7-62.7,6.8-64,6.8
	c-0.8,0-30.4,0.9-61.9-6.8c-19.5-4.8-36.7-2-54.9,1c-8.7,1.4-17.6,2.8-27.1,3.5c-15.6,1.1-31.8-4.2-46.1-9
	c-13.5-4.5-27.4-9.1-31.9-4.4c-3.2,3.3,1,14.7,4.7,24.9c4.5,12.4,9.7,26.5,8.4,40.5c-0.7,8.1-2.2,15.8-3.6,23.1
	c-2.9,15.1-5.6,29.4-1,45.3c7.4,25.7,7,50,6.9,53.1c0.1,3.2,0.5,28.7-6.9,54.5c-4.6,15.9-1.9,30.2,1,45.3c1.4,7.4,2.9,15,3.6,23.1
	c1.2,13.9-3.9,28.1-8.5,40.5c-3.5,9.6-7.9,21.6-4.7,24.8c4.3,4.4,16.2-0.2,28.8-5c13.9-5.3,29.6-11.3,45.8-10.1
	c4.5,0.3,7.9,4.3,7.6,8.8c-0.3,4.5-4.2,8-8.8,7.6c-12.5-0.9-26.4,4.4-38.7,9.1C216.3,483,206,486.9,196.8,486.9L196.8,486.9z"/>
<path d="M363.5,472c0.1,13.1,17,11.7,16.8-3.3c-0.4-26.9-0.9-47.5-9.9-63c-9.3-16.3-31.4-15.2-42.6-15.1c-12.2,0.2-36,3.8-41.6,27.7
	c-5.1,21.9-3.2,42.1,0.4,54.2c5.1,17.3,18.8,10.5,15.8-2.8c-3.2-14.4-3-50.4,4.4-44.1c3.3,2.7,3.5,49.5,4.4,64.4
	c0.6,10.5-0.4,26.3,0.6,46.7c0.9,18.2,18.6,17.8,19,0.7c0.2-9.8,0.8-40.6,1.8-52.8c0.3-4,1.5-5.4,3-5.4c2.9,0,4.1,2.5,4.2,5
	c0.6,14.7,1.5,39.3,1.9,53.4c0.4,16,19,17.9,18.2-1.8c-0.8-20.3-2.1-43.4-2.5-60.3c-0.4-14.6-3.8-58.6,2-52.3
	C365.5,429.6,363.4,457.6,363.5,472L363.5,472z"/>
<text transform="matrix(1 0 0 1 270.0737 191.4605)" font-family="'ArialMT'" font-size="36.1044">API Overview</text>
<text transform="matrix(1 0 0 1 272.0981 237.4939)"><tspan x="0" y="0" font-family="'ArialMT'" font-size="22">What is it?</tspan><tspan x="0" y="26.4" font-family="'ArialMT'" font-size="22">What does it do?</tspan><tspan x="0" y="52.8" font-family="'ArialMT'" font-size="22">Who is it for?</tspan><tspan x="0" y="79.2" font-family="'ArialMT'" font-size="22">Why would I use this?</tspan></text>
</svg>
