<?xml version="1.0" encoding="utf-8"?>
<!-- Generator: Adobe Illustrator 17.1.0, SVG Export Plug-In . SVG Version: 6.00 Build 0)  -->
<!DOCTYPE svg PUBLIC "-//W3C//DTD SVG 1.1//EN" "http://www.w3.org/Graphics/SVG/1.1/DTD/svg11.dtd">
<svg version="1.1" id="Layer_1" xmlns="http://www.w3.org/2000/svg" xmlns:xlink="http://www.w3.org/1999/xlink" x="0px" y="0px"
	 viewBox="0 0 850 566" enable-background="new 0 0 850 566" xml:space="preserve">
<line fill="none" stroke="#6D6D6D" stroke-width="3" stroke-miterlimit="10" x1="421" y1="216.5" x2="637" y2="216.5"/>
<path d="M339.1,147.1h415.4c9.5,0,18.1,4.1,24.5,10.4c6.4,6.4,10.4,15,10.4,24.5v246.2c0,9.5-4.1,18.1-10.4,24.5
	c-6.4,6.4-15,10.4-24.5,10.4H339.1c-9.5,0-18.1-4.1-24.5-10.4c-6.4-6.4-10.4-15-10.4-24.5V182c0-9.5,4.1-18.1,10.4-24.5
	C321,151.2,329.6,147.1,339.1,147.1z M448.4,514.9c-7.7,0-14.1-6.4-14.1-14.1c0-8.2,6.4-14.5,14.1-14.5h196.8
	c7.7,0,14.1,6.4,14.1,14.5c0,7.7-6.4,14.1-14.1,14.1H448.4z M754.6,175.7H339.1c-1.8,0-3.2,0.5-4.5,1.8c-1.4,1.4-1.8,2.7-1.8,4.5
	v246.2c0,1.8,0.5,3.2,1.8,4.5c1.4,0.9,2.7,1.8,4.5,1.8h415.4c1.8,0,3.2-0.9,4.5-1.8c1.4-1.4,1.8-2.7,1.8-4.5V182
	c0-1.8-0.5-3.2-1.8-4.5C757.7,176.1,756.4,175.7,754.6,175.7z"/>
<path fill-rule="evenodd" clip-rule="evenodd" fill="#F7931E" d="M614.4,332.2c0.9-10-1.4-26.3-5-34c-2.3-4.5-4.5-7.7-9.1-10.4
	c-4.1-2.3-10.4-3.2-16.3-1.8c-4.5,0.9-9.5,5-11.8,7.3c-9.1,10-14.5,29.5-15,43.1c0,12.7,0.9,24,4.1,34.9c1.4,3.2,1.4,4.1,5,5
	l23.1,5.4c4.1,1.4,5.9,2.3,7.7,0.9C606.7,374.8,613,343.1,614.4,332.2L614.4,332.2z"/>
<path fill-rule="evenodd" clip-rule="evenodd" fill="#F7931E" d="M479.3,298.2c1.8,12.2,3.6,21.3,7.3,31.8c1.4,4.1,3.6,10,5.9,13.6
	c4.1,6.8,5,6.4,7.7,5.4c1.4,0,2.7-0.5,4.1-0.9c5-0.9,10-2.3,15.4-3.6c9.5-2.3,10.9-1.4,12.7-6.8c3.2-10.9,4.1-21.8,4.1-34.5
	c-0.5-14.1-5.4-33.6-14.5-43.5c-2.7-2.7-7.3-6.4-12.2-7.3c-5-1.4-12.2-0.5-16.3,1.8c-4.1,2.7-6.8,5.4-9.1,10.4
	C481.1,271.9,478.3,288.2,479.3,298.2L479.3,298.2z"/>
<path fill-rule="evenodd" clip-rule="evenodd" fill="#F7931E" d="M561.8,382.5c-1.8,2.3-4.5,7.3-5.9,10.9
	c-10.9,23.6,5.4,42.2,21.8,33.1c10.4-5.4,15-22.7,15.9-34.5L561.8,382.5L561.8,382.5z"/>
<path fill-rule="evenodd" clip-rule="evenodd" fill="#F7931E" d="M500.1,358.1c1.4,12.7,5,28.6,15.9,34.9
	c13.6,7.7,26.3-3.6,25.4-20.4c-0.5-7.3-5.4-19.5-9.5-24C526,350.4,504.7,357.2,500.1,358.1L500.1,358.1z"/>
<circle fill="#D4EFF4" stroke="#000000" stroke-width="1.3289" stroke-miterlimit="10" cx="414.4" cy="215.5" r="25"/>
<text transform="matrix(1 0 0 1 405.7637 225.3096)" font-family="'ArialMT'" font-size="28.7927">1</text>
<circle fill="#D4EFF4" stroke="#000000" stroke-width="1.3289" stroke-miterlimit="10" cx="642.4" cy="215" r="25"/>
<text transform="matrix(1 0 0 1 633.7637 225.5337)" font-family="'ArialMT'" font-size="28.7927">3</text>
<circle fill="#D4EFF4" stroke="#000000" stroke-width="1.3289" stroke-miterlimit="10" cx="532.4" cy="215.5" r="25"/>
<text transform="matrix(1 0 0 1 523.7637 225.5341)" font-family="'ArialMT'" font-size="28.7927">2</text>
<g>
	<g>
		<path fill="none" stroke="#6D6D6D" stroke-width="1.8464" stroke-miterlimit="10" stroke-dasharray="6,6" d="M206.2,120.8
			c0,0-11.7,95.6,149.5,93.8"/>
		<g>
			<polygon fill="#6D6D6D" points="371.9,214.1 349.3,224 354.5,214.6 348.9,205.4 			"/>
		</g>
	</g>
</g>
<text transform="matrix(1 0 0 1 63.694 103)" font-family="'ArialMT'" font-size="45">Get started here</text>
</svg>
