<?xml version="1.0" encoding="utf-8"?>
<!-- Generator: Adobe Illustrator 17.1.0, SVG Export Plug-In . SVG Version: 6.00 Build 0)  -->
<!DOCTYPE svg PUBLIC "-//W3C//DTD SVG 1.1//EN" "http://www.w3.org/Graphics/SVG/1.1/DTD/svg11.dtd">
<svg version="1.1" id="Layer_1" xmlns="http://www.w3.org/2000/svg" xmlns:xlink="http://www.w3.org/1999/xlink" x="0px" y="0px"
	 viewBox="0 0 850 566" enable-background="new 0 0 850 566" xml:space="preserve">
<rect x="442.2" y="96.5" fill="#E2E2E2" stroke="#009933" stroke-miterlimit="10" width="355.2" height="89.9"/>
<path d="M184.9,142.2H72.8c-10,0-18.1-8.1-18.1-18.1c0-9.1,6.8-16.8,15.8-18l5.3-0.7l0.5-5.3c1.7-19.8,18.6-35.4,38.6-35.4
	c11.9,0,22.9,5.3,30.3,14.7l3.2,4l4.7-2.2c2.5-1.1,5.2-1.7,7.9-1.7c8.3,0,15.7,5.5,18.1,13.5l1.4,4.6l4.8,0.1
	c11.6,0.2,21,10.2,21,22.2C206.3,132.2,196.7,142.2,184.9,142.2z M185.4,91.1C182.3,80.6,172.5,73,161,73c-3.8,0-7.4,0.9-10.6,2.3
	c-8.3-10.5-21.1-17.2-35.5-17.2c-23.7,0-43.2,18.2-45.1,41.4c-12.2,1.5-21.6,11.9-21.6,24.5c0,13.7,11.1,24.7,24.7,24.7h112.1
	c15.5,0,28-12.9,28-28.8C212.9,104.2,200.6,91.4,185.4,91.1z"/>
<path d="M138.3,100.6c-1,0-1.8-0.8-1.8-1.8c0-1,0.8-1.8,1.8-1.8c1,0,1.8,0.8,1.8,1.8C140.1,99.8,139.3,100.6,138.3,100.6z
	 M129.5,100.7h-24.5v-3.8h24.5V100.7z M141.5,92.6h-38.9c-1.1,0-2,0.9-2,2v8.5c0,1.1,0.9,2,2,2h38.9c1.1,0,2-0.9,2-2v-8.5
	C143.5,93.5,142.6,92.6,141.5,92.6z M138.3,129.4c-1,0-1.8-0.8-1.8-1.8c0-1,0.8-1.8,1.8-1.8c1,0,1.8,0.8,1.8,1.8
	C140.1,128.6,139.3,129.4,138.3,129.4z M129.5,129.5h-24.5v-3.8h24.5V129.5z M141.5,121.4h-38.9c-1.1,0-2,0.9-2,2v8.5
	c0,1.1,0.9,2,2,2h38.9c1.1,0,2-0.9,2-2v-8.5C143.5,122.3,142.6,121.4,141.5,121.4z M138.3,115.2c-1,0-1.8-0.8-1.8-1.8
	c0-1,0.8-1.8,1.8-1.8c1,0,1.8,0.8,1.8,1.8C140.1,114.4,139.3,115.2,138.3,115.2z M129.5,115.3h-24.5v-3.8h24.5V115.3z M141.5,107.2
	h-38.9c-1.1,0-2,0.9-2,2v8.5c0,1.1,0.9,2,2,2h38.9c1.1,0,2-0.9,2-2v-8.5C143.5,108.1,142.6,107.2,141.5,107.2z"/>
<line x1="107.5" y1="148.3" x2="117.5" y2="148.3"/>
<g>
	<path fill="none" stroke="#000000" stroke-width="1.3286" stroke-miterlimit="10" d="M594.9,433.7h-51.3V405h51.4L594.9,433.7z
		 M545.7,400.1c1.1,0,2.1,0.7,2.1,1.5c0,0.8-0.9,1.5-2.1,1.5c-1.2,0-2.1-0.7-2.1-1.5C543.6,400.7,544.5,400.1,545.7,400.1z
		 M551.9,400.1c1.1,0,2.1,0.7,2.1,1.5c0,0.8-0.9,1.5-2.1,1.5c-1.2,0-2.1-0.7-2.1-1.5C549.8,400.7,550.8,400.1,551.9,400.1z
		 M558.2,400.1c1.1,0,2.1,0.7,2.1,1.5c0,0.8-0.9,1.5-2.1,1.5c-1.2,0-2.1-0.7-2.1-1.5C556.1,400.7,557,400.1,558.2,400.1z
		 M594.9,398.1h-51.4c-1.5,0-2.8,0.9-2.8,2v34.6c0,1.1,1.2,2,2.8,2h51.4c1.5,0,2.8-0.9,2.8-2v-34.6
		C597.7,399,596.4,398.1,594.9,398.1z"/>
	<rect x="547" y="408.5" fill="none" stroke="#000000" stroke-width="1.3286" stroke-miterlimit="10" width="20.8" height="2"/>
	<rect x="547" y="417.4" fill="none" stroke="#000000" stroke-width="1.3286" stroke-miterlimit="10" width="20.8" height="2"/>
	<rect x="547" y="412.9" fill="none" stroke="#000000" stroke-width="1.3286" stroke-miterlimit="10" width="27.1" height="2"/>
</g>
<path d="M518.1,422.9c0.2-0.2,0.1-0.6,0-0.8C518.2,422.3,518.3,422.6,518.1,422.9z"/>
<path d="M585.9,460.6c-0.2,0.2-0.5,0.3-1,0.3c-0.1,0-0.2,0-0.4,0c-0.4,0-1,0-1.8,0c-0.4,0-0.9,0-1.4,0c-0.8,0-1.9,0-3.2,0
	c-1.9,0-4.1,0-6.2,0c-3.6,0-7.2,0-9.4,0c-0.6,0-1.1,0-1.5,0c-1.3,0-2.3,0-2.8-0.1c-0.1,0-0.2,0-0.2,0c-0.1,0-0.2,0-0.2,0
	c-1.7-0.2-0.4-1.6-0.4-1.6s2.1-1.6,3.1-3.3c0,0,0.3,0,0.6-2.5c0.4-3.6,0.7-6.3,0.7-6.3h19.2c0,0,0.3,2.8,0.7,6.3
	c0.3,2.5,0.6,2.5,0.6,2.5c1,1.5,2.9,3.1,3.1,3.3c0,0,0,0,0,0s0.1,0.1,0.2,0.2C585.9,459.8,586.2,460.3,585.9,460.6z"/>
<path d="M518,421.6c0.1,0.1,0.1,0.2,0.2,0.3C518.2,421.8,518.1,421.7,518,421.6z"/>
<path d="M616,392.4h-89.4V443H616L616,392.4L616,392.4z M571.4,447.6c-3.2,0-44.4,0.1-46.4,0c-2.1-0.1-2.2-2.2-2.2-2.2v-54.8
	c0-1.8,2.2-1.9,2.2-1.9h92.5c0,0,2.2,0.1,2.2,1.9v54.8c0,0-0.2,2.1-2.2,2.2C615.6,447.8,576,447.7,571.4,447.6"/>
<text transform="matrix(1 0 0 1 83.2236 174.8926)" font-family="'ArialMT'" font-size="21.2582">REST API</text>
<text transform="matrix(1 0 0 1 526.499 487.3867)" font-family="'ArialMT'" font-size="21.2582">Application</text>
<g>
	<line x1="532.4" y1="366" x2="212.9" y2="157.6"/>
	<g>
		<line fill="none" stroke="#747574" stroke-width="2.6573" stroke-miterlimit="10" x1="532.4" y1="366" x2="530.2" y2="364.6"/>
		
			<line fill="none" stroke="#747574" stroke-width="2.6573" stroke-miterlimit="10" stroke-dasharray="5.2535,5.2535" x1="525.8" y1="361.7" x2="220" y2="162.2"/>
		<line fill="none" stroke="#747574" stroke-width="2.6573" stroke-miterlimit="10" x1="217.8" y1="160.8" x2="215.6" y2="159.4"/>
		<g>
			<path fill="#747574" d="M237.7,158.6c0,0.7-0.6,1.3-1.3,1.3l-20.3-0.2l8.4,18.5c0.3,0.7,0,1.5-0.7,1.8c-0.7,0.3-1.5,0-1.8-0.7
				l-9.3-20.4c-0.2-0.4-0.2-0.9,0.1-1.3c0.2-0.4,0.7-0.6,1.1-0.6l22.4,0.2c0.3,0,0.5,0.1,0.7,0.2
				C237.5,157.7,237.7,158.1,237.7,158.6z"/>
		</g>
	</g>
</g>
<line fill="none" x1="383" y1="255.9" x2="569" y2="376.7"/>
<text transform="matrix(0.8387 0.5446 -0.5446 0.8387 417.8702 278.5685)"><tspan x="0" y="0" font-family="'ArialMT'" font-size="15.9437">R</tspan><tspan x="11.5" y="0" font-family="'ArialMT'" font-size="15.9437">e</tspan><tspan x="20.4" y="0" font-family="'ArialMT'" font-size="15.9437">q</tspan><tspan x="29.3" y="0" font-family="'ArialMT'" font-size="15.9437" rotate="0">u</tspan><tspan x="38.1" y="0" font-family="'ArialMT'" font-size="15.9437">e</tspan><tspan x="47" y="0" font-family="'ArialMT'" font-size="15.9437">s</tspan><tspan x="55" y="0" font-family="'ArialMT'" font-size="15.9437">t</tspan></text>
<text transform="matrix(1 0 0 1 461.2322 127)"><tspan x="0" y="0" font-family="'MyriadPro-Regular'" font-size="18">Request Header</tspan><tspan x="0" y="33.5" fill="#006600" font-family="'CourierNewPSMT'" font-size="15.9437">{ “api-key”: “9038-20380-9340-98”}</tspan></text>
<g>
	<path fill="#009245" d="M455.2,261.1c0.1,0.6,0.6,1,1.2,0.9c0.6-0.1,1-0.6,0.9-1.2c-0.2-1.2-0.9-2.2-1.9-2.9c-1-0.7-2.2-1-3.4-0.8
		c-1.2,0.2-2.2,0.9-2.9,1.9c-0.7,1-1,2.2-0.8,3.4c0.2,1.2,0.9,2.2,1.9,2.9c1,0.7,2.2,1,3.4,0.8c0.6-0.1,1-0.6,0.9-1.2
		c-0.1-0.6-0.6-1-1.2-0.9c-1.4,0.2-2.6-0.6-2.9-2c-0.1-0.6,0-1.3,0.4-1.9c0.4-0.5,0.9-0.9,1.6-1
		C453.6,258.9,454.9,259.8,455.2,261.1L455.2,261.1z"/>
	<path fill="#009245" d="M480,279.9l0.1-5.9c0-0.4-0.2-0.7-0.5-0.9l-16.8-11.6c0-1.1-0.2-2.1-0.6-3.2c0,0,0.1-0.1,0-0.2
		c-1.7-4.8-6.5-7.7-11.6-6.7c-5.6,1-9.3,6.4-8.3,11.9c0.4,2.8,2.1,5.2,4.2,6.6c2.1,1.5,4.9,2.2,7.7,1.7l0.6-0.1
		c0.6-0.1,0.9-0.7,0.8-1.3c-0.1-0.6-0.7-0.9-1.3-0.8c-0.2,0-0.3,0.1-0.5,0.1c-4.4,0.8-8.7-2.2-9.4-6.6c-0.8-4.4,2.2-8.7,6.6-9.4
		c1.7-0.3,3.1-0.1,4.5,0.5c3,1.3,5.1,4.5,5,7.7l0,0.2c0,0.4,0.1,0.8,0.5,1l16.8,11.6l-0.1,4.5l-4.2,1.6c-0.1-0.2-0.2-0.5-0.3-1
		c-0.1-0.8-0.3-1.9-1.5-2.8c-1.2-0.9-2.4-0.6-3.1-0.5c-0.8,0.1-1.1,0.2-1.5-0.1c-0.4-0.3-0.5-0.6-0.6-1.4c-0.1-0.8-0.3-1.9-1.5-2.8
		c-1.2-0.9-2.4-0.6-3.1-0.5s-1.1,0.2-1.5-0.1c-0.4-0.3-0.5-0.6-0.6-1.4c0-0.7-0.3-1.5-0.9-2.2c-0.4-0.4-1.1-0.5-1.6,0
		c-0.4,0.4-0.5,1.1,0,1.6c0.2,0.3,0.3,0.6,0.4,1.2c0.1,0.8,0.3,1.9,1.5,2.8s2.4,0.6,3.1,0.5c0.8-0.1,1.1-0.2,1.5,0.1
		c0.4,0.3,0.5,0.6,0.6,1.4c0.1,0.8,0.3,1.9,1.5,2.8c1.2,0.9,2.4,0.6,3.1,0.5c0.8-0.1,1.1-0.2,1.5,0.1c0.4,0.3,0.5,0.6,0.6,1.4
		c0.1,0.8,0.3,1.9,1.5,2.8c0.3,0.2,0.7,0.2,1,0.1l5.5-2.2C479.9,280.7,480.1,280.3,480,279.9L480,279.9z"/>
</g>
<path fill="#009933" d="M233.3,126.4l-6.4-6.4l1.4-1.4l5,5l11.7-11.7l1.4,1.4L233.3,126.4z M256.2,118.8l-4.4-4.1l1.9-5.7l-5.9-1.3
	l-1.2-5.9l-5.7,1.8l-4-4.5l-4.1,4.4l-5.7-1.9l-1.3,5.9l-5.9,1.2l1.8,5.7l-4.5,4l4.4,4.1l-1.9,5.7l5.9,1.3l1.2,5.9l5.7-1.8l4,4.5
	l4.1-4.4l5.7,1.9l1.3-5.9l5.9-1.2l-1.8-5.7L256.2,118.8z"/>
<text transform="matrix(1 0 0 1 562.0217 83.2518)" font-family="'MyriadPro-Regular'" font-size="23">API Key</text>
<line fill="none" stroke="#009933" stroke-miterlimit="10" x1="469" y1="257.5" x2="614" y2="257.5"/>
<line fill="none" stroke="#009933" stroke-miterlimit="10" x1="612.5" y1="257" x2="612.5" y2="186"/>
<line stroke="#009933" stroke-miterlimit="10" stroke-dasharray="5.3146" x1="442.2" y1="251.3" x2="265.3" y2="138.3"/>
<line stroke="#009933" stroke-miterlimit="10" x1="265.3" y1="137.3" x2="269.2" y2="156.6"/>
<line stroke="#009933" stroke-miterlimit="10" x1="265.3" y1="137.3" x2="286.4" y2="136"/>
</svg>
