<?xml version="1.0" encoding="utf-8"?>
<!-- Generator: Adobe Illustrator 17.1.0, SVG Export Plug-In . SVG Version: 6.00 Build 0)  -->
<!DOCTYPE svg PUBLIC "-//W3C//DTD SVG 1.1//EN" "http://www.w3.org/Graphics/SVG/1.1/DTD/svg11.dtd">
<svg version="1.1" id="Layer_1" xmlns="http://www.w3.org/2000/svg" xmlns:xlink="http://www.w3.org/1999/xlink" x="0px" y="0px"
	 viewBox="0 0 850 566" enable-background="new 0 0 850 566" xml:space="preserve">
<text transform="matrix(1 0 0 1 91.3516 71.7939)"><tspan x="0" y="0" font-family="'ArialMT'" font-size="27.2903">HMAC uses a secret key known only to the client and</tspan><tspan x="0" y="32.7" font-family="'ArialMT'" font-size="27.2903">server to construct a matching signature </tspan></text>
<text transform="matrix(1 0 0 1 628.873 250.7959)"><tspan x="0" y="0" font-family="'ArialMT'" font-size="21.8322">Resource </tspan><tspan x="0" y="26.2" font-family="'ArialMT'" font-size="21.8322">server (API)</tspan></text>
<path d="M710,161.1c-1.9,0-3.4-1.5-3.4-3.4c0-1.9,1.5-3.4,3.4-3.4c1.9,0,3.4,1.5,3.4,3.4C713.4,159.6,711.9,161.1,710,161.1z
	 M693.3,161.4h-46.6v-7.2h46.6V161.4z M716.1,145.9h-74c-2.1,0-3.7,1.7-3.7,3.7v16.2c0,2.1,1.7,3.7,3.7,3.7h74
	c2.1,0,3.7-1.7,3.7-3.7v-16.2C719.8,147.6,718.1,145.9,716.1,145.9z M710,216c-1.9,0-3.4-1.5-3.4-3.4c0-1.9,1.5-3.4,3.4-3.4
	c1.9,0,3.4,1.5,3.4,3.4C713.4,214.5,711.9,216,710,216z M693.3,216.2h-46.6V209h46.6V216.2z M716.1,200.8h-74
	c-2.1,0-3.7,1.7-3.7,3.7v16.2c0,2.1,1.7,3.7,3.7,3.7h74c2.1,0,3.7-1.7,3.7-3.7v-16.2C719.8,202.4,718.1,200.8,716.1,200.8z
	 M710,188.8c-1.9,0-3.4-1.5-3.4-3.4c0-1.9,1.5-3.4,3.4-3.4c1.9,0,3.4,1.5,3.4,3.4C713.4,187.3,711.9,188.8,710,188.8z M693.3,189.1
	h-46.6v-7.2h46.6V189.1z M716.1,173.6h-74c-2.1,0-3.7,1.7-3.7,3.7v16.2c0,2.1,1.7,3.7,3.7,3.7h74c2.1,0,3.7-1.7,3.7-3.7v-16.2
	C719.8,175.3,718.1,173.6,716.1,173.6z"/>
<g>
	<path d="M139.4,375.2c-1.8,0.8-3.9-0.1-4.7-1.9c-0.8-1.8,0.1-3.9,1.9-4.7c1.8-0.8,3.9,0.1,4.7,1.9
		C142.1,372.3,141.3,374.5,139.4,375.2z M145,367.1l-1.2,0.5c-0.4-0.5-0.9-1-1.4-1.4l0.5-1.2c0.2-0.4,0-0.8-0.4-0.9l-2-0.8
		c-0.4-0.2-0.8,0-0.9,0.4l-0.5,1.2c-0.7-0.1-1.3-0.1-2,0l-0.5-1.2c-0.2-0.4-0.6-0.5-0.9-0.4l-2,0.8c-0.4,0.2-0.5,0.6-0.4,0.9
		l0.5,1.2c-0.5,0.4-1,0.9-1.4,1.4l-1.2-0.5c-0.4-0.2-0.8,0-0.9,0.4l-0.8,2c-0.2,0.4,0,0.8,0.4,0.9l1.2,0.5c-0.1,0.7-0.1,1.3,0,2
		l-1.2,0.5c-0.4,0.2-0.5,0.6-0.4,0.9l0.8,2c0.2,0.4,0.6,0.5,0.9,0.4l1.2-0.5c0.4,0.5,0.9,1,1.4,1.4l-0.5,1.2c-0.2,0.4,0,0.8,0.4,0.9
		l2,0.8c0.4,0.2,0.8,0,0.9-0.4l0.5-1.2c0.7,0.1,1.3,0.1,2,0l0.5,1.2c0.2,0.4,0.6,0.5,0.9,0.4l2-0.8c0.4-0.2,0.5-0.6,0.4-0.9
		l-0.5-1.2c0.5-0.4,1-0.9,1.4-1.4l1.2,0.5c0.4,0.2,0.8,0,0.9-0.4l0.8-2c0.2-0.4,0-0.8-0.4-0.9l-1.2-0.5c0.1-0.7,0.1-1.3,0-2l1.2-0.5
		c0.4-0.2,0.5-0.6,0.4-0.9l-0.8-2C145.8,367.1,145.4,366.9,145,367.1z"/>
	<path d="M122.9,405.2c-1.3,0-2.4-1.1-2.4-2.4c0-1.3,1.1-2.4,2.4-2.4c1.3,0,2.4,1.1,2.4,2.4C125.3,404.1,124.2,405.2,122.9,405.2z
		 M120.7,353.5h4.8c0.3,0,0.6,0.3,0.6,0.6c0,0.3-0.3,0.6-0.6,0.6h-4.8c-0.3,0-0.6-0.3-0.6-0.6C120.1,353.8,120.4,353.5,120.7,353.5z
		 M136.3,382.6v15.9h-26.4v-40.2h26.4v2.9h3v-8.3c0-2.6-2.1-4.8-4.8-4.8h-22.8c-2.6,0-4.8,2.1-4.8,4.8v50.3c0,2.6,2.1,4.8,4.8,4.8
		h22.8c2.6,0,4.8-2.1,4.8-4.8v-20.7H136.3z"/>
	<rect x="89.6" y="363.4" width="14.4" height="3"/>
	<rect x="93.1" y="369.4" width="10.8" height="3"/>
	<rect x="100.3" y="375.4" width="3.6" height="3"/>
</g>
<text transform="matrix(1 0 0 1 100.3384 440.8906)" font-family="'ArialMT'" font-size="21.8322">App</text>
<polyline fill="none" stroke="#A43ABA" stroke-width="5.1169" stroke-linecap="round" stroke-linejoin="round" stroke-miterlimit="10" points="
	329.9,229 337.1,220.3 343.3,229 348.4,220.3 353.7,229 359.1,220.3 364.7,229 370.6,220.3 375.7,229 381.4,220.3 387,229 
	391.9,220.3 397.7,229 403.6,216.2 410.3,229 "/>
<g>
	<g>
		
			<line fill="none" stroke="#999999" stroke-width="1.3645" stroke-miterlimit="10" stroke-dasharray="5.4581,5.4581" x1="173.4" y1="404" x2="601.1" y2="184.4"/>
		<g>
			<path fill="#999999" d="M608.4,180.6c-2.8,3-5.9,7.4-7.4,11.1l-0.9-6.8l-5.1-4.7C598.9,181.1,604.3,181.1,608.4,180.6z"/>
		</g>
	</g>
</g>
<g>
	<path d="M354.3,266.2l3.8-11.7l3.8,11.7H354.3z M359.7,248.7c-0.2-0.7-0.8-1.1-1.5-1.1s-1.3,0.4-1.5,1.1l-9.2,28.2
		c-0.3,0.8,0.2,1.8,1,2c0.2,0.1,0.3,0.1,0.5,0.1c0.7,0,1.3-0.4,1.5-1.1l2.8-8.6h9.7l2.8,8.6c0.3,0.8,1.2,1.3,2,1
		c0.8-0.3,1.3-1.2,1-2L359.7,248.7z"/>
	<path d="M380.3,275.8h-6.7v-24.2h5.9c2.7,0,4.9,2.2,4.9,4.8c0,2.7-2.2,4.8-4.9,4.8h-3.1c-0.9,0-1.6,0.7-1.6,1.6
		c0,0.9,0.7,1.6,1.6,1.6h3.9c3.1,0,5.7,2.5,5.7,5.6C386,273.3,383.5,275.8,380.3,275.8z M384.9,262.6c1.7-1.5,2.8-3.6,2.8-6.1
		c0-4.4-3.6-8.1-8.1-8.1H372c-0.9,0-1.6,0.7-1.6,1.6v27.4c0,0.9,0.7,1.6,1.6,1.6h8.3c4.9,0,8.9-4,8.9-8.9
		C389.3,266.9,387.5,264.1,384.9,262.6z"/>
</g>
<path fill="#010101" d="M603.6,309.4c0.9,0,1.8,0.4,2.4,1c0.6,0.7,1,1.5,1,2.4c0,1.9-1.6,3.4-3.5,3.4l0,0c-1.9,0-3.4-1.6-3.4-3.5
	C600.2,311,601.7,309.4,603.6,309.4L603.6,309.4z M651.1,308.7h-29.7c-1.8-4.9-6.4-8.3-11.7-8.3h-0.1c-6.8,0-12.5,5.6-12.5,12.4
	c-0.1,6.9,5.5,12.6,12.4,12.7h0.1c5.2,0,9.9-3.2,11.7-8.1l1,0c0.4,0.6,1.1,1.7,1.8,2.1c0.2,0.1,0.6,0.2,1,0.2c0.3,0,0.5,0,0.5,0
	l0.6-0.1l0.1-2.2l1.7,0.1l1.9,2.3l2.4-2.2l1.8,0l1.7-1.3l1.7,1.5l2-1.1l1.9,0.9l1.7,2.2l1.9-2.2l1.8-0.8l2.5,2.1l1.8-1.4l3.6-5.4
	L651.1,308.7z"/>
<polyline fill="none" stroke="#A43ABA" stroke-width="5.1169" stroke-linecap="round" stroke-linejoin="round" stroke-miterlimit="10" points="
	734.3,315.8 741.4,307.1 747.6,315.8 752.7,307.1 758.1,315.8 763.4,307.1 769.1,315.8 774.9,307.1 780.1,315.8 785.7,307.1 
	791.3,315.8 796.2,307.1 802.1,315.8 807.9,303 814.6,315.8 "/>
<g>
	<path d="M519,319.4l3.8-11.7l3.8,11.7H519z M524.4,302c-0.2-0.7-0.8-1.1-1.5-1.1c-0.7,0-1.3,0.4-1.5,1.1l-9.2,28.2
		c-0.3,0.8,0.2,1.8,1,2c0.2,0.1,0.3,0.1,0.5,0.1c0.7,0,1.3-0.4,1.5-1.1l2.8-8.6h9.7l2.8,8.6c0.3,0.8,1.2,1.3,2,1
		c0.8-0.3,1.3-1.2,1-2L524.4,302z"/>
	<path d="M545,329.1h-6.7v-24.2h5.9c2.7,0,4.9,2.2,4.9,4.8c0,2.7-2.2,4.8-4.9,4.8h-3.1c-0.9,0-1.6,0.7-1.6,1.6
		c0,0.9,0.7,1.6,1.6,1.6h3.9c3.1,0,5.7,2.5,5.7,5.6C550.7,326.6,548.2,329.1,545,329.1z M549.6,315.8c1.7-1.5,2.8-3.6,2.8-6.1
		c0-4.4-3.6-8.1-8.1-8.1h-7.5c-0.9,0-1.6,0.7-1.6,1.6v27.4c0,0.9,0.7,1.6,1.6,1.6h8.3c4.9,0,8.9-4,8.9-8.9
		C554,320.2,552.2,317.4,549.6,315.8z"/>
</g>
<text transform="matrix(1 0 0 1 560.999 328.6855)" font-family="'ArialMT'" font-size="40.9354">+</text>
<text transform="matrix(1 0 0 1 671.7979 328.6855)" font-family="'ArialMT'" font-size="40.9354">==</text>
<text transform="matrix(1 0 0 1 608.7891 354.4004)" font-family="'ArialMT'" font-size="16.3742">key</text>
<text transform="matrix(1 0 0 1 740.4648 354.4004)" font-family="'ArialMT'" font-size="16.3742">signature</text>
<text transform="matrix(1 0 0 1 507.8145 354.3994)" font-family="'ArialMT'" font-size="16.3742">message</text>
<path fill="#010101" d="M131.2,466.9c0.9,0,1.8,0.4,2.4,1c0.6,0.7,1,1.5,1,2.4c0,1.9-1.6,3.4-3.5,3.4l0,0c-1.9,0-3.4-1.6-3.4-3.5
	C127.7,468.5,129.3,466.9,131.2,466.9L131.2,466.9z M178.7,466.2H149c-1.8-4.9-6.4-8.3-11.7-8.3h-0.1c-6.8,0-12.5,5.6-12.5,12.4
	c-0.1,6.9,5.5,12.6,12.4,12.7h0.1c5.2,0,9.9-3.2,11.7-8.1l1,0c0.4,0.6,1.1,1.7,1.8,2.1c0.2,0.1,0.6,0.2,1,0.2c0.3,0,0.5,0,0.5,0
	l0.6-0.1l0.1-2.2l1.7,0.1l1.9,2.3l2.4-2.2l1.8,0l1.7-1.3l1.7,1.5l2-1.1l1.9,0.9l1.7,2.2l1.9-2.2l1.8-0.8l2.5,2.1l1.8-1.4l3.6-5.4
	L178.7,466.2z"/>
<polyline fill="none" stroke="#A43ABA" stroke-width="5.1169" stroke-linecap="round" stroke-linejoin="round" stroke-miterlimit="10" points="
	261.8,473.3 269,464.6 275.1,473.3 280.2,464.6 285.6,473.3 291,464.6 296.6,473.3 302.5,464.6 307.6,473.3 313.2,464.6 
	318.9,473.3 323.7,464.6 329.6,473.3 335.5,460.5 342.2,473.3 "/>
<g>
	<path d="M46.6,476.9l3.8-11.7l3.8,11.7H46.6z M51.9,459.5c-0.2-0.7-0.8-1.1-1.5-1.1c-0.7,0-1.3,0.4-1.5,1.1l-9.2,28.2
		c-0.3,0.8,0.2,1.8,1,2c0.2,0.1,0.3,0.1,0.5,0.1c0.7,0,1.3-0.4,1.5-1.1l2.8-8.6h9.7l2.8,8.6c0.3,0.8,1.2,1.3,2,1
		c0.8-0.3,1.3-1.2,1-2L51.9,459.5z"/>
	<path d="M72.6,486.6h-6.7v-24.2h5.9c2.7,0,4.9,2.2,4.9,4.8c0,2.7-2.2,4.8-4.9,4.8h-3.1c-0.9,0-1.6,0.7-1.6,1.6
		c0,0.9,0.7,1.6,1.6,1.6h3.9c3.1,0,5.7,2.5,5.7,5.6C78.3,484.1,75.7,486.6,72.6,486.6z M77.1,473.3c1.7-1.5,2.8-3.6,2.8-6.1
		c0-4.4-3.6-8.1-8.1-8.1h-7.5c-0.9,0-1.6,0.7-1.6,1.6v27.4c0,0.9,0.7,1.6,1.6,1.6h8.3c4.9,0,8.9-4,8.9-8.9
		C81.5,477.7,79.7,474.9,77.1,473.3z"/>
</g>
<text transform="matrix(1 0 0 1 88.5557 486.1787)" font-family="'ArialMT'" font-size="40.9354">+</text>
<text transform="matrix(1 0 0 1 199.3545 486.1787)" font-family="'ArialMT'" font-size="40.9354">==</text>
<text transform="matrix(1 0 0 1 136.3457 511.8936)" font-family="'ArialMT'" font-size="16.3742">key</text>
<text transform="matrix(1 0 0 1 268.0215 511.8936)" font-family="'ArialMT'" font-size="16.3742">signature</text>
<text transform="matrix(1 0 0 1 35.3721 511.8936)" font-family="'ArialMT'" font-size="16.3742">message</text>
</svg>
