<?xml version="1.0" encoding="utf-8"?>
<!-- Generator: Adobe Illustrator 17.1.0, SVG Export Plug-In . SVG Version: 6.00 Build 0)  -->
<!DOCTYPE svg PUBLIC "-//W3C//DTD SVG 1.1//EN" "http://www.w3.org/Graphics/SVG/1.1/DTD/svg11.dtd">
<svg version="1.1" id="Layer_1" xmlns="http://www.w3.org/2000/svg" xmlns:xlink="http://www.w3.org/1999/xlink" x="0px" y="0px"
	 viewBox="0 0 850 566" enable-background="new 0 0 850 566" xml:space="preserve">
<path fill="#EFEFEF" d="M272,400c0,6.6-5.4,12-12,12H81c-6.6,0-12-5.4-12-12V157c0-6.6,5.4-12,12-12h179c6.6,0,12,5.4,12,12V400z"/>
<path fill="#FFFFFF" d="M374,350.7c0,6.8-5.6,12.3-12.1,12.3H179.8c-6.5,0-11.8-5.5-11.8-12.3V120.3c0-6.8,5.3-12.3,11.8-12.3h182.1
	c6.5,0,12.1,5.5,12.1,12.3V350.7z"/>
<path d="M170.2,275.6h-56.3l10.2-10.2l-5.3-5.3l-19.4,19.4l19.4,19.4l5.3-5.3l-10.2-10.7h56.3c11.7,0,21.4,9.7,21.4,21.4v31.1h7.3
	v-31.1C198.8,288.7,185.7,275.6,170.2,275.6L170.2,275.6z"/>
<path d="M373.6,354.2c0,3.4-2.9,6.3-6.3,6.3H173.6c-3.4,0-6.3-2.9-6.3-6.3v-62.2H160v62.2c0,7.3,6.3,13.6,13.6,13.6h102v30.1
	c0,3.4-2.9,6.3-6.3,6.3H76.4c-3.4,0-6.3-2.9-6.3-6.3V158c0-3.4,2.9-6.3,6.3-6.3h84v115.1h7.3l0-152.5c0-3.4,2.9-6.3,6.3-6.3h193.3
	c3.4,0,6.3,2.9,6.3,6.3L373.6,354.2z M366.8,100.7H173.6c-7.3,0-13.6,6.3-13.6,13.6v30.1H76.4c-7.3,0-13.6,6.3-13.6,13.6v239.9
	c0,7.3,6.3,13.6,13.6,13.6h193.3c7.3,0,13.6-6.3,13.6-13.6v-30.1h84c7.3,0,13.6-6.3,13.6-13.6l0-239.9
	C380.9,106.6,374.6,100.7,366.8,100.7L366.8,100.7z"/>
<rect x="189.1" y="137.2" width="162.7" height="7.3"/>
<rect x="189.1" y="176" width="162.7" height="7.3"/>
<rect x="189.1" y="214.9" width="162.7" height="7.3"/>
<rect x="189.1" y="253.7" width="162.7" height="7.3"/>
<rect x="207.1" y="292.1" width="126.7" height="7.3"/>
<text transform="matrix(1 0 0 1 409.2571 140.8101)"><tspan x="0" y="0" font-family="'ArialMT'" font-size="29">One-line descriptions</tspan><tspan x="0" y="34.8" font-family="'ArialMT'" font-size="29">of each endpoint or </tspan><tspan x="0" y="69.6" font-family="'ArialMT'" font-size="29">function</tspan></text>
<text transform="matrix(1 0 0 1 99.2812 80.8952)" font-family="'ArialMT'" font-size="41">quick reference</text>
<ellipse transform="matrix(0.9952 9.783249e-02 -9.783249e-02 0.9952 41.3471 -45.6462)" fill="#2D2D2D" cx="486.1" cy="398.8" rx="25.9" ry="35.8"/>
<path fill="#2D2D2D" d="M551,475.7c-0.9-18.9-27.7-33-59.6-31.5c-31.9,1.5-57.4,17.9-56.4,36.8v0c0,1.7-0.8,3.7-0.7,5.7l2.6,56.9
	c0.3,6.6,5.9,11.7,12.6,11.4l92.9-4.2c6.6-0.3,11.7-5.9,11.4-12.5l-2.6-56.9c0-0.9-0.2-1.7-0.4-2.5C551,477.8,551.1,476.7,551,475.7
	z"/>
<path fill="#EFEDED" d="M760.5,241h-180c-6.6,0-12.5,6-12.5,14.1v72.1c0,14.4-2.7,24.9-9.2,35.9c-6.6,11-15.2,22.7-29.9,30
	c28.2,5.6,54.1-5.1,74.6-27.1h157c6.6,0,11.5-7.1,11.5-15.1v-95.8C772,247,767.1,241,760.5,241z"/>
<text transform="matrix(1 0 0 1 584.9654 273.3388)"><tspan x="0" y="0" fill="#585959" font-family="'ArialMT'" font-size="19">Remind me again </tspan><tspan x="0" y="22.8" fill="#585959" font-family="'ArialMT'" font-size="19">what that endpoint </tspan><tspan x="0" y="45.6" fill="#585959" font-family="'ArialMT'" font-size="19">was called and what </tspan><tspan x="0" y="68.4" fill="#585959" font-family="'ArialMT'" font-size="19">it does?</tspan></text>
<path fill="none" stroke="#C8C8C8" stroke-width="4.7256" stroke-miterlimit="10" d="M458,114.7c4-15-23.1-32.6-35.4-39.9
	c-6.5-3.9-14.1-5-21.5-6c-3.4-0.5-6.9-1-10.3-1.4"/>
</svg>
