<?xml version="1.0" encoding="utf-8"?>
<!-- Generator: Adobe Illustrator 17.1.0, SVG Export Plug-In . SVG Version: 6.00 Build 0)  -->
<!DOCTYPE svg PUBLIC "-//W3C//DTD SVG 1.1//EN" "http://www.w3.org/Graphics/SVG/1.1/DTD/svg11.dtd">
<svg version="1.1" id="Layer_1" xmlns="http://www.w3.org/2000/svg" xmlns:xlink="http://www.w3.org/1999/xlink" x="0px" y="0px"
	 viewBox="0 0 800 506.3" enable-background="new 0 0 800 506.3" xml:space="preserve">
<path fill-rule="evenodd" clip-rule="evenodd" d="M564.3,438.6H225.8c-5.7,0-10.4-4.6-10.4-10.4V89.8c0-5.7,4.6-10.4,10.4-10.4
	h338.4c5.7,0,10.4,4.6,10.4,10.4v338.4C574.6,434,570,438.6,564.3,438.6z M236.2,417.9h317.7V100.1H236.2V417.9z"/>
<path fill-rule="evenodd" clip-rule="evenodd" d="M258.3,249.8c-4.3,0-7.8-3.5-7.8-7.8V122.3c0-4.3,3.5-7.8,7.8-7.8h132.5
	c4.3,0,7.8,3.5,7.8,7.8c0,4.3-3.5,7.8-7.8,7.8H266.1v112C266.1,246.4,262.6,249.8,258.3,249.8"/>
<path fill-rule="evenodd" clip-rule="evenodd" d="M378,230.9c0,8.5-6.9,15.5-15.4,15.5c-8.6,0-15.5-6.9-15.5-15.5
	s6.9-15.4,15.5-15.4C371.1,215.4,378,222.4,378,230.9"/>
<path fill-rule="evenodd" clip-rule="evenodd" d="M529.9,234.5c-4.3,0-7.8-3.5-7.8-7.8v-96.6H469c-4.3,0-7.8-3.5-7.8-7.8
	c0-4.3,3.5-7.8,7.8-7.8h60.9c4.3,0,7.8,3.5,7.8,7.8v104.4C537.7,231,534.2,234.5,529.9,234.5"/>
<path fill-rule="evenodd" clip-rule="evenodd" d="M479.4,259c-8.5,0-15.4-6.9-15.4-15.4s6.9-15.4,15.4-15.4
	c8.5,0,15.5,6.9,15.5,15.4S487.9,259,479.4,259"/>
<path fill-rule="evenodd" clip-rule="evenodd" d="M476.6,360.4c-8.5,0-15.4-6.9-15.4-15.4s6.9-15.4,15.4-15.4
	c8.5,0,15.5,6.9,15.5,15.4S485.2,360.4,476.6,360.4"/>
<path fill-rule="evenodd" clip-rule="evenodd" d="M529.1,402.7H398.8c-4.3,0-7.8-3.5-7.8-7.8c0-4.3,3.5-7.8,7.8-7.8h122.6v-71.7
	c0-4.3,3.5-7.8,7.8-7.8c4.3,0,7.8,3.5,7.8,7.8v79.5C536.9,399.2,533.4,402.7,529.1,402.7"/>
<path fill-rule="evenodd" clip-rule="evenodd" d="M427.7,367.5c-4.3,0-7.8-3.5-7.8-7.8V178.3h-73.8c-4.3,0-7.8-3.5-7.8-7.8
	c0-4.3,3.5-7.8,7.8-7.8h81.6c4.3,0,7.8,3.5,7.8,7.8v189.2C435.5,364.1,432,367.5,427.7,367.5"/>
<path fill-rule="evenodd" clip-rule="evenodd" d="M383.8,347.5h-81.6c-4.3,0-7.8-3.5-7.8-7.8V227.6c0-4.3,3.5-7.8,7.8-7.8
	c4.3,0,7.8,3.5,7.8,7.8V332h73.8c4.3,0,7.8,3.5,7.8,7.8C391.6,344,388.1,347.5,383.8,347.5"/>
<path fill-rule="evenodd" clip-rule="evenodd" d="M329.5,401.7h-71.2c-4.3,0-7.8-3.5-7.8-7.8v-74.1c0-4.3,3.5-7.8,7.8-7.8
	c4.3,0,7.8,3.5,7.8,7.8v66.3h63.4c4.3,0,7.8,3.5,7.8,7.8C337.3,398.2,333.8,401.7,329.5,401.7"/>
<path d="M476.7,302.7L476.7,302.7c-1.4,0-2.8-0.6-3.8-1.6c-1-1-1.6-2.4-1.6-3.8c0-1.4,0.6-2.8,1.6-3.8c1-1,2.4-1.6,3.8-1.6
	c1.4,0,2.8,0.6,3.8,1.6c1,1,1.6,2.4,1.6,3.8c0,1.4-0.6,2.8-1.6,3.8C479.4,302.2,478.1,302.7,476.7,302.7L476.7,302.7z M476.7,291.5
	c-1.6,0-3.1,0.6-4.2,1.7c-1.1,1.1-1.7,2.6-1.7,4.2s0.6,3.1,1.7,4.2c1.1,1.1,2.6,1.7,4.2,1.7s3.1-0.6,4.2-1.7
	c1.1-1.1,1.7-2.6,1.7-4.2c0-1.6-0.6-3.1-1.7-4.2S478.2,291.5,476.7,291.5L476.7,291.5z"/>
<path d="M490.5,298.6l-3,1.1c-0.1,0-0.2,0.1-0.2,0.2c-0.3,1.2-0.7,2.4-1.4,3.4c-0.1,0.1-0.1,0.2,0,0.3l1.3,2.8h0
	c-0.5,0.6-1,1.1-1.6,1.6l-2.8-1.3v0c-0.1,0-0.2,0-0.3,0c-1,0.7-2.2,1.1-3.4,1.4c-0.1,0-0.2,0.1-0.2,0.2l-1.1,3
	c-0.8,0.1-1.5,0.1-2.3,0l-1.1-3c0-0.1-0.1-0.2-0.2-0.2c-1.2-0.3-2.4-0.7-3.4-1.4c-0.1-0.1-0.2-0.1-0.3,0l-2.8,1.3v0
	c-0.6-0.5-1.1-1-1.6-1.6l1.3-2.8h0c0-0.1,0-0.2,0-0.3c-0.7-1-1.1-2.2-1.4-3.4c0-0.1-0.1-0.2-0.2-0.2l-3-1.1c0-0.4,0-0.8,0-1.2
	s0-0.8,0-1.2l3-1.1c0.1,0,0.2-0.1,0.2-0.2c0.3-1.2,0.7-2.4,1.4-3.4c0.1-0.1,0.1-0.2,0-0.3l-1.3-2.8h0c0.5-0.6,1-1.1,1.6-1.6l2.8,1.3
	v0c0.1,0,0.2,0,0.3,0c1-0.7,2.2-1.1,3.4-1.4c0.1,0,0.2-0.1,0.2-0.2l1.1-3c0.8-0.1,1.5-0.1,2.3,0l1.1,3c0,0.1,0.1,0.2,0.2,0.2
	c1.2,0.3,2.4,0.7,3.4,1.4c0.1,0.1,0.2,0.1,0.3,0l2.8-1.3v0c0.6,0.5,1.1,1,1.6,1.6l-1.3,2.8h0c0,0.1,0,0.2,0,0.3
	c0.7,1,1.1,2.2,1.4,3.4c0,0.1,0.1,0.2,0.2,0.2l3,1.1c0,0.4,0,0.8,0,1.2S490.5,298.2,490.5,298.6z M491.1,296c0-0.1-0.1-0.2-0.2-0.3
	l-3-1.1c-0.3-1.2-0.7-2.3-1.4-3.3l1.4-2.9c0.1-0.1,0-0.2,0-0.3c-0.6-0.7-1.3-1.4-2-2c-0.1-0.1-0.2-0.1-0.3,0l-2.9,1.4
	c-1-0.6-2.1-1.1-3.3-1.4l-1.1-3c0-0.1-0.1-0.2-0.3-0.2c-0.9-0.1-1.9-0.1-2.8,0c-0.1,0-0.2,0.1-0.3,0.2l-1.1,3
	c-1.2,0.3-2.3,0.7-3.3,1.4l-2.9-1.4c-0.1-0.1-0.2,0-0.3,0c-0.7,0.6-1.4,1.3-2,2c-0.1,0.1-0.1,0.2,0,0.3l1.4,2.9
	c-0.6,1-1.1,2.1-1.4,3.3l-3,1.1c-0.1,0-0.2,0.1-0.2,0.3c0,0.5-0.1,1-0.1,1.4c0,0.5,0,0.9,0.1,1.4c0,0.1,0.1,0.2,0.2,0.3l3,1.1
	c0.3,1.2,0.7,2.3,1.4,3.3l-1.4,2.9c-0.1,0.1,0,0.2,0,0.3c0.6,0.7,1.3,1.4,2,2c0.1,0.1,0.2,0.1,0.3,0l2.9-1.4c1,0.6,2.1,1.1,3.3,1.4
	l1.1,3c0,0.1,0.1,0.2,0.3,0.2c0.5,0,1,0.1,1.4,0.1c0.5,0,0.9,0,1.4-0.1c0.1,0,0.2-0.1,0.3-0.2l1.1-3c1.2-0.3,2.3-0.7,3.3-1.4
	l2.9,1.4c0.1,0.1,0.2,0,0.3,0c0.7-0.6,1.4-1.3,2-2c0.1-0.1,0.1-0.2,0-0.3l-1.4-2.9c0.6-1,1.1-2.1,1.4-3.3l3-1.1
	c0.1,0,0.2-0.1,0.2-0.3c0-0.5,0.1-1,0.1-1.4C491.2,297,491.2,296.5,491.1,296z"/>
<path d="M351.8,290.7c-2.2,0-4-1.7-4-4c0-2.2,1.7-4,4-4c2.2,0,4,1.7,4,4C355.7,288.9,353.9,290.7,351.8,290.7z M351.8,280.4
	c-3.5,0-6.4,2.9-6.4,6.4c0,3.5,2.9,6.4,6.4,6.4c3.5,0,6.4-2.9,6.4-6.4C358.1,283.3,355.3,280.4,351.8,280.4z"/>
<path d="M351.8,294.3c-4.2,0-7.5-3.4-7.5-7.5c0-4.2,3.4-7.5,7.5-7.5c4.2,0,7.5,3.4,7.5,7.5C359.3,290.9,355.9,294.3,351.8,294.3z
	 M359.1,294c1.3-1.3,3.2-1.6,4.8-0.8c0.4-0.8,0.8-1.7,1.1-2.7c-1.6-0.5-2.8-2.1-2.8-3.9s1.1-3.3,2.8-3.9c-0.3-0.9-0.7-1.8-1.1-2.6
	c-1.5,0.7-3.4,0.4-4.7-0.8s-1.5-3.1-0.8-4.7c-0.8-0.4-1.7-0.8-2.7-1.1c-0.6,1.6-2.1,2.7-3.9,2.7c-1.8,0-3.3-1.1-3.9-2.7
	c-0.9,0.3-1.8,0.7-2.7,1.1c0.7,1.5,0.4,3.4-0.8,4.7s-3.1,1.5-4.7,0.8c-0.4,0.8-0.8,1.7-1.1,2.6c1.6,0.5,2.8,2.1,2.8,3.9
	s-1.2,3.4-2.8,3.9c0.3,0.9,0.7,1.8,1.1,2.7c1.6-0.8,3.5-0.5,4.8,0.8c1.3,1.3,1.6,3.2,0.8,4.8c0.8,0.4,1.7,0.8,2.7,1.1
	c0.5-1.7,2.1-2.9,4-2.9c1.8,0,3.4,1.2,4,2.9c0.9-0.3,1.8-0.7,2.7-1.1C357.5,297.3,357.8,295.3,359.1,294L359.1,294z"/>
<path d="M370.5,304c-0.6,1.5-2.3,2.2-3.8,1.6c-1.5-0.6-2.2-2.3-1.6-3.8c0.6-1.5,2.3-2.2,3.8-1.6C370.4,300.8,371.1,302.5,370.5,304z
	 M369.7,298.5c-2.4-1-5.2,0.2-6.2,2.5c-1,2.4,0.1,5.2,2.5,6.2c2.4,1,5.2-0.1,6.2-2.5C373.2,302.3,372.1,299.5,369.7,298.5z"/>
<path d="M373,305c-1.2,2.9-4.4,4.2-7.3,3c-2.9-1.2-4.2-4.4-3-7.3c1.2-2.8,4.4-4.2,7.3-3C372.8,298.9,374.2,302.1,373,305z
	 M375,299.9c-0.5-1.2-0.2-2.6,0.8-3.4c-0.4-0.5-0.9-1-1.5-1.5c-0.9,0.9-2.2,1.2-3.4,0.8s-1.9-1.7-1.9-2.9c-0.7-0.1-1.4-0.1-2.1,0
	c0.1,1.2-0.7,2.4-1.9,2.9c-1.2,0.5-2.6,0.2-3.5-0.8c-0.5,0.4-1,0.9-1.5,1.5c0.9,0.9,1.3,2.2,0.8,3.5c-0.5,1.2-1.7,1.9-3,1.9
	c-0.1,0.7-0.1,1.4,0,2.1c1.3-0.1,2.5,0.7,3,1.9c0.5,1.2,0.2,2.7-0.9,3.5c0.4,0.5,0.9,1.1,1.5,1.5c0.9-1,2.3-1.4,3.5-0.8
	s2,1.8,1.9,3.1c0.7,0.1,1.4,0.1,2.1,0c-0.1-1.3,0.7-2.5,1.9-3.1c1.2-0.5,2.7-0.2,3.5,0.8c0.5-0.4,1-0.9,1.5-1.5
	c-1-0.9-1.3-2.2-0.8-3.5c0.5-1.2,1.7-1.9,3-1.9c0.1-0.7,0.1-1.4,0-2.1C376.7,301.8,375.5,301.1,375,299.9L375,299.9z"/>
<path d="M384.4,288.8c-0.8-0.3-1.7-0.3-2.5-0.1c-0.4,0.2-0.9,0.4-1.2,0.7l-0.2,0.2c-0.9,0.9-1.2,2.2-0.9,3.4c-0.3,0.2-0.7,0.3-1,0.3
	c-0.5-1.2-1.7-2-3.1-2.1c-0.5,0-1,0.1-1.4,0.2c-0.8,0.3-1.5,0.8-1.9,1.5c-0.3-0.1-0.7-0.3-1-0.4c0.4-1.2,0.2-2.7-0.7-3.6
	c-0.9-1-2.3-1.4-3.6-1.1c-0.1-0.3-0.3-0.7-0.4-1c1.2-0.5,2-1.7,2.1-3.1c0.1-1.4-0.6-2.7-1.8-3.3c0.1-0.2,0.2-0.3,0.2-0.5
	c0,0,0.1,0,0.1,0.1c0.1-0.2,0.2-0.3,0.2-0.4c0.8,0.3,1.6,0.3,2.4,0c0.4-0.2,0.9-0.4,1.2-0.7c0.1-0.1,0.1-0.1,0.2-0.2
	c0.9-0.9,1.2-2.2,1-3.4c0.3-0.1,0.7-0.3,1-0.3c0.5,1.2,1.7,2,3,2.1c0.5,0.1,1-0.1,1.4-0.2c0.8-0.3,1.4-0.8,1.8-1.5
	c0.3,0.2,0.7,0.3,1,0.4c-0.4,1.2-0.2,2.6,0.7,3.6c0.9,1,2.3,1.4,3.5,1.1c0.2,0.3,0.3,0.7,0.4,1c-1.2,0.5-2,1.7-2.1,3.1
	c-0.1,1.4,0.6,2.7,1.8,3.3C384.7,288.1,384.6,288.5,384.4,288.8L384.4,288.8z M384.2,284.6c0.1-1.1,0.8-2,1.8-2.3l0.5-0.2l-0.1-0.5
	c-0.2-0.7-0.4-1.4-0.8-2.1l-0.2-0.4l-0.5,0.2c-1,0.4-2.1,0.1-2.8-0.7c-0.7-0.8-0.8-1.9-0.3-2.9l0.2-0.4l-0.4-0.3
	c-0.7-0.4-1.3-0.7-2-1L379,274l-0.2,0.5c-0.3,0.7-0.8,1.1-1.5,1.4c-0.3,0.1-0.7,0.2-1,0.1c-1-0.1-1.9-0.8-2.3-1.8l-0.2-0.5l-0.5,0.1
	c-0.7,0.2-1.4,0.4-2.1,0.7l-0.4,0.3l0.2,0.5c0.4,1,0.1,2.1-0.7,2.8c-0.3,0.2-0.5,0.4-0.9,0.5c-0.7,0.2-1.4,0.2-2.1-0.2l-0.4-0.3v0.1
	l-0.1-0.1l-0.3,0.4c-0.4,0.7-0.7,1.3-1,2l-0.2,0.5l0.5,0.2c1,0.4,1.6,1.4,1.6,2.5c-0.1,1.1-0.8,2-1.8,2.3l-0.5,0.2l0.1,0.5
	c0.2,0.7,0.4,1.4,0.8,2.1l0.2,0.5l0.5-0.2c1-0.4,2.1-0.1,2.8,0.7c0.7,0.8,0.9,1.9,0.3,2.9l-0.2,0.4l0.4,0.3c0.7,0.4,1.3,0.7,2,1
	l0.5,0.2l0.2-0.5c0.3-0.7,0.8-1.1,1.5-1.4c0.3-0.1,0.7-0.2,1-0.2c1,0.1,1.9,0.8,2.3,1.8l0.2,0.5l0.5-0.1c0.7-0.2,1.4-0.4,2.1-0.7
	l0.5-0.2l-0.2-0.5c-0.4-1-0.1-2.1,0.7-2.8c0.3-0.2,0.5-0.4,0.9-0.5c0.7-0.2,1.4-0.2,2.1,0.2l0.4,0.2v-0.1l0.1-0.2l0.2-0.3
	c0.2-0.4,0.4-0.8,0.6-1.1c0.2-0.3,0.3-0.6,0.4-0.9l0.2-0.5l-0.5-0.2C384.7,286.7,384.1,285.6,384.2,284.6L384.2,284.6z"/>
<path d="M376.7,288c-0.3,0.1-0.7,0.1-1,0.1h-0.2c-0.4-0.1-0.8,0.2-0.8,0.7c-0.1,0.4,0.2,0.8,0.7,0.8h0.3h0.3c0.3,0,0.7-0.1,1-0.1
	c0.4-0.1,0.7-0.4,0.6-0.9C377.5,288.2,377.1,287.9,376.7,288L376.7,288z"/>
<path d="M379.1,286.4c-0.2,0.3-0.5,0.7-0.8,0.9c-0.3,0.2-0.4,0.7-0.1,1c0.2,0.2,0.4,0.3,0.6,0.3c0.2,0,0.3-0.1,0.4-0.2
	c0.4-0.3,0.8-0.8,1.1-1.2c0.2-0.3,0.2-0.8-0.2-1C379.8,286,379.4,286.1,379.1,286.4L379.1,286.4z"/>
<path d="M380.4,282.7c-0.4,0.1-0.7,0.4-0.6,0.8c0.1,0.2,0.1,0.4,0.1,0.6v0.2c0,0.1,0,0.3-0.1,0.4c-0.1,0.4,0.2,0.8,0.6,0.8h0.1
	c0.3,0,0.7-0.3,0.7-0.6c0-0.2,0.1-0.3,0.1-0.5v-0.3c0-0.3,0-0.5-0.1-0.9C381.2,282.9,380.8,282.6,380.4,282.7L380.4,282.7z"/>
<path d="M379.1,281.8c0.2,0.2,0.4,0.3,0.6,0.3c0.2,0,0.3-0.1,0.4-0.2c0.3-0.2,0.4-0.7,0.2-1c-0.3-0.4-0.7-0.9-1.1-1.2
	c-0.3-0.2-0.8-0.2-1,0.2c-0.2,0.3-0.2,0.8,0.2,1C378.6,281.2,378.9,281.5,379.1,281.8L379.1,281.8z"/>
<path d="M375,280.3c0.4-0.1,0.8-0.2,1.2-0.1c0.2,0,0.3,0,0.5,0.1c0.4,0.1,0.8-0.2,0.8-0.6c0.1-0.4-0.2-0.8-0.6-0.8
	c-0.2-0.1-0.4-0.1-0.7-0.1c-0.5-0.1-1.1,0-1.6,0.2c-0.4,0.1-0.6,0.5-0.5,0.9c0.1,0.3,0.4,0.5,0.7,0.5
	C374.8,280.3,374.9,280.3,375,280.3L375,280.3z"/>
<path d="M371.6,282.3c0.1,0.1,0.3,0.1,0.4,0.1c0.2,0,0.5-0.1,0.6-0.3c0.2-0.3,0.5-0.7,0.8-0.9c0.3-0.3,0.3-0.7,0.1-1
	c-0.3-0.3-0.7-0.3-1-0.1c-0.4,0.4-0.8,0.8-1.1,1.2C371.1,281.6,371.2,282.1,371.6,282.3L371.6,282.3z"/>
<path d="M372.1,285c-0.1-0.2-0.1-0.4-0.1-0.7v-0.3v-0.2v-0.1c0.1-0.4-0.3-0.8-0.7-0.8c-0.4-0.1-0.8,0.3-0.8,0.7v0.1v0.3v0.3
	c0,0.3,0.1,0.6,0.1,0.9c0.1,0.3,0.4,0.6,0.7,0.6h0.2C371.9,285.8,372.2,285.4,372.1,285L372.1,285z"/>
<path d="M373.8,287.4c-0.3-0.2-0.7-0.5-0.9-0.8c-0.3-0.3-0.7-0.4-1-0.1c-0.3,0.3-0.4,0.7-0.1,1c0.3,0.4,0.8,0.8,1.2,1.1
	c0.1,0.1,0.3,0.1,0.4,0.1c0.2,0,0.5-0.1,0.6-0.3C374.2,288.1,374.1,287.6,373.8,287.4L373.8,287.4z"/>
<path d="M492.1,190.8h2.7c0,10-8.1,18.1-18.1,18.1v1.6c0,0.2-0.2,0.3-0.3,0.2l-4.3-2.9c-0.1-0.1-0.1-0.2,0-0.4l4.3-2.9
	c0.1-0.1,0.3,0,0.3,0.2v1.6C485.2,206.1,492.1,199.2,492.1,190.8L492.1,190.8z M461.3,190.8h-2.7c0-10,8.1-18.1,18.1-18.1v-1.6
	c0-0.2,0.2-0.3,0.3-0.2l4.3,2.9c0.1,0.1,0.1,0.2,0,0.4l-4.3,2.9c-0.1,0.1-0.3,0-0.3-0.2v-1.6C468.2,175.4,461.3,182.3,461.3,190.8
	L461.3,190.8z M480.8,190.8c0,2.3-1.8,4.1-4.1,4.1c-2.3,0-4.1-1.8-4.1-4.1s1.8-4.1,4.1-4.1C478.9,186.7,480.8,188.5,480.8,190.8z
	 M478.5,180.2c0-0.4-0.3-0.7-0.7-0.7h-2c-0.4,0-0.7,0.3-0.7,0.7v1.7c-1.2,0.2-2.3,0.7-3.3,1.3l-1.2-1.2c-0.3-0.3-0.8-0.3-1.1,0
	l-1.5,1.5c-0.3,0.3-0.3,0.8,0,1.1l1.2,1.2c-0.7,1-1.1,2.1-1.3,3.3h-1.7c-0.4,0-0.7,0.3-0.7,0.7v2c0,0.4,0.3,0.7,0.7,0.7h1.7
	c0.2,1.2,0.7,2.3,1.3,3.3l-1.2,1.2c-0.3,0.3-0.3,0.8,0,1.1l1.4,1.4c0.3,0.3,0.8,0.3,1.1,0l1.2-1.2c1,0.7,2.1,1.1,3.3,1.3v1.7
	c0,0.4,0.3,0.7,0.7,0.7h2c0.4,0,0.7-0.3,0.7-0.7v-1.7c1.2-0.2,2.3-0.7,3.3-1.3l1.2,1.2c0.3,0.3,0.8,0.3,1.1,0l1.4-1.4
	c0.3-0.3,0.3-0.8,0-1.1l-1.2-1.2c0.7-1,1.1-2.1,1.3-3.3h1.7c0.4,0,0.7-0.3,0.7-0.7v-2c0-0.4-0.3-0.7-0.7-0.7h-1.7
	c-0.2-1.2-0.7-2.3-1.3-3.3l1.2-1.2c0.3-0.3,0.3-0.8,0-1.1L484,182c-0.3-0.3-0.8-0.3-1.1,0l-1.2,1.2c-1-0.7-2.1-1.1-3.3-1.3
	L478.5,180.2L478.5,180.2z"/>
<path d="M355,400.3l-1.3,2.3c-8.7-4.9-11.8-15.9-7-24.6l-1.4-0.8c-0.1-0.1-0.1-0.3,0-0.4l4.6-2.3c0.1-0.1,0.3,0,0.3,0.2l0.5,5.1
	c0,0.1-0.2,0.3-0.3,0.2l-1.4-0.8C345,386.8,347.6,396.2,355,400.3L355,400.3z M370.1,373.5l1.3-2.4c8.7,4.9,11.8,15.9,7,24.6
	l1.4,0.8c0.1,0.1,0.1,0.3,0,0.4l-4.6,2.3c-0.1,0.1-0.3,0-0.3-0.2l-0.5-5.1c0-0.1,0.2-0.3,0.3-0.2l1.4,0.8
	C380.1,387,377.5,377.6,370.1,373.5L370.1,373.5z M360.5,390.5c-2-1.1-2.7-3.6-1.6-5.6c1.1-2,3.6-2.7,5.6-1.6c2,1.1,2.7,3.6,1.6,5.6
	S362.5,391.6,360.5,390.5z M370.9,393.6c0.4,0.2,0.8,0.1,1-0.3l1-1.8c0.2-0.4,0.1-0.8-0.3-1l-1.5-0.8c0.4-1.1,0.5-2.4,0.4-3.5
	l1.7-0.5c0.4-0.1,0.6-0.5,0.5-0.9l-0.6-2c-0.1-0.4-0.5-0.6-0.9-0.5l-1.7,0.5c-0.5-1-1.3-2-2.2-2.8l0.8-1.5c0.2-0.4,0.1-0.8-0.3-1
	l-1.8-1c-0.4-0.2-0.8-0.1-1,0.3l-0.8,1.5c-1.1-0.4-2.4-0.5-3.5-0.4l-0.5-1.7c-0.1-0.4-0.5-0.6-0.9-0.5l-1.9,0.5
	c-0.4,0.1-0.6,0.5-0.5,0.9l0.5,1.7c-1,0.5-2,1.3-2.8,2.2l-1.5-0.8c-0.4-0.2-0.8-0.1-1,0.3l-1,1.8c-0.2,0.4-0.1,0.8,0.3,1l1.5,0.8
	c-0.4,1.1-0.5,2.4-0.4,3.5l-1.7,0.5c-0.4,0.1-0.6,0.5-0.5,0.9l0.5,1.9c0.1,0.4,0.5,0.6,0.9,0.5l1.7-0.5c0.5,1,1.3,2,2.2,2.8
	l-0.8,1.5c-0.2,0.4-0.1,0.8,0.3,1l1.8,1c0.4,0.2,0.8,0.1,1-0.3l0.8-1.5c1.1,0.4,2.4,0.5,3.5,0.4l0.5,1.7c0.1,0.4,0.5,0.6,0.9,0.5
	l1.9-0.5c0.4-0.1,0.6-0.5,0.5-0.9l-0.5-1.7c1-0.5,2-1.3,2.8-2.2L370.9,393.6L370.9,393.6z"/>
<path d="M534.6,282.8l1,2.5c-9.2,3.8-19.8-0.7-23.6-9.9l-1.5,0.6c-0.1,0.1-0.3-0.1-0.3-0.2l1.1-5.1c0-0.1,0.2-0.2,0.3-0.1l4.3,2.8
	c0.1,0.1,0.1,0.3,0,0.4l-1.5,0.6C517.7,282.2,526.7,286,534.6,282.8L534.6,282.8z M522.9,254.3l-1-2.5c9.2-3.8,19.8,0.7,23.6,9.9
	l1.5-0.6c0.1-0.1,0.3,0.1,0.3,0.2l-1.1,5.1c0,0.1-0.2,0.2-0.3,0.1l-4.3-2.8c-0.1-0.1-0.1-0.3,0-0.4l1.5-0.6
	C539.8,254.9,530.8,251.1,522.9,254.3L522.9,254.3z M530.3,272.3c-2.1,0.9-4.5-0.1-5.3-2.3s0.1-4.5,2.3-5.3c2.1-0.9,4.5,0.1,5.3,2.3
	S532.4,271.5,530.3,272.3z M539.2,266.2c0.4-0.2,0.6-0.6,0.4-1l-0.8-1.9c-0.2-0.4-0.6-0.6-1-0.4l-1.6,0.6c-0.7-1-1.5-1.9-2.5-2.5
	l0.7-1.6c0.2-0.4,0-0.8-0.4-1l-1.9-0.8c-0.4-0.2-0.8,0-1,0.4l-0.7,1.6c-1.1-0.2-2.3-0.3-3.6,0l-0.6-1.6c-0.2-0.4-0.6-0.6-1-0.4
	l-1.9,0.8c-0.4,0.2-0.6,0.6-0.4,1l0.6,1.6c-1,0.7-1.9,1.5-2.5,2.5l-1.6-0.7c-0.4-0.2-0.8,0-1,0.4l-0.8,1.9c-0.2,0.4,0,0.8,0.4,1
	l1.6,0.7c-0.2,1.1-0.3,2.3,0,3.6l-1.6,0.6c-0.4,0.2-0.6,0.6-0.4,1l0.8,1.9c0.2,0.4,0.6,0.6,1,0.4l1.6-0.6c0.7,1,1.5,1.9,2.5,2.5
	l-0.7,1.6c-0.2,0.4,0,0.8,0.4,1l1.9,0.8c0.4,0.2,0.8,0,1-0.4l0.7-1.6c1.1,0.2,2.3,0.3,3.6,0l0.6,1.6c0.2,0.4,0.6,0.6,1,0.4l1.9-0.8
	c0.4-0.2,0.6-0.6,0.4-1l-0.6-1.6c1-0.7,1.9-1.5,2.5-2.5l1.6,0.7c0.4,0.2,0.8,0,1-0.4l0.8-1.9c0.2-0.4,0-0.8-0.4-1l-1.6-0.7
	c0.2-1.1,0.3-2.3,0-3.6L539.2,266.2L539.2,266.2z"/>
<path d="M305.5,156.4l1.8-2c7.4,6.7,8.1,18.1,1.4,25.6l1.2,1.1c0.1,0.1,0.1,0.3-0.1,0.3l-5,1.2c-0.1,0-0.3-0.1-0.3-0.2l0.7-5.1
	c0-0.1,0.2-0.2,0.3-0.1l1.2,1.1C312.3,171.9,311.8,162.1,305.5,156.4L305.5,156.4z M285,179.3l-1.8,2c-7.4-6.7-8.1-18.1-1.4-25.6
	l-1.2-1.1c-0.1-0.1-0.1-0.3,0.1-0.3l5-1.2c0.1,0,0.3,0.1,0.3,0.2l-0.7,5.1c0,0.1-0.2,0.2-0.3,0.1l-1.2-1.1
	C278.1,163.9,278.6,173.7,285,179.3L285,179.3z M298,164.8c1.7,1.5,1.8,4.1,0.3,5.8s-4.1,1.8-5.8,0.3c-1.7-1.5-1.8-4.1-0.3-5.8
	C293.7,163.5,296.3,163.3,298,164.8z M288.5,159.5c-0.3-0.3-0.8-0.2-1,0.1l-1.4,1.5c-0.3,0.3-0.2,0.8,0.1,1l1.3,1.1
	c-0.6,1-1,2.2-1.2,3.3l-1.7,0.1c-0.4,0-0.7,0.4-0.7,0.8l0.1,2.1c0,0.4,0.4,0.7,0.8,0.7l1.7-0.1c0.3,1.1,0.8,2.2,1.6,3.2l-1.1,1.3
	c-0.3,0.3-0.2,0.8,0.1,1l1.5,1.4c0.3,0.3,0.8,0.2,1-0.1l1.1-1.3c1,0.6,2.2,1,3.3,1.2l0.1,1.7c0,0.4,0.4,0.7,0.8,0.7l2-0.1
	c0.4,0,0.7-0.4,0.7-0.8l-0.1-1.7c1.1-0.3,2.2-0.8,3.2-1.6l1.3,1.1c0.3,0.3,0.8,0.2,1-0.1l1.4-1.5c0.3-0.3,0.2-0.8-0.1-1l-1.3-1.1
	c0.6-1,1-2.2,1.2-3.3l1.7-0.1c0.4,0,0.7-0.4,0.7-0.8l-0.1-2c0-0.4-0.4-0.7-0.8-0.7l-1.7,0.1c-0.3-1.1-0.8-2.2-1.6-3.2l1.1-1.3
	c0.3-0.3,0.2-0.8-0.1-1l-1.5-1.4c-0.3-0.3-0.8-0.2-1,0.1l-1.1,1.3c-1-0.6-2.2-1-3.3-1.2l-0.1-1.7c0-0.4-0.4-0.7-0.8-0.7l-2,0.1
	c-0.4,0-0.7,0.4-0.7,0.8l0.1,1.7c-1.1,0.3-2.2,0.8-3.2,1.6L288.5,159.5L288.5,159.5z"/>
<path d="M251.7,264.4l-1.4-2.3c8.5-5.2,19.7-2.6,24.9,5.9l1.3-0.8c0.1-0.1,0.3,0,0.3,0.2l-0.3,5.2c0,0.1-0.1,0.2-0.3,0.2l-4.7-2.1
	c-0.1-0.1-0.2-0.3,0-0.4l1.3-0.8C268.4,262.3,258.9,260,251.7,264.4L251.7,264.4z M267.8,290.6l1.4,2.3c-8.5,5.2-19.7,2.6-24.9-5.9
	l-1.3,0.8c-0.1,0.1-0.3,0-0.3-0.2l0.3-5.2c0-0.1,0.1-0.2,0.3-0.2l4.7,2.1c0.1,0.1,0.2,0.3,0,0.4l-1.3,0.8
	C251.1,292.8,260.6,295.1,267.8,290.6L267.8,290.6z M257.6,274.1c1.9-1.2,4.4-0.6,5.6,1.3c1.2,1.9,0.6,4.4-1.3,5.6
	c-1.9,1.2-4.4,0.6-5.6-1.3C255,277.8,255.6,275.2,257.6,274.1z M249.8,281.6c-0.3,0.2-0.5,0.7-0.2,1l1.1,1.7c0.2,0.3,0.7,0.5,1,0.2
	l1.5-0.9c0.8,0.9,1.8,1.6,2.9,2.1l-0.4,1.7c-0.1,0.4,0.2,0.8,0.6,0.9l2,0.5c0.4,0.1,0.8-0.2,0.9-0.6l0.4-1.7c1.2,0,2.4-0.1,3.5-0.6
	l0.9,1.5c0.2,0.3,0.7,0.5,1,0.2l1.7-1.1c0.3-0.2,0.5-0.7,0.2-1l-0.9-1.5c0.9-0.8,1.6-1.8,2.1-2.9l1.7,0.4c0.4,0.1,0.8-0.2,0.9-0.6
	l0.5-2c0.1-0.4-0.2-0.8-0.6-0.9l-1.7-0.4c0-1.2-0.1-2.4-0.6-3.5l1.5-0.9c0.3-0.2,0.5-0.7,0.2-1l-1.1-1.7c-0.2-0.3-0.7-0.5-1-0.2
	l-1.5,0.9c-0.8-0.9-1.8-1.6-2.9-2.1l0.4-1.7c0.1-0.4-0.2-0.8-0.6-0.9l-2-0.5c-0.4-0.1-0.8,0.2-0.9,0.6l-0.4,1.7
	c-1.2,0-2.4,0.1-3.5,0.6l-0.9-1.5c-0.2-0.3-0.7-0.5-1-0.2l-1.7,1.1c-0.3,0.2-0.5,0.7-0.2,1l0.9,1.5c-0.9,0.8-1.6,1.8-2.1,2.9
	l-1.7-0.4c-0.4-0.1-0.8,0.2-0.9,0.6l-0.5,2c-0.1,0.4,0.2,0.8,0.6,0.9l1.7,0.4c0,1.2,0.1,2.4,0.6,3.5L249.8,281.6L249.8,281.6z"/>
</svg>
