<?xml version="1.0" encoding="utf-8"?>
<!-- Generator: Adobe Illustrator 17.1.0, SVG Export Plug-In . SVG Version: 6.00 Build 0)  -->
<!DOCTYPE svg PUBLIC "-//W3C//DTD SVG 1.1//EN" "http://www.w3.org/Graphics/SVG/1.1/DTD/svg11.dtd">
<svg version="1.1" id="Layer_1" xmlns="http://www.w3.org/2000/svg" xmlns:xlink="http://www.w3.org/1999/xlink" x="0px" y="0px"
	 viewBox="0 0 557 378" enable-background="new 0 0 557 378" xml:space="preserve">
<path d="M350.7,49c-13.8,0-25,10.8-25,24.3c0,2.3,1.6,3.9,3.9,3.9c2.3,0,3.9-1.6,3.9-3.9c0-9.2,7.6-16.4,16.8-16.4
	c9.2,0,16.8,7.6,16.8,16.4c0,8.9-7.6,16.4-16.8,16.4c-2.3,0-3.9,1.6-3.9,3.9v11.8c0,2.3,1.6,3.9,3.9,3.9s3.9-1.6,3.9-3.9v-8.2
	c11.8-2,20.7-12.2,20.7-24C375.3,60.2,364.1,49,350.7,49z"/>
<path d="M356.9,123.9c0,8.3-12.5,8.3-12.5,0C344.4,115.6,356.9,115.6,356.9,123.9"/>
<path d="M352,299.3c0-1-6.6-80.8-107.8-80.8c-102.8,0-107.7,80.5-108.1,81.5v23.6c0,6.6,5.3,12.2,12.2,12.2l191.5,0
	c6.6,0,12.2-5.3,12.2-12.2L352,299.3z"/>
<path d="M386.5,22.4h-66c-34.5,0-62.8,25.6-67.7,58.5c3.3,0.7,6.2,1.6,9.5,2.6c3.6-28.9,28.3-51.6,58.1-51.6h66.4
	c32.5,0,58.8,26.3,58.8,58.8c0,32.5-26.3,58.8-58.8,58.8l-20.7,0L328,177.8v-28.3h-7.9c-5.6,0-10.8-1-16.1-2.3v2
	c0,2.6-0.3,5.3-0.3,7.9c4.6,1.3,9.5,2,14.4,2v37.8l51.3-37.8h17.1c37.8,0,68.3-30.6,68.3-68.3C455.1,53,424.3,22.4,386.5,22.4
	L386.5,22.4z"/>
<path d="M241.6,208.3c29.6,0,53.5-26.6,53.5-59.1s-24-59.1-53.5-59.1s-53.5,26.6-53.5,59.1S212.1,208.3,241.6,208.3z"/>
</svg>
