<?xml version="1.0" encoding="utf-8"?>
<!-- Generator: Adobe Illustrator 23.0.1, SVG Export Plug-In . SVG Version: 6.00 Build 0)  -->
<svg version="1.1" xmlns="http://www.w3.org/2000/svg" xmlns:xlink="http://www.w3.org/1999/xlink" x="0px" y="0px"
	 viewBox="0 0 547 295" enable-background="new 0 0 547 295" xml:space="preserve">
<g id="www_1_">
</g>
<g id="restapi">
	<rect x="250.3" y="133.6" fill="#EAEAEA" width="55.2" height="55.2"/>
	<path d="M229.9,199.8h-6.1c-0.6,0-1.1,0.4-1.5,0.8l-16.3,22.8l-16.3-22.8c-0.4-0.6-1-0.8-1.5-0.8h-6.1c-16.1,0-29.2,13.1-29.2,29.2
		l0,42.4c0,1.1,0.8,1.9,1.9,1.9h19.2v-32.2c0-1.1,0.8-1.9,1.9-1.9c1.1,0,1.9,0.8,1.9,1.9l0,32.2h56.6v-32.2c0-1.1,0.8-1.9,1.9-1.9
		c1.1,0,1.9,0.8,1.9,1.9l0,32.2h19.2c1.1,0,1.9-0.8,1.9-1.9V229C259,212.9,246,199.8,229.9,199.8L229.9,199.8z"/>
	<path d="M372.6,199.8h-6.1c-0.6,0-1.1,0.4-1.5,0.8l-16.3,22.8l-16.3-22.8c-0.4-0.6-1-0.8-1.5-0.8h-6.1c-16.1,0-29.2,13.1-29.2,29.2
		l0,42.4c0,1.1,0.8,1.9,1.9,1.9h19.2v-32.2c0-1.1,0.8-1.9,1.9-1.9c1.1,0,1.9,0.8,1.9,1.9l0,32.2h56.6v-32.2c0-1.1,0.8-1.9,1.9-1.9
		c1.1,0,1.9,0.8,1.9,1.9l0,32.2h19.2c1.1,0,1.9-0.8,1.9-1.9V229C401.8,212.9,388.8,199.8,372.6,199.8z"/>
	<path d="M298.2,164.3h-41.8c-1.1,0-1.9,0.8-1.9,1.9c0,1.1,0.8,1.9,1.9,1.9h41.8c1.1,0,1.9-0.8,1.9-1.9
		C300.1,165.1,299.2,164.3,298.2,164.3L298.2,164.3z"/>
	<path d="M298.2,151.6h-41.8c-1.1,0-1.9,0.8-1.9,1.9c0,1.1,0.8,1.9,1.9,1.9h41.8c1.1,0,1.9-0.8,1.9-1.9
		C300.1,152.4,299.2,151.6,298.2,151.6L298.2,151.6z"/>
	<path d="M298.2,138.8h-41.8c-1.1,0-1.9,0.8-1.9,1.9c0,1.1,0.8,1.9,1.9,1.9h41.8c1.1,0,1.9-0.8,1.9-1.9
		C300.1,139.6,299.2,138.8,298.2,138.8L298.2,138.8z"/>
	<path fill="#B1B1B1" d="M235.6,75.3h82.5c1.1,0,1.9,0.8,1.9,1.9c0,1.1-0.8,1.9-1.9,1.9h-82.5c-1.1,0-1.9-0.8-1.9-1.9
		C233.7,76.1,234.5,75.3,235.6,75.3z M235.6,60.3h82.5c1.1,0,1.9,0.8,1.9,1.9c0,1.1-0.8,1.9-1.9,1.9h-82.5c-1.1,0-1.9-0.8-1.9-1.9
		C233.7,61.1,234.5,60.3,235.6,60.3z M242.9,45.2h67.7c1.1,0,1.9,0.8,1.9,1.9c0,1.1-0.8,1.9-1.9,1.9l-67.7,0c-1.1,0-1.9-0.8-1.9-1.9
		C241,45.9,242,45.2,242.9,45.2L242.9,45.2z M310.9,94.3h-67.9c-1.1,0-1.9-0.8-1.9-1.9c0-1.1,0.8-1.9,1.9-1.9h67.7
		c1.1,0,1.9,0.8,1.9,1.9C312.6,93.5,311.8,94.3,310.9,94.3L310.9,94.3z M246.9,110c-3.3,4-7.7,7.9-13.2,11.3c-0.6,0.4-1,1.1-1,1.9
		c0.2,0.8,0.8,1.3,1.5,1.5c0.6,0,5.6,1.1,12.1,1.1c8.6,0,19.8-1.9,25.9-10.6c1.5,0,3.1,0.2,4.6,0.2c34.7,0,63.1-20.5,63.1-45.9
		c0-25.3-28.2-45.9-63.1-45.9c-34.7,0-63.1,20.5-63.1,45.9C213.8,86.8,226.4,102,246.9,110L246.9,110z"/>
	<ellipse transform="matrix(0.1856 -0.9826 0.9826 0.1856 122.0517 475.8246)" cx="348.1" cy="164.3" rx="32.4" ry="27.6"/>
	<ellipse transform="matrix(0.9956 -9.355264e-02 9.355264e-02 0.9956 -14.4656 19.994)" cx="206" cy="164.3" rx="27.6" ry="32.4"/>
	<path d="M298.2,178.3h-41.8c-1.1,0-1.9,0.8-1.9,1.9c0,1.1,0.8,1.9,1.9,1.9h41.8c1.1,0,1.9-0.8,1.9-1.9
		C300.1,179.1,299.2,178.3,298.2,178.3L298.2,178.3z"/>
</g>
</svg>
