<?xml version="1.0" encoding="utf-8"?>
<!-- Generator: Adobe Illustrator 17.1.0, SVG Export Plug-In . SVG Version: 6.00 Build 0)  -->
<!DOCTYPE svg PUBLIC "-//W3C//DTD SVG 1.1//EN" "http://www.w3.org/Graphics/SVG/1.1/DTD/svg11.dtd">
<svg version="1.1" xmlns="http://www.w3.org/2000/svg" xmlns:xlink="http://www.w3.org/1999/xlink" x="0px" y="0px"
	 viewBox="0 0 600 400" enable-background="new 0 0 600 400" xml:space="preserve">
<g id="www_1_">
</g>
<g id="restapi">
	<g>
		<path d="M23.2,32.6c0-2.4,0.6-4.2,1.9-5.6s2.9-2,4.9-2c1.3,0,2.5,0.3,3.6,0.9s1.9,1.5,2.4,2.6s0.8,2.4,0.8,3.8
			c0,1.5-0.3,2.8-0.9,3.9s-1.4,2-2.5,2.6s-2.2,0.9-3.5,0.9c-1.3,0-2.6-0.3-3.6-1s-1.9-1.5-2.4-2.7S23.2,33.9,23.2,32.6z M25.2,32.7
			c0,1.7,0.5,3.1,1.4,4.1s2.1,1.5,3.5,1.5c1.4,0,2.6-0.5,3.5-1.5s1.4-2.4,1.4-4.3c0-1.2-0.2-2.2-0.6-3.1s-1-1.5-1.7-2
			s-1.6-0.7-2.6-0.7c-1.3,0-2.5,0.5-3.5,1.4S25.2,30.5,25.2,32.7z"/>
		<path d="M37.8,39.6l5.5-14.3h2l5.9,14.3H49l-1.7-4.3h-6l-1.6,4.3H37.8z M41.9,33.7h4.9l-1.5-4c-0.5-1.2-0.8-2.2-1-3
			c-0.2,0.9-0.4,1.8-0.8,2.7L41.9,33.7z"/>
		<path d="M59.3,39.6v-1.5c-0.8,1.2-1.9,1.8-3.3,1.8c-0.6,0-1.2-0.1-1.7-0.4s-0.9-0.5-1.2-0.9s-0.4-0.8-0.5-1.3
			c-0.1-0.3-0.1-0.9-0.1-1.6v-6.4h1.8V35c0,0.9,0,1.5,0.1,1.9c0.1,0.5,0.3,0.8,0.7,1.1s0.8,0.4,1.3,0.4s1-0.1,1.5-0.4s0.8-0.6,1-1.1
			s0.3-1.1,0.3-2v-5.6h1.8v10.4H59.3z"/>
		<path d="M67.4,38l0.3,1.6c-0.5,0.1-0.9,0.2-1.3,0.2c-0.6,0-1.1-0.1-1.5-0.3s-0.6-0.5-0.7-0.8s-0.2-1-0.2-2.1v-6h-1.3v-1.4h1.3
			v-2.6l1.7-1.1v3.6h1.8v1.4h-1.8v6.1c0,0.5,0,0.8,0.1,1s0.2,0.3,0.3,0.3s0.3,0.1,0.6,0.1C66.9,38.1,67.1,38.1,67.4,38z"/>
		<path d="M69.2,39.6V25.3h1.8v5.1c0.8-1,1.9-1.4,3.1-1.4c0.8,0,1.4,0.2,2,0.5s1,0.7,1.2,1.3s0.4,1.3,0.4,2.3v6.6h-1.8V33
			c0-0.9-0.2-1.5-0.6-1.9s-0.9-0.6-1.6-0.6c-0.5,0-1,0.1-1.5,0.4s-0.8,0.6-1,1.1s-0.3,1.1-0.3,1.9v5.7H69.2z"/>
		<path d="M94.6,37.9v1.7h-9.5c0-0.4,0.1-0.8,0.2-1.2c0.2-0.6,0.6-1.3,1.2-1.9s1.3-1.3,2.3-2.2c1.6-1.3,2.6-2.3,3.2-3
			s0.8-1.5,0.8-2.1c0-0.7-0.2-1.3-0.7-1.8s-1.1-0.7-1.9-0.7c-0.8,0-1.5,0.3-2,0.8s-0.8,1.2-0.8,2.1l-1.8-0.2
			c0.1-1.3,0.6-2.4,1.4-3.1s1.9-1.1,3.3-1.1c1.4,0,2.5,0.4,3.3,1.1s1.2,1.7,1.2,2.8c0,0.6-0.1,1.1-0.4,1.7s-0.6,1.1-1.2,1.7
			s-1.4,1.5-2.7,2.5c-1.1,0.9-1.7,1.5-2,1.8s-0.5,0.6-0.7,1H94.6z"/>
		<path d="M97.5,39.6v-2h2v2H97.5z"/>
		<path d="M102,32.6c0-1.7,0.2-3.1,0.5-4.1s0.9-1.8,1.6-2.4s1.6-0.8,2.6-0.8c0.8,0,1.4,0.2,2,0.5s1.1,0.8,1.4,1.3s0.7,1.3,0.9,2.1
			s0.3,2,0.3,3.4c0,1.7-0.2,3-0.5,4.1s-0.9,1.8-1.5,2.4s-1.6,0.8-2.6,0.8c-1.4,0-2.5-0.5-3.3-1.5C102.5,37.2,102,35.2,102,32.6z
			 M103.8,32.6c0,2.4,0.3,3.9,0.8,4.7s1.2,1.2,2,1.2s1.5-0.4,2-1.2s0.8-2.3,0.8-4.7c0-2.4-0.3-3.9-0.8-4.7s-1.2-1.2-2.1-1.2
			c-0.8,0-1.5,0.3-1.9,1C104.1,28.6,103.8,30.2,103.8,32.6z"/>
		<path d="M126,39.6v-1.5c-0.8,1.2-1.9,1.8-3.3,1.8c-0.6,0-1.2-0.1-1.7-0.4s-0.9-0.5-1.2-0.9s-0.4-0.8-0.5-1.3
			c-0.1-0.3-0.1-0.9-0.1-1.6v-6.4h1.8V35c0,0.9,0,1.5,0.1,1.9c0.1,0.5,0.3,0.8,0.7,1.1s0.8,0.4,1.3,0.4s1-0.1,1.5-0.4s0.8-0.6,1-1.1
			s0.3-1.1,0.3-2v-5.6h1.8v10.4H126z"/>
		<path d="M129.6,36.5l1.7-0.3c0.1,0.7,0.4,1.2,0.8,1.6s1.1,0.6,1.9,0.6c0.8,0,1.4-0.2,1.8-0.5s0.6-0.7,0.6-1.2
			c0-0.4-0.2-0.7-0.5-0.9c-0.2-0.2-0.8-0.4-1.8-0.6c-1.3-0.3-2.2-0.6-2.7-0.8s-0.9-0.6-1.1-1s-0.4-0.9-0.4-1.4
			c0-0.5,0.1-0.9,0.3-1.3s0.5-0.7,0.9-1c0.3-0.2,0.6-0.4,1.1-0.5s1-0.2,1.5-0.2c0.8,0,1.5,0.1,2.1,0.4s1.1,0.6,1.4,1
			s0.5,0.9,0.6,1.6l-1.7,0.2c-0.1-0.5-0.3-1-0.7-1.2s-0.9-0.4-1.6-0.4c-0.8,0-1.4,0.1-1.7,0.4s-0.5,0.6-0.5,0.9
			c0,0.2,0.1,0.4,0.2,0.6c0.1,0.2,0.4,0.3,0.7,0.5c0.2,0.1,0.7,0.2,1.6,0.4c1.2,0.3,2.1,0.6,2.6,0.8s0.9,0.5,1.2,0.9
			s0.4,0.9,0.4,1.5c0,0.6-0.2,1.1-0.5,1.7s-0.8,0.9-1.5,1.2s-1.4,0.4-2.2,0.4c-1.3,0-2.4-0.3-3.1-0.8S129.8,37.6,129.6,36.5z"/>
		<path d="M147.4,36.3l1.8,0.2c-0.3,1.1-0.8,1.9-1.6,2.5s-1.8,0.9-3,0.9c-1.5,0-2.7-0.5-3.6-1.4s-1.3-2.2-1.3-3.9
			c0-1.7,0.4-3.1,1.3-4.1s2.1-1.4,3.5-1.4c1.4,0,2.5,0.5,3.4,1.4s1.3,2.3,1.3,4c0,0.1,0,0.3,0,0.5h-7.7c0.1,1.1,0.4,2,1,2.6
			s1.3,0.9,2.2,0.9c0.6,0,1.2-0.2,1.7-0.5S147.2,37,147.4,36.3z M141.6,33.4h5.8c-0.1-0.9-0.3-1.5-0.7-2c-0.6-0.7-1.3-1-2.2-1
			c-0.8,0-1.5,0.3-2,0.8S141.7,32.5,141.6,33.4z"/>
		<path d="M150.7,36.5l1.7-0.3c0.1,0.7,0.4,1.2,0.8,1.6s1.1,0.6,1.9,0.6c0.8,0,1.4-0.2,1.8-0.5s0.6-0.7,0.6-1.2
			c0-0.4-0.2-0.7-0.5-0.9c-0.2-0.2-0.8-0.4-1.8-0.6c-1.3-0.3-2.2-0.6-2.7-0.8s-0.9-0.6-1.1-1S151,32.5,151,32c0-0.5,0.1-0.9,0.3-1.3
			s0.5-0.7,0.9-1c0.3-0.2,0.6-0.4,1.1-0.5s1-0.2,1.5-0.2c0.8,0,1.5,0.1,2.1,0.4s1.1,0.6,1.4,1s0.5,0.9,0.6,1.6l-1.7,0.2
			c-0.1-0.5-0.3-1-0.7-1.2s-0.9-0.4-1.6-0.4c-0.8,0-1.4,0.1-1.7,0.4s-0.5,0.6-0.5,0.9c0,0.2,0.1,0.4,0.2,0.6
			c0.1,0.2,0.4,0.3,0.7,0.5c0.2,0.1,0.7,0.2,1.6,0.4c1.2,0.3,2.1,0.6,2.6,0.8s0.9,0.5,1.2,0.9s0.4,0.9,0.4,1.5
			c0,0.6-0.2,1.1-0.5,1.7s-0.8,0.9-1.5,1.2s-1.4,0.4-2.2,0.4c-1.3,0-2.4-0.3-3.1-0.8S150.9,37.6,150.7,36.5z"/>
		<path d="M173.8,38.3c-0.7,0.6-1.3,0.9-1.9,1.2s-1.2,0.3-1.9,0.3c-1.1,0-2-0.3-2.6-0.8s-0.9-1.3-0.9-2.1c0-0.5,0.1-1,0.3-1.4
			s0.5-0.8,0.9-1s0.8-0.4,1.3-0.6c0.3-0.1,0.9-0.2,1.6-0.3c1.4-0.2,2.5-0.4,3.1-0.6c0-0.2,0-0.4,0-0.5c0-0.7-0.2-1.2-0.5-1.5
			c-0.4-0.4-1.1-0.6-2-0.6c-0.8,0-1.4,0.1-1.8,0.4s-0.7,0.8-0.9,1.5l-1.7-0.2c0.2-0.7,0.4-1.3,0.8-1.8s0.9-0.8,1.6-1
			s1.5-0.4,2.4-0.4c0.9,0,1.6,0.1,2.2,0.3s1,0.5,1.2,0.8s0.4,0.7,0.5,1.2c0.1,0.3,0.1,0.8,0.1,1.6v2.3c0,1.6,0,2.7,0.1,3.1
			s0.2,0.8,0.4,1.2h-1.8C173.9,39.3,173.8,38.8,173.8,38.3z M173.6,34.4c-0.6,0.3-1.6,0.5-2.9,0.7c-0.7,0.1-1.2,0.2-1.5,0.4
			s-0.5,0.3-0.7,0.6s-0.2,0.5-0.2,0.8c0,0.5,0.2,0.9,0.5,1.2s0.9,0.5,1.6,0.5c0.7,0,1.3-0.1,1.8-0.4s0.9-0.7,1.2-1.2
			c0.2-0.4,0.3-1,0.3-1.8V34.4z"/>
		<path d="M178.1,39.6V29.2h1.6v1.5c0.8-1.1,1.9-1.7,3.3-1.7c0.6,0,1.2,0.1,1.7,0.3s0.9,0.5,1.2,0.9s0.4,0.8,0.5,1.3
			c0.1,0.3,0.1,0.9,0.1,1.7v6.4h-1.8v-6.3c0-0.7-0.1-1.3-0.2-1.6s-0.4-0.6-0.7-0.8s-0.8-0.3-1.2-0.3c-0.7,0-1.4,0.2-1.9,0.7
			s-0.8,1.4-0.8,2.7v5.7H178.1z"/>
		<path d="M201.6,38.3c-0.7,0.6-1.3,0.9-1.9,1.2s-1.2,0.3-1.9,0.3c-1.1,0-2-0.3-2.6-0.8s-0.9-1.3-0.9-2.1c0-0.5,0.1-1,0.3-1.4
			s0.5-0.8,0.9-1s0.8-0.4,1.3-0.6c0.3-0.1,0.9-0.2,1.6-0.3c1.4-0.2,2.5-0.4,3.1-0.6c0-0.2,0-0.4,0-0.5c0-0.7-0.2-1.2-0.5-1.5
			c-0.4-0.4-1.1-0.6-2-0.6c-0.8,0-1.4,0.1-1.8,0.4s-0.7,0.8-0.9,1.5l-1.7-0.2c0.2-0.7,0.4-1.3,0.8-1.8s0.9-0.8,1.6-1
			s1.5-0.4,2.4-0.4c0.9,0,1.6,0.1,2.2,0.3s1,0.5,1.2,0.8s0.4,0.7,0.5,1.2c0.1,0.3,0.1,0.8,0.1,1.6v2.3c0,1.6,0,2.7,0.1,3.1
			s0.2,0.8,0.4,1.2h-1.8C201.7,39.3,201.6,38.8,201.6,38.3z M201.4,34.4c-0.6,0.3-1.6,0.5-2.9,0.7c-0.7,0.1-1.2,0.2-1.5,0.4
			s-0.5,0.3-0.7,0.6s-0.2,0.5-0.2,0.8c0,0.5,0.2,0.9,0.5,1.2s0.9,0.5,1.6,0.5c0.7,0,1.3-0.1,1.8-0.4s0.9-0.7,1.2-1.2
			c0.2-0.4,0.3-1,0.3-1.8V34.4z"/>
		<path d="M212.7,35.8l1.7,0.2c-0.2,1.2-0.7,2.1-1.5,2.8s-1.7,1-2.9,1c-1.4,0-2.6-0.5-3.4-1.4s-1.3-2.3-1.3-4c0-1.1,0.2-2.1,0.6-2.9
			s0.9-1.5,1.7-1.9s1.6-0.6,2.5-0.6c1.1,0,2,0.3,2.8,0.9s1.2,1.4,1.4,2.4l-1.7,0.3c-0.2-0.7-0.5-1.2-0.9-1.6s-0.9-0.5-1.5-0.5
			c-0.9,0-1.6,0.3-2.2,1s-0.8,1.6-0.8,3c0,1.4,0.3,2.4,0.8,3s1.2,0.9,2.1,0.9c0.7,0,1.3-0.2,1.7-0.6S212.6,36.7,212.7,35.8z"/>
		<path d="M222.7,35.8l1.7,0.2c-0.2,1.2-0.7,2.1-1.5,2.8s-1.7,1-2.9,1c-1.4,0-2.6-0.5-3.4-1.4s-1.3-2.3-1.3-4c0-1.1,0.2-2.1,0.6-2.9
			s0.9-1.5,1.7-1.9s1.6-0.6,2.5-0.6c1.1,0,2,0.3,2.8,0.9s1.2,1.4,1.4,2.4l-1.7,0.3c-0.2-0.7-0.5-1.2-0.9-1.6s-0.9-0.5-1.5-0.5
			c-0.9,0-1.6,0.3-2.2,1s-0.8,1.6-0.8,3c0,1.4,0.3,2.4,0.8,3s1.2,0.9,2.1,0.9c0.7,0,1.3-0.2,1.7-0.6S222.6,36.7,222.7,35.8z"/>
		<path d="M233,36.3l1.8,0.2c-0.3,1.1-0.8,1.9-1.6,2.5s-1.8,0.9-3,0.9c-1.5,0-2.7-0.5-3.6-1.4s-1.3-2.2-1.3-3.9
			c0-1.7,0.4-3.1,1.3-4.1s2.1-1.4,3.5-1.4c1.4,0,2.5,0.5,3.4,1.4s1.3,2.3,1.3,4c0,0.1,0,0.3,0,0.5h-7.7c0.1,1.1,0.4,2,1,2.6
			s1.3,0.9,2.2,0.9c0.6,0,1.2-0.2,1.7-0.5S232.8,37,233,36.3z M227.3,33.4h5.8c-0.1-0.9-0.3-1.5-0.7-2c-0.6-0.7-1.3-1-2.2-1
			c-0.8,0-1.5,0.3-2,0.8S227.3,32.5,227.3,33.4z"/>
		<path d="M236.3,36.5l1.7-0.3c0.1,0.7,0.4,1.2,0.8,1.6s1.1,0.6,1.9,0.6c0.8,0,1.4-0.2,1.8-0.5s0.6-0.7,0.6-1.2
			c0-0.4-0.2-0.7-0.5-0.9c-0.2-0.2-0.8-0.4-1.8-0.6c-1.3-0.3-2.2-0.6-2.7-0.8s-0.9-0.6-1.1-1s-0.4-0.9-0.4-1.4
			c0-0.5,0.1-0.9,0.3-1.3s0.5-0.7,0.9-1c0.3-0.2,0.6-0.4,1.1-0.5s1-0.2,1.5-0.2c0.8,0,1.5,0.1,2.1,0.4s1.1,0.6,1.4,1
			s0.5,0.9,0.6,1.6l-1.7,0.2c-0.1-0.5-0.3-1-0.7-1.2s-0.9-0.4-1.6-0.4c-0.8,0-1.4,0.1-1.7,0.4s-0.5,0.6-0.5,0.9
			c0,0.2,0.1,0.4,0.2,0.6c0.1,0.2,0.4,0.3,0.7,0.5c0.2,0.1,0.7,0.2,1.6,0.4c1.2,0.3,2.1,0.6,2.6,0.8s0.9,0.5,1.2,0.9
			s0.4,0.9,0.4,1.5c0,0.6-0.2,1.1-0.5,1.7s-0.8,0.9-1.5,1.2s-1.4,0.4-2.2,0.4c-1.3,0-2.4-0.3-3.1-0.8S236.5,37.6,236.3,36.5z"/>
		<path d="M246.3,36.5l1.7-0.3c0.1,0.7,0.4,1.2,0.8,1.6s1.1,0.6,1.9,0.6c0.8,0,1.4-0.2,1.8-0.5s0.6-0.7,0.6-1.2
			c0-0.4-0.2-0.7-0.5-0.9c-0.2-0.2-0.8-0.4-1.8-0.6c-1.3-0.3-2.2-0.6-2.7-0.8s-0.9-0.6-1.1-1s-0.4-0.9-0.4-1.4
			c0-0.5,0.1-0.9,0.3-1.3s0.5-0.7,0.9-1c0.3-0.2,0.6-0.4,1.1-0.5s1-0.2,1.5-0.2c0.8,0,1.5,0.1,2.1,0.4s1.1,0.6,1.4,1
			s0.5,0.9,0.6,1.6l-1.7,0.2c-0.1-0.5-0.3-1-0.7-1.2s-0.9-0.4-1.6-0.4c-0.8,0-1.4,0.1-1.7,0.4s-0.5,0.6-0.5,0.9
			c0,0.2,0.1,0.4,0.2,0.6c0.1,0.2,0.4,0.3,0.7,0.5c0.2,0.1,0.7,0.2,1.6,0.4c1.2,0.3,2.1,0.6,2.6,0.8s0.9,0.5,1.2,0.9
			s0.4,0.9,0.4,1.5c0,0.6-0.2,1.1-0.5,1.7s-0.8,0.9-1.5,1.2s-1.4,0.4-2.2,0.4c-1.3,0-2.4-0.3-3.1-0.8S246.5,37.6,246.3,36.5z"/>
		<path d="M266.4,38l0.3,1.6c-0.5,0.1-0.9,0.2-1.3,0.2c-0.6,0-1.1-0.1-1.5-0.3s-0.6-0.5-0.7-0.8s-0.2-1-0.2-2.1v-6h-1.3v-1.4h1.3
			v-2.6l1.7-1.1v3.6h1.8v1.4h-1.8v6.1c0,0.5,0,0.8,0.1,1s0.2,0.3,0.3,0.3s0.3,0.1,0.6,0.1C265.9,38.1,266.1,38.1,266.4,38z"/>
		<path d="M267.5,34.4c0-1.9,0.5-3.3,1.6-4.3c0.9-0.8,2-1.2,3.3-1.2c1.4,0,2.6,0.5,3.5,1.4s1.4,2.2,1.4,3.9c0,1.3-0.2,2.4-0.6,3.1
			s-1,1.4-1.7,1.8s-1.6,0.6-2.5,0.6c-1.5,0-2.6-0.5-3.5-1.4S267.5,36.2,267.5,34.4z M269.3,34.4c0,1.3,0.3,2.3,0.9,3s1.3,1,2.2,1
			c0.9,0,1.6-0.3,2.2-1s0.9-1.7,0.9-3c0-1.3-0.3-2.3-0.9-2.9s-1.3-1-2.2-1c-0.9,0-1.6,0.3-2.2,1S269.3,33.1,269.3,34.4z"/>
		<path d="M279.3,39.6V25.3h1.8v8.2l4.2-4.2h2.3l-4,3.8l4.4,6.5h-2.2l-3.4-5.3l-1.2,1.2v4.1H279.3z"/>
		<path d="M296.4,36.3l1.8,0.2c-0.3,1.1-0.8,1.9-1.6,2.5s-1.8,0.9-3,0.9c-1.5,0-2.7-0.5-3.6-1.4s-1.3-2.2-1.3-3.9
			c0-1.7,0.4-3.1,1.3-4.1s2.1-1.4,3.5-1.4c1.4,0,2.5,0.5,3.4,1.4s1.3,2.3,1.3,4c0,0.1,0,0.3,0,0.5h-7.7c0.1,1.1,0.4,2,1,2.6
			s1.3,0.9,2.2,0.9c0.6,0,1.2-0.2,1.7-0.5S296.1,37,296.4,36.3z M290.6,33.4h5.8c-0.1-0.9-0.3-1.5-0.7-2c-0.6-0.7-1.3-1-2.2-1
			c-0.8,0-1.5,0.3-2,0.8S290.7,32.5,290.6,33.4z"/>
		<path d="M300.4,39.6V29.2h1.6v1.5c0.8-1.1,1.9-1.7,3.3-1.7c0.6,0,1.2,0.1,1.7,0.3s0.9,0.5,1.2,0.9s0.4,0.8,0.5,1.3
			c0.1,0.3,0.1,0.9,0.1,1.7v6.4h-1.8v-6.3c0-0.7-0.1-1.3-0.2-1.6s-0.4-0.6-0.7-0.8s-0.8-0.3-1.2-0.3c-0.7,0-1.4,0.2-1.9,0.7
			s-0.8,1.4-0.8,2.7v5.7H300.4z"/>
		<path d="M317.5,39.6v-9H316v-1.4h1.6v-1.1c0-0.7,0.1-1.2,0.2-1.6c0.2-0.5,0.5-0.8,0.9-1.1s1-0.4,1.8-0.4c0.5,0,1,0.1,1.6,0.2
			l-0.3,1.5c-0.4-0.1-0.7-0.1-1-0.1c-0.5,0-0.9,0.1-1.1,0.3s-0.3,0.7-0.3,1.3v1h2v1.4h-2v9H317.5z"/>
		<path d="M322.6,39.6V29.2h1.6v1.6c0.4-0.7,0.8-1.2,1.1-1.5s0.7-0.4,1.1-0.4c0.6,0,1.2,0.2,1.8,0.6l-0.6,1.6
			c-0.4-0.3-0.9-0.4-1.3-0.4c-0.4,0-0.7,0.1-1,0.3s-0.5,0.6-0.7,1c-0.2,0.6-0.3,1.3-0.3,2.1v5.4H322.6z"/>
		<path d="M328.7,34.4c0-1.9,0.5-3.3,1.6-4.3c0.9-0.8,2-1.2,3.3-1.2c1.4,0,2.6,0.5,3.5,1.4s1.4,2.2,1.4,3.9c0,1.3-0.2,2.4-0.6,3.1
			s-1,1.4-1.7,1.8s-1.6,0.6-2.5,0.6c-1.5,0-2.6-0.5-3.5-1.4S328.7,36.2,328.7,34.4z M330.5,34.4c0,1.3,0.3,2.3,0.9,3s1.3,1,2.2,1
			c0.9,0,1.6-0.3,2.2-1s0.9-1.7,0.9-3c0-1.3-0.3-2.3-0.9-2.9s-1.3-1-2.2-1c-0.9,0-1.6,0.3-2.2,1S330.5,33.1,330.5,34.4z"/>
		<path d="M340.4,39.6V29.2h1.6v1.5c0.3-0.5,0.8-0.9,1.3-1.2s1.2-0.5,1.8-0.5c0.8,0,1.4,0.2,1.9,0.5s0.8,0.8,1,1.3
			c0.8-1.2,1.9-1.8,3.2-1.8c1,0,1.8,0.3,2.4,0.9s0.8,1.4,0.8,2.6v7.1h-1.7v-6.5c0-0.7-0.1-1.2-0.2-1.5s-0.3-0.6-0.6-0.7
			s-0.7-0.3-1.1-0.3c-0.7,0-1.3,0.2-1.8,0.7s-0.7,1.3-0.7,2.3v6h-1.8v-6.7c0-0.8-0.1-1.4-0.4-1.8s-0.8-0.6-1.4-0.6
			c-0.5,0-1,0.1-1.4,0.4s-0.7,0.6-0.9,1.1s-0.3,1.2-0.3,2.2v5.4H340.4z"/>
		<path d="M369.4,38.3c-0.7,0.6-1.3,0.9-1.9,1.2s-1.2,0.3-1.9,0.3c-1.1,0-2-0.3-2.6-0.8s-0.9-1.3-0.9-2.1c0-0.5,0.1-1,0.3-1.4
			s0.5-0.8,0.9-1s0.8-0.4,1.3-0.6c0.3-0.1,0.9-0.2,1.6-0.3c1.4-0.2,2.5-0.4,3.1-0.6c0-0.2,0-0.4,0-0.5c0-0.7-0.2-1.2-0.5-1.5
			c-0.4-0.4-1.1-0.6-2-0.6c-0.8,0-1.4,0.1-1.8,0.4s-0.7,0.8-0.9,1.5l-1.7-0.2c0.2-0.7,0.4-1.3,0.8-1.8s0.9-0.8,1.6-1
			s1.5-0.4,2.4-0.4c0.9,0,1.6,0.1,2.2,0.3s1,0.5,1.2,0.8s0.4,0.7,0.5,1.2c0.1,0.3,0.1,0.8,0.1,1.6v2.3c0,1.6,0,2.7,0.1,3.1
			s0.2,0.8,0.4,1.2h-1.8C369.6,39.3,369.5,38.8,369.4,38.3z M369.3,34.4c-0.6,0.3-1.6,0.5-2.9,0.7c-0.7,0.1-1.2,0.2-1.5,0.4
			s-0.5,0.3-0.7,0.6s-0.2,0.5-0.2,0.8c0,0.5,0.2,0.9,0.5,1.2s0.9,0.5,1.6,0.5c0.7,0,1.3-0.1,1.8-0.4s0.9-0.7,1.2-1.2
			c0.2-0.4,0.3-1,0.3-1.8V34.4z"/>
		<path d="M373.8,39.6V29.2h1.6v1.5c0.8-1.1,1.9-1.7,3.3-1.7c0.6,0,1.2,0.1,1.7,0.3s0.9,0.5,1.2,0.9s0.4,0.8,0.5,1.3
			c0.1,0.3,0.1,0.9,0.1,1.7v6.4h-1.8v-6.3c0-0.7-0.1-1.3-0.2-1.6s-0.4-0.6-0.7-0.8s-0.8-0.3-1.2-0.3c-0.7,0-1.4,0.2-1.9,0.7
			s-0.8,1.4-0.8,2.7v5.7H373.8z"/>
		<path d="M397.2,38.3c-0.7,0.6-1.3,0.9-1.9,1.2s-1.2,0.3-1.9,0.3c-1.1,0-2-0.3-2.6-0.8s-0.9-1.3-0.9-2.1c0-0.5,0.1-1,0.3-1.4
			s0.5-0.8,0.9-1s0.8-0.4,1.3-0.6c0.3-0.1,0.9-0.2,1.6-0.3c1.4-0.2,2.5-0.4,3.1-0.6c0-0.2,0-0.4,0-0.5c0-0.7-0.2-1.2-0.5-1.5
			c-0.4-0.4-1.1-0.6-2-0.6c-0.8,0-1.4,0.1-1.8,0.4s-0.7,0.8-0.9,1.5l-1.7-0.2c0.2-0.7,0.4-1.3,0.8-1.8s0.9-0.8,1.6-1
			s1.5-0.4,2.4-0.4c0.9,0,1.6,0.1,2.2,0.3s1,0.5,1.2,0.8s0.4,0.7,0.5,1.2c0.1,0.3,0.1,0.8,0.1,1.6v2.3c0,1.6,0,2.7,0.1,3.1
			s0.2,0.8,0.4,1.2h-1.8C397.4,39.3,397.3,38.8,397.2,38.3z M397.1,34.4c-0.6,0.3-1.6,0.5-2.9,0.7c-0.7,0.1-1.2,0.2-1.5,0.4
			s-0.5,0.3-0.7,0.6s-0.2,0.5-0.2,0.8c0,0.5,0.2,0.9,0.5,1.2s0.9,0.5,1.6,0.5c0.7,0,1.3-0.1,1.8-0.4s0.9-0.7,1.2-1.2
			c0.2-0.4,0.3-1,0.3-1.8V34.4z"/>
		<path d="M408.4,39.6v-1.5c-0.8,1.2-1.9,1.8-3.3,1.8c-0.6,0-1.2-0.1-1.7-0.4s-0.9-0.5-1.2-0.9s-0.4-0.8-0.5-1.3
			c-0.1-0.3-0.1-0.9-0.1-1.6v-6.4h1.8V35c0,0.9,0,1.5,0.1,1.9c0.1,0.5,0.3,0.8,0.7,1.1s0.8,0.4,1.3,0.4s1-0.1,1.5-0.4s0.8-0.6,1-1.1
			s0.3-1.1,0.3-2v-5.6h1.8v10.4H408.4z"/>
		<path d="M416.5,38l0.3,1.6c-0.5,0.1-0.9,0.2-1.3,0.2c-0.6,0-1.1-0.1-1.5-0.3s-0.6-0.5-0.7-0.8s-0.2-1-0.2-2.1v-6h-1.3v-1.4h1.3
			v-2.6l1.7-1.1v3.6h1.8v1.4h-1.8v6.1c0,0.5,0,0.8,0.1,1s0.2,0.3,0.3,0.3s0.3,0.1,0.6,0.1C416,38.1,416.2,38.1,416.5,38z"/>
		<path d="M418.3,39.6V25.3h1.8v5.1c0.8-1,1.9-1.4,3.1-1.4c0.8,0,1.4,0.2,2,0.5s1,0.7,1.2,1.3s0.4,1.3,0.4,2.3v6.6h-1.8V33
			c0-0.9-0.2-1.5-0.6-1.9s-0.9-0.6-1.6-0.6c-0.5,0-1,0.1-1.5,0.4s-0.8,0.6-1,1.1s-0.3,1.1-0.3,1.9v5.7H418.3z"/>
		<path d="M436.5,36.3l1.8,0.2c-0.3,1.1-0.8,1.9-1.6,2.5s-1.8,0.9-3,0.9c-1.5,0-2.7-0.5-3.6-1.4s-1.3-2.2-1.3-3.9
			c0-1.7,0.4-3.1,1.3-4.1s2.1-1.4,3.5-1.4c1.4,0,2.5,0.5,3.4,1.4s1.3,2.3,1.3,4c0,0.1,0,0.3,0,0.5h-7.7c0.1,1.1,0.4,2,1,2.6
			s1.3,0.9,2.2,0.9c0.6,0,1.2-0.2,1.7-0.5S436.2,37,436.5,36.3z M430.7,33.4h5.8c-0.1-0.9-0.3-1.5-0.7-2c-0.6-0.7-1.3-1-2.2-1
			c-0.8,0-1.5,0.3-2,0.8S430.8,32.5,430.7,33.4z"/>
		<path d="M440.5,39.6V29.2h1.6v1.5c0.8-1.1,1.9-1.7,3.3-1.7c0.6,0,1.2,0.1,1.7,0.3s0.9,0.5,1.2,0.9s0.4,0.8,0.5,1.3
			c0.1,0.3,0.1,0.9,0.1,1.7v6.4h-1.8v-6.3c0-0.7-0.1-1.3-0.2-1.6s-0.4-0.6-0.7-0.8s-0.8-0.3-1.2-0.3c-0.7,0-1.4,0.2-1.9,0.7
			s-0.8,1.4-0.8,2.7v5.7H440.5z"/>
		<path d="M455.5,38l0.3,1.6c-0.5,0.1-0.9,0.2-1.3,0.2c-0.6,0-1.1-0.1-1.5-0.3s-0.6-0.5-0.7-0.8s-0.2-1-0.2-2.1v-6h-1.3v-1.4h1.3
			v-2.6l1.7-1.1v3.6h1.8v1.4h-1.8v6.1c0,0.5,0,0.8,0.1,1s0.2,0.3,0.3,0.3s0.3,0.1,0.6,0.1C454.9,38.1,455.1,38.1,455.5,38z"/>
		<path d="M457.2,27.3v-2h1.8v2H457.2z M457.2,39.6V29.2h1.8v10.4H457.2z"/>
		<path d="M468.4,35.8l1.7,0.2c-0.2,1.2-0.7,2.1-1.5,2.8s-1.7,1-2.9,1c-1.4,0-2.6-0.5-3.4-1.4s-1.3-2.3-1.3-4c0-1.1,0.2-2.1,0.6-2.9
			s0.9-1.5,1.7-1.9s1.6-0.6,2.5-0.6c1.1,0,2,0.3,2.8,0.9s1.2,1.4,1.4,2.4l-1.7,0.3c-0.2-0.7-0.5-1.2-0.9-1.6s-0.9-0.5-1.5-0.5
			c-0.9,0-1.6,0.3-2.2,1s-0.8,1.6-0.8,3c0,1.4,0.3,2.4,0.8,3s1.2,0.9,2.1,0.9c0.7,0,1.3-0.2,1.7-0.6S468.3,36.7,468.4,35.8z"/>
		<path d="M478.4,38.3c-0.7,0.6-1.3,0.9-1.9,1.2s-1.2,0.3-1.9,0.3c-1.1,0-2-0.3-2.6-0.8s-0.9-1.3-0.9-2.1c0-0.5,0.1-1,0.3-1.4
			s0.5-0.8,0.9-1s0.8-0.4,1.3-0.6c0.3-0.1,0.9-0.2,1.6-0.3c1.4-0.2,2.5-0.4,3.1-0.6c0-0.2,0-0.4,0-0.5c0-0.7-0.2-1.2-0.5-1.5
			c-0.4-0.4-1.1-0.6-2-0.6c-0.8,0-1.4,0.1-1.8,0.4s-0.7,0.8-0.9,1.5l-1.7-0.2c0.2-0.7,0.4-1.3,0.8-1.8s0.9-0.8,1.6-1
			s1.5-0.4,2.4-0.4c0.9,0,1.6,0.1,2.2,0.3s1,0.5,1.2,0.8s0.4,0.7,0.5,1.2c0.1,0.3,0.1,0.8,0.1,1.6v2.3c0,1.6,0,2.7,0.1,3.1
			s0.2,0.8,0.4,1.2h-1.8C478.6,39.3,478.4,38.8,478.4,38.3z M478.2,34.4c-0.6,0.3-1.6,0.5-2.9,0.7c-0.7,0.1-1.2,0.2-1.5,0.4
			s-0.5,0.3-0.7,0.6s-0.2,0.5-0.2,0.8c0,0.5,0.2,0.9,0.5,1.2s0.9,0.5,1.6,0.5c0.7,0,1.3-0.1,1.8-0.4s0.9-0.7,1.2-1.2
			c0.2-0.4,0.3-1,0.3-1.8V34.4z"/>
		<path d="M486.6,38l0.3,1.6c-0.5,0.1-0.9,0.2-1.3,0.2c-0.6,0-1.1-0.1-1.5-0.3s-0.6-0.5-0.7-0.8s-0.2-1-0.2-2.1v-6h-1.3v-1.4h1.3
			v-2.6l1.7-1.1v3.6h1.8v1.4h-1.8v6.1c0,0.5,0,0.8,0.1,1s0.2,0.3,0.3,0.3s0.3,0.1,0.6,0.1C486,38.1,486.3,38.1,486.6,38z"/>
		<path d="M488.3,27.3v-2h1.8v2H488.3z M488.3,39.6V29.2h1.8v10.4H488.3z"/>
		<path d="M492.1,34.4c0-1.9,0.5-3.3,1.6-4.3c0.9-0.8,2-1.2,3.3-1.2c1.4,0,2.6,0.5,3.5,1.4s1.4,2.2,1.4,3.9c0,1.3-0.2,2.4-0.6,3.1
			s-1,1.4-1.7,1.8s-1.6,0.6-2.5,0.6c-1.5,0-2.6-0.5-3.5-1.4S492.1,36.2,492.1,34.4z M493.9,34.4c0,1.3,0.3,2.3,0.9,3s1.3,1,2.2,1
			c0.9,0,1.6-0.3,2.2-1s0.9-1.7,0.9-3c0-1.3-0.3-2.3-0.9-2.9s-1.3-1-2.2-1c-0.9,0-1.6,0.3-2.2,1S493.9,33.1,493.9,34.4z"/>
		<path d="M503.9,39.6V29.2h1.6v1.5c0.8-1.1,1.9-1.7,3.3-1.7c0.6,0,1.2,0.1,1.7,0.3s0.9,0.5,1.2,0.9s0.4,0.8,0.5,1.3
			c0.1,0.3,0.1,0.9,0.1,1.7v6.4h-1.8v-6.3c0-0.7-0.1-1.3-0.2-1.6s-0.4-0.6-0.7-0.8s-0.8-0.3-1.2-0.3c-0.7,0-1.4,0.2-1.9,0.7
			s-0.8,1.4-0.8,2.7v5.7H503.9z"/>
		<path d="M519.8,36.5l1.7-0.3c0.1,0.7,0.4,1.2,0.8,1.6s1.1,0.6,1.9,0.6c0.8,0,1.4-0.2,1.8-0.5s0.6-0.7,0.6-1.2
			c0-0.4-0.2-0.7-0.5-0.9c-0.2-0.2-0.8-0.4-1.8-0.6c-1.3-0.3-2.2-0.6-2.7-0.8s-0.9-0.6-1.1-1s-0.4-0.9-0.4-1.4
			c0-0.5,0.1-0.9,0.3-1.3s0.5-0.7,0.9-1c0.3-0.2,0.6-0.4,1.1-0.5s1-0.2,1.5-0.2c0.8,0,1.5,0.1,2.1,0.4s1.1,0.6,1.4,1
			s0.5,0.9,0.6,1.6l-1.7,0.2c-0.1-0.5-0.3-1-0.7-1.2s-0.9-0.4-1.6-0.4c-0.8,0-1.4,0.1-1.7,0.4s-0.5,0.6-0.5,0.9
			c0,0.2,0.1,0.4,0.2,0.6c0.1,0.2,0.4,0.3,0.7,0.5c0.2,0.1,0.7,0.2,1.6,0.4c1.2,0.3,2.1,0.6,2.6,0.8s0.9,0.5,1.2,0.9
			s0.4,0.9,0.4,1.5c0,0.6-0.2,1.1-0.5,1.7s-0.8,0.9-1.5,1.2s-1.4,0.4-2.2,0.4c-1.3,0-2.4-0.3-3.1-0.8S520,37.6,519.8,36.5z"/>
		<path d="M537.6,36.3l1.8,0.2c-0.3,1.1-0.8,1.9-1.6,2.5s-1.8,0.9-3,0.9c-1.5,0-2.7-0.5-3.6-1.4s-1.3-2.2-1.3-3.9
			c0-1.7,0.4-3.1,1.3-4.1s2.1-1.4,3.5-1.4c1.4,0,2.5,0.5,3.4,1.4s1.3,2.3,1.3,4c0,0.1,0,0.3,0,0.5h-7.7c0.1,1.1,0.4,2,1,2.6
			s1.3,0.9,2.2,0.9c0.6,0,1.2-0.2,1.7-0.5S537.4,37,537.6,36.3z M531.9,33.4h5.8c-0.1-0.9-0.3-1.5-0.7-2c-0.6-0.7-1.3-1-2.2-1
			c-0.8,0-1.5,0.3-2,0.8S531.9,32.5,531.9,33.4z"/>
		<path d="M541.6,39.6V29.2h1.6v1.6c0.4-0.7,0.8-1.2,1.1-1.5s0.7-0.4,1.1-0.4c0.6,0,1.2,0.2,1.8,0.6l-0.6,1.6
			c-0.4-0.3-0.9-0.4-1.3-0.4c-0.4,0-0.7,0.1-1,0.3s-0.5,0.6-0.7,1c-0.2,0.6-0.3,1.3-0.3,2.1v5.4H541.6z"/>
		<path d="M551.2,39.6l-3.9-10.4h1.9l2.2,6.2c0.2,0.7,0.5,1.4,0.7,2.1c0.2-0.5,0.4-1.2,0.7-2l2.3-6.3h1.8l-3.9,10.4H551.2z"/>
		<path d="M565.4,36.3l1.8,0.2c-0.3,1.1-0.8,1.9-1.6,2.5s-1.8,0.9-3,0.9c-1.5,0-2.7-0.5-3.6-1.4s-1.3-2.2-1.3-3.9
			c0-1.7,0.4-3.1,1.3-4.1s2.1-1.4,3.5-1.4c1.4,0,2.5,0.5,3.4,1.4s1.3,2.3,1.3,4c0,0.1,0,0.3,0,0.5h-7.7c0.1,1.1,0.4,2,1,2.6
			s1.3,0.9,2.2,0.9c0.6,0,1.2-0.2,1.7-0.5S565.2,37,565.4,36.3z M559.7,33.4h5.8c-0.1-0.9-0.3-1.5-0.7-2c-0.6-0.7-1.3-1-2.2-1
			c-0.8,0-1.5,0.3-2,0.8S559.7,32.5,559.7,33.4z"/>
		<path d="M569.4,39.6V29.2h1.6v1.6c0.4-0.7,0.8-1.2,1.1-1.5s0.7-0.4,1.1-0.4c0.6,0,1.2,0.2,1.8,0.6l-0.6,1.6
			c-0.4-0.3-0.9-0.4-1.3-0.4c-0.4,0-0.7,0.1-1,0.3s-0.5,0.6-0.7,1c-0.2,0.6-0.3,1.3-0.3,2.1v5.4H569.4z"/>
	</g>
	<g>
		<path d="M105.4,194.6c0.1,0.1,0.1,0.4,0,0.5c-0.1,0.1-0.2,0.1-0.3,0.1c-0.1,0-0.2,0-0.3-0.1l-1.2-1.2l-1.2,1.2
			c-0.1,0.1-0.2,0.1-0.3,0.1c-0.1,0-0.2,0-0.3-0.1c-0.1-0.1-0.1-0.4,0-0.5l1.2-1.2l-1.3-1.3c-0.1-0.1-0.1-0.4,0-0.5
			c0.1-0.1,0.4-0.1,0.5,0l1.3,1.3l1.3-1.3c0.1-0.1,0.4-0.1,0.5,0c0.1,0.1,0.1,0.4,0,0.5l-1.3,1.3L105.4,194.6z M66.3,188.9v9h42v-9
			H66.3z"/>
		<rect x="89.6" y="207.6" width="6.8" height="2.2"/>
		<rect x="79.8" y="207.6" width="6.8" height="2.2"/>
		<path d="M102.3,202.5H74.6c-0.2,0-0.4-0.2-0.4-0.4s0.2-0.4,0.4-0.4h27.7c0.2,0,0.4,0.2,0.4,0.4S102.5,202.5,102.3,202.5z"/>
		<path d="M95.6,205.5H79.9c-0.2,0-0.4-0.2-0.4-0.4s0.2-0.4,0.4-0.4h15.8c0.2,0,0.4,0.2,0.4,0.4S95.8,205.5,95.6,205.5z"/>
		<path d="M56.6,225.6h61.5v-46.5H56.6V225.6z M119.6,227.1H55.1v-49.5h64.5V227.1z"/>
		<path d="M56.6,177.6h61.5v-5.4c0-0.3-0.5-0.6-1-0.6H57.6c-0.5,0-1,0.3-1,0.6V177.6z M119.6,179.1H55.1v-6.9c0-1.3,1.3-2.1,2.5-2.1
			H117c1.2,0,2.5,0.8,2.5,2.1V179.1z"/>
		<path d="M61.6,174.5c0,1.5-2.3,1.5-2.3,0S61.6,172.9,61.6,174.5"/>
		<path d="M65.4,174.5c0,1.5-2.3,1.5-2.3,0S65.4,172.9,65.4,174.5"/>
		<path d="M69.1,174.5c0,1.5-2.3,1.5-2.3,0S69.1,172.9,69.1,174.5"/>
		<path d="M67.1,213.6h40.5v-15.8H67.1V213.6z M108.3,214.4h-42v-17.2h42V214.4z"/>
	</g>
	<path d="M532.2,265.9c-1.4,0-2.5-1.1-2.5-2.5c0-1.4,1.1-2.5,2.5-2.5c1.4,0,2.5,1.1,2.5,2.5C534.7,264.8,533.6,265.9,532.2,265.9z
		 M519.9,266.1h-34.2v-5.3h34.2V266.1z M536.6,254.8h-54.2c-1.5,0-2.7,1.2-2.7,2.7v11.9c0,1.5,1.2,2.7,2.7,2.7h54.2
		c1.5,0,2.7-1.2,2.7-2.7v-11.9C539.4,256,538.2,254.8,536.6,254.8z M532.2,306.1c-1.4,0-2.5-1.1-2.5-2.5c0-1.4,1.1-2.5,2.5-2.5
		c1.4,0,2.5,1.1,2.5,2.5C534.7,305,533.6,306.1,532.2,306.1z M519.9,306.3h-34.2V301h34.2V306.3z M536.6,295h-54.2
		c-1.5,0-2.7,1.2-2.7,2.7v11.9c0,1.5,1.2,2.7,2.7,2.7h54.2c1.5,0,2.7-1.2,2.7-2.7v-11.9C539.4,296.2,538.2,295,536.6,295z
		 M532.2,286.2c-1.4,0-2.5-1.1-2.5-2.5c0-1.4,1.1-2.5,2.5-2.5c1.4,0,2.5,1.1,2.5,2.5S533.6,286.2,532.2,286.2z M519.9,286.4h-34.2
		v-5.3h34.2V286.4z M536.6,275.1h-54.2c-1.5,0-2.7,1.2-2.7,2.7v11.9c0,1.5,1.2,2.7,2.7,2.7h54.2c1.5,0,2.7-1.2,2.7-2.7v-11.9
		C539.4,276.3,538.2,275.1,536.6,275.1z"/>
	<g>
		<g>
			<line fill="none" stroke="#999999" stroke-miterlimit="10" x1="266.3" y1="105" x2="264.4" y2="105.7"/>
			
				<line fill="none" stroke="#999999" stroke-miterlimit="10" stroke-dasharray="4.0392,4.0392" x1="260.6" y1="107.1" x2="125.9" y2="156.2"/>
			<line fill="none" stroke="#999999" stroke-miterlimit="10" x1="124" y1="156.9" x2="122.1" y2="157.6"/>
			<g>
				<path fill="#999999" d="M116.4,159.7c2.3-2,5-4.9,6.4-7.4l0,5.1l3.2,3.9C123.4,160.2,119.4,159.7,116.4,159.7z"/>
			</g>
		</g>
	</g>
	<g>
		<g>
			<line fill="none" stroke="#999999" stroke-miterlimit="10" x1="329.6" y1="117" x2="331.1" y2="118.4"/>
			
				<line fill="none" stroke="#999999" stroke-miterlimit="10" stroke-dasharray="3.9204,3.9204" x1="334" y1="121" x2="466.9" y2="240"/>
			<line fill="none" stroke="#999999" stroke-miterlimit="10" x1="468.3" y1="241.3" x2="469.8" y2="242.7"/>
			<g>
				<path fill="#999999" d="M474.3,246.7c-2.8-1.1-6.6-2.1-9.5-2.2l4.5-2.4l1.9-4.7C471.5,240.3,472.9,244,474.3,246.7z"/>
			</g>
		</g>
	</g>
	<g>
		<path d="M32.3,367.9l4.4-11.5h1.6l4.7,11.5h-1.7l-1.3-3.5h-4.8l-1.3,3.5H32.3z M35.6,363.2h3.9l-1.2-3.2c-0.4-1-0.6-1.8-0.8-2.4
			c-0.1,0.7-0.4,1.5-0.6,2.2L35.6,363.2z"/>
		<path d="M49.4,367.9v-1.2c-0.6,0.9-1.5,1.4-2.6,1.4c-0.5,0-0.9-0.1-1.4-0.3c-0.4-0.2-0.7-0.4-0.9-0.7c-0.2-0.3-0.4-0.6-0.4-1
			c-0.1-0.3-0.1-0.7-0.1-1.3v-5.1h1.4v4.6c0,0.7,0,1.2,0.1,1.5c0.1,0.4,0.3,0.7,0.6,0.9c0.3,0.2,0.6,0.3,1.1,0.3s0.8-0.1,1.2-0.3
			c0.4-0.2,0.6-0.5,0.8-0.9c0.2-0.4,0.2-0.9,0.2-1.6v-4.4h1.4v8.3H49.4z"/>
		<path d="M56,366.6l0.2,1.2c-0.4,0.1-0.8,0.1-1.1,0.1c-0.5,0-0.9-0.1-1.2-0.2s-0.5-0.4-0.6-0.6c-0.1-0.3-0.2-0.8-0.2-1.7v-4.8h-1
			v-1.1h1v-2.1l1.4-0.8v2.9H56v1.1h-1.4v4.9c0,0.4,0,0.7,0.1,0.8c0,0.1,0.1,0.2,0.2,0.3c0.1,0.1,0.3,0.1,0.5,0.1
			C55.5,366.7,55.7,366.7,56,366.6z"/>
		<path d="M57.4,367.9v-11.5h1.4v4.1c0.7-0.8,1.5-1.1,2.5-1.1c0.6,0,1.1,0.1,1.6,0.4s0.8,0.6,1,1s0.3,1,0.3,1.9v5.3h-1.4v-5.3
			c0-0.7-0.2-1.2-0.5-1.5s-0.7-0.5-1.3-0.5c-0.4,0-0.8,0.1-1.2,0.3s-0.6,0.5-0.8,0.9s-0.2,0.9-0.2,1.5v4.5H57.4z"/>
		<path d="M71.9,365.2l1.5,0.2c-0.2,0.8-0.7,1.5-1.3,2c-0.6,0.5-1.4,0.7-2.4,0.7c-1.2,0-2.2-0.4-2.9-1.1s-1.1-1.8-1.1-3.1
			c0-1.4,0.4-2.5,1.1-3.2s1.7-1.2,2.8-1.2c1.1,0,2,0.4,2.7,1.1s1.1,1.8,1.1,3.2c0,0.1,0,0.2,0,0.4h-6.2c0.1,0.9,0.3,1.6,0.8,2.1
			c0.5,0.5,1,0.7,1.7,0.7c0.5,0,1-0.1,1.3-0.4C71.4,366.2,71.7,365.8,71.9,365.2z M67.3,362.9h4.6c-0.1-0.7-0.2-1.2-0.5-1.6
			c-0.4-0.5-1-0.8-1.7-0.8c-0.6,0-1.2,0.2-1.6,0.6C67.6,361.6,67.4,362.2,67.3,362.9z"/>
		<path d="M75.1,367.9v-8.3h1.3v1.2c0.6-0.9,1.5-1.4,2.6-1.4c0.5,0,1,0.1,1.4,0.3c0.4,0.2,0.7,0.4,0.9,0.7c0.2,0.3,0.4,0.6,0.4,1
			c0.1,0.3,0.1,0.7,0.1,1.4v5.1h-1.4v-5c0-0.6-0.1-1-0.2-1.3s-0.3-0.5-0.6-0.7c-0.3-0.2-0.6-0.3-1-0.3c-0.6,0-1.1,0.2-1.6,0.6
			c-0.4,0.4-0.7,1.1-0.7,2.2v4.5H75.1z"/>
		<path d="M87.1,366.6l0.2,1.2c-0.4,0.1-0.8,0.1-1.1,0.1c-0.5,0-0.9-0.1-1.2-0.2s-0.5-0.4-0.6-0.6c-0.1-0.3-0.2-0.8-0.2-1.7v-4.8h-1
			v-1.1h1v-2.1l1.4-0.8v2.9h1.4v1.1h-1.4v4.9c0,0.4,0,0.7,0.1,0.8c0,0.1,0.1,0.2,0.2,0.3c0.1,0.1,0.3,0.1,0.5,0.1
			C86.7,366.7,86.9,366.7,87.1,366.6z"/>
		<path d="M88.5,358v-1.6h1.4v1.6H88.5z M88.5,367.9v-8.3h1.4v8.3H88.5z"/>
		<path d="M97.5,364.8l1.4,0.2c-0.2,1-0.5,1.7-1.2,2.2c-0.6,0.5-1.4,0.8-2.3,0.8c-1.1,0-2-0.4-2.7-1.1c-0.7-0.7-1-1.8-1-3.2
			c0-0.9,0.1-1.7,0.4-2.4s0.7-1.2,1.4-1.5c0.6-0.3,1.3-0.5,2-0.5c0.9,0,1.6,0.2,2.2,0.7c0.6,0.5,0.9,1.1,1.1,1.9l-1.4,0.2
			c-0.1-0.6-0.4-1-0.7-1.3c-0.3-0.3-0.7-0.4-1.2-0.4c-0.7,0-1.3,0.3-1.7,0.8c-0.4,0.5-0.7,1.3-0.7,2.4c0,1.1,0.2,1.9,0.6,2.4
			c0.4,0.5,1,0.8,1.7,0.8c0.6,0,1-0.2,1.4-0.5C97.1,366.1,97.4,365.5,97.5,364.8z"/>
		<path d="M105.5,366.9c-0.5,0.4-1,0.8-1.5,0.9c-0.5,0.2-1,0.3-1.6,0.3c-0.9,0-1.6-0.2-2.1-0.7c-0.5-0.4-0.7-1-0.7-1.7
			c0-0.4,0.1-0.8,0.3-1.1c0.2-0.3,0.4-0.6,0.7-0.8c0.3-0.2,0.6-0.4,1-0.5c0.3-0.1,0.7-0.1,1.2-0.2c1.1-0.1,2-0.3,2.5-0.5
			c0-0.2,0-0.3,0-0.4c0-0.6-0.1-1-0.4-1.2c-0.4-0.3-0.9-0.5-1.6-0.5c-0.7,0-1.1,0.1-1.5,0.3c-0.3,0.2-0.5,0.6-0.7,1.2l-1.4-0.2
			c0.1-0.6,0.3-1.1,0.6-1.4c0.3-0.4,0.7-0.6,1.2-0.8c0.5-0.2,1.2-0.3,1.9-0.3c0.7,0,1.3,0.1,1.7,0.2c0.4,0.2,0.8,0.4,1,0.6
			c0.2,0.3,0.4,0.6,0.4,1c0,0.2,0.1,0.7,0.1,1.3v1.9c0,1.3,0,2.1,0.1,2.5c0.1,0.3,0.2,0.7,0.4,1h-1.5
			C105.6,367.6,105.5,367.2,105.5,366.9z M105.3,363.7c-0.5,0.2-1.3,0.4-2.3,0.5c-0.6,0.1-1,0.2-1.2,0.3c-0.2,0.1-0.4,0.3-0.6,0.5
			c-0.1,0.2-0.2,0.4-0.2,0.7c0,0.4,0.1,0.7,0.4,0.9c0.3,0.2,0.7,0.4,1.2,0.4c0.5,0,1-0.1,1.4-0.4s0.7-0.6,0.9-1
			c0.2-0.3,0.2-0.8,0.2-1.4V363.7z"/>
		<path d="M112,366.6l0.2,1.2c-0.4,0.1-0.8,0.1-1.1,0.1c-0.5,0-0.9-0.1-1.2-0.2s-0.5-0.4-0.6-0.6c-0.1-0.3-0.2-0.8-0.2-1.7v-4.8h-1
			v-1.1h1v-2.1l1.4-0.8v2.9h1.4v1.1h-1.4v4.9c0,0.4,0,0.7,0.1,0.8c0,0.1,0.1,0.2,0.2,0.3c0.1,0.1,0.3,0.1,0.5,0.1
			C111.6,366.7,111.8,366.7,112,366.6z"/>
		<path d="M113.4,358v-1.6h1.4v1.6H113.4z M113.4,367.9v-8.3h1.4v8.3H113.4z"/>
		<path d="M116.4,363.7c0-1.5,0.4-2.7,1.3-3.4c0.7-0.6,1.6-0.9,2.6-0.9c1.1,0,2.1,0.4,2.8,1.1c0.7,0.7,1.1,1.8,1.1,3.1
			c0,1.1-0.2,1.9-0.5,2.5s-0.8,1.1-1.4,1.4c-0.6,0.3-1.3,0.5-2,0.5c-1.2,0-2.1-0.4-2.8-1.1C116.8,366.2,116.4,365.1,116.4,363.7z
			 M117.9,363.7c0,1.1,0.2,1.9,0.7,2.4c0.5,0.5,1,0.8,1.8,0.8c0.7,0,1.3-0.3,1.7-0.8c0.5-0.5,0.7-1.3,0.7-2.4c0-1-0.2-1.8-0.7-2.3
			c-0.5-0.5-1-0.8-1.7-0.8c-0.7,0-1.3,0.3-1.8,0.8C118.1,361.9,117.9,362.7,117.9,363.7z"/>
		<path d="M125.8,367.9v-8.3h1.3v1.2c0.6-0.9,1.5-1.4,2.6-1.4c0.5,0,1,0.1,1.4,0.3c0.4,0.2,0.7,0.4,0.9,0.7c0.2,0.3,0.4,0.6,0.4,1
			c0.1,0.3,0.1,0.7,0.1,1.4v5.1h-1.4v-5c0-0.6-0.1-1-0.2-1.3s-0.3-0.5-0.6-0.7c-0.3-0.2-0.6-0.3-1-0.3c-0.6,0-1.1,0.2-1.6,0.6
			c-0.4,0.4-0.7,1.1-0.7,2.2v4.5H125.8z"/>
		<path d="M63.5,384.6l1.4-0.2c0.1,0.6,0.3,1,0.7,1.3c0.4,0.3,0.9,0.4,1.5,0.4c0.6,0,1.1-0.1,1.4-0.4s0.5-0.6,0.5-0.9
			c0-0.3-0.1-0.6-0.4-0.8c-0.2-0.1-0.7-0.3-1.4-0.5c-1-0.3-1.7-0.5-2.1-0.7s-0.7-0.5-0.9-0.8c-0.2-0.3-0.3-0.7-0.3-1.1
			c0-0.4,0.1-0.7,0.3-1c0.2-0.3,0.4-0.6,0.7-0.8c0.2-0.2,0.5-0.3,0.9-0.4c0.4-0.1,0.8-0.2,1.2-0.2c0.7,0,1.2,0.1,1.7,0.3
			s0.9,0.4,1.1,0.8s0.4,0.7,0.5,1.3l-1.4,0.2c-0.1-0.4-0.2-0.8-0.5-1c-0.3-0.2-0.7-0.4-1.3-0.4c-0.6,0-1.1,0.1-1.4,0.3
			c-0.3,0.2-0.4,0.5-0.4,0.8c0,0.2,0.1,0.3,0.2,0.5c0.1,0.2,0.3,0.3,0.5,0.4c0.1,0.1,0.6,0.2,1.2,0.4c1,0.3,1.7,0.5,2.1,0.7
			c0.4,0.2,0.7,0.4,0.9,0.7c0.2,0.3,0.3,0.7,0.3,1.2c0,0.5-0.1,0.9-0.4,1.3s-0.7,0.7-1.2,1s-1.1,0.3-1.8,0.3c-1.1,0-1.9-0.2-2.5-0.7
			C64,386.1,63.6,385.5,63.5,384.6z"/>
		<path d="M77.7,384.4l1.5,0.2c-0.2,0.8-0.7,1.5-1.3,2c-0.6,0.5-1.4,0.7-2.4,0.7c-1.2,0-2.2-0.4-2.9-1.1s-1.1-1.8-1.1-3.1
			c0-1.4,0.4-2.5,1.1-3.2s1.7-1.2,2.8-1.2c1.1,0,2,0.4,2.7,1.1s1.1,1.8,1.1,3.2c0,0.1,0,0.2,0,0.4H73c0.1,0.9,0.3,1.6,0.8,2.1
			c0.5,0.5,1,0.7,1.7,0.7c0.5,0,1-0.1,1.3-0.4C77.2,385.4,77.5,385,77.7,384.4z M73.1,382.1h4.6c-0.1-0.7-0.2-1.2-0.5-1.6
			c-0.4-0.5-1-0.8-1.7-0.8c-0.6,0-1.2,0.2-1.6,0.6C73.4,380.8,73.1,381.4,73.1,382.1z"/>
		<path d="M80.9,387.1v-8.3h1.3v1.3c0.3-0.6,0.6-1,0.9-1.2s0.6-0.3,0.9-0.3c0.5,0,1,0.2,1.4,0.5l-0.5,1.3c-0.3-0.2-0.7-0.3-1-0.3
			c-0.3,0-0.6,0.1-0.8,0.3c-0.2,0.2-0.4,0.4-0.5,0.8c-0.2,0.5-0.2,1-0.2,1.6v4.3H80.9z"/>
		<path d="M88.6,387.1l-3.2-8.3h1.5l1.8,5c0.2,0.5,0.4,1.1,0.5,1.7c0.1-0.4,0.3-1,0.5-1.6l1.8-5.1H93l-3.1,8.3H88.6z"/>
		<path d="M99.9,384.4l1.5,0.2c-0.2,0.8-0.7,1.5-1.3,2c-0.6,0.5-1.4,0.7-2.4,0.7c-1.2,0-2.2-0.4-2.9-1.1s-1.1-1.8-1.1-3.1
			c0-1.4,0.4-2.5,1.1-3.2s1.7-1.2,2.8-1.2c1.1,0,2,0.4,2.7,1.1s1.1,1.8,1.1,3.2c0,0.1,0,0.2,0,0.4h-6.2c0.1,0.9,0.3,1.6,0.8,2.1
			c0.5,0.5,1,0.7,1.7,0.7c0.5,0,1-0.1,1.3-0.4C99.4,385.4,99.7,385,99.9,384.4z M95.3,382.1h4.6c-0.1-0.7-0.2-1.2-0.5-1.6
			c-0.4-0.5-1-0.8-1.7-0.8c-0.6,0-1.2,0.2-1.6,0.6C95.6,380.8,95.4,381.4,95.3,382.1z"/>
		<path d="M103.1,387.1v-8.3h1.3v1.3c0.3-0.6,0.6-1,0.9-1.2s0.6-0.3,0.9-0.3c0.5,0,1,0.2,1.4,0.5l-0.5,1.3c-0.3-0.2-0.7-0.3-1-0.3
			c-0.3,0-0.6,0.1-0.8,0.3c-0.2,0.2-0.4,0.4-0.5,0.8c-0.2,0.5-0.2,1-0.2,1.6v4.3H103.1z"/>
	</g>
	<path fill="#539153" d="M206.3,171.6h2.9c0.4,0,0.7,0.3,0.7,0.7s-0.3,0.7-0.7,0.7h-2.9c-0.4,0-0.7-0.3-0.7-0.7
		S205.9,171.6,206.3,171.6z M198.6,168.7c-0.8,0-1.4,0.6-1.4,1.4c0,0.8,0.6,1.4,1.4,1.4c0.8,0,1.4-0.6,1.4-1.4
		C200,169.3,199.4,168.7,198.6,168.7z M198.6,167.4c1.3,0,2.3,0.9,2.6,2h7.9c0.4,0,0.7,0.3,0.7,0.7c0,0.4-0.3,0.7-0.7,0.7h-7.9
		c-0.3,1.2-1.4,2-2.6,2c-1.5,0-2.7-1.2-2.7-2.7C195.9,168.6,197.1,167.4,198.6,167.4z M203,156.2L203,156.2c-0.2,0-0.4,0.1-0.5,0.3
		c-1.2,1.7-5,3.2-9.3,3.2c0,0,0,0,0,0c0,0,0,0-0.1,0c-0.3,0-0.6,0.2-0.6,0.5c0,0-0.7,2.9-1,6.5c-0.3,3.6-0.4,7.7,1,10.4
		c1.1,2,3.6,3.6,5.9,4.9c2.1,1.1,3.8,1.8,4.1,1.9c0.1,0.1,0.3,0.1,0.4,0.1c0.2,0,0.3,0,0.4-0.1h0c0.3-0.1,2-0.8,4.1-1.9
		c2.3-1.2,4.8-2.9,5.9-4.9c1.4-2.7,1.4-6.9,1-10.4c-0.3-3.6-1-6.5-1-6.5c-0.1-0.3-0.3-0.5-0.7-0.5c0,0,0,0-0.1,0
		c-4.2,0-7.8-1.4-9.1-3.1C203.5,156.4,203.2,156.2,203,156.2L203,156.2z"/>
	<path fill="#539153" d="M416.2,164.4h2.9c0.4,0,0.7,0.3,0.7,0.7s-0.3,0.7-0.7,0.7h-2.9c-0.4,0-0.7-0.3-0.7-0.7
		S415.8,164.4,416.2,164.4z M408.5,161.6c-0.8,0-1.4,0.6-1.4,1.4c0,0.8,0.6,1.4,1.4,1.4c0.8,0,1.4-0.6,1.4-1.4
		C409.9,162.2,409.3,161.6,408.5,161.6z M408.5,160.3c1.3,0,2.3,0.9,2.6,2h7.9c0.4,0,0.7,0.3,0.7,0.7s-0.3,0.7-0.7,0.7h-7.9
		c-0.3,1.2-1.4,2-2.6,2c-1.5,0-2.7-1.2-2.7-2.7C405.8,161.5,407,160.3,408.5,160.3z M412.9,149.1L412.9,149.1
		c-0.2,0-0.4,0.1-0.5,0.3c-1.2,1.7-5,3.2-9.3,3.2c0,0,0,0,0,0c0,0,0,0-0.1,0c-0.3,0-0.6,0.2-0.6,0.5c0,0-0.7,2.9-1,6.5
		c-0.3,3.6-0.4,7.7,1,10.4c1.1,2,3.6,3.6,5.9,4.9c2.1,1.1,3.8,1.8,4.1,1.9c0.1,0.1,0.3,0.1,0.4,0.1c0.2,0,0.3,0,0.4-0.1h0
		c0.3-0.1,2-0.8,4.1-1.9c2.3-1.2,4.8-2.9,5.9-4.9c1.4-2.7,1.4-6.9,1-10.4c-0.3-3.6-1-6.5-1-6.5c-0.1-0.3-0.3-0.5-0.7-0.5
		c0,0,0,0-0.1,0c-4.2,0-7.8-1.4-9.1-3.1C413.4,149.2,413.2,149.1,412.9,149.1L412.9,149.1z"/>
	<line x1="143" y1="280.1" x2="150.5" y2="280.1"/>
	<g>
		<g>
			<line fill="none" stroke="#999999" stroke-miterlimit="10" stroke-dasharray="4,4" x1="74.5" y1="249" x2="74.5" y2="278"/>
			<g>
				<path fill="#999999" d="M74.5,284c-1.1-2.8-2.9-6.4-4.8-8.5l4.8,1.7l4.8-1.7C77.4,277.6,75.6,281.2,74.5,284z"/>
			</g>
		</g>
	</g>
	<g>
		<g>
			<line fill="none" stroke="#999999" stroke-miterlimit="10" stroke-dasharray="4,4" x1="92.5" y1="255" x2="92.5" y2="284"/>
			<g>
				<path fill="#999999" d="M92.5,249c-1.1,2.8-2.9,6.4-4.8,8.5l4.8-1.7l4.8,1.7C95.4,255.4,93.6,251.8,92.5,249z"/>
			</g>
		</g>
	</g>
	<g>
		<g>
			<line fill="none" stroke="#999999" stroke-miterlimit="10" x1="128.4" y1="176.7" x2="130.3" y2="176"/>
			
				<line fill="none" stroke="#999999" stroke-miterlimit="10" stroke-dasharray="4.0392,4.0392" x1="134.1" y1="174.6" x2="268.8" y2="125.5"/>
			<line fill="none" stroke="#999999" stroke-miterlimit="10" x1="270.7" y1="124.8" x2="272.6" y2="124.1"/>
			<g>
				<path fill="#999999" d="M278.3,122c-2.3,2-5,4.9-6.4,7.4l0-5.1l-3.2-3.9C271.3,121.6,275.2,122,278.3,122z"/>
			</g>
		</g>
	</g>
	<path fill="#707270" d="M104.7,302.1c-1.4,0-2.5-1.1-2.5-2.5c0-1.4,1.1-2.5,2.5-2.5c1.4,0,2.5,1.1,2.5,2.5
		C107.2,301,106.1,302.1,104.7,302.1z M92.4,302.3H58.3V297h34.2V302.3z M109.1,291H54.9c-1.5,0-2.7,1.2-2.7,2.7v11.9
		c0,1.5,1.2,2.7,2.7,2.7h54.2c1.5,0,2.7-1.2,2.7-2.7v-11.9C111.9,292.2,110.6,291,109.1,291z M104.7,342.4c-1.4,0-2.5-1.1-2.5-2.5
		c0-1.4,1.1-2.5,2.5-2.5c1.4,0,2.5,1.1,2.5,2.5C107.2,341.3,106.1,342.4,104.7,342.4z M92.4,342.5H58.3v-5.3h34.2V342.5z
		 M109.1,331.2H54.9c-1.5,0-2.7,1.2-2.7,2.7v11.9c0,1.5,1.2,2.7,2.7,2.7h54.2c1.5,0,2.7-1.2,2.7-2.7V334
		C111.9,332.4,110.6,331.2,109.1,331.2z M104.7,322.5c-1.4,0-2.5-1.1-2.5-2.5c0-1.4,1.1-2.5,2.5-2.5c1.4,0,2.5,1.1,2.5,2.5
		C107.2,321.4,106.1,322.5,104.7,322.5z M92.4,322.6H58.3v-5.3h34.2V322.6z M109.1,311.3H54.9c-1.5,0-2.7,1.2-2.7,2.7v11.9
		c0,1.5,1.2,2.7,2.7,2.7h54.2c1.5,0,2.7-1.2,2.7-2.7v-11.9C111.9,312.5,110.6,311.3,109.1,311.3z"/>
	<g>
		<path d="M479.1,335.9v-11.5h5.1c1,0,1.8,0.1,2.3,0.3c0.5,0.2,1,0.6,1.3,1.1c0.3,0.5,0.5,1.1,0.5,1.7c0,0.8-0.3,1.5-0.8,2.1
			c-0.5,0.6-1.3,0.9-2.4,1.1c0.4,0.2,0.7,0.4,0.9,0.6c0.4,0.4,0.9,0.9,1.3,1.5l2,3.1h-1.9l-1.5-2.4c-0.4-0.7-0.8-1.2-1.1-1.6
			c-0.3-0.4-0.5-0.6-0.8-0.8c-0.2-0.1-0.5-0.2-0.7-0.3c-0.2,0-0.5-0.1-0.8-0.1h-1.8v5.1H479.1z M480.6,329.5h3.3
			c0.7,0,1.2-0.1,1.6-0.2c0.4-0.1,0.7-0.4,0.9-0.7c0.2-0.3,0.3-0.7,0.3-1c0-0.5-0.2-1-0.6-1.3c-0.4-0.3-1-0.5-1.9-0.5h-3.6V329.5z"
			/>
		<path d="M496.1,333.2l1.5,0.2c-0.2,0.8-0.7,1.5-1.3,2c-0.6,0.5-1.4,0.7-2.4,0.7c-1.2,0-2.2-0.4-2.9-1.1c-0.7-0.7-1.1-1.8-1.1-3.1
			c0-1.4,0.4-2.5,1.1-3.2c0.7-0.8,1.7-1.2,2.8-1.2c1.1,0,2,0.4,2.7,1.1c0.7,0.8,1.1,1.8,1.1,3.2c0,0.1,0,0.2,0,0.4h-6.2
			c0.1,0.9,0.3,1.6,0.8,2.1c0.5,0.5,1,0.7,1.7,0.7c0.5,0,1-0.1,1.3-0.4C495.6,334.2,495.9,333.8,496.1,333.2z M491.5,330.9h4.6
			c-0.1-0.7-0.2-1.2-0.5-1.6c-0.4-0.5-1-0.8-1.7-0.8c-0.6,0-1.2,0.2-1.6,0.6C491.8,329.6,491.6,330.2,491.5,330.9z"/>
		<path d="M498.8,333.4l1.4-0.2c0.1,0.6,0.3,1,0.7,1.3c0.4,0.3,0.9,0.4,1.5,0.4c0.6,0,1.1-0.1,1.4-0.4c0.3-0.3,0.5-0.6,0.5-0.9
			c0-0.3-0.1-0.6-0.4-0.8c-0.2-0.1-0.7-0.3-1.4-0.5c-1-0.3-1.7-0.5-2.1-0.7c-0.4-0.2-0.7-0.5-0.9-0.8c-0.2-0.3-0.3-0.7-0.3-1.1
			c0-0.4,0.1-0.7,0.3-1c0.2-0.3,0.4-0.6,0.7-0.8c0.2-0.2,0.5-0.3,0.9-0.4c0.4-0.1,0.8-0.2,1.2-0.2c0.7,0,1.2,0.1,1.7,0.3
			s0.9,0.4,1.1,0.8s0.4,0.7,0.5,1.3l-1.4,0.2c-0.1-0.4-0.2-0.8-0.5-1c-0.3-0.2-0.7-0.4-1.3-0.4c-0.6,0-1.1,0.1-1.4,0.3
			c-0.3,0.2-0.4,0.5-0.4,0.8c0,0.2,0.1,0.3,0.2,0.5c0.1,0.2,0.3,0.3,0.5,0.4c0.1,0.1,0.6,0.2,1.2,0.4c1,0.3,1.7,0.5,2.1,0.7
			c0.4,0.2,0.7,0.4,0.9,0.7c0.2,0.3,0.3,0.7,0.3,1.2c0,0.5-0.1,0.9-0.4,1.3s-0.7,0.7-1.2,1s-1.1,0.3-1.8,0.3c-1.1,0-1.9-0.2-2.5-0.7
			C499.3,334.9,499,334.3,498.8,333.4z"/>
		<path d="M506.8,331.7c0-1.5,0.4-2.7,1.3-3.4c0.7-0.6,1.6-0.9,2.6-0.9c1.1,0,2.1,0.4,2.8,1.1c0.7,0.7,1.1,1.8,1.1,3.1
			c0,1.1-0.2,1.9-0.5,2.5c-0.3,0.6-0.8,1.1-1.4,1.4c-0.6,0.3-1.3,0.5-2,0.5c-1.2,0-2.1-0.4-2.8-1.1
			C507.2,334.2,506.8,333.1,506.8,331.7z M508.3,331.7c0,1.1,0.2,1.9,0.7,2.4c0.5,0.5,1,0.8,1.8,0.8c0.7,0,1.3-0.3,1.7-0.8
			c0.5-0.5,0.7-1.3,0.7-2.4c0-1-0.2-1.8-0.7-2.3c-0.5-0.5-1-0.8-1.7-0.8c-0.7,0-1.3,0.3-1.8,0.8
			C508.5,329.9,508.3,330.7,508.3,331.7z"/>
		<path d="M521.7,335.9v-1.2c-0.6,0.9-1.5,1.4-2.6,1.4c-0.5,0-0.9-0.1-1.4-0.3c-0.4-0.2-0.7-0.4-0.9-0.7c-0.2-0.3-0.4-0.6-0.4-1
			c-0.1-0.3-0.1-0.7-0.1-1.3v-5.1h1.4v4.6c0,0.7,0,1.2,0.1,1.5c0.1,0.4,0.3,0.7,0.6,0.9c0.3,0.2,0.6,0.3,1.1,0.3s0.8-0.1,1.2-0.3
			c0.4-0.2,0.6-0.5,0.8-0.9c0.2-0.4,0.2-0.9,0.2-1.6v-4.4h1.4v8.3H521.7z"/>
		<path d="M525.1,335.9v-8.3h1.3v1.3c0.3-0.6,0.6-1,0.9-1.2s0.6-0.3,0.9-0.3c0.5,0,1,0.2,1.4,0.5l-0.5,1.3c-0.3-0.2-0.7-0.3-1-0.3
			c-0.3,0-0.6,0.1-0.8,0.3c-0.2,0.2-0.4,0.4-0.5,0.8c-0.2,0.5-0.2,1-0.2,1.6v4.3H525.1z"/>
		<path d="M535.9,332.8l1.4,0.2c-0.2,1-0.5,1.7-1.2,2.2c-0.6,0.5-1.4,0.8-2.3,0.8c-1.1,0-2-0.4-2.7-1.1c-0.7-0.7-1-1.8-1-3.2
			c0-0.9,0.1-1.7,0.4-2.4s0.7-1.2,1.4-1.5c0.6-0.3,1.3-0.5,2-0.5c0.9,0,1.6,0.2,2.2,0.7c0.6,0.5,0.9,1.1,1.1,1.9l-1.4,0.2
			c-0.1-0.6-0.4-1-0.7-1.3c-0.3-0.3-0.7-0.4-1.2-0.4c-0.7,0-1.3,0.3-1.7,0.8c-0.4,0.5-0.7,1.3-0.7,2.4c0,1.1,0.2,1.9,0.6,2.4
			c0.4,0.5,1,0.8,1.7,0.8c0.6,0,1-0.2,1.4-0.5C535.6,334.1,535.8,333.5,535.9,332.8z"/>
		<path d="M544.2,333.2l1.5,0.2c-0.2,0.8-0.7,1.5-1.3,2c-0.6,0.5-1.4,0.7-2.4,0.7c-1.2,0-2.2-0.4-2.9-1.1c-0.7-0.7-1.1-1.8-1.1-3.1
			c0-1.4,0.4-2.5,1.1-3.2c0.7-0.8,1.7-1.2,2.8-1.2c1.1,0,2,0.4,2.7,1.1c0.7,0.8,1.1,1.8,1.1,3.2c0,0.1,0,0.2,0,0.4h-6.2
			c0.1,0.9,0.3,1.6,0.8,2.1c0.5,0.5,1,0.7,1.7,0.7c0.5,0,1-0.1,1.3-0.4C543.7,334.2,544,333.8,544.2,333.2z M539.6,330.9h4.6
			c-0.1-0.7-0.2-1.2-0.5-1.6c-0.4-0.5-1-0.8-1.7-0.8c-0.6,0-1.2,0.2-1.6,0.6C539.8,329.6,539.6,330.2,539.6,330.9z"/>
		<path d="M472.1,352.6l1.4-0.2c0.1,0.6,0.3,1,0.7,1.3c0.4,0.3,0.9,0.4,1.5,0.4c0.6,0,1.1-0.1,1.4-0.4c0.3-0.3,0.5-0.6,0.5-0.9
			c0-0.3-0.1-0.6-0.4-0.8c-0.2-0.1-0.7-0.3-1.4-0.5c-1-0.3-1.7-0.5-2.1-0.7c-0.4-0.2-0.7-0.5-0.9-0.8c-0.2-0.3-0.3-0.7-0.3-1.1
			c0-0.4,0.1-0.7,0.3-1c0.2-0.3,0.4-0.6,0.7-0.8c0.2-0.2,0.5-0.3,0.9-0.4c0.4-0.1,0.8-0.2,1.2-0.2c0.7,0,1.2,0.1,1.7,0.3
			s0.9,0.4,1.1,0.8s0.4,0.7,0.5,1.3l-1.4,0.2c-0.1-0.4-0.2-0.8-0.5-1c-0.3-0.2-0.7-0.4-1.3-0.4c-0.6,0-1.1,0.1-1.4,0.3
			c-0.3,0.2-0.4,0.5-0.4,0.8c0,0.2,0.1,0.3,0.2,0.5c0.1,0.2,0.3,0.3,0.5,0.4c0.1,0.1,0.6,0.2,1.2,0.4c1,0.3,1.7,0.5,2.1,0.7
			c0.4,0.2,0.7,0.4,0.9,0.7c0.2,0.3,0.3,0.7,0.3,1.2c0,0.5-0.1,0.9-0.4,1.3s-0.7,0.7-1.2,1s-1.1,0.3-1.8,0.3c-1.1,0-1.9-0.2-2.5-0.7
			C472.7,354.1,472.3,353.5,472.1,352.6z"/>
		<path d="M486.4,352.4l1.5,0.2c-0.2,0.8-0.7,1.5-1.3,2c-0.6,0.5-1.4,0.7-2.4,0.7c-1.2,0-2.2-0.4-2.9-1.1c-0.7-0.7-1.1-1.8-1.1-3.1
			c0-1.4,0.4-2.5,1.1-3.2c0.7-0.8,1.7-1.2,2.8-1.2c1.1,0,2,0.4,2.7,1.1c0.7,0.8,1.1,1.8,1.1,3.2c0,0.1,0,0.2,0,0.4h-6.2
			c0.1,0.9,0.3,1.6,0.8,2.1c0.5,0.5,1,0.7,1.7,0.7c0.5,0,1-0.1,1.3-0.4C485.9,353.4,486.2,353,486.4,352.4z M481.8,350.1h4.6
			c-0.1-0.7-0.2-1.2-0.5-1.6c-0.4-0.5-1-0.8-1.7-0.8c-0.6,0-1.2,0.2-1.6,0.6C482.1,348.8,481.8,349.4,481.8,350.1z"/>
		<path d="M489.6,355.1v-8.3h1.3v1.3c0.3-0.6,0.6-1,0.9-1.2s0.6-0.3,0.9-0.3c0.5,0,1,0.2,1.4,0.5l-0.5,1.3c-0.3-0.2-0.7-0.3-1-0.3
			c-0.3,0-0.6,0.1-0.8,0.3c-0.2,0.2-0.4,0.4-0.5,0.8c-0.2,0.5-0.2,1-0.2,1.6v4.3H489.6z"/>
		<path d="M497.2,355.1l-3.2-8.3h1.5l1.8,5c0.2,0.5,0.4,1.1,0.5,1.7c0.1-0.4,0.3-1,0.5-1.6l1.8-5.1h1.4l-3.1,8.3H497.2z"/>
		<path d="M508.6,352.4l1.5,0.2c-0.2,0.8-0.7,1.5-1.3,2c-0.6,0.5-1.4,0.7-2.4,0.7c-1.2,0-2.2-0.4-2.9-1.1c-0.7-0.7-1.1-1.8-1.1-3.1
			c0-1.4,0.4-2.5,1.1-3.2c0.7-0.8,1.7-1.2,2.8-1.2c1.1,0,2,0.4,2.7,1.1c0.7,0.8,1.1,1.8,1.1,3.2c0,0.1,0,0.2,0,0.4h-6.2
			c0.1,0.9,0.3,1.6,0.8,2.1c0.5,0.5,1,0.7,1.7,0.7c0.5,0,1-0.1,1.3-0.4C508.1,353.4,508.4,353,508.6,352.4z M504,350.1h4.6
			c-0.1-0.7-0.2-1.2-0.5-1.6c-0.4-0.5-1-0.8-1.7-0.8c-0.6,0-1.2,0.2-1.6,0.6C504.3,348.8,504,349.4,504,350.1z"/>
		<path d="M511.8,355.1v-8.3h1.3v1.3c0.3-0.6,0.6-1,0.9-1.2s0.6-0.3,0.9-0.3c0.5,0,1,0.2,1.4,0.5l-0.5,1.3c-0.3-0.2-0.7-0.3-1-0.3
			c-0.3,0-0.6,0.1-0.8,0.3c-0.2,0.2-0.4,0.4-0.5,0.8c-0.2,0.5-0.2,1-0.2,1.6v4.3H511.8z"/>
		<path d="M524.3,358.4c-0.8-1-1.4-2.1-2-3.4c-0.5-1.3-0.8-2.7-0.8-4.1c0-1.2,0.2-2.4,0.6-3.6c0.5-1.3,1.2-2.6,2.2-3.9h1
			c-0.6,1.1-1,1.9-1.2,2.3c-0.3,0.7-0.6,1.5-0.8,2.2c-0.2,1-0.3,2-0.3,2.9c0,2.5,0.8,5,2.3,7.5H524.3z"/>
		<path d="M525.8,355.1l4.4-11.5h1.6l4.7,11.5h-1.7l-1.3-3.5h-4.8l-1.3,3.5H525.8z M529.2,350.4h3.9l-1.2-3.2
			c-0.4-1-0.6-1.8-0.8-2.4c-0.1,0.7-0.4,1.5-0.6,2.2L529.2,350.4z"/>
		<path d="M537.8,355.1v-11.5h4.3c0.8,0,1.3,0,1.7,0.1c0.6,0.1,1,0.3,1.4,0.5c0.4,0.3,0.7,0.6,0.9,1.1c0.2,0.5,0.3,1,0.3,1.6
			c0,1-0.3,1.8-0.9,2.5c-0.6,0.7-1.7,1-3.4,1h-2.9v4.7H537.8z M539.3,349.1h3c1,0,1.7-0.2,2.1-0.5c0.4-0.4,0.6-0.9,0.6-1.5
			c0-0.5-0.1-0.9-0.4-1.2c-0.2-0.3-0.6-0.6-1-0.7c-0.3-0.1-0.7-0.1-1.4-0.1h-2.9V349.1z"/>
		<path d="M548.7,355.1v-11.5h1.5v11.5H548.7z"/>
		<path d="M553.6,358.4h-1c1.6-2.5,2.3-5,2.3-7.5c0-1-0.1-2-0.3-2.9c-0.2-0.8-0.4-1.5-0.7-2.2c-0.2-0.5-0.6-1.2-1.3-2.3h1
			c1,1.3,1.7,2.6,2.2,3.9c0.4,1.1,0.6,2.3,0.6,3.6c0,1.4-0.3,2.8-0.8,4.1S554.4,357.5,553.6,358.4z"/>
	</g>
	<g>
		<rect x="172.2" y="189.2" fill="none" width="84.7" height="17.3"/>
		<path d="M177.1,197c-0.4,0.3-0.8,0.6-1.1,0.7s-0.7,0.2-1.2,0.2c-0.7,0-1.2-0.2-1.6-0.5s-0.6-0.8-0.6-1.3c0-0.3,0.1-0.6,0.2-0.8
			s0.3-0.5,0.5-0.6s0.5-0.3,0.8-0.3c0.2-0.1,0.5-0.1,0.9-0.2c0.9-0.1,1.5-0.2,1.9-0.4c0-0.1,0-0.2,0-0.3c0-0.4-0.1-0.7-0.3-0.9
			c-0.3-0.2-0.7-0.4-1.2-0.4c-0.5,0-0.9,0.1-1.1,0.3s-0.4,0.5-0.5,0.9l-1-0.1c0.1-0.4,0.2-0.8,0.5-1.1s0.5-0.5,0.9-0.6
			s0.9-0.2,1.4-0.2c0.5,0,1,0.1,1.3,0.2s0.6,0.3,0.7,0.5s0.3,0.4,0.3,0.7c0,0.2,0.1,0.5,0.1,1v1.4c0,1,0,1.6,0.1,1.9
			s0.1,0.5,0.3,0.7h-1.1C177.2,197.6,177.1,197.3,177.1,197z M177,194.7c-0.4,0.2-1,0.3-1.7,0.4c-0.4,0.1-0.7,0.1-0.9,0.2
			s-0.3,0.2-0.4,0.3s-0.1,0.3-0.1,0.5c0,0.3,0.1,0.5,0.3,0.7s0.5,0.3,0.9,0.3c0.4,0,0.8-0.1,1.1-0.3s0.5-0.4,0.7-0.7
			c0.1-0.2,0.2-0.6,0.2-1.1V194.7z"/>
		<path d="M183.7,195.5l1,0.1c-0.1,0.7-0.4,1.3-0.9,1.7s-1,0.6-1.7,0.6c-0.9,0-1.5-0.3-2.1-0.8s-0.8-1.4-0.8-2.4
			c0-0.7,0.1-1.3,0.3-1.8s0.6-0.9,1-1.1s1-0.4,1.5-0.4c0.7,0,1.2,0.2,1.7,0.5s0.7,0.8,0.8,1.5l-1,0.2c-0.1-0.4-0.3-0.7-0.5-0.9
			s-0.5-0.3-0.9-0.3c-0.5,0-1,0.2-1.3,0.6s-0.5,1-0.5,1.8c0,0.8,0.2,1.4,0.5,1.8s0.7,0.6,1.3,0.6c0.4,0,0.8-0.1,1-0.4
			S183.7,196.1,183.7,195.5z"/>
		<path d="M189.7,195.5l1,0.1c-0.1,0.7-0.4,1.3-0.9,1.7s-1,0.6-1.7,0.6c-0.9,0-1.5-0.3-2.1-0.8s-0.8-1.4-0.8-2.4
			c0-0.7,0.1-1.3,0.3-1.8s0.6-0.9,1-1.1s1-0.4,1.5-0.4c0.7,0,1.2,0.2,1.7,0.5s0.7,0.8,0.8,1.5l-1,0.2c-0.1-0.4-0.3-0.7-0.5-0.9
			s-0.5-0.3-0.9-0.3c-0.5,0-1,0.2-1.3,0.6s-0.5,1-0.5,1.8c0,0.8,0.2,1.4,0.5,1.8s0.7,0.6,1.3,0.6c0.4,0,0.8-0.1,1-0.4
			S189.7,196.1,189.7,195.5z"/>
		<path d="M195.9,195.8l1.1,0.1c-0.2,0.6-0.5,1.1-1,1.5s-1.1,0.5-1.8,0.5c-0.9,0-1.6-0.3-2.2-0.8s-0.8-1.3-0.8-2.4
			c0-1,0.3-1.9,0.8-2.4s1.2-0.9,2.1-0.9c0.8,0,1.5,0.3,2,0.8s0.8,1.4,0.8,2.4c0,0.1,0,0.2,0,0.3h-4.6c0,0.7,0.2,1.2,0.6,1.6
			s0.8,0.5,1.3,0.5c0.4,0,0.7-0.1,1-0.3S195.8,196.2,195.9,195.8z M192.5,194.1h3.5c0-0.5-0.2-0.9-0.4-1.2c-0.3-0.4-0.8-0.6-1.3-0.6
			c-0.5,0-0.9,0.2-1.2,0.5S192.5,193.6,192.5,194.1z"/>
		<path d="M197.9,195.9l1-0.2c0.1,0.4,0.2,0.7,0.5,1s0.6,0.3,1.1,0.3c0.5,0,0.8-0.1,1.1-0.3s0.4-0.4,0.4-0.7c0-0.2-0.1-0.4-0.3-0.6
			c-0.1-0.1-0.5-0.2-1.1-0.4c-0.8-0.2-1.3-0.4-1.6-0.5s-0.5-0.3-0.7-0.6s-0.2-0.5-0.2-0.8c0-0.3,0.1-0.5,0.2-0.8s0.3-0.4,0.5-0.6
			c0.2-0.1,0.4-0.2,0.7-0.3s0.6-0.1,0.9-0.1c0.5,0,0.9,0.1,1.3,0.2s0.6,0.3,0.8,0.6s0.3,0.6,0.4,1l-1,0.1c0-0.3-0.2-0.6-0.4-0.8
			s-0.5-0.3-1-0.3c-0.5,0-0.8,0.1-1,0.2s-0.3,0.3-0.3,0.6c0,0.1,0,0.3,0.1,0.4c0.1,0.1,0.2,0.2,0.4,0.3c0.1,0,0.4,0.1,0.9,0.3
			c0.7,0.2,1.3,0.4,1.6,0.5s0.5,0.3,0.7,0.6s0.3,0.5,0.3,0.9c0,0.4-0.1,0.7-0.3,1s-0.5,0.6-0.9,0.7s-0.8,0.3-1.3,0.3
			c-0.8,0-1.4-0.2-1.8-0.5S198.1,196.6,197.9,195.9z"/>
		<path d="M203.9,195.9l1-0.2c0.1,0.4,0.2,0.7,0.5,1s0.6,0.3,1.1,0.3c0.5,0,0.8-0.1,1.1-0.3s0.4-0.4,0.4-0.7c0-0.2-0.1-0.4-0.3-0.6
			c-0.1-0.1-0.5-0.2-1.1-0.4c-0.8-0.2-1.3-0.4-1.6-0.5s-0.5-0.3-0.7-0.6s-0.2-0.5-0.2-0.8c0-0.3,0.1-0.5,0.2-0.8s0.3-0.4,0.5-0.6
			c0.2-0.1,0.4-0.2,0.7-0.3s0.6-0.1,0.9-0.1c0.5,0,0.9,0.1,1.3,0.2s0.6,0.3,0.8,0.6s0.3,0.6,0.4,1l-1,0.1c0-0.3-0.2-0.6-0.4-0.8
			s-0.5-0.3-1-0.3c-0.5,0-0.8,0.1-1,0.2s-0.3,0.3-0.3,0.6c0,0.1,0,0.3,0.1,0.4c0.1,0.1,0.2,0.2,0.4,0.3c0.1,0,0.4,0.1,0.9,0.3
			c0.7,0.2,1.3,0.4,1.6,0.5s0.5,0.3,0.7,0.6s0.3,0.5,0.3,0.9c0,0.4-0.1,0.7-0.3,1s-0.5,0.6-0.9,0.7s-0.8,0.3-1.3,0.3
			c-0.8,0-1.4-0.2-1.8-0.5S204.1,196.6,203.9,195.9z"/>
		<path d="M216,196.9l0.2,0.9c-0.3,0.1-0.6,0.1-0.8,0.1c-0.4,0-0.7-0.1-0.9-0.2s-0.4-0.3-0.4-0.5s-0.1-0.6-0.1-1.2v-3.6h-0.8v-0.8
			h0.8V190l1-0.6v2.2h1.1v0.8h-1.1v3.6c0,0.3,0,0.5,0.1,0.6s0.1,0.2,0.2,0.2s0.2,0.1,0.4,0.1C215.7,196.9,215.8,196.9,216,196.9z"/>
		<path d="M216.6,194.7c0-1.2,0.3-2,1-2.6c0.5-0.5,1.2-0.7,2-0.7c0.9,0,1.6,0.3,2.1,0.8s0.8,1.3,0.8,2.3c0,0.8-0.1,1.4-0.4,1.9
			s-0.6,0.8-1,1.1s-1,0.4-1.5,0.4c-0.9,0-1.6-0.3-2.1-0.8S216.6,195.7,216.6,194.7z M217.7,194.7c0,0.8,0.2,1.4,0.5,1.8
			s0.8,0.6,1.3,0.6c0.5,0,1-0.2,1.3-0.6s0.5-1,0.5-1.8c0-0.8-0.2-1.4-0.5-1.7s-0.8-0.6-1.3-0.6c-0.5,0-1,0.2-1.3,0.6
			S217.7,193.9,217.7,194.7z"/>
		<path d="M223.7,197.8v-8.6h1.1v4.9l2.5-2.5h1.4l-2.4,2.3l2.6,3.9h-1.3l-2.1-3.2l-0.7,0.7v2.5H223.7z"/>
		<path d="M234,195.8l1.1,0.1c-0.2,0.6-0.5,1.1-1,1.5s-1.1,0.5-1.8,0.5c-0.9,0-1.6-0.3-2.2-0.8s-0.8-1.3-0.8-2.4
			c0-1,0.3-1.9,0.8-2.4s1.2-0.9,2.1-0.9c0.8,0,1.5,0.3,2,0.8s0.8,1.4,0.8,2.4c0,0.1,0,0.2,0,0.3h-4.6c0,0.7,0.2,1.2,0.6,1.6
			s0.8,0.5,1.3,0.5c0.4,0,0.7-0.1,1-0.3S233.8,196.2,234,195.8z M230.5,194.1h3.5c0-0.5-0.2-0.9-0.4-1.2c-0.3-0.4-0.8-0.6-1.3-0.6
			c-0.5,0-0.9,0.2-1.2,0.5S230.5,193.6,230.5,194.1z"/>
		<path d="M236.4,197.8v-6.2h0.9v0.9c0.5-0.7,1.1-1,2-1c0.4,0,0.7,0.1,1,0.2s0.5,0.3,0.7,0.5s0.3,0.5,0.3,0.8c0,0.2,0.1,0.5,0.1,1
			v3.8h-1.1V194c0-0.4,0-0.8-0.1-1s-0.2-0.4-0.4-0.5s-0.5-0.2-0.7-0.2c-0.4,0-0.8,0.1-1.2,0.4s-0.5,0.8-0.5,1.6v3.4H236.4z"/>
	</g>
	<path d="M315.6,96.8c-1.3,0.6-2.9-0.1-3.4-1.4c-0.6-1.3,0.1-2.9,1.4-3.4c1.3-0.6,2.9,0.1,3.4,1.4C317.6,94.7,316.9,96.3,315.6,96.8
		z M319.7,90.9l-0.9,0.4c-0.3-0.4-0.7-0.7-1-1l0.4-0.9c0.1-0.3,0-0.6-0.3-0.7l-1.5-0.6c-0.3-0.1-0.6,0-0.7,0.3l-0.4,0.9
		c-0.5-0.1-1-0.1-1.5,0l-0.4-0.9c-0.1-0.3-0.4-0.4-0.7-0.3l-1.5,0.6c-0.3,0.1-0.4,0.4-0.3,0.7l0.4,0.9c-0.4,0.3-0.7,0.7-1,1
		l-0.9-0.4c-0.3-0.1-0.6,0-0.7,0.3l-0.6,1.5c-0.1,0.3,0,0.6,0.3,0.7l0.9,0.4c-0.1,0.5-0.1,1,0,1.5l-0.9,0.4
		c-0.3,0.1-0.4,0.4-0.3,0.7l0.6,1.5c0.1,0.3,0.4,0.4,0.7,0.3l0.9-0.4c0.3,0.4,0.7,0.7,1,1l-0.4,0.9c-0.1,0.3,0,0.6,0.3,0.7l1.5,0.6
		c0.3,0.1,0.6,0,0.7-0.3l0.4-0.9c0.5,0.1,1,0.1,1.5,0l0.4,0.9c0.1,0.3,0.4,0.4,0.7,0.3l1.5-0.6c0.3-0.1,0.4-0.4,0.3-0.7l-0.4-0.9
		c0.4-0.3,0.7-0.7,1-1l0.9,0.4c0.3,0.1,0.6,0,0.7-0.3l0.6-1.5c0.1-0.3,0-0.6-0.3-0.7l-0.9-0.4c0.1-0.5,0.1-1,0-1.5l0.9-0.4
		c0.3-0.1,0.4-0.4,0.3-0.7l-0.6-1.5C320.2,90.9,319.9,90.7,319.7,90.9z"/>
	<path d="M303.4,118.8c-1,0-1.8-0.8-1.8-1.8s0.8-1.8,1.8-1.8c1,0,1.8,0.8,1.8,1.8S304.4,118.8,303.4,118.8z M301.8,80.9h3.5
		c0.2,0,0.4,0.2,0.4,0.4s-0.2,0.4-0.4,0.4h-3.5c-0.2,0-0.4-0.2-0.4-0.4S301.6,80.9,301.8,80.9z M313.2,102.2v11.6h-19.3V84.4h19.3
		v2.1h2.2v-6.1c0-1.9-1.6-3.5-3.5-3.5h-16.7c-1.9,0-3.5,1.6-3.5,3.5v36.9c0,1.9,1.6,3.5,3.5,3.5h16.7c1.9,0,3.5-1.6,3.5-3.5v-15.2
		H313.2z"/>
	<rect x="279" y="88.2" width="10.5" height="2.2"/>
	<rect x="281.6" y="92.6" width="7.9" height="2.2"/>
	<rect x="286.9" y="97" width="2.6" height="2.2"/>
	<g>
		<path d="M138.8,139.5c-0.3,0.4-0.5,0.8-0.8,1c-0.3,0.3-0.6,0.4-1,0.6c-0.6,0.2-1.2,0.3-1.7,0.1c-0.5-0.2-0.8-0.5-1-1
			c-0.1-0.3-0.1-0.6-0.1-0.9s0.1-0.5,0.3-0.8c0.2-0.2,0.4-0.4,0.6-0.6c0.2-0.1,0.5-0.3,0.8-0.5c0.8-0.4,1.3-0.7,1.6-1
			c0-0.1-0.1-0.2-0.1-0.3c-0.1-0.4-0.3-0.7-0.6-0.8c-0.3-0.1-0.8-0.1-1.3,0.1c-0.5,0.2-0.8,0.4-0.9,0.6c-0.2,0.2-0.2,0.6-0.2,1
			l-1,0.2c-0.1-0.4,0-0.8,0.1-1.2c0.1-0.3,0.3-0.6,0.7-0.9s0.8-0.5,1.3-0.7c0.5-0.2,0.9-0.3,1.3-0.3c0.4,0,0.6,0.1,0.8,0.2
			c0.2,0.1,0.4,0.3,0.6,0.6c0.1,0.2,0.2,0.5,0.4,0.9l0.5,1.3c0.3,0.9,0.6,1.5,0.7,1.7c0.1,0.2,0.3,0.4,0.5,0.6l-1,0.4
			C139.1,139.9,139,139.7,138.8,139.5z M137.9,137.3c-0.3,0.3-0.8,0.6-1.5,1c-0.4,0.2-0.7,0.4-0.8,0.5c-0.1,0.1-0.2,0.3-0.3,0.5
			s0,0.3,0,0.5c0.1,0.3,0.3,0.4,0.5,0.6c0.3,0.1,0.6,0.1,1-0.1c0.4-0.1,0.7-0.3,0.9-0.6s0.4-0.6,0.4-0.9c0-0.3,0-0.6-0.2-1
			L137.9,137.3z"/>
		<path d="M142.4,141.5l-2.9-8.1l0.9-0.3l0.3,0.8c0.1-0.4,0.3-0.7,0.5-0.9s0.5-0.4,0.9-0.6c0.5-0.2,1-0.2,1.5-0.1
			c0.5,0.1,0.9,0.4,1.3,0.8c0.4,0.4,0.6,0.9,0.8,1.4c0.2,0.6,0.3,1.2,0.3,1.7c0,0.6-0.2,1-0.5,1.4s-0.7,0.7-1.2,0.8
			c-0.3,0.1-0.7,0.2-1,0.1c-0.3,0-0.6-0.1-0.8-0.3l1,2.8L142.4,141.5z M141.4,136.1c0.3,0.8,0.6,1.3,1.1,1.5
			c0.4,0.3,0.9,0.3,1.3,0.1c0.4-0.2,0.8-0.5,0.9-1s0.1-1.1-0.2-1.9c-0.3-0.7-0.6-1.2-1.1-1.5s-0.9-0.3-1.3-0.2
			c-0.4,0.2-0.7,0.5-0.9,1C141.1,134.7,141.1,135.3,141.4,136.1z"/>
		<path d="M148.6,139.3l-2.9-8.1l0.9-0.3l0.3,0.8c0.1-0.4,0.3-0.7,0.5-0.9c0.2-0.2,0.5-0.4,0.9-0.6c0.5-0.2,1-0.2,1.5-0.1
			c0.5,0.1,0.9,0.4,1.3,0.8c0.4,0.4,0.6,0.9,0.8,1.4c0.2,0.6,0.3,1.2,0.3,1.7c0,0.6-0.2,1-0.5,1.4s-0.7,0.7-1.2,0.8
			c-0.3,0.1-0.7,0.2-1,0.1c-0.3,0-0.6-0.1-0.8-0.3l1,2.8L148.6,139.3z M147.7,133.8c0.3,0.8,0.6,1.3,1.1,1.5
			c0.4,0.2,0.9,0.3,1.3,0.1c0.4-0.2,0.8-0.5,0.9-1c0.2-0.5,0.1-1.1-0.2-1.9c-0.3-0.7-0.6-1.2-1.1-1.5c-0.4-0.3-0.9-0.3-1.3-0.2
			c-0.4,0.2-0.7,0.5-0.9,1S147.4,133.1,147.7,133.8z"/>
		<path d="M154.1,134.8l-2.9-8.1l1-0.4l2.9,8.1L154.1,134.8z"/>
		<path d="M154.1,126.9l-0.4-1.1l1-0.4l0.4,1.1L154.1,126.9z M156.6,133.9l-2.1-5.9l1-0.4l2.1,5.9L156.6,133.9z"/>
		<path d="M162.2,129.4l1-0.2c0.1,0.7,0.1,1.3-0.2,1.9c-0.3,0.5-0.8,0.9-1.4,1.2c-0.8,0.3-1.5,0.3-2.2-0.1s-1.2-1-1.5-2
			c-0.2-0.6-0.3-1.2-0.3-1.8c0-0.5,0.2-1,0.6-1.4s0.8-0.7,1.3-0.9c0.6-0.2,1.2-0.3,1.7-0.1c0.5,0.2,0.9,0.5,1.3,1.1l-0.9,0.5
			c-0.2-0.4-0.5-0.6-0.8-0.7c-0.3-0.1-0.6-0.1-1,0c-0.5,0.2-0.8,0.5-1,1c-0.2,0.5-0.1,1.1,0.1,1.9c0.3,0.8,0.6,1.3,1.1,1.6
			c0.4,0.2,0.9,0.3,1.4,0.1c0.4-0.1,0.7-0.4,0.8-0.7S162.3,130,162.2,129.4z"/>
		<path d="M168.3,128.8c-0.3,0.4-0.5,0.8-0.8,1s-0.6,0.4-1,0.6c-0.6,0.2-1.2,0.3-1.7,0.1c-0.5-0.2-0.8-0.5-1-1
			c-0.1-0.3-0.1-0.6-0.1-0.9c0-0.3,0.1-0.5,0.3-0.8c0.2-0.2,0.4-0.4,0.6-0.6c0.2-0.1,0.5-0.3,0.8-0.5c0.8-0.4,1.3-0.7,1.6-1
			c0-0.1-0.1-0.2-0.1-0.3c-0.1-0.4-0.3-0.7-0.6-0.8c-0.3-0.1-0.8-0.1-1.3,0.1c-0.5,0.2-0.8,0.4-0.9,0.6c-0.2,0.2-0.2,0.6-0.2,1
			l-1,0.2c-0.1-0.4,0-0.8,0.1-1.2c0.1-0.3,0.3-0.6,0.7-0.9c0.3-0.3,0.8-0.5,1.3-0.7c0.5-0.2,0.9-0.3,1.3-0.3s0.6,0.1,0.8,0.2
			s0.4,0.3,0.6,0.6c0.1,0.2,0.2,0.5,0.4,0.9l0.5,1.3c0.3,0.9,0.6,1.5,0.7,1.7c0.1,0.2,0.3,0.4,0.5,0.6l-1,0.4
			C168.6,129.3,168.5,129.1,168.3,128.8z M167.4,126.6c-0.3,0.3-0.8,0.6-1.5,1c-0.4,0.2-0.7,0.4-0.8,0.5c-0.1,0.1-0.2,0.3-0.3,0.5
			s0,0.3,0,0.5c0.1,0.3,0.3,0.4,0.5,0.6c0.3,0.1,0.6,0.1,1-0.1c0.4-0.1,0.7-0.3,0.9-0.6s0.4-0.6,0.4-0.9c0-0.3,0-0.6-0.2-1
			L167.4,126.6z"/>
		<path d="M172.9,127l0.5,0.8c-0.3,0.2-0.5,0.3-0.7,0.4c-0.4,0.1-0.7,0.2-0.9,0.1s-0.4-0.1-0.6-0.3c-0.1-0.2-0.3-0.5-0.5-1.1
			l-1.2-3.4l-0.7,0.3l-0.3-0.8l0.7-0.3l-0.5-1.4l0.8-1l0.7,2l1-0.4l0.3,0.8l-1,0.4l1.2,3.4c0.1,0.3,0.2,0.5,0.2,0.5
			c0.1,0.1,0.1,0.1,0.2,0.1c0.1,0,0.2,0,0.4-0.1C172.6,127.1,172.7,127.1,172.9,127z"/>
		<path d="M171.7,120.6l-0.4-1.1l1-0.4l0.4,1.1L171.7,120.6z M174.2,127.5l-2.1-5.9l1-0.4l2.1,5.9L174.2,127.5z"/>
		<path d="M175.3,123.8c-0.4-1.1-0.4-2,0-2.7c0.3-0.6,0.9-1.1,1.6-1.3c0.8-0.3,1.6-0.3,2.3,0.1c0.7,0.3,1.2,1,1.6,1.9
			c0.3,0.8,0.4,1.4,0.3,1.9c-0.1,0.5-0.3,1-0.6,1.4s-0.8,0.7-1.3,0.9c-0.8,0.3-1.6,0.3-2.3-0.1C176.1,125.5,175.6,124.8,175.3,123.8
			z M176.3,123.5c0.3,0.8,0.6,1.3,1.1,1.5c0.5,0.3,0.9,0.3,1.4,0.1c0.5-0.2,0.8-0.5,1-1c0.2-0.5,0.1-1.1-0.1-1.9
			c-0.3-0.7-0.6-1.2-1.1-1.5c-0.5-0.3-0.9-0.3-1.4-0.1c-0.5,0.2-0.8,0.5-1,1C176,122.1,176,122.7,176.3,123.5z"/>
		<path d="M183,124.4l-2.1-5.9l0.9-0.3l0.3,0.8c0.2-0.8,0.7-1.3,1.5-1.6c0.4-0.1,0.7-0.2,1-0.2c0.3,0,0.6,0.1,0.8,0.3
			c0.2,0.2,0.4,0.4,0.6,0.6c0.1,0.2,0.2,0.5,0.4,0.9l1.3,3.6l-1,0.4l-1.3-3.6c-0.1-0.4-0.3-0.7-0.4-0.9c-0.2-0.2-0.3-0.3-0.6-0.3
			c-0.2,0-0.5,0-0.8,0.1c-0.4,0.2-0.7,0.4-0.9,0.8s-0.2,0.9,0.1,1.7l1.2,3.2L183,124.4z"/>
		<path d="M192.4,121l-2.9-8.1l1-0.4l1.7,4.6l1.5-3.2l1.3-0.5l-1.5,3l3.8,2.8l-1.2,0.4l-3-2.3l-0.5,0.9l0.8,2.3L192.4,121z"/>
		<path d="M201.3,115.6l1.1-0.2c0.1,0.7-0.1,1.2-0.4,1.7s-0.8,0.9-1.5,1.1c-0.9,0.3-1.6,0.3-2.3-0.1c-0.7-0.3-1.2-1-1.6-1.9
			c-0.4-1-0.4-1.8-0.1-2.6c0.3-0.7,0.9-1.2,1.7-1.5c0.8-0.3,1.5-0.2,2.2,0.1c0.7,0.4,1.2,1,1.6,2c0,0.1,0.1,0.1,0.1,0.3l-4.4,1.6
			c0.3,0.6,0.6,1.1,1.1,1.3s0.9,0.2,1.4,0.1c0.4-0.1,0.6-0.3,0.8-0.6C201.3,116.4,201.3,116.1,201.3,115.6z M197.5,115.2l3.3-1.2
			c-0.2-0.5-0.5-0.8-0.8-1c-0.5-0.3-0.9-0.3-1.4-0.1c-0.5,0.2-0.8,0.5-1,0.9C197.4,114.2,197.4,114.6,197.5,115.2z"/>
		<path d="M205.1,118.9l-0.4-0.9c0.2,0,0.4-0.1,0.6-0.1c0.2-0.1,0.4-0.2,0.5-0.3c0.1-0.1,0.2-0.3,0.2-0.4c0-0.1,0-0.4,0-0.8
			c0-0.1,0-0.2,0-0.3l-4.3-5.1l1.1-0.4l2.4,3c0.3,0.4,0.6,0.8,0.9,1.2c0-0.5-0.1-1-0.1-1.5l0-3.9l1-0.4l-0.1,6.8
			c0,0.7,0,1.2-0.1,1.5c-0.1,0.4-0.2,0.7-0.3,0.9c-0.2,0.2-0.4,0.4-0.7,0.5C205.6,118.9,205.3,118.9,205.1,118.9z"/>
		<path d="M214.7,111.4l-0.8-2.2l-2.2,0.8l-0.3-0.9l2.2-0.8l-0.8-2.2l0.9-0.3l0.8,2.2l2.2-0.8l0.3,0.9l-2.2,0.8l0.8,2.2L214.7,111.4
			z"/>
		<path d="M221.8,108.4l0.9-0.5c0.2,0.4,0.5,0.6,0.8,0.7c0.3,0.1,0.7,0.1,1.2-0.1c0.5-0.2,0.8-0.4,0.9-0.6c0.2-0.3,0.2-0.5,0.1-0.8
			c-0.1-0.2-0.2-0.4-0.5-0.4c-0.2,0-0.5,0-1.1,0c-0.8,0.1-1.4,0.1-1.7,0.1c-0.3,0-0.6-0.1-0.8-0.3c-0.2-0.2-0.4-0.4-0.5-0.7
			c-0.1-0.3-0.1-0.5-0.1-0.8c0-0.3,0.1-0.5,0.3-0.7c0.1-0.2,0.3-0.3,0.5-0.5c0.2-0.2,0.5-0.3,0.8-0.4c0.5-0.2,0.9-0.2,1.3-0.2
			c0.4,0,0.7,0.1,1,0.3c0.2,0.2,0.5,0.4,0.7,0.8l-0.9,0.5c-0.2-0.3-0.4-0.5-0.6-0.6c-0.3-0.1-0.6-0.1-1,0.1
			c-0.5,0.2-0.8,0.4-0.9,0.6c-0.1,0.2-0.2,0.4-0.1,0.6c0,0.1,0.1,0.2,0.2,0.3c0.1,0.1,0.3,0.1,0.5,0.1c0.1,0,0.4,0,1-0.1
			c0.8-0.1,1.3-0.1,1.6-0.1c0.3,0,0.6,0.1,0.8,0.3c0.2,0.2,0.4,0.4,0.5,0.8c0.1,0.3,0.1,0.7,0,1c-0.1,0.4-0.3,0.7-0.6,1
			c-0.3,0.3-0.7,0.5-1.1,0.7c-0.8,0.3-1.4,0.3-1.9,0.2S222.1,109,221.8,108.4z"/>
		<path d="M231.8,104.6l1.1-0.2c0.1,0.7-0.1,1.2-0.4,1.7c-0.3,0.5-0.8,0.9-1.5,1.1c-0.9,0.3-1.6,0.3-2.3-0.1c-0.7-0.3-1.2-1-1.6-1.9
			c-0.4-1-0.4-1.8-0.1-2.6c0.3-0.7,0.9-1.2,1.7-1.5c0.8-0.3,1.5-0.2,2.2,0.1s1.2,1,1.6,2c0,0.1,0.1,0.1,0.1,0.3l-4.4,1.6
			c0.3,0.6,0.6,1.1,1.1,1.3c0.5,0.2,0.9,0.2,1.4,0.1c0.4-0.1,0.6-0.3,0.8-0.6C231.7,105.5,231.8,105.1,231.8,104.6z M227.9,104.2
			l3.3-1.2c-0.2-0.5-0.5-0.8-0.8-1c-0.5-0.3-0.9-0.3-1.4-0.1c-0.5,0.2-0.8,0.5-1,0.9C227.8,103.2,227.8,103.7,227.9,104.2z"/>
		<path d="M237.8,102.2l1-0.2c0.1,0.7,0.1,1.3-0.2,1.9c-0.3,0.5-0.8,0.9-1.4,1.2c-0.8,0.3-1.5,0.3-2.2-0.1c-0.7-0.3-1.2-1-1.5-2
			c-0.2-0.6-0.3-1.2-0.3-1.8c0-0.5,0.2-1,0.6-1.4c0.3-0.4,0.8-0.7,1.3-0.9c0.6-0.2,1.2-0.3,1.7-0.1s0.9,0.5,1.3,1.1l-0.9,0.5
			c-0.2-0.4-0.5-0.6-0.8-0.7c-0.3-0.1-0.6-0.1-1,0c-0.5,0.2-0.8,0.5-1,1c-0.2,0.5-0.1,1.1,0.1,1.9c0.3,0.8,0.6,1.3,1.1,1.6
			c0.4,0.2,0.9,0.3,1.4,0.1c0.4-0.1,0.7-0.4,0.8-0.7C237.9,103.1,237.9,102.7,237.8,102.2z"/>
		<path d="M240.4,103.6l-2.1-5.9l0.9-0.3l0.3,0.9c0.1-0.5,0.2-0.8,0.3-1c0.1-0.2,0.3-0.3,0.6-0.4c0.3-0.1,0.7-0.1,1.1,0l0,1
			c-0.3-0.1-0.6,0-0.8,0c-0.2,0.1-0.4,0.2-0.5,0.4c-0.1,0.2-0.2,0.4-0.2,0.7c0,0.4,0.1,0.8,0.3,1.2l1.1,3.1L240.4,103.6z"/>
		<path d="M247.5,99l1.1-0.2c0.1,0.7-0.1,1.2-0.4,1.7c-0.3,0.5-0.8,0.9-1.5,1.1c-0.9,0.3-1.6,0.3-2.3-0.1c-0.7-0.3-1.2-1-1.6-1.9
			c-0.4-1-0.4-1.8-0.1-2.6c0.3-0.7,0.9-1.2,1.7-1.5c0.8-0.3,1.5-0.2,2.2,0.1c0.7,0.4,1.2,1,1.6,2c0,0.1,0.1,0.1,0.1,0.3l-4.4,1.6
			c0.3,0.6,0.6,1.1,1.1,1.3s0.9,0.2,1.4,0.1c0.4-0.1,0.6-0.3,0.8-0.6C247.4,99.8,247.5,99.4,247.5,99z M243.6,98.5l3.3-1.2
			c-0.2-0.5-0.5-0.8-0.8-1c-0.5-0.3-0.9-0.3-1.4-0.1c-0.5,0.2-0.8,0.5-1,0.9S243.5,98,243.6,98.5z"/>
		<path d="M252.3,98.3l0.5,0.8c-0.3,0.2-0.5,0.3-0.7,0.4c-0.4,0.1-0.7,0.2-0.9,0.1s-0.4-0.1-0.6-0.3c-0.1-0.2-0.3-0.5-0.5-1.1
			l-1.2-3.4l-0.7,0.3l-0.3-0.8l0.7-0.3l-0.5-1.4l0.8-1l0.7,2l1-0.4l0.3,0.8l-1,0.4l1.2,3.4c0.1,0.3,0.2,0.5,0.2,0.5
			c0.1,0.1,0.1,0.1,0.2,0.1c0.1,0,0.2,0,0.4-0.1C251.9,98.5,252.1,98.4,252.3,98.3z"/>
	</g>
	<g>
		<path d="M70.3,240.3v-8.6h1.1v8.6H70.3z"/>
		<path d="M72.6,237.1c0-1.2,0.3-2,1-2.6c0.5-0.5,1.2-0.7,2-0.7c0.9,0,1.6,0.3,2.1,0.8s0.8,1.3,0.8,2.3c0,0.8-0.1,1.4-0.4,1.9
			s-0.6,0.8-1,1.1s-1,0.4-1.5,0.4c-0.9,0-1.6-0.3-2.1-0.8S72.6,238.2,72.6,237.1z M73.7,237.1c0,0.8,0.2,1.4,0.5,1.8
			s0.8,0.6,1.3,0.6c0.5,0,1-0.2,1.3-0.6s0.5-1,0.5-1.8c0-0.8-0.2-1.4-0.5-1.7s-0.8-0.6-1.3-0.6c-0.5,0-1,0.2-1.3,0.6
			S73.7,236.3,73.7,237.1z"/>
		<path d="M79.5,240.8l1,0.2c0,0.3,0.2,0.5,0.4,0.7c0.3,0.2,0.6,0.3,1.1,0.3c0.5,0,0.9-0.1,1.1-0.3s0.4-0.5,0.5-0.8
			c0.1-0.2,0.1-0.7,0.1-1.4c-0.5,0.5-1,0.8-1.7,0.8c-0.9,0-1.5-0.3-2-0.9s-0.7-1.4-0.7-2.2c0-0.6,0.1-1.1,0.3-1.6s0.5-0.9,0.9-1.2
			s0.9-0.4,1.4-0.4c0.7,0,1.3,0.3,1.8,0.9V234h1v5.4c0,1-0.1,1.7-0.3,2.1s-0.5,0.7-0.9,1s-1,0.4-1.6,0.4c-0.7,0-1.3-0.2-1.8-0.5
			S79.4,241.4,79.5,240.8z M80.3,237c0,0.8,0.2,1.4,0.5,1.8s0.7,0.6,1.2,0.6c0.5,0,0.9-0.2,1.2-0.6s0.5-1,0.5-1.8
			c0-0.8-0.2-1.3-0.5-1.7s-0.7-0.6-1.2-0.6c-0.5,0-0.9,0.2-1.2,0.6S80.3,236.3,80.3,237z"/>
		<path d="M86.3,232.9v-1.2h1.1v1.2H86.3z M86.3,240.3V234h1.1v6.2H86.3z"/>
		<path d="M89,240.3V234h0.9v0.9c0.5-0.7,1.1-1,2-1c0.4,0,0.7,0.1,1,0.2s0.5,0.3,0.7,0.5s0.3,0.5,0.3,0.8c0,0.2,0.1,0.5,0.1,1v3.8
			H93v-3.8c0-0.4,0-0.8-0.1-1s-0.2-0.4-0.4-0.5s-0.5-0.2-0.7-0.2c-0.4,0-0.8,0.1-1.2,0.4s-0.5,0.8-0.5,1.6v3.4H89z"/>
	</g>
	<g>
		<path d="M290.2,144.9l4.4-11.5h1.6l4.7,11.5h-1.7l-1.3-3.5h-4.8l-1.3,3.5H290.2z M293.5,140.2h3.9l-1.2-3.2
			c-0.4-1-0.6-1.8-0.8-2.4c-0.1,0.7-0.4,1.5-0.6,2.2L293.5,140.2z"/>
		<path d="M301.9,148.1v-11.5h1.3v1.1c0.3-0.4,0.6-0.7,1-0.9c0.4-0.2,0.8-0.3,1.4-0.3c0.7,0,1.3,0.2,1.9,0.5c0.5,0.4,1,0.9,1.2,1.5
			c0.3,0.7,0.4,1.4,0.4,2.2c0,0.8-0.2,1.6-0.5,2.3s-0.7,1.2-1.3,1.6c-0.6,0.4-1.2,0.5-1.8,0.5c-0.5,0-0.9-0.1-1.3-0.3
			c-0.4-0.2-0.7-0.4-0.9-0.8v4H301.9z M303.2,140.8c0,1.1,0.2,1.9,0.6,2.4c0.4,0.5,1,0.8,1.6,0.8c0.6,0,1.2-0.3,1.6-0.8
			s0.7-1.3,0.7-2.5c0-1.1-0.2-1.8-0.7-2.4c-0.4-0.5-1-0.8-1.6-0.8c-0.6,0-1.1,0.3-1.6,0.8S303.2,139.7,303.2,140.8z"/>
		<path d="M310.8,148.1v-11.5h1.3v1.1c0.3-0.4,0.6-0.7,1-0.9c0.4-0.2,0.8-0.3,1.4-0.3c0.7,0,1.3,0.2,1.9,0.5c0.5,0.4,1,0.9,1.2,1.5
			c0.3,0.7,0.4,1.4,0.4,2.2c0,0.8-0.2,1.6-0.5,2.3s-0.7,1.2-1.3,1.6c-0.6,0.4-1.2,0.5-1.8,0.5c-0.5,0-0.9-0.1-1.3-0.3
			c-0.4-0.2-0.7-0.4-0.9-0.8v4H310.8z M312.1,140.8c0,1.1,0.2,1.9,0.6,2.4c0.4,0.5,1,0.8,1.6,0.8c0.6,0,1.2-0.3,1.6-0.8
			s0.7-1.3,0.7-2.5c0-1.1-0.2-1.8-0.7-2.4c-0.4-0.5-1-0.8-1.6-0.8c-0.6,0-1.1,0.3-1.6,0.8S312.1,139.7,312.1,140.8z"/>
	</g>
</g>
</svg>
