<?xml version="1.0" encoding="utf-8"?>
<!-- Generator: Adobe Illustrator 17.1.0, SVG Export Plug-In . SVG Version: 6.00 Build 0)  -->
<!DOCTYPE svg PUBLIC "-//W3C//DTD SVG 1.1//EN" "http://www.w3.org/Graphics/SVG/1.1/DTD/svg11.dtd">
<svg version="1.1" xmlns="http://www.w3.org/2000/svg" xmlns:xlink="http://www.w3.org/1999/xlink" x="0px" y="0px"
	 viewBox="0 0 334 298.2" enable-background="new 0 0 334 298.2" xml:space="preserve">
<g id="www_1_">
</g>
<g id="restapi">
	<path d="M87.2,75.6v-1.5c0,0-13.9,7.9-17.8,15.4c-0.3,0.5-0.5,1-0.8,1.6l-10.1,12H35.8c-2.8,0-5.1,2.3-5.1,5.1c0,2.8,2.2,5.1,5,5.1
		c0,0,0,0,0,0h0.6c0.5,0,0.9-0.3,0.9-0.7c0-0.4-0.4-0.7-0.9-0.7h-0.6c-2,0-3.7-1.7-3.7-3.7c0-2,1.7-3.7,3.7-3.7h22.5l10.3,12.2
		c2.8,6.4,7.8,11.9,14.5,15.3c1.3,0.7,4,1.7,4,1.7v-1.4c-2.5-1.1-4.3-3.7-4.3-6.6c0-2.9,1.8-5.4,4.3-6.6v-0.3
		c-0.3,0-4.5,0.3-9.1-0.5c-5-0.9-8.6-2.6-10.8-5.2c0.2,0.6,0.4,1.3,0.6,1.9l-8.4-9.9l6.8,3.7c0.1,0.7,0.3,1.5,0.4,2.2
		c4.3,8.1,20.2,7.1,20.4,7.1v-0.3c-2.5-1.1-4.2-3.7-4.2-6.6c0-2.9,1.7-5.4,4.2-6.5v-0.3L66,104.3c0,1.3,0.1,2.6,0.3,3.8l-6.5-3.6
		h3.9v0h0.7c0.5,0,0.9-0.3,0.9-0.7c0-0.4-0.4-0.7-0.9-0.7h0v0h-4l6.1-3.4c-0.2,1.3-0.3,2.5-0.3,3.8l21.2,0.1v-0.4
		c-2.5-1.2-4.2-3.7-4.2-6.6c0-2.9,1.7-5.4,4.2-6.5v-0.5l-0.6,0l0,0C84,89.5,71,89.4,66.9,96.3c-0.2,0.9-0.4,1.8-0.6,2.8l-6.8,3.7
		l8.4-9.9c-0.2,0.5-0.4,1-0.5,1.5c2.2-2.4,5.8-4.1,10.5-4.9c4.7-0.8,9.1-0.5,9.1-0.5v0l0.1,0v-0.3c-2.5-1.2-4.1-3.7-4.1-6.6
		C83.1,79.3,84.8,76.8,87.2,75.6z"/>
	<path d="M35.4,87.9H55c0.4,0,0.8-0.4,0.8-0.8c0-0.4-0.4-0.8-0.8-0.8H35.4c-0.4,0-0.8,0.4-0.8,0.8C34.6,87.5,34.9,87.9,35.4,87.9z"
		/>
	<path d="M37.2,92.4c0,0.4,0.4,0.8,0.8,0.8h19.6c0.4,0,0.8-0.4,0.8-0.8c0-0.4-0.4-0.8-0.8-0.8H38C37.6,91.6,37.2,92,37.2,92.4z"/>
	<path d="M35.4,98.5H55c0.4,0,0.8-0.4,0.8-0.8c0-0.4-0.4-0.8-0.8-0.8H35.4c-0.4,0-0.8,0.4-0.8,0.8C34.6,98.2,34.9,98.5,35.4,98.5z"
		/>
	<path d="M151.4,206.2h53.9v-53.1h-53.9V206.2z M208.9,209.8h-61.1v-60.2h61.1V209.8z"/>
	<path d="M227.2,206.2h53.9v-53.1h-53.9V206.2z M284.7,209.8h-61.1v-60.2h61.1V209.8z"/>
	<path d="M18.6,277.3h294.6V54.5H18.6V277.3z M320.5,284.5h-309V47.3h309V284.5z"/>
	<path d="M18.6,47.3h294.6V21.4c0-1.4-2.5-2.9-4.9-2.9H23.6c-2.4,0-4.9,1.4-4.9,2.9V47.3z M320.5,54.5h-309V21.4
		c0-6.2,6.3-10.1,12.1-10.1h284.8c5.8,0,12.1,3.8,12.1,10.1V54.5z"/>
	<path d="M42.9,32.2c0,7.4-11.1,7.4-11.1,0C31.8,24.8,42.9,24.8,42.9,32.2"/>
	<path d="M60.9,32.2c0,7.4-11.1,7.4-11.1,0C49.8,24.8,60.9,24.8,60.9,32.2"/>
	<path d="M78.8,32.2c0,7.4-11.1,7.4-11.1,0C67.7,24.8,78.8,24.8,78.8,32.2"/>
	<path d="M251.3,129.6h-132c-1,0-1.8-0.8-1.8-1.8s0.8-1.8,1.8-1.8h132c1,0,1.8,0.8,1.8,1.8S252.3,129.6,251.3,129.6z"/>
	<path d="M257,248.4H75.2c-1.3,0-2.4-1.1-2.4-2.4c0-1.3,1.1-2.4,2.4-2.4H257c1.3,0,2.4,1.1,2.4,2.4
		C259.4,247.3,258.4,248.4,257,248.4z"/>
	<path d="M252.1,263.9H75.6c-1.3,0-2.3-1.1-2.3-2.3c0-1.3,1.1-2.3,2.3-2.3h176.5c1.3,0,2.3,1.1,2.3,2.3
		C254.4,262.8,253.4,263.9,252.1,263.9z"/>
	<g>
		<path d="M118,108.4V96.9h2.3v4.5h4.5v-4.5h2.3v11.5h-2.3v-5h-4.5v5H118z"/>
		<path d="M129,104.1c0-0.7,0.2-1.4,0.5-2.1c0.4-0.7,0.9-1.2,1.5-1.6s1.4-0.5,2.2-0.5c1.3,0,2.3,0.4,3.1,1.2
			c0.8,0.8,1.2,1.8,1.2,3.1c0,1.3-0.4,2.3-1.2,3.1c-0.8,0.8-1.8,1.2-3.1,1.2c-0.8,0-1.5-0.2-2.2-0.5s-1.2-0.8-1.6-1.5
			S129,105.1,129,104.1z M131.2,104.2c0,0.8,0.2,1.5,0.6,1.9s0.9,0.7,1.4,0.7s1.1-0.2,1.4-0.7s0.6-1.1,0.6-1.9
			c0-0.8-0.2-1.4-0.6-1.9s-0.9-0.7-1.4-0.7s-1.1,0.2-1.4,0.7S131.2,103.4,131.2,104.2z"/>
		<path d="M140.8,108.4l-2.6-8.3h2.1l1.6,5.4l1.4-5.4h2.1l1.4,5.4l1.6-5.4h2.2l-2.7,8.3h-2.1l-1.4-5.3l-1.4,5.3H140.8z"/>
		<path d="M157.7,108.4l-2.6-8.3h2.1l1.6,5.4l1.4-5.4h2.1l1.4,5.4l1.6-5.4h2.2l-2.7,8.3h-2.1l-1.4-5.3l-1.4,5.3H157.7z"/>
		<path d="M168.6,99v-2h2.2v2H168.6z M168.6,108.4v-8.3h2.2v8.3H168.6z"/>
		<path d="M180.6,108.4h-2.2v-4.2c0-0.9,0-1.5-0.1-1.7c-0.1-0.3-0.2-0.5-0.5-0.6c-0.2-0.1-0.5-0.2-0.8-0.2c-0.4,0-0.7,0.1-1,0.3
			c-0.3,0.2-0.5,0.5-0.6,0.8s-0.2,1-0.2,1.9v3.8H173v-8.3h2v1.2c0.7-0.9,1.6-1.4,2.7-1.4c0.5,0,0.9,0.1,1.3,0.3
			c0.4,0.2,0.7,0.4,0.9,0.7c0.2,0.3,0.3,0.6,0.4,0.9s0.1,0.8,0.1,1.5V108.4z"/>
		<path d="M190.4,108.4h-2v-1.2c-0.3,0.5-0.7,0.8-1.2,1.1s-0.9,0.3-1.4,0.3c-1,0-1.8-0.4-2.4-1.2c-0.7-0.8-1-1.8-1-3.2
			c0-1.4,0.3-2.5,1-3.2c0.7-0.7,1.5-1.1,2.5-1.1c0.9,0,1.7,0.4,2.4,1.2v-4.1h2.2V108.4z M184.6,104.1c0,0.9,0.1,1.5,0.4,1.9
			c0.4,0.6,0.8,0.9,1.5,0.9c0.5,0,0.9-0.2,1.3-0.6s0.5-1.1,0.5-1.9c0-1-0.2-1.6-0.5-2.1c-0.3-0.4-0.8-0.6-1.3-0.6
			c-0.5,0-1,0.2-1.3,0.6S184.6,103.2,184.6,104.1z"/>
		<path d="M191.6,100.1h2.3l2,5.9l1.9-5.9h2.3l-2.9,8l-0.5,1.4c-0.2,0.5-0.4,0.9-0.6,1.1c-0.2,0.3-0.4,0.5-0.6,0.6
			c-0.2,0.2-0.5,0.3-0.8,0.4c-0.3,0.1-0.7,0.1-1.1,0.1c-0.4,0-0.8,0-1.2-0.1l-0.2-1.7c0.3,0.1,0.7,0.1,0.9,0.1
			c0.5,0,0.9-0.1,1.1-0.4c0.2-0.3,0.4-0.7,0.6-1.1L191.6,100.1z"/>
		<path d="M205.9,99v-2h2.2v2H205.9z M205.9,108.4v-8.3h2.2v8.3H205.9z"/>
		<path d="M209.6,106l2.2-0.3c0.1,0.4,0.3,0.8,0.6,1c0.3,0.2,0.7,0.3,1.2,0.3c0.6,0,1-0.1,1.3-0.3c0.2-0.1,0.3-0.3,0.3-0.6
			c0-0.2-0.1-0.3-0.2-0.4c-0.1-0.1-0.4-0.2-0.7-0.3c-1.8-0.4-2.9-0.7-3.4-1.1c-0.7-0.4-1-1.1-1-1.9c0-0.7,0.3-1.3,0.9-1.8
			c0.6-0.5,1.4-0.7,2.6-0.7c1.1,0,2,0.2,2.5,0.6c0.6,0.4,0.9,0.9,1.1,1.6l-2.1,0.4c-0.1-0.3-0.3-0.6-0.5-0.7s-0.6-0.3-1.1-0.3
			c-0.6,0-1,0.1-1.2,0.2c-0.2,0.1-0.2,0.3-0.2,0.4c0,0.2,0.1,0.3,0.2,0.4c0.2,0.1,0.9,0.4,2.1,0.6s2,0.6,2.4,1
			c0.5,0.4,0.7,0.9,0.7,1.6c0,0.8-0.3,1.4-1,2s-1.6,0.8-2.8,0.8c-1.1,0-2-0.2-2.7-0.7C210.2,107.4,209.8,106.8,209.6,106z"/>
		<path d="M223.7,99v-2h2.2v2H223.7z M223.7,108.4v-8.3h2.2v8.3H223.7z"/>
		<path d="M232,100.1v1.8h-1.5v3.3c0,0.7,0,1.1,0,1.2c0,0.1,0.1,0.2,0.2,0.3c0.1,0.1,0.2,0.1,0.4,0.1c0.2,0,0.5-0.1,0.9-0.2l0.2,1.7
			c-0.5,0.2-1.1,0.3-1.7,0.3c-0.4,0-0.8-0.1-1.1-0.2s-0.6-0.3-0.7-0.5s-0.3-0.5-0.3-0.9c0-0.3-0.1-0.8-0.1-1.5v-3.6h-1v-1.8h1v-1.6
			l2.2-1.3v2.9H232z"/>
		<path d="M238.2,105.4h-2c0-0.3,0-0.5,0-0.5c0-0.6,0.1-1.2,0.3-1.6c0.2-0.4,0.6-0.9,1.3-1.4c0.6-0.5,1-0.9,1.1-1
			c0.2-0.3,0.3-0.5,0.3-0.8c0-0.4-0.2-0.8-0.5-1.1s-0.8-0.5-1.4-0.5c-0.6,0-1,0.2-1.4,0.5c-0.4,0.3-0.6,0.8-0.8,1.5l-2-0.2
			c0.1-0.9,0.5-1.7,1.2-2.4c0.7-0.7,1.7-1,2.9-1c1.3,0,2.3,0.3,3,1c0.7,0.7,1.1,1.4,1.1,2.3c0,0.5-0.1,0.9-0.4,1.4
			c-0.3,0.4-0.9,1-1.8,1.8c-0.5,0.4-0.8,0.7-0.9,0.9S238.2,104.8,238.2,105.4z M236.2,108.4v-2.2h2.2v2.2H236.2z"/>
	</g>
	<path d="M76.3,206.2h53.9v-53.1H76.3V206.2z M133.8,209.8H72.7v-60.2h61.1V209.8z"/>
	<g>
		<path d="M80.5,226.3l2.2-0.3c0.1,0.4,0.3,0.8,0.6,1c0.3,0.2,0.7,0.3,1.2,0.3c0.6,0,1-0.1,1.3-0.3c0.2-0.1,0.3-0.3,0.3-0.6
			c0-0.2-0.1-0.3-0.2-0.4c-0.1-0.1-0.4-0.2-0.7-0.3c-1.8-0.4-2.9-0.7-3.4-1.1c-0.7-0.4-1-1.1-1-1.9c0-0.7,0.3-1.3,0.9-1.8
			c0.6-0.5,1.4-0.7,2.6-0.7c1.1,0,2,0.2,2.5,0.6c0.6,0.4,0.9,0.9,1.1,1.6l-2.1,0.4c-0.1-0.3-0.3-0.6-0.5-0.7s-0.6-0.3-1.1-0.3
			c-0.6,0-1,0.1-1.2,0.2c-0.2,0.1-0.2,0.3-0.2,0.4c0,0.2,0.1,0.3,0.2,0.4c0.2,0.1,0.9,0.4,2.1,0.6s2,0.6,2.4,1
			c0.5,0.4,0.7,0.9,0.7,1.6c0,0.8-0.3,1.4-1,2s-1.6,0.8-2.8,0.8c-1.1,0-2-0.2-2.7-0.7C81.2,227.7,80.7,227,80.5,226.3z"/>
		<path d="M90.1,220.3h2v1.2c0.3-0.4,0.6-0.8,1.1-1c0.5-0.3,1-0.4,1.5-0.4c1,0,1.8,0.4,2.5,1.1c0.7,0.8,1,1.8,1,3.2
			c0,1.4-0.3,2.5-1,3.2c-0.7,0.8-1.5,1.2-2.5,1.2c-0.5,0-0.9-0.1-1.2-0.3s-0.8-0.5-1.2-0.9v4.2h-2.2V220.3z M92.3,224.3
			c0,0.9,0.2,1.6,0.6,2.1s0.8,0.7,1.4,0.7c0.5,0,0.9-0.2,1.3-0.6c0.3-0.4,0.5-1.1,0.5-2c0-0.9-0.2-1.5-0.5-1.9s-0.8-0.6-1.3-0.6
			c-0.5,0-1,0.2-1.3,0.6S92.3,223.5,92.3,224.3z"/>
		<path d="M104.8,226l2.2,0.4c-0.3,0.8-0.7,1.4-1.3,1.8c-0.6,0.4-1.4,0.6-2.3,0.6c-1.4,0-2.5-0.5-3.2-1.4c-0.5-0.8-0.8-1.7-0.8-2.9
			c0-1.4,0.4-2.5,1.1-3.2c0.7-0.8,1.6-1.2,2.7-1.2c1.2,0,2.2,0.4,2.9,1.2c0.7,0.8,1.1,2.1,1,3.7h-5.5c0,0.7,0.2,1.2,0.5,1.5
			c0.3,0.4,0.8,0.5,1.3,0.5c0.3,0,0.6-0.1,0.9-0.3S104.7,226.4,104.8,226z M104.9,223.8c0-0.6-0.2-1.1-0.5-1.4
			c-0.3-0.3-0.7-0.5-1.1-0.5c-0.5,0-0.9,0.2-1.2,0.5c-0.3,0.3-0.5,0.8-0.5,1.4H104.9z"/>
		<path d="M113.7,226l2.2,0.4c-0.3,0.8-0.7,1.4-1.3,1.8c-0.6,0.4-1.4,0.6-2.3,0.6c-1.4,0-2.5-0.5-3.2-1.4c-0.5-0.8-0.8-1.7-0.8-2.9
			c0-1.4,0.4-2.5,1.1-3.2c0.7-0.8,1.6-1.2,2.7-1.2c1.2,0,2.2,0.4,2.9,1.2c0.7,0.8,1.1,2.1,1,3.7h-5.5c0,0.7,0.2,1.2,0.5,1.5
			c0.3,0.4,0.8,0.5,1.3,0.5c0.3,0,0.6-0.1,0.9-0.3S113.6,226.4,113.7,226z M113.8,223.8c0-0.6-0.2-1.1-0.5-1.4
			c-0.3-0.3-0.7-0.5-1.1-0.5c-0.5,0-0.9,0.2-1.2,0.5c-0.3,0.3-0.5,0.8-0.5,1.4H113.8z"/>
		<path d="M125.4,228.6h-2v-1.2c-0.3,0.5-0.7,0.8-1.2,1.1s-0.9,0.3-1.4,0.3c-1,0-1.8-0.4-2.4-1.2c-0.7-0.8-1-1.8-1-3.2
			c0-1.4,0.3-2.5,1-3.2c0.7-0.7,1.5-1.1,2.5-1.1c0.9,0,1.7,0.4,2.4,1.2v-4.1h2.2V228.6z M119.5,224.3c0,0.9,0.1,1.5,0.4,1.9
			c0.4,0.6,0.8,0.9,1.5,0.9c0.5,0,0.9-0.2,1.3-0.6s0.5-1.1,0.5-1.9c0-1-0.2-1.6-0.5-2.1c-0.3-0.4-0.8-0.6-1.3-0.6
			c-0.5,0-1,0.2-1.3,0.6S119.5,223.5,119.5,224.3z"/>
	</g>
	<g>
		<path d="M245.5,222.8l-2.2,0.4c-0.1-0.4-0.2-0.8-0.5-1s-0.6-0.3-1-0.3c-0.5,0-1,0.2-1.3,0.6c-0.3,0.4-0.5,1-0.5,1.9
			c0,1,0.2,1.7,0.5,2.1s0.8,0.6,1.3,0.6c0.4,0,0.8-0.1,1-0.4c0.3-0.2,0.5-0.6,0.6-1.2l2.2,0.4c-0.2,1-0.7,1.7-1.3,2.2
			c-0.6,0.5-1.5,0.8-2.6,0.8c-1.2,0-2.2-0.4-2.9-1.1s-1.1-1.8-1.1-3.2c0-1.4,0.4-2.4,1.1-3.2c0.7-0.8,1.7-1.1,2.9-1.1
			c1,0,1.8,0.2,2.4,0.7C244.8,221.2,245.2,221.9,245.5,222.8z"/>
		<path d="M249.3,217.2v4.2c0.7-0.8,1.6-1.2,2.5-1.2c0.5,0,1,0.1,1.4,0.3s0.7,0.4,0.9,0.7c0.2,0.3,0.3,0.6,0.4,1
			c0.1,0.4,0.1,0.9,0.1,1.6v4.9h-2.2v-4.4c0-0.9,0-1.4-0.1-1.7s-0.2-0.4-0.4-0.6c-0.2-0.1-0.5-0.2-0.8-0.2c-0.4,0-0.7,0.1-1,0.3
			c-0.3,0.2-0.5,0.4-0.6,0.8c-0.1,0.4-0.2,0.9-0.2,1.6v4.2h-2.2v-11.5H249.3z"/>
		<path d="M256.9,219.2v-2h2.2v2H256.9z M256.9,228.6v-8.3h2.2v8.3H256.9z"/>
		<path d="M261.4,228.6v-11.5h2.2v11.5H261.4z"/>
		<path d="M265.8,228.6v-11.5h2.2v11.5H265.8z"/>
	</g>
	<g>
		<path d="M153.3,228.6h-2v-1.2c-0.3,0.5-0.7,0.8-1.2,1.1s-0.9,0.3-1.4,0.3c-1,0-1.8-0.4-2.4-1.2c-0.7-0.8-1-1.8-1-3.2
			c0-1.4,0.3-2.5,1-3.2c0.7-0.7,1.5-1.1,2.5-1.1c0.9,0,1.7,0.4,2.4,1.2v-4.1h2.2V228.6z M147.5,224.3c0,0.9,0.1,1.5,0.4,1.9
			c0.4,0.6,0.8,0.9,1.5,0.9c0.5,0,0.9-0.2,1.3-0.6s0.5-1.1,0.5-1.9c0-1-0.2-1.6-0.5-2.1c-0.3-0.4-0.8-0.6-1.3-0.6
			c-0.5,0-1,0.2-1.3,0.6S147.5,223.5,147.5,224.3z"/>
		<path d="M155.5,219.2v-2h2.2v2H155.5z M155.5,228.6v-8.3h2.2v8.3H155.5z"/>
		<path d="M162,228.6h-2.2v-8.3h2v1.2c0.3-0.6,0.7-0.9,0.9-1.1c0.3-0.2,0.6-0.3,0.9-0.3c0.5,0,1,0.1,1.4,0.4l-0.7,1.9
			c-0.4-0.2-0.7-0.4-1-0.4c-0.3,0-0.6,0.1-0.8,0.3c-0.2,0.2-0.4,0.5-0.5,0.9c-0.1,0.4-0.2,1.4-0.2,2.8V228.6z"/>
		<path d="M171,226l2.2,0.4c-0.3,0.8-0.7,1.4-1.3,1.8c-0.6,0.4-1.4,0.6-2.3,0.6c-1.4,0-2.5-0.5-3.2-1.4c-0.5-0.8-0.8-1.7-0.8-2.9
			c0-1.4,0.4-2.5,1.1-3.2c0.7-0.8,1.6-1.2,2.7-1.2c1.2,0,2.2,0.4,2.9,1.2c0.7,0.8,1.1,2.1,1,3.7h-5.5c0,0.7,0.2,1.2,0.5,1.5
			c0.3,0.4,0.8,0.5,1.3,0.5c0.3,0,0.6-0.1,0.9-0.3S170.8,226.4,171,226z M171.1,223.8c0-0.6-0.2-1.1-0.5-1.4
			c-0.3-0.3-0.7-0.5-1.1-0.5c-0.5,0-0.9,0.2-1.2,0.5c-0.3,0.3-0.5,0.8-0.5,1.4H171.1z"/>
		<path d="M182.3,222.8l-2.2,0.4c-0.1-0.4-0.2-0.8-0.5-1s-0.6-0.3-1-0.3c-0.5,0-1,0.2-1.3,0.6c-0.3,0.4-0.5,1-0.5,1.9
			c0,1,0.2,1.7,0.5,2.1s0.8,0.6,1.3,0.6c0.4,0,0.8-0.1,1-0.4c0.3-0.2,0.5-0.6,0.6-1.2l2.2,0.4c-0.2,1-0.7,1.7-1.3,2.2
			c-0.6,0.5-1.5,0.8-2.6,0.8c-1.2,0-2.2-0.4-2.9-1.1s-1.1-1.8-1.1-3.2c0-1.4,0.4-2.4,1.1-3.2c0.7-0.8,1.7-1.1,2.9-1.1
			c1,0,1.8,0.2,2.4,0.7C181.6,221.2,182,221.9,182.3,222.8z"/>
		<path d="M187.8,220.3v1.8h-1.5v3.3c0,0.7,0,1.1,0,1.2c0,0.1,0.1,0.2,0.2,0.3c0.1,0.1,0.2,0.1,0.4,0.1c0.2,0,0.5-0.1,0.9-0.2
			l0.2,1.7c-0.5,0.2-1.1,0.3-1.7,0.3c-0.4,0-0.8-0.1-1.1-0.2s-0.6-0.3-0.7-0.5s-0.3-0.5-0.3-0.9c0-0.3-0.1-0.8-0.1-1.5v-3.6h-1v-1.8
			h1v-1.6l2.2-1.3v2.9H187.8z"/>
		<path d="M189.3,219.2v-2h2.2v2H189.3z M189.3,228.6v-8.3h2.2v8.3H189.3z"/>
		<path d="M193.2,224.4c0-0.7,0.2-1.4,0.5-2.1c0.4-0.7,0.9-1.2,1.5-1.6s1.4-0.5,2.2-0.5c1.3,0,2.3,0.4,3.1,1.2
			c0.8,0.8,1.2,1.8,1.2,3.1c0,1.3-0.4,2.3-1.2,3.1c-0.8,0.8-1.8,1.2-3.1,1.2c-0.8,0-1.5-0.2-2.2-0.5s-1.2-0.8-1.6-1.5
			S193.2,225.3,193.2,224.4z M195.5,224.5c0,0.8,0.2,1.5,0.6,1.9s0.9,0.7,1.4,0.7s1.1-0.2,1.4-0.7s0.6-1.1,0.6-1.9
			c0-0.8-0.2-1.4-0.6-1.9s-0.9-0.7-1.4-0.7s-1.1,0.2-1.4,0.7S195.5,223.6,195.5,224.5z"/>
		<path d="M211,228.6h-2.2v-4.2c0-0.9,0-1.5-0.1-1.7c-0.1-0.3-0.2-0.5-0.5-0.6c-0.2-0.1-0.5-0.2-0.8-0.2c-0.4,0-0.7,0.1-1,0.3
			c-0.3,0.2-0.5,0.5-0.6,0.8s-0.2,1-0.2,1.9v3.8h-2.2v-8.3h2v1.2c0.7-0.9,1.6-1.4,2.7-1.4c0.5,0,0.9,0.1,1.3,0.3
			c0.4,0.2,0.7,0.4,0.9,0.7c0.2,0.3,0.3,0.6,0.4,0.9s0.1,0.8,0.1,1.5V228.6z"/>
	</g>
	<g>
		<path fill="#E2251B" d="M251.7,181v3.6h-13.5c0.1-1.3,0.6-2.6,1.3-3.8c0.7-1.2,2.2-2.8,4.3-4.8c1.7-1.6,2.8-2.7,3.2-3.3
			c0.5-0.8,0.8-1.6,0.8-2.4c0-0.9-0.2-1.5-0.7-2c-0.5-0.5-1.1-0.7-1.9-0.7c-0.8,0-1.4,0.2-1.9,0.7c-0.5,0.5-0.7,1.3-0.8,2.4
			l-3.8-0.4c0.2-2.1,0.9-3.6,2.1-4.6c1.2-0.9,2.7-1.4,4.5-1.4c2,0,3.5,0.5,4.7,1.6s1.7,2.4,1.7,4c0,0.9-0.2,1.8-0.5,2.6
			c-0.3,0.8-0.8,1.7-1.5,2.6c-0.5,0.6-1.3,1.4-2.5,2.6c-1.2,1.1-2,1.9-2.3,2.2c-0.3,0.4-0.6,0.7-0.8,1.1H251.7z"/>
		<path fill="#E2251B" d="M254.3,179.4l3.8-0.4c0.1,0.9,0.4,1.6,1,2.1s1.2,0.8,1.9,0.8c0.8,0,1.5-0.3,2-1c0.6-0.7,0.8-1.6,0.8-2.9
			c0-1.2-0.3-2.2-0.8-2.8s-1.3-0.9-2.2-0.9c-1.1,0-2.1,0.5-3,1.5l-3.1-0.5l2-10.4h10.2v3.6h-7.2l-0.6,3.4c0.9-0.4,1.7-0.6,2.6-0.6
			c1.7,0,3.1,0.6,4.3,1.9c1.2,1.2,1.8,2.8,1.8,4.8c0,1.6-0.5,3.1-1.4,4.4c-1.3,1.8-3.1,2.7-5.4,2.7c-1.9,0-3.4-0.5-4.5-1.5
			C255.3,182.4,254.6,181.1,254.3,179.4z"/>
	</g>
	<g>
		<path fill="#E2251B" d="M99.9,181v3.6H86.4c0.1-1.3,0.6-2.6,1.3-3.8c0.7-1.2,2.2-2.8,4.3-4.8c1.7-1.6,2.8-2.7,3.2-3.3
			c0.5-0.8,0.8-1.6,0.8-2.4c0-0.9-0.2-1.5-0.7-2c-0.5-0.5-1.1-0.7-1.9-0.7c-0.8,0-1.4,0.2-1.9,0.7c-0.5,0.5-0.7,1.3-0.8,2.4
			l-3.8-0.4c0.2-2.1,0.9-3.6,2.1-4.6c1.2-0.9,2.7-1.4,4.5-1.4c2,0,3.5,0.5,4.7,1.6s1.7,2.4,1.7,4c0,0.9-0.2,1.8-0.5,2.6
			c-0.3,0.8-0.8,1.7-1.5,2.6c-0.5,0.6-1.3,1.4-2.5,2.6c-1.2,1.1-2,1.9-2.3,2.2c-0.3,0.4-0.6,0.7-0.8,1.1H99.9z"/>
		<path fill="#E2251B" d="M102.6,179.9l3.7-0.4c0.1,0.8,0.3,1.3,0.7,1.7c0.4,0.4,0.9,0.5,1.5,0.5c0.8,0,1.5-0.4,2-1.1
			c0.6-0.7,0.9-2.2,1.1-4.5c-1,1.1-2.2,1.7-3.6,1.7c-1.6,0-2.9-0.6-4.1-1.8s-1.7-2.8-1.7-4.8c0-2,0.6-3.7,1.8-4.9s2.7-1.9,4.6-1.9
			c2,0,3.7,0.8,5,2.4s2,4.2,2,7.8c0,3.7-0.7,6.3-2,7.9c-1.4,1.6-3.1,2.4-5.3,2.4c-1.6,0-2.8-0.4-3.8-1.3S102.8,181.6,102.6,179.9z
			 M111.3,171.5c0-1.2-0.3-2.2-0.9-2.9s-1.2-1-2-1c-0.7,0-1.3,0.3-1.8,0.8s-0.7,1.5-0.7,2.8c0,1.3,0.3,2.2,0.8,2.9
			c0.5,0.6,1.1,0.9,1.9,0.9c0.7,0,1.4-0.3,1.9-0.9C111,173.5,111.3,172.7,111.3,171.5z"/>
	</g>
	<g>
		<path fill="#E2251B" d="M156,179.3l3.7-0.5c0.1,0.9,0.4,1.7,1,2.2c0.5,0.5,1.1,0.8,1.9,0.8c0.8,0,1.5-0.3,2-0.9s0.8-1.4,0.8-2.4
			c0-1-0.3-1.7-0.8-2.3c-0.5-0.6-1.2-0.8-1.9-0.8c-0.5,0-1.1,0.1-1.8,0.3l0.4-3.1c1,0,1.8-0.2,2.4-0.7s0.8-1.1,0.8-1.9
			c0-0.7-0.2-1.2-0.6-1.6c-0.4-0.4-0.9-0.6-1.6-0.6c-0.7,0-1.2,0.2-1.7,0.7c-0.5,0.5-0.7,1.1-0.8,2l-3.5-0.6
			c0.2-1.2,0.6-2.2,1.1-2.9s1.2-1.3,2.1-1.7c0.9-0.4,1.9-0.6,3-0.6c1.9,0,3.4,0.6,4.5,1.8c0.9,1,1.4,2.1,1.4,3.3
			c0,1.8-1,3.2-2.9,4.2c1.1,0.2,2.1,0.8,2.8,1.7c0.7,0.9,1,1.9,1,3.1c0,1.8-0.6,3.3-1.9,4.5c-1.3,1.2-2.9,1.9-4.8,1.9
			c-1.8,0-3.3-0.5-4.5-1.6C156.9,182.3,156.2,180.9,156,179.3z"/>
		<path fill="#E2251B" d="M184.7,181v3.6h-13.5c0.1-1.3,0.6-2.6,1.3-3.8c0.7-1.2,2.2-2.8,4.3-4.8c1.7-1.6,2.8-2.7,3.2-3.3
			c0.5-0.8,0.8-1.6,0.8-2.4c0-0.9-0.2-1.5-0.7-2c-0.5-0.5-1.1-0.7-1.9-0.7c-0.8,0-1.4,0.2-1.9,0.7c-0.5,0.5-0.7,1.3-0.8,2.4
			l-3.8-0.4c0.2-2.1,0.9-3.6,2.1-4.6c1.2-0.9,2.7-1.4,4.5-1.4c2,0,3.5,0.5,4.7,1.6s1.7,2.4,1.7,4c0,0.9-0.2,1.8-0.5,2.6
			c-0.3,0.8-0.8,1.7-1.5,2.6c-0.5,0.6-1.3,1.4-2.5,2.6c-1.2,1.1-2,1.9-2.3,2.2c-0.3,0.4-0.6,0.7-0.8,1.1H184.7z"/>
		<path fill="#E2251B" d="M193.8,164.4c1.9,0,3.5,0.7,4.6,2.1c1.3,1.6,2,4.4,2,8.2c0,3.8-0.7,6.5-2,8.2c-1.1,1.4-2.6,2.1-4.5,2.1
			c-2,0-3.5-0.7-4.7-2.2c-1.2-1.5-1.8-4.2-1.8-8c0-3.8,0.7-6.5,2-8.1C190.4,165.1,191.9,164.4,193.8,164.4z M193.8,167.6
			c-0.5,0-0.9,0.1-1.2,0.4c-0.4,0.3-0.6,0.8-0.8,1.6c-0.3,1-0.4,2.7-0.4,5s0.1,4,0.4,4.8c0.2,0.9,0.5,1.5,0.9,1.8
			c0.4,0.3,0.8,0.4,1.2,0.4s0.9-0.1,1.2-0.4c0.4-0.3,0.6-0.8,0.8-1.6c0.3-1,0.4-2.7,0.4-5s-0.1-4-0.4-4.8c-0.2-0.9-0.5-1.5-0.9-1.8
			C194.7,167.8,194.3,167.6,193.8,167.6z"/>
	</g>
	<g>
		<path d="M83.9,200v-7.2h0.9v4.1l2.1-2.1H88l-2,1.9l2.2,3.3h-1.1l-1.7-2.7l-0.6,0.6v2.1H83.9z"/>
		<path d="M88.9,200v-5.2h0.8v0.7c0.2-0.3,0.4-0.5,0.6-0.6s0.6-0.2,0.9-0.2c0.4,0,0.7,0.1,0.9,0.2c0.2,0.2,0.4,0.4,0.5,0.7
			c0.4-0.6,0.9-0.9,1.6-0.9c0.5,0,0.9,0.1,1.2,0.4s0.4,0.7,0.4,1.3v3.6H95v-3.3c0-0.4,0-0.6-0.1-0.8c-0.1-0.2-0.2-0.3-0.3-0.4
			s-0.3-0.1-0.5-0.1c-0.4,0-0.7,0.1-0.9,0.4s-0.4,0.6-0.4,1.2v3H92v-3.4c0-0.4-0.1-0.7-0.2-0.9s-0.4-0.3-0.7-0.3
			c-0.2,0-0.5,0.1-0.7,0.2c-0.2,0.1-0.4,0.3-0.5,0.6s-0.1,0.6-0.1,1.1v2.7H88.9z"/>
		<path d="M96.6,200.1l2.1-7.4h0.7l-2.1,7.4H96.6z"/>
		<path d="M100,200v-7.2h0.9v2.6c0.4-0.5,0.9-0.7,1.6-0.7c0.4,0,0.7,0.1,1,0.2s0.5,0.4,0.6,0.6c0.1,0.3,0.2,0.7,0.2,1.2v3.3h-0.9
			v-3.3c0-0.4-0.1-0.8-0.3-1c-0.2-0.2-0.5-0.3-0.8-0.3c-0.3,0-0.5,0.1-0.7,0.2c-0.2,0.1-0.4,0.3-0.5,0.5s-0.1,0.6-0.1,1v2.8H100z"/>
		<path d="M105.2,197.4c0-1,0.3-1.7,0.8-2.1c0.4-0.4,1-0.6,1.6-0.6c0.7,0,1.3,0.2,1.7,0.7s0.7,1.1,0.7,1.9c0,0.7-0.1,1.2-0.3,1.6
			c-0.2,0.4-0.5,0.7-0.9,0.9c-0.4,0.2-0.8,0.3-1.3,0.3c-0.7,0-1.3-0.2-1.8-0.7C105.5,199,105.2,198.3,105.2,197.4z M106.1,197.4
			c0,0.7,0.1,1.2,0.4,1.5s0.7,0.5,1.1,0.5c0.4,0,0.8-0.2,1.1-0.5s0.4-0.8,0.4-1.5c0-0.6-0.1-1.1-0.4-1.5c-0.3-0.3-0.7-0.5-1.1-0.5
			c-0.4,0-0.8,0.2-1.1,0.5S106.1,196.7,106.1,197.4z"/>
		<path d="M114.5,200v-0.8c-0.4,0.6-1,0.9-1.6,0.9c-0.3,0-0.6-0.1-0.9-0.2c-0.3-0.1-0.5-0.3-0.6-0.4c-0.1-0.2-0.2-0.4-0.3-0.7
			c0-0.2-0.1-0.4-0.1-0.8v-3.2h0.9v2.9c0,0.5,0,0.8,0.1,0.9c0.1,0.2,0.2,0.4,0.4,0.5s0.4,0.2,0.7,0.2s0.5-0.1,0.7-0.2
			s0.4-0.3,0.5-0.6c0.1-0.2,0.1-0.6,0.1-1v-2.8h0.9v5.2H114.5z"/>
		<path d="M116.7,200v-5.2h0.8v0.8c0.2-0.4,0.4-0.6,0.6-0.7c0.2-0.1,0.4-0.2,0.6-0.2c0.3,0,0.6,0.1,0.9,0.3l-0.3,0.8
			c-0.2-0.1-0.4-0.2-0.6-0.2c-0.2,0-0.4,0.1-0.5,0.2s-0.3,0.3-0.3,0.5c-0.1,0.3-0.1,0.7-0.1,1v2.7H116.7z"/>
	</g>
	<g>
		<path d="M162.1,200v-0.7c-0.3,0.5-0.8,0.8-1.5,0.8c-0.4,0-0.8-0.1-1.1-0.3c-0.3-0.2-0.6-0.5-0.8-1c-0.2-0.4-0.3-0.9-0.3-1.4
			c0-0.5,0.1-1,0.3-1.4s0.4-0.7,0.8-1s0.7-0.3,1.2-0.3c0.3,0,0.6,0.1,0.8,0.2s0.4,0.3,0.6,0.5v-2.6h0.9v7.2H162.1z M159.3,197.4
			c0,0.7,0.1,1.2,0.4,1.5s0.6,0.5,1,0.5c0.4,0,0.7-0.2,1-0.5c0.3-0.3,0.4-0.8,0.4-1.4c0-0.7-0.1-1.2-0.4-1.6s-0.6-0.5-1-0.5
			c-0.4,0-0.7,0.2-1,0.5C159.5,196.2,159.3,196.7,159.3,197.4z"/>
		<path d="M167.9,198.3l0.9,0.1c-0.1,0.5-0.4,0.9-0.8,1.2s-0.9,0.4-1.5,0.4c-0.8,0-1.4-0.2-1.8-0.7c-0.4-0.5-0.7-1.1-0.7-2
			c0-0.9,0.2-1.5,0.7-2s1-0.7,1.7-0.7c0.7,0,1.3,0.2,1.7,0.7s0.7,1.1,0.7,2c0,0.1,0,0.1,0,0.2h-3.9c0,0.6,0.2,1,0.5,1.3
			s0.7,0.5,1.1,0.5c0.3,0,0.6-0.1,0.8-0.3S167.7,198.7,167.9,198.3z M165,196.9h2.9c0-0.4-0.1-0.8-0.3-1c-0.3-0.3-0.6-0.5-1.1-0.5
			c-0.4,0-0.7,0.1-1,0.4C165.1,196.1,165,196.5,165,196.9z"/>
		<path d="M169.7,200.4l0.9,0.1c0,0.3,0.1,0.5,0.3,0.6c0.2,0.2,0.5,0.2,0.9,0.2c0.4,0,0.7-0.1,0.9-0.2s0.4-0.4,0.4-0.7
			c0-0.2,0.1-0.6,0.1-1.1c-0.4,0.5-0.9,0.7-1.4,0.7c-0.7,0-1.3-0.3-1.7-0.8s-0.6-1.1-0.6-1.9c0-0.5,0.1-1,0.3-1.4s0.4-0.7,0.8-1
			c0.3-0.2,0.7-0.3,1.2-0.3c0.6,0,1.1,0.2,1.5,0.7v-0.6h0.8v4.5c0,0.8-0.1,1.4-0.2,1.7c-0.2,0.3-0.4,0.6-0.8,0.8
			c-0.4,0.2-0.8,0.3-1.3,0.3c-0.6,0-1.1-0.1-1.5-0.4S169.7,201,169.7,200.4z M170.4,197.3c0,0.7,0.1,1.2,0.4,1.5s0.6,0.5,1,0.5
			c0.4,0,0.7-0.2,1-0.5s0.4-0.8,0.4-1.5c0-0.6-0.1-1.1-0.4-1.4c-0.3-0.3-0.6-0.5-1-0.5c-0.4,0-0.7,0.2-1,0.5
			S170.4,196.7,170.4,197.3z"/>
		<path d="M175.4,200v-5.2h0.8v0.8c0.2-0.4,0.4-0.6,0.6-0.7c0.2-0.1,0.4-0.2,0.6-0.2c0.3,0,0.6,0.1,0.9,0.3l-0.3,0.8
			c-0.2-0.1-0.4-0.2-0.6-0.2c-0.2,0-0.4,0.1-0.5,0.2s-0.3,0.3-0.3,0.5c-0.1,0.3-0.1,0.7-0.1,1v2.7H175.4z"/>
		<path d="M182.3,198.3l0.9,0.1c-0.1,0.5-0.4,0.9-0.8,1.2s-0.9,0.4-1.5,0.4c-0.8,0-1.4-0.2-1.8-0.7c-0.4-0.5-0.7-1.1-0.7-2
			c0-0.9,0.2-1.5,0.7-2s1-0.7,1.7-0.7c0.7,0,1.3,0.2,1.7,0.7s0.7,1.1,0.7,2c0,0.1,0,0.1,0,0.2h-3.9c0,0.6,0.2,1,0.5,1.3
			s0.7,0.5,1.1,0.5c0.3,0,0.6-0.1,0.8-0.3S182.2,198.7,182.3,198.3z M179.4,196.9h2.9c0-0.4-0.1-0.8-0.3-1c-0.3-0.3-0.6-0.5-1.1-0.5
			c-0.4,0-0.7,0.1-1,0.4C179.6,196.1,179.5,196.5,179.4,196.9z"/>
		<path d="M187.9,198.3l0.9,0.1c-0.1,0.5-0.4,0.9-0.8,1.2s-0.9,0.4-1.5,0.4c-0.8,0-1.4-0.2-1.8-0.7c-0.4-0.5-0.7-1.1-0.7-2
			c0-0.9,0.2-1.5,0.7-2s1-0.7,1.7-0.7c0.7,0,1.3,0.2,1.7,0.7s0.7,1.1,0.7,2c0,0.1,0,0.1,0,0.2h-3.9c0,0.6,0.2,1,0.5,1.3
			s0.7,0.5,1.1,0.5c0.3,0,0.6-0.1,0.8-0.3S187.7,198.7,187.9,198.3z M185,196.9h2.9c0-0.4-0.1-0.8-0.3-1c-0.3-0.3-0.6-0.5-1.1-0.5
			c-0.4,0-0.7,0.1-1,0.4C185.2,196.1,185,196.5,185,196.9z"/>
		<path d="M189.5,198.4l0.9-0.1c0,0.3,0.2,0.6,0.4,0.8c0.2,0.2,0.5,0.3,0.9,0.3c0.4,0,0.7-0.1,0.9-0.2s0.3-0.4,0.3-0.6
			c0-0.2-0.1-0.4-0.3-0.5c-0.1-0.1-0.4-0.2-0.9-0.3c-0.6-0.2-1.1-0.3-1.3-0.4c-0.2-0.1-0.4-0.3-0.6-0.5c-0.1-0.2-0.2-0.4-0.2-0.7
			c0-0.2,0.1-0.4,0.2-0.6c0.1-0.2,0.2-0.4,0.4-0.5c0.1-0.1,0.3-0.2,0.6-0.3c0.2-0.1,0.5-0.1,0.8-0.1c0.4,0,0.8,0.1,1.1,0.2
			c0.3,0.1,0.5,0.3,0.7,0.5s0.2,0.5,0.3,0.8l-0.9,0.1c0-0.3-0.2-0.5-0.3-0.6c-0.2-0.1-0.5-0.2-0.8-0.2c-0.4,0-0.7,0.1-0.9,0.2
			s-0.3,0.3-0.3,0.5c0,0.1,0,0.2,0.1,0.3c0.1,0.1,0.2,0.2,0.3,0.2c0.1,0,0.3,0.1,0.8,0.2c0.6,0.2,1.1,0.3,1.3,0.4
			c0.2,0.1,0.4,0.3,0.6,0.5s0.2,0.5,0.2,0.8c0,0.3-0.1,0.6-0.3,0.8c-0.2,0.3-0.4,0.5-0.7,0.6s-0.7,0.2-1.1,0.2
			c-0.7,0-1.2-0.1-1.5-0.4C189.9,199.4,189.6,199,189.5,198.4z"/>
	</g>
	<g>
		<path d="M242.6,197.5l0.9,0.2c-0.2,0.8-0.6,1.4-1.1,1.8c-0.5,0.4-1.1,0.6-1.9,0.6c-0.8,0-1.4-0.2-1.9-0.5
			c-0.5-0.3-0.9-0.8-1.1-1.4c-0.3-0.6-0.4-1.2-0.4-1.9c0-0.7,0.1-1.4,0.4-2c0.3-0.6,0.7-1,1.2-1.3c0.5-0.3,1.1-0.4,1.7-0.4
			c0.7,0,1.3,0.2,1.8,0.5s0.8,0.9,1,1.5l-0.9,0.2c-0.2-0.5-0.4-0.9-0.7-1.1s-0.7-0.4-1.2-0.4c-0.5,0-1,0.1-1.4,0.4
			c-0.4,0.3-0.6,0.6-0.8,1.1s-0.2,0.9-0.2,1.4c0,0.6,0.1,1.1,0.3,1.6c0.2,0.5,0.5,0.8,0.8,1s0.8,0.3,1.2,0.3c0.5,0,1-0.2,1.3-0.5
			S242.5,198.1,242.6,197.5z"/>
		<path d="M248.1,198.3l0.9,0.1c-0.1,0.5-0.4,0.9-0.8,1.2s-0.9,0.4-1.5,0.4c-0.8,0-1.4-0.2-1.8-0.7c-0.4-0.5-0.7-1.1-0.7-2
			c0-0.9,0.2-1.5,0.7-2s1-0.7,1.7-0.7c0.7,0,1.3,0.2,1.7,0.7s0.7,1.1,0.7,2c0,0.1,0,0.1,0,0.2h-3.9c0,0.6,0.2,1,0.5,1.3
			s0.7,0.5,1.1,0.5c0.3,0,0.6-0.1,0.8-0.3S248,198.7,248.1,198.3z M245.2,196.9h2.9c0-0.4-0.1-0.8-0.3-1c-0.3-0.3-0.6-0.5-1.1-0.5
			c-0.4,0-0.7,0.1-1,0.4C245.4,196.1,245.3,196.5,245.2,196.9z"/>
		<path d="M250.1,200v-7.2h0.9v7.2H250.1z"/>
		<path d="M252,198.4l0.9-0.1c0,0.3,0.2,0.6,0.4,0.8c0.2,0.2,0.5,0.3,0.9,0.3c0.4,0,0.7-0.1,0.9-0.2s0.3-0.4,0.3-0.6
			c0-0.2-0.1-0.4-0.3-0.5c-0.1-0.1-0.4-0.2-0.9-0.3c-0.6-0.2-1.1-0.3-1.3-0.4c-0.2-0.1-0.4-0.3-0.6-0.5c-0.1-0.2-0.2-0.4-0.2-0.7
			c0-0.2,0.1-0.4,0.2-0.6c0.1-0.2,0.2-0.4,0.4-0.5c0.1-0.1,0.3-0.2,0.6-0.3c0.2-0.1,0.5-0.1,0.8-0.1c0.4,0,0.8,0.1,1.1,0.2
			c0.3,0.1,0.5,0.3,0.7,0.5s0.2,0.5,0.3,0.8l-0.9,0.1c0-0.3-0.2-0.5-0.3-0.6c-0.2-0.1-0.5-0.2-0.8-0.2c-0.4,0-0.7,0.1-0.9,0.2
			s-0.3,0.3-0.3,0.5c0,0.1,0,0.2,0.1,0.3c0.1,0.1,0.2,0.2,0.3,0.2c0.1,0,0.3,0.1,0.8,0.2c0.6,0.2,1.1,0.3,1.3,0.4
			c0.2,0.1,0.4,0.3,0.6,0.5s0.2,0.5,0.2,0.8c0,0.3-0.1,0.6-0.3,0.8c-0.2,0.3-0.4,0.5-0.7,0.6s-0.7,0.2-1.1,0.2
			c-0.7,0-1.2-0.1-1.5-0.4C252.3,199.4,252.1,199,252,198.4z"/>
		<path d="M257.4,193.8v-1h0.9v1H257.4z M257.4,200v-5.2h0.9v5.2H257.4z"/>
		<path d="M263,200v-0.8c-0.4,0.6-1,0.9-1.6,0.9c-0.3,0-0.6-0.1-0.9-0.2c-0.3-0.1-0.5-0.3-0.6-0.4c-0.1-0.2-0.2-0.4-0.3-0.7
			c0-0.2-0.1-0.4-0.1-0.8v-3.2h0.9v2.9c0,0.5,0,0.8,0.1,0.9c0.1,0.2,0.2,0.4,0.4,0.5s0.4,0.2,0.7,0.2s0.5-0.1,0.7-0.2
			s0.4-0.3,0.5-0.6c0.1-0.2,0.1-0.6,0.1-1v-2.8h0.9v5.2H263z"/>
		<path d="M264.8,198.4l0.9-0.1c0,0.3,0.2,0.6,0.4,0.8c0.2,0.2,0.5,0.3,0.9,0.3c0.4,0,0.7-0.1,0.9-0.2s0.3-0.4,0.3-0.6
			c0-0.2-0.1-0.4-0.3-0.5c-0.1-0.1-0.4-0.2-0.9-0.3c-0.6-0.2-1.1-0.3-1.3-0.4c-0.2-0.1-0.4-0.3-0.6-0.5c-0.1-0.2-0.2-0.4-0.2-0.7
			c0-0.2,0.1-0.4,0.2-0.6c0.1-0.2,0.2-0.4,0.4-0.5c0.1-0.1,0.3-0.2,0.6-0.3c0.2-0.1,0.5-0.1,0.8-0.1c0.4,0,0.8,0.1,1.1,0.2
			c0.3,0.1,0.5,0.3,0.7,0.5s0.2,0.5,0.3,0.8l-0.9,0.1c0-0.3-0.2-0.5-0.3-0.6c-0.2-0.1-0.5-0.2-0.8-0.2c-0.4,0-0.7,0.1-0.9,0.2
			s-0.3,0.3-0.3,0.5c0,0.1,0,0.2,0.1,0.3c0.1,0.1,0.2,0.2,0.3,0.2c0.1,0,0.3,0.1,0.8,0.2c0.6,0.2,1.1,0.3,1.3,0.4
			c0.2,0.1,0.4,0.3,0.6,0.5s0.2,0.5,0.2,0.8c0,0.3-0.1,0.6-0.3,0.8c-0.2,0.3-0.4,0.5-0.7,0.6s-0.7,0.2-1.1,0.2
			c-0.7,0-1.2-0.1-1.5-0.4C265.1,199.4,264.9,199,264.8,198.4z"/>
	</g>
</g>
</svg>
