<?xml version="1.0" encoding="utf-8"?>
<!-- Generator: Adobe Illustrator 17.1.0, SVG Export Plug-In . SVG Version: 6.00 Build 0)  -->
<!DOCTYPE svg PUBLIC "-//W3C//DTD SVG 1.1//EN" "http://www.w3.org/Graphics/SVG/1.1/DTD/svg11.dtd">
<svg version="1.1" xmlns="http://www.w3.org/2000/svg" xmlns:xlink="http://www.w3.org/1999/xlink" x="0px" y="0px"
	 viewBox="0 0 600 400" enable-background="new 0 0 600 400" xml:space="preserve">
<g id="www_1_">
	<rect x="22.3" y="195.6" fill="#E2E2E2" width="139" height="190.7"/>
	<rect x="347" y="82.1" fill="#E2E2E2" width="230.5" height="70.9"/>
	<path d="M165.2,113.4H80.8c-7.5,0-13.6-6.1-13.6-13.6c0-6.8,5.1-12.7,11.9-13.5l4-0.5l0.3-4c1.3-14.9,14-26.6,29-26.6
		c8.9,0,17.3,4,22.8,11l2.4,3l3.5-1.6c1.9-0.9,3.9-1.3,5.9-1.3c6.2,0,11.8,4.2,13.7,10.1l1,3.5l3.6,0.1c8.7,0.2,15.8,7.7,15.8,16.7
		C181.3,105.9,174.1,113.4,165.2,113.4z M165.6,75c-2.4-7.9-9.7-13.7-18.4-13.7c-2.9,0-5.6,0.6-8,1.8c-6.2-7.9-15.9-12.9-26.7-12.9
		c-17.8,0-32.5,13.7-34,31.2c-9.2,1.2-16.3,9-16.3,18.4c0,10.3,8.3,18.6,18.6,18.6h84.3c11.6,0,21.1-9.7,21.1-21.7
		C186.3,84.8,177.1,75.2,165.6,75z"/>
	<path d="M130.1,82.1c-0.7,0-1.3-0.6-1.3-1.3c0-0.7,0.6-1.3,1.3-1.3c0.7,0,1.3,0.6,1.3,1.3C131.5,81.5,130.9,82.1,130.1,82.1z
		 M123.5,82.2h-18.4v-2.9h18.4V82.2z M132.5,76.1h-29.2c-0.8,0-1.5,0.7-1.5,1.5V84c0,0.8,0.7,1.5,1.5,1.5h29.2
		c0.8,0,1.5-0.7,1.5-1.5v-6.4C134,76.8,133.4,76.1,132.5,76.1z M130.1,103.8c-0.7,0-1.3-0.6-1.3-1.3c0-0.7,0.6-1.3,1.3-1.3
		c0.7,0,1.3,0.6,1.3,1.3C131.5,103.2,130.9,103.8,130.1,103.8z M123.5,103.9h-18.4V101h18.4V103.9z M132.5,97.8h-29.2
		c-0.8,0-1.5,0.7-1.5,1.5v6.4c0,0.8,0.7,1.5,1.5,1.5h29.2c0.8,0,1.5-0.7,1.5-1.5v-6.4C134,98.4,133.4,97.8,132.5,97.8z M130.1,93.1
		c-0.7,0-1.3-0.6-1.3-1.3c0-0.7,0.6-1.3,1.3-1.3c0.7,0,1.3,0.6,1.3,1.3C131.5,92.5,130.9,93.1,130.1,93.1z M123.5,93.2h-18.4v-2.9
		h18.4V93.2z M132.5,87h-29.2c-0.8,0-1.5,0.7-1.5,1.5v6.4c0,0.8,0.7,1.5,1.5,1.5h29.2c0.8,0,1.5-0.7,1.5-1.5v-6.4
		C134,87.7,133.4,87,132.5,87z"/>
	<line x1="106.9" y1="118" x2="114.4" y2="118"/>
	<g>
		<path fill="none" stroke="#000000" stroke-miterlimit="10" d="M470.8,327.8h-38.6v-21.6h38.7L470.8,327.8z M433.8,302.5
			c0.9,0,1.6,0.5,1.6,1.1c0,0.6-0.7,1.1-1.6,1.1c-0.9,0-1.6-0.5-1.6-1.1C432.2,303,432.9,302.5,433.8,302.5z M438.5,302.5
			c0.9,0,1.6,0.5,1.6,1.1c0,0.6-0.7,1.1-1.6,1.1c-0.9,0-1.6-0.5-1.6-1.1C436.9,303,437.6,302.5,438.5,302.5z M443.2,302.5
			c0.9,0,1.6,0.5,1.6,1.1c0,0.6-0.7,1.1-1.6,1.1c-0.9,0-1.6-0.5-1.6-1.1C441.6,303,442.3,302.5,443.2,302.5z M470.8,301h-38.7
			c-1.2,0-2.1,0.7-2.1,1.5v26c0,0.8,0.9,1.5,2.1,1.5h38.7c1.2,0,2.1-0.7,2.1-1.5v-26C472.9,301.7,472,301,470.8,301z"/>
		<rect x="434.8" y="308.8" fill="none" stroke="#000000" stroke-miterlimit="10" width="15.7" height="1.5"/>
		<rect x="434.8" y="315.5" fill="none" stroke="#000000" stroke-miterlimit="10" width="15.7" height="1.5"/>
		<rect x="434.8" y="312.2" fill="none" stroke="#000000" stroke-miterlimit="10" width="20.4" height="1.5"/>
	</g>
	<path d="M413,319.6c0.2-0.2,0.1-0.4,0-0.6C413.1,319.2,413.1,319.5,413,319.6z"/>
	<path d="M464,348.1c-0.1,0.1-0.3,0.2-0.7,0.2c-0.1,0-0.2,0-0.3,0c-0.3,0-0.8,0-1.4,0c-0.3,0-0.7,0-1.1,0c-0.6,0-1.4,0-2.4,0
		c-1.4,0-3.1,0-4.6,0c-2.7,0-5.4,0-7.1,0c-0.5,0-0.8,0-1.1,0c-1,0-1.7,0-2.1,0c-0.1,0-0.1,0-0.2,0c-0.1,0-0.1,0-0.2,0
		c-1.3-0.2-0.3-1.2-0.3-1.2s1.6-1.2,2.4-2.5c0,0,0.2,0,0.4-1.9c0.3-2.7,0.6-4.8,0.6-4.8h14.5c0,0,0.3,2.1,0.6,4.8
		c0.2,1.9,0.4,1.9,0.4,1.9c0.7,1.2,2.2,2.3,2.3,2.5c0,0,0,0,0,0s0.1,0,0.1,0.1C464,347.4,464.2,347.8,464,348.1z"/>
	<path d="M412.9,318.7c0,0.1,0.1,0.1,0.1,0.2C413,318.8,413,318.8,412.9,318.7z"/>
	<path d="M486.7,296.7h-67.3v38.1h67.3L486.7,296.7L486.7,296.7z M453.1,338.3c-2.4,0-33.4,0.1-34.9,0c-1.6-0.1-1.7-1.7-1.7-1.7
		v-41.2c0-1.3,1.7-1.4,1.7-1.4h69.7c0,0,1.7,0.1,1.7,1.4v41.2c0,0-0.1,1.6-1.7,1.7C486.4,338.4,456.6,338.3,453.1,338.3"/>
	<g>
		<path d="M57.3,128.2v-1.6h1.4v1.6H57.3z M57.3,138v-8.3h1.4v8.3H57.3z"/>
		<path d="M66.2,138v-1c-0.5,0.8-1.3,1.2-2.3,1.2c-0.7,0-1.3-0.2-1.8-0.5s-1-0.9-1.3-1.5c-0.3-0.7-0.5-1.4-0.5-2.3
			c0-0.8,0.1-1.6,0.4-2.3c0.3-0.7,0.7-1.2,1.2-1.6c0.6-0.4,1.2-0.5,1.9-0.5c0.5,0,0.9,0.1,1.3,0.3s0.7,0.5,1,0.8v-4.1h1.4V138H66.2z
			 M61.8,133.9c0,1.1,0.2,1.9,0.7,2.4c0.4,0.5,1,0.8,1.6,0.8c0.6,0,1.1-0.3,1.6-0.8c0.4-0.5,0.6-1.3,0.6-2.3c0-1.1-0.2-2-0.7-2.5
			s-1-0.8-1.6-0.8c-0.6,0-1.1,0.3-1.6,0.8C62,132,61.8,132.8,61.8,133.9z"/>
		<path d="M69.7,138v-8.3H71v1.3c0.3-0.6,0.6-1,0.9-1.2s0.6-0.3,0.9-0.3c0.5,0,1,0.2,1.4,0.5l-0.5,1.3c-0.3-0.2-0.7-0.3-1-0.3
			c-0.3,0-0.6,0.1-0.8,0.3c-0.2,0.2-0.4,0.4-0.5,0.8c-0.2,0.5-0.2,1-0.2,1.6v4.3H69.7z"/>
		<path d="M80.5,137c-0.5,0.4-1,0.8-1.5,0.9c-0.5,0.2-1,0.3-1.6,0.3c-0.9,0-1.6-0.2-2.1-0.7c-0.5-0.4-0.7-1-0.7-1.7
			c0-0.4,0.1-0.8,0.3-1.1c0.2-0.3,0.4-0.6,0.7-0.8c0.3-0.2,0.6-0.4,1-0.5c0.3-0.1,0.7-0.1,1.2-0.2c1.1-0.1,2-0.3,2.5-0.5
			c0-0.2,0-0.3,0-0.4c0-0.6-0.1-1-0.4-1.2c-0.4-0.3-0.9-0.5-1.6-0.5c-0.7,0-1.1,0.1-1.5,0.3c-0.3,0.2-0.5,0.6-0.7,1.2l-1.4-0.2
			c0.1-0.6,0.3-1.1,0.6-1.4c0.3-0.4,0.7-0.6,1.2-0.8c0.5-0.2,1.2-0.3,1.9-0.3c0.7,0,1.3,0.1,1.7,0.2c0.4,0.2,0.8,0.4,1,0.6
			c0.2,0.3,0.4,0.6,0.4,1c0,0.2,0.1,0.7,0.1,1.3v1.9c0,1.3,0,2.1,0.1,2.5c0.1,0.3,0.2,0.7,0.4,1h-1.5
			C80.6,137.7,80.5,137.4,80.5,137z M80.4,133.8c-0.5,0.2-1.3,0.4-2.3,0.5c-0.6,0.1-1,0.2-1.2,0.3c-0.2,0.1-0.4,0.3-0.6,0.5
			c-0.1,0.2-0.2,0.4-0.2,0.7c0,0.4,0.1,0.7,0.4,0.9c0.3,0.2,0.7,0.4,1.2,0.4c0.5,0,1-0.1,1.4-0.4c0.4-0.2,0.7-0.6,0.9-1
			c0.2-0.3,0.2-0.8,0.2-1.4V133.8z"/>
		<path d="M87,136.8l0.2,1.2c-0.4,0.1-0.8,0.1-1.1,0.1c-0.5,0-0.9-0.1-1.2-0.2s-0.5-0.4-0.6-0.6c-0.1-0.3-0.2-0.8-0.2-1.7v-4.8h-1
			v-1.1h1v-2.1l1.4-0.8v2.9H87v1.1h-1.4v4.9c0,0.4,0,0.7,0.1,0.8c0,0.1,0.1,0.2,0.2,0.3c0.1,0.1,0.3,0.1,0.5,0.1
			C86.6,136.8,86.8,136.8,87,136.8z"/>
		<path d="M88.4,138v-11.5h1.4v4.1c0.7-0.8,1.5-1.1,2.5-1.1c0.6,0,1.1,0.1,1.6,0.4s0.8,0.6,1,1c0.2,0.4,0.3,1,0.3,1.9v5.3h-1.4v-5.3
			c0-0.7-0.2-1.2-0.5-1.5s-0.7-0.5-1.3-0.5c-0.4,0-0.8,0.1-1.2,0.3c-0.4,0.2-0.6,0.5-0.8,0.9c-0.2,0.4-0.2,0.9-0.2,1.5v4.5H88.4z"/>
		<path d="M103,135.3l1.5,0.2c-0.2,0.8-0.7,1.5-1.3,2c-0.6,0.5-1.4,0.7-2.4,0.7c-1.2,0-2.2-0.4-2.9-1.1c-0.7-0.7-1.1-1.8-1.1-3.1
			c0-1.4,0.4-2.5,1.1-3.2c0.7-0.8,1.7-1.2,2.8-1.2c1.1,0,2,0.4,2.7,1.1c0.7,0.8,1.1,1.8,1.1,3.2c0,0.1,0,0.2,0,0.4h-6.2
			c0.1,0.9,0.3,1.6,0.8,2.1c0.5,0.5,1,0.7,1.7,0.7c0.5,0,1-0.1,1.3-0.4C102.5,136.4,102.8,135.9,103,135.3z M98.4,133.1h4.6
			c-0.1-0.7-0.2-1.2-0.5-1.6c-0.4-0.5-1-0.8-1.7-0.8c-0.6,0-1.2,0.2-1.6,0.6C98.7,131.8,98.4,132.3,98.4,133.1z"/>
		<path d="M106.2,138v-8.3h1.3v1.3c0.3-0.6,0.6-1,0.9-1.2s0.6-0.3,0.9-0.3c0.5,0,1,0.2,1.4,0.5l-0.5,1.3c-0.3-0.2-0.7-0.3-1-0.3
			c-0.3,0-0.6,0.1-0.8,0.3c-0.2,0.2-0.4,0.4-0.5,0.8c-0.2,0.5-0.2,1-0.2,1.6v4.3H106.2z"/>
		<path d="M112.8,138h-1.3v-11.5h1.4v4.1c0.6-0.7,1.4-1.1,2.3-1.1c0.5,0,1,0.1,1.4,0.3c0.5,0.2,0.8,0.5,1.1,0.9
			c0.3,0.4,0.5,0.8,0.7,1.3c0.2,0.5,0.2,1.1,0.2,1.7c0,1.4-0.4,2.5-1.1,3.3c-0.7,0.8-1.5,1.2-2.5,1.2c-1,0-1.7-0.4-2.3-1.2V138z
			 M112.8,133.8c0,1,0.1,1.7,0.4,2.2c0.4,0.7,1,1.1,1.8,1.1c0.6,0,1.1-0.3,1.6-0.8c0.4-0.5,0.7-1.3,0.7-2.4c0-1.1-0.2-1.9-0.6-2.4
			s-0.9-0.8-1.6-0.8c-0.6,0-1.1,0.3-1.6,0.8C113.1,132,112.8,132.8,112.8,133.8z"/>
		<path d="M126.1,135.3l1.5,0.2c-0.2,0.8-0.7,1.5-1.3,2c-0.6,0.5-1.4,0.7-2.4,0.7c-1.2,0-2.2-0.4-2.9-1.1c-0.7-0.7-1.1-1.8-1.1-3.1
			c0-1.4,0.4-2.5,1.1-3.2c0.7-0.8,1.7-1.2,2.8-1.2c1.1,0,2,0.4,2.7,1.1c0.7,0.8,1.1,1.8,1.1,3.2c0,0.1,0,0.2,0,0.4h-6.2
			c0.1,0.9,0.3,1.6,0.8,2.1c0.5,0.5,1,0.7,1.7,0.7c0.5,0,1-0.1,1.3-0.4C125.6,136.4,125.9,135.9,126.1,135.3z M121.5,133.1h4.6
			c-0.1-0.7-0.2-1.2-0.5-1.6c-0.4-0.5-1-0.8-1.7-0.8c-0.6,0-1.2,0.2-1.6,0.6C121.8,131.8,121.6,132.3,121.5,133.1z"/>
		<path d="M130.9,138l-2.5-8.3h1.5l1.3,4.8l0.5,1.8c0-0.1,0.2-0.7,0.4-1.7l1.3-4.9h1.4l1.2,4.8l0.4,1.6l0.5-1.6l1.4-4.8h1.4
			l-2.6,8.3h-1.5l-1.3-5l-0.3-1.4l-1.7,6.4H130.9z"/>
		<path d="M140.9,138v-8.3h1.3v1.3c0.3-0.6,0.6-1,0.9-1.2s0.6-0.3,0.9-0.3c0.5,0,1,0.2,1.4,0.5l-0.5,1.3c-0.3-0.2-0.7-0.3-1-0.3
			c-0.3,0-0.6,0.1-0.8,0.3c-0.2,0.2-0.4,0.4-0.5,0.8c-0.2,0.5-0.2,1-0.2,1.6v4.3H140.9z"/>
		<path d="M146.2,128.2v-1.6h1.4v1.6H146.2z M146.2,138v-8.3h1.4v8.3H146.2z"/>
		<path d="M152.9,136.8l0.2,1.2c-0.4,0.1-0.8,0.1-1.1,0.1c-0.5,0-0.9-0.1-1.2-0.2s-0.5-0.4-0.6-0.6c-0.1-0.3-0.2-0.8-0.2-1.7v-4.8
			h-1v-1.1h1v-2.1l1.4-0.8v2.9h1.4v1.1h-1.4v4.9c0,0.4,0,0.7,0.1,0.8c0,0.1,0.1,0.2,0.2,0.3c0.1,0.1,0.3,0.1,0.5,0.1
			C152.4,136.8,152.6,136.8,152.9,136.8z"/>
		<path d="M154.2,128.2v-1.6h1.4v1.6H154.2z M154.2,138v-8.3h1.4v8.3H154.2z"/>
		<path d="M157.8,138v-8.3h1.3v1.2c0.6-0.9,1.5-1.4,2.6-1.4c0.5,0,1,0.1,1.4,0.3c0.4,0.2,0.7,0.4,0.9,0.7c0.2,0.3,0.4,0.6,0.4,1
			c0.1,0.3,0.1,0.7,0.1,1.4v5.1h-1.4v-5c0-0.6-0.1-1-0.2-1.3c-0.1-0.3-0.3-0.5-0.6-0.7c-0.3-0.2-0.6-0.3-1-0.3
			c-0.6,0-1.1,0.2-1.6,0.6c-0.4,0.4-0.7,1.1-0.7,2.2v4.5H157.8z"/>
		<path d="M166.4,138.7l1.4,0.2c0.1,0.4,0.2,0.7,0.5,0.9c0.3,0.3,0.8,0.4,1.4,0.4c0.7,0,1.2-0.1,1.5-0.4c0.4-0.3,0.6-0.6,0.7-1.1
			c0.1-0.3,0.1-0.9,0.1-1.8c-0.6,0.7-1.4,1.1-2.3,1.1c-1.1,0-2-0.4-2.6-1.2c-0.6-0.8-0.9-1.8-0.9-3c0-0.8,0.1-1.5,0.4-2.2
			c0.3-0.7,0.7-1.2,1.2-1.6c0.5-0.4,1.2-0.5,1.9-0.5c1,0,1.8,0.4,2.4,1.2v-1h1.3v7.2c0,1.3-0.1,2.2-0.4,2.7c-0.3,0.5-0.7,1-1.2,1.3
			s-1.3,0.5-2.1,0.5c-1,0-1.8-0.2-2.4-0.7S166.4,139.6,166.4,138.7z M167.6,133.7c0,1.1,0.2,1.9,0.6,2.4c0.4,0.5,1,0.8,1.6,0.8
			c0.6,0,1.2-0.2,1.6-0.7c0.4-0.5,0.7-1.3,0.7-2.3c0-1-0.2-1.8-0.7-2.3c-0.5-0.5-1-0.8-1.6-0.8c-0.6,0-1.2,0.3-1.6,0.8
			S167.6,132.7,167.6,133.7z"/>
		<path d="M176,138v-1.6h1.6v1.6H176z"/>
		<path d="M185.4,135l1.4,0.2c-0.2,1-0.5,1.7-1.2,2.2c-0.6,0.5-1.4,0.8-2.3,0.8c-1.1,0-2-0.4-2.7-1.1c-0.7-0.7-1-1.8-1-3.2
			c0-0.9,0.1-1.7,0.4-2.4s0.7-1.2,1.4-1.5c0.6-0.3,1.3-0.5,2-0.5c0.9,0,1.6,0.2,2.2,0.7c0.6,0.5,0.9,1.1,1.1,1.9l-1.4,0.2
			c-0.1-0.6-0.4-1-0.7-1.3c-0.3-0.3-0.7-0.4-1.2-0.4c-0.7,0-1.3,0.3-1.7,0.8c-0.4,0.5-0.7,1.3-0.7,2.4c0,1.1,0.2,1.9,0.6,2.4
			c0.4,0.5,1,0.8,1.7,0.8c0.6,0,1-0.2,1.4-0.5C185.1,136.2,185.3,135.7,185.4,135z"/>
		<path d="M187.5,133.9c0-1.5,0.4-2.7,1.3-3.4c0.7-0.6,1.6-0.9,2.6-0.9c1.1,0,2.1,0.4,2.8,1.1c0.7,0.7,1.1,1.8,1.1,3.1
			c0,1.1-0.2,1.9-0.5,2.5c-0.3,0.6-0.8,1.1-1.4,1.4c-0.6,0.3-1.3,0.5-2,0.5c-1.2,0-2.1-0.4-2.8-1.1
			C187.9,136.3,187.5,135.3,187.5,133.9z M188.9,133.9c0,1.1,0.2,1.9,0.7,2.4c0.5,0.5,1,0.8,1.8,0.8c0.7,0,1.3-0.3,1.7-0.8
			c0.5-0.5,0.7-1.3,0.7-2.4c0-1-0.2-1.8-0.7-2.3c-0.5-0.5-1-0.8-1.7-0.8c-0.7,0-1.3,0.3-1.8,0.8C189.2,132,188.9,132.8,188.9,133.9z
			"/>
		<path d="M196.9,138v-8.3h1.3v1.2c0.3-0.4,0.6-0.7,1-1c0.4-0.2,0.9-0.4,1.5-0.4c0.6,0,1.1,0.1,1.5,0.4c0.4,0.3,0.7,0.6,0.8,1.1
			c0.7-1,1.5-1.5,2.6-1.5c0.8,0,1.5,0.2,1.9,0.7c0.4,0.5,0.7,1.2,0.7,2.1v5.7h-1.4v-5.2c0-0.6,0-1-0.1-1.2c-0.1-0.2-0.3-0.4-0.5-0.6
			c-0.2-0.2-0.5-0.2-0.8-0.2c-0.6,0-1.1,0.2-1.5,0.6c-0.4,0.4-0.6,1-0.6,1.9v4.8h-1.4v-5.4c0-0.6-0.1-1.1-0.3-1.4
			c-0.2-0.3-0.6-0.5-1.1-0.5c-0.4,0-0.8,0.1-1.1,0.3c-0.3,0.2-0.6,0.5-0.7,0.9c-0.2,0.4-0.2,1-0.2,1.7v4.3H196.9z"/>
	</g>
	<g>
		<path d="M428,368.2v-11.5h4.3c0.9,0,1.6,0.1,2.1,0.3c0.5,0.2,0.9,0.6,1.2,1.1c0.3,0.5,0.4,1,0.4,1.5c0,0.5-0.1,1-0.4,1.4
			c-0.3,0.4-0.7,0.8-1.2,1c0.7,0.2,1.2,0.5,1.6,1c0.4,0.5,0.6,1.1,0.6,1.7c0,0.5-0.1,1-0.3,1.5s-0.5,0.8-0.8,1.1s-0.8,0.4-1.3,0.6
			c-0.5,0.1-1.1,0.2-1.8,0.2H428z M429.5,361.6h2.5c0.7,0,1.2,0,1.4-0.1c0.4-0.1,0.7-0.3,0.9-0.6s0.3-0.6,0.3-1c0-0.4-0.1-0.7-0.3-1
			s-0.4-0.5-0.8-0.6c-0.3-0.1-0.9-0.2-1.7-0.2h-2.3V361.6z M429.5,366.9h2.9c0.5,0,0.8,0,1-0.1c0.3-0.1,0.6-0.2,0.9-0.3
			c0.2-0.1,0.4-0.4,0.6-0.6c0.2-0.3,0.2-0.6,0.2-1c0-0.4-0.1-0.8-0.3-1.1c-0.2-0.3-0.5-0.5-0.9-0.7c-0.4-0.1-0.9-0.2-1.7-0.2h-2.6
			V366.9z"/>
		<path d="M438.5,368.2v-8.3h1.3v1.3c0.3-0.6,0.6-1,0.9-1.2s0.6-0.3,0.9-0.3c0.5,0,1,0.2,1.4,0.5l-0.5,1.3c-0.3-0.2-0.7-0.3-1-0.3
			c-0.3,0-0.6,0.1-0.8,0.3c-0.2,0.2-0.4,0.4-0.5,0.8c-0.2,0.5-0.2,1-0.2,1.6v4.3H438.5z"/>
		<path d="M443.3,364.1c0-1.5,0.4-2.7,1.3-3.4c0.7-0.6,1.6-0.9,2.6-0.9c1.1,0,2.1,0.4,2.8,1.1c0.7,0.7,1.1,1.8,1.1,3.1
			c0,1.1-0.2,1.9-0.5,2.5c-0.3,0.6-0.8,1.1-1.4,1.4c-0.6,0.3-1.3,0.5-2,0.5c-1.2,0-2.1-0.4-2.8-1.1
			C443.7,366.5,443.3,365.5,443.3,364.1z M444.8,364.1c0,1.1,0.2,1.9,0.7,2.4c0.5,0.5,1,0.8,1.8,0.8c0.7,0,1.3-0.3,1.7-0.8
			s0.7-1.3,0.7-2.4c0-1-0.2-1.8-0.7-2.3c-0.5-0.5-1-0.8-1.7-0.8c-0.7,0-1.3,0.3-1.8,0.8C445,362.2,444.8,363,444.8,364.1z"/>
		<path d="M454.3,368.2l-2.5-8.3h1.5l1.3,4.8l0.5,1.8c0-0.1,0.2-0.7,0.4-1.7l1.3-4.9h1.4l1.2,4.8l0.4,1.6l0.5-1.6l1.4-4.8h1.4
			l-2.6,8.3h-1.5l-1.3-5l-0.3-1.4l-1.7,6.4H454.3z"/>
		<path d="M463.7,365.7l1.4-0.2c0.1,0.6,0.3,1,0.7,1.3s0.9,0.4,1.5,0.4c0.6,0,1.1-0.1,1.4-0.4c0.3-0.3,0.5-0.6,0.5-0.9
			c0-0.3-0.1-0.6-0.4-0.8c-0.2-0.1-0.7-0.3-1.4-0.5c-1-0.3-1.7-0.5-2.1-0.7c-0.4-0.2-0.7-0.5-0.9-0.8s-0.3-0.7-0.3-1.1
			c0-0.4,0.1-0.7,0.3-1c0.2-0.3,0.4-0.6,0.7-0.8c0.2-0.2,0.5-0.3,0.9-0.4c0.4-0.1,0.8-0.2,1.2-0.2c0.7,0,1.2,0.1,1.7,0.3
			s0.9,0.4,1.1,0.8s0.4,0.7,0.5,1.3l-1.4,0.2c-0.1-0.4-0.2-0.8-0.5-1c-0.3-0.2-0.7-0.4-1.3-0.4c-0.6,0-1.1,0.1-1.4,0.3
			c-0.3,0.2-0.4,0.5-0.4,0.8c0,0.2,0.1,0.3,0.2,0.5c0.1,0.2,0.3,0.3,0.5,0.4c0.1,0.1,0.6,0.2,1.2,0.4c1,0.3,1.7,0.5,2.1,0.7
			c0.4,0.2,0.7,0.4,0.9,0.7c0.2,0.3,0.3,0.7,0.3,1.2c0,0.5-0.1,0.9-0.4,1.3s-0.7,0.7-1.2,1s-1.1,0.3-1.8,0.3c-1.1,0-1.9-0.2-2.5-0.7
			C464.2,367.3,463.9,366.6,463.7,365.7z"/>
		<path d="M478,365.5l1.5,0.2c-0.2,0.8-0.7,1.5-1.3,2s-1.4,0.7-2.4,0.7c-1.2,0-2.2-0.4-2.9-1.1c-0.7-0.7-1.1-1.8-1.1-3.1
			c0-1.4,0.4-2.5,1.1-3.2c0.7-0.8,1.7-1.2,2.8-1.2c1.1,0,2,0.4,2.7,1.1c0.7,0.8,1.1,1.8,1.1,3.2c0,0.1,0,0.2,0,0.4h-6.2
			c0.1,0.9,0.3,1.6,0.8,2.1s1,0.7,1.7,0.7c0.5,0,1-0.1,1.3-0.4C477.5,366.6,477.8,366.1,478,365.5z M473.4,363.3h4.6
			c-0.1-0.7-0.2-1.2-0.5-1.6c-0.4-0.5-1-0.8-1.7-0.8c-0.6,0-1.2,0.2-1.6,0.6C473.6,362,473.4,362.5,473.4,363.3z"/>
		<path d="M481.2,368.2v-8.3h1.3v1.3c0.3-0.6,0.6-1,0.9-1.2s0.6-0.3,0.9-0.3c0.5,0,1,0.2,1.4,0.5l-0.5,1.3c-0.3-0.2-0.7-0.3-1-0.3
			c-0.3,0-0.6,0.1-0.8,0.3c-0.2,0.2-0.4,0.4-0.5,0.8c-0.2,0.5-0.2,1-0.2,1.6v4.3H481.2z"/>
	</g>
	<g>
		<line x1="426.8" y1="281.9" x2="213.3" y2="142.6"/>
		<g>
			<line fill="none" stroke="#00FF00" stroke-width="2" stroke-miterlimit="10" x1="426.8" y1="281.9" x2="425.1" y2="280.8"/>
			
				<line fill="none" stroke="#00FF00" stroke-width="2" stroke-miterlimit="10" stroke-dasharray="3.9448,3.9448" x1="421.8" y1="278.6" x2="218.6" y2="146.1"/>
			<line fill="none" stroke="#00FF00" stroke-width="2" stroke-miterlimit="10" x1="216.9" y1="145" x2="215.3" y2="143.9"/>
			<g>
				<path fill="#00FF00" d="M232,143.3c0,0.6-0.5,1-1,1l-15.3-0.2l6.3,13.9c0.2,0.5,0,1.1-0.5,1.3s-1.1,0-1.3-0.5l-7-15.4
					c-0.1-0.3-0.1-0.7,0.1-1c0.2-0.3,0.5-0.5,0.8-0.5l16.9,0.2c0.2,0,0.4,0.1,0.5,0.2C231.8,142.7,232,143,232,143.3z"/>
			</g>
		</g>
	</g>
	<g>
		<line x1="177" y1="150" x2="409.8" y2="301.9"/>
		<g>
			<line fill="none" stroke="#00FF00" stroke-width="2" stroke-miterlimit="10" x1="177" y1="150" x2="178.7" y2="151.1"/>
			
				<line fill="none" stroke="#00FF00" stroke-width="2" stroke-miterlimit="10" stroke-dasharray="4.0523,4.0523" x1="182.1" y1="153.3" x2="404.4" y2="298.4"/>
			<line fill="none" stroke="#00FF00" stroke-width="2" stroke-miterlimit="10" x1="406.1" y1="299.5" x2="407.8" y2="300.6"/>
			<g>
				<path fill="#00FF00" d="M391.1,301.1c0-0.6,0.5-1,1-1l15.3,0.2l-6.3-13.9c-0.2-0.5,0-1.1,0.5-1.3c0.5-0.2,1.1,0,1.3,0.5l7,15.4
					c0.1,0.3,0.1,0.7-0.1,1s-0.5,0.5-0.8,0.5l-16.9-0.2c-0.2,0-0.4-0.1-0.5-0.2C391.3,301.8,391.1,301.5,391.1,301.1z"/>
			</g>
		</g>
	</g>
	<g>
		<line fill="none" x1="274" y1="171" x2="414" y2="261.9"/>
		<path d="M301.1,188.6l4.7-7.2l3.2,2.1c0.6,0.4,1.1,0.8,1.3,1.1c0.2,0.3,0.4,0.7,0.4,1.2c0,0.5-0.1,0.9-0.4,1.3
			c-0.3,0.5-0.8,0.8-1.3,1s-1.2,0-2-0.3c0.2,0.3,0.3,0.5,0.3,0.7c0.1,0.4,0.2,0.9,0.2,1.5l0,2.8l-1.2-0.8l0-2.1c0-0.6,0-1.1,0-1.4
			c0-0.3-0.1-0.6-0.2-0.8c-0.1-0.2-0.2-0.3-0.3-0.5c-0.1-0.1-0.3-0.2-0.5-0.4l-1.1-0.7l-2.1,3.2L301.1,188.6z M304.6,185.2l2,1.3
			c0.4,0.3,0.8,0.5,1.1,0.5s0.6,0,0.8-0.1c0.3-0.1,0.5-0.3,0.6-0.5c0.2-0.3,0.3-0.7,0.2-1.1c-0.1-0.4-0.4-0.7-1-1.1l-2.3-1.5
			L304.6,185.2z"/>
		<path d="M312.9,193.9l0.8,0.7c-0.5,0.4-1,0.7-1.6,0.7c-0.6,0-1.2-0.1-1.8-0.5c-0.8-0.5-1.2-1.1-1.4-1.9c-0.1-0.8,0.1-1.6,0.6-2.4
			c0.6-0.9,1.2-1.4,2-1.6c0.8-0.2,1.5-0.1,2.2,0.4c0.7,0.5,1.1,1.1,1.2,1.8s-0.1,1.6-0.6,2.4c0,0.1-0.1,0.1-0.2,0.2l-3.9-2.5
			c-0.3,0.6-0.5,1.1-0.4,1.6c0.1,0.5,0.4,0.9,0.8,1.2c0.3,0.2,0.7,0.3,1,0.3C312.2,194.3,312.5,194.1,312.9,193.9z M310.9,190.5
			l2.9,1.9c0.2-0.5,0.3-0.9,0.3-1.2c-0.1-0.5-0.3-0.9-0.8-1.2c-0.4-0.3-0.8-0.3-1.3-0.3S311.2,190.1,310.9,190.5z"/>
		<path d="M315.8,201l1.7-2.6c-0.3,0.1-0.6,0.1-0.9,0.1c-0.3,0-0.6-0.1-0.9-0.3c-0.6-0.4-1-1-1.1-1.8c-0.1-0.8,0.1-1.6,0.7-2.5
			c0.3-0.5,0.7-0.9,1.2-1.2c0.5-0.3,0.9-0.4,1.4-0.4c0.5,0,0.9,0.1,1.3,0.4c0.6,0.4,1,1,1,1.8l0.5-0.7l0.8,0.5l-4.7,7.2L315.8,201z
			 M316.1,194.6c-0.4,0.7-0.6,1.3-0.6,1.8c0.1,0.5,0.3,0.9,0.7,1.2c0.4,0.2,0.8,0.3,1.3,0.2c0.5-0.1,0.9-0.5,1.4-1.2
			c0.5-0.7,0.6-1.3,0.6-1.8c-0.1-0.5-0.3-0.9-0.7-1.2c-0.4-0.2-0.8-0.3-1.3-0.1C317,193.5,316.6,193.9,316.1,194.6z"/>
		<path d="M322.8,202.7l0.5-0.8c-0.8,0.3-1.5,0.3-2.2-0.2c-0.3-0.2-0.6-0.4-0.7-0.7c-0.2-0.3-0.3-0.6-0.3-0.8c0-0.3,0-0.5,0.2-0.8
			c0.1-0.2,0.2-0.5,0.5-0.9l2.1-3.2l0.9,0.6l-1.9,2.9c-0.3,0.5-0.5,0.8-0.6,1c-0.1,0.3-0.1,0.5,0,0.8c0.1,0.2,0.3,0.5,0.5,0.6
			c0.3,0.2,0.6,0.3,0.9,0.3s0.6-0.1,0.9-0.2c0.2-0.2,0.5-0.5,0.8-0.9l1.8-2.8l0.9,0.6l-3.4,5.2L322.8,202.7z"/>
		<path d="M329.7,204.8l0.8,0.7c-0.5,0.4-1,0.7-1.6,0.7c-0.6,0-1.2-0.1-1.8-0.5c-0.8-0.5-1.2-1.1-1.4-1.9c-0.1-0.8,0.1-1.6,0.6-2.4
			c0.6-0.9,1.2-1.4,2-1.6c0.8-0.2,1.5-0.1,2.2,0.4c0.7,0.5,1.1,1.1,1.2,1.8s-0.1,1.6-0.6,2.4c0,0.1-0.1,0.1-0.2,0.2l-3.9-2.5
			c-0.3,0.6-0.5,1.1-0.4,1.6c0.1,0.5,0.4,0.9,0.8,1.2c0.3,0.2,0.7,0.3,1,0.3C329,205.2,329.3,205,329.7,204.8z M327.7,201.4l2.9,1.9
			c0.2-0.5,0.3-0.9,0.3-1.2c-0.1-0.5-0.3-0.9-0.8-1.2c-0.4-0.3-0.8-0.3-1.3-0.3S328,201,327.7,201.4z"/>
		<path d="M331.3,206l1,0.4c-0.2,0.4-0.2,0.7-0.1,1.1c0.1,0.3,0.4,0.6,0.8,0.9c0.4,0.3,0.8,0.4,1.1,0.3c0.3,0,0.5-0.2,0.7-0.4
			c0.1-0.2,0.1-0.4,0-0.6c-0.1-0.2-0.3-0.5-0.7-0.9c-0.5-0.6-0.9-1-1.1-1.3c-0.2-0.3-0.3-0.6-0.2-0.9s0.1-0.6,0.3-0.8
			c0.2-0.2,0.3-0.4,0.6-0.5c0.2-0.1,0.5-0.2,0.8-0.2c0.2,0,0.4,0,0.7,0.1c0.3,0.1,0.6,0.2,0.8,0.4c0.4,0.3,0.7,0.6,1,0.9
			s0.4,0.6,0.4,0.9s-0.1,0.6-0.2,1l-0.9-0.4c0.1-0.3,0.2-0.6,0.1-0.9c-0.1-0.3-0.3-0.5-0.7-0.7c-0.4-0.3-0.7-0.4-1-0.4
			c-0.3,0-0.5,0.1-0.6,0.3c-0.1,0.1-0.1,0.2-0.1,0.4c0,0.1,0.1,0.3,0.2,0.5c0.1,0.1,0.3,0.3,0.6,0.7c0.5,0.6,0.9,1,1,1.3
			s0.3,0.5,0.3,0.8c0,0.3-0.1,0.6-0.3,0.9c-0.2,0.3-0.5,0.5-0.8,0.7c-0.3,0.1-0.7,0.2-1.1,0.1c-0.4-0.1-0.8-0.2-1.2-0.5
			c-0.7-0.4-1.1-0.9-1.3-1.4S331,206.6,331.3,206z"/>
		<path d="M338.1,211.5l-0.4,0.9c-0.3-0.1-0.5-0.2-0.7-0.4c-0.3-0.2-0.5-0.4-0.6-0.6c-0.1-0.2-0.1-0.4-0.1-0.6
			c0-0.2,0.2-0.6,0.6-1.1l1.9-3l-0.6-0.4l0.4-0.7l0.6,0.4l0.8-1.3l1.2,0l-1.2,1.8l0.9,0.6l-0.4,0.7l-0.9-0.6l-2,3.1
			c-0.2,0.3-0.3,0.4-0.3,0.5s0,0.2,0,0.3c0,0.1,0.1,0.2,0.3,0.3C337.8,211.3,337.9,211.4,338.1,211.5z"/>
		<path d="M350.8,210.6l1,0.6l-2.7,4.2c-0.5,0.7-0.9,1.2-1.4,1.6c-0.4,0.3-1,0.5-1.6,0.5c-0.6,0-1.2-0.2-1.9-0.7
			c-0.7-0.4-1.2-0.9-1.4-1.4c-0.3-0.5-0.4-1-0.3-1.6c0.1-0.6,0.4-1.2,0.9-2l2.7-4.2l1,0.6l-2.7,4.2c-0.4,0.6-0.6,1.1-0.7,1.5
			s0,0.7,0.2,1.1c0.2,0.3,0.5,0.6,0.9,0.9c0.7,0.5,1.3,0.6,1.8,0.5c0.5-0.1,1.1-0.6,1.6-1.5L350.8,210.6z"/>
		<path d="M348.6,219.5l4.7-7.2l3.2,2.1c0.6,0.4,1.1,0.8,1.3,1.1c0.2,0.3,0.4,0.7,0.4,1.2c0,0.5-0.1,0.9-0.4,1.3
			c-0.3,0.5-0.8,0.8-1.3,1s-1.2,0-2-0.3c0.2,0.3,0.3,0.5,0.3,0.7c0.1,0.4,0.2,0.9,0.2,1.5l0,2.8l-1.2-0.8l0-2.1c0-0.6,0-1.1,0-1.4
			c0-0.3-0.1-0.6-0.2-0.8c-0.1-0.2-0.2-0.3-0.3-0.5c-0.1-0.1-0.3-0.2-0.5-0.4l-1.1-0.7l-2.1,3.2L348.6,219.5z M352.2,216l2,1.3
			c0.4,0.3,0.8,0.5,1.1,0.5s0.6,0,0.8-0.1c0.3-0.1,0.5-0.3,0.6-0.5c0.2-0.3,0.3-0.7,0.2-1.1c-0.1-0.4-0.4-0.7-1-1.1l-2.3-1.5
			L352.2,216z"/>
		<path d="M356.1,224.3l4.7-7.2l1,0.6l-4.7,7.2L356.1,224.3z"/>
		<path d="M361.7,230.9c-0.1-0.9,0-1.9,0.2-3c0.2-1,0.6-2,1.2-2.9c0.5-0.8,1.1-1.4,1.8-2c0.8-0.6,1.8-1.2,3-1.6l0.6,0.4
			c-0.8,0.4-1.4,0.7-1.7,0.9c-0.5,0.3-1,0.7-1.4,1.1c-0.5,0.5-1,1.1-1.4,1.7c-1,1.6-1.6,3.5-1.6,5.7L361.7,230.9z"/>
		<path d="M364.9,230l4.7-7.2l1,0.6l-1.9,3l3.7,2.4l1.9-3l1,0.6l-4.7,7.2l-1-0.6l2.2-3.4l-3.7-2.4l-2.2,3.4L364.9,230z"/>
		<path d="M374,235.9l4.1-6.4l-2.4-1.5l0.6-0.9l5.7,3.7l-0.6,0.9l-2.4-1.5l-4.1,6.4L374,235.9z"/>
		<path d="M380.1,239.9l4.1-6.4l-2.4-1.5l0.6-0.9l5.7,3.7l-0.6,0.9l-2.4-1.5l-4.1,6.4L380.1,239.9z"/>
		<path d="M384.4,242.7l4.7-7.2l2.7,1.8c0.5,0.3,0.8,0.6,1.1,0.8c0.3,0.3,0.5,0.6,0.7,0.9s0.2,0.7,0.1,1.1c0,0.4-0.2,0.8-0.4,1.1
			c-0.4,0.6-0.9,1-1.6,1.2c-0.7,0.2-1.5-0.1-2.5-0.7l-1.8-1.2l-1.9,2.9L384.4,242.7z M387.8,239.5l1.9,1.2c0.6,0.4,1.1,0.6,1.5,0.5
			c0.4-0.1,0.7-0.3,1-0.7c0.2-0.3,0.3-0.6,0.3-0.9s-0.1-0.6-0.3-0.8c-0.1-0.1-0.4-0.4-0.8-0.6l-1.8-1.2L387.8,239.5z"/>
		<path d="M390.2,249.5l-0.6-0.4c2-0.9,3.5-2.2,4.5-3.8c0.4-0.6,0.7-1.3,1-2c0.2-0.6,0.4-1.1,0.5-1.7c0.1-0.4,0.1-1,0.2-2l0.6,0.4
			c0.1,1.2,0,2.3-0.2,3.4c-0.2,0.9-0.6,1.7-1.1,2.5c-0.6,0.9-1.3,1.6-2.2,2.2C392,248.7,391.1,249.2,390.2,249.5z"/>
	</g>
	<g>
		<line fill="none" x1="230.5" y1="206.5" x2="370.5" y2="297.4"/>
		<path d="M257.6,224.1l4.7-7.2l3.2,2.1c0.6,0.4,1.1,0.8,1.3,1.1c0.2,0.3,0.4,0.7,0.4,1.2c0,0.5-0.1,0.9-0.4,1.3
			c-0.3,0.5-0.8,0.8-1.3,1s-1.2,0-2-0.3c0.2,0.3,0.3,0.5,0.3,0.7c0.1,0.4,0.2,0.9,0.2,1.5l0,2.8l-1.2-0.8l0-2.1c0-0.6,0-1.1,0-1.4
			c0-0.3-0.1-0.6-0.2-0.8c-0.1-0.2-0.2-0.3-0.3-0.5c-0.1-0.1-0.3-0.2-0.5-0.4l-1.1-0.7l-2.1,3.2L257.6,224.1z M261.1,220.7l2,1.3
			c0.4,0.3,0.8,0.5,1.1,0.5s0.6,0,0.8-0.1c0.3-0.1,0.5-0.3,0.6-0.5c0.2-0.3,0.3-0.7,0.2-1.1c-0.1-0.4-0.4-0.7-1-1.1l-2.3-1.5
			L261.1,220.7z"/>
		<path d="M269.4,229.3l0.8,0.7c-0.5,0.4-1,0.7-1.6,0.7c-0.6,0-1.2-0.1-1.8-0.5c-0.8-0.5-1.2-1.1-1.4-1.9c-0.1-0.8,0.1-1.6,0.6-2.4
			c0.6-0.9,1.2-1.4,2-1.6c0.8-0.2,1.5-0.1,2.2,0.4c0.7,0.5,1.1,1.1,1.2,1.8s-0.1,1.6-0.6,2.4c0,0.1-0.1,0.1-0.2,0.2l-3.9-2.5
			c-0.3,0.6-0.5,1.1-0.4,1.6c0.1,0.5,0.4,0.9,0.8,1.2c0.3,0.2,0.7,0.3,1,0.3C268.6,229.8,269,229.6,269.4,229.3z M267.4,226l2.9,1.9
			c0.2-0.5,0.3-0.9,0.3-1.2c-0.1-0.5-0.3-0.9-0.8-1.2c-0.4-0.3-0.8-0.3-1.3-0.3S267.7,225.6,267.4,226z"/>
		<path d="M271,230.6l1,0.4c-0.2,0.4-0.2,0.7-0.1,1.1c0.1,0.3,0.4,0.6,0.8,0.9c0.4,0.3,0.8,0.4,1.1,0.3c0.3,0,0.5-0.2,0.7-0.4
			c0.1-0.2,0.1-0.4,0-0.6c-0.1-0.2-0.3-0.5-0.7-0.9c-0.5-0.6-0.9-1-1.1-1.3c-0.2-0.3-0.3-0.6-0.2-0.9s0.1-0.6,0.3-0.8
			c0.2-0.2,0.3-0.4,0.6-0.5c0.2-0.1,0.5-0.2,0.8-0.2c0.2,0,0.4,0,0.7,0.1c0.3,0.1,0.6,0.2,0.8,0.4c0.4,0.3,0.7,0.6,1,0.9
			s0.4,0.6,0.4,0.9s-0.1,0.6-0.2,1l-0.9-0.4c0.1-0.3,0.2-0.6,0.1-0.9c-0.1-0.3-0.3-0.5-0.7-0.7c-0.4-0.3-0.7-0.4-1-0.4
			c-0.3,0-0.5,0.1-0.6,0.3c-0.1,0.1-0.1,0.2-0.1,0.4c0,0.1,0.1,0.3,0.2,0.5c0.1,0.1,0.3,0.3,0.6,0.7c0.5,0.6,0.9,1,1,1.3
			s0.3,0.5,0.3,0.8c0,0.3-0.1,0.6-0.3,0.9c-0.2,0.3-0.5,0.5-0.8,0.7c-0.3,0.1-0.7,0.2-1.1,0.1c-0.4-0.1-0.8-0.2-1.2-0.5
			c-0.7-0.4-1.1-0.9-1.3-1.4S270.7,231.2,271,230.6z"/>
		<path d="M274.1,237.6l4.7-7.2l0.8,0.5l-0.4,0.7c0.4-0.1,0.7-0.2,1-0.2c0.3,0,0.7,0.1,1,0.4c0.4,0.3,0.8,0.7,1,1.1s0.2,0.9,0.1,1.5
			c-0.1,0.5-0.3,1-0.6,1.5c-0.3,0.5-0.8,1-1.2,1.3c-0.5,0.3-1,0.4-1.5,0.4c-0.5,0-1-0.1-1.4-0.4c-0.3-0.2-0.5-0.4-0.7-0.7
			c-0.2-0.3-0.2-0.6-0.3-0.8l-1.6,2.5L274.1,237.6z M277.8,233.5c-0.4,0.7-0.6,1.3-0.6,1.8c0.1,0.5,0.3,0.9,0.7,1.1
			c0.4,0.3,0.8,0.3,1.3,0.2s1-0.6,1.4-1.3c0.4-0.7,0.6-1.3,0.6-1.8c-0.1-0.5-0.3-0.9-0.7-1.1c-0.4-0.2-0.8-0.3-1.3-0.1
			S278.3,232.9,277.8,233.5z"/>
		<path d="M282.3,236.4c0.6-1,1.4-1.5,2.2-1.6c0.7-0.1,1.4,0.1,2,0.5c0.7,0.5,1.2,1.1,1.3,1.8c0.1,0.8,0,1.6-0.6,2.4
			c-0.4,0.7-0.9,1.1-1.3,1.4c-0.5,0.3-0.9,0.4-1.5,0.3c-0.5,0-1-0.2-1.5-0.5c-0.7-0.5-1.2-1.1-1.3-1.9
			C281.5,238.1,281.7,237.3,282.3,236.4z M283.2,237c-0.4,0.7-0.6,1.3-0.5,1.8c0.1,0.5,0.3,0.9,0.8,1.2c0.4,0.3,0.9,0.4,1.4,0.2
			c0.5-0.1,1-0.6,1.4-1.2c0.4-0.6,0.6-1.2,0.5-1.8c-0.1-0.5-0.3-0.9-0.8-1.2c-0.4-0.3-0.9-0.4-1.4-0.2
			C284.1,235.9,283.7,236.3,283.2,237z"/>
		<path d="M286.6,242.9l3.4-5.2l0.8,0.5l-0.5,0.7c0.8-0.3,1.5-0.3,2.2,0.2c0.3,0.2,0.6,0.4,0.8,0.7c0.2,0.3,0.3,0.6,0.3,0.8
			c0,0.3,0,0.5-0.1,0.8c-0.1,0.2-0.2,0.5-0.5,0.9l-2.1,3.2l-0.9-0.6l2.1-3.2c0.2-0.4,0.4-0.7,0.4-0.9c0-0.2,0-0.4-0.1-0.7
			c-0.1-0.2-0.3-0.4-0.5-0.6c-0.4-0.2-0.8-0.3-1.2-0.3s-0.9,0.4-1.3,1.1l-1.9,2.9L286.6,242.9z"/>
		<path d="M292.8,244.7l1,0.4c-0.2,0.4-0.2,0.7-0.1,1.1c0.1,0.3,0.4,0.6,0.8,0.9c0.4,0.3,0.8,0.4,1.1,0.3c0.3,0,0.5-0.2,0.7-0.4
			c0.1-0.2,0.1-0.4,0-0.6c-0.1-0.2-0.3-0.5-0.7-0.9c-0.5-0.6-0.9-1-1.1-1.3c-0.2-0.3-0.3-0.6-0.2-0.9s0.1-0.6,0.3-0.8
			c0.2-0.2,0.3-0.4,0.6-0.5c0.2-0.1,0.5-0.2,0.8-0.2c0.2,0,0.4,0,0.7,0.1c0.3,0.1,0.6,0.2,0.8,0.4c0.4,0.3,0.7,0.6,1,0.9
			s0.4,0.6,0.4,0.9s-0.1,0.6-0.2,1l-0.9-0.4c0.1-0.3,0.2-0.6,0.1-0.9c-0.1-0.3-0.3-0.5-0.7-0.7c-0.4-0.3-0.7-0.4-1-0.4
			c-0.3,0-0.5,0.1-0.6,0.3c-0.1,0.1-0.1,0.2-0.1,0.4c0,0.1,0.1,0.3,0.2,0.5c0.1,0.1,0.3,0.3,0.6,0.7c0.5,0.6,0.9,1,1,1.3
			s0.3,0.5,0.3,0.8c0,0.3-0.1,0.6-0.3,0.9c-0.2,0.3-0.5,0.5-0.8,0.7c-0.3,0.1-0.7,0.2-1.1,0.1c-0.4-0.1-0.8-0.2-1.2-0.5
			c-0.7-0.4-1.1-0.9-1.3-1.4S292.5,245.3,292.8,244.7z"/>
		<path d="M301.9,250.4l0.8,0.7c-0.5,0.4-1,0.7-1.6,0.7c-0.6,0-1.2-0.1-1.8-0.5c-0.8-0.5-1.2-1.1-1.4-1.9c-0.1-0.8,0.1-1.6,0.6-2.4
			c0.6-0.9,1.2-1.4,2-1.6c0.8-0.2,1.5-0.1,2.2,0.4c0.7,0.5,1.1,1.1,1.2,1.8s-0.1,1.6-0.6,2.4c0,0.1-0.1,0.1-0.2,0.2l-3.9-2.5
			c-0.3,0.6-0.5,1.1-0.4,1.6c0.1,0.5,0.4,0.9,0.8,1.2c0.3,0.2,0.7,0.3,1,0.3C301.1,250.9,301.5,250.7,301.9,250.4z M299.9,247.1
			l2.9,1.9c0.2-0.5,0.3-0.9,0.3-1.2c-0.1-0.5-0.3-0.9-0.8-1.2c-0.4-0.3-0.8-0.3-1.3-0.3C300.6,246.4,300.2,246.7,299.9,247.1z"/>
		<path d="M305.9,258.5c-0.1-0.9,0-1.9,0.2-3c0.2-1,0.6-2,1.2-2.9c0.5-0.8,1.1-1.4,1.8-2c0.8-0.6,1.8-1.2,3-1.6l0.6,0.4
			c-0.8,0.4-1.4,0.7-1.7,0.9c-0.5,0.3-1,0.7-1.4,1.1c-0.5,0.5-1,1.1-1.4,1.7c-1,1.6-1.6,3.5-1.6,5.7L305.9,258.5z"/>
		<path d="M309.1,257.5l4.7-7.2l1,0.6l-1.9,3l3.7,2.4l1.9-3l1,0.6l-4.7,7.2l-1-0.6l2.2-3.4l-3.7-2.4l-2.2,3.4L309.1,257.5z"/>
		<path d="M318.2,263.4l4.1-6.4l-2.4-1.5l0.6-0.9l5.7,3.7l-0.6,0.9l-2.4-1.5l-4.1,6.4L318.2,263.4z"/>
		<path d="M324.3,267.4l4.1-6.4l-2.4-1.5l0.6-0.9l5.7,3.7l-0.6,0.9l-2.4-1.5l-4.1,6.4L324.3,267.4z"/>
		<path d="M328.6,270.2l4.7-7.2l2.7,1.8c0.5,0.3,0.8,0.6,1.1,0.8c0.3,0.3,0.5,0.6,0.7,0.9s0.2,0.7,0.1,1.1c0,0.4-0.2,0.8-0.4,1.1
			c-0.4,0.6-0.9,1-1.6,1.2c-0.7,0.2-1.5-0.1-2.5-0.7l-1.8-1.2l-1.9,2.9L328.6,270.2z M332,267l1.9,1.2c0.6,0.4,1.1,0.6,1.5,0.5
			c0.4-0.1,0.7-0.3,1-0.7c0.2-0.3,0.3-0.6,0.3-0.9s-0.1-0.6-0.3-0.8c-0.1-0.1-0.4-0.4-0.8-0.6l-1.8-1.2L332,267z"/>
		<path d="M334.4,277l-0.6-0.4c2-0.9,3.5-2.2,4.5-3.8c0.4-0.6,0.7-1.3,1-2c0.2-0.6,0.4-1.1,0.5-1.7c0.1-0.4,0.1-1,0.2-2l0.6,0.4
			c0.1,1.2,0,2.3-0.2,3.4c-0.2,0.9-0.6,1.7-1.1,2.5c-0.6,0.9-1.3,1.6-2.2,2.2C336.2,276.2,335.3,276.7,334.4,277z"/>
	</g>
	<g>
		<g>
			<g>
				<path d="M42.5,247.9v-1l5.7-2.4v1l-4.5,1.9l4.5,1.9v1L42.5,247.9z"/>
				<path d="M49.7,251.7v-8.6h1.1v3.1c0.5-0.6,1.1-0.9,1.9-0.9c0.5,0,0.9,0.1,1.2,0.3s0.6,0.4,0.7,0.8s0.2,0.8,0.2,1.4v3.9h-1.1
					v-3.9c0-0.5-0.1-0.9-0.3-1.2s-0.6-0.4-1-0.4c-0.3,0-0.6,0.1-0.9,0.2s-0.5,0.4-0.6,0.7s-0.2,0.7-0.2,1.1v3.4H49.7z"/>
				<path d="M58.7,250.7l0.2,0.9c-0.3,0.1-0.6,0.1-0.8,0.1c-0.4,0-0.7-0.1-0.9-0.2s-0.4-0.3-0.4-0.5s-0.1-0.6-0.1-1.2v-3.6h-0.8
					v-0.8h0.8v-1.5l1-0.6v2.2h1.1v0.8h-1.1v3.6c0,0.3,0,0.5,0.1,0.6s0.1,0.2,0.2,0.2s0.2,0.1,0.4,0.1
					C58.3,250.8,58.5,250.8,58.7,250.7z"/>
				<path d="M59.7,251.7v-6.2h0.9v0.9c0.2-0.3,0.5-0.5,0.8-0.7s0.7-0.3,1.1-0.3c0.5,0,0.8,0.1,1.1,0.3s0.5,0.5,0.6,0.8
					c0.5-0.7,1.1-1.1,1.9-1.1c0.6,0,1.1,0.2,1.4,0.5s0.5,0.9,0.5,1.6v4.3h-1v-3.9c0-0.4,0-0.7-0.1-0.9s-0.2-0.3-0.4-0.4
					s-0.4-0.2-0.6-0.2c-0.4,0-0.8,0.1-1.1,0.4s-0.4,0.8-0.4,1.4v3.6h-1.1v-4c0-0.5-0.1-0.8-0.3-1.1s-0.5-0.4-0.8-0.4
					c-0.3,0-0.6,0.1-0.8,0.2s-0.4,0.4-0.5,0.7s-0.2,0.7-0.2,1.3v3.2H59.7z"/>
				<path d="M69.7,251.7v-8.6h1.1v8.6H69.7z"/>
				<path d="M77.9,247.9l-5.7,2.4v-1l4.5-1.9l-4.5-1.9v-1l5.7,2.4V247.9z"/>
				<path d="M42.5,262.3v-1l5.7-2.4v1l-4.5,1.9l4.5,1.9v1L42.5,262.3z"/>
				<path d="M49.7,266.1v-8.6h1.1v3.1c0.5-0.6,1.1-0.9,1.9-0.9c0.5,0,0.9,0.1,1.2,0.3s0.6,0.4,0.7,0.8s0.2,0.8,0.2,1.4v3.9h-1.1
					v-3.9c0-0.5-0.1-0.9-0.3-1.2s-0.6-0.4-1-0.4c-0.3,0-0.6,0.1-0.9,0.2s-0.5,0.4-0.6,0.7s-0.2,0.7-0.2,1.1v3.4H49.7z"/>
				<path d="M60.6,264.1l1.1,0.1c-0.2,0.6-0.5,1.1-1,1.5s-1.1,0.5-1.8,0.5c-0.9,0-1.6-0.3-2.2-0.8S56,264,56,263
					c0-1,0.3-1.9,0.8-2.4s1.2-0.9,2.1-0.9c0.8,0,1.5,0.3,2,0.8s0.8,1.4,0.8,2.4c0,0.1,0,0.2,0,0.3h-4.6c0,0.7,0.2,1.2,0.6,1.6
					s0.8,0.5,1.3,0.5c0.4,0,0.7-0.1,1-0.3S60.4,264.5,60.6,264.1z M57.1,262.4h3.5c0-0.5-0.2-0.9-0.4-1.2c-0.3-0.4-0.8-0.6-1.3-0.6
					c-0.5,0-0.9,0.2-1.2,0.5S57.2,261.8,57.1,262.4z"/>
				<path d="M67.1,265.3c-0.4,0.3-0.8,0.6-1.1,0.7s-0.7,0.2-1.2,0.2c-0.7,0-1.2-0.2-1.6-0.5s-0.6-0.8-0.6-1.3c0-0.3,0.1-0.6,0.2-0.8
					s0.3-0.5,0.5-0.6s0.5-0.3,0.8-0.3c0.2-0.1,0.5-0.1,0.9-0.2c0.9-0.1,1.5-0.2,1.9-0.4c0-0.1,0-0.2,0-0.3c0-0.4-0.1-0.7-0.3-0.9
					c-0.3-0.2-0.7-0.4-1.2-0.4c-0.5,0-0.9,0.1-1.1,0.3s-0.4,0.5-0.5,0.9l-1-0.1c0.1-0.4,0.2-0.8,0.5-1.1s0.5-0.5,0.9-0.6
					s0.9-0.2,1.4-0.2c0.5,0,1,0.1,1.3,0.2s0.6,0.3,0.7,0.5s0.3,0.4,0.3,0.7c0,0.2,0.1,0.5,0.1,1v1.4c0,1,0,1.6,0.1,1.9
					s0.1,0.5,0.3,0.7h-1.1C67.2,265.9,67.1,265.6,67.1,265.3z M67,263c-0.4,0.2-1,0.3-1.7,0.4c-0.4,0.1-0.7,0.1-0.9,0.2
					s-0.3,0.2-0.4,0.3s-0.1,0.3-0.1,0.5c0,0.3,0.1,0.5,0.3,0.7s0.5,0.3,0.9,0.3c0.4,0,0.8-0.1,1.1-0.3s0.5-0.4,0.7-0.7
					c0.1-0.2,0.2-0.6,0.2-1.1V263z"/>
				<path d="M73.7,266.1v-0.8c-0.4,0.6-1,0.9-1.7,0.9c-0.5,0-1-0.1-1.4-0.4s-0.7-0.7-1-1.1s-0.3-1.1-0.3-1.7c0-0.6,0.1-1.2,0.3-1.7
					s0.5-0.9,0.9-1.2s0.9-0.4,1.4-0.4c0.4,0,0.7,0.1,1,0.2s0.5,0.4,0.7,0.6v-3.1h1v8.6H73.7z M70.4,263c0,0.8,0.2,1.4,0.5,1.8
					s0.7,0.6,1.2,0.6c0.5,0,0.9-0.2,1.2-0.6s0.5-1,0.5-1.7c0-0.9-0.2-1.5-0.5-1.9s-0.7-0.6-1.2-0.6c-0.5,0-0.9,0.2-1.2,0.6
					S70.4,262.1,70.4,263z"/>
				<path d="M81.9,262.3l-5.7,2.4v-1l4.5-1.9l-4.5-1.9v-1l5.7,2.4V262.3z"/>
				<path d="M42.5,276.7v-1l5.7-2.4v1l-4.5,1.9l4.5,1.9v1L42.5,276.7z"/>
				<path d="M52,279.5l0.2,0.9c-0.3,0.1-0.6,0.1-0.8,0.1c-0.4,0-0.7-0.1-0.9-0.2s-0.4-0.3-0.4-0.5s-0.1-0.6-0.1-1.2v-3.6h-0.8v-0.8
					h0.8v-1.5l1-0.6v2.2H52v0.8h-1.1v3.6c0,0.3,0,0.5,0.1,0.6s0.1,0.2,0.2,0.2s0.2,0.1,0.4,0.1C51.6,279.6,51.8,279.6,52,279.5z"/>
				<path d="M53,273.1v-1.2h1.1v1.2H53z M53,280.5v-6.2h1.1v6.2H53z"/>
				<path d="M58,279.5l0.2,0.9c-0.3,0.1-0.6,0.1-0.8,0.1c-0.4,0-0.7-0.1-0.9-0.2s-0.4-0.3-0.4-0.5s-0.1-0.6-0.1-1.2v-3.6h-0.8v-0.8
					h0.8v-1.5l1-0.6v2.2H58v0.8h-1.1v3.6c0,0.3,0,0.5,0.1,0.6s0.1,0.2,0.2,0.2s0.2,0.1,0.4,0.1C57.6,279.6,57.8,279.6,58,279.5z"/>
				<path d="M59,280.5v-8.6H60v8.6H59z"/>
				<path d="M65.9,278.5l1.1,0.1c-0.2,0.6-0.5,1.1-1,1.5s-1.1,0.5-1.8,0.5c-0.9,0-1.6-0.3-2.2-0.8s-0.8-1.3-0.8-2.4
					c0-1,0.3-1.9,0.8-2.4s1.2-0.9,2.1-0.9c0.8,0,1.5,0.3,2,0.8s0.8,1.4,0.8,2.4c0,0.1,0,0.2,0,0.3h-4.6c0,0.7,0.2,1.2,0.6,1.6
					s0.8,0.5,1.3,0.5c0.4,0,0.7-0.1,1-0.3S65.8,278.9,65.9,278.5z M62.5,276.8h3.5c0-0.5-0.2-0.9-0.4-1.2c-0.3-0.4-0.8-0.6-1.3-0.6
					c-0.5,0-0.9,0.2-1.2,0.5S62.5,276.2,62.5,276.8z"/>
				<path d="M73.9,276.7l-5.7,2.4v-1l4.5-1.9l-4.5-1.9v-1l5.7,2.4V276.7z"/>
				<path d="M75.7,280.5v-8.6h1.1v8.6H75.7z"/>
				<path d="M78.7,274.9l-0.3-1.6v-1.4h1.2v1.4l-0.3,1.6H78.7z"/>
				<path d="M85,280.5v-0.8c-0.4,0.6-1,0.9-1.7,0.9c-0.5,0-1-0.1-1.4-0.4s-0.7-0.7-1-1.1s-0.3-1.1-0.3-1.7c0-0.6,0.1-1.2,0.3-1.7
					s0.5-0.9,0.9-1.2s0.9-0.4,1.4-0.4c0.4,0,0.7,0.1,1,0.2s0.5,0.4,0.7,0.6v-3.1h1v8.6H85z M81.7,277.4c0,0.8,0.2,1.4,0.5,1.8
					s0.7,0.6,1.2,0.6c0.5,0,0.9-0.2,1.2-0.6s0.5-1,0.5-1.7c0-0.9-0.2-1.5-0.5-1.9s-0.7-0.6-1.2-0.6c-0.5,0-0.9,0.2-1.2,0.6
					S81.7,276.6,81.7,277.4z"/>
				<path d="M91.1,280.5v-8.6H95c0.8,0,1.3,0.1,1.7,0.2s0.7,0.4,1,0.8s0.4,0.8,0.4,1.3c0,0.6-0.2,1.1-0.6,1.5s-1,0.7-1.8,0.8
					c0.3,0.1,0.5,0.3,0.7,0.4c0.3,0.3,0.6,0.7,0.9,1.1l1.5,2.3h-1.4l-1.1-1.8c-0.3-0.5-0.6-0.9-0.8-1.2s-0.4-0.5-0.6-0.6
					s-0.3-0.2-0.5-0.2c-0.1,0-0.3,0-0.6,0h-1.3v3.8H91.1z M92.3,275.7h2.4c0.5,0,0.9-0.1,1.2-0.2s0.5-0.3,0.7-0.5s0.2-0.5,0.2-0.8
					c0-0.4-0.1-0.7-0.4-1s-0.8-0.4-1.4-0.4h-2.7V275.7z"/>
				<path d="M103.7,279.7c-0.4,0.3-0.8,0.6-1.1,0.7s-0.7,0.2-1.2,0.2c-0.7,0-1.2-0.2-1.6-0.5s-0.6-0.8-0.6-1.3
					c0-0.3,0.1-0.6,0.2-0.8s0.3-0.5,0.5-0.6s0.5-0.3,0.8-0.3c0.2-0.1,0.5-0.1,0.9-0.2c0.9-0.1,1.5-0.2,1.9-0.4c0-0.1,0-0.2,0-0.3
					c0-0.4-0.1-0.7-0.3-0.9c-0.3-0.2-0.7-0.4-1.2-0.4c-0.5,0-0.9,0.1-1.1,0.3s-0.4,0.5-0.5,0.9l-1-0.1c0.1-0.4,0.2-0.8,0.5-1.1
					s0.5-0.5,0.9-0.6s0.9-0.2,1.4-0.2c0.5,0,1,0.1,1.3,0.2s0.6,0.3,0.7,0.5s0.3,0.4,0.3,0.7c0,0.2,0.1,0.5,0.1,1v1.4
					c0,1,0,1.6,0.1,1.9s0.1,0.5,0.3,0.7h-1.1C103.8,280.3,103.7,280,103.7,279.7z M103.6,277.4c-0.4,0.2-1,0.3-1.7,0.4
					c-0.4,0.1-0.7,0.1-0.9,0.2s-0.3,0.2-0.4,0.3s-0.1,0.3-0.1,0.5c0,0.3,0.1,0.5,0.3,0.7s0.5,0.3,0.9,0.3c0.4,0,0.8-0.1,1.1-0.3
					s0.5-0.4,0.7-0.7c0.1-0.2,0.2-0.6,0.2-1.1V277.4z"/>
				<path d="M108.6,279.5l0.2,0.9c-0.3,0.1-0.6,0.1-0.8,0.1c-0.4,0-0.7-0.1-0.9-0.2s-0.4-0.3-0.4-0.5s-0.1-0.6-0.1-1.2v-3.6h-0.8
					v-0.8h0.8v-1.5l1-0.6v2.2h1.1v0.8h-1.1v3.6c0,0.3,0,0.5,0.1,0.6s0.1,0.2,0.2,0.2s0.2,0.1,0.4,0.1
					C108.3,279.6,108.4,279.6,108.6,279.5z"/>
				<path d="M109.7,280.5v-8.6h1.1v3.1c0.5-0.6,1.1-0.9,1.9-0.9c0.5,0,0.9,0.1,1.2,0.3s0.6,0.4,0.7,0.8s0.2,0.8,0.2,1.4v3.9h-1.1
					v-3.9c0-0.5-0.1-0.9-0.3-1.2s-0.6-0.4-1-0.4c-0.3,0-0.6,0.1-0.9,0.2s-0.5,0.4-0.6,0.7s-0.2,0.7-0.2,1.1v3.4H109.7z"/>
				<path d="M120.6,278.5l1.1,0.1c-0.2,0.6-0.5,1.1-1,1.5s-1.1,0.5-1.8,0.5c-0.9,0-1.6-0.3-2.2-0.8s-0.8-1.3-0.8-2.4
					c0-1,0.3-1.9,0.8-2.4s1.2-0.9,2.1-0.9c0.8,0,1.5,0.3,2,0.8s0.8,1.4,0.8,2.4c0,0.1,0,0.2,0,0.3h-4.6c0,0.7,0.2,1.2,0.6,1.6
					s0.8,0.5,1.3,0.5c0.4,0,0.7-0.1,1-0.3S120.4,278.9,120.6,278.5z M117.1,276.8h3.5c0-0.5-0.2-0.9-0.4-1.2
					c-0.3-0.4-0.8-0.6-1.3-0.6c-0.5,0-0.9,0.2-1.2,0.5S117.2,276.2,117.1,276.8z"/>
				<path d="M123,280.5v-6.2h0.9v0.9c0.2-0.4,0.5-0.7,0.7-0.9s0.4-0.2,0.7-0.2c0.4,0,0.7,0.1,1.1,0.3l-0.4,1
					c-0.3-0.2-0.5-0.2-0.8-0.2c-0.2,0-0.4,0.1-0.6,0.2s-0.3,0.3-0.4,0.6c-0.1,0.4-0.2,0.8-0.2,1.2v3.3H123z"/>
				<path d="M130.4,280.5v-8.6h3.2c0.7,0,1.2,0.1,1.6,0.3s0.7,0.4,0.9,0.8s0.3,0.7,0.3,1.1c0,0.4-0.1,0.7-0.3,1s-0.5,0.6-0.9,0.8
					c0.5,0.2,0.9,0.4,1.2,0.8s0.4,0.8,0.4,1.3c0,0.4-0.1,0.8-0.3,1.1s-0.4,0.6-0.6,0.8s-0.6,0.3-0.9,0.4s-0.8,0.1-1.4,0.1H130.4z
					 M131.6,275.5h1.9c0.5,0,0.9,0,1.1-0.1c0.3-0.1,0.5-0.2,0.7-0.4s0.2-0.4,0.2-0.8c0-0.3-0.1-0.5-0.2-0.8s-0.3-0.4-0.6-0.4
					s-0.7-0.1-1.3-0.1h-1.7V275.5z M131.6,279.5h2.1c0.4,0,0.6,0,0.8,0c0.3,0,0.5-0.1,0.7-0.2s0.3-0.3,0.4-0.5s0.2-0.5,0.2-0.7
					c0-0.3-0.1-0.6-0.2-0.8s-0.4-0.4-0.7-0.5s-0.7-0.1-1.3-0.1h-2V279.5z"/>
				<path d="M142.6,278.5l1.1,0.1c-0.2,0.6-0.5,1.1-1,1.5s-1.1,0.5-1.8,0.5c-0.9,0-1.6-0.3-2.2-0.8s-0.8-1.3-0.8-2.4
					c0-1,0.3-1.9,0.8-2.4s1.2-0.9,2.1-0.9c0.8,0,1.5,0.3,2,0.8s0.8,1.4,0.8,2.4c0,0.1,0,0.2,0,0.3h-4.6c0,0.7,0.2,1.2,0.6,1.6
					s0.8,0.5,1.3,0.5c0.4,0,0.7-0.1,1-0.3S142.4,278.9,142.6,278.5z M139.1,276.8h3.5c0-0.5-0.2-0.9-0.4-1.2
					c-0.3-0.4-0.8-0.6-1.3-0.6c-0.5,0-0.9,0.2-1.2,0.5S139.2,276.2,139.1,276.8z"/>
				<path d="M44.3,294.9l-2.3-8.6h1.2l1.3,5.6c0.1,0.6,0.3,1.2,0.4,1.8c0.2-0.9,0.3-1.4,0.4-1.6l1.6-5.8h1.4l1.2,4.3
					c0.3,1.1,0.5,2.1,0.7,3c0.1-0.5,0.3-1.2,0.4-1.9l1.3-5.5h1.1l-2.4,8.6h-1.1l-1.8-6.5c-0.2-0.5-0.2-0.9-0.3-1
					c-0.1,0.4-0.2,0.7-0.3,1l-1.8,6.5H44.3z"/>
				<path d="M53.8,294.9v-6.2h0.9v0.9c0.2-0.4,0.5-0.7,0.7-0.9s0.4-0.2,0.7-0.2c0.4,0,0.7,0.1,1.1,0.3l-0.4,1
					c-0.3-0.2-0.5-0.2-0.8-0.2c-0.2,0-0.4,0.1-0.6,0.2s-0.3,0.3-0.4,0.6c-0.1,0.4-0.2,0.8-0.2,1.2v3.3H53.8z"/>
				<path d="M57.8,287.5v-1.2h1.1v1.2H57.8z M57.8,294.9v-6.2h1.1v6.2H57.8z"/>
				<path d="M62.7,293.9l0.2,0.9c-0.3,0.1-0.6,0.1-0.8,0.1c-0.4,0-0.7-0.1-0.9-0.2s-0.4-0.3-0.4-0.5s-0.1-0.6-0.1-1.2v-3.6h-0.8
					v-0.8h0.8v-1.5l1-0.6v2.2h1.1v0.8h-1.1v3.6c0,0.3,0,0.5,0.1,0.6s0.1,0.2,0.2,0.2s0.2,0.1,0.4,0.1C62.4,294,62.6,294,62.7,293.9z
					"/>
				<path d="M63.8,287.5v-1.2h1.1v1.2H63.8z M63.8,294.9v-6.2h1.1v6.2H63.8z"/>
				<path d="M66.4,294.9v-6.2h0.9v0.9c0.5-0.7,1.1-1,2-1c0.4,0,0.7,0.1,1,0.2s0.5,0.3,0.7,0.5s0.3,0.5,0.3,0.8c0,0.2,0.1,0.5,0.1,1
					v3.8h-1.1v-3.8c0-0.4,0-0.8-0.1-1s-0.2-0.4-0.4-0.5s-0.5-0.2-0.7-0.2c-0.4,0-0.8,0.1-1.2,0.4s-0.5,0.8-0.5,1.6v3.4H66.4z"/>
				<path d="M72.9,295.4l1,0.2c0,0.3,0.2,0.5,0.4,0.7c0.3,0.2,0.6,0.3,1.1,0.3c0.5,0,0.9-0.1,1.1-0.3s0.4-0.5,0.5-0.8
					c0.1-0.2,0.1-0.7,0.1-1.4c-0.5,0.5-1,0.8-1.7,0.8c-0.9,0-1.5-0.3-2-0.9s-0.7-1.4-0.7-2.2c0-0.6,0.1-1.1,0.3-1.6s0.5-0.9,0.9-1.2
					s0.9-0.4,1.4-0.4c0.7,0,1.3,0.3,1.8,0.9v-0.8h1v5.4c0,1-0.1,1.7-0.3,2.1s-0.5,0.7-0.9,1s-1,0.4-1.6,0.4c-0.7,0-1.3-0.2-1.8-0.5
					S72.9,296.1,72.9,295.4z M73.8,291.7c0,0.8,0.2,1.4,0.5,1.8s0.7,0.6,1.2,0.6c0.5,0,0.9-0.2,1.2-0.6s0.5-1,0.5-1.8
					c0-0.8-0.2-1.3-0.5-1.7s-0.7-0.6-1.2-0.6c-0.5,0-0.9,0.2-1.2,0.6S73.8,290.9,73.8,291.7z"/>
				<path d="M79.7,291.1v-1l5.7-2.4v1l-4.5,1.9l4.5,1.9v1L79.7,291.1z"/>
				<path d="M86,295l2.5-8.9h0.8l-2.5,8.9H86z"/>
				<path d="M92.4,293.9l0.2,0.9c-0.3,0.1-0.6,0.1-0.8,0.1c-0.4,0-0.7-0.1-0.9-0.2s-0.4-0.3-0.4-0.5s-0.1-0.6-0.1-1.2v-3.6h-0.8
					v-0.8h0.8v-1.5l1-0.6v2.2h1.1v0.8h-1.1v3.6c0,0.3,0,0.5,0.1,0.6s0.1,0.2,0.2,0.2s0.2,0.1,0.4,0.1C92.1,294,92.2,294,92.4,293.9z
					"/>
				<path d="M93.5,287.5v-1.2h1.1v1.2H93.5z M93.5,294.9v-6.2h1.1v6.2H93.5z"/>
				<path d="M98.4,293.9l0.2,0.9c-0.3,0.1-0.6,0.1-0.8,0.1c-0.4,0-0.7-0.1-0.9-0.2s-0.4-0.3-0.4-0.5s-0.1-0.6-0.1-1.2v-3.6h-0.8
					v-0.8h0.8v-1.5l1-0.6v2.2h1.1v0.8h-1.1v3.6c0,0.3,0,0.5,0.1,0.6s0.1,0.2,0.2,0.2s0.2,0.1,0.4,0.1C98.1,294,98.2,294,98.4,293.9z
					"/>
				<path d="M99.4,294.9v-8.6h1.1v8.6H99.4z"/>
				<path d="M106.4,292.9l1.1,0.1c-0.2,0.6-0.5,1.1-1,1.5s-1.1,0.5-1.8,0.5c-0.9,0-1.6-0.3-2.2-0.8s-0.8-1.3-0.8-2.4
					c0-1,0.3-1.9,0.8-2.4s1.2-0.9,2.1-0.9c0.8,0,1.5,0.3,2,0.8s0.8,1.4,0.8,2.4c0,0.1,0,0.2,0,0.3h-4.6c0,0.7,0.2,1.2,0.6,1.6
					s0.8,0.5,1.3,0.5c0.4,0,0.7-0.1,1-0.3S106.2,293.3,106.4,292.9z M102.9,291.2h3.5c0-0.5-0.2-0.9-0.4-1.2
					c-0.3-0.4-0.8-0.6-1.3-0.6c-0.5,0-0.9,0.2-1.2,0.5S103,290.6,102.9,291.2z"/>
				<path d="M114.4,291.1l-5.7,2.4v-1l4.5-1.9l-4.5-1.9v-1l5.7,2.4V291.1z"/>
				<path d="M42.5,305.5v-1l5.7-2.4v1l-4.5,1.9l4.5,1.9v1L42.5,305.5z"/>
				<path d="M48.9,309.4l2.5-8.9h0.8l-2.5,8.9H48.9z"/>
				<path d="M53,309.3v-8.6h1.1v3.1c0.5-0.6,1.1-0.9,1.9-0.9c0.5,0,0.9,0.1,1.2,0.3s0.6,0.4,0.7,0.8s0.2,0.8,0.2,1.4v3.9H57v-3.9
					c0-0.5-0.1-0.9-0.3-1.2s-0.6-0.4-1-0.4c-0.3,0-0.6,0.1-0.9,0.2s-0.5,0.4-0.6,0.7s-0.2,0.7-0.2,1.1v3.4H53z"/>
				<path d="M63.9,307.3l1.1,0.1c-0.2,0.6-0.5,1.1-1,1.5s-1.1,0.5-1.8,0.5c-0.9,0-1.6-0.3-2.2-0.8s-0.8-1.3-0.8-2.4
					c0-1,0.3-1.9,0.8-2.4s1.2-0.9,2.1-0.9c0.8,0,1.5,0.3,2,0.8s0.8,1.4,0.8,2.4c0,0.1,0,0.2,0,0.3h-4.6c0,0.7,0.2,1.2,0.6,1.6
					s0.8,0.5,1.3,0.5c0.4,0,0.7-0.1,1-0.3S63.8,307.7,63.9,307.3z M60.5,305.6H64c0-0.5-0.2-0.9-0.4-1.2c-0.3-0.4-0.8-0.6-1.3-0.6
					c-0.5,0-0.9,0.2-1.2,0.5S60.5,305,60.5,305.6z"/>
				<path d="M70.4,308.5c-0.4,0.3-0.8,0.6-1.1,0.7s-0.7,0.2-1.2,0.2c-0.7,0-1.2-0.2-1.6-0.5s-0.6-0.8-0.6-1.3c0-0.3,0.1-0.6,0.2-0.8
					s0.3-0.5,0.5-0.6s0.5-0.3,0.8-0.3c0.2-0.1,0.5-0.1,0.9-0.2c0.9-0.1,1.5-0.2,1.9-0.4c0-0.1,0-0.2,0-0.3c0-0.4-0.1-0.7-0.3-0.9
					c-0.3-0.2-0.7-0.4-1.2-0.4c-0.5,0-0.9,0.1-1.1,0.3s-0.4,0.5-0.5,0.9l-1-0.1c0.1-0.4,0.2-0.8,0.5-1.1s0.5-0.5,0.9-0.6
					s0.9-0.2,1.4-0.2c0.5,0,1,0.1,1.3,0.2s0.6,0.3,0.7,0.5s0.3,0.4,0.3,0.7c0,0.2,0.1,0.5,0.1,1v1.4c0,1,0,1.6,0.1,1.9
					s0.1,0.5,0.3,0.7h-1.1C70.5,309.1,70.4,308.8,70.4,308.5z M70.3,306.2c-0.4,0.2-1,0.3-1.7,0.4c-0.4,0.1-0.7,0.1-0.9,0.2
					s-0.3,0.2-0.4,0.3s-0.1,0.3-0.1,0.5c0,0.3,0.1,0.5,0.3,0.7s0.5,0.3,0.9,0.3c0.4,0,0.8-0.1,1.1-0.3s0.5-0.4,0.7-0.7
					c0.1-0.2,0.2-0.6,0.2-1.1V306.2z"/>
				<path d="M77.1,309.3v-0.8c-0.4,0.6-1,0.9-1.7,0.9c-0.5,0-1-0.1-1.4-0.4s-0.7-0.7-1-1.1s-0.3-1.1-0.3-1.7c0-0.6,0.1-1.2,0.3-1.7
					s0.5-0.9,0.9-1.2s0.9-0.4,1.4-0.4c0.4,0,0.7,0.1,1,0.2s0.5,0.4,0.7,0.6v-3.1h1v8.6H77.1z M73.7,306.2c0,0.8,0.2,1.4,0.5,1.8
					s0.7,0.6,1.2,0.6c0.5,0,0.9-0.2,1.2-0.6s0.5-1,0.5-1.7c0-0.9-0.2-1.5-0.5-1.9s-0.7-0.6-1.2-0.6c-0.5,0-0.9,0.2-1.2,0.6
					S73.7,305.4,73.7,306.2z"/>
				<path d="M85.3,305.5l-5.7,2.4v-1l4.5-1.9l-4.5-1.9v-1l5.7,2.4V305.5z"/>
				<path d="M42.5,319.9v-1l5.7-2.4v1l-4.5,1.9l4.5,1.9v1L42.5,319.9z"/>
				<path d="M50.6,323.7h-1v-8.6h1.1v3.1c0.4-0.6,1-0.8,1.7-0.8c0.4,0,0.7,0.1,1.1,0.2s0.6,0.4,0.8,0.7s0.4,0.6,0.5,1
					s0.2,0.8,0.2,1.3c0,1.1-0.3,1.9-0.8,2.5s-1.2,0.9-1.9,0.9c-0.7,0-1.3-0.3-1.7-0.9V323.7z M50.6,320.5c0,0.7,0.1,1.3,0.3,1.6
					c0.3,0.5,0.8,0.8,1.3,0.8c0.5,0,0.9-0.2,1.2-0.6s0.5-1,0.5-1.8c0-0.8-0.2-1.4-0.5-1.8s-0.7-0.6-1.2-0.6c-0.5,0-0.9,0.2-1.2,0.6
					S50.6,319.8,50.6,320.5z"/>
				<path d="M56,320.6c0-1.2,0.3-2,1-2.6c0.5-0.5,1.2-0.7,2-0.7c0.9,0,1.6,0.3,2.1,0.8s0.8,1.3,0.8,2.3c0,0.8-0.1,1.4-0.4,1.9
					s-0.6,0.8-1,1.1s-1,0.4-1.5,0.4c-0.9,0-1.6-0.3-2.1-0.8S56,321.6,56,320.6z M57,320.6c0,0.8,0.2,1.4,0.5,1.8s0.8,0.6,1.3,0.6
					c0.5,0,1-0.2,1.3-0.6s0.5-1,0.5-1.8c0-0.8-0.2-1.4-0.5-1.7s-0.8-0.6-1.3-0.6c-0.5,0-1,0.2-1.3,0.6S57,319.8,57,320.6z"/>
				<path d="M67.1,323.7v-0.8c-0.4,0.6-1,0.9-1.7,0.9c-0.5,0-1-0.1-1.4-0.4s-0.7-0.7-1-1.1s-0.3-1.1-0.3-1.7c0-0.6,0.1-1.2,0.3-1.7
					s0.5-0.9,0.9-1.2s0.9-0.4,1.4-0.4c0.4,0,0.7,0.1,1,0.2s0.5,0.4,0.7,0.6v-3.1h1v8.6H67.1z M63.7,320.6c0,0.8,0.2,1.4,0.5,1.8
					s0.7,0.6,1.2,0.6c0.5,0,0.9-0.2,1.2-0.6s0.5-1,0.5-1.7c0-0.9-0.2-1.5-0.5-1.9s-0.7-0.6-1.2-0.6c-0.5,0-0.9,0.2-1.2,0.6
					S63.7,319.8,63.7,320.6z"/>
				<path d="M69.7,326.1l-0.1-1c0.2,0.1,0.4,0.1,0.6,0.1c0.2,0,0.4,0,0.6-0.1s0.3-0.2,0.3-0.3c0.1-0.1,0.2-0.4,0.3-0.8
					c0-0.1,0.1-0.1,0.1-0.3l-2.4-6.2h1.1l1.3,3.6c0.2,0.5,0.3,0.9,0.5,1.4c0.1-0.5,0.3-1,0.4-1.4l1.3-3.6h1.1l-2.4,6.3
					c-0.3,0.7-0.5,1.2-0.6,1.4c-0.2,0.3-0.4,0.6-0.6,0.8s-0.5,0.2-0.9,0.2C70.1,326.2,69.9,326.2,69.7,326.1z"/>
				<path d="M81.3,319.9l-5.7,2.4v-1l4.5-1.9l-4.5-1.9v-1l5.7,2.4V319.9z"/>
				<path d="M82.8,323.7v-8.6h1.1v7.6h4.2v1H82.8z"/>
				<path d="M93.4,322.9c-0.4,0.3-0.8,0.6-1.1,0.7s-0.7,0.2-1.2,0.2c-0.7,0-1.2-0.2-1.6-0.5S89,322.6,89,322c0-0.3,0.1-0.6,0.2-0.8
					s0.3-0.5,0.5-0.6s0.5-0.3,0.8-0.3c0.2-0.1,0.5-0.1,0.9-0.2c0.9-0.1,1.5-0.2,1.9-0.4c0-0.1,0-0.2,0-0.3c0-0.4-0.1-0.7-0.3-0.9
					c-0.3-0.2-0.7-0.4-1.2-0.4c-0.5,0-0.9,0.1-1.1,0.3s-0.4,0.5-0.5,0.9l-1-0.1c0.1-0.4,0.2-0.8,0.5-1.1s0.5-0.5,0.9-0.6
					s0.9-0.2,1.4-0.2c0.5,0,1,0.1,1.3,0.2s0.6,0.3,0.7,0.5s0.3,0.4,0.3,0.7c0,0.2,0.1,0.5,0.1,1v1.4c0,1,0,1.6,0.1,1.9
					s0.1,0.5,0.3,0.7h-1.1C93.5,323.5,93.5,323.2,93.4,322.9z M93.4,320.6c-0.4,0.2-1,0.3-1.7,0.4c-0.4,0.1-0.7,0.1-0.9,0.2
					s-0.3,0.2-0.4,0.3s-0.1,0.3-0.1,0.5c0,0.3,0.1,0.5,0.3,0.7s0.5,0.3,0.9,0.3c0.4,0,0.8-0.1,1.1-0.3s0.5-0.4,0.7-0.7
					c0.1-0.2,0.2-0.6,0.2-1.1V320.6z"/>
				<path d="M98.4,322.7l0.2,0.9c-0.3,0.1-0.6,0.1-0.8,0.1c-0.4,0-0.7-0.1-0.9-0.2s-0.4-0.3-0.4-0.5s-0.1-0.6-0.1-1.2v-3.6h-0.8
					v-0.8h0.8v-1.5l1-0.6v2.2h1.1v0.8h-1.1v3.6c0,0.3,0,0.5,0.1,0.6s0.1,0.2,0.2,0.2s0.2,0.1,0.4,0.1
					C98,322.8,98.2,322.8,98.4,322.7z"/>
				<path d="M103.6,321.7l1.1,0.1c-0.2,0.6-0.5,1.1-1,1.5s-1.1,0.5-1.8,0.5c-0.9,0-1.6-0.3-2.2-0.8s-0.8-1.3-0.8-2.4
					c0-1,0.3-1.9,0.8-2.4s1.2-0.9,2.1-0.9c0.8,0,1.5,0.3,2,0.8s0.8,1.4,0.8,2.4c0,0.1,0,0.2,0,0.3h-4.6c0,0.7,0.2,1.2,0.6,1.6
					s0.8,0.5,1.3,0.5c0.4,0,0.7-0.1,1-0.3S103.5,322.1,103.6,321.7z M100.2,320h3.5c0-0.5-0.2-0.9-0.4-1.2c-0.3-0.4-0.8-0.6-1.3-0.6
					c-0.5,0-0.9,0.2-1.2,0.5S100.2,319.4,100.2,320z"/>
				<path d="M105.6,321.8l1-0.2c0.1,0.4,0.2,0.7,0.5,1s0.6,0.3,1.1,0.3c0.5,0,0.8-0.1,1.1-0.3s0.4-0.4,0.4-0.7
					c0-0.2-0.1-0.4-0.3-0.6c-0.1-0.1-0.5-0.2-1.1-0.4c-0.8-0.2-1.3-0.4-1.6-0.5s-0.5-0.3-0.7-0.6s-0.2-0.5-0.2-0.8
					c0-0.3,0.1-0.5,0.2-0.8s0.3-0.4,0.5-0.6c0.2-0.1,0.4-0.2,0.7-0.3s0.6-0.1,0.9-0.1c0.5,0,0.9,0.1,1.3,0.2s0.6,0.3,0.8,0.6
					s0.3,0.6,0.4,1l-1,0.1c0-0.3-0.2-0.6-0.4-0.8s-0.5-0.3-1-0.3c-0.5,0-0.8,0.1-1,0.2s-0.3,0.3-0.3,0.6c0,0.1,0,0.3,0.1,0.4
					c0.1,0.1,0.2,0.2,0.4,0.3c0.1,0,0.4,0.1,0.9,0.3c0.7,0.2,1.3,0.4,1.6,0.5s0.5,0.3,0.7,0.6s0.3,0.5,0.3,0.9c0,0.4-0.1,0.7-0.3,1
					s-0.5,0.6-0.9,0.7s-0.8,0.3-1.3,0.3c-0.8,0-1.4-0.2-1.8-0.5S105.8,322.5,105.6,321.8z"/>
				<path d="M114.4,322.7l0.2,0.9c-0.3,0.1-0.6,0.1-0.8,0.1c-0.4,0-0.7-0.1-0.9-0.2s-0.4-0.3-0.4-0.5s-0.1-0.6-0.1-1.2v-3.6h-0.8
					v-0.8h0.8v-1.5l1-0.6v2.2h1.1v0.8h-1.1v3.6c0,0.3,0,0.5,0.1,0.6s0.1,0.2,0.2,0.2s0.2,0.1,0.4,0.1
					C114,322.8,114.2,322.8,114.4,322.7z"/>
				<path d="M42.7,340.5v-8.6h1v0.8c0.2-0.3,0.5-0.6,0.8-0.7s0.6-0.2,1-0.2c0.5,0,1,0.1,1.4,0.4s0.7,0.7,0.9,1.2s0.3,1,0.3,1.6
					c0,0.6-0.1,1.2-0.3,1.7s-0.6,0.9-1,1.2s-0.9,0.4-1.4,0.4c-0.4,0-0.7-0.1-0.9-0.2s-0.5-0.3-0.7-0.6v3H42.7z M43.6,335
					c0,0.8,0.2,1.4,0.5,1.8s0.7,0.6,1.2,0.6c0.5,0,0.9-0.2,1.2-0.6s0.5-1,0.5-1.8c0-0.8-0.2-1.4-0.5-1.8s-0.7-0.6-1.2-0.6
					c-0.4,0-0.8,0.2-1.2,0.6S43.6,334.2,43.6,335z"/>
				<path d="M48.9,335c0-1.2,0.3-2,1-2.6c0.5-0.5,1.2-0.7,2-0.7c0.9,0,1.6,0.3,2.1,0.8s0.8,1.3,0.8,2.3c0,0.8-0.1,1.4-0.4,1.9
					s-0.6,0.8-1,1.1s-1,0.4-1.5,0.4c-0.9,0-1.6-0.3-2.1-0.8S48.9,336,48.9,335z M50,335c0,0.8,0.2,1.4,0.5,1.8s0.8,0.6,1.3,0.6
					c0.5,0,1-0.2,1.3-0.6s0.5-1,0.5-1.8c0-0.8-0.2-1.4-0.5-1.7s-0.8-0.6-1.3-0.6c-0.5,0-1,0.2-1.3,0.6S50,334.2,50,335z"/>
				<path d="M55.6,336.2l1-0.2c0.1,0.4,0.2,0.7,0.5,1s0.6,0.3,1.1,0.3c0.5,0,0.8-0.1,1.1-0.3s0.4-0.4,0.4-0.7c0-0.2-0.1-0.4-0.3-0.6
					c-0.1-0.1-0.5-0.2-1.1-0.4c-0.8-0.2-1.3-0.4-1.6-0.5s-0.5-0.3-0.7-0.6s-0.2-0.5-0.2-0.8c0-0.3,0.1-0.5,0.2-0.8s0.3-0.4,0.5-0.6
					c0.2-0.1,0.4-0.2,0.7-0.3s0.6-0.1,0.9-0.1c0.5,0,0.9,0.1,1.3,0.2s0.6,0.3,0.8,0.6s0.3,0.6,0.4,1l-1,0.1c0-0.3-0.2-0.6-0.4-0.8
					s-0.5-0.3-1-0.3c-0.5,0-0.8,0.1-1,0.2s-0.3,0.3-0.3,0.6c0,0.1,0,0.3,0.1,0.4c0.1,0.1,0.2,0.2,0.4,0.3c0.1,0,0.4,0.1,0.9,0.3
					c0.7,0.2,1.3,0.4,1.6,0.5s0.5,0.3,0.7,0.6s0.3,0.5,0.3,0.9c0,0.4-0.1,0.7-0.3,1s-0.5,0.6-0.9,0.7s-0.8,0.3-1.3,0.3
					c-0.8,0-1.4-0.2-1.8-0.5S55.7,336.9,55.6,336.2z"/>
				<path d="M64.3,337.1l0.2,0.9c-0.3,0.1-0.6,0.1-0.8,0.1c-0.4,0-0.7-0.1-0.9-0.2s-0.4-0.3-0.4-0.5s-0.1-0.6-0.1-1.2v-3.6h-0.8
					v-0.8h0.8v-1.5l1-0.6v2.2h1.1v0.8h-1.1v3.6c0,0.3,0,0.5,0.1,0.6s0.1,0.2,0.2,0.2s0.2,0.1,0.4,0.1
					C64,337.2,64.1,337.2,64.3,337.1z"/>
				<path d="M64.9,336.2l1-0.2c0.1,0.4,0.2,0.7,0.5,1s0.6,0.3,1.1,0.3c0.5,0,0.8-0.1,1.1-0.3s0.4-0.4,0.4-0.7c0-0.2-0.1-0.4-0.3-0.6
					c-0.1-0.1-0.5-0.2-1.1-0.4c-0.8-0.2-1.3-0.4-1.6-0.5s-0.5-0.3-0.7-0.6s-0.2-0.5-0.2-0.8c0-0.3,0.1-0.5,0.2-0.8s0.3-0.4,0.5-0.6
					c0.2-0.1,0.4-0.2,0.7-0.3s0.6-0.1,0.9-0.1c0.5,0,0.9,0.1,1.3,0.2s0.6,0.3,0.8,0.6s0.3,0.6,0.4,1l-1,0.1c0-0.3-0.2-0.6-0.4-0.8
					s-0.5-0.3-1-0.3c-0.5,0-0.8,0.1-1,0.2s-0.3,0.3-0.3,0.6c0,0.1,0,0.3,0.1,0.4c0.1,0.1,0.2,0.2,0.4,0.3c0.1,0,0.4,0.1,0.9,0.3
					c0.7,0.2,1.3,0.4,1.6,0.5s0.5,0.3,0.7,0.6s0.3,0.5,0.3,0.9c0,0.4-0.1,0.7-0.3,1s-0.5,0.6-0.9,0.7s-0.8,0.3-1.3,0.3
					c-0.8,0-1.4-0.2-1.8-0.5S65,336.9,64.9,336.2z"/>
				<path d="M71.2,334.3v-1l5.7-2.4v1l-4.5,1.9l4.5,1.9v1L71.2,334.3z"/>
				<path d="M77.6,338.2l2.5-8.9h0.8l-2.5,8.9H77.6z"/>
				<path d="M82.7,338.1h-1v-8.6h1.1v3.1c0.4-0.6,1-0.8,1.7-0.8c0.4,0,0.7,0.1,1.1,0.2s0.6,0.4,0.8,0.7s0.4,0.6,0.5,1
					s0.2,0.8,0.2,1.3c0,1.1-0.3,1.9-0.8,2.5s-1.2,0.9-1.9,0.9c-0.7,0-1.3-0.3-1.7-0.9V338.1z M82.7,334.9c0,0.7,0.1,1.3,0.3,1.6
					c0.3,0.5,0.8,0.8,1.3,0.8c0.5,0,0.9-0.2,1.2-0.6s0.5-1,0.5-1.8c0-0.8-0.2-1.4-0.5-1.8s-0.7-0.6-1.2-0.6c-0.5,0-0.9,0.2-1.2,0.6
					S82.7,334.2,82.7,334.9z"/>
				<path d="M88,335c0-1.2,0.3-2,1-2.6c0.5-0.5,1.2-0.7,2-0.7c0.9,0,1.6,0.3,2.1,0.8s0.8,1.3,0.8,2.3c0,0.8-0.1,1.4-0.4,1.9
					s-0.6,0.8-1,1.1s-1,0.4-1.5,0.4c-0.9,0-1.6-0.3-2.1-0.8S88,336,88,335z M89.1,335c0,0.8,0.2,1.4,0.5,1.8s0.8,0.6,1.3,0.6
					c0.5,0,1-0.2,1.3-0.6s0.5-1,0.5-1.8c0-0.8-0.2-1.4-0.5-1.7s-0.8-0.6-1.3-0.6c-0.5,0-1,0.2-1.3,0.6S89.1,334.2,89.1,335z"/>
				<path d="M99.1,338.1v-0.8c-0.4,0.6-1,0.9-1.7,0.9c-0.5,0-1-0.1-1.4-0.4s-0.7-0.7-1-1.1s-0.3-1.1-0.3-1.7c0-0.6,0.1-1.2,0.3-1.7
					s0.5-0.9,0.9-1.2s0.9-0.4,1.4-0.4c0.4,0,0.7,0.1,1,0.2s0.5,0.4,0.7,0.6v-3.1h1v8.6H99.1z M95.7,335c0,0.8,0.2,1.4,0.5,1.8
					s0.7,0.6,1.2,0.6c0.5,0,0.9-0.2,1.2-0.6s0.5-1,0.5-1.7c0-0.9-0.2-1.5-0.5-1.9s-0.7-0.6-1.2-0.6c-0.5,0-0.9,0.2-1.2,0.6
					S95.7,334.1,95.7,335z"/>
				<path d="M101.7,340.5l-0.1-1c0.2,0.1,0.4,0.1,0.6,0.1c0.2,0,0.4,0,0.6-0.1s0.3-0.2,0.3-0.3c0.1-0.1,0.2-0.4,0.3-0.8
					c0-0.1,0.1-0.1,0.1-0.3l-2.4-6.2h1.1l1.3,3.6c0.2,0.5,0.3,0.9,0.5,1.4c0.1-0.5,0.3-1,0.4-1.4l1.3-3.6h1.1l-2.4,6.3
					c-0.3,0.7-0.5,1.2-0.6,1.4c-0.2,0.3-0.4,0.6-0.6,0.8s-0.5,0.2-0.9,0.2C102.1,340.6,101.9,340.6,101.7,340.5z"/>
				<path d="M113.3,334.3l-5.7,2.4v-1l4.5-1.9l-4.5-1.9v-1l5.7,2.4V334.3z"/>
				<path d="M42.5,348.7v-1l5.7-2.4v1l-4.5,1.9l4.5,1.9v1L42.5,348.7z"/>
				<path d="M48.9,352.6l2.5-8.9h0.8l-2.5,8.9H48.9z"/>
				<path d="M53,352.5v-8.6h1.1v3.1c0.5-0.6,1.1-0.9,1.9-0.9c0.5,0,0.9,0.1,1.2,0.3s0.6,0.4,0.7,0.8s0.2,0.8,0.2,1.4v3.9H57v-3.9
					c0-0.5-0.1-0.9-0.3-1.2s-0.6-0.4-1-0.4c-0.3,0-0.6,0.1-0.9,0.2s-0.5,0.4-0.6,0.7s-0.2,0.7-0.2,1.1v3.4H53z"/>
				<path d="M62,351.5l0.2,0.9c-0.3,0.1-0.6,0.1-0.8,0.1c-0.4,0-0.7-0.1-0.9-0.2s-0.4-0.3-0.4-0.5s-0.1-0.6-0.1-1.2v-3.6h-0.8v-0.8
					h0.8v-1.5l1-0.6v2.2H62v0.8h-1.1v3.6c0,0.3,0,0.5,0.1,0.6s0.1,0.2,0.2,0.2s0.2,0.1,0.4,0.1C61.6,351.6,61.8,351.6,62,351.5z"/>
				<path d="M63,352.5v-6.2H64v0.9c0.2-0.3,0.5-0.5,0.8-0.7s0.7-0.3,1.1-0.3c0.5,0,0.8,0.1,1.1,0.3s0.5,0.5,0.6,0.8
					c0.5-0.7,1.1-1.1,1.9-1.1c0.6,0,1.1,0.2,1.4,0.5s0.5,0.9,0.5,1.6v4.3h-1v-3.9c0-0.4,0-0.7-0.1-0.9s-0.2-0.3-0.4-0.4
					s-0.4-0.2-0.6-0.2c-0.4,0-0.8,0.1-1.1,0.4s-0.4,0.8-0.4,1.4v3.6h-1.1v-4c0-0.5-0.1-0.8-0.3-1.1S66,347,65.6,347
					c-0.3,0-0.6,0.1-0.8,0.2s-0.4,0.4-0.5,0.7s-0.2,0.7-0.2,1.3v3.2H63z"/>
				<path d="M73,352.5v-8.6H74v8.6H73z"/>
				<path d="M81.2,348.7l-5.7,2.4v-1l4.5-1.9l-4.5-1.9v-1l5.7,2.4V348.7z"/>
			</g>
		</g>
		<g>
			<g>
				<path d="M36.3,217.9v-10h4.4c0.9,0,1.6,0.1,2,0.3s0.8,0.5,1.1,1s0.4,1,0.4,1.5c0,0.7-0.2,1.3-0.7,1.8s-1.2,0.8-2.1,0.9
					c0.4,0.2,0.6,0.3,0.8,0.5c0.4,0.4,0.8,0.8,1.1,1.3l1.7,2.7h-1.7l-1.3-2.1c-0.4-0.6-0.7-1.1-1-1.4s-0.5-0.5-0.7-0.7
					s-0.4-0.2-0.6-0.3c-0.2,0-0.4,0-0.7,0h-1.5v4.5H36.3z M37.7,212.3h2.9c0.6,0,1.1-0.1,1.4-0.2s0.6-0.3,0.8-0.6s0.3-0.6,0.3-0.9
					c0-0.5-0.2-0.9-0.5-1.2s-0.9-0.5-1.6-0.5h-3.2V212.3z"/>
				<path d="M51.2,215.6l1.3,0.2c-0.2,0.7-0.6,1.3-1.1,1.7s-1.2,0.6-2.1,0.6c-1.1,0-1.9-0.3-2.5-1s-0.9-1.6-0.9-2.8
					c0-1.2,0.3-2.2,0.9-2.8s1.4-1,2.4-1c1,0,1.8,0.3,2.4,1s0.9,1.6,0.9,2.8c0,0.1,0,0.2,0,0.3h-5.4c0,0.8,0.3,1.4,0.7,1.8
					s0.9,0.6,1.5,0.6c0.5,0,0.8-0.1,1.2-0.4S51.1,216.1,51.2,215.6z M47.2,213.6h4.1c-0.1-0.6-0.2-1.1-0.5-1.4
					c-0.4-0.5-0.9-0.7-1.5-0.7c-0.6,0-1,0.2-1.4,0.6S47.2,213,47.2,213.6z"/>
				<path d="M53.6,215.8l1.2-0.2c0.1,0.5,0.3,0.9,0.6,1.1s0.7,0.4,1.3,0.4c0.6,0,1-0.1,1.3-0.3s0.4-0.5,0.4-0.8
					c0-0.3-0.1-0.5-0.4-0.7c-0.2-0.1-0.6-0.2-1.3-0.4c-0.9-0.2-1.5-0.4-1.9-0.6s-0.6-0.4-0.8-0.7s-0.3-0.6-0.3-1
					c0-0.3,0.1-0.6,0.2-0.9s0.3-0.5,0.6-0.7c0.2-0.1,0.5-0.3,0.8-0.4s0.7-0.1,1.1-0.1c0.6,0,1.1,0.1,1.5,0.2s0.7,0.4,1,0.7
					s0.3,0.7,0.4,1.1l-1.2,0.2c-0.1-0.4-0.2-0.7-0.5-0.9s-0.6-0.3-1.1-0.3c-0.6,0-1,0.1-1.2,0.3s-0.4,0.4-0.4,0.7
					c0,0.2,0.1,0.3,0.2,0.4c0.1,0.1,0.3,0.2,0.5,0.3c0.1,0,0.5,0.2,1.1,0.3c0.9,0.2,1.5,0.4,1.8,0.6s0.6,0.4,0.8,0.6
					s0.3,0.6,0.3,1.1c0,0.4-0.1,0.8-0.4,1.2s-0.6,0.6-1,0.8s-1,0.3-1.5,0.3c-0.9,0-1.7-0.2-2.2-0.6S53.7,216.5,53.6,215.8z"/>
				<path d="M61.1,220.7v-10h1.1v0.9c0.3-0.4,0.6-0.6,0.9-0.8s0.7-0.3,1.2-0.3c0.6,0,1.2,0.2,1.6,0.5s0.8,0.8,1.1,1.4
					s0.4,1.2,0.4,1.9c0,0.7-0.1,1.4-0.4,2s-0.7,1.1-1.2,1.4s-1,0.5-1.6,0.5c-0.4,0-0.8-0.1-1.1-0.3s-0.6-0.4-0.8-0.7v3.5H61.1z
					 M62.2,214.3c0,0.9,0.2,1.6,0.6,2.1s0.8,0.7,1.4,0.7c0.5,0,1-0.2,1.4-0.7s0.6-1.2,0.6-2.1c0-0.9-0.2-1.6-0.6-2.1
					s-0.8-0.7-1.4-0.7c-0.5,0-1,0.2-1.4,0.7S62.2,213.4,62.2,214.3z"/>
				<path d="M68.4,214.3c0-1.3,0.4-2.3,1.1-3c0.6-0.5,1.4-0.8,2.3-0.8c1,0,1.8,0.3,2.4,1s1,1.6,1,2.7c0,0.9-0.1,1.7-0.4,2.2
					s-0.7,1-1.2,1.2s-1.1,0.4-1.8,0.4c-1,0-1.8-0.3-2.5-1S68.4,215.5,68.4,214.3z M69.7,214.3c0,0.9,0.2,1.6,0.6,2.1
					s0.9,0.7,1.5,0.7c0.6,0,1.1-0.2,1.5-0.7s0.6-1.2,0.6-2.1c0-0.9-0.2-1.6-0.6-2s-0.9-0.7-1.5-0.7c-0.6,0-1.1,0.2-1.5,0.7
					S69.7,213.4,69.7,214.3z"/>
				<path d="M76.6,217.9v-7.3h1.1v1c0.5-0.8,1.3-1.2,2.3-1.2c0.4,0,0.8,0.1,1.2,0.2s0.6,0.4,0.8,0.6s0.3,0.6,0.4,0.9
					c0,0.2,0.1,0.6,0.1,1.2v4.5h-1.2v-4.4c0-0.5,0-0.9-0.1-1.1s-0.3-0.4-0.5-0.6s-0.5-0.2-0.9-0.2c-0.5,0-1,0.2-1.4,0.5
					s-0.6,1-0.6,1.9v4H76.6z"/>
				<path d="M83.9,215.8l1.2-0.2c0.1,0.5,0.3,0.9,0.6,1.1s0.7,0.4,1.3,0.4c0.6,0,1-0.1,1.3-0.3s0.4-0.5,0.4-0.8
					c0-0.3-0.1-0.5-0.4-0.7c-0.2-0.1-0.6-0.2-1.3-0.4c-0.9-0.2-1.5-0.4-1.9-0.6s-0.6-0.4-0.8-0.7s-0.3-0.6-0.3-1
					c0-0.3,0.1-0.6,0.2-0.9s0.3-0.5,0.6-0.7c0.2-0.1,0.5-0.3,0.8-0.4s0.7-0.1,1.1-0.1c0.6,0,1.1,0.1,1.5,0.2s0.7,0.4,1,0.7
					s0.3,0.7,0.4,1.1l-1.2,0.2c-0.1-0.4-0.2-0.7-0.5-0.9s-0.6-0.3-1.1-0.3c-0.6,0-1,0.1-1.2,0.3s-0.4,0.4-0.4,0.7
					c0,0.2,0.1,0.3,0.2,0.4c0.1,0.1,0.3,0.2,0.5,0.3c0.1,0,0.5,0.2,1.1,0.3c0.9,0.2,1.5,0.4,1.8,0.6s0.6,0.4,0.8,0.6
					s0.3,0.6,0.3,1.1c0,0.4-0.1,0.8-0.4,1.2s-0.6,0.6-1,0.8s-1,0.3-1.5,0.3c-0.9,0-1.7-0.2-2.2-0.6S84.1,216.5,83.9,215.8z"/>
				<path d="M96.4,215.6l1.3,0.2c-0.2,0.7-0.6,1.3-1.1,1.7s-1.2,0.6-2.1,0.6c-1.1,0-1.9-0.3-2.5-1s-0.9-1.6-0.9-2.8
					c0-1.2,0.3-2.2,0.9-2.8s1.4-1,2.4-1c1,0,1.8,0.3,2.4,1s0.9,1.6,0.9,2.8c0,0.1,0,0.2,0,0.3h-5.4c0,0.8,0.3,1.4,0.7,1.8
					s0.9,0.6,1.5,0.6c0.5,0,0.8-0.1,1.2-0.4S96.2,216.1,96.4,215.6z M92.3,213.6h4.1c-0.1-0.6-0.2-1.1-0.5-1.4
					c-0.4-0.5-0.9-0.7-1.5-0.7c-0.6,0-1,0.2-1.4,0.6S92.4,213,92.3,213.6z"/>
				<path d="M105.4,220.9c-0.7-0.9-1.3-1.9-1.7-3s-0.7-2.3-0.7-3.6c0-1.1,0.2-2.1,0.5-3.1c0.4-1.2,1-2.3,1.9-3.4h0.9
					c-0.6,0.9-0.9,1.6-1.1,2c-0.3,0.6-0.5,1.3-0.7,2c-0.2,0.9-0.3,1.7-0.3,2.6c0,2.2,0.7,4.4,2,6.6H105.4z"/>
				<path d="M108,217.9v-10h1.3v4.1h5.2v-4.1h1.3v10h-1.3v-4.7h-5.2v4.7H108z"/>
				<path d="M120.6,217.9v-8.8h-3.3v-1.2h7.9v1.2h-3.3v8.8H120.6z"/>
				<path d="M126.5,217.9v-10h2l2.4,7.1c0.2,0.7,0.4,1.2,0.5,1.5c0.1-0.4,0.3-0.9,0.5-1.6l2.4-7h1.8v10h-1.3v-8.4l-2.9,8.4h-1.2
					l-2.9-8.5v8.5H126.5z"/>
				<path d="M138.2,217.9v-10h1.3v8.8h4.9v1.2H138.2z"/>
				<path d="M146.7,220.9h-0.9c1.4-2.2,2-4.4,2-6.6c0-0.9-0.1-1.7-0.3-2.5c-0.2-0.7-0.4-1.3-0.6-2c-0.2-0.4-0.5-1.1-1.1-2.1h0.9
					c0.9,1.1,1.5,2.3,1.9,3.4c0.4,1,0.5,2,0.5,3.1c0,1.2-0.2,2.4-0.7,3.6S147.3,220,146.7,220.9z"/>
			</g>
		</g>
	</g>
	<g>
		<g>
			<path d="M369.3,116.8h1.1v5c0,0.9-0.1,1.5-0.3,2.1s-0.5,0.9-1.1,1.2s-1.2,0.5-2,0.5c-0.8,0-1.5-0.1-2-0.4s-0.9-0.7-1.1-1.2
				s-0.3-1.2-0.3-2.2v-5h1.1v5c0,0.7,0.1,1.3,0.2,1.6s0.4,0.6,0.7,0.8s0.8,0.3,1.2,0.3c0.8,0,1.4-0.2,1.8-0.6s0.5-1.1,0.5-2.2V116.8
				z"/>
			<path d="M372.3,125.4v-8.6h3.8c0.8,0,1.3,0.1,1.7,0.2s0.7,0.4,1,0.8s0.4,0.8,0.4,1.3c0,0.6-0.2,1.1-0.6,1.5s-1,0.7-1.8,0.8
				c0.3,0.1,0.5,0.3,0.7,0.4c0.3,0.3,0.6,0.7,0.9,1.1l1.5,2.3h-1.4l-1.1-1.8c-0.3-0.5-0.6-0.9-0.8-1.2s-0.4-0.5-0.6-0.6
				s-0.3-0.2-0.5-0.2c-0.1,0-0.3,0-0.6,0h-1.3v3.8H372.3z M373.4,120.6h2.4c0.5,0,0.9-0.1,1.2-0.2s0.5-0.3,0.7-0.5s0.2-0.5,0.2-0.8
				c0-0.4-0.1-0.7-0.4-1s-0.8-0.4-1.4-0.4h-2.7V120.6z"/>
			<path d="M381.1,125.4v-8.6h1.1v8.6H381.1z"/>
			<path d="M384.4,120.4v-1.2h1.2v1.2H384.4z M384.4,125.4v-1.2h1.2v1.2H384.4z"/>
			<path d="M394.2,125.4v-8.6h1.1v3.1c0.5-0.6,1.1-0.9,1.9-0.9c0.5,0,0.9,0.1,1.2,0.3s0.6,0.4,0.7,0.8s0.2,0.8,0.2,1.4v3.9h-1.1
				v-3.9c0-0.5-0.1-0.9-0.3-1.2s-0.6-0.4-1-0.4c-0.3,0-0.6,0.1-0.9,0.2s-0.5,0.4-0.6,0.7s-0.2,0.7-0.2,1.1v3.4H394.2z"/>
			<path d="M403.1,124.5l0.2,0.9c-0.3,0.1-0.6,0.1-0.8,0.1c-0.4,0-0.7-0.1-0.9-0.2s-0.4-0.3-0.4-0.5s-0.1-0.6-0.1-1.2V120h-0.8v-0.8
				h0.8v-1.5l1-0.6v2.2h1.1v0.8h-1.1v3.6c0,0.3,0,0.5,0.1,0.6s0.1,0.2,0.2,0.2s0.2,0.1,0.4,0.1C402.8,124.5,402.9,124.5,403.1,124.5
				z"/>
			<path d="M406.5,124.5l0.2,0.9c-0.3,0.1-0.6,0.1-0.8,0.1c-0.4,0-0.7-0.1-0.9-0.2s-0.4-0.3-0.4-0.5s-0.1-0.6-0.1-1.2V120h-0.8v-0.8
				h0.8v-1.5l1-0.6v2.2h1.1v0.8h-1.1v3.6c0,0.3,0,0.5,0.1,0.6s0.1,0.2,0.2,0.2s0.2,0.1,0.4,0.1C406.1,124.5,406.3,124.5,406.5,124.5
				z"/>
			<path d="M407.5,127.8v-8.6h1v0.8c0.2-0.3,0.5-0.6,0.8-0.7s0.6-0.2,1-0.2c0.5,0,1,0.1,1.4,0.4s0.7,0.7,0.9,1.2s0.3,1,0.3,1.6
				c0,0.6-0.1,1.2-0.3,1.7s-0.6,0.9-1,1.2s-0.9,0.4-1.4,0.4c-0.4,0-0.7-0.1-0.9-0.2s-0.5-0.3-0.7-0.6v3H407.5z M408.4,122.4
				c0,0.8,0.2,1.4,0.5,1.8s0.7,0.6,1.2,0.6c0.5,0,0.9-0.2,1.2-0.6s0.5-1,0.5-1.8c0-0.8-0.2-1.4-0.5-1.8s-0.7-0.6-1.2-0.6
				c-0.4,0-0.8,0.2-1.2,0.6S408.4,121.6,408.4,122.4z"/>
			<path d="M414.5,120.4v-1.2h1.2v1.2H414.5z M414.5,125.4v-1.2h1.2v1.2H414.5z"/>
			<path d="M416.7,125.6l2.5-8.9h0.8l-2.5,8.9H416.7z"/>
			<path d="M420,125.6l2.5-8.9h0.8l-2.5,8.9H420z"/>
			<path d="M424.2,118.1v-1.2h1.1v1.2H424.2z M424.2,125.4v-6.2h1.1v6.2H424.2z"/>
			<path d="M430.9,125.4v-0.8c-0.4,0.6-1,0.9-1.7,0.9c-0.5,0-1-0.1-1.4-0.4s-0.7-0.7-1-1.1s-0.3-1.1-0.3-1.7c0-0.6,0.1-1.2,0.3-1.7
				s0.5-0.9,0.9-1.2s0.9-0.4,1.4-0.4c0.4,0,0.7,0.1,1,0.2s0.5,0.4,0.7,0.6v-3.1h1v8.6H430.9z M427.5,122.3c0,0.8,0.2,1.4,0.5,1.8
				s0.7,0.6,1.2,0.6c0.5,0,0.9-0.2,1.2-0.6s0.5-1,0.5-1.7c0-0.9-0.2-1.5-0.5-1.9s-0.7-0.6-1.2-0.6c-0.5,0-0.9,0.2-1.2,0.6
				S427.5,121.5,427.5,122.3z"/>
			<path d="M433.5,125.4v-6.2h0.9v0.9c0.2-0.4,0.5-0.7,0.7-0.9s0.4-0.2,0.7-0.2c0.4,0,0.7,0.1,1.1,0.3l-0.4,1
				c-0.3-0.2-0.5-0.2-0.8-0.2c-0.2,0-0.4,0.1-0.6,0.2s-0.3,0.3-0.4,0.6c-0.1,0.4-0.2,0.8-0.2,1.2v3.3H433.5z"/>
			<path d="M441.6,124.7c-0.4,0.3-0.8,0.6-1.1,0.7s-0.7,0.2-1.2,0.2c-0.7,0-1.2-0.2-1.6-0.5s-0.6-0.8-0.6-1.3c0-0.3,0.1-0.6,0.2-0.8
				s0.3-0.5,0.5-0.6s0.5-0.3,0.8-0.3c0.2-0.1,0.5-0.1,0.9-0.2c0.9-0.1,1.5-0.2,1.9-0.4c0-0.1,0-0.2,0-0.3c0-0.4-0.1-0.7-0.3-0.9
				c-0.3-0.2-0.7-0.4-1.2-0.4c-0.5,0-0.9,0.1-1.1,0.3s-0.4,0.5-0.5,0.9l-1-0.1c0.1-0.4,0.2-0.8,0.5-1.1s0.5-0.5,0.9-0.6
				s0.9-0.2,1.4-0.2c0.5,0,1,0.1,1.3,0.2s0.6,0.3,0.7,0.5s0.3,0.4,0.3,0.7c0,0.2,0.1,0.5,0.1,1v1.4c0,1,0,1.6,0.1,1.9
				s0.1,0.5,0.3,0.7h-1.1C441.7,125.2,441.6,125,441.6,124.7z M441.5,122.3c-0.4,0.2-1,0.3-1.7,0.4c-0.4,0.1-0.7,0.1-0.9,0.2
				s-0.3,0.2-0.4,0.3s-0.1,0.3-0.1,0.5c0,0.3,0.1,0.5,0.3,0.7s0.5,0.3,0.9,0.3c0.4,0,0.8-0.1,1.1-0.3s0.5-0.4,0.7-0.7
				c0.1-0.2,0.2-0.6,0.2-1.1V122.3z"/>
			<path d="M446.5,124.5l0.2,0.9c-0.3,0.1-0.6,0.1-0.8,0.1c-0.4,0-0.7-0.1-0.9-0.2s-0.4-0.3-0.4-0.5s-0.1-0.6-0.1-1.2V120h-0.8v-0.8
				h0.8v-1.5l1-0.6v2.2h1.1v0.8h-1.1v3.6c0,0.3,0,0.5,0.1,0.6s0.1,0.2,0.2,0.2s0.2,0.1,0.4,0.1C446.1,124.5,446.3,124.5,446.5,124.5
				z"/>
			<path d="M447.5,125.4v-8.6h1.1v3.1c0.5-0.6,1.1-0.9,1.9-0.9c0.5,0,0.9,0.1,1.2,0.3s0.6,0.4,0.7,0.8s0.2,0.8,0.2,1.4v3.9h-1.1
				v-3.9c0-0.5-0.1-0.9-0.3-1.2s-0.6-0.4-1-0.4c-0.3,0-0.6,0.1-0.9,0.2s-0.5,0.4-0.6,0.7s-0.2,0.7-0.2,1.1v3.4H447.5z"/>
			<path d="M458.4,123.4l1.1,0.1c-0.2,0.6-0.5,1.1-1,1.5s-1.1,0.5-1.8,0.5c-0.9,0-1.6-0.3-2.2-0.8s-0.8-1.3-0.8-2.4
				c0-1,0.3-1.9,0.8-2.4s1.2-0.9,2.1-0.9c0.8,0,1.5,0.3,2,0.8s0.8,1.4,0.8,2.4c0,0.1,0,0.2,0,0.3h-4.6c0,0.7,0.2,1.2,0.6,1.6
				s0.8,0.5,1.3,0.5c0.4,0,0.7-0.1,1-0.3S458.3,123.9,458.4,123.4z M455,121.7h3.5c0-0.5-0.2-0.9-0.4-1.2c-0.3-0.4-0.8-0.6-1.3-0.6
				c-0.5,0-0.9,0.2-1.2,0.5S455,121.2,455,121.7z"/>
			<path d="M460.8,125.4v-6.2h0.9v0.9c0.2-0.4,0.5-0.7,0.7-0.9s0.4-0.2,0.7-0.2c0.4,0,0.7,0.1,1.1,0.3l-0.4,1
				c-0.3-0.2-0.5-0.2-0.8-0.2c-0.2,0-0.4,0.1-0.6,0.2s-0.3,0.3-0.4,0.6c-0.1,0.4-0.2,0.8-0.2,1.2v3.3H460.8z"/>
			<path d="M465.8,125.4h-1v-8.6h1.1v3.1c0.4-0.6,1-0.8,1.7-0.8c0.4,0,0.7,0.1,1.1,0.2s0.6,0.4,0.8,0.7s0.4,0.6,0.5,1
				s0.2,0.8,0.2,1.3c0,1.1-0.3,1.9-0.8,2.5s-1.2,0.9-1.9,0.9c-0.7,0-1.3-0.3-1.7-0.9V125.4z M465.8,122.3c0,0.7,0.1,1.3,0.3,1.6
				c0.3,0.5,0.8,0.8,1.3,0.8c0.5,0,0.9-0.2,1.2-0.6s0.5-1,0.5-1.8c0-0.8-0.2-1.4-0.5-1.8s-0.7-0.6-1.2-0.6c-0.5,0-0.9,0.2-1.2,0.6
				S465.8,121.5,465.8,122.3z"/>
			<path d="M475.8,123.4l1.1,0.1c-0.2,0.6-0.5,1.1-1,1.5s-1.1,0.5-1.8,0.5c-0.9,0-1.6-0.3-2.2-0.8s-0.8-1.3-0.8-2.4
				c0-1,0.3-1.9,0.8-2.4s1.2-0.9,2.1-0.9c0.8,0,1.5,0.3,2,0.8s0.8,1.4,0.8,2.4c0,0.1,0,0.2,0,0.3h-4.6c0,0.7,0.2,1.2,0.6,1.6
				s0.8,0.5,1.3,0.5c0.4,0,0.7-0.1,1-0.3S475.6,123.9,475.8,123.4z M472.3,121.7h3.5c0-0.5-0.2-0.9-0.4-1.2
				c-0.3-0.4-0.8-0.6-1.3-0.6c-0.5,0-0.9,0.2-1.2,0.5S472.4,121.2,472.3,121.7z"/>
			<path d="M479.4,125.4l-1.9-6.2h1.1l1,3.6l0.4,1.3c0-0.1,0.1-0.5,0.3-1.3l1-3.6h1.1l0.9,3.6l0.3,1.2l0.4-1.2l1.1-3.6h1l-1.9,6.2
				h-1.1l-1-3.7l-0.2-1.1l-1.3,4.8H479.4z"/>
			<path d="M486.9,125.4v-6.2h0.9v0.9c0.2-0.4,0.5-0.7,0.7-0.9s0.4-0.2,0.7-0.2c0.4,0,0.7,0.1,1.1,0.3l-0.4,1
				c-0.3-0.2-0.5-0.2-0.8-0.2c-0.2,0-0.4,0.1-0.6,0.2s-0.3,0.3-0.4,0.6c-0.1,0.4-0.2,0.8-0.2,1.2v3.3H486.9z"/>
			<path d="M490.9,118.1v-1.2h1.1v1.2H490.9z M490.9,125.4v-6.2h1.1v6.2H490.9z"/>
			<path d="M495.8,124.5l0.2,0.9c-0.3,0.1-0.6,0.1-0.8,0.1c-0.4,0-0.7-0.1-0.9-0.2s-0.4-0.3-0.4-0.5s-0.1-0.6-0.1-1.2V120H493v-0.8
				h0.8v-1.5l1-0.6v2.2h1.1v0.8h-1.1v3.6c0,0.3,0,0.5,0.1,0.6s0.1,0.2,0.2,0.2s0.2,0.1,0.4,0.1C495.5,124.5,495.6,124.5,495.8,124.5
				z"/>
			<path d="M496.9,118.1v-1.2h1.1v1.2H496.9z M496.9,125.4v-6.2h1.1v6.2H496.9z"/>
			<path d="M499.5,125.4v-6.2h0.9v0.9c0.5-0.7,1.1-1,2-1c0.4,0,0.7,0.1,1,0.2s0.5,0.3,0.7,0.5s0.3,0.5,0.3,0.8c0,0.2,0.1,0.5,0.1,1
				v3.8h-1.1v-3.8c0-0.4,0-0.8-0.1-1s-0.2-0.4-0.4-0.5s-0.5-0.2-0.7-0.2c-0.4,0-0.8,0.1-1.2,0.4s-0.5,0.8-0.5,1.6v3.4H499.5z"/>
			<path d="M506,125.9l1,0.2c0,0.3,0.2,0.5,0.4,0.7c0.3,0.2,0.6,0.3,1.1,0.3c0.5,0,0.9-0.1,1.1-0.3s0.4-0.5,0.5-0.8
				c0.1-0.2,0.1-0.7,0.1-1.4c-0.5,0.5-1,0.8-1.7,0.8c-0.9,0-1.5-0.3-2-0.9s-0.7-1.4-0.7-2.2c0-0.6,0.1-1.1,0.3-1.6s0.5-0.9,0.9-1.2
				s0.9-0.4,1.4-0.4c0.7,0,1.3,0.3,1.8,0.9v-0.8h1v5.4c0,1-0.1,1.7-0.3,2.1s-0.5,0.7-0.9,1s-1,0.4-1.6,0.4c-0.7,0-1.3-0.2-1.8-0.5
				S506,126.6,506,125.9z M506.9,122.2c0,0.8,0.2,1.4,0.5,1.8s0.7,0.6,1.2,0.6c0.5,0,0.9-0.2,1.2-0.6s0.5-1,0.5-1.8
				c0-0.8-0.2-1.3-0.5-1.7s-0.7-0.6-1.2-0.6c-0.5,0-0.9,0.2-1.2,0.6S506.9,121.5,506.9,122.2z"/>
			<path d="M513.2,125.4v-1.2h1.2v1.2H513.2z"/>
			<path d="M520.3,123.2l1,0.1c-0.1,0.7-0.4,1.3-0.9,1.7s-1,0.6-1.7,0.6c-0.9,0-1.5-0.3-2.1-0.8s-0.8-1.4-0.8-2.4
				c0-0.7,0.1-1.3,0.3-1.8s0.6-0.9,1-1.1s1-0.4,1.5-0.4c0.7,0,1.2,0.2,1.7,0.5s0.7,0.8,0.8,1.5l-1,0.2c-0.1-0.4-0.3-0.7-0.5-0.9
				s-0.5-0.3-0.9-0.3c-0.5,0-1,0.2-1.3,0.6s-0.5,1-0.5,1.8c0,0.8,0.2,1.4,0.5,1.8s0.7,0.6,1.3,0.6c0.4,0,0.8-0.1,1-0.4
				S520.2,123.7,520.3,123.2z"/>
			<path d="M521.8,122.3c0-1.2,0.3-2,1-2.6c0.5-0.5,1.2-0.7,2-0.7c0.9,0,1.6,0.3,2.1,0.8s0.8,1.3,0.8,2.3c0,0.8-0.1,1.4-0.4,1.9
				s-0.6,0.8-1,1.1s-1,0.4-1.5,0.4c-0.9,0-1.6-0.3-2.1-0.8S521.8,123.4,521.8,122.3z M522.9,122.3c0,0.8,0.2,1.4,0.5,1.8
				s0.8,0.6,1.3,0.6c0.5,0,1-0.2,1.3-0.6s0.5-1,0.5-1.8c0-0.8-0.2-1.4-0.5-1.7s-0.8-0.6-1.3-0.6c-0.5,0-1,0.2-1.3,0.6
				S522.9,121.5,522.9,122.3z"/>
			<path d="M528.9,125.4v-6.2h0.9v0.9c0.2-0.3,0.5-0.5,0.8-0.7s0.7-0.3,1.1-0.3c0.5,0,0.8,0.1,1.1,0.3s0.5,0.5,0.6,0.8
				c0.5-0.7,1.1-1.1,1.9-1.1c0.6,0,1.1,0.2,1.4,0.5s0.5,0.9,0.5,1.6v4.3h-1v-3.9c0-0.4,0-0.7-0.1-0.9s-0.2-0.3-0.4-0.4
				s-0.4-0.2-0.6-0.2c-0.4,0-0.8,0.1-1.1,0.4s-0.4,0.8-0.4,1.4v3.6h-1.1v-4c0-0.5-0.1-0.8-0.3-1.1s-0.5-0.4-0.8-0.4
				c-0.3,0-0.6,0.1-0.8,0.2s-0.4,0.4-0.5,0.7s-0.2,0.7-0.2,1.3v3.2H528.9z"/>
			<path d="M363.6,139.8v-8.6h1.7l2,6.1c0.2,0.6,0.3,1,0.4,1.3c0.1-0.3,0.2-0.8,0.5-1.4l2.1-6h1.5v8.6h-1.1v-7.2l-2.5,7.2h-1
				l-2.5-7.3v7.3H363.6z"/>
			<path d="M377.7,137.8l1.1,0.1c-0.2,0.6-0.5,1.1-1,1.5s-1.1,0.5-1.8,0.5c-0.9,0-1.6-0.3-2.2-0.8s-0.8-1.3-0.8-2.4
				c0-1,0.3-1.9,0.8-2.4s1.2-0.9,2.1-0.9c0.8,0,1.5,0.3,2,0.8s0.8,1.4,0.8,2.4c0,0.1,0,0.2,0,0.3h-4.6c0,0.7,0.2,1.2,0.6,1.6
				s0.8,0.5,1.3,0.5c0.4,0,0.7-0.1,1-0.3S377.6,138.3,377.7,137.8z M374.3,136.1h3.5c0-0.5-0.2-0.9-0.4-1.2
				c-0.3-0.4-0.8-0.6-1.3-0.6c-0.5,0-0.9,0.2-1.2,0.5S374.3,135.6,374.3,136.1z"/>
			<path d="M382.5,138.9l0.2,0.9c-0.3,0.1-0.6,0.1-0.8,0.1c-0.4,0-0.7-0.1-0.9-0.2s-0.4-0.3-0.4-0.5s-0.1-0.6-0.1-1.2v-3.6h-0.8
				v-0.8h0.8v-1.5l1-0.6v2.2h1.1v0.8h-1.1v3.6c0,0.3,0,0.5,0.1,0.6s0.1,0.2,0.2,0.2s0.2,0.1,0.4,0.1
				C382.1,138.9,382.3,138.9,382.5,138.9z"/>
			<path d="M383.5,139.8v-8.6h1.1v3.1c0.5-0.6,1.1-0.9,1.9-0.9c0.5,0,0.9,0.1,1.2,0.3s0.6,0.4,0.7,0.8s0.2,0.8,0.2,1.4v3.9h-1.1
				v-3.9c0-0.5-0.1-0.9-0.3-1.2s-0.6-0.4-1-0.4c-0.3,0-0.6,0.1-0.9,0.2s-0.5,0.4-0.6,0.7s-0.2,0.7-0.2,1.1v3.4H383.5z"/>
			<path d="M389.8,136.7c0-1.2,0.3-2,1-2.6c0.5-0.5,1.2-0.7,2-0.7c0.9,0,1.6,0.3,2.1,0.8s0.8,1.3,0.8,2.3c0,0.8-0.1,1.4-0.4,1.9
				s-0.6,0.8-1,1.1s-1,0.4-1.5,0.4c-0.9,0-1.6-0.3-2.1-0.8S389.8,137.8,389.8,136.7z M390.9,136.7c0,0.8,0.2,1.4,0.5,1.8
				s0.8,0.6,1.3,0.6c0.5,0,1-0.2,1.3-0.6s0.5-1,0.5-1.8c0-0.8-0.2-1.4-0.5-1.7s-0.8-0.6-1.3-0.6c-0.5,0-1,0.2-1.3,0.6
				S390.9,135.9,390.9,136.7z"/>
			<path d="M400.9,139.8V139c-0.4,0.6-1,0.9-1.7,0.9c-0.5,0-1-0.1-1.4-0.4s-0.7-0.7-1-1.1s-0.3-1.1-0.3-1.7c0-0.6,0.1-1.2,0.3-1.7
				s0.5-0.9,0.9-1.2s0.9-0.4,1.4-0.4c0.4,0,0.7,0.1,1,0.2s0.5,0.4,0.7,0.6v-3.1h1v8.6H400.9z M397.5,136.7c0,0.8,0.2,1.4,0.5,1.8
				s0.7,0.6,1.2,0.6c0.5,0,0.9-0.2,1.2-0.6s0.5-1,0.5-1.7c0-0.9-0.2-1.5-0.5-1.9s-0.7-0.6-1.2-0.6c-0.5,0-0.9,0.2-1.2,0.6
				S397.5,135.9,397.5,136.7z"/>
			<path d="M403.8,134.8v-1.2h1.2v1.2H403.8z M403.8,139.8v-1.2h1.2v1.2H403.8z"/>
			<path d="M417.7,136.5v-1l3.6,0v3.2c-0.6,0.4-1.1,0.8-1.7,1s-1.2,0.3-1.8,0.3c-0.8,0-1.6-0.2-2.3-0.5s-1.2-0.9-1.6-1.6
				s-0.5-1.4-0.5-2.3c0-0.8,0.2-1.6,0.5-2.3s0.9-1.3,1.5-1.6s1.4-0.5,2.3-0.5c0.6,0,1.2,0.1,1.7,0.3s0.9,0.5,1.2,0.8
				s0.5,0.8,0.7,1.4l-1,0.3c-0.1-0.4-0.3-0.8-0.5-1s-0.5-0.5-0.8-0.6s-0.8-0.2-1.2-0.2c-0.5,0-1,0.1-1.3,0.2s-0.7,0.4-0.9,0.6
				s-0.4,0.5-0.5,0.8c-0.2,0.5-0.3,1.1-0.3,1.7c0,0.8,0.1,1.4,0.4,1.9s0.6,0.9,1.2,1.1s1,0.4,1.6,0.4c0.5,0,1-0.1,1.4-0.3
				s0.8-0.4,1.1-0.6v-1.6H417.7z"/>
			<path d="M423,139.8v-8.6h6.2v1h-5.1v2.6h4.8v1h-4.8v2.9h5.3v1H423z"/>
			<path d="M433.2,139.8v-7.6h-2.8v-1h6.8v1h-2.8v7.6H433.2z"/>
		</g>
		<g>
			<path d="M447.4,106.1V96h4.4c0.9,0,1.6,0.1,2,0.3s0.8,0.5,1.1,1s0.4,1,0.4,1.5c0,0.7-0.2,1.3-0.7,1.8s-1.2,0.8-2.1,0.9
				c0.4,0.2,0.6,0.3,0.8,0.5c0.4,0.4,0.8,0.8,1.1,1.3l1.7,2.7h-1.7l-1.3-2.1c-0.4-0.6-0.7-1.1-1-1.4s-0.5-0.5-0.7-0.7
				s-0.4-0.2-0.6-0.3c-0.2,0-0.4,0-0.7,0h-1.5v4.5H447.4z M448.7,100.5h2.9c0.6,0,1.1-0.1,1.4-0.2s0.6-0.3,0.8-0.6s0.3-0.6,0.3-0.9
				c0-0.5-0.2-0.9-0.5-1.2s-0.9-0.5-1.6-0.5h-3.2V100.5z"/>
			<path d="M462.3,103.7l1.3,0.2c-0.2,0.7-0.6,1.3-1.1,1.7s-1.2,0.6-2.1,0.6c-1.1,0-1.9-0.3-2.5-1s-0.9-1.6-0.9-2.8
				c0-1.2,0.3-2.2,0.9-2.8s1.4-1,2.4-1c1,0,1.8,0.3,2.4,1s0.9,1.6,0.9,2.8c0,0.1,0,0.2,0,0.3h-5.4c0,0.8,0.3,1.4,0.7,1.8
				s0.9,0.6,1.5,0.6c0.5,0,0.8-0.1,1.2-0.4S462.1,104.2,462.3,103.7z M458.2,101.7h4.1c-0.1-0.6-0.2-1.1-0.5-1.4
				c-0.4-0.5-0.9-0.7-1.5-0.7c-0.6,0-1,0.2-1.4,0.6S458.3,101.1,458.2,101.7z"/>
			<path d="M469.7,108.8v-3.6c-0.2,0.3-0.5,0.5-0.8,0.7s-0.7,0.3-1.1,0.3c-0.9,0-1.6-0.3-2.2-1s-0.9-1.6-0.9-2.8
				c0-0.7,0.1-1.4,0.4-2s0.6-1,1.1-1.3s1-0.4,1.6-0.4c0.9,0,1.6,0.4,2.1,1.1v-1h1.1v10H469.7z M465.9,102.4c0,0.9,0.2,1.6,0.6,2.1
				s0.9,0.7,1.4,0.7c0.5,0,1-0.2,1.4-0.7s0.6-1.1,0.6-2c0-1-0.2-1.7-0.6-2.2s-0.9-0.7-1.4-0.7c-0.5,0-1,0.2-1.4,0.7
				S465.9,101.4,465.9,102.4z"/>
			<path d="M477.6,106.1V105c-0.6,0.8-1.3,1.2-2.3,1.2c-0.4,0-0.8-0.1-1.2-0.2s-0.6-0.4-0.8-0.6s-0.3-0.6-0.4-0.9
				c-0.1-0.2-0.1-0.6-0.1-1.1v-4.5h1.2v4c0,0.6,0,1.1,0.1,1.3c0.1,0.3,0.2,0.6,0.5,0.8s0.6,0.3,0.9,0.3s0.7-0.1,1-0.3
				s0.6-0.4,0.7-0.8s0.2-0.8,0.2-1.4v-3.9h1.2v7.3H477.6z"/>
			<path d="M485.6,103.7l1.3,0.2c-0.2,0.7-0.6,1.3-1.1,1.7s-1.2,0.6-2.1,0.6c-1.1,0-1.9-0.3-2.5-1s-0.9-1.6-0.9-2.8
				c0-1.2,0.3-2.2,0.9-2.8s1.4-1,2.4-1c1,0,1.8,0.3,2.4,1s0.9,1.6,0.9,2.8c0,0.1,0,0.2,0,0.3h-5.4c0,0.8,0.3,1.4,0.7,1.8
				s0.9,0.6,1.5,0.6c0.5,0,0.8-0.1,1.2-0.4S485.4,104.2,485.6,103.7z M481.6,101.7h4.1c-0.1-0.6-0.2-1.1-0.5-1.4
				c-0.4-0.5-0.9-0.7-1.5-0.7c-0.6,0-1,0.2-1.4,0.6S481.6,101.1,481.6,101.7z"/>
			<path d="M488,103.9l1.2-0.2c0.1,0.5,0.3,0.9,0.6,1.1s0.7,0.4,1.3,0.4c0.6,0,1-0.1,1.3-0.3s0.4-0.5,0.4-0.8c0-0.3-0.1-0.5-0.4-0.7
				c-0.2-0.1-0.6-0.2-1.3-0.4c-0.9-0.2-1.5-0.4-1.9-0.6s-0.6-0.4-0.8-0.7s-0.3-0.6-0.3-1c0-0.3,0.1-0.6,0.2-0.9s0.3-0.5,0.6-0.7
				c0.2-0.1,0.5-0.3,0.8-0.4s0.7-0.1,1.1-0.1c0.6,0,1.1,0.1,1.5,0.2s0.7,0.4,1,0.7s0.3,0.7,0.4,1.1l-1.2,0.2
				c-0.1-0.4-0.2-0.7-0.5-0.9s-0.6-0.3-1.1-0.3c-0.6,0-1,0.1-1.2,0.3s-0.4,0.4-0.4,0.7c0,0.2,0.1,0.3,0.2,0.4
				c0.1,0.1,0.3,0.2,0.5,0.3c0.1,0,0.5,0.2,1.1,0.3c0.9,0.2,1.5,0.4,1.8,0.6s0.6,0.4,0.8,0.6s0.3,0.6,0.3,1.1c0,0.4-0.1,0.8-0.4,1.2
				s-0.6,0.6-1,0.8s-1,0.3-1.5,0.3c-0.9,0-1.7-0.2-2.2-0.6S488.1,104.7,488,103.9z"/>
			<path d="M498.1,105l0.2,1.1c-0.3,0.1-0.7,0.1-0.9,0.1c-0.4,0-0.8-0.1-1-0.2s-0.4-0.3-0.5-0.6s-0.2-0.7-0.2-1.5v-4.2h-0.9v-1h0.9
				V97l1.2-0.7v2.5h1.2v1h-1.2v4.2c0,0.4,0,0.6,0.1,0.7s0.1,0.2,0.2,0.2s0.2,0.1,0.4,0.1C497.7,105,497.9,105,498.1,105z"/>
		</g>
	</g>
	<line fill="none" stroke="#B3B3B3" stroke-miterlimit="10" x1="371" y1="212.5" x2="471" y2="212.5"/>
	<line fill="none" stroke="#B3B3B3" stroke-miterlimit="10" x1="470.5" y1="213" x2="470.5" y2="153"/>
	<line fill="none" stroke="#B3B3B3" stroke-miterlimit="10" x1="266" y1="239.5" x2="161" y2="239.5"/>
	<g>
		<path d="M205.2,39.6V27h-4.7v-1.7h11.3V27h-4.7v12.6H205.2z"/>
		<path d="M213.6,39.6V25.3h1.8v5.1c0.8-1,1.9-1.4,3.1-1.4c0.8,0,1.4,0.2,2,0.5s1,0.7,1.2,1.3S222,32,222,33v6.6h-1.8V33
			c0-0.9-0.2-1.5-0.6-1.9s-0.9-0.6-1.6-0.6c-0.5,0-1,0.1-1.5,0.4s-0.8,0.6-1,1.1s-0.3,1.1-0.3,1.9v5.7H213.6z"/>
		<path d="M231.8,36.3l1.8,0.2c-0.3,1.1-0.8,1.9-1.6,2.5s-1.8,0.9-3,0.9c-1.5,0-2.7-0.5-3.6-1.4s-1.3-2.2-1.3-3.9
			c0-1.7,0.4-3.1,1.3-4.1s2.1-1.4,3.5-1.4c1.4,0,2.5,0.5,3.4,1.4s1.3,2.3,1.3,4c0,0.1,0,0.3,0,0.5h-7.7c0.1,1.1,0.4,2,1,2.6
			s1.3,0.9,2.2,0.9c0.6,0,1.2-0.2,1.7-0.5S231.5,37,231.8,36.3z M226,33.4h5.8c-0.1-0.9-0.3-1.5-0.7-2c-0.6-0.7-1.3-1-2.2-1
			c-0.8,0-1.5,0.3-2,0.8S226.1,32.5,226,33.4z"/>
		<path d="M243.3,39.6l-3.2-10.4h1.8l1.7,6l0.6,2.2c0-0.1,0.2-0.8,0.5-2.1l1.7-6.1h1.8l1.6,6l0.5,2l0.6-2l1.8-6h1.7l-3.2,10.4h-1.8
			l-1.7-6.2l-0.4-1.8l-2.1,8H243.3z"/>
		<path d="M262.9,36.3l1.8,0.2c-0.3,1.1-0.8,1.9-1.6,2.5s-1.8,0.9-3,0.9c-1.5,0-2.7-0.5-3.6-1.4s-1.3-2.2-1.3-3.9
			c0-1.7,0.4-3.1,1.3-4.1s2.1-1.4,3.5-1.4c1.4,0,2.5,0.5,3.4,1.4s1.3,2.3,1.3,4c0,0.1,0,0.3,0,0.5H257c0.1,1.1,0.4,2,1,2.6
			s1.3,0.9,2.2,0.9c0.6,0,1.2-0.2,1.7-0.5S262.6,37,262.9,36.3z M257.1,33.4h5.8c-0.1-0.9-0.3-1.5-0.7-2c-0.6-0.7-1.3-1-2.2-1
			c-0.8,0-1.5,0.3-2,0.8S257.2,32.5,257.1,33.4z"/>
		<path d="M268.6,39.6h-1.6V25.3h1.8v5.1c0.7-0.9,1.7-1.4,2.8-1.4c0.6,0,1.2,0.1,1.8,0.4s1,0.6,1.4,1.1s0.7,1,0.9,1.7
			s0.3,1.4,0.3,2.1c0,1.8-0.4,3.2-1.3,4.1s-1.9,1.5-3.2,1.5c-1.2,0-2.2-0.5-2.9-1.5V39.6z M268.5,34.4c0,1.2,0.2,2.1,0.5,2.7
			c0.6,0.9,1.3,1.4,2.2,1.4c0.8,0,1.4-0.3,2-1s0.8-1.7,0.8-3c0-1.4-0.3-2.4-0.8-3s-1.2-1-1.9-1c-0.8,0-1.4,0.3-2,1
			S268.5,33.1,268.5,34.4z"/>
		<path d="M283.6,27.3v-2h1.8v2H283.6z M283.6,39.6V29.2h1.8v10.4H283.6z"/>
		<path d="M291.9,38l0.3,1.6c-0.5,0.1-0.9,0.2-1.3,0.2c-0.6,0-1.1-0.1-1.5-0.3s-0.6-0.5-0.7-0.8s-0.2-1-0.2-2.1v-6h-1.3v-1.4h1.3
			v-2.6l1.7-1.1v3.6h1.8v1.4h-1.8v6.1c0,0.5,0,0.8,0.1,1s0.2,0.3,0.3,0.3s0.3,0.1,0.6,0.1C291.3,38.1,291.6,38.1,291.9,38z"/>
		<path d="M292.9,36.5l1.7-0.3c0.1,0.7,0.4,1.2,0.8,1.6s1.1,0.6,1.9,0.6c0.8,0,1.4-0.2,1.8-0.5s0.6-0.7,0.6-1.2
			c0-0.4-0.2-0.7-0.5-0.9c-0.2-0.2-0.8-0.4-1.8-0.6c-1.3-0.3-2.2-0.6-2.7-0.8s-0.9-0.6-1.1-1s-0.4-0.9-0.4-1.4
			c0-0.5,0.1-0.9,0.3-1.3s0.5-0.7,0.9-1c0.3-0.2,0.6-0.4,1.1-0.5s1-0.2,1.5-0.2c0.8,0,1.5,0.1,2.1,0.4s1.1,0.6,1.4,1
			s0.5,0.9,0.6,1.6l-1.7,0.2c-0.1-0.5-0.3-1-0.7-1.2s-0.9-0.4-1.6-0.4c-0.8,0-1.4,0.1-1.7,0.4s-0.5,0.6-0.5,0.9
			c0,0.2,0.1,0.4,0.2,0.6c0.1,0.2,0.4,0.3,0.7,0.5c0.2,0.1,0.7,0.2,1.6,0.4c1.2,0.3,2.1,0.6,2.6,0.8s0.9,0.5,1.2,0.9
			s0.4,0.9,0.4,1.5c0,0.6-0.2,1.1-0.5,1.7s-0.8,0.9-1.5,1.2s-1.4,0.4-2.2,0.4c-1.3,0-2.4-0.3-3.1-0.8S293.1,37.6,292.9,36.5z"/>
		<path d="M310.7,36.3l1.8,0.2c-0.3,1.1-0.8,1.9-1.6,2.5s-1.8,0.9-3,0.9c-1.5,0-2.7-0.5-3.6-1.4s-1.3-2.2-1.3-3.9
			c0-1.7,0.4-3.1,1.3-4.1s2.1-1.4,3.5-1.4c1.4,0,2.5,0.5,3.4,1.4s1.3,2.3,1.3,4c0,0.1,0,0.3,0,0.5h-7.7c0.1,1.1,0.4,2,1,2.6
			s1.3,0.9,2.2,0.9c0.6,0,1.2-0.2,1.7-0.5S310.4,37,310.7,36.3z M304.9,33.4h5.8c-0.1-0.9-0.3-1.5-0.7-2c-0.6-0.7-1.3-1-2.2-1
			c-0.8,0-1.5,0.3-2,0.8S305,32.5,304.9,33.4z"/>
		<path d="M314.7,39.6V25.3h1.8v14.3H314.7z"/>
		<path d="M319.6,39.6v-9H318v-1.4h1.6v-1.1c0-0.7,0.1-1.2,0.2-1.6c0.2-0.5,0.5-0.8,0.9-1.1s1-0.4,1.8-0.4c0.5,0,1,0.1,1.6,0.2
			l-0.3,1.5c-0.4-0.1-0.7-0.1-1-0.1c-0.5,0-0.9,0.1-1.1,0.3s-0.3,0.7-0.3,1.3v1h2v1.4h-2v9H319.6z"/>
		<path d="M330.7,39.6v-9h-1.6v-1.4h1.6v-1.1c0-0.7,0.1-1.2,0.2-1.6c0.2-0.5,0.5-0.8,0.9-1.1s1-0.4,1.8-0.4c0.5,0,1,0.1,1.6,0.2
			l-0.3,1.5c-0.4-0.1-0.7-0.1-1-0.1c-0.5,0-0.9,0.1-1.1,0.3s-0.3,0.7-0.3,1.3v1h2v1.4h-2v9H330.7z"/>
		<path d="M335.2,34.4c0-1.9,0.5-3.3,1.6-4.3c0.9-0.8,2-1.2,3.3-1.2c1.4,0,2.6,0.5,3.5,1.4s1.4,2.2,1.4,3.9c0,1.3-0.2,2.4-0.6,3.1
			s-1,1.4-1.7,1.8s-1.6,0.6-2.5,0.6c-1.5,0-2.6-0.5-3.5-1.4S335.2,36.2,335.2,34.4z M337,34.4c0,1.3,0.3,2.3,0.9,3s1.3,1,2.2,1
			c0.9,0,1.6-0.3,2.2-1s0.9-1.7,0.9-3c0-1.3-0.3-2.3-0.9-2.9s-1.3-1-2.2-1c-0.9,0-1.6,0.3-2.2,1S337,33.1,337,34.4z"/>
		<path d="M346.9,39.6V25.3h1.8v14.3H346.9z"/>
		<path d="M351.4,39.6V25.3h1.8v14.3H351.4z"/>
		<path d="M355.2,34.4c0-1.9,0.5-3.3,1.6-4.3c0.9-0.8,2-1.2,3.3-1.2c1.4,0,2.6,0.5,3.5,1.4s1.4,2.2,1.4,3.9c0,1.3-0.2,2.4-0.6,3.1
			s-1,1.4-1.7,1.8s-1.6,0.6-2.5,0.6c-1.5,0-2.6-0.5-3.5-1.4S355.2,36.2,355.2,34.4z M357,34.4c0,1.3,0.3,2.3,0.9,3s1.3,1,2.2,1
			c0.9,0,1.6-0.3,2.2-1s0.9-1.7,0.9-3c0-1.3-0.3-2.3-0.9-2.9s-1.3-1-2.2-1c-0.9,0-1.6,0.3-2.2,1S357,33.1,357,34.4z"/>
		<path d="M368.9,39.6l-3.2-10.4h1.8l1.7,6l0.6,2.2c0-0.1,0.2-0.8,0.5-2.1l1.7-6.1h1.8l1.6,6l0.5,2l0.6-2l1.8-6h1.7l-3.2,10.4h-1.8
			l-1.7-6.2l-0.4-1.8l-2.1,8H368.9z"/>
		<path d="M380.7,36.5l1.7-0.3c0.1,0.7,0.4,1.2,0.8,1.6s1.1,0.6,1.9,0.6c0.8,0,1.4-0.2,1.8-0.5s0.6-0.7,0.6-1.2
			c0-0.4-0.2-0.7-0.5-0.9c-0.2-0.2-0.8-0.4-1.8-0.6c-1.3-0.3-2.2-0.6-2.7-0.8s-0.9-0.6-1.1-1S381,32.5,381,32c0-0.5,0.1-0.9,0.3-1.3
			s0.5-0.7,0.9-1c0.3-0.2,0.6-0.4,1.1-0.5s1-0.2,1.5-0.2c0.8,0,1.5,0.1,2.1,0.4s1.1,0.6,1.4,1s0.5,0.9,0.6,1.6l-1.7,0.2
			c-0.1-0.5-0.3-1-0.7-1.2s-0.9-0.4-1.6-0.4c-0.8,0-1.4,0.1-1.7,0.4s-0.5,0.6-0.5,0.9c0,0.2,0.1,0.4,0.2,0.6
			c0.1,0.2,0.4,0.3,0.7,0.5c0.2,0.1,0.7,0.2,1.6,0.4c1.2,0.3,2.1,0.6,2.6,0.8s0.9,0.5,1.2,0.9s0.4,0.9,0.4,1.5
			c0,0.6-0.2,1.1-0.5,1.7s-0.8,0.9-1.5,1.2s-1.4,0.4-2.2,0.4c-1.3,0-2.4-0.3-3.1-0.8S380.9,37.6,380.7,36.5z"/>
		<path d="M397.2,39.6V25.3h6.3c1.3,0,2.2,0.1,2.9,0.4s1.2,0.7,1.6,1.4s0.6,1.4,0.6,2.2c0,1-0.3,1.9-1,2.6s-1.7,1.1-3,1.3
			c0.5,0.2,0.9,0.5,1.1,0.7c0.6,0.5,1.1,1.1,1.6,1.9l2.5,3.9h-2.4l-1.9-3c-0.6-0.9-1-1.5-1.4-2s-0.7-0.8-1-1s-0.6-0.3-0.9-0.4
			c-0.2,0-0.6-0.1-1.1-0.1h-2.2v6.4H397.2z M399.1,31.6h4.1c0.9,0,1.5-0.1,2-0.3s0.9-0.5,1.1-0.9s0.4-0.8,0.4-1.3
			c0-0.7-0.2-1.2-0.7-1.7s-1.3-0.7-2.3-0.7h-4.5V31.6z"/>
		<path d="M411.7,39.6V25.3H422V27h-8.5v4.4h7.9v1.7h-7.9v4.9h8.8v1.7H411.7z"/>
		<path d="M424.3,35l1.8-0.2c0.1,0.7,0.3,1.3,0.6,1.8s0.8,0.8,1.4,1.1s1.4,0.4,2.2,0.4c0.7,0,1.4-0.1,1.9-0.3s1-0.5,1.2-0.9
			s0.4-0.8,0.4-1.2c0-0.4-0.1-0.8-0.4-1.2s-0.7-0.6-1.3-0.8c-0.4-0.1-1.2-0.4-2.5-0.7s-2.2-0.6-2.8-0.9c-0.7-0.4-1.2-0.8-1.5-1.3
			s-0.5-1.1-0.5-1.8c0-0.7,0.2-1.4,0.6-2s1-1.1,1.8-1.4s1.7-0.5,2.6-0.5c1.1,0,2,0.2,2.8,0.5s1.4,0.8,1.9,1.5s0.7,1.4,0.7,2.3
			l-1.8,0.1c-0.1-0.9-0.4-1.6-1-2.1s-1.4-0.7-2.5-0.7c-1.1,0-2,0.2-2.5,0.6s-0.8,0.9-0.8,1.5c0,0.5,0.2,0.9,0.6,1.3
			c0.4,0.3,1.3,0.7,2.9,1s2.6,0.7,3.2,0.9c0.8,0.4,1.4,0.9,1.8,1.5s0.6,1.3,0.6,2c0,0.8-0.2,1.5-0.7,2.2s-1.1,1.2-1.9,1.6
			s-1.7,0.6-2.8,0.6c-1.3,0-2.4-0.2-3.3-0.6s-1.6-0.9-2.1-1.7S424.4,36,424.3,35z"/>
		<path d="M442,39.6V27h-4.7v-1.7h11.3V27h-4.7v12.6H442z"/>
	</g>
</g>
<g id="restapi">
</g>
</svg>
