<?xml version="1.0" encoding="utf-8"?>
<!-- Generator: Adobe Illustrator 17.1.0, SVG Export Plug-In . SVG Version: 6.00 Build 0)  -->
<!DOCTYPE svg PUBLIC "-//W3C//DTD SVG 1.1//EN" "http://www.w3.org/Graphics/SVG/1.1/DTD/svg11.dtd">
<svg version="1.1" xmlns="http://www.w3.org/2000/svg" xmlns:xlink="http://www.w3.org/1999/xlink" x="0px" y="0px"
	 viewBox="0 0 792 612" enable-background="new 0 0 792 612" xml:space="preserve">
<g id="Full">
	<rect x="283.3" y="397.9" fill="none" width="18.1" height="12.2"/>
	<text transform="matrix(1 0 0 1 283.2682 405.457)" fill="#010101" font-family="'MyriadPro-Bold'" font-size="9">/222</text>
	<rect x="596.3" y="53.8" fill="none" width="109.7" height="54.3"/>
	<text transform="matrix(1 0 0 1 596.2778 61.3704)"><tspan x="0" y="0" fill="#010101" font-family="'MyriadPro-Bold'" font-size="9">/333 </tspan><tspan x="0" y="10" fill="#414042" font-family="'MyriadPro-Regular'" font-size="9">?includes=veniam</tspan><tspan x="0" y="20" fill="#414042" font-family="'MyriadPro-Regular'" font-size="9">?includes=veritatis</tspan><tspan x="0" y="30" fill="#414042" font-family="'MyriadPro-Regular'" font-size="9">?includes=quasi</tspan><tspan x="0" y="40" fill="#414042" font-family="'MyriadPro-Regular'" font-size="9">?includes=inventore</tspan></text>
	<g>
		<rect x="595.3" y="239.6" fill="none" width="82.7" height="45.2"/>
		<text transform="matrix(1 0 0 1 595.2776 247.0906)"><tspan x="0" y="0" fill="#010101" font-family="'MyriadPro-Bold'" font-size="9">/333</tspan><tspan x="18" y="0" fill="#414042" font-family="'MyriadPro-Bold'" font-size="9">   </tspan><tspan x="23.4" y="0" fill="#414042" font-family="'MyriadPro-Regular'" font-size="9">  </tspan><tspan x="0" y="10" fill="#414042" font-family="'MyriadPro-Regular'" font-size="9">?includes=</tspan><tspan x="40.4" y="10" fill="#414042" font-family="'MyriadPro-Regular'" font-size="9">veniam</tspan><tspan x="0" y="20" fill="#414042" font-family="'MyriadPro-Regular'" font-size="9">?includes=</tspan><tspan x="40.4" y="20" fill="#414042" font-family="'MyriadPro-Regular'" font-size="9">veritatis</tspan><tspan x="0" y="30" fill="#414042" font-family="'MyriadPro-Regular'" font-size="9">?includes=</tspan><tspan x="40.4" y="30" fill="#414042" font-family="'MyriadPro-Regular'" font-size="9">quasi</tspan></text>
	</g>
	<rect x="596.3" y="147.4" fill="none" width="81.7" height="24.3"/>
	<text transform="matrix(1 0 0 1 596.2778 154.8844)" fill="#010101" font-family="'MyriadPro-Bold'" font-size="9">/333</text>
	<rect x="596.3" y="220.9" fill="none" width="81.7" height="24.3"/>
	<text transform="matrix(1 0 0 1 596.2778 228.4557)" fill="#010101" font-family="'MyriadPro-Bold'" font-size="9">/333</text>
	<rect x="595.3" y="181.1" fill="none" width="89.1" height="24.3"/>
	<text transform="matrix(1 0 0 1 595.2778 188.5986)" fill="#010101" font-family="'MyriadPro-Bold'" font-size="9">/333</text>
	<rect x="596.3" y="112.4" fill="none" width="81.7" height="24.3"/>
	<text transform="matrix(1 0 0 1 596.2783 119.9797)" fill="#010101" font-family="'MyriadPro-Bold'" font-size="9">/333</text>
	<rect x="594.3" y="363.8" fill="none" width="81.7" height="24.3"/>
	<text transform="matrix(1 0 0 1 594.2783 371.3034)" fill="#010101" font-family="'MyriadPro-Bold'" font-size="9">/333</text>
	<rect x="594.3" y="415.8" fill="none" width="81.7" height="24.3"/>
	<text transform="matrix(1 0 0 1 594.2783 423.3474)" fill="#010101" font-family="'MyriadPro-Bold'" font-size="9">/333</text>
	<rect x="594.3" y="388.1" fill="none" width="81.7" height="24.3"/>
	<text transform="matrix(1 0 0 1 594.2783 395.6083)" fill="#010101" font-family="'MyriadPro-Bold'" font-size="9">/333</text>
	<rect x="594.3" y="291.8" fill="none" width="81.7" height="24.3"/>
	<text transform="matrix(1 0 0 1 594.2783 299.3592)" fill="#010101" font-family="'MyriadPro-Bold'" font-size="9">/333</text>
	<rect x="594.3" y="445.7" fill="none" width="81.7" height="24.3"/>
	<text transform="matrix(1 0 0 1 594.2781 453.2761)" fill="#010101" font-family="'MyriadPro-Bold'" font-size="9">/333</text>
	<rect x="594.3" y="496" fill="none" width="81.7" height="24.3"/>
	<text transform="matrix(1 0 0 1 594.2783 503.5616)" fill="#010101" font-family="'MyriadPro-Bold'" font-size="9">/333</text>
	<line fill="none" stroke="#A3A2A2" stroke-miterlimit="10" x1="542.3" y1="117.9" x2="590.6" y2="117.9"/>
	<line fill="none" stroke="#A3A2A2" stroke-miterlimit="10" x1="541.3" y1="261.1" x2="590" y2="261.1"/>
	<line fill="none" stroke="#A3A2A2" stroke-miterlimit="10" x1="542.3" y1="151.7" x2="590.6" y2="151.7"/>
	<line fill="none" stroke="#A3A2A2" stroke-miterlimit="10" x1="542.3" y1="392" x2="590.6" y2="392"/>
	<line fill="none" stroke="#A3A2A2" stroke-miterlimit="10" x1="542.3" y1="450.4" x2="590.6" y2="450.4"/>
	<line fill="none" stroke="#A3A2A2" stroke-miterlimit="10" x1="542.3" y1="368.3" x2="590.6" y2="368.3"/>
	<line fill="none" stroke="#A3A2A2" stroke-miterlimit="10" x1="539.9" y1="295" x2="588.2" y2="295"/>
	<line fill="none" stroke="#A3A2A2" stroke-miterlimit="10" x1="541.5" y1="81" x2="592.7" y2="81"/>
	<line fill="none" stroke="#A3A2A2" stroke-miterlimit="10" x1="541.3" y1="226.7" x2="589.6" y2="226.7"/>
	<line fill="none" stroke="#A3A2A2" stroke-miterlimit="10" x1="542.3" y1="185.8" x2="590.6" y2="185.8"/>
	<line fill="none" stroke="#A3A2A2" stroke-miterlimit="10" x1="542.3" y1="420.5" x2="590.6" y2="420.5"/>
	<line fill="none" stroke="#A3A2A2" stroke-miterlimit="10" x1="540.7" y1="501.2" x2="589" y2="501.2"/>
	<rect x="283.3" y="328.9" fill="none" width="18.1" height="12.2"/>
	<text transform="matrix(1 0 0 1 283.2682 336.3931)" fill="#010101" font-family="'MyriadPro-Bold'" font-size="9">/222</text>
	<rect x="283.3" y="293.9" fill="none" width="18.1" height="12.2"/>
	<text transform="matrix(1 0 0 1 283.2681 301.4068)" fill="#010101" font-family="'MyriadPro-Bold'" font-size="9">/222</text>
	<rect x="283.3" y="397.9" fill="none" width="18.1" height="12.2"/>
	<text transform="matrix(1 0 0 1 283.2682 405.457)" fill="#010101" font-family="'MyriadPro-Bold'" font-size="9">/222</text>
	<rect x="593.8" y="541.5" fill="none" width="81.7" height="24.3"/>
	<text transform="matrix(1 0 0 1 593.7988 549.0332)" fill="#010101" font-family="'MyriadPro-Bold'" font-size="9">/333</text>
	<line fill="none" stroke="#A3A2A2" stroke-miterlimit="10" x1="540.7" y1="546.5" x2="589" y2="546.5"/>
	<line fill="none" stroke="#A3A2A2" stroke-miterlimit="10" x1="592.9" y1="49.6" x2="592.9" y2="108.2"/>
	<line fill="none" stroke="#A3A2A2" stroke-miterlimit="10" x1="631.3" y1="226" x2="679.5" y2="226"/>
	<line fill="none" stroke="#A3A2A2" stroke-miterlimit="10" x1="590.3" y1="236" x2="590.3" y2="281.7"/>
	<line fill="none" stroke="#A3A2A2" stroke-miterlimit="10" x1="589.9" y1="236" x2="605" y2="236"/>
	<line fill="none" stroke="#A3A2A2" stroke-miterlimit="10" x1="590" y1="281.3" x2="605.1" y2="281.3"/>
	<line fill="none" stroke="#A3A2A2" stroke-miterlimit="10" x1="592.4" y1="49.6" x2="607.6" y2="49.6"/>
	<line fill="none" stroke="#A3A2A2" stroke-miterlimit="10" x1="592.7" y1="107.7" x2="607.8" y2="107.7"/>
	<line fill="none" stroke="#A3A2A2" stroke-miterlimit="10" x1="680" y1="248" x2="680" y2="214.2"/>
	<line fill="none" stroke="#A3A2A2" stroke-miterlimit="10" x1="679.9" y1="247.4" x2="695.1" y2="247.4"/>
	<line fill="none" stroke="#A3A2A2" stroke-miterlimit="10" x1="679.5" y1="214.2" x2="694.7" y2="214.2"/>
	<line fill="none" stroke="#A3A2A2" stroke-miterlimit="10" x1="631.3" y1="58.1" x2="679.5" y2="58.1"/>
	<line fill="none" stroke="#A3A2A2" stroke-miterlimit="10" x1="680" y1="72.6" x2="680" y2="46.3"/>
	<line fill="none" stroke="#A3A2A2" stroke-miterlimit="10" x1="679.5" y1="46.7" x2="694.7" y2="46.7"/>
	<line fill="none" stroke="#A3A2A2" stroke-miterlimit="10" x1="680" y1="72.1" x2="695.1" y2="72.1"/>
	<rect x="283.3" y="362.1" fill="none" width="18.1" height="12.2"/>
	<text transform="matrix(1 0 0 1 283.2681 369.6606)" fill="#010101" font-family="'MyriadPro-Bold'" font-size="9">/222</text>
	<rect x="283.3" y="426" fill="none" width="18.1" height="12.2"/>
	<text transform="matrix(1 0 0 1 283.2681 433.5759)" fill="#010101" font-family="'MyriadPro-Bold'" font-size="9">/222</text>
</g>
<g id="Simple_with_includes">
</g>
<g id="Simple">
	<text transform="matrix(1 0 0 1 30.4937 250.5825)" fill="#010101" font-family="'MyriadPro-Bold'" font-size="9">  /sites</text>
	<polyline fill="none" stroke="#A3A2A2" stroke-miterlimit="10" points="258.9,496 295,496 295,496 295,548.2 347,548.2 	"/>
	<rect x="335" y="486" fill="#CB66A8" width="206" height="44"/>
	<rect x="335" y="355" fill="#AAD157" width="206" height="128"/>
	<rect x="334" y="56" fill="#76CFE6" width="207" height="296"/>
	<text transform="matrix(1 0 0 1 340.8721 508.181)" fill="#010101" font-family="'MyriadPro-Regular'" font-size="9">/222</text>
	<text transform="matrix(1 0 0 1 417.3379 503.5878)"><tspan x="0" y="0" fill="#010101" font-family="'MyriadPro-Regular'" font-size="9">/</tspan><tspan x="3.1" y="0" fill="#010101" font-family="'MyriadPro-Bold'" font-size="9">voluptatem</tspan><tspan x="0" y="10.8" fill="#414042" font-family="'MyriadPro-Regular'" font-size="9">?includes=voluptatem</tspan></text>
	<text transform="matrix(1 0 0 1 340.8719 405.9089)" fill="#010101" font-family="'MyriadPro-Regular'" font-size="9">/222</text>
	<text transform="matrix(1 0 0 1 413.0257 452.3788)"><tspan x="0" y="0" fill="#010101" font-family="'MyriadPro-Regular'" font-size="9">/</tspan><tspan x="3.1" y="0" fill="#010101" font-family="'MyriadPro-Bold'" font-size="9">explicabo</tspan><tspan x="0" y="10.8" fill="#414042" font-family="'MyriadPro-Regular'" font-size="9">?includes=</tspan><tspan x="40.4" y="10.8" fill="#010101" font-family="'MyriadPro-Regular'" font-size="9">explicabo</tspan></text>
	<text transform="matrix(1 0 0 1 414.31 393.9985)"><tspan x="0" y="0" fill="#010101" font-family="'MyriadPro-Regular'" font-size="9">/</tspan><tspan x="3.1" y="0" fill="#010101" font-family="'MyriadPro-Bold'" font-size="9">vitae</tspan><tspan x="0" y="10.8" fill="#414042" font-family="'MyriadPro-Regular'" font-size="9">?includes=vitae</tspan></text>
	<text transform="matrix(1 0 0 1 413.0257 422.5004)"><tspan x="0" y="0" fill="#010101" font-family="'MyriadPro-Regular'" font-size="9">/</tspan><tspan x="3.1" y="0" fill="#010101" font-family="'MyriadPro-Bold'" font-size="9">dictatum</tspan><tspan x="0" y="10.8" fill="#414042" font-family="'MyriadPro-Regular'" font-size="9">?includes=</tspan><tspan x="40.4" y="10.8" fill="#010101" font-family="'MyriadPro-Regular'" font-size="9">dictatum</tspan></text>
	<text transform="matrix(1 0 0 1 414.4497 370.2655)"><tspan x="0" y="0" fill="#010101" font-family="'MyriadPro-Regular'" font-size="9">/</tspan><tspan x="3.1" y="0" fill="#010101" font-family="'MyriadPro-Bold'" font-size="9">beatae</tspan></text>
	<rect x="412" y="255.6" fill="none" width="112.1" height="22.7"/>
	<text transform="matrix(1 0 0 1 412.0263 263.1357)"><tspan x="0" y="0" fill="#030303" font-family="'MyriadPro-Regular'" font-size="9">/</tspan><tspan x="3.1" y="0" fill="#030303" font-family="'MyriadPro-Bold'" font-size="9">veritatis</tspan><tspan x="0" y="10.8" fill="#414042" font-family="'MyriadPro-Regular'" font-size="9">?includes=veritatis </tspan></text>
	<rect x="412" y="220.9" fill="none" width="80.8" height="24.7"/>
	<text transform="matrix(1 0 0 1 412.0263 228.4233)"><tspan x="0" y="0" fill="#010101" font-family="'MyriadPro-Regular'" font-size="9">/</tspan><tspan x="3.1" y="0" fill="#010101" font-family="'MyriadPro-Bold'" font-size="9">inventore</tspan><tspan x="0" y="10.8" fill="#414042" font-family="'MyriadPro-Regular'" font-size="9">?includes=inventore</tspan></text>
	<rect x="412.6" y="112.1" fill="none" width="81.7" height="24.3"/>
	<text transform="matrix(1 0 0 1 412.5711 119.6824)"><tspan x="0" y="0" fill="#010101" font-family="'MyriadPro-Regular'" font-size="9">/</tspan><tspan x="3.1" y="0" fill="#010101" font-family="'MyriadPro-Bold'" font-size="9">aperiam</tspan><tspan x="0" y="10.8" fill="#414042" font-family="'MyriadPro-Regular'" font-size="9">?includes=aperiam</tspan></text>
	<rect x="412" y="288.3" fill="none" width="70.3" height="23.8"/>
	<text transform="matrix(1 0 0 1 412.0262 295.8542)"><tspan x="0" y="0" fill="#010101" font-family="'MyriadPro-Regular'" font-size="9">/</tspan><tspan x="3.1" y="0" fill="#010101" font-family="'MyriadPro-Bold'" font-size="9">quasi</tspan><tspan x="0" y="10.8" fill="#414042" font-family="'MyriadPro-Regular'" font-size="9">?includes=quasi</tspan></text>
	<rect x="413" y="146.5" fill="none" width="107.1" height="23.7"/>
	<text transform="matrix(1 0 0 1 413.0262 154.0254)"><tspan x="0" y="0" fill="#010101" font-family="'MyriadPro-Regular'" font-size="9">/</tspan><tspan x="3.1" y="0" fill="#010101" font-family="'MyriadPro-Bold'" font-size="9">eaque</tspan><tspan x="0" y="10.8" fill="#414042" font-family="'MyriadPro-Regular'" font-size="9">?includes=eaque</tspan></text>
	<rect x="413" y="180.3" fill="none" width="124.2" height="37.7"/>
	<text transform="matrix(1 0 0 1 413.0259 187.7998)"><tspan x="0" y="0" fill="#010101" font-family="'MyriadPro-Bold'" font-size="9">/ipsa </tspan><tspan x="0" y="10.8" fill="#414042" font-family="'MyriadPro-Regular'" font-size="9">?includes=ipsa </tspan><tspan x="0" y="21.6" fill="#414042" font-family="'MyriadPro-Regular'" font-size="9">?includes=ipsa :currenteaque</tspan></text>
	<rect x="411.9" y="75.3" fill="none" width="83" height="26.8"/>
	<text transform="matrix(1 0 0 1 411.9309 82.8399)"><tspan x="0" y="0" fill="#010101" font-family="'MyriadPro-Bold'" font-size="9">/rem</tspan><tspan x="0" y="10.8" fill="#414042" font-family="'MyriadPro-Regular'" font-size="9">?includes=rem</tspan></text>
	<text transform="matrix(1 0 0 1 340.8721 177.9228)" fill="#010101" font-family="'MyriadPro-Regular'" font-size="9">/222</text>
	<rect x="335" y="533" fill="#F89A37" width="206" height="39"/>
	<text transform="matrix(1 0 0 1 340.872 551.5)" fill="#010101" font-family="'MyriadPro-Regular'" font-size="9">/222</text>
	<text transform="matrix(1 0 0 1 413.9182 549.8633)"><tspan x="0" y="0" fill="#010101" font-family="'MyriadPro-Regular'" font-size="9">/</tspan><tspan x="3.1" y="0" fill="#010101" font-family="'MyriadPro-Bold'" font-size="9">veniam</tspan><tspan x="0" y="10.8" fill="#414042" font-family="'MyriadPro-Regular'" font-size="9">?includes=veniam</tspan></text>
	<polyline fill="none" stroke="#A3A2A2" stroke-miterlimit="10" points="259.2,249.7 314.2,249.7 314.2,174.6 333.9,174.6 	"/>
	<polyline fill="none" stroke="#A3A2A2" stroke-miterlimit="10" points="259.2,273.1 314.6,273.3 314.6,404 335.2,404 	"/>
	<text transform="matrix(1 0 0 1 96.359 251.3599)" fill="#010101" font-family="'MyriadPro-Bold'" font-size="9">   /111</text>
	<text transform="matrix(1 0 0 1 198.8 369.9227)"><tspan x="0" y="0" fill="#010101" font-family="'MyriadPro-Regular'" font-size="9">/</tspan><tspan x="3.1" y="0" fill="#010101" font-family="'MyriadPro-Bold'" font-size="9">voluptatem</tspan><tspan x="0" y="10.8" fill="#414042" font-family="'MyriadPro-Regular'" font-size="9">?includes=</tspan><tspan x="40.4" y="10.8" fill="#010101" font-family="'MyriadPro-Regular'" font-size="9">voluptatem</tspan></text>
	<rect x="198.8" y="491.4" fill="none" width="89.8" height="21.1"/>
	<text transform="matrix(1 0 0 1 198.7919 498.8953)"><tspan x="0" y="0" fill="#010101" font-family="'MyriadPro-Regular'" font-size="9">/</tspan><tspan x="3.1" y="0" fill="#010101" font-family="'MyriadPro-Bold'" font-size="9">totam</tspan><tspan x="0" y="10.8" fill="#414042" font-family="'MyriadPro-Regular'" font-size="9">?includes=totam </tspan></text>
	<text transform="matrix(1 0 0 1 198.8008 457.9093)"><tspan x="0" y="0" fill="#010101" font-family="'MyriadPro-Regular'" font-size="9">/</tspan><tspan x="3.1" y="0" fill="#010101" font-family="'MyriadPro-Bold'" font-size="9">laudantium</tspan><tspan x="0" y="10.8" fill="#414042" font-family="'MyriadPro-Regular'" font-size="9">?includes=laudantium</tspan></text>
	<text transform="matrix(1 0 0 1 198.7997 334.9361)"><tspan x="0" y="0" fill="#010101" font-family="'MyriadPro-Regular'" font-size="9">/</tspan><tspan x="3.1" y="0" fill="#010101" font-family="'MyriadPro-Bold'" font-size="9">natus</tspan><tspan x="0" y="10.8" fill="#414042" font-family="'MyriadPro-Regular'" font-size="9">?includes=natus </tspan></text>
	<text transform="matrix(1 0 0 1 198.7997 251.3598)"><tspan x="0" y="0" fill="#010101" font-family="'MyriadPro-Regular'" font-size="9">/</tspan><tspan x="3.1" y="0" fill="#010101" font-family="'MyriadPro-Bold'" font-size="9">perspiciatis</tspan></text>
	<text transform="matrix(1 0 0 1 198.8 276.6517)"><tspan x="0" y="0" fill="#010101" font-family="'MyriadPro-Regular'" font-size="9">/</tspan><tspan x="3.1" y="0" fill="#010101" font-family="'MyriadPro-Bold'" font-size="9">unde</tspan></text>
	<rect x="35.7" y="51" fill="none" width="193.1" height="51"/>
	<text transform="matrix(1 0 0 1 35.7323 70.8799)"><tspan x="0" y="0" fill="#010101" font-family="'MyriadPro-Bold'" font-size="28">ACME REST API </tspan><tspan x="0" y="21" fill="#737373" font-family="'MyriadPro-Regular'" font-size="14">Quick reference guide</tspan></text>
	<g>
		<rect x="35.3" y="103" fill="none" width="223.6" height="125.8"/>
		<text transform="matrix(1 0 0 1 35.2583 109.3904)"><tspan x="0" y="0" fill="#686868" font-family="'MyriadPro-Regular'" font-size="9">Lorem Ipsum is simply dummy text of the printing and </tspan><tspan x="0" y="14" fill="#686868" font-family="'MyriadPro-Regular'" font-size="9">typesetting industry. Lorem Ipsum has been the industry&apos;s </tspan><tspan x="0" y="28" fill="#686868" font-family="'MyriadPro-Regular'" font-size="9">standard dummy text ever since the 1500s, when an </tspan><tspan x="0" y="42" fill="#686868" font-family="'MyriadPro-Regular'" font-size="9">unknown printer took a galley of type and scrambled it to </tspan><tspan x="0" y="56" fill="#686868" font-family="'MyriadPro-Regular'" font-size="9">make a type specimen book. It has survived not only five </tspan><tspan x="0" y="70" fill="#686868" font-family="'MyriadPro-Regular'" font-size="9">centuries, but also the leap into electronic typesetting, </tspan><tspan x="0" y="84" fill="#686868" font-family="'MyriadPro-Regular'" font-size="9">remaining essentially unchanged. It was popularised in the </tspan><tspan x="0" y="98" fill="#686868" font-family="'MyriadPro-Regular'" font-size="9">1960s with the release of Letraset sheets containing Lorem </tspan><tspan x="0" y="112" fill="#686868" font-family="'MyriadPro-Regular'" font-size="9">Ipsum passages, and more recently with Lorem Ipsum.</tspan></text>
	</g>
	<rect x="99.2" y="256.5" fill="none" width="104.8" height="67.5"/>
	<text transform="matrix(1 0 0 1 99.2398 264.0497)"><tspan x="0" y="0" fill="#414042" font-family="'MyriadPro-Regular'" font-size="9">?includes=lorem</tspan><tspan x="0" y="10.8" fill="#414042" font-family="'MyriadPro-Regular'" font-size="9">?includes=ipsum</tspan><tspan x="0" y="21.6" fill="#414042" font-family="'MyriadPro-Regular'" font-size="9">?includes=dolor</tspan><tspan x="0" y="32.4" fill="#414042" font-family="'MyriadPro-Regular'" font-size="9">?includes=sit </tspan><tspan x="0" y="43.2" fill="#414042" font-family="'MyriadPro-Regular'" font-size="9">?includes=amet</tspan></text>
	<text transform="matrix(1 0 0 1 198.7995 301.9498)"><tspan x="0" y="0" fill="#010101" font-family="'MyriadPro-Regular'" font-size="9">/</tspan><tspan x="3.1" y="0" fill="#010101" font-family="'MyriadPro-Bold'" font-size="9">omnis</tspan><tspan x="0" y="10.8" fill="#414042" font-family="'MyriadPro-Regular'" font-size="9">?includes=omnis</tspan></text>
	<line fill="none" stroke="#A3A2A2" stroke-miterlimit="10" x1="63" y1="248.8" x2="96.4" y2="248.8"/>
	<rect x="35.7" y="523.9" fill="#EAEAEA" width="223.2" height="48.6"/>
	<text transform="matrix(1 0 0 1 37.1299 518.013)" font-family="'MyriadPro-Regular'" font-size="9">Legend</text>
	<rect x="39.5" y="531.1" fill="none" width="224.2" height="33.2"/>
	<text transform="matrix(1 0 0 1 39.5162 536.741)"><tspan x="0" y="0" font-family="'MyriadPro-Bold'" font-size="8">&lt;base path&gt;</tspan><tspan x="44.5" y="0" font-family="'MyriadPro-Regular'" font-size="8">:  https://api.company.com/v1/</tspan><tspan x="0" y="13" font-family="'MyriadPro-Bold'" font-size="8">###</tspan><tspan x="13.2" y="13" font-family="'MyriadPro-Regular'" font-size="8">: The ID of the resource (24 character alphanumeric string)</tspan><tspan x="0" y="26" font-family="'MyriadPro-Regular'" font-size="8">                        Colors highlight commonly used endpoints.</tspan></text>
	<rect x="39.1" y="555.1" fill="#76CFE6" width="9.6" height="10.7"/>
	<rect x="48.7" y="555.1" fill="#AAD157" width="9.6" height="10.7"/>
	<rect x="58.3" y="555.1" fill="#CB66A8" width="9.6" height="10.7"/>
	<rect x="67.8" y="555.1" fill="#F89A37" width="9.6" height="10.7"/>
	<rect x="412" y="322.2" fill="none" width="86.4" height="23.8"/>
	<text transform="matrix(1 0 0 1 412.0258 329.6893)"><tspan x="0" y="0" fill="#010101" font-family="'MyriadPro-Regular'" font-size="9">/</tspan><tspan x="3.1" y="0" fill="#010101" font-family="'MyriadPro-Bold'" font-size="9">architecto</tspan></text>
	<line fill="none" stroke="#A3A2A2" stroke-miterlimit="10" x1="259.2" y1="298.1" x2="276.8" y2="298.1"/>
	<line fill="none" stroke="#A3A2A2" stroke-miterlimit="10" x1="259.2" y1="332.1" x2="279.3" y2="332.1"/>
	<line fill="none" stroke="#A3A2A2" stroke-miterlimit="10" x1="259.2" y1="367.2" x2="279.2" y2="367.2"/>
	<line fill="none" stroke="#A3A2A2" stroke-miterlimit="10" x1="384.8" y1="74" x2="384.8" y2="336"/>
	<line fill="none" stroke="#A3A2A2" stroke-miterlimit="10" x1="383.7" y1="337.1" x2="407.6" y2="337.1"/>
	<line fill="none" stroke="#A3A2A2" stroke-miterlimit="10" x1="368.7" y1="175.9" x2="384.8" y2="175.9"/>
	<line fill="none" stroke="#A3A2A2" stroke-miterlimit="10" x1="125.7" y1="248.8" x2="195.8" y2="248.8"/>
	<line fill="none" stroke="#A3A2A2" stroke-miterlimit="10" x1="384" y1="74" x2="407.8" y2="74"/>
	<line fill="none" stroke="#A3A2A2" stroke-miterlimit="10" x1="258.9" y1="454" x2="314.7" y2="454"/>
	<line fill="none" stroke="#A3A2A2" stroke-miterlimit="10" x1="314.7" y1="453.5" x2="314.7" y2="506"/>
	<line fill="none" stroke="#A3A2A2" stroke-miterlimit="10" x1="314.3" y1="505.5" x2="334.7" y2="505.5"/>
	<line fill="none" stroke="#A3A2A2" stroke-miterlimit="10" x1="366.4" y1="505.2" x2="408.6" y2="505.2"/>
	<line fill="none" stroke="#A3A2A2" stroke-miterlimit="10" x1="364.6" y1="548.2" x2="406.9" y2="548.2"/>
	<line fill="none" stroke="#A3A2A2" stroke-miterlimit="10" x1="384.8" y1="363" x2="384.8" y2="465.1"/>
	<line fill="none" stroke="#A3A2A2" stroke-miterlimit="10" x1="384.8" y1="363" x2="408.6" y2="363"/>
	<line fill="none" stroke="#A3A2A2" stroke-miterlimit="10" x1="384.8" y1="465.1" x2="408.6" y2="465.1"/>
	<line fill="none" stroke="#A3A2A2" stroke-miterlimit="10" x1="368.7" y1="403.9" x2="384.8" y2="403.9"/>
	<text transform="matrix(1 0 0 1 200.7914 404.8545)"><tspan x="0" y="0" fill="#010101" font-family="'MyriadPro-Regular'" font-size="9">/</tspan><tspan x="3.1" y="0" fill="#010101" font-family="'MyriadPro-Bold'" font-size="9">accusantium</tspan></text>
	<line fill="none" stroke="#A3A2A2" stroke-miterlimit="10" x1="259.2" y1="402" x2="279.3" y2="402"/>
	<line fill="none" stroke="#A3A2A2" stroke-miterlimit="10" x1="259.2" y1="402" x2="279.2" y2="402"/>
	<text transform="matrix(1 0 0 1 200.7913 432.1189)" fill="#010101" font-family="'MyriadPro-Bold'" font-size="9">/doloremque</text>
	<line fill="none" stroke="#A3A2A2" stroke-miterlimit="10" x1="259.2" y1="430.1" x2="279.2" y2="430.1"/>
</g>
<g id="_x3C_Layer_x3E_">
	<text transform="matrix(1 0 0 1 684.9435 56.9998)"><tspan x="0" y="0" fill="#414042" font-family="'MyriadPro-Bold'" font-size="9">/</tspan><tspan x="3" y="0" fill="#010101" font-family="'MyriadPro-Bold'" font-size="9">architecto </tspan><tspan x="0" y="10.8" fill="#414042" font-family="'MyriadPro-Bold'" font-size="9">/</tspan><tspan x="3" y="10.8" fill="#010101" font-family="'MyriadPro-Bold'" font-size="9">architecto</tspan><tspan x="43.6" y="10.8" fill="#414042" font-family="'MyriadPro-Bold'" font-size="9">/444</tspan></text>
	<g>
		<rect x="685.4" y="216.5" fill="none" width="83.2" height="39.1"/>
		<text transform="matrix(1 0 0 1 685.4435 224.0271)"><tspan x="0" y="0" fill="#414042" font-family="'MyriadPro-Bold'" font-size="9">/aperiam </tspan><tspan x="0" y="10" fill="#414042" font-family="'MyriadPro-Bold'" font-size="9">/aperium/444</tspan><tspan x="0" y="20" fill="#414042" font-family="'MyriadPro-Regular'" font-size="9">?includes=aperium</tspan></text>
	</g>
	<g>
		<line fill="none" stroke="#A3A2A2" stroke-miterlimit="10" x1="30.5" y1="532" x2="22.8" y2="532"/>
		<line fill="none" stroke="#A3A2A2" stroke-miterlimit="10" x1="22.8" y1="532" x2="22.8" y2="247.8"/>
		<g>
			<g>
				<line fill="none" stroke="#A3A2A2" stroke-miterlimit="10" x1="22.8" y1="247.8" x2="28.4" y2="247.8"/>
				<g>
					<path fill="#A3A2A2" d="M32.5,247.8c-1.9,0.7-4.3,1.9-5.8,3.2l1.2-3.2l-1.2-3.2C28.2,245.9,30.6,247.1,32.5,247.8z"/>
				</g>
			</g>
		</g>
	</g>
</g>
</svg>
