<?xml version="1.0" encoding="utf-8"?>
<!-- Generator: Adobe Illustrator 17.1.0, SVG Export Plug-In . SVG Version: 6.00 Build 0)  -->
<!DOCTYPE svg PUBLIC "-//W3C//DTD SVG 1.1//EN" "http://www.w3.org/Graphics/SVG/1.1/DTD/svg11.dtd">
<svg version="1.1" id="Layer_1" xmlns="http://www.w3.org/2000/svg" xmlns:xlink="http://www.w3.org/1999/xlink" x="0px" y="0px"
	 viewBox="0 0 850 550" enable-background="new 0 0 850 550" xml:space="preserve">
<rect x="-6" y="-11" fill="#F9F7C2" width="872" height="575"/>
<rect x="462" y="107" fill="#FFFFFF" width="318" height="271"/>
<rect x="462" y="107" fill="#FF931E" width="317" height="45"/>
<polygon fill="none" stroke="#000000" stroke-width="5" stroke-miterlimit="10" points="298.6,376.2 72.1,376.2 72.1,113.6 
	229.1,113.6 298.6,183.1 "/>
<polyline fill="none" stroke="#000000" stroke-width="5" stroke-miterlimit="10" points="229.1,116.6 229.1,186.1 298.6,186.1 "/>
<text transform="matrix(1 0 0 1 65.0781 426.5879)"><tspan x="0" y="0" font-family="'ArialMT'" font-size="30">The blank page </tspan><tspan x="0" y="36" font-family="'ArialMT'" font-size="30">requires so many </tspan><tspan x="0" y="72" font-family="'ArialMT'" font-size="30">decisions</tspan></text>
<rect x="462.2" y="106.5" fill="none" stroke="#000000" stroke-width="6" stroke-miterlimit="10" width="317.5" height="271.9"/>
<line fill="none" stroke="#232323" stroke-width="11.9078" stroke-miterlimit="10" x1="621.4" y1="131.8" x2="661.1" y2="131.8"/>
<line fill="none" stroke="#000000" stroke-width="11.9078" stroke-miterlimit="10" x1="673" y1="131.8" x2="712.7" y2="131.8"/>
<line fill="none" stroke="#000000" stroke-width="11.9078" stroke-miterlimit="10" x1="724.6" y1="131.8" x2="764.3" y2="131.8"/>
<rect x="497.9" y="179.3" fill="none" stroke="#000000" stroke-width="5" stroke-miterlimit="10" width="115.1" height="25.8"/>
<line fill="none" stroke="#8D8E8E" stroke-width="9.5052" stroke-miterlimit="10" x1="634.5" y1="183.3" x2="710.4" y2="183.3"/>
<line fill="none" stroke="#8D8E8E" stroke-width="9.5052" stroke-miterlimit="10" x1="634.5" y1="202.1" x2="755.9" y2="202.1"/>
<line fill="none" stroke="#8D8E8E" stroke-width="9.5052" stroke-miterlimit="10" x1="634.5" y1="231.9" x2="710.4" y2="231.9"/>
<line fill="none" stroke="#8D8E8E" stroke-width="9.5052" stroke-miterlimit="10" x1="634.5" y1="251.7" x2="755.9" y2="251.7"/>
<line fill="none" stroke="#8D8E8E" stroke-width="9.5052" stroke-miterlimit="10" x1="634.5" y1="282.4" x2="710.4" y2="282.4"/>
<line fill="none" stroke="#8D8E8E" stroke-width="9.5052" stroke-miterlimit="10" x1="634.5" y1="300.3" x2="755.9" y2="300.3"/>
<rect x="497.9" y="274.4" fill="none" stroke="#000000" stroke-width="5" stroke-miterlimit="10" width="115.1" height="25.8"/>
<rect x="497.9" y="226.9" fill="none" stroke="#000000" stroke-width="5" stroke-miterlimit="10" width="115.1" height="25.8"/>
<rect x="497.9" y="322" fill="none" stroke="#000000" stroke-width="5" stroke-miterlimit="10" width="115.1" height="25.8"/>
<line fill="none" stroke="#8D8E8E" stroke-width="9.5052" stroke-miterlimit="10" x1="634.5" y1="326" x2="710.4" y2="326"/>
<line fill="none" stroke="#8D8E8E" stroke-width="9.5052" stroke-miterlimit="10" x1="634.5" y1="343.8" x2="755.9" y2="343.8"/>
<text transform="matrix(1 0 0 1 467.8786 438.4195)"><tspan x="0" y="0" font-family="'ArialMT'" font-size="30">The form provides </tspan><tspan x="0" y="36" font-family="'ArialMT'" font-size="30">guidance and structure</tspan></text>
<polyline fill="#FFFFFF" points="74.6,113 74.6,373 295,373 295,185 227,185 227,115 77.4,115.4 "/>
</svg>
