<?xml version="1.0" encoding="utf-8"?>
<!-- Generator: Adobe Illustrator 23.0.1, SVG Export Plug-In . SVG Version: 6.00 Build 0)  -->
<svg version="1.1" id="Layer_1" xmlns="http://www.w3.org/2000/svg" xmlns:xlink="http://www.w3.org/1999/xlink" x="0px" y="0px"
	 viewBox="0 0 690.6 407.1" style="enable-background:new 0 0 690.6 407.1;" xml:space="preserve">
<style type="text/css">
	.st0{fill:none;stroke:#000000;stroke-miterlimit:10;}
	.st1{fill:none;stroke:#000000;stroke-width:0.4471;stroke-miterlimit:10;}
	.st2{fill:none;stroke:#000000;stroke-width:0.7958;stroke-miterlimit:10;}
	.st3{font-family:'ArialMT';}
	.st4{font-size:18px;}
	.st5{fill:#00A651;}
	.st6{fill:#BE1E2D;}
	.st7{fill:none;}
	.st8{fill:none;stroke:#5B595A;stroke-miterlimit:10;}
	.st9{fill:none;stroke:#5B595A;stroke-miterlimit:10;stroke-dasharray:2.0123,2.0123;}
	.st10{fill:#5B595A;}
</style>
<path d="M273.8,174.2c0-5.9-4.6-10.5-10.5-10.5s-10.5,4.6-10.5,10.5s4.6,10.5,10.5,10.5S273.8,180.1,273.8,174.2z M343.6,258
	c0-5.9-4.6-10.5-10.5-10.5s-10.5,4.6-10.5,10.5s4.6,10.5,10.5,10.5C339,268.4,343.6,263.8,343.6,258z M413.4,90.4
	c0-5.9-4.6-10.5-10.5-10.5s-10.5,4.6-10.5,10.5s4.6,10.5,10.5,10.5S413.4,96.3,413.4,90.4z M462.2,90.4c0,3.9-3.1,7-7,7h-29
	c-3,10-12.4,17.5-23.3,17.5s-20.3-7.4-23.3-17.5H197c-3.9,0-7-3.1-7-7s3.1-7,7-7h182.6c3-10,12.4-17.5,23.3-17.5s20.3,7.4,23.3,17.5
	h29C459.1,83.5,462.2,86.6,462.2,90.4z M462.2,174.2c0,3.9-3.1,7-7,7H286.6c-3,10-12.4,17.5-23.3,17.5c-11,0-20.3-7.4-23.3-17.5h-43
	c-3.9,0-7-3.1-7-7s3.1-7,7-7h43c3-10,12.4-17.5,23.3-17.5c11,0,20.3,7.4,23.3,17.5h168.6C459.1,167.2,462.2,170.3,462.2,174.2z
	 M462.2,258c0,3.9-3.1,7-7,7h-98.8c-3,10-12.4,17.5-23.3,17.5s-20.3-7.4-23.3-17.5H197c-3.9,0-7-3.1-7-7s3.1-7,7-7h112.8
	c3-10,12.4-17.5,23.3-17.5s20.3,7.4,23.3,17.5h98.8C459.1,251,462.2,254.1,462.2,258z"/>
<line class="st0" x1="549.1" y1="186.9" x2="425.4" y2="110.6"/>
<line class="st1" x1="190" y1="219.8" x2="247.4" y2="186.9"/>
<line class="st2" x1="450.1" y1="335.9" x2="351.7" y2="275.1"/>
<text transform="matrix(1 0 0 1 519.298 206.1753)" class="st3 st4">Authoring, </text>
<text transform="matrix(1 0 0 1 519.298 227.7753)" class="st3 st4">publishing, </text>
<text transform="matrix(1 0 0 1 519.298 249.3753)" class="st3 st4">editing</text>
<text transform="matrix(1 0 0 1 455.7363 349.9122)" class="st3 st4">Editing</text>
<text transform="matrix(1 0 0 1 455.7363 371.5122)" class="st3 st4">publishing</text>
<text transform="matrix(1 0 0 1 147.8592 237.6666)" class="st3 st4">Publishing</text>
<text transform="matrix(1 0 0 1 445.1754 28.4387)" class="st5 st3 st4">strong tech knowledge</text>
<text transform="matrix(1 0 0 1 618.7754 28.4387)" class="st5 st3 st4">   +++</text>
<text transform="matrix(1 0 0 1 64.6017 28.4387)" class="st6 st3 st4"> weak tech knowledge</text>
<g>
	<line class="st7" x1="256.2" y1="23.7" x2="433.2" y2="23.7"/>
	<g>
		<line class="st8" x1="260.8" y1="23.7" x2="261.6" y2="23.7"/>
		<line class="st9" x1="263.1" y1="23.7" x2="427" y2="23.7"/>
		<line class="st8" x1="427.7" y1="23.7" x2="428.5" y2="23.7"/>
		<g>
			<path class="st10" d="M256.2,23.7c2.2,1.1,4.9,2.9,6.6,4.8l-1.3-4.8l1.3-4.8C261.1,20.9,258.3,22.7,256.2,23.7z"/>
		</g>
		<g>
			<path class="st10" d="M433.2,23.7c-2.2,1.1-4.9,2.9-6.6,4.8l1.3-4.8l-1.3-4.8C428.3,20.9,431,22.7,433.2,23.7z"/>
		</g>
	</g>
</g>
<g>
	<text transform="matrix(1 0 0 1 29.0577 28.4387)" class="st6 st3 st4">- - - </text>
</g>
</svg>
