<?xml version="1.0" encoding="utf-8"?>
<!-- Generator: Adobe Illustrator 17.1.0, SVG Export Plug-In . SVG Version: 6.00 Build 0)  -->
<!DOCTYPE svg PUBLIC "-//W3C//DTD SVG 1.1//EN" "http://www.w3.org/Graphics/SVG/1.1/DTD/svg11.dtd">
<svg version="1.1" id="Layer_1" xmlns="http://www.w3.org/2000/svg" xmlns:xlink="http://www.w3.org/1999/xlink" x="0px" y="0px"
	 viewBox="0 0 690.6 407.1" enable-background="new 0 0 690.6 407.1" xml:space="preserve">
<path d="M273.8,174.2c0-5.9-4.6-10.5-10.5-10.5s-10.5,4.6-10.5,10.5c0,5.9,4.6,10.5,10.5,10.5S273.8,180.1,273.8,174.2z M343.6,258
	c0-5.9-4.6-10.5-10.5-10.5c-5.9,0-10.5,4.6-10.5,10.5c0,5.9,4.6,10.5,10.5,10.5C339,268.4,343.6,263.8,343.6,258z M413.4,90.4
	c0-5.9-4.6-10.5-10.5-10.5s-10.5,4.6-10.5,10.5c0,5.9,4.6,10.5,10.5,10.5S413.4,96.3,413.4,90.4z M462.2,90.4c0,3.9-3.1,7-7,7h-29
	c-3,10-12.4,17.5-23.3,17.5s-20.3-7.4-23.3-17.5H197c-3.9,0-7-3.1-7-7s3.1-7,7-7h182.6c3-10,12.4-17.5,23.3-17.5s20.3,7.4,23.3,17.5
	h29C459.1,83.5,462.2,86.6,462.2,90.4z M462.2,174.2c0,3.9-3.1,7-7,7H286.6c-3,10-12.4,17.5-23.3,17.5c-11,0-20.3-7.4-23.3-17.5h-43
	c-3.9,0-7-3.1-7-7c0-3.9,3.1-7,7-7h43c3-10,12.4-17.5,23.3-17.5c11,0,20.3,7.4,23.3,17.5h168.6C459.1,167.2,462.2,170.3,462.2,174.2
	z M462.2,258c0,3.9-3.1,7-7,7h-98.8c-3,10-12.4,17.5-23.3,17.5s-20.3-7.4-23.3-17.5H197c-3.9,0-7-3.1-7-7c0-3.9,3.1-7,7-7h112.8
	c3-10,12.4-17.5,23.3-17.5s20.3,7.4,23.3,17.5h98.8C459.1,251,462.2,254.1,462.2,258z"/>
<line fill="none" stroke="#000000" stroke-miterlimit="10" x1="549.1" y1="186.9" x2="425.4" y2="110.6"/>
<line fill="none" stroke="#000000" stroke-width="0.4471" stroke-miterlimit="10" x1="190" y1="219.8" x2="247.4" y2="186.9"/>
<line fill="none" stroke="#000000" stroke-width="0.7958" stroke-miterlimit="10" x1="450.1" y1="335.9" x2="351.7" y2="275.1"/>
<text transform="matrix(1 0 0 1 519.298 206.1753)"><tspan x="0" y="0" font-family="'MyriadPro-Regular'" font-size="18">Authoring, </tspan><tspan x="0" y="21.6" font-family="'MyriadPro-Regular'" font-size="18">publishing, </tspan><tspan x="0" y="43.2" font-family="'MyriadPro-Regular'" font-size="18">editing</tspan></text>
<text transform="matrix(1 0 0 1 455.7363 349.9122)"><tspan x="0" y="0" font-family="'MyriadPro-Regular'" font-size="18">Editing</tspan><tspan x="0" y="21.6" font-family="'MyriadPro-Regular'" font-size="18">publishing</tspan></text>
<text transform="matrix(1 0 0 1 147.8592 237.6666)" font-family="'MyriadPro-Regular'" font-size="18">Publishing</text>
<text transform="matrix(1 0 0 1 445.1754 28.4387)"><tspan x="0" y="0" fill="#00A651" font-family="'MyriadPro-Regular'" font-size="18">strong tech knowledge</tspan><tspan x="173.6" y="0" fill="#00A651" font-family="'MyriadPro-Regular'" font-size="18">++++</tspan></text>
<text transform="matrix(1 0 0 1 21.7017 28.4387)"><tspan x="0" y="0" fill="#BE1E2D" font-family="'MyriadPro-Regular'" font-size="18">- - - - -</tspan><tspan x="42.9" y="0" fill="#BE1E2D" font-family="'MyriadPro-Regular'" font-size="14">  weak tech knowledge</tspan></text>
<g>
	<line fill="#00A651" x1="207.9" y1="23.7" x2="437.3" y2="23.7"/>
	<g>
		<line fill="none" stroke="#5B595A" stroke-miterlimit="10" x1="213.9" y1="23.7" x2="214.9" y2="23.7"/>
		
			<line fill="none" stroke="#5B595A" stroke-miterlimit="10" stroke-dasharray="2.0123,2.0123" x1="216.9" y1="23.7" x2="429.2" y2="23.7"/>
		<line fill="none" stroke="#5B595A" stroke-miterlimit="10" x1="430.2" y1="23.7" x2="431.2" y2="23.7"/>
		<g>
			<path fill="#5B595A" d="M207.9,23.7c2.8,1.1,6.4,2.9,8.5,4.8l-1.7-4.8l1.7-4.8C214.3,20.9,210.7,22.7,207.9,23.7z"/>
		</g>
		<g>
			<path fill="#5B595A" d="M437.3,23.7c-2.8,1.1-6.4,2.9-8.5,4.8l1.7-4.8l-1.7-4.8C430.9,20.9,434.4,22.7,437.3,23.7z"/>
		</g>
	</g>
</g>
</svg>
