<?xml version="1.0" encoding="utf-8"?>
<!-- Generator: Adobe Illustrator 17.1.0, SVG Export Plug-In . SVG Version: 6.00 Build 0)  -->
<!DOCTYPE svg PUBLIC "-//W3C//DTD SVG 1.1//EN" "http://www.w3.org/Graphics/SVG/1.1/DTD/svg11.dtd">
<svg version="1.1" id="Layer_1" xmlns="http://www.w3.org/2000/svg" xmlns:xlink="http://www.w3.org/1999/xlink" x="0px" y="0px"
	 viewBox="0 0 850 484.1" enable-background="new 0 0 850 484.1" xml:space="preserve">
<path d="M513.7,325.6c0-0.2,0.1-0.3,0.1-0.5v-78.5c0-2.4-1.9-4.4-4.4-4.4s-4.4,1.9-4.4,4.4v77L480.1,357c-1.4,1.9-1,4.7,0.9,6.1
	c0.8,0.6,1.7,0.9,2.6,0.9c1.3,0,2.6-0.6,3.5-1.8l25.8-34.5c0.1-0.1,0.1-0.3,0.2-0.4c0.2-0.3,0.3-0.5,0.4-0.8
	C513.6,326.2,513.6,325.9,513.7,325.6L513.7,325.6z M447.9,133.8l-45.8-48.3c-0.8,1.2-1.9,2.3-3.1,3.5l46.4,48.9
	C446.2,136.6,447.1,135.3,447.9,133.8L447.9,133.8z M384.1,100.2c-0.7,0.7-1.3,1.4-1.8,2.2l53.2,56.2c0.2-1.8,0.6-3.5,1.3-5.4
	L385.6,99C385.1,99.4,384.6,99.8,384.1,100.2L384.1,100.2z M373.9,118.8c-1.1,0.7-2.3,1.2-3.6,1.7l84.1,88.7c1.5-0.7,3-1.4,4.5-2
	l-84.4-89C374.3,118.4,374.1,118.6,373.9,118.8L373.9,118.8z M439.4,217.5l-87.3-92.1c-0.9,0.5-1.7,1.1-2.4,1.8
	c-0.4,0.4-0.8,0.8-1.2,1.2l86.9,91.7C436.7,219.2,438.1,218.3,439.4,217.5L439.4,217.5z M524.1,60.2c28.4,37.1,44,82.6,44,129.7
	c0,7.4-0.4,14.6-1.1,21.8c24,12.4,43.6,32.1,55.8,56.2c1.4-9.8,2.2-19.7,2.2-29.9C625,162.4,584.5,96.3,524.1,60.2L524.1,60.2z
	 M292.1,377.5c-7.9-2.7-15.7-5.8-23.3-9.4c-12.6-14.4-22.8-30.4-30.7-47.5L292.1,377.5z M417.9,30.9c-3,0-6,0.1-8.9,0.2l0,0
	c-0.2,0-0.5,0-0.7,0c-0.9,0-1.7,0.1-2.6,0.1c-0.9,0.1-1.9,0.1-2.8,0.2l0.1,0.1c-6.9,0.5-13.8,1.3-20.5,2.5l-0.1-0.1
	c-1.8,0.3-3.6,0.6-5.5,1l0,0c-6.3,1.3-12.4,2.8-18.5,4.6l0,0c-0.3,0.1-0.7,0.2-1,0.3c-0.8,0.3-1.6,0.5-2.4,0.8
	c-0.5,0.2-1,0.3-1.5,0.5l0,0C270.6,68.2,210.7,146.1,210.7,238c0,52.8,19.8,101,52.3,137.6c13.2,6.5,27.1,11.6,41.7,15.2l0.1,0.1
	c0.3,0.1,0.6,0.1,0.9,0.2c1.2,0.3,2.4,0.5,3.6,0.8c1.3,0.3,2.5,0.6,3.8,0.9l-0.1-0.1c8.6,1.8,17.4,3,26.3,3.7l0.1,0.1
	c0.5,0,1.1,0.1,1.6,0.1c1.1,0.1,2.2,0.1,3.4,0.2c0.6,0,1.2,0.1,1.8,0.1l-0.1-0.1c2.9,0.1,5.8,0.3,8.8,0.3c4.6,0,9.2-0.2,13.8-0.5
	l0,0c2-0.1,4-0.3,6-0.5l0,0c6.8-0.6,13.5-1.6,20.1-2.9l0,0c0.3-0.1,0.5-0.1,0.8-0.2c0.8-0.2,1.7-0.3,2.5-0.5c0.2,0,0.4-0.1,0.6-0.1
	c-1.7-2.8-3.3-5.6-4.7-8.5c-0.4,0.1-0.9,0.2-1.3,0.3L344,332.9c-1.2,0.9-2.6,1.8-3.9,2.7L387,385c-6.8,1.1-13.7,1.9-20.7,2.3
	l-37.2-39.2c-0.2,2.1-0.1,4.4,0,6.7l31,32.7c-1.8,0.1-3.6,0.1-5.4,0.1c-6.1,0-12.2-0.3-18.2-0.9l-12.9-13.7
	c-0.2,2.2-0.2,4.5-0.1,6.7l5.9,6.2c-9.6-1.2-19-3.1-28.2-5.7l-68.2-72c-4.2-11.1-7.4-22.5-9.6-34.2l70.7,74.6
	c-0.4-2.6-0.8-5.2-1-7.8l-71.1-75c-1.2-8.6-1.9-17.3-2-26.2l73.1,77.1c0.1-2.1,0.2-4.3,0.3-6.5l-73.3-77.3
	c0.2-7.5,0.8-14.9,1.8-22.2l50.9,53.7c0.2-1.7,0.8-3.3,2-4.7l-52-54.8c2.5-15.1,6.8-29.8,12.8-44.1c10-23.6,24.2-44.7,42.4-62.9
	c7.2-7.2,14.9-13.8,23.1-19.8l2.2,2.3c2.1,0.1,4.3,0.1,6.4,0l-4.8-5c4.6-3.2,9.4-6.2,14.3-9l10.5,11.1c1.7-0.4,3.4-0.9,5.1-1.3
	l-11.5-12.1c5.1-2.8,10.3-5.3,15.6-7.6l13.3,14c1.6-0.6,3.2-1.2,4.8-1.7l-13.5-14.2c5.6-2.3,11.3-4.3,17.1-6.1l13.3,14.1
	c0.6-0.2,1.2-0.4,1.8-0.6c1.1-0.3,2.3-0.5,3.5-0.6l-13.6-14.3c6.2-1.7,12.5-3.1,18.9-4.2l81.2,85.7l3.7-2.9l-79.3-83.7
	c7-1,14-1.6,21.1-1.8l60.5,63.8c0-2.3-0.1-4.5,0-6.8l-54.1-57.1c0.1,0,0.2,0,0.3,0c8.1,0,16,0.5,23.9,1.4l33.8,35.6
	c0.7-1.4,1.6-2.7,2.7-4l-29-30.6c10.1,1.6,19.9,4,29.6,7.1l14.4,15.2l3.8-2.8l-8.5-9c5.2,2,10.4,4.1,15.4,6.6
	c31.5,36,48.8,82.1,48.8,130.1c0,5.1-0.3,10.2-0.6,15.2c3.1,1.1,6.1,2.4,9,3.7c0.6-6.2,0.9-12.5,0.9-18.9
	c0-52.8-19.8-101-52.3-137.6C481.9,38.6,450.8,30.9,417.9,30.9L417.9,30.9z M330.7,140.5l88.3,93.1c1.1-1.1,2.2-2.2,3.4-3.2
	l-87.3-92.1C333.7,139.1,332.2,139.8,330.7,140.5L330.7,140.5z M368,296.5c-0.6,1.6-1.2,3.3-1.8,4.9l14.1,14.9
	c0.2-2.1,0.4-4.1,0.6-6.1L368,296.5z M395.7,264L290.2,152.7c-1.8,0.4-3.5,0.9-5.2,1.3l108.4,114.4C394.2,266.9,395,265.4,395.7,264
	L395.7,264z M402.1,397.8c-15.2,3.5-31,5.3-47.3,5.3c-27.9,0-54.8-5.3-80.2-15.6c37.2,35.6,87.7,57.5,143.3,57.5
	c12.2,0,24.2-1.1,35.9-3.1C432.8,432.1,415,416.8,402.1,397.8L402.1,397.8z M355.6,321.1l26.4,27.8c-0.5-2.7-0.9-5.3-1.2-8.1
	l-22.5-23.7C357.4,318.4,356.6,319.8,355.6,321.1L355.6,321.1z M407.8,245.9l-94-99.2c-1.7,0.5-3.4,1-5.1,1.4L405,249.6
	C405.9,248.4,406.9,247.1,407.8,245.9L407.8,245.9z M349.6,246.2l-81-85.5c-1.3,0.8-2.6,1.7-3.9,2.6l79.4,83.7
	C345.9,246.8,347.8,246.5,349.6,246.2L349.6,246.2z M243.4,202.6l38.9,41c0.4-1.8,0.8-3.7,1.3-5.4l-37.3-39.3
	C245.6,200.4,244.7,201.7,243.4,202.6L243.4,202.6z M295.7,224.9c1.5,0,3,0,4.6,0.1l-48.1-50.7c-0.4,0.4-0.8,0.9-1.2,1.3
	c-0.6,0.8-1.1,1.7-1.4,2.7l44.3,46.8C294.5,225,295.1,224.9,295.7,224.9L295.7,224.9z M508.3,208.3c-64.9,0-117.5,52.6-117.5,117.5
	s52.6,117.5,117.5,117.5s117.5-52.6,117.5-117.5S573.2,208.3,508.3,208.3z M508.3,217c60,0,108.8,48.8,108.8,108.8
	c0,60-48.8,108.8-108.8,108.8c-60,0-108.8-48.8-108.8-108.8C399.5,265.8,448.3,217,508.3,217"/>
</svg>
