<?xml version="1.0" encoding="utf-8"?>
<!-- Generator: Adobe Illustrator 17.1.0, SVG Export Plug-In . SVG Version: 6.00 Build 0)  -->
<!DOCTYPE svg PUBLIC "-//W3C//DTD SVG 1.1//EN" "http://www.w3.org/Graphics/SVG/1.1/DTD/svg11.dtd">
<svg version="1.1" id="Layer_1" xmlns="http://www.w3.org/2000/svg" xmlns:xlink="http://www.w3.org/1999/xlink" x="0px" y="0px"
	 viewBox="0 0 850 566" enable-background="new 0 0 850 566" xml:space="preserve">
<text transform="matrix(1 0 0 1 140.1226 58.0303)" font-family="'Arial-BoldMT'" font-size="20">How do I get an API key?</text>
<rect x="180" y="71" fill="#C4C0C0" width="528" height="16"/>
<rect x="180" y="98" fill="#C4C0C0" width="528" height="16"/>
<text transform="matrix(1 0 0 1 139.1226 158.0303)" font-family="'Arial-BoldMT'" font-size="20">What platforms are supported by the SDKs?</text>
<rect x="179" y="171" fill="#C4C0C0" width="528" height="16"/>
<rect x="179" y="198" fill="#C4C0C0" width="528" height="16"/>
<text transform="matrix(1 0 0 1 140.1226 246.0303)" font-family="'Arial-BoldMT'" font-size="20">How do I handle this common scenario?</text>
<g>
	<circle fill="#E5E5E5" cx="122.5" cy="51" r="10"/>
	<path d="M122.3,56c-0.4,0-0.8,0.3-0.8,0.8s0.3,0.8,0.8,0.8c0.4,0,0.8-0.3,0.8-0.8S122.8,56,122.3,56z M122.3,44.2
		c-2,0-3.7,1.3-4.1,3c0,0.1,0,0.3,0,0.4c0.1,0.1,0.2,0.2,0.3,0.2s0.3,0,0.4-0.1s0.2-0.2,0.2-0.3c0.3-1.1,1.5-2.2,3.1-2.2
		c0.8,0,1.6,0.3,2.2,0.7s0.9,1.1,0.9,1.8c0,0.9-0.2,1.3-0.5,1.7c-0.3,0.3-0.6,0.6-1.1,0.9c-0.5,0.3-1,0.8-1.4,1.5
		c-0.4,0.7-0.6,1.7-0.6,3.1c0,0.3,0.2,0.5,0.5,0.5s0.5-0.2,0.5-0.5c0-1.3,0.2-2.1,0.5-2.6c0.3-0.5,0.7-0.8,1.1-1.1
		c0.4-0.3,0.9-0.6,1.3-1.1c0.4-0.5,0.7-1.3,0.7-2.3c0-1.1-0.5-2-1.3-2.6C124.4,44.5,123.4,44.2,122.3,44.2L122.3,44.2z M122.3,41.1
		c5.4,0,9.8,4.4,9.8,9.8s-4.4,9.8-9.8,9.8s-9.8-4.4-9.8-9.8S116.9,41.1,122.3,41.1z M122.3,40.1c-6,0-10.8,4.8-10.8,10.8
		s4.8,10.8,10.8,10.8c6,0,10.8-4.8,10.8-10.8S128.3,40.1,122.3,40.1z"/>
</g>
<g>
	<circle fill="#E5E5E5" cx="122.5" cy="152" r="10"/>
	<path d="M122.3,156.7c-0.4,0-0.8,0.3-0.8,0.8s0.3,0.8,0.8,0.8c0.4,0,0.8-0.3,0.8-0.8S122.8,156.7,122.3,156.7z M122.3,144.8
		c-2,0-3.7,1.3-4.1,3c0,0.1,0,0.3,0,0.4c0.1,0.1,0.2,0.2,0.3,0.2s0.3,0,0.4-0.1s0.2-0.2,0.2-0.3c0.3-1.1,1.5-2.2,3.1-2.2
		c0.8,0,1.6,0.3,2.2,0.7c0.6,0.5,0.9,1.1,0.9,1.8c0,0.9-0.2,1.3-0.5,1.7c-0.3,0.3-0.6,0.6-1.1,0.9s-1,0.8-1.4,1.5
		c-0.4,0.7-0.6,1.7-0.6,3.1c0,0.3,0.2,0.5,0.5,0.5s0.5-0.2,0.5-0.5c0-1.3,0.2-2.1,0.5-2.6c0.3-0.5,0.7-0.8,1.1-1.1
		c0.4-0.3,0.9-0.6,1.3-1.1c0.4-0.5,0.7-1.3,0.7-2.3c0-1.1-0.5-2-1.3-2.6S123.4,144.8,122.3,144.8L122.3,144.8z M122.3,141.8
		c5.4,0,9.8,4.4,9.8,9.8s-4.4,9.8-9.8,9.8s-9.8-4.4-9.8-9.8S116.9,141.8,122.3,141.8z M122.3,140.7c-6,0-10.8,4.8-10.8,10.8
		c0,6,4.8,10.8,10.8,10.8c6,0,10.8-4.8,10.8-10.8C133.1,145.6,128.3,140.7,122.3,140.7z"/>
</g>
<g>
	<circle fill="#E5E5E5" cx="122.5" cy="240" r="10"/>
	<path d="M122.3,244.8c-0.4,0-0.8,0.3-0.8,0.8s0.3,0.8,0.8,0.8c0.4,0,0.8-0.3,0.8-0.8S122.8,244.8,122.3,244.8z M122.3,233
		c-2,0-3.7,1.3-4.1,3c0,0.1,0,0.3,0,0.4c0.1,0.1,0.2,0.2,0.3,0.2s0.3,0,0.4-0.1c0.1-0.1,0.2-0.2,0.2-0.3c0.3-1.1,1.5-2.2,3.1-2.2
		c0.8,0,1.6,0.3,2.2,0.7s0.9,1.1,0.9,1.8c0,0.9-0.2,1.3-0.5,1.7c-0.3,0.3-0.6,0.6-1.1,0.9c-0.5,0.3-1,0.8-1.4,1.5
		c-0.4,0.7-0.6,1.7-0.6,3.1c0,0.3,0.2,0.5,0.5,0.5s0.5-0.2,0.5-0.5c0-1.3,0.2-2.1,0.5-2.6c0.3-0.5,0.7-0.8,1.1-1.1
		c0.4-0.3,0.9-0.6,1.3-1.1c0.4-0.5,0.7-1.3,0.7-2.3c0-1.1-0.5-2-1.3-2.6C124.4,233.3,123.4,233,122.3,233L122.3,233z M122.3,229.9
		c5.4,0,9.8,4.4,9.8,9.8s-4.4,9.8-9.8,9.8s-9.8-4.4-9.8-9.8S116.9,229.9,122.3,229.9z M122.3,228.9c-6,0-10.8,4.8-10.8,10.8
		c0,6,4.8,10.8,10.8,10.8c6,0,10.8-4.8,10.8-10.8C133.1,233.7,128.3,228.9,122.3,228.9z"/>
</g>
<rect x="547" y="98" fill="#0071BC" width="161" height="16"/>
<rect x="547" y="198" fill="#0071BC" width="161" height="16"/>
<rect x="178" y="268" fill="#C4C0C0" width="528" height="16"/>
<rect x="178" y="295" fill="#C4C0C0" width="528" height="16"/>
<rect x="546" y="295" fill="#0071BC" width="161" height="16"/>
<text transform="matrix(1 0 0 1 145.1226 347.0303)" font-family="'Arial-BoldMT'" font-size="20">When should I make this request in my app’s lifecycle?</text>
<g>
	<circle fill="#E5E5E5" cx="122.5" cy="341" r="10"/>
	<path d="M122.3,345.8c-0.4,0-0.8,0.3-0.8,0.8c0,0.4,0.3,0.8,0.8,0.8c0.4,0,0.8-0.3,0.8-0.8C123.1,346.1,122.8,345.8,122.3,345.8z
		 M122.3,334c-2,0-3.7,1.3-4.1,3c0,0.1,0,0.3,0,0.4c0.1,0.1,0.2,0.2,0.3,0.2s0.3,0,0.4-0.1c0.1-0.1,0.2-0.2,0.2-0.3
		c0.3-1.1,1.5-2.2,3.1-2.2c0.8,0,1.6,0.3,2.2,0.7s0.9,1.1,0.9,1.8c0,0.9-0.2,1.3-0.5,1.7c-0.3,0.3-0.6,0.6-1.1,0.9s-1,0.8-1.4,1.5
		c-0.4,0.7-0.6,1.7-0.6,3.1c0,0.3,0.2,0.5,0.5,0.5s0.5-0.2,0.5-0.5c0-1.3,0.2-2.1,0.5-2.6s0.7-0.8,1.1-1.1c0.4-0.3,0.9-0.6,1.3-1.1
		c0.4-0.5,0.7-1.3,0.7-2.3c0-1.1-0.5-2-1.3-2.6C124.4,334.3,123.4,334,122.3,334L122.3,334z M122.3,330.9c5.4,0,9.8,4.4,9.8,9.8
		s-4.4,9.8-9.8,9.8s-9.8-4.4-9.8-9.8S116.9,330.9,122.3,330.9z M122.3,329.9c-6,0-10.8,4.8-10.8,10.8c0,6,4.8,10.8,10.8,10.8
		c6,0,10.8-4.8,10.8-10.8C133.1,334.7,128.3,329.9,122.3,329.9z"/>
</g>
<rect x="183" y="369" fill="#C4C0C0" width="528" height="16"/>
<rect x="183" y="396" fill="#C4C0C0" width="528" height="16"/>
<rect x="551" y="396" fill="#0071BC" width="161" height="16"/>
<text transform="matrix(1 0 0 1 560.2222 109.3119)" fill="#E8E9EA" font-family="'ArialMT'" font-size="10">&gt;&gt; link to more details</text>
<text transform="matrix(1 0 0 1 560.2219 308.144)" fill="#E8E9EA" font-family="'ArialMT'" font-size="10">&gt;&gt; link to more details</text>
<text transform="matrix(1 0 0 1 560.222 208.728)" fill="#E8E9EA" font-family="'ArialMT'" font-size="10">&gt;&gt; link to more details</text>
<text transform="matrix(1 0 0 1 560.2221 407.5602)" fill="#E8E9EA" font-family="'ArialMT'" font-size="10">&gt;&gt; link to more details</text>
<text transform="matrix(1 0 0 1 146.1226 463.0303)" font-family="'Arial-BoldMT'" font-size="20">When should I make this request in my app’s lifecycle?</text>
<g>
	<circle fill="#E5E5E5" cx="123.5" cy="457" r="10"/>
	<path d="M123.3,461.8c-0.4,0-0.8,0.3-0.8,0.8c0,0.4,0.3,0.8,0.8,0.8c0.4,0,0.8-0.3,0.8-0.8C124.1,462.1,123.8,461.8,123.3,461.8z
		 M123.3,450c-2,0-3.7,1.3-4.1,3c0,0.1,0,0.3,0,0.4c0.1,0.1,0.2,0.2,0.3,0.2s0.3,0,0.4-0.1c0.1-0.1,0.2-0.2,0.2-0.3
		c0.3-1.1,1.5-2.2,3.1-2.2c0.8,0,1.6,0.3,2.2,0.7s0.9,1.1,0.9,1.8c0,0.9-0.2,1.3-0.5,1.7c-0.3,0.3-0.6,0.6-1.1,0.9s-1,0.8-1.4,1.5
		c-0.4,0.7-0.6,1.7-0.6,3.1c0,0.3,0.2,0.5,0.5,0.5s0.5-0.2,0.5-0.5c0-1.3,0.2-2.1,0.5-2.6s0.7-0.8,1.1-1.1c0.4-0.3,0.9-0.6,1.3-1.1
		c0.4-0.5,0.7-1.3,0.7-2.3c0-1.1-0.5-2-1.3-2.6C125.4,450.3,124.4,450,123.3,450L123.3,450z M123.3,446.9c5.4,0,9.8,4.4,9.8,9.8
		s-4.4,9.8-9.8,9.8s-9.8-4.4-9.8-9.8S117.9,446.9,123.3,446.9z M123.3,445.9c-6,0-10.8,4.8-10.8,10.8c0,6,4.8,10.8,10.8,10.8
		c6,0,10.8-4.8,10.8-10.8C134.1,450.7,129.3,445.9,123.3,445.9z"/>
</g>
<rect x="184" y="485" fill="#C4C0C0" width="528" height="16"/>
<rect x="184" y="512" fill="#C4C0C0" width="528" height="16"/>
<rect x="552" y="512" fill="#0071BC" width="161" height="16"/>
<text transform="matrix(1 0 0 1 561.2221 523.5602)" fill="#E8E9EA" font-family="'ArialMT'" font-size="10">&gt;&gt; link to more details</text>
</svg>
