<?xml version="1.0" encoding="utf-8"?>
<!-- Generator: Adobe Illustrator 17.1.0, SVG Export Plug-In . SVG Version: 6.00 Build 0)  -->
<!DOCTYPE svg PUBLIC "-//W3C//DTD SVG 1.1//EN" "http://www.w3.org/Graphics/SVG/1.1/DTD/svg11.dtd">
<svg version="1.1" id="Layer_1" xmlns="http://www.w3.org/2000/svg" xmlns:xlink="http://www.w3.org/1999/xlink" x="0px" y="0px"
	 viewBox="0 0 850 566" enable-background="new 0 0 850 566" xml:space="preserve">
<text transform="matrix(1 0 0 1 42.2646 60.3037)" font-family="'ArialMT'" font-size="27.7885">OAuth 2.0 uses an access token from an authentication server</text>
<g>
	<path d="M157.8,275.7c0.2,0.2,0.2,0.5,0,0.7c-0.1,0.1-0.2,0.2-0.4,0.2c-0.1,0-0.3,0-0.4-0.2l-1.7-1.7l-1.7,1.7
		c-0.1,0.1-0.2,0.2-0.4,0.2c-0.1,0-0.3,0-0.4-0.2c-0.2-0.2-0.2-0.5,0-0.7l1.7-1.7l-1.7-1.7c-0.2-0.2-0.2-0.5,0-0.7
		c0.2-0.2,0.5-0.2,0.7,0l1.7,1.7l1.7-1.7c0.2-0.2,0.5-0.2,0.7,0c0.2,0.2,0.2,0.5,0,0.7l-1.7,1.7L157.8,275.7z M103.5,267.7v12.5
		h58.4v-12.5H103.5z"/>
	<rect x="135.8" y="293.7" width="9.4" height="3.1"/>
	<rect x="122.2" y="293.7" width="9.4" height="3.1"/>
	<path d="M153.5,286.6H115c-0.3,0-0.5-0.2-0.5-0.5c0-0.3,0.2-0.5,0.5-0.5h38.4c0.3,0,0.5,0.2,0.5,0.5
		C154,286.4,153.7,286.6,153.5,286.6z"/>
	<path d="M144.2,290.8h-21.9c-0.3,0-0.5-0.2-0.5-0.5c0-0.3,0.2-0.5,0.5-0.5h21.9c0.3,0,0.5,0.2,0.5,0.5
		C144.7,290.5,144.5,290.8,144.2,290.8z"/>
	<path d="M89.9,318.8h85.4v-64.6H89.9V318.8z M177.4,320.8H87.8v-68.8h89.6V320.8z"/>
	<path d="M89.9,252.1h85.4v-7.5c0-0.4-0.7-0.8-1.4-0.8H91.3c-0.7,0-1.4,0.4-1.4,0.8V252.1z M177.4,254.1H87.8v-9.6
		c0-1.8,1.8-2.9,3.5-2.9h82.6c1.7,0,3.5,1.1,3.5,2.9V254.1z"/>
	<path d="M96.9,247.7c0,2.1-3.2,2.1-3.2,0S96.9,245.5,96.9,247.7"/>
	<path d="M102.2,247.7c0,2.1-3.2,2.1-3.2,0S102.2,245.5,102.2,247.7"/>
	<path d="M107.4,247.7c0,2.1-3.2,2.1-3.2,0S107.4,245.5,107.4,247.7"/>
	<path d="M104.5,302.1h56.3v-21.9h-56.3V302.1z M161.8,303.1h-58.4v-24h58.4V303.1z"/>
</g>
<path d="M750.8,374.7c-1.9,0-3.4-1.5-3.4-3.4c0-1.9,1.5-3.4,3.4-3.4c1.9,0,3.4,1.5,3.4,3.4C754.2,373.2,752.7,374.7,750.8,374.7z
	 M733.7,375h-47.5v-7.4h47.5V375z M756.9,359.2h-75.4c-2.1,0-3.8,1.7-3.8,3.8v16.5c0,2.1,1.7,3.8,3.8,3.8h75.4
	c2.1,0,3.8-1.7,3.8-3.8V363C760.8,360.9,759,359.2,756.9,359.2z M750.8,430.6c-1.9,0-3.4-1.5-3.4-3.4c0-1.9,1.5-3.4,3.4-3.4
	c1.9,0,3.4,1.5,3.4,3.4C754.2,429.1,752.7,430.6,750.8,430.6z M733.7,430.8h-47.5v-7.4h47.5V430.8z M756.9,415.1h-75.4
	c-2.1,0-3.8,1.7-3.8,3.8v16.5c0,2.1,1.7,3.8,3.8,3.8h75.4c2.1,0,3.8-1.7,3.8-3.8v-16.5C760.8,416.8,759,415.1,756.9,415.1z
	 M750.8,402.9c-1.9,0-3.4-1.5-3.4-3.4c0-1.9,1.5-3.4,3.4-3.4c1.9,0,3.4,1.5,3.4,3.4S752.7,402.9,750.8,402.9z M733.7,403.2h-47.5
	v-7.4h47.5V403.2z M756.9,387.5h-75.4c-2.1,0-3.8,1.7-3.8,3.8v16.5c0,2.1,1.7,3.8,3.8,3.8h75.4c2.1,0,3.8-1.7,3.8-3.8v-16.5
	C760.8,389.2,759,387.5,756.9,387.5z"/>
<g>
	<g>
		<line fill="none" stroke="#999999" stroke-width="1.3894" stroke-miterlimit="10" x1="381.3" y1="151.2" x2="378.7" y2="152.2"/>
		
			<line fill="none" stroke="#999999" stroke-width="1.3894" stroke-miterlimit="10" stroke-dasharray="5.6121,5.6121" x1="373.4" y1="154.1" x2="186.2" y2="222.3"/>
		<line fill="none" stroke="#999999" stroke-width="1.3894" stroke-miterlimit="10" x1="183.6" y1="223.3" x2="181" y2="224.3"/>
		<g>
			<path fill="#999999" d="M173.1,227.1c3.2-2.7,6.9-6.8,8.9-10.3l0,7l4.5,5.4C182.7,227.8,177.3,227.1,173.1,227.1z"/>
		</g>
	</g>
</g>
<g>
	<g>
		<line fill="none" stroke="#999999" stroke-width="1.3894" stroke-miterlimit="10" x1="469.3" y1="167.9" x2="471.4" y2="169.7"/>
		
			<line fill="none" stroke="#999999" stroke-width="1.3894" stroke-miterlimit="10" stroke-dasharray="5.447,5.447" x1="475.4" y1="173.4" x2="660" y2="338.8"/>
		<line fill="none" stroke="#999999" stroke-width="1.3894" stroke-miterlimit="10" x1="662" y1="340.6" x2="664.1" y2="342.4"/>
		<g>
			<path fill="#999999" d="M670.4,348c-3.9-1.5-9.2-2.9-13.3-3l6.2-3.3l2.6-6.5C666.4,339.2,668.4,344.3,670.4,348z"/>
		</g>
	</g>
</g>
<text transform="matrix(1 0 0 1 56.1836 516.3906)"><tspan x="0" y="0" font-family="'ArialMT'" font-size="22.2308">Authentication </tspan><tspan x="42.7" y="26.7" font-family="'ArialMT'" font-size="22.2308">server</tspan></text>
<path fill="#539153" d="M297.9,243.6h4.1c0.5,0,0.9,0.4,0.9,0.9c0,0.5-0.4,0.9-0.9,0.9h-4.1c-0.5,0-0.9-0.4-0.9-0.9
	C297,244,297.4,243.6,297.9,243.6z M287.3,239.6c-1.1,0-2,0.9-2,1.9c0,1.1,0.9,1.9,2,1.9c1.1,0,2-0.9,2-1.9
	C289.2,240.5,288.4,239.6,287.3,239.6z M287.3,237.8c1.8,0,3.2,1.2,3.6,2.8h11c0.5,0,0.9,0.4,0.9,0.9c0,0.5-0.4,0.9-0.9,0.9h-11
	c-0.4,1.6-1.9,2.8-3.6,2.8c-2.1,0-3.8-1.7-3.8-3.8C283.5,239.5,285.2,237.8,287.3,237.8z M293.3,222.3L293.3,222.3
	c-0.3,0-0.6,0.2-0.7,0.4c-1.7,2.4-6.9,4.4-12.9,4.5c0,0,0,0,0,0c0,0-0.1,0-0.1,0c-0.4,0-0.8,0.3-0.9,0.7c0,0-0.9,4.1-1.4,9
	c-0.5,4.9-0.6,10.7,1.4,14.5c1.5,2.8,5,5,8.2,6.8c2.9,1.6,5.3,2.5,5.7,2.7c0.2,0.1,0.4,0.2,0.6,0.2c0.2,0,0.4-0.1,0.6-0.2h0
	c0.4-0.2,2.8-1.1,5.7-2.7c3.2-1.7,6.7-4,8.2-6.8c2-3.7,1.9-9.5,1.4-14.5c-0.5-4.9-1.4-9-1.4-9c-0.1-0.4-0.5-0.7-0.9-0.7
	c0,0-0.1,0-0.1,0c-5.8,0-10.8-2-12.6-4.3C294.1,222.5,293.7,222.3,293.3,222.3L293.3,222.3z"/>
<path fill="#539153" d="M589.6,233.7h4.1c0.5,0,0.9,0.4,0.9,0.9s-0.4,0.9-0.9,0.9h-4.1c-0.5,0-0.9-0.4-0.9-0.9
	S589.1,233.7,589.6,233.7z M578.9,229.7c-1.1,0-2,0.9-2,1.9c0,1.1,0.9,1.9,2,1.9c1.1,0,2-0.9,2-1.9
	C580.9,230.6,580,229.7,578.9,229.7z M578.9,227.9c1.8,0,3.2,1.2,3.6,2.8h11c0.5,0,0.9,0.4,0.9,0.9c0,0.5-0.4,0.9-0.9,0.9h-11
	c-0.4,1.6-1.9,2.8-3.6,2.8c-2.1,0-3.8-1.7-3.8-3.8C575.2,229.6,576.9,227.9,578.9,227.9z M585,212.4L585,212.4
	c-0.3,0-0.6,0.2-0.7,0.4c-1.7,2.4-6.9,4.4-12.9,4.5c0,0,0,0,0,0c0,0-0.1,0-0.1,0c-0.4,0-0.8,0.3-0.9,0.7c0,0-0.9,4.1-1.4,9
	c-0.5,4.9-0.6,10.7,1.4,14.5c1.5,2.8,5,5,8.2,6.8c2.9,1.6,5.3,2.5,5.7,2.7c0.2,0.1,0.4,0.2,0.6,0.2c0.2,0,0.4-0.1,0.6-0.2h0
	c0.4-0.2,2.8-1.1,5.7-2.7c3.2-1.7,6.7-4,8.2-6.8c2-3.7,1.9-9.5,1.4-14.5c-0.5-4.9-1.4-9-1.4-9c-0.1-0.4-0.5-0.7-0.9-0.7
	c0,0,0,0-0.1,0c-5.8,0-10.8-2-12.6-4.3C585.7,212.6,585.4,212.4,585,212.4L585,212.4z"/>
<line x1="210" y1="394.5" x2="220.4" y2="394.5"/>
<g>
	<g>
		<line fill="none" stroke="#999999" stroke-miterlimit="10" stroke-dasharray="6,6" x1="114.5" y1="351" x2="114.5" y2="391"/>
		<g>
			<path fill="#999999" d="M114.8,399.9c-1.5-3.9-4-8.8-6.6-11.9l6.6,2.4l6.6-2.4C118.8,391,116.3,395.9,114.8,399.9z"/>
		</g>
	</g>
</g>
<g>
	<g>
		<line fill="none" stroke="#999999" stroke-miterlimit="10" stroke-dasharray="6,6" x1="139.5" y1="360" x2="139.5" y2="400"/>
		<g>
			<path fill="#999999" d="M139.9,351.2c-1.5,3.9-4,8.8-6.6,11.9l6.6-2.4l6.6,2.4C143.8,360.1,141.3,355.2,139.9,351.2z"/>
		</g>
	</g>
</g>
<g>
	<g>
		<line fill="none" stroke="#999999" stroke-width="1.3894" stroke-miterlimit="10" x1="189.8" y1="250.7" x2="192.4" y2="249.8"/>
		
			<line fill="none" stroke="#999999" stroke-width="1.3894" stroke-miterlimit="10" stroke-dasharray="5.6121,5.6121" x1="197.6" y1="247.9" x2="384.8" y2="179.6"/>
		<line fill="none" stroke="#999999" stroke-width="1.3894" stroke-miterlimit="10" x1="387.4" y1="178.7" x2="390.1" y2="177.7"/>
		<g>
			<path fill="#999999" d="M397.9,174.8c-3.2,2.7-6.9,6.8-8.9,10.3l0-7l-4.5-5.4C388.3,174.1,393.7,174.8,397.9,174.8z"/>
		</g>
	</g>
</g>
<path fill="#707270" d="M156.8,425.1c-1.9,0-3.4-1.5-3.4-3.4c0-1.9,1.5-3.4,3.4-3.4c1.9,0,3.4,1.5,3.4,3.4
	C160.2,423.5,158.7,425.1,156.8,425.1z M139.7,425.3H92.3V418h47.5V425.3z M162.9,409.6H87.6c-2.1,0-3.8,1.7-3.8,3.8v16.5
	c0,2.1,1.7,3.8,3.8,3.8h75.4c2.1,0,3.8-1.7,3.8-3.8v-16.5C166.7,411.3,165,409.6,162.9,409.6z M156.8,480.9c-1.9,0-3.4-1.5-3.4-3.4
	c0-1.9,1.5-3.4,3.4-3.4c1.9,0,3.4,1.5,3.4,3.4C160.2,479.4,158.7,480.9,156.8,480.9z M139.7,481.2H92.3v-7.4h47.5V481.2z
	 M162.9,465.5H87.6c-2.1,0-3.8,1.7-3.8,3.8v16.5c0,2.1,1.7,3.8,3.8,3.8h75.4c2.1,0,3.8-1.7,3.8-3.8v-16.5
	C166.7,467.2,165,465.5,162.9,465.5z M156.8,453.3c-1.9,0-3.4-1.5-3.4-3.4c0-1.9,1.5-3.4,3.4-3.4c1.9,0,3.4,1.5,3.4,3.4
	C160.2,451.7,158.7,453.3,156.8,453.3z M139.7,453.5H92.3v-7.4h47.5V453.5z M162.9,437.8H87.6c-2.1,0-3.8,1.7-3.8,3.8v16.5
	c0,2.1,1.7,3.8,3.8,3.8h75.4c2.1,0,3.8-1.7,3.8-3.8v-16.5C166.7,439.5,165,437.8,162.9,437.8z"/>
<text transform="matrix(1 0 0 1 675.2725 471.9287)"><tspan x="0" y="0" font-family="'ArialMT'" font-size="22.2308">Resource </tspan><tspan x="-8.6" y="26.7" font-family="'ArialMT'" font-size="22.2308">server (API)</tspan></text>
<rect x="250.6" y="268.2" fill="none" width="117.6" height="24.1"/>
<text transform="matrix(1 0 0 1 250.6199 280.0919)" font-family="'ArialMT'" font-size="16.6731">access token</text>
<path d="M449.8,139.8c-1.9,0.8-4-0.1-4.8-2c-0.8-1.9,0.1-4,2-4.8c1.9-0.8,4,0.1,4.8,2C452.5,136.9,451.7,139,449.8,139.8z
	 M455.5,131.5l-1.2,0.5c-0.4-0.6-0.9-1-1.5-1.4l0.5-1.2c0.2-0.4,0-0.8-0.4-1l-2-0.8c-0.4-0.2-0.8,0-1,0.4l-0.5,1.2
	c-0.7-0.1-1.4-0.1-2,0l-0.5-1.2c-0.2-0.4-0.6-0.6-1-0.4l-2,0.8c-0.4,0.2-0.5,0.6-0.4,1l0.5,1.2c-0.6,0.4-1,0.9-1.4,1.4l-1.2-0.5
	c-0.4-0.2-0.8,0-1,0.4l-0.8,2c-0.2,0.4,0,0.8,0.4,1l1.2,0.5c-0.1,0.7-0.1,1.4,0,2l-1.2,0.5c-0.4,0.2-0.6,0.6-0.4,1l0.8,2
	c0.2,0.4,0.6,0.5,1,0.4l1.2-0.5c0.4,0.6,0.9,1,1.4,1.4l-0.5,1.2c-0.2,0.4,0,0.8,0.4,1l2,0.8c0.4,0.2,0.8,0,1-0.4l0.5-1.2
	c0.7,0.1,1.4,0.1,2,0l0.5,1.2c0.2,0.4,0.6,0.6,0.9,0.4l2-0.8c0.4-0.2,0.5-0.6,0.4-1l-0.5-1.2c0.5-0.4,1-0.9,1.4-1.4l1.2,0.5
	c0.4,0.2,0.8,0,1-0.4l0.8-2c0.2-0.4,0-0.8-0.4-1l-1.2-0.5c0.1-0.7,0.1-1.4,0-2l1.2-0.5c0.4-0.2,0.6-0.6,0.4-1l-0.8-2
	C456.3,131.5,455.8,131.3,455.5,131.5z"/>
<path d="M432.9,170.3c-1.3,0-2.4-1.1-2.4-2.4s1.1-2.4,2.4-2.4c1.3,0,2.4,1.1,2.4,2.4S434.3,170.3,432.9,170.3z M430.7,117.7h4.9
	c0.3,0,0.6,0.3,0.6,0.6c0,0.3-0.3,0.6-0.6,0.6h-4.9c-0.3,0-0.6-0.3-0.6-0.6C430.1,118,430.4,117.7,430.7,117.7z M446.6,147.3v16.2
	h-26.9v-40.9h26.9v2.9h3.1v-8.4c0-2.7-2.2-4.9-4.9-4.9h-23.2c-2.7,0-4.9,2.2-4.9,4.9v51.3c0,2.7,2.2,4.9,4.9,4.9h23.2
	c2.7,0,4.9-2.2,4.9-4.9v-21.1H446.6z"/>
<rect x="399" y="127.8" width="14.6" height="3.1"/>
<rect x="402.7" y="133.9" width="11" height="3.1"/>
<rect x="410" y="140" width="3.7" height="3.1"/>
<text transform="matrix(0.9406 -0.3394 0.3394 0.9406 198.2723 202.3499)" font-family="'ArialMT'" font-size="16.6731">application key + secret</text>
<text transform="matrix(1 0 0 1 107.9307 339.0752)" font-family="'ArialMT'" font-size="16.6731">login</text>
<text transform="matrix(1 0 0 1 414.5518 206.5488)" font-family="'ArialMT'" font-size="22.2308">App</text>
</svg>
