<?xml version="1.0" encoding="utf-8"?>
<!-- Generator: Adobe Illustrator 17.1.0, SVG Export Plug-In . SVG Version: 6.00 Build 0)  -->
<!DOCTYPE svg PUBLIC "-//W3C//DTD SVG 1.1//EN" "http://www.w3.org/Graphics/SVG/1.1/DTD/svg11.dtd">
<svg version="1.1" id="Layer_1" xmlns="http://www.w3.org/2000/svg" xmlns:xlink="http://www.w3.org/1999/xlink" x="0px" y="0px"
	 viewBox="0 0 850 566" enable-background="new 0 0 850 566" xml:space="preserve">
<path fill="#E5E3E1" stroke="#AEAEAE" stroke-miterlimit="10" d="M334,416.5h435c0,0,10.7,23.4-45.1,23.4s-358.9,2.3-363.9,0
	s-24.2-5.6-31.6-26.2"/>
<path d="M737,386.4c0,6.9-5.5,12.6-12.2,12.6H378.7c-6.8,0-12.7-5.7-12.7-12.6V197.5c0-6.9,5.9-12.5,12.7-12.5h346.1
	c6.8,0,12.2,5.6,12.2,12.5V386.4z"/>
<rect x="410" y="132" fill="#F9F9F9" width="283" height="134"/>
<path d="M679.9,91.8c0.4,0.4,1.1,0.8,1.9,0.8c0.8,0,1.5-0.4,1.9-0.8c1.1-1.1,1.1-3,0-3.8l-6.1-6.1c-1.1-1.1-3-1.1-3.8,0
	c-0.8,1.1-1.1,3,0,3.8L679.9,91.8z"/>
<path d="M699.7,112c0.4,0.4,1.1,0.8,1.9,0.8c0.8,0,1.5-0.4,1.9-0.8c1.1-1.1,1.1-3,0-3.8l-6.1-6.1c-1.1-1.1-3-1.1-3.8,0
	c-1.1,1.1-1.1,3,0,3.8L699.7,112z"/>
<path d="M675.7,112.8c0.8,0,1.5-0.4,1.9-0.8l6.1-6.1c1.1-1.1,1.1-3,0-3.8c-1.1-0.8-3-1.1-3.8,0l-6.1,5.7c-1.1,1.1-1.1,3,0,3.8
	C674.6,112.4,675,112.8,675.7,112.8L675.7,112.8z"/>
<path d="M695.9,92.6c0.8,0,1.5-0.4,1.9-0.8l6.1-6.1c1.1-1.1,1.1-3,0-3.8c-1.1-0.8-3-1.1-3.8,0L694,88c-1.1,1.1-1.1,3,0,3.8
	C694.4,92.6,695.1,92.6,695.9,92.6L695.9,92.6z"/>
<path d="M321.9,453.6c-1.1-1.1-3-1.1-3.8,0c-0.8,1.1-1.1,3,0,3.8l6.1,6.1c0.4,0.4,1.1,0.8,1.9,0.8c0.8,0,1.5-0.4,1.9-0.8
	c1.1-1.1,1.1-3,0-3.8L321.9,453.6z"/>
<path d="M341.7,473.8c-1.1-1.1-3-1.1-3.8,0c-1.1,1.1-1.1,3,0,3.8l6.1,6.1c0.4,0.4,1.1,0.8,1.9,0.8s1.5-0.4,1.9-0.8
	c1.1-1.1,1.1-3,0-3.8L341.7,473.8z"/>
<path d="M323.8,473.8l-6.1,6.1c-1.1,1.1-1.1,3,0,3.8c0.8,0.8,1.5,0.8,1.9,0.8c0.4,0,1.5-0.4,1.9-0.8l6.1-6.1c1.1-1.1,1.1-3,0-3.8
	C326.9,472.6,325,472.6,323.8,473.8L323.8,473.8z"/>
<path d="M344,453.6l-6.1,6.1c-1.1,1.1-1.1,3,0,3.8c0.4,0.4,1.1,0.8,1.9,0.8c0.8,0,1.5-0.4,1.9-0.8l6.1-6.1c1.1-1.1,1.1-3,0-3.8
	S345.1,452.9,344,453.6L344,453.6z"/>
<path d="M761.3,290c0.4,0.4,1.1,0.8,1.9,0.8c0.8,0,1.5-0.4,1.9-0.8c1.1-1.1,1.1-3,0-3.8l-6.1-6.1c-1.1-1.1-3-1.1-3.8,0
	c-1.1,1.1-1.1,3,0,3.8L761.3,290z"/>
<path d="M781.1,309.8c0.4,0.4,1.1,0.8,1.9,0.8c0.8,0,1.5-0.4,1.9-0.8c1.1-1.1,1.1-3,0-3.8l-6.1-6.1c-1.1-1.1-3-1.1-3.8,0
	c-1.1,1.1-1.1,3,0,3.8L781.1,309.8z"/>
<path d="M757.1,311c0.8,0,1.5-0.4,1.9-0.8l6.1-6.1c1.1-1.1,1.1-3,0-3.8c-1.1-1.1-3-1.1-3.8,0l-6.1,6.1c-1.1,1.1-1.1,3,0,3.8
	C756,310.6,756.4,311,757.1,311L757.1,311z"/>
<path d="M777.3,290.8c0.8,0,1.5-0.4,1.9-0.8l6.1-6.1c1.1-1.1,1.1-3,0-3.8c-1.1-0.8-3-1.1-3.8,0l-6.1,6.1c-1.1,1.1-1.1,3,0,3.8
	C775.8,290.8,776.5,290.8,777.3,290.8L777.3,290.8z"/>
<path d="M322.3,190c1.5,0,2.7-1.1,2.7-2.7v-45.3c0-1.5-1.1-2.7-2.7-2.7s-2.7,1.1-2.7,2.7v44.9C319.6,188.5,320.8,190,322.3,190
	L322.3,190z"/>
<path d="M322.3,227.3c1.5,0,2.7-1.1,2.7-2.7v-16c0-1.5-1.1-2.7-2.7-2.7s-2.7,1.1-2.7,2.7v16C319.6,225.7,320.8,227.3,322.3,227.3z"
	/>
<path d="M768.6,128c1.5,0,2.7-1.1,2.7-2.7V80c0-1.5-1.1-2.7-2.7-2.7s-2.7,1.1-2.7,2.7v44.9C765.9,126.8,767,128,768.6,128L768.6,128
	z"/>
<path d="M768.6,165.3c1.5,0,2.7-1.1,2.7-2.7v-16c0-1.5-1.1-2.7-2.7-2.7s-2.7,1.1-2.7,2.7v16C765.9,164.1,767,165.3,768.6,165.3z"/>
<path d="M541.1,83.1c4.2,0,7.6,3.4,7.6,7.6c0,4.2-3.4,7.6-7.6,7.6c-4.2,0-7.6-3.4-7.6-7.6C533.4,86.5,536.5,83.1,541.1,83.1z
	 M541.1,104c7.2,0,13.3-6.1,13.3-13.3c0-7.2-6.1-13.3-13.3-13.3s-13.3,6.1-13.3,13.3C527.7,97.9,533.4,104,541.1,104z"/>
<path d="M609.9,478c-4.2,0-7.6-3.4-7.6-7.6s3.4-7.6,7.6-7.6c4.2,0,7.6,3.4,7.6,7.6S614.1,478,609.9,478z M609.9,457.1
	c-7.2,0-13.3,6.1-13.3,13.3s6.1,13.3,13.3,13.3s13.3-6.1,13.3-13.3S617.5,457.1,609.9,457.1z"/>
<path d="M314.7,344.8c0-4.2,3.4-7.6,7.6-7.6s7.6,3.4,7.6,7.6s-3.4,7.6-7.6,7.6S314.7,349,314.7,344.8z M335.6,344.8
	c0-7.2-6.1-13.3-13.3-13.3s-13.3,6.1-13.3,13.3s6.1,13.3,13.3,13.3S335.6,352.1,335.6,344.8z"/>
<path d="M373.7,83.8c0,1.5,1.1,2.7,2.7,2.7h59c1.5,0,2.7-1.1,2.7-2.7c0-1.5-1.1-2.7-2.7-2.7h-58.6C375.2,81.2,373.7,82.3,373.7,83.8
	L373.7,83.8z"/>
<path d="M338.3,86.5h19c1.5,0,2.7-1.1,2.7-2.7s-1.1-2.7-2.7-2.7h-19c-1.5,0-2.7,1.1-2.7,2.7C335.2,85.4,336.8,86.5,338.3,86.5z"/>
<path d="M338.3,66.3h41.1c1.5,0,2.7-1.1,2.7-2.7c0-1.5-1.1-2.7-2.7-2.7h-41.1c-1.5-0.4-3,1.1-3,2.7
	C335.2,65.2,336.8,66.3,338.3,66.3z"/>
<path d="M396.9,66.3h13.3c1.5,0,2.7-1.1,2.7-2.7c0-1.5-1.1-2.7-2.7-2.7h-13.3c-1.5,0-2.7,1.1-2.7,2.7
	C394.2,65.2,395.4,66.3,396.9,66.3z"/>
<path d="M753.7,466.6c0-1.5-1.1-2.7-2.7-2.7h-59c-1.5,0-2.7,1.1-2.7,2.7s1.1,2.7,2.7,2.7h59C752.6,469.2,753.7,468.1,753.7,466.6z"
	/>
<path d="M767.4,466.6c0,1.5,1.1,2.7,2.7,2.7h19c1.5,0,2.7-1.1,2.7-2.7s-1.1-2.7-2.7-2.7h-19C768.6,463.9,767.4,465,767.4,466.6z"/>
<path d="M789.5,484.1h-41.1c-1.5,0-2.7,1.1-2.7,2.7s1.1,2.7,2.7,2.7h41.1c1.5,0,2.7-1.1,2.7-2.7S791,484.1,789.5,484.1z"/>
<path d="M730.5,484.1h-13.3c-1.5,0-2.7,1.1-2.7,2.7s1.1,2.7,2.7,2.7h13.3c1.5,0,2.7-1.1,2.7-2.7S732,484.1,730.5,484.1z"/>
<path d="M337.5,422.8l-3.8-6.1h435.2l-3.8,6.1c-6.5,10.7-18.3,17.1-30.4,17.1H368C355.8,440.3,344,433.5,337.5,422.8L337.5,422.8z
	 M770.5,425.9l4.2-7.2c0.8-1.5,0.8-3.4,0-4.9c-0.8-1.5-2.7-2.7-4.2-2.7H332.6c-1.9,0-3.4,1.1-4.2,2.7s-0.8,3.4,0,4.9l4.2,7.2
	c7.2,12.2,20.9,19.8,35.4,19.8h367.1C749.2,445.6,762.8,438,770.5,425.9L770.5,425.9z"/>
<path fill="#F7F7F7" d="M594.7,304.9c-1.1-0.8-3-0.4-3.8,0.8c-0.8,1.1-0.4,3,0.8,3.8l36.5,22.8l-36.5,22.8c-1.1,0.8-1.9,2.7-0.8,3.8
	c0.4,0.8,1.5,1.1,2.3,1.1c0.4,0,1.1,0,1.5-0.4l40.3-25.1c0.8-0.4,1.1-1.5,1.1-2.3s-0.4-1.9-1.1-2.3L594.7,304.9z"/>
<path fill="#F7F7F7" d="M512.1,305.6c-0.8-1.1-2.7-1.9-3.8-0.8L468,330c-0.8,0.4-1.1,1.5-1.1,2.3s0.4,1.9,1.1,2.3l40.3,25.1
	c0.4,0.4,1.1,0.4,1.5,0.4c0.8,0,1.9-0.4,2.3-1.1c0.8-1.1,0.4-3-0.8-3.8l-36.9-22.8l36.5-22.8C512.5,308.7,512.9,307.2,512.1,305.6
	L512.1,305.6z"/>
<path fill="#F7F7F7" d="M566.9,291.2c-1.5-0.4-3,0-3.4,1.5l-28.9,75.7c-0.4,1.5,0,3,1.5,3.4h1.1c1.1,0,2.3-0.8,2.7-1.9l28.9-75.7
	C569.2,293.1,568.4,291.6,566.9,291.2L566.9,291.2z"/>
<path d="M415.5,134.8h272v128.6h-272V134.8z M716.4,185.8c8,0,14.8,6.5,14.8,14.8v193.3H372.1V200.6c0-8,6.5-14.8,14.8-14.8h22.8
	v79.9c0,1.5,1.1,2.7,2.7,2.7h277.7c1.5,0,2.7-1.1,2.7-2.7v-79.9H716.4z M409.8,131.8v48.3h-23.2c-11,0-20.2,9.1-20.2,20.2v195.9
	c0,1.5,1.1,2.7,2.7,2.7h364.5c1.5,0,2.7-1.1,2.7-2.7V200.6c0-11-9.1-20.2-20.2-20.2h-23.2v-48.7c0-1.5-1.1-2.7-2.7-2.7H412.5
	C411,129.1,409.8,130.3,409.8,131.8L409.8,131.8z"/>
<path d="M431.5,150.8h15.6v10.3h-15.6V150.8z M428.8,166.8h21.3c1.5,0,2.7-1.1,2.7-2.7v-15.6c0-1.5-1.1-2.7-2.7-2.7h-21.3
	c-1.5,0-2.7,1.1-2.7,2.7v15.6C426.2,165.3,427.3,166.8,428.8,166.8z"/>
<path d="M468.8,150.8h15.6v10.3h-15.6V150.8z M466.1,166.8h21.3c1.5,0,2.7-1.1,2.7-2.7v-15.6c0-1.5-1.1-2.7-2.7-2.7h-21.3
	c-1.5,0-2.7,1.1-2.7,2.7v15.6C463.4,165.3,464.6,166.8,466.1,166.8z"/>
<path d="M506.4,150.8H522v10.3h-15.6V150.8z M503.4,166.8h21.3c1.5,0,2.7-1.1,2.7-2.7v-15.6c0-1.5-1.1-2.7-2.7-2.7h-21.3
	c-1.5,0-2.7,1.1-2.7,2.7v15.6C500.7,165.3,501.9,166.8,503.4,166.8z"/>
<path d="M543.7,150.8h15.6v10.3h-15.6V150.8z M541.1,166.8H562c1.5,0,2.7-1.1,2.7-2.7v-15.6c0-1.5-1.1-2.7-2.7-2.7h-21.3
	c-1.5,0-2.7,1.1-2.7,2.7v15.6C538,165.3,539.2,166.8,541.1,166.8L541.1,166.8z"/>
<path d="M581,150.8h15.6v10.3H581V150.8z M578.3,166.8h21.3c1.5,0,2.7-1.1,2.7-2.7v-15.6c0-1.5-1.1-2.7-2.7-2.7h-21.3
	c-1.5,0-2.7,1.1-2.7,2.7v15.6C575.3,165.3,576.8,166.8,578.3,166.8z"/>
<path d="M618.3,150.8h15.6v10.3h-15.6V150.8z M615.6,166.8h21.3c1.5,0,2.7-1.1,2.7-2.7v-15.6c0-1.5-1.1-2.7-2.7-2.7h-21.3
	c-1.5,0-2.7,1.1-2.7,2.7v15.6C613,165.3,614.1,166.8,615.6,166.8z"/>
<path d="M655.9,150.8h15.6v10.3h-15.6V150.8z M652.9,166.8h21.3c1.5,0,2.7-1.1,2.7-2.7v-15.6c0-1.5-1.1-2.7-2.7-2.7h-21.3
	c-1.5,0-2.7,1.1-2.7,2.7v15.6C650.2,165.3,651.4,166.8,652.9,166.8z"/>
<path d="M431.5,179.7h15.6V190h-15.6V179.7z M428.8,195.3h21.3c1.5,0,2.7-1.1,2.7-2.7v-15.6c0-1.5-1.1-2.7-2.7-2.7h-21.3
	c-1.5,0-2.7,1.1-2.7,2.7v15.6C426.2,194.2,427.3,195.3,428.8,195.3z"/>
<path d="M468.8,179.7h15.6V190h-15.6V179.7z M466.1,195.3h21.3c1.5,0,2.7-1.1,2.7-2.7v-15.6c0-1.5-1.1-2.7-2.7-2.7h-21.3
	c-1.5,0-2.7,1.1-2.7,2.7v15.6C463.4,194.2,464.6,195.3,466.1,195.3z"/>
<path d="M506.4,179.7H522V190h-15.6V179.7z M503.4,195.3h21.3c1.5,0,2.7-1.1,2.7-2.7v-15.6c0-1.5-1.1-2.7-2.7-2.7h-21.3
	c-1.5,0-2.7,1.1-2.7,2.7v15.6C500.7,194.2,501.9,195.3,503.4,195.3z"/>
<path d="M543.7,179.7h15.6V190h-15.6V179.7z M541.1,195.3H562c1.5,0,2.7-1.1,2.7-2.7v-15.6c0-1.5-1.1-2.7-2.7-2.7h-21.3
	c-1.5,0-2.7,1.1-2.7,2.7v15.6C538,194.2,539.2,195.3,541.1,195.3L541.1,195.3z"/>
<path d="M581,179.7h15.6V190H581V179.7z M578.3,195.3h21.3c1.5,0,2.7-1.1,2.7-2.7v-15.6c0-1.5-1.1-2.7-2.7-2.7h-21.3
	c-1.5,0-2.7,1.1-2.7,2.7v15.6C575.3,194.2,576.8,195.3,578.3,195.3z"/>
<path d="M618.3,179.7h15.6V190h-15.6V179.7z M615.6,195.3h21.3c1.5,0,2.7-1.1,2.7-2.7v-15.6c0-1.5-1.1-2.7-2.7-2.7h-21.3
	c-1.5,0-2.7,1.1-2.7,2.7v15.6C613,194.2,614.1,195.3,615.6,195.3z"/>
<path d="M655.9,179.7h15.6V190h-15.6V179.7z M652.9,195.3h21.3c1.5,0,2.7-1.1,2.7-2.7v-15.6c0-1.5-1.1-2.7-2.7-2.7h-21.3
	c-1.5,0-2.7,1.1-2.7,2.7v15.6C650.2,194.2,651.4,195.3,652.9,195.3z"/>
<path d="M431.5,208.2h15.6v10.3h-15.6V208.2z M428.8,223.8h21.3c1.5,0,2.7-1.1,2.7-2.7v-15.6c0-1.5-1.1-2.7-2.7-2.7h-21.3
	c-1.5,0-2.7,1.1-2.7,2.7v15.6C426.2,222.7,427.3,223.8,428.8,223.8z"/>
<path d="M468.8,208.2h15.6v10.3h-15.6V208.2z M466.1,223.8h21.3c1.5,0,2.7-1.1,2.7-2.7v-15.6c0-1.5-1.1-2.7-2.7-2.7h-21.3
	c-1.5,0-2.7,1.1-2.7,2.7v15.6C463.4,222.7,464.6,223.8,466.1,223.8z"/>
<path d="M506.4,208.2H522v10.3h-15.6V208.2z M503.4,223.8h21.3c1.5,0,2.7-1.1,2.7-2.7v-15.6c0-1.5-1.1-2.7-2.7-2.7h-21.3
	c-1.5,0-2.7,1.1-2.7,2.7v15.6C500.7,222.7,501.9,223.8,503.4,223.8z"/>
<path d="M543.7,208.2h15.6v10.3h-15.6V208.2z M541.1,223.8H562c1.5,0,2.7-1.1,2.7-2.7v-15.6c0-1.5-1.1-2.7-2.7-2.7h-21.3
	c-1.5,0-2.7,1.1-2.7,2.7v15.6C538,222.7,539.2,223.8,541.1,223.8L541.1,223.8z"/>
<path d="M581,208.2h15.6v10.3H581V208.2z M578.3,223.8h21.3c1.5,0,2.7-1.1,2.7-2.7v-15.6c0-1.5-1.1-2.7-2.7-2.7h-21.3
	c-1.5,0-2.7,1.1-2.7,2.7v15.6C575.3,222.7,576.8,223.8,578.3,223.8z"/>
<path d="M618.3,208.2h15.6v10.3h-15.6V208.2z M615.6,223.8h21.3c1.5,0,2.7-1.1,2.7-2.7v-15.6c0-1.5-1.1-2.7-2.7-2.7h-21.3
	c-1.5,0-2.7,1.1-2.7,2.7v15.6C613,222.7,614.1,223.8,615.6,223.8z"/>
<path d="M655.9,208.2h15.6v10.3h-15.6V208.2z M652.9,223.8h21.3c1.5,0,2.7-1.1,2.7-2.7v-15.6c0-1.5-1.1-2.7-2.7-2.7h-21.3
	c-1.5,0-2.7,1.1-2.7,2.7v15.6C650.2,222.7,651.4,223.8,652.9,223.8z"/>
<path d="M431.5,236.8h15.6v10.3h-15.6V236.8z M428.8,252.8h21.3c1.5,0,2.7-1.1,2.7-2.7v-15.6c0-1.5-1.1-2.7-2.7-2.7h-21.3
	c-1.5,0-2.7,1.1-2.7,2.7v15.6C426.2,251.2,427.3,252.8,428.8,252.8z"/>
<path d="M468.8,236.8h90.5v10.3h-90.5V236.8z M466.1,252.8H562c1.5,0,2.7-1.1,2.7-2.7v-15.6c0-1.5-1.1-2.7-2.7-2.7h-95.9
	c-1.5,0-2.7,1.1-2.7,2.7v15.6C463.4,251.2,464.6,252.8,466.1,252.8z"/>
<path d="M581,236.8h15.6v10.3H581V236.8z M578.3,252.8h21.3c1.5,0,2.7-1.1,2.7-2.7v-15.6c0-1.5-1.1-2.7-2.7-2.7h-21.3
	c-1.5,0-2.7,1.1-2.7,2.7v15.6C575.3,251.2,576.8,252.8,578.3,252.8z"/>
<path d="M618.3,236.8h15.6v10.3h-15.6V236.8z M615.6,252.8h21.3c1.5,0,2.7-1.1,2.7-2.7v-15.6c0-1.5-1.1-2.7-2.7-2.7h-21.3
	c-1.5,0-2.7,1.1-2.7,2.7v15.6C613,251.2,614.1,252.8,615.6,252.8z"/>
<path d="M655.9,236.8h15.6v10.3h-15.6V236.8z M652.9,252.8h21.3c1.5,0,2.7-1.1,2.7-2.7v-15.6c0-1.5-1.1-2.7-2.7-2.7h-21.3
	c-1.5,0-2.7,1.1-2.7,2.7v15.6C650.2,251.2,651.4,252.8,652.9,252.8z"/>
<text transform="matrix(0.8542 0 0 1 16.8628 190.8896)"><tspan x="0" y="0" font-family="'Arial-BoldMT'" font-size="18">Step 2. </tspan><tspan x="64" y="0" font-family="'ArialMT'" font-size="18">Construct the request</tspan></text>
<text transform="matrix(1 0 0 1 16.9282 360.7082)"><tspan x="0" y="0" font-family="'Arial-BoldMT'" font-size="18">Step 3.</tspan><tspan x="59" y="0" font-family="'ArialMT'" font-size="18"> Capture the response</tspan></text>
<text transform="matrix(1 0 0 1 16.9281 419.527)"><tspan x="0" y="0" font-family="'Arial-BoldMT'" font-size="18">Step 4.</tspan><tspan x="59" y="0" font-family="'ArialMT'" font-size="18"> Pass the response into</tspan><tspan x="0" y="26" font-family="'ArialMT'" font-size="18">this other endpoint</tspan></text>
<text transform="matrix(1 0 0 1 16.9283 509.3816)"><tspan x="0" y="0" font-family="'Arial-BoldMT'" font-size="18">Step 5.</tspan><tspan x="59" y="0" font-family="'ArialMT'" font-size="18"> Display the code on </tspan><tspan x="0" y="26" font-family="'ArialMT'" font-size="18">the page through ajax</tspan></text>
<text transform="matrix(1 0 0 1 16.9284 127.981)"><tspan x="0" y="0" font-family="'Arial-BoldMT'" font-size="18">Step 1. </tspan><tspan x="64" y="0" font-family="'ArialMT'" font-size="18">Configure the service</tspan></text>
<circle fill="#AFF2BD" cx="540.8" cy="90.5" r="10.5"/>
<circle fill="#AFF2BD" cx="609.8" cy="470.5" r="10.5"/>
<circle fill="#AFF2BD" cx="321.8" cy="344.5" r="10.5"/>
<rect x="431" y="151" fill="#AFF2BD" width="16" height="10"/>
<rect x="431" y="237" fill="#AFF2BD" width="16" height="10"/>
<rect x="431" y="180" fill="#AFF2BD" width="16" height="10"/>
<rect x="431" y="208" fill="#AFF2BD" width="16" height="10"/>
<rect x="469" y="151" fill="#AFF2BD" width="16" height="10"/>
<rect x="469" y="180" fill="#AFF2BD" width="16" height="10"/>
<rect x="469" y="208" fill="#AFF2BD" width="16" height="10"/>
<rect x="544" y="151" fill="#AFF2BD" width="16" height="10"/>
<rect x="544" y="180" fill="#AFF2BD" width="16" height="10"/>
<rect x="543" y="208" fill="#AFF2BD" width="16" height="10"/>
<rect x="506" y="151" fill="#AFF2BD" width="16" height="10"/>
<rect x="506" y="180" fill="#AFF2BD" width="16" height="10"/>
<rect x="506" y="208" fill="#AFF2BD" width="16" height="10"/>
<rect x="656" y="151" fill="#AFF2BD" width="16" height="10"/>
<rect x="618" y="151" fill="#AFF2BD" width="16" height="10"/>
<rect x="656" y="180" fill="#AFF2BD" width="16" height="10"/>
<rect x="618" y="180" fill="#AFF2BD" width="16" height="10"/>
<rect x="618" y="208" fill="#AFF2BD" width="16" height="10"/>
<rect x="656" y="208" fill="#AFF2BD" width="16" height="10"/>
<rect x="656" y="237" fill="#AFF2BD" width="16" height="10"/>
<rect x="618" y="237" fill="#AFF2BD" width="16" height="10"/>
<rect x="581" y="151" fill="#AFF2BD" width="16" height="10"/>
<rect x="581" y="180" fill="#AFF2BD" width="16" height="10"/>
<rect x="581" y="208" fill="#AFF2BD" width="16" height="10"/>
<rect x="581" y="237" fill="#AFF2BD" width="16" height="10"/>
<rect x="469" y="237" fill="#AFF2BD" width="90" height="10"/>
<path d="M45.9,219.1c0,4.4-3.4,8-7.7,8c-4.3,0-7.7-3.6-7.7-8c0-4.4,3.5-8,7.7-8C42.4,211.1,45.9,214.7,45.9,219.1"/>
<path d="M232.6,220.9c0,4.4-3.5,8-7.7,8c-4.3,0-7.7-3.6-7.7-8c0-4.4,3.4-8.1,7.7-8.1C229.1,212.8,232.6,216.5,232.6,220.9"/>
<path d="M45.9,302.3c0,4.4-3.4,8-7.7,8c-4.3,0-7.7-3.6-7.7-8c0-4.4,3.5-8.1,7.7-8.1C42.4,294.3,45.9,297.9,45.9,302.3"/>
<path d="M225,303.2l-9.2-10.8l2.9-2.7l6.5,7.6l14.1-14.2l2.7,2.9L225,303.2z M228.9,272.1c-10.5,0-19.1,8.9-19.1,19.9
	c0,11,8.5,19.9,19.1,19.9c10.5,0,19.1-8.9,19.1-19.9C248,281,239.4,272.1,228.9,272.1z"/>
<rect x="44.9" y="217.9" stroke="#050505" stroke-width="1.9278" stroke-miterlimit="10" width="165.4" height="2.3"/>
<polygon points="204.5,225.2 210.3,219.1 204.5,213.1 209.4,213.1 215.2,219.1 209.4,225.2 "/>
<polygon points="197.5,307 203.3,301 197.5,295 202.4,295 208.2,301 202.4,307 "/>
<polygon points="51.7,284.1 50,292.5 58,294.2 53.9,297 45.9,295.3 47.6,286.9 "/>
<line fill="none" stroke="#050505" stroke-width="3.8555" stroke-miterlimit="10" x1="50.1" y1="292" x2="221.8" y2="224.4"/>
<rect x="56.2" y="300" stroke="#050505" stroke-width="1.8199" stroke-miterlimit="10" width="147.4" height="2.3"/>
<text transform="matrix(1 0 0 1 16.863 86.9126)" font-family="'Arial-BoldMT'" font-size="24">Code Tutorial</text>
</svg>
