<?xml version="1.0" encoding="utf-8"?>
<!-- Generator: Adobe Illustrator 17.1.0, SVG Export Plug-In . SVG Version: 6.00 Build 0)  -->
<!DOCTYPE svg PUBLIC "-//W3C//DTD SVG 1.1//EN" "http://www.w3.org/Graphics/SVG/1.1/DTD/svg11.dtd">
<svg version="1.1" id="Layer_1" xmlns="http://www.w3.org/2000/svg" xmlns:xlink="http://www.w3.org/1999/xlink" x="0px" y="0px"
	 viewBox="0 0 850 566" enable-background="new 0 0 850 566" xml:space="preserve">
<rect x="41" y="23" fill="#7895A4" width="235" height="257"/>
<rect x="307" y="25" fill="#C6CDC7" width="233" height="259"/>
<rect x="573.5" y="26.5" fill="#B0A690" stroke="#B0A690" stroke-miterlimit="10" width="236" height="255"/>
<path d="M141.4,173.1c4.6,0,8.4,3.8,8.4,8.4c0,4.6-3.7,8.4-8.4,8.4c-4.6,0-8.4-3.7-8.4-8.4C133.1,176.9,136.8,173.1,141.4,173.1z
	 M188,80V45.2c0-1.8-0.8-3.4-2.1-4.5c-0.3-0.2-0.6-0.4-0.9-0.6c-0.8-0.4-1.8-0.7-2.8-0.7h-81.5c-3.2,0-5.8,2.6-5.8,5.8v145.4
	c0,3.2,2.6,5.8,5.8,5.8h81.5c3.2,0,5.8-2.6,5.8-5.8v-42.8h-8.2v20.2h-76.6V48.8h76.6V80L188,80z"/>
<path d="M158.5,108.4v26c0,2.3-1.8,4.1-4.1,4.1l-26,0c-2.3,0-4.1-1.9-4.1-4.1l0-26c0-2.3,1.9-4.1,4.1-4.1h26
	C156.7,104.3,158.5,106.1,158.5,108.4L158.5,108.4z"/>
<path d="M254.5,66.8v34.1c0,3-2.4,5.4-5.4,5.4l-17.8,0V91.1c0-6.1-5-11-11-11l-10.7,0V66.8c0-3,2.4-5.4,5.4-5.4h34.1
	C252.1,61.4,254.5,63.8,254.5,66.8L254.5,66.8z"/>
<path d="M227.5,91.1v35.3h-13c-4.4,0-7.9,3.6-7.9,7.9v9.7l-32,0c-4,0-7.2-3.2-7.2-7.2V91.1c0-4,3.2-7.2,7.2-7.2h45.7
	C224.3,83.9,227.5,87.1,227.5,91.1L227.5,91.1z"/>
<path d="M244.6,134.3v26c0,2.3-1.8,4.1-4.1,4.1l-26,0c-2.3,0-4.1-1.9-4.1-4.1v-26c0-2.3,1.8-4.1,4.1-4.1h26
	C242.8,130.2,244.6,132.1,244.6,134.3L244.6,134.3z"/>
<path d="M407.4,79.1c5.4,0,9.8,4.4,9.8,9.8c0,5.4-4.4,9.8-9.8,9.8c-5.4,0-9.8-4.4-9.8-9.8C397.6,83.5,402,79.1,407.4,79.1z
	 M382.9,93.8h5.2c1,0,2,0.6,2.3,1.4c0.3,0.8,0.6,3.3-0.1,4l-3.7,3.7c-0.7,0.7-0.8,1.9-0.1,2.7l4.3,4.3c0.4,0.3,0.8,0.4,1.3,0.4
	c0.5,0,1-0.2,1.4-0.6l3.7-3.7c0.5-0.5,1.2-0.8,1.9-0.8c0.3,0,0.5,0,0.7,0.2c0.7,0.4,2.8,1.9,2.8,2.9v5.2c0,1,0.8,1.9,1.8,2.1
	c0,0,1.4,0.2,3,0.2c1.7,0,3-0.2,3-0.2c1-0.1,1.8-1.1,1.8-2.1v-5.2c0-1,0.6-2,1.4-2.3c0.4-0.2,1.5-0.3,2.4-0.3c0.7,0,1.3,0.1,1.6,0.4
	l3.7,3.7c0.4,0.4,0.9,0.6,1.4,0.6c0.5,0,0.9-0.1,1.3-0.4l2.5-2.5c0.5-0.8,1.1-1.5,1.9-2c0,0,0.1-0.1,0.1-0.1c0,0,0-0.1,0-0.1
	c-0.2-0.6-0.2-1.3-0.1-2c-0.1-0.1-0.1-0.2-0.2-0.4l-3.7-3.7c-0.7-0.7-1-1.9-0.6-2.6c0.4-0.7,1.9-2.8,2.9-2.8h5.2
	c1,0,1.9-0.8,2.1-1.8c0,0,0.2-1.4,0.2-3c0-0.2,0-0.4,0-0.5c-0.7-1.2-1.1-2.5-1.1-3.9c-0.3-0.3-0.8-0.4-1.2-0.4h-5.2
	c-1,0-2-0.6-2.3-1.4c-0.3-0.8-0.6-3.3,0.1-4l3.7-3.7c0.2-0.2,0.4-0.5,0.4-0.8c-0.8-0.9-1.4-2-1.7-3.3l-2.9-2.9
	c-0.4-0.3-0.8-0.4-1.3-0.4c-0.5,0-1,0.2-1.4,0.6l-3.7,3.7c-0.5,0.5-1.2,0.8-1.9,0.8c-0.3,0-0.5,0-0.7-0.2c-0.7-0.4-2.8-1.9-2.8-2.9
	v-5.2c0-1-0.8-1.9-1.8-2.1c0,0-1.4-0.2-3-0.2s-3,0.2-3,0.2c-1,0.1-1.8,1.1-1.8,2.1v5.2c0,1-0.6,2-1.4,2.3c-0.4,0.2-1.5,0.3-2.4,0.3
	c-0.7,0-1.3-0.1-1.6-0.4l-3.7-3.7c-0.4-0.4-0.9-0.6-1.4-0.6c-0.5,0-0.9,0.1-1.3,0.4l-4.3,4.3c-0.6,0.8-0.6,2,0.1,2.7l3.7,3.7
	c0.7,0.7,1,1.9,0.6,2.6c-0.4,0.7-1.9,2.8-2.9,2.8h-5.2c-1,0-1.9,0.8-2.1,1.8c0,0-0.2,1.4-0.2,3c0,1.7,0.2,3,0.2,3
	C380.9,93,381.9,93.8,382.9,93.8L382.9,93.8z"/>
<path d="M443.6,116.5c-2.7,0-4.9-2.2-4.9-4.9c0-2.7,2.2-4.9,4.9-4.9s4.9,2.2,4.9,4.9C448.5,114.3,446.3,116.5,443.6,116.5z
	 M453.3,114h2.6c0.5,0,1-0.4,1-0.9c0,0,0.1-0.7,0.1-1.5S457,110,457,110c-0.1-0.5-0.5-0.9-1-0.9h-2.6c-0.5,0-1-0.3-1.2-0.7
	c-0.1-0.4-0.3-1.7,0-2l1.8-1.8c0.4-0.4,0.4-1,0.1-1.3l-2.2-2.2c-0.2-0.1-0.4-0.2-0.6-0.2c-0.3,0-0.5,0.1-0.7,0.3l-1.8,1.8
	c-0.3,0.3-0.6,0.4-0.9,0.4c-0.1,0-0.3,0-0.4-0.1c-0.4-0.2-1.4-0.9-1.4-1.4v-2.6c0-0.5-0.4-1-0.9-1c0,0-0.7-0.1-1.5-0.1
	c-0.8,0-1.5,0.1-1.5,0.1c-0.5,0.1-0.9,0.5-0.9,1v2.6c0,0.5-0.3,1-0.7,1.2c-0.2,0.1-0.7,0.2-1.2,0.2c-0.3,0-0.7-0.1-0.8-0.2l-1.8-1.8
	c-0.2-0.2-0.4-0.3-0.7-0.3c-0.2,0-0.5,0.1-0.6,0.2l-2.2,2.2c-0.3,0.4-0.3,1,0.1,1.3l1.8,1.8c0.4,0.4,0.5,0.9,0.3,1.3
	c-0.2,0.4-0.9,1.4-1.4,1.4h-2.6c-0.5,0-1,0.4-1,0.9c0,0-0.1,0.7-0.1,1.5c0,0.8,0.1,1.5,0.1,1.5c0.1,0.5,0.5,0.9,1,0.9h2.6
	c0.5,0,1,0.3,1.2,0.7c0.1,0.4,0.3,1.6,0,2l-1.8,1.8c-0.4,0.4-0.4,1-0.1,1.3l2.2,2.2c0.2,0.2,0.4,0.2,0.6,0.2c0.3,0,0.5-0.1,0.7-0.3
	l1.8-1.8c0.3-0.3,0.6-0.4,0.9-0.4c0.1,0,0.3,0,0.4,0.1c0.4,0.2,1.4,0.9,1.4,1.4v2.6c0,0.5,0.4,1,0.9,1c0,0,0.7,0.1,1.5,0.1
	c0.8,0,1.5-0.1,1.5-0.1c0.5-0.1,0.9-0.5,0.9-1v-2.6c0-0.5,0.3-1,0.7-1.2c0.2-0.1,0.7-0.2,1.2-0.2c0.3,0,0.7,0,0.8,0.2l1.8,1.8
	c0.2,0.2,0.4,0.3,0.7,0.3c0.2,0,0.5-0.1,0.6-0.2l2.2-2.2c0.3-0.4,0.3-1-0.1-1.3l-1.8-1.8c-0.4-0.4-0.5-0.9-0.3-1.3
	C452.1,115,452.8,114,453.3,114z"/>
<path d="M463.5,54.3c6.5,0,11.9,5.3,11.9,11.9c0,6.5-5.3,11.9-11.9,11.9s-11.9-5.3-11.9-11.9C451.6,59.6,456.9,54.3,463.5,54.3z
	 M433.8,72h6.3c1.2,0,2.5,0.8,2.8,1.7c0.3,0.9,0.8,4-0.1,4.8l-4.4,4.4c-0.9,0.9-0.9,2.3-0.1,3.2l5.2,5.2c0.4,0.4,1,0.5,1.5,0.5
	c0.6,0,1.3-0.2,1.7-0.7l4.4-4.4c0.6-0.6,1.5-1,2.3-1c0.3,0,0.6,0.1,0.9,0.2c0.9,0.4,3.4,2.3,3.4,3.5v6.3c0,1.2,1,2.3,2.2,2.5
	c0,0,1.7,0.2,3.7,0.2c2,0,3.7-0.2,3.7-0.2c1.2-0.2,2.2-1.3,2.2-2.5v-6.3c0-1.2,0.8-2.5,1.7-2.8c0.5-0.2,1.8-0.4,2.9-0.4
	c0.8,0,1.6,0.1,2,0.5l4.4,4.4c0.5,0.5,1.1,0.7,1.7,0.7c0.6,0,1.1-0.2,1.5-0.5l5.2-5.2c0.8-0.9,0.7-2.4-0.1-3.2l-4.4-4.4
	c-0.9-0.9-1.2-2.3-0.8-3.2c0.4-0.9,2.3-3.4,3.5-3.4h6.3c1.2,0,2.3-1,2.5-2.2c0,0,0.2-1.7,0.2-3.7c0-2-0.2-3.7-0.2-3.7
	c-0.2-1.2-1.3-2.2-2.5-2.2h-6.3c-1.2,0-2.5-0.8-2.8-1.7c-0.3-0.9-0.8-4,0.1-4.8l4.4-4.4c0.9-0.9,0.9-2.3,0.1-3.2l-5.2-5.2
	c-0.4-0.4-1-0.5-1.5-0.5c-0.6,0-1.3,0.2-1.7,0.7l-4.4,4.4c-0.6,0.6-1.5,1-2.3,1c-0.3,0-0.6-0.1-0.9-0.2c-0.9-0.4-3.4-2.3-3.4-3.5
	v-6.2c0-1.2-1-2.3-2.2-2.5c0,0-1.7-0.2-3.7-0.2c-2,0-3.7,0.2-3.7,0.2c-1.2,0.2-2.2,1.3-2.2,2.5v6.3c0,1.2-0.8,2.5-1.7,2.8
	c-0.5,0.2-1.8,0.4-2.9,0.4c-0.8,0-1.6-0.1-2-0.5l-4.4-4.4c-0.5-0.5-1.1-0.7-1.7-0.7c-0.6,0-1.1,0.2-1.5,0.5l-5.2,5.2
	c-0.8,0.9-0.7,2.4,0.1,3.2l4.4,4.4c0.9,0.9,1.2,2.3,0.8,3.2c-0.4,0.9-2.3,3.4-3.5,3.4h-6.3c-1.2,0-2.3,1-2.5,2.2
	c0,0-0.2,1.7-0.2,3.7c0,2,0.2,3.7,0.2,3.7C431.5,71.1,432.6,72,433.8,72L433.8,72z"/>
<path d="M445.8,163.3l-9.9-12.4l12.8-10.9l32.4-27.6l9.9,12.4L445.8,163.3z M478.5,162.1l-43.7,37.2l0-40.1l8.3,10.4
	c0.5,0.6,1.3,1.1,2.1,1.1c0.1,0,0.2,0,0.3,0c0.7,0,1.4-0.3,2-0.7l31.1-26.5L478.5,162.1z M428.6,199.3l-43.7-37.2v-18.5L416,170
	c0.6,0.5,1.3,0.7,2,0.7c0.1,0,0.2,0,0.3,0c0.8-0.1,1.6-0.5,2.1-1.1l8.3-10.4L428.6,199.3z M372.4,124.8l9.9-12.4l45.2,38.5
	l-9.9,12.4L372.4,124.8z M497.7,123.3l-13.7-17.2c-0.1-0.1-0.2-0.2-0.3-0.3c0,0-0.1-0.1-0.1-0.1l-9.8-8.3c-0.5,2.1-1.9,3.9-3.8,4.8
	l6.8,5.8l-7.5,6.4l-37.6,32.1l-37.5-31.9l-10-8.5l-0.4-0.3c-0.6-0.5-1.4-0.8-2.1-0.7c0,0-0.1,0-0.1,0c0,0,0,0,0,0c0,0-0.1,0-0.1,0
	c-0.1,0-0.2,0-0.3,0.1c-0.1,0-0.2,0-0.3,0.1c-0.1,0-0.2,0.1-0.3,0.1c-0.1,0-0.2,0.1-0.3,0.1c-0.1,0.1-0.2,0.1-0.3,0.2
	c-0.1,0.1-0.2,0.1-0.2,0.2l0,0c-0.1,0.1-0.1,0.1-0.2,0.2c0,0-0.1,0.1-0.1,0.1l-13.7,17.2c-1,1.3-0.8,3.2,0.4,4.2l12.6,10.8v25.2
	c0,0.9,0.4,1.7,1.1,2.3l49.8,42.5c0,0,0.1,0.1,0.1,0.1c0.1,0,0.1,0.1,0.2,0.1c0.1,0.1,0.2,0.1,0.3,0.2c0.1,0,0.1,0.1,0.2,0.1
	c0.1,0,0.2,0.1,0.3,0.1c0.1,0,0.1,0,0.2,0c0.2,0,0.4,0.1,0.6,0.1c0.2,0,0.4,0,0.6-0.1c0.1,0,0.1,0,0.2,0c0.1,0,0.2-0.1,0.3-0.1
	c0.1,0,0.1-0.1,0.2-0.1c0.1,0,0.2-0.1,0.3-0.2c0.1,0,0.1-0.1,0.2-0.1c0,0,0.1-0.1,0.2-0.1l49.8-42.5c0.7-0.6,1.1-1.4,1.1-2.3v-25.2
	l12.6-10.8C498.5,126.5,498.7,124.6,497.7,123.3L497.7,123.3z"/>
<path d="M672.2,147.4c1.2,0,2.2,1,2.2,2.2c0,1.2-1,2.2-2.2,2.2c-1.2,0-2.2-1-2.2-2.2C670,148.4,671,147.4,672.2,147.4z M672.2,144
	c-3.1,0-5.6,2.5-5.6,5.6c0,3.1,2.5,5.6,5.6,5.6c3.1,0,5.6-2.5,5.6-5.6C677.8,146.6,675.3,144,672.2,144z M713.4,141.6
	c2.8,0,5.1,2.3,5.1,5.1c0,2.8-2.3,5.1-5.1,5.1c-2.8,0-5.1-2.3-5.1-5.1C708.3,143.9,710.6,141.6,713.4,141.6z M713.4,138.3
	c-4.7,0-8.5,3.8-8.5,8.5c0,4.7,3.8,8.5,8.5,8.5c4.7,0,8.5-3.8,8.5-8.5C721.9,142.1,718,138.3,713.4,138.3z M671.4,137.3h1.7v1.1
	c0,0.8,0.5,1.5,1.3,1.7c1.1,0.2,2.1,0.7,3,1.3c0.7,0.4,1.5,0.3,2.1-0.2l0.8-0.8l1.2,1.2l-0.8,0.8c-0.6,0.6-0.7,1.4-0.2,2.1
	c0.6,0.9,1,2,1.2,3c0.2,0.8,0.9,1.3,1.7,1.3h1.2v1.7h-1.1c-0.8,0-1.5,0.5-1.7,1.3c-0.2,1.1-0.7,2.1-1.2,3c-0.4,0.7-0.3,1.5,0.2,2.1
	l0.8,0.8l-1.2,1.2l-0.8-0.8c-0.6-0.6-1.4-0.7-2.1-0.2c-0.9,0.6-1.9,1-3,1.2c-0.8,0.2-1.3,0.9-1.3,1.7v1.2h-1.7v-1.1
	c0-0.8-0.5-1.5-1.3-1.7c-1.1-0.2-2.1-0.7-3-1.2c-0.7-0.4-1.5-0.3-2.1,0.2l-0.8,0.8l-1.2-1.2l0.8-0.8c0.6-0.6,0.7-1.4,0.2-2.1
	c-0.6-0.9-1-2-1.2-3c-0.2-0.8-0.9-1.3-1.6-1.3h-1.2v-1.7h1.2c0.8,0,1.5-0.5,1.7-1.3c0.2-1.1,0.7-2.1,1.2-3c0.4-0.7,0.3-1.5-0.2-2.1
	l-0.8-0.8l1.2-1.2l0.8,0.8c0.6,0.6,1.4,0.7,2.1,0.2c0.9-0.6,2-1,3-1.2c0.8-0.2,1.3-0.9,1.3-1.7V137.3z M669.7,133.9
	c-0.9,0-1.7,0.8-1.7,1.7v1.7c-0.5,0.2-1,0.4-1.4,0.6l-1.2-1.2c-0.7-0.7-1.7-0.7-2.4,0l-3.6,3.6c-0.7,0.7-0.7,1.7,0,2.4l1.2,1.2
	c-0.2,0.5-0.4,0.9-0.6,1.4h-1.7c-0.9,0-1.7,0.8-1.7,1.7v5.1c0,0.9,0.8,1.7,1.7,1.7h1.7c0.2,0.5,0.4,1,0.6,1.4l-1.2,1.2
	c-0.7,0.7-0.7,1.7,0,2.4l3.6,3.6c0.7,0.7,1.7,0.7,2.4,0l1.2-1.2c0.5,0.2,0.9,0.4,1.4,0.6v1.7c0,0.9,0.8,1.7,1.7,1.7h5.1
	c0.9,0,1.7-0.8,1.7-1.7v-1.7c0.5-0.2,1-0.4,1.4-0.6l1.2,1.2c0.7,0.7,1.7,0.7,2.4,0l3.6-3.6c0.3-0.3,0.5-0.8,0.5-1.2
	s-0.2-0.9-0.5-1.2l-1.2-1.2c0.2-0.5,0.4-0.9,0.6-1.4h1.7c0.9,0,1.7-0.8,1.7-1.7v-5.1c0-0.9-0.8-1.7-1.7-1.7h-1.7
	c-0.2-0.5-0.4-1-0.6-1.4l1.2-1.2c0.7-0.7,0.7-1.7,0-2.4l-3.6-3.6c-0.7-0.7-1.7-0.7-2.4,0l-1.2,1.2c-0.5-0.2-0.9-0.4-1.4-0.6v-1.7
	c0-0.9-0.8-1.7-1.7-1.7L669.7,133.9z M711.4,128.1h4v2.4c0,0.8,0.5,1.5,1.3,1.7c1.6,0.4,3.2,1,4.6,1.9c0.7,0.4,1.5,0.3,2.1-0.2
	l1.7-1.7l2.8,2.8l-1.7,1.7c-0.6,0.6-0.7,1.4-0.2,2.1c0.9,1.4,1.5,3,1.9,4.6c0.2,0.8,0.9,1.3,1.7,1.3h2.5v4h-2.4
	c-0.8,0-1.5,0.5-1.7,1.3c-0.4,1.6-1,3.2-1.9,4.6c-0.4,0.7-0.3,1.5,0.2,2.1l1.7,1.7l-2.8,2.8l-1.7-1.7c-0.6-0.6-1.4-0.6-2.1-0.2
	c-1.4,0.9-3,1.5-4.6,1.9c-0.8,0.2-1.3,0.9-1.3,1.6v2.5h-4V163c0-0.8-0.6-1.5-1.3-1.6c-1.6-0.4-3.2-1-4.6-1.9
	c-0.7-0.4-1.5-0.3-2.1,0.2l-1.7,1.7l-2.8-2.8l1.7-1.7c0.6-0.6,0.7-1.4,0.2-2.1c-0.9-1.4-1.5-3-1.9-4.6c-0.2-0.8-0.9-1.3-1.7-1.3
	h-2.4v-4h2.4c0.8,0,1.5-0.5,1.7-1.3c0.4-1.6,1-3.2,1.9-4.6c0.4-0.7,0.3-1.5-0.2-2.1l-1.7-1.7l2.8-2.8l1.7,1.7
	c0.6,0.6,1.4,0.7,2.1,0.2c1.4-0.9,3-1.5,4.6-1.9c0.8-0.2,1.3-0.9,1.3-1.6V128.1z M709.7,124.7c-0.9,0-1.7,0.8-1.7,1.7v3
	c-1.1,0.3-2.1,0.7-3,1.2l-2.1-2.1c-0.7-0.7-1.7-0.7-2.4,0l-5.2,5.2c-0.7,0.7-0.7,1.7,0,2.4l2.1,2.1c-0.5,1-0.9,2-1.3,3h-3
	c-0.9,0-1.7,0.8-1.7,1.7v7.4c0,0.9,0.8,1.7,1.7,1.7h3c0.3,1.1,0.7,2.1,1.3,3l-2.1,2.1c-0.7,0.7-0.7,1.7,0,2.4l5.2,5.2
	c0.7,0.7,1.7,0.7,2.4,0l2.1-2.1c1,0.5,2,0.9,3,1.3v3c0,0.9,0.8,1.7,1.7,1.7h7.4c0.9,0,1.7-0.8,1.7-1.7v-3c1.1-0.3,2.1-0.7,3-1.2
	l2.1,2.1c0.7,0.7,1.7,0.7,2.4,0l5.2-5.2c0.7-0.7,0.7-1.7,0-2.4l-2.1-2.1c0.5-1,0.9-2,1.3-3h3c0.9,0,1.7-0.8,1.7-1.7V143
	c0-0.9-0.8-1.7-1.7-1.7h-3c-0.3-1.1-0.7-2.1-1.3-3l2.1-2.1c0.7-0.7,0.7-1.7,0-2.4l-5.2-5.2c-0.7-0.7-1.7-0.7-2.4,0l-2.1,2.1
	c-1-0.5-2-0.9-3-1.3v-3c0-0.9-0.8-1.7-1.7-1.7L709.7,124.7z M696.4,100.9c-0.7,0-1.3,0.4-1.6,1.1c-0.3,0.6-0.1,1.4,0.4,1.9l9,9l-9,9
	c-0.3,0.3-0.5,0.8-0.5,1.2c0,0.5,0.2,0.9,0.5,1.2c0.3,0.3,0.8,0.5,1.2,0.5c0.5,0,0.9-0.2,1.2-0.5l10.1-10.1c0.4-0.3,0.6-0.8,0.6-1.2
	c0-0.5-0.2-0.9-0.5-1.3h0l-10.1-10.1C697.3,101.1,696.9,100.9,696.4,100.9L696.4,100.9z M665.8,100.9L665.8,100.9
	c-0.4,0-0.9,0.2-1.2,0.5l-10.1,10.1c-0.1,0.1-0.3,0.2-0.3,0.4c0,0-0.1,0.1-0.1,0.1h0c0,0,0,0,0,0c0,0,0,0.1,0,0.1c0,0,0,0.1,0,0.1
	c0,0,0,0.1,0,0.1c0,0,0,0.1,0,0.1c0,0,0,0,0,0.1c0,0,0,0,0,0.1c-0.1,0.6,0.1,1.2,0.6,1.6l10,10c0.3,0.3,0.8,0.5,1.2,0.5
	c0.5,0,0.9-0.2,1.2-0.5c0.3-0.3,0.5-0.8,0.5-1.2s-0.2-0.9-0.5-1.2l-9-9l9-9c0.5-0.5,0.7-1.2,0.4-1.9
	C667.1,101.3,666.5,100.9,665.8,100.9L665.8,100.9z M689.7,97.5L689.7,97.5l-0.2,0c-0.6,0-1.1,0.3-1.4,0.8l-17,27.1
	c-0.3,0.4-0.4,0.9-0.3,1.3c0.1,0.4,0.4,0.8,0.8,1.1c0.4,0.2,0.9,0.3,1.3,0.2c0.4-0.1,0.8-0.4,1.1-0.8l17-27.1
	c0.3-0.5,0.4-1.2,0.1-1.7C690.8,97.9,690.3,97.5,689.7,97.5L689.7,97.5z M659.1,80.5c-0.9,0-1.7,0.8-1.7,1.7c0,0.5,0.2,0.9,0.5,1.2
	c0.3,0.3,0.8,0.5,1.2,0.5s0.9-0.2,1.2-0.5c0.3-0.3,0.5-0.8,0.5-1.2c0-0.5-0.2-0.9-0.5-1.2C659.9,80.7,659.5,80.5,659.1,80.5
	L659.1,80.5z M652.3,80.5c-0.9,0-1.7,0.8-1.7,1.7c0,0.5,0.2,0.9,0.5,1.2c0.3,0.3,0.8,0.5,1.2,0.5c0.5,0,0.9-0.2,1.2-0.5
	c0.3-0.3,0.5-0.8,0.5-1.2c0-0.5-0.2-0.9-0.5-1.2C653.2,80.7,652.7,80.5,652.3,80.5L652.3,80.5z M645.5,80.5c-0.9,0-1.7,0.8-1.7,1.7
	c0,0.5,0.2,0.9,0.5,1.2c0.3,0.3,0.8,0.5,1.2,0.5c0.4,0,0.9-0.2,1.2-0.5c0.3-0.3,0.5-0.8,0.5-1.2c0-0.5-0.2-0.9-0.5-1.2
	C646.4,80.7,645.9,80.5,645.5,80.5L645.5,80.5z M640.4,77.1h81.5v10.2h-81.5V77.1z M638.7,73.7c-0.9,0-1.7,0.8-1.7,1.7v74.7
	c0,0.9,0.8,1.7,1.7,1.7h14.4v-3.4h-12.7V90.7h81.5v34.8c0,0.2,0.1,0.3,0.1,0.5c0.9-0.8,2.1-1.2,3.3-1.2V75.4c0-0.9-0.8-1.7-1.7-1.7
	L638.7,73.7z M684.5,39.8c43.1,0,78.1,34.9,78.1,78.1S727.7,196,684.5,196c-43.1,0-78.1-34.9-78.1-78.1S641.4,39.8,684.5,39.8z
	 M684.5,36.4c-45,0-81.5,36.5-81.5,81.5s36.5,81.5,81.5,81.5c45,0,81.5-36.5,81.5-81.5S729.5,36.4,684.5,36.4z"/>
<path d="M456.2,432.4c-0.2-4.4-0.9-8.8-2.2-13c-0.7-2.2-1.6-4.3-2.9-6.4c-1.3-2-2.9-4.1-5.3-5.5c-1.2-0.7-2.5-1.2-3.9-1.5
	c-0.7-0.1-1.5-0.2-2.1-0.2l-1.5-0.1c-2-0.1-4.1-0.3-6.2-0.5c-1.6-0.1-3.2-0.3-4.9-0.4c2.2-0.6,4.4-1.5,6.3-3c2.6-1.9,4.6-4.9,5.5-8
	c0.4-1.5,0.3-2.9-0.3-3.9c-0.6-1-1.4-1.5-2.3-1.5c-0.9,0-1.8,0.5-2.4,1.1c-0.7,0.6-1.2,1.4-1.4,2.3c-0.6,1.8-1.6,3.4-3.2,4.6
	c-1.5,1.2-3.5,1.9-5.5,2.1c-4.1,0.5-8.4-1.2-10.4-4.3c-0.8-1.3-1.4-2.8-1.6-4.4c-0.2-1.7-0.1-3.4,0.3-5c0.9-3.1,3.3-5.6,6.6-6.7
	c3.3-1.2,7.2-1.1,10.5,0.6c1.6,0.8,3.1,2,4.1,3.5c1.1,1.5,1.8,3.4,2.1,5.4c0.1,0.5,0.5,0.8,0.9,0.8s0.8-0.3,0.8-0.9
	c0.1-2.2-0.3-4.6-1.2-6.7c-1-2.2-2.6-4.1-4.6-5.5c-2-1.4-4.3-2.3-6.7-2.7c-2.4-0.4-4.9-0.4-7.3,0.2c-2.4,0.6-4.8,1.7-6.8,3.5
	c-2,1.7-3.5,4-4.4,6.5c-0.8,2.5-1.1,5.1-0.8,7.6c0.2,2.6,1.1,5.2,2.6,7.5c1.8,2.8,4.5,4.9,7.5,6c0.4,0.1,0.7,0.2,1.1,0.4
	c-3.5,0.1-7.1,0.4-10.8,1.2c-2.8,0.7-5.6,1.6-8.2,3.3c-2.6,1.7-4.9,4.1-6.4,6.9c-0.7,1.4-1.2,3-1.6,4.4c-0.3,1.4-0.6,2.7-0.8,4.1
	c-0.4,2.7-0.7,5.4-0.8,8c-0.3,5.3-0.1,10.7,0.7,16c0.4,2.7,1,5.4,1.9,8.1c0.9,2.7,2.2,5.4,4.2,7.9c1.9,2.4,4.9,3.7,6.9,3.7h0.4
	c0.3,2.5,0.7,5.1,1.1,7.6c0.1,0.6,1.6,0.6,1.7,0c1.7-9.6,2.5-19.2,2.5-28.9l0-17.5c0-1.4-1.5-2.5-3.4-2.5c-1.9,0-3.4,1.1-3.4,2.5
	v17.6c0,5,0.2,10,0.7,14.9c-0.5-0.5-0.9-1-1.5-1.7c-1.3-1.5-2.3-3.5-3-5.7c-0.7-2.2-1.3-4.5-1.6-6.9c-0.7-4.8-0.9-9.8-0.6-14.7
	c0.1-2.5,0.4-4.9,0.7-7.4c0.2-1.2,0.4-2.4,0.7-3.5c0.3-1.1,0.6-2,1-2.9c0.9-1.8,2.2-3.2,4-4.3c1.8-1.1,3.9-1.9,6.1-2.4
	c3.7-0.9,7.7-1.1,11.7-1.1c4.1,0,8.2,0.3,12.3,0.6c2.1,0.1,4.2,0.3,6.5,0.3h1.7c0.5,0,0.7,0.1,1.1,0.1c0.7,0.1,1.3,0.3,2,0.7
	c2.6,1.4,4.7,4.9,6,8.5c1.4,3.7,2.2,7.6,2.6,11.7c0.4,4,0.5,8.1,0.2,12.2c-0.4,4-1.1,8.1-2.6,11.7c-0.7,1.9-1.7,3.6-3,5.1
	c-0.9,1.1-2,2-3.2,2.6c0.6-6,1-11.9,1-17.8l0-17.6c0-1.4-1.5-2.5-3.4-2.5c-1.9,0-3.4,1.1-3.4,2.5v17.6c0,9.7,0.8,19.2,2.5,28.9
	c0.1,0.6,1.6,0.6,1.7,0c0.5-3,0.9-6,1.3-9c1.9-0.6,3.7-1.7,5.1-3.1c1.6-1.6,2.9-3.5,3.9-5.5c2-4,3.1-8.2,3.9-12.4
	C456.2,441.2,456.4,436.8,456.2,432.4L456.2,432.4z"/>
<path d="M453.7,487.7c-0.6-1.2-1.3-2.6-2.5-3.6c-1.2-1.1-2.6-1.8-4-2.2c-1.4-0.4-2.8-0.5-4-0.6c-2.5-0.1-4.8,0-7.1,0
	c-9.3-0.2-18.5-0.4-27.8-0.5c-2.3,0-4.7-0.1-7.2,0c-1.3,0.1-2.6,0.2-4.1,0.5c-1.4,0.3-3,0.9-4.5,2c-1.4,1.1-2.4,2.6-3.1,4.1
	c-0.3,0.7-0.6,1.4-0.7,2.1l-0.3,1l-0.2,1c-0.4,2.8-0.4,4.9-0.6,7.3c-0.3,5.8-0.6,11.5,0,17.6c0.1,0.8,0.3,1.6,0.4,2.4
	c0.2,0.8,0.4,1.7,0.8,2.5c0.6,1.7,1.8,3.5,3.4,4.8c1.6,1.3,3.6,2.1,5.3,2.5c1.7,0.4,3.4,0.5,4.9,0.5c3.1,0,5.8-0.1,8.6-0.1h25.5
	c5.4,0,9.8-1.5,9.8-3.4c0-1.9-4.4-3.4-9.8-3.4H411c-2.8,0-5.9,0.1-8.5,0.1s-4.9-0.4-6-1.4c-1.2-0.9-1.9-2.9-2.2-5.4
	c-0.6-5.2-0.3-10.9,0-16.4c0.2-2.3,0.2-4.8,0.5-6.6l0.1-0.7l0.2-0.7c0.1-0.5,0.3-0.8,0.4-1.2c0.3-0.7,0.6-1.2,1.1-1.5
	c0.4-0.3,1.1-0.6,1.9-0.8c0.8-0.2,1.8-0.3,2.9-0.4c2.1-0.1,4.4-0.1,6.8-0.1c9.4-0.1,18.7-0.3,28-0.5c2.4-0.1,4.8-0.3,6.9-0.3
	c1,0,2.1,0,2.9,0.2c0.8,0.2,1.5,0.5,2.1,1c0.6,0.4,1.1,1.2,1.5,2c0.4,0.8,0.8,1.9,1,2.8c0.5,2,0.7,4.3,0.9,6.6
	c0.4,4.5,0.5,9.1,0.2,13.6c-0.2,2.3-0.5,4.5-1,6.7c-0.5,2.1-1.4,4.3-3,5.3c-0.8,0.5-1.3,0.8-1.4,1.2c0,0.2,0.2,0.4,0.5,0.5
	c0.4,0.1,1,0.1,1.6-0.2c1.3-0.6,2.2-1.7,2.8-2.8c0.7-1.1,1.2-2.2,1.6-3.4c0.8-2.3,1.3-4.7,1.7-7c0.7-4.7,0.9-9.5,0.9-14.1
	c-0.1-2.4-0.2-4.7-0.6-7.3C454.6,490.1,454.2,489,453.7,487.7L453.7,487.7z"/>
<path d="M410.3,504.9c-0.2,0-0.3,0-0.3-0.2c0-0.1-0.1-0.1-0.1-0.2v-0.1c0,0,0.1-0.1,0.1-0.2l0.4-0.5c0.9-1.3,1.8-2.8,2.5-4.3
	c0.1-0.2-0.9-1.4-1.1-1.3c-1.7,0.5-3.2,1.1-4.7,1.8l-0.5,0.3c-0.1,0.1-0.1,0.1-0.3,0.2l-0.5,0.3l-1.9,1.3c-1.3,0.9-2.6,1.9-3.8,2.9
	c0.8,0.8,1.7,1.6,2.6,2.3l6.8,5.9c0.4,0.4,1.7-0.5,2.9-1.9c1.2-1.4,1.9-2.8,1.4-3.2L410.3,504.9z"/>
<path d="M434.7,496.8c-0.4-0.4-1.7,0.5-2.9,1.9c-1.2,1.4-1.9,2.8-1.4,3.2l3.6,3.1h0.1c0.1,0,0.2,0,0.2,0.2c0,0.1,0.1,0.1,0.1,0.2
	v0.1c0,0-0.1,0.1-0.1,0.2l-0.4,0.5c-0.9,1.3-1.8,2.8-2.5,4.3c-0.1,0.2,0.9,1.4,1.1,1.3c1.7-0.5,3.2-1.1,4.7-1.8l0.5-0.3
	c0.1-0.1,0.1-0.1,0.3-0.2l0.5-0.3l1.9-1.3c1.3-0.9,2.6-1.9,3.8-2.9c-0.8-0.8-1.7-1.6-2.6-2.3L434.7,496.8z"/>
<path d="M424,498.6c-1.8-0.5-3.3-0.7-3.4-0.3l-1.4,4.5c-0.8,2.5-0.7,5.1,0.1,8.1c0.1,0.2,1.5,0.6,1.6,0.5c2.3-2,3.9-4.2,4.6-6.6
	l1.4-4.5C427.2,499.8,425.8,499.1,424,498.6L424,498.6z"/>
<text transform="matrix(1 0 0 1 73.815 247.2595)" font-family="'ArialMT'" font-size="25">Android SDK</text>
<text transform="matrix(1 0 0 1 359.852 247.2592)" font-family="'ArialMT'" font-size="25">Java SDK</text>
<text transform="matrix(1 0 0 1 625.0372 247.2599)" font-family="'ArialMT'" font-size="25">Node.js app</text>
<path fill="#E7E7E7" d="M637.8,326H490.2c-7.6,0-14.2,5.4-14.2,12v41.7c-13,6.6-32.3,13.1-32.3,13.1s23.6,3.3,36.4,0
	c0.4-0.1,0.9-0.3,1.3-0.5c2.4,1.7,5.5,2.7,8.8,2.7h16.5h131.1c7.6,0,14.2-5.4,14.2-12v-45C652,331.4,645.4,326,637.8,326z"/>
<text transform="matrix(1 0 0 1 484.9255 354.4822)"><tspan x="0" y="0" font-family="'ArialMT'" font-size="18">uh, do we need </tspan><tspan x="0" y="21.6" font-family="'ArialMT'" font-size="18">to document these?</tspan></text>
<text transform="matrix(1 0 0 1 380.6169 551.5555)" font-family="'ArialMT'" font-size="18">tech writer</text>
</svg>
