<?xml version="1.0" encoding="utf-8"?>
<!-- Generator: Adobe Illustrator 17.1.0, SVG Export Plug-In . SVG Version: 6.00 Build 0)  -->
<!DOCTYPE svg PUBLIC "-//W3C//DTD SVG 1.1//EN" "http://www.w3.org/Graphics/SVG/1.1/DTD/svg11.dtd">
<svg version="1.1" id="Layer_1" xmlns="http://www.w3.org/2000/svg" xmlns:xlink="http://www.w3.org/1999/xlink" x="0px" y="0px"
	 viewBox="0 0 850 566" enable-background="new 0 0 850 566" xml:space="preserve">
<g>
	<path d="M134.8,107.2c0-7.7,6.2-13.9,13.9-13.9c7.7,0,13.9,6.2,13.9,13.9s-6.2,13.9-13.9,13.9C141,121.1,134.8,114.9,134.8,107.2z
		 M174.9,129.9l-13.8-13.8c1.8-2.5,2.8-5.6,2.8-8.9c0-8.4-6.9-15.3-15.3-15.3s-15.3,6.9-15.3,15.3s6.9,15.3,15.3,15.3
		c3.3,0,6.4-1.1,8.9-2.8l13.8,13.8c0.5,0.5,1.1,0.7,1.8,0.7c0.6,0,1.3-0.2,1.8-0.7C175.9,132.5,175.9,130.9,174.9,129.9L174.9,129.9
		z"/>
	<path fill="#ED1C24" d="M152.2,121.4c0.1,0.8,0.9,1.4,1.7,1.4c0.9-0.1,1.6-0.9,1.5-1.8l-0.1-0.8
		C154.4,120.7,153.3,121.2,152.2,121.4L152.2,121.4z"/>
	<path fill="#ED1C24" d="M153.7,90.8c-1.1,0-2.1,1-2.1,2.1c1.5,0.3,3,0.9,4.3,1.6l0-1.5c0,0,0-0.1,0-0.1
		C155.9,91.7,154.9,90.7,153.7,90.8L153.7,90.8z"/>
	<path fill="#ED1C24" d="M153.1,113c1.1,0,2.1-0.9,2.1-2l0.5-14.5c-1.5-1-3.3-1.7-5.1-1.9l0.5,16.5C151.1,112.1,152,113,153.1,113
		L153.1,113z"/>
	<path fill="#ED1C24" d="M153.3,116.3c-1.1-0.1-2.1,0.8-2.2,1.9l-0.1,1.6c1.5-0.3,3-0.8,4.3-1.6l0,0
		C155.1,117.2,154.3,116.4,153.3,116.3L153.3,116.3z"/>
	<path d="M142.7,95.9c-1.1,0.6-2.2,1.4-3.1,2.2l-3.4,5.8c-0.3,1-0.4,2.1-0.4,3.3c0,0.2,0,0.3,0,0.5L142.7,95.9z"/>
	<path d="M133,125.5c-1.1,0-2.2-0.6-2.8-1.6s-0.6-2.2,0-3.2l4.8-8.2c-0.2-0.6-0.4-1.1-0.6-1.7l-5.4,9.3c-0.8,1.4-0.8,3.1,0,4.5
		s2.3,2.3,3.9,2.3h30.3l-1.3-1.3L133,125.5z"/>
	<path d="M178.4,119.8l-20.6-35.7c-0.8-1.4-2.3-2.3-3.9-2.3c-1.6,0-3.1,0.9-3.9,2.3l-5.2,9c0.6-0.2,1.2-0.3,1.8-0.4l4.6-8
		c0.6-1,1.6-1.6,2.8-1.6c1.1,0,2.2,0.6,2.8,1.6l20.6,35.8l0,0c0.3,0.5,0.5,1.1,0.5,1.8c0,1.8-1.4,3.2-3.2,3.2H172l1.3,1.3h1.2
		c2.5,0,4.5-2,4.5-4.5C179.1,121.4,178.9,120.6,178.4,119.8L178.4,119.8z"/>
	<text transform="matrix(1 0 0 1 128.4937 67.0303)" font-family="'Arial-BoldMT'" font-size="20">Error 1</text>
</g>
<rect x="200" y="80" fill="#C4C0C0" width="528" height="16"/>
<rect x="200" y="108" fill="#C4C0C0" width="528" height="16"/>
<rect x="200" y="137" fill="#C4C0C0" width="528" height="16"/>
<text transform="matrix(1 0 0 1 128.4937 190.0303)" font-family="'Arial-BoldMT'" font-size="20">Error 2</text>
<rect x="199" y="203" fill="#C4C0C0" width="528" height="16"/>
<rect x="199" y="231" fill="#C4C0C0" width="528" height="16"/>
<rect x="199" y="260" fill="#C4C0C0" width="528" height="16"/>
<text transform="matrix(1 0 0 1 128.4937 305.0303)" font-family="'Arial-BoldMT'" font-size="20">Error 3</text>
<rect x="200" y="318" fill="#C4C0C0" width="528" height="16"/>
<rect x="200" y="346" fill="#C4C0C0" width="528" height="16"/>
<rect x="200" y="375" fill="#C4C0C0" width="528" height="16"/>
<g>
	<path d="M134.8,235c0-7.7,6.2-13.9,13.9-13.9s13.9,6.2,13.9,13.9s-6.2,13.9-13.9,13.9S134.8,242.6,134.8,235z M174.9,257.6
		l-13.8-13.8c1.8-2.5,2.8-5.6,2.8-8.9c0-8.4-6.9-15.3-15.3-15.3c-8.4,0-15.3,6.9-15.3,15.3s6.9,15.3,15.3,15.3
		c3.3,0,6.4-1.1,8.9-2.8l13.8,13.8c0.5,0.5,1.1,0.7,1.8,0.7c0.6,0,1.3-0.2,1.8-0.7C175.9,260.2,175.9,258.6,174.9,257.6L174.9,257.6
		z"/>
	<path fill="#ED1C24" d="M152.2,249.2c0.1,0.8,0.9,1.4,1.7,1.4c0.9-0.1,1.6-0.9,1.5-1.8l-0.1-0.8
		C154.4,248.5,153.3,248.9,152.2,249.2L152.2,249.2z"/>
	<path fill="#ED1C24" d="M153.7,218.5c-1.1,0-2.1,1-2.1,2.1c1.5,0.3,3,0.9,4.3,1.6l0-1.5c0,0,0-0.1,0-0.1
		C155.9,219.4,154.9,218.5,153.7,218.5L153.7,218.5z"/>
	<path fill="#ED1C24" d="M153.1,240.8c1.1,0,2.1-0.9,2.1-2l0.5-14.5c-1.5-1-3.3-1.7-5.1-1.9l0.5,16.5
		C151.1,239.8,152,240.7,153.1,240.8L153.1,240.8z"/>
	<path fill="#ED1C24" d="M153.3,244c-1.1-0.1-2.1,0.8-2.2,1.9l-0.1,1.6c1.5-0.3,3-0.8,4.3-1.6l0,0
		C155.1,244.9,154.3,244.1,153.3,244L153.3,244z"/>
	<path d="M142.7,223.6c-1.1,0.6-2.2,1.4-3.1,2.2l-3.4,5.8c-0.3,1-0.4,2.1-0.4,3.3c0,0.2,0,0.3,0,0.5L142.7,223.6z"/>
	<path d="M133,253.3c-1.1,0-2.2-0.6-2.8-1.6c-0.6-1-0.6-2.2,0-3.2l4.8-8.2c-0.2-0.6-0.4-1.1-0.6-1.7l-5.4,9.3
		c-0.8,1.4-0.8,3.1,0,4.5s2.3,2.3,3.9,2.3h30.3l-1.3-1.3L133,253.3z"/>
	<path d="M178.4,247.6l-20.6-35.7c-0.8-1.4-2.3-2.3-3.9-2.3c-1.6,0-3.1,0.9-3.9,2.3l-5.2,9c0.6-0.2,1.2-0.3,1.8-0.4l4.6-8
		c0.6-1,1.6-1.6,2.8-1.6c1.1,0,2.2,0.6,2.8,1.6l20.6,35.8l0,0c0.3,0.5,0.5,1.1,0.5,1.8c0,1.8-1.4,3.2-3.2,3.2H172l1.3,1.3h1.2
		c2.5,0,4.5-2,4.5-4.5C179.1,249.2,178.9,248.3,178.4,247.6L178.4,247.6z"/>
</g>
<g>
	<path d="M134.8,348.6c0-7.7,6.2-13.9,13.9-13.9s13.9,6.2,13.9,13.9s-6.2,13.9-13.9,13.9S134.8,356.3,134.8,348.6z M174.9,371.3
		l-13.8-13.8c1.8-2.5,2.8-5.6,2.8-8.9c0-8.4-6.9-15.3-15.3-15.3c-8.4,0-15.3,6.9-15.3,15.3s6.9,15.3,15.3,15.3
		c3.3,0,6.4-1.1,8.9-2.8l13.8,13.8c0.5,0.5,1.1,0.7,1.8,0.7c0.6,0,1.3-0.2,1.8-0.7C175.9,373.8,175.9,372.2,174.9,371.3L174.9,371.3
		z"/>
	<path fill="#ED1C24" d="M152.2,362.8c0.1,0.8,0.9,1.4,1.7,1.4c0.9-0.1,1.6-0.9,1.5-1.8l-0.1-0.8
		C154.4,362.1,153.3,362.5,152.2,362.8L152.2,362.8z"/>
	<path fill="#ED1C24" d="M153.7,332.2c-1.1,0-2.1,1-2.1,2.1c1.5,0.3,3,0.9,4.3,1.6l0-1.5c0,0,0-0.1,0-0.1
		C155.9,333.1,154.9,332.1,153.7,332.2L153.7,332.2z"/>
	<path fill="#ED1C24" d="M153.1,354.4c1.1,0,2.1-0.9,2.1-2l0.5-14.5c-1.5-1-3.3-1.7-5.1-1.9l0.5,16.5
		C151.1,353.5,152,354.4,153.1,354.4L153.1,354.4z"/>
	<path fill="#ED1C24" d="M153.3,357.7c-1.1-0.1-2.1,0.8-2.2,1.9l-0.1,1.6c1.5-0.3,3-0.8,4.3-1.6l0,0
		C155.1,358.6,154.3,357.7,153.3,357.7L153.3,357.7z"/>
	<path d="M142.7,337.3c-1.1,0.6-2.2,1.4-3.1,2.2l-3.4,5.8c-0.3,1-0.4,2.1-0.4,3.3c0,0.2,0,0.3,0,0.5L142.7,337.3z"/>
	<path d="M133,366.9c-1.1,0-2.2-0.6-2.8-1.6c-0.6-1-0.6-2.2,0-3.2l4.8-8.2c-0.2-0.6-0.4-1.1-0.6-1.7l-5.4,9.3
		c-0.8,1.4-0.8,3.1,0,4.5c0.8,1.4,2.3,2.3,3.9,2.3h30.3l-1.3-1.3L133,366.9z"/>
	<path d="M178.4,361.2l-20.6-35.7c-0.8-1.4-2.3-2.3-3.9-2.3c-1.6,0-3.1,0.9-3.9,2.3l-5.2,9c0.6-0.2,1.2-0.3,1.8-0.4l4.6-8
		c0.6-1,1.6-1.6,2.8-1.6c1.1,0,2.2,0.6,2.8,1.6l20.6,35.8l0,0c0.3,0.5,0.5,1.1,0.5,1.8c0,1.8-1.4,3.2-3.2,3.2H172l1.3,1.3h1.2
		c2.5,0,4.5-2,4.5-4.5C179.1,362.8,178.9,362,178.4,361.2L178.4,361.2z"/>
</g>
<text transform="matrix(1 0 0 1 128.4937 433.0303)" font-family="'Arial-BoldMT'" font-size="20">Error 4</text>
<rect x="204" y="446" fill="#C4C0C0" width="528" height="16"/>
<rect x="204" y="474" fill="#C4C0C0" width="528" height="16"/>
<rect x="204" y="503" fill="#C4C0C0" width="528" height="16"/>
<g>
	<path d="M134.8,476.6c0-7.7,6.2-13.9,13.9-13.9s13.9,6.2,13.9,13.9s-6.2,13.9-13.9,13.9S134.8,484.3,134.8,476.6z M174.9,499.3
		l-13.8-13.8c1.8-2.5,2.8-5.6,2.8-8.9c0-8.4-6.9-15.3-15.3-15.3c-8.4,0-15.3,6.9-15.3,15.3s6.9,15.3,15.3,15.3
		c3.3,0,6.4-1.1,8.9-2.8l13.8,13.8c0.5,0.5,1.1,0.7,1.8,0.7c0.6,0,1.3-0.2,1.8-0.7C175.9,501.8,175.9,500.2,174.9,499.3L174.9,499.3
		z"/>
	<path fill="#ED1C24" d="M152.2,490.8c0.1,0.8,0.9,1.4,1.7,1.4c0.9-0.1,1.6-0.9,1.5-1.8l-0.1-0.8
		C154.4,490.1,153.3,490.5,152.2,490.8L152.2,490.8z"/>
	<path fill="#ED1C24" d="M153.7,460.2c-1.1,0-2.1,1-2.1,2.1c1.5,0.3,3,0.9,4.3,1.6l0-1.5c0,0,0-0.1,0-0.1
		C155.9,461.1,154.9,460.1,153.7,460.2L153.7,460.2z"/>
	<path fill="#ED1C24" d="M153.1,482.4c1.1,0,2.1-0.9,2.1-2l0.5-14.5c-1.5-1-3.3-1.7-5.1-1.9l0.5,16.5
		C151.1,481.5,152,482.4,153.1,482.4L153.1,482.4z"/>
	<path fill="#ED1C24" d="M153.3,485.7c-1.1-0.1-2.1,0.8-2.2,1.9l-0.1,1.6c1.5-0.3,3-0.8,4.3-1.6l0,0
		C155.1,486.6,154.3,485.7,153.3,485.7L153.3,485.7z"/>
	<path d="M142.7,465.3c-1.1,0.6-2.2,1.4-3.1,2.2l-3.4,5.8c-0.3,1-0.4,2.1-0.4,3.3c0,0.2,0,0.3,0,0.5L142.7,465.3z"/>
	<path d="M133,494.9c-1.1,0-2.2-0.6-2.8-1.6c-0.6-1-0.6-2.2,0-3.2l4.8-8.2c-0.2-0.6-0.4-1.1-0.6-1.7l-5.4,9.3
		c-0.8,1.4-0.8,3.1,0,4.5c0.8,1.4,2.3,2.3,3.9,2.3h30.3l-1.3-1.3L133,494.9z"/>
	<path d="M178.4,489.2l-20.6-35.7c-0.8-1.4-2.3-2.3-3.9-2.3c-1.6,0-3.1,0.9-3.9,2.3l-5.2,9c0.6-0.2,1.2-0.3,1.8-0.4l4.6-8
		c0.6-1,1.6-1.6,2.8-1.6c1.1,0,2.2,0.6,2.8,1.6l20.6,35.8l0,0c0.3,0.5,0.5,1.1,0.5,1.8c0,1.8-1.4,3.2-3.2,3.2H172l1.3,1.3h1.2
		c2.5,0,4.5-2,4.5-4.5C179.1,490.8,178.9,490,178.4,489.2L178.4,489.2z"/>
</g>
</svg>
