<?xml version="1.0" encoding="utf-8"?>
<!-- Generator: Adobe Illustrator 19.2.0, SVG Export Plug-In . SVG Version: 6.00 Build 0)  -->
<svg version="1.1" xmlns="http://www.w3.org/2000/svg" xmlns:xlink="http://www.w3.org/1999/xlink" x="0px" y="0px"
	 viewBox="0 0 125 125" enable-background="new 0 0 125 125" xml:space="preserve">
<g id="adtext">
	<rect fill="none" stroke="#D3D3D3" stroke-miterlimit="10" width="125" height="125"/>
</g>
<g id="Layer_1">
	<rect fill="#FFFFFF" stroke="#000000" stroke-miterlimit="10" width="125" height="125"/>
	<path d="M72.8,99l-1.9-23.6c0.2-0.3,0.4-0.7,0.5-1H47L45,99l0,0.4l0,32.3l10.1,0.3l1.7-32.1l1.5-18.6c0.4,0,0.8,0.1,1.3,0.1
		l1.5,18.5l1.7,32.1l10-0.3l0-32.3L72.8,99z"/>
	<polygon points="112,43.6 112,53.7 116,53.4 116.7,44.7 	"/>
	<polygon points="2.7,54.3 6.7,54.6 6.7,44.6 2.2,45.3 	"/>
	<path d="M66.1,30.9L66.1,30.9c-1.7-0.8-3.7-1.3-5.9-1.3c-2.1,0-4.1,0.4-5.8,1.2l-0.1,0l-1,0.5c-0.1,0-0.2,0.1-0.3,0.1L44.3,36h32.5
		L66.1,30.9z"/>
	<rect x="9.2" y="38.6" fill="#F2B13D" width="100.4" height="33.2"/>
	<path d="M59.3,25.5c6.1,1,11.7-3.5,12.6-10c0.9-6.4-3.3-12.5-9.4-13.4c-6.1-1-11.7,3.5-12.6,10C49,18.5,53.2,24.5,59.3,25.5z"/>
	<g>
		<path d="M17.1,59.2v-4.9l-4.4-6.6h1.8l2.3,3.5c0.4,0.6,0.8,1.3,1.2,1.9c0.3-0.6,0.8-1.3,1.2-2l2.2-3.4h1.8l-4.6,6.6v4.9H17.1z"/>
		<path d="M22.4,55c0-1.5,0.4-2.7,1.3-3.4c0.7-0.6,1.6-0.9,2.6-0.9c1.1,0,2.1,0.4,2.8,1.1s1.1,1.8,1.1,3.1c0,1.1-0.2,1.9-0.5,2.5
			s-0.8,1.1-1.4,1.4s-1.3,0.5-2,0.5c-1.2,0-2.1-0.4-2.8-1.1S22.4,56.4,22.4,55z M23.8,55c0,1.1,0.2,1.9,0.7,2.4s1,0.8,1.8,0.8
			c0.7,0,1.3-0.3,1.7-0.8s0.7-1.3,0.7-2.4c0-1-0.2-1.8-0.7-2.3s-1-0.8-1.7-0.8c-0.7,0-1.3,0.3-1.8,0.8S23.8,53.9,23.8,55z"/>
		<path d="M37.3,59.2v-1.2c-0.6,0.9-1.5,1.4-2.6,1.4c-0.5,0-0.9-0.1-1.4-0.3s-0.7-0.4-0.9-0.7s-0.4-0.6-0.4-1
			c-0.1-0.3-0.1-0.7-0.1-1.3v-5.1h1.4v4.6c0,0.7,0,1.2,0.1,1.5c0.1,0.4,0.3,0.7,0.6,0.9s0.6,0.3,1.1,0.3s0.8-0.1,1.2-0.3
			s0.6-0.5,0.8-0.9s0.2-0.9,0.2-1.6v-4.4h1.4v8.3H37.3z"/>
		<path d="M40.7,59.2v-8.3H42v1.3c0.3-0.6,0.6-1,0.9-1.2s0.6-0.3,0.9-0.3c0.5,0,1,0.2,1.4,0.5l-0.5,1.3c-0.3-0.2-0.7-0.3-1-0.3
			c-0.3,0-0.6,0.1-0.8,0.3s-0.4,0.4-0.5,0.8c-0.2,0.5-0.2,1-0.2,1.6v4.3H40.7z"/>
		<path d="M55.9,58.1c-0.5,0.4-1,0.8-1.5,0.9s-1,0.3-1.6,0.3c-0.9,0-1.6-0.2-2.1-0.7S50,57.7,50,57c0-0.4,0.1-0.8,0.3-1.1
			s0.4-0.6,0.7-0.8s0.6-0.4,1-0.5c0.3-0.1,0.7-0.1,1.2-0.2c1.1-0.1,2-0.3,2.5-0.5c0-0.2,0-0.3,0-0.4c0-0.6-0.1-1-0.4-1.2
			c-0.4-0.3-0.9-0.5-1.6-0.5c-0.7,0-1.1,0.1-1.5,0.3s-0.5,0.6-0.7,1.2l-1.4-0.2c0.1-0.6,0.3-1.1,0.6-1.4s0.7-0.6,1.2-0.8
			s1.2-0.3,1.9-0.3c0.7,0,1.3,0.1,1.7,0.2s0.8,0.4,1,0.6s0.4,0.6,0.4,1c0,0.2,0.1,0.7,0.1,1.3v1.9c0,1.3,0,2.1,0.1,2.5
			s0.2,0.7,0.4,1h-1.5C56,58.9,55.9,58.5,55.9,58.1z M55.8,55c-0.5,0.2-1.3,0.4-2.3,0.5c-0.6,0.1-1,0.2-1.2,0.3s-0.4,0.3-0.6,0.5
			s-0.2,0.4-0.2,0.7c0,0.4,0.1,0.7,0.4,0.9s0.7,0.4,1.2,0.4c0.5,0,1-0.1,1.4-0.4s0.7-0.6,0.9-1c0.2-0.3,0.2-0.8,0.2-1.4V55z"/>
		<path d="M64.8,59.2v-1c-0.5,0.8-1.3,1.2-2.3,1.2c-0.7,0-1.3-0.2-1.8-0.5s-1-0.9-1.3-1.5s-0.5-1.4-0.5-2.3c0-0.8,0.1-1.6,0.4-2.3
			s0.7-1.2,1.2-1.6s1.2-0.5,1.9-0.5c0.5,0,0.9,0.1,1.3,0.3s0.7,0.5,1,0.8v-4.1h1.4v11.5H64.8z M60.3,55c0,1.1,0.2,1.9,0.7,2.4
			s1,0.8,1.6,0.8c0.6,0,1.1-0.3,1.6-0.8s0.6-1.3,0.6-2.3c0-1.1-0.2-2-0.7-2.5s-1-0.8-1.6-0.8c-0.6,0-1.1,0.3-1.6,0.8
			S60.3,53.9,60.3,55z"/>
		<path d="M72.7,59.2V47.7h1.4v4.1c0.7-0.8,1.5-1.1,2.5-1.1c0.6,0,1.1,0.1,1.6,0.4s0.8,0.6,1,1s0.3,1,0.3,1.9v5.3h-1.4v-5.3
			c0-0.7-0.2-1.2-0.5-1.5s-0.7-0.5-1.3-0.5c-0.4,0-0.8,0.1-1.2,0.3s-0.6,0.5-0.8,0.9s-0.2,0.9-0.2,1.5v4.5H72.7z"/>
		<path d="M87.3,56.5l1.5,0.2c-0.2,0.8-0.7,1.5-1.3,2s-1.4,0.7-2.4,0.7c-1.2,0-2.2-0.4-2.9-1.1s-1.1-1.8-1.1-3.1
			c0-1.4,0.4-2.5,1.1-3.2s1.7-1.2,2.8-1.2c1.1,0,2,0.4,2.7,1.1s1.1,1.8,1.1,3.2c0,0.1,0,0.2,0,0.4h-6.2c0.1,0.9,0.3,1.6,0.8,2.1
			s1,0.7,1.7,0.7c0.5,0,1-0.1,1.3-0.4S87.1,57.1,87.3,56.5z M82.7,54.2h4.6c-0.1-0.7-0.2-1.2-0.5-1.6c-0.4-0.5-1-0.8-1.7-0.8
			c-0.6,0-1.2,0.2-1.6,0.6S82.7,53.5,82.7,54.2z"/>
		<path d="M90.5,59.2v-8.3h1.3v1.3c0.3-0.6,0.6-1,0.9-1.2s0.6-0.3,0.9-0.3c0.5,0,1,0.2,1.4,0.5l-0.5,1.3c-0.3-0.2-0.7-0.3-1-0.3
			c-0.3,0-0.6,0.1-0.8,0.3s-0.4,0.4-0.5,0.8c-0.2,0.5-0.2,1-0.2,1.6v4.3H90.5z"/>
		<path d="M101.5,56.5l1.5,0.2c-0.2,0.8-0.7,1.5-1.3,2s-1.4,0.7-2.4,0.7c-1.2,0-2.2-0.4-2.9-1.1s-1.1-1.8-1.1-3.1
			c0-1.4,0.4-2.5,1.1-3.2s1.7-1.2,2.8-1.2c1.1,0,2,0.4,2.7,1.1s1.1,1.8,1.1,3.2c0,0.1,0,0.2,0,0.4h-6.2c0.1,0.9,0.3,1.6,0.8,2.1
			s1,0.7,1.7,0.7c0.5,0,1-0.1,1.3-0.4S101.3,57.1,101.5,56.5z M96.9,54.2h4.6c-0.1-0.7-0.2-1.2-0.5-1.6c-0.4-0.5-1-0.8-1.7-0.8
			c-0.6,0-1.2,0.2-1.6,0.6S97,53.5,96.9,54.2z"/>
	</g>
</g>
</svg>
